%TF.GenerationSoftware,KiCad,Pcbnew,8.0.5*%
%TF.CreationDate,2024-10-22T02:59:18+02:00*%
%TF.ProjectId,Carte sensors,43617274-6520-4736-956e-736f72732e6b,rev?*%
%TF.SameCoordinates,Original*%
%TF.FileFunction,Paste,Bot*%
%TF.FilePolarity,Positive*%
%FSLAX46Y46*%
G04 Gerber Fmt 4.6, Leading zero omitted, Abs format (unit mm)*
G04 Created by KiCad (PCBNEW 8.0.5) date 2024-10-22 02:59:18*
%MOMM*%
%LPD*%
G01*
G04 APERTURE LIST*
G04 Aperture macros list*
%AMRoundRect*
0 Rectangle with rounded corners*
0 $1 Rounding radius*
0 $2 $3 $4 $5 $6 $7 $8 $9 X,Y pos of 4 corners*
0 Add a 4 corners polygon primitive as box body*
4,1,4,$2,$3,$4,$5,$6,$7,$8,$9,$2,$3,0*
0 Add four circle primitives for the rounded corners*
1,1,$1+$1,$2,$3*
1,1,$1+$1,$4,$5*
1,1,$1+$1,$6,$7*
1,1,$1+$1,$8,$9*
0 Add four rect primitives between the rounded corners*
20,1,$1+$1,$2,$3,$4,$5,0*
20,1,$1+$1,$4,$5,$6,$7,0*
20,1,$1+$1,$6,$7,$8,$9,0*
20,1,$1+$1,$8,$9,$2,$3,0*%
%AMOutline5P*
0 Free polygon, 5 corners , with rotation*
0 The origin of the aperture is its center*
0 number of corners: always 5*
0 $1 to $10 corner X, Y*
0 $11 Rotation angle, in degrees counterclockwise*
0 create outline with 5 corners*
4,1,5,$1,$2,$3,$4,$5,$6,$7,$8,$9,$10,$1,$2,$11*%
%AMOutline6P*
0 Free polygon, 6 corners , with rotation*
0 The origin of the aperture is its center*
0 number of corners: always 6*
0 $1 to $12 corner X, Y*
0 $13 Rotation angle, in degrees counterclockwise*
0 create outline with 6 corners*
4,1,6,$1,$2,$3,$4,$5,$6,$7,$8,$9,$10,$11,$12,$1,$2,$13*%
%AMOutline7P*
0 Free polygon, 7 corners , with rotation*
0 The origin of the aperture is its center*
0 number of corners: always 7*
0 $1 to $14 corner X, Y*
0 $15 Rotation angle, in degrees counterclockwise*
0 create outline with 7 corners*
4,1,7,$1,$2,$3,$4,$5,$6,$7,$8,$9,$10,$11,$12,$13,$14,$1,$2,$15*%
%AMOutline8P*
0 Free polygon, 8 corners , with rotation*
0 The origin of the aperture is its center*
0 number of corners: always 8*
0 $1 to $16 corner X, Y*
0 $17 Rotation angle, in degrees counterclockwise*
0 create outline with 8 corners*
4,1,8,$1,$2,$3,$4,$5,$6,$7,$8,$9,$10,$11,$12,$13,$14,$15,$16,$1,$2,$17*%
G04 Aperture macros list end*
%ADD10RoundRect,0.160000X0.160000X-0.197500X0.160000X0.197500X-0.160000X0.197500X-0.160000X-0.197500X0*%
%ADD11R,0.850000X0.500000*%
%ADD12R,0.800000X0.600000*%
%ADD13R,3.750000X4.410000*%
%ADD14RoundRect,0.135000X0.135000X0.185000X-0.135000X0.185000X-0.135000X-0.185000X0.135000X-0.185000X0*%
%ADD15RoundRect,0.135000X-0.135000X-0.185000X0.135000X-0.185000X0.135000X0.185000X-0.135000X0.185000X0*%
%ADD16RoundRect,0.135000X0.185000X-0.135000X0.185000X0.135000X-0.185000X0.135000X-0.185000X-0.135000X0*%
%ADD17R,0.550000X1.500000*%
%ADD18RoundRect,0.140000X0.140000X0.170000X-0.140000X0.170000X-0.140000X-0.170000X0.140000X-0.170000X0*%
%ADD19RoundRect,0.135000X-0.185000X0.135000X-0.185000X-0.135000X0.185000X-0.135000X0.185000X0.135000X0*%
%ADD20RoundRect,0.155000X0.212500X0.155000X-0.212500X0.155000X-0.212500X-0.155000X0.212500X-0.155000X0*%
%ADD21RoundRect,0.155000X-0.212500X-0.155000X0.212500X-0.155000X0.212500X0.155000X-0.212500X0.155000X0*%
%ADD22RoundRect,0.155000X-0.155000X0.212500X-0.155000X-0.212500X0.155000X-0.212500X0.155000X0.212500X0*%
%ADD23RoundRect,0.160000X-0.160000X0.197500X-0.160000X-0.197500X0.160000X-0.197500X0.160000X0.197500X0*%
%ADD24RoundRect,0.150000X0.625000X-0.150000X0.625000X0.150000X-0.625000X0.150000X-0.625000X-0.150000X0*%
%ADD25RoundRect,0.250000X0.650000X-0.350000X0.650000X0.350000X-0.650000X0.350000X-0.650000X-0.350000X0*%
%ADD26RoundRect,0.250000X0.412500X2.350000X-0.412500X2.350000X-0.412500X-2.350000X0.412500X-2.350000X0*%
%ADD27RoundRect,0.150000X-0.625000X0.150000X-0.625000X-0.150000X0.625000X-0.150000X0.625000X0.150000X0*%
%ADD28RoundRect,0.250000X-0.650000X0.350000X-0.650000X-0.350000X0.650000X-0.350000X0.650000X0.350000X0*%
%ADD29Outline5P,-0.650000X0.100000X0.000000X0.750000X0.650000X0.750000X0.650000X-0.750000X-0.650000X-0.750000X0.000000*%
%ADD30R,3.600000X1.100000*%
%ADD31RoundRect,0.150000X0.150000X0.625000X-0.150000X0.625000X-0.150000X-0.625000X0.150000X-0.625000X0*%
%ADD32RoundRect,0.250000X0.350000X0.650000X-0.350000X0.650000X-0.350000X-0.650000X0.350000X-0.650000X0*%
G04 APERTURE END LIST*
D10*
%TO.C,R22*%
X150295000Y-124602000D03*
X150295000Y-125797000D03*
%TD*%
%TO.C,R20*%
X150235000Y-118886000D03*
X150235000Y-120081000D03*
%TD*%
D11*
%TO.C,Q2*%
X151345000Y-122635000D03*
X151345000Y-121365000D03*
X151345000Y-120095000D03*
X151345000Y-118825000D03*
D12*
X157170000Y-118825000D03*
X157170000Y-120095000D03*
X157170000Y-121365000D03*
X157170000Y-122635000D03*
D13*
X154895000Y-120730000D03*
%TD*%
%TO.C,Q1*%
X154925000Y-126490000D03*
D12*
X157200000Y-128395000D03*
X157200000Y-127125000D03*
X157200000Y-125855000D03*
X157200000Y-124585000D03*
D11*
X151375000Y-124585000D03*
X151375000Y-125855000D03*
X151375000Y-127125000D03*
X151375000Y-128395000D03*
%TD*%
D14*
%TO.C,R3*%
X161670000Y-105370000D03*
X160650000Y-105370000D03*
%TD*%
D15*
%TO.C,R5*%
X165760000Y-102990000D03*
X166780000Y-102990000D03*
%TD*%
D16*
%TO.C,R2*%
X155730000Y-96650000D03*
X155730000Y-95630000D03*
%TD*%
D17*
%TO.C,SW1*%
X167540000Y-99885000D03*
X164290000Y-99885000D03*
%TD*%
D18*
%TO.C,C2*%
X151280000Y-111620000D03*
X150320000Y-111620000D03*
%TD*%
D19*
%TO.C,R6*%
X171600000Y-110430000D03*
X171600000Y-111450000D03*
%TD*%
D14*
%TO.C,R4*%
X161640000Y-106460000D03*
X160620000Y-106460000D03*
%TD*%
D20*
%TO.C,C17*%
X160565000Y-122592500D03*
X161700000Y-122592500D03*
%TD*%
D21*
%TO.C,C15*%
X164352500Y-122432500D03*
X163217500Y-122432500D03*
%TD*%
D20*
%TO.C,C14*%
X160467500Y-120022500D03*
X161602500Y-120022500D03*
%TD*%
D22*
%TO.C,C26*%
X160625000Y-126930000D03*
X160625000Y-125795000D03*
%TD*%
D20*
%TO.C,C16*%
X160565000Y-121622500D03*
X161700000Y-121622500D03*
%TD*%
D23*
%TO.C,R16*%
X166325000Y-122722500D03*
X166325000Y-121527500D03*
%TD*%
D15*
%TO.C,R1*%
X154070000Y-99090000D03*
X155090000Y-99090000D03*
%TD*%
D21*
%TO.C,C13*%
X164335000Y-121422500D03*
X163200000Y-121422500D03*
%TD*%
D18*
%TO.C,C1*%
X166780000Y-101890000D03*
X165820000Y-101890000D03*
%TD*%
D10*
%TO.C,R19*%
X215010000Y-121417500D03*
X215010000Y-120222500D03*
%TD*%
D20*
%TO.C,C22*%
X210167500Y-120490000D03*
X209032500Y-120490000D03*
%TD*%
D15*
%TO.C,R17*%
X183720000Y-108250000D03*
X184740000Y-108250000D03*
%TD*%
D24*
%TO.C,J4*%
X207025000Y-124780000D03*
X207025000Y-123780000D03*
X207025000Y-122780000D03*
X207025000Y-121780000D03*
D25*
X203150000Y-126080000D03*
X203150000Y-120480000D03*
%TD*%
D26*
%TO.C,R10*%
X216140000Y-97970000D03*
X213715000Y-97970000D03*
%TD*%
D21*
%TO.C,C10*%
X186542500Y-108800000D03*
X187677500Y-108800000D03*
%TD*%
D22*
%TO.C,C28*%
X209490000Y-126935000D03*
X209490000Y-128070000D03*
%TD*%
D21*
%TO.C,C21*%
X212412500Y-123072500D03*
X213547500Y-123072500D03*
%TD*%
D15*
%TO.C,R18*%
X183700000Y-109420000D03*
X184720000Y-109420000D03*
%TD*%
D18*
%TO.C,C4*%
X187760000Y-102230000D03*
X186800000Y-102230000D03*
%TD*%
D20*
%TO.C,C23*%
X210177500Y-122410000D03*
X209042500Y-122410000D03*
%TD*%
D21*
%TO.C,C20*%
X212412500Y-122092500D03*
X213547500Y-122092500D03*
%TD*%
D26*
%TO.C,R15*%
X216180000Y-103730000D03*
X213755000Y-103730000D03*
%TD*%
D18*
%TO.C,C3*%
X187760000Y-101230000D03*
X186800000Y-101230000D03*
%TD*%
D20*
%TO.C,C24*%
X210167500Y-121460000D03*
X209032500Y-121460000D03*
%TD*%
D27*
%TO.C,J3*%
X193465000Y-103800000D03*
X193465000Y-104800000D03*
X193465000Y-105800000D03*
X193465000Y-106800000D03*
D28*
X197340000Y-102500000D03*
X197340000Y-108100000D03*
%TD*%
D24*
%TO.C,J2*%
X181650000Y-108260000D03*
X181650000Y-107260000D03*
X181650000Y-106260000D03*
X181650000Y-105260000D03*
X181650000Y-104260000D03*
X181650000Y-103260000D03*
D25*
X177775000Y-109560000D03*
X177775000Y-101960000D03*
%TD*%
D29*
%TO.C,BT1*%
X187440000Y-107080000D03*
D30*
X186290000Y-103290000D03*
%TD*%
D31*
%TO.C,J1*%
X165460000Y-108420000D03*
X164460000Y-108420000D03*
X163460000Y-108420000D03*
X162460000Y-108420000D03*
D32*
X166760000Y-112295000D03*
X161160000Y-112295000D03*
%TD*%
M02*
