%TF.GenerationSoftware,KiCad,Pcbnew,8.0.5*%
%TF.CreationDate,2024-10-22T02:59:18+02:00*%
%TF.ProjectId,Carte sensors,43617274-6520-4736-956e-736f72732e6b,rev?*%
%TF.SameCoordinates,Original*%
%TF.FileFunction,Soldermask,Top*%
%TF.FilePolarity,Negative*%
%FSLAX46Y46*%
G04 Gerber Fmt 4.6, Leading zero omitted, Abs format (unit mm)*
G04 Created by KiCad (PCBNEW 8.0.5) date 2024-10-22 02:59:18*
%MOMM*%
%LPD*%
G01*
G04 APERTURE LIST*
G04 Aperture macros list*
%AMRoundRect*
0 Rectangle with rounded corners*
0 $1 Rounding radius*
0 $2 $3 $4 $5 $6 $7 $8 $9 X,Y pos of 4 corners*
0 Add a 4 corners polygon primitive as box body*
4,1,4,$2,$3,$4,$5,$6,$7,$8,$9,$2,$3,0*
0 Add four circle primitives for the rounded corners*
1,1,$1+$1,$2,$3*
1,1,$1+$1,$4,$5*
1,1,$1+$1,$6,$7*
1,1,$1+$1,$8,$9*
0 Add four rect primitives between the rounded corners*
20,1,$1+$1,$2,$3,$4,$5,0*
20,1,$1+$1,$4,$5,$6,$7,0*
20,1,$1+$1,$6,$7,$8,$9,0*
20,1,$1+$1,$8,$9,$2,$3,0*%
%AMOutline4P*
0 Free polygon, 4 corners , with rotation*
0 The origin of the aperture is its center*
0 number of corners: always 4*
0 $1 to $8 corner X, Y*
0 $9 Rotation angle, in degrees counterclockwise*
0 create outline with 4 corners*
4,1,4,$1,$2,$3,$4,$5,$6,$7,$8,$1,$2,$9*%
%AMOutline5P*
0 Free polygon, 5 corners , with rotation*
0 The origin of the aperture is its center*
0 number of corners: always 5*
0 $1 to $10 corner X, Y*
0 $11 Rotation angle, in degrees counterclockwise*
0 create outline with 5 corners*
4,1,5,$1,$2,$3,$4,$5,$6,$7,$8,$9,$10,$1,$2,$11*%
%AMOutline6P*
0 Free polygon, 6 corners , with rotation*
0 The origin of the aperture is its center*
0 number of corners: always 6*
0 $1 to $12 corner X, Y*
0 $13 Rotation angle, in degrees counterclockwise*
0 create outline with 6 corners*
4,1,6,$1,$2,$3,$4,$5,$6,$7,$8,$9,$10,$11,$12,$1,$2,$13*%
%AMOutline7P*
0 Free polygon, 7 corners , with rotation*
0 The origin of the aperture is its center*
0 number of corners: always 7*
0 $1 to $14 corner X, Y*
0 $15 Rotation angle, in degrees counterclockwise*
0 create outline with 7 corners*
4,1,7,$1,$2,$3,$4,$5,$6,$7,$8,$9,$10,$11,$12,$13,$14,$1,$2,$15*%
%AMOutline8P*
0 Free polygon, 8 corners , with rotation*
0 The origin of the aperture is its center*
0 number of corners: always 8*
0 $1 to $16 corner X, Y*
0 $17 Rotation angle, in degrees counterclockwise*
0 create outline with 8 corners*
4,1,8,$1,$2,$3,$4,$5,$6,$7,$8,$9,$10,$11,$12,$13,$14,$15,$16,$1,$2,$17*%
G04 Aperture macros list end*
%ADD10R,1.000000X2.000000*%
%ADD11R,2.000000X1.000000*%
%ADD12R,1.000000X1.000000*%
%ADD13R,1.400000X0.600000*%
%ADD14RoundRect,0.155000X0.155000X-0.212500X0.155000X0.212500X-0.155000X0.212500X-0.155000X-0.212500X0*%
%ADD15O,1.700000X1.700000*%
%ADD16R,1.700000X1.700000*%
%ADD17RoundRect,0.250000X0.650000X-0.350000X0.650000X0.350000X-0.650000X0.350000X-0.650000X-0.350000X0*%
%ADD18RoundRect,0.150000X0.625000X-0.150000X0.625000X0.150000X-0.625000X0.150000X-0.625000X-0.150000X0*%
%ADD19R,1.500000X0.550000*%
%ADD20R,0.850000X0.300000*%
%ADD21R,1.700000X2.500000*%
%ADD22R,0.550000X1.500000*%
%ADD23RoundRect,0.135000X-0.135000X-0.185000X0.135000X-0.185000X0.135000X0.185000X-0.135000X0.185000X0*%
%ADD24RoundRect,0.160000X0.197500X0.160000X-0.197500X0.160000X-0.197500X-0.160000X0.197500X-0.160000X0*%
%ADD25RoundRect,0.160000X-0.197500X-0.160000X0.197500X-0.160000X0.197500X0.160000X-0.197500X0.160000X0*%
%ADD26C,0.800000*%
%ADD27C,6.400000*%
%ADD28C,1.600000*%
%ADD29R,1.200000X0.800000*%
%ADD30RoundRect,0.140000X-0.140000X-0.170000X0.140000X-0.170000X0.140000X0.170000X-0.140000X0.170000X0*%
%ADD31RoundRect,0.237500X-0.237500X0.287500X-0.237500X-0.287500X0.237500X-0.287500X0.237500X0.287500X0*%
%ADD32RoundRect,0.135000X-0.185000X0.135000X-0.185000X-0.135000X0.185000X-0.135000X0.185000X0.135000X0*%
%ADD33R,1.525000X0.650000*%
%ADD34RoundRect,0.237500X0.237500X-0.287500X0.237500X0.287500X-0.237500X0.287500X-0.237500X-0.287500X0*%
%ADD35RoundRect,0.160000X0.160000X-0.197500X0.160000X0.197500X-0.160000X0.197500X-0.160000X-0.197500X0*%
%ADD36RoundRect,0.062500X-0.375000X-0.062500X0.375000X-0.062500X0.375000X0.062500X-0.375000X0.062500X0*%
%ADD37RoundRect,0.062500X-0.062500X-0.375000X0.062500X-0.375000X0.062500X0.375000X-0.062500X0.375000X0*%
%ADD38R,3.450000X3.450000*%
%ADD39Outline5P,-0.187500X0.175000X0.187500X0.175000X0.187500X-0.175000X-0.117500X-0.175000X-0.187500X-0.105000X0.000000*%
%ADD40Outline4P,-0.187500X0.175000X0.187500X0.175000X0.187500X-0.175000X-0.187500X-0.175000X0.000000*%
%ADD41Outline4P,-0.187500X0.175000X0.187500X0.175000X0.187500X-0.175000X-0.187500X-0.175000X270.000000*%
%ADD42RoundRect,0.218750X0.218750X0.256250X-0.218750X0.256250X-0.218750X-0.256250X0.218750X-0.256250X0*%
%ADD43RoundRect,0.155000X0.212500X0.155000X-0.212500X0.155000X-0.212500X-0.155000X0.212500X-0.155000X0*%
%ADD44RoundRect,0.155000X-0.212500X-0.155000X0.212500X-0.155000X0.212500X0.155000X-0.212500X0.155000X0*%
%ADD45RoundRect,0.155000X-0.155000X0.212500X-0.155000X-0.212500X0.155000X-0.212500X0.155000X0.212500X0*%
G04 APERTURE END LIST*
D10*
%TO.C,Tarvos1*%
X147720000Y-113300000D03*
X149710000Y-113320000D03*
X151700000Y-113320000D03*
X153700000Y-113330000D03*
X155690000Y-113330000D03*
X157680000Y-113320000D03*
X161670000Y-113310000D03*
X163670000Y-113310000D03*
X165660000Y-113310000D03*
X167630000Y-113320000D03*
X169650000Y-113300000D03*
X171630000Y-113300000D03*
X171630000Y-97390000D03*
X169640000Y-97370000D03*
X167650000Y-97360000D03*
X165650000Y-97370000D03*
X163660000Y-97380000D03*
X161680000Y-97370000D03*
X157680000Y-97370000D03*
X155690000Y-97380000D03*
X153690000Y-97380000D03*
X151700000Y-97400000D03*
X149700000Y-97390000D03*
D11*
X172600000Y-108340000D03*
X172600000Y-106310000D03*
X172600000Y-104330000D03*
X172620000Y-102370000D03*
%TD*%
D12*
%TO.C,*%
X156080000Y-119160000D03*
%TD*%
%TO.C,*%
X170820000Y-117880000D03*
%TD*%
%TO.C,*%
X168740000Y-117880000D03*
%TD*%
%TO.C,*%
X166670000Y-117880000D03*
%TD*%
%TO.C,*%
X156080000Y-120690000D03*
%TD*%
%TO.C,*%
X173210000Y-120700000D03*
%TD*%
D13*
%TO.C,IC5*%
X152857500Y-127802500D03*
X152857500Y-126852500D03*
X152857500Y-125902500D03*
X155357500Y-125902500D03*
X155357500Y-126852500D03*
X155357500Y-127802500D03*
%TD*%
%TO.C,IC4*%
X152817500Y-124142500D03*
X152817500Y-123192500D03*
X152817500Y-122242500D03*
X155317500Y-122242500D03*
X155317500Y-123192500D03*
X155317500Y-124142500D03*
%TD*%
D14*
%TO.C,C30*%
X156900000Y-126995000D03*
X156900000Y-128130000D03*
%TD*%
%TO.C,C12*%
X156857500Y-123285000D03*
X156857500Y-124420000D03*
%TD*%
D15*
%TO.C,J10*%
X164915000Y-135130000D03*
X162375000Y-135130000D03*
D16*
X159835000Y-135130000D03*
%TD*%
D15*
%TO.C,J9*%
X164930000Y-131400000D03*
X162390000Y-131400000D03*
D16*
X159850000Y-131400000D03*
%TD*%
D15*
%TO.C,J8*%
X151100000Y-131400000D03*
X153640000Y-131400000D03*
D16*
X156180000Y-131400000D03*
%TD*%
D15*
%TO.C,J7*%
X151045000Y-135130000D03*
X153585000Y-135130000D03*
D16*
X156125000Y-135130000D03*
%TD*%
D17*
%TO.C,J6*%
X172415000Y-122590000D03*
X172415000Y-128190000D03*
D18*
X168540000Y-123890000D03*
X168540000Y-124890000D03*
X168540000Y-125890000D03*
X168540000Y-126890000D03*
%TD*%
D17*
%TO.C,J5*%
X172365000Y-130410000D03*
X172365000Y-136010000D03*
D18*
X168490000Y-131710000D03*
X168490000Y-132710000D03*
X168490000Y-133710000D03*
X168490000Y-134710000D03*
%TD*%
D12*
%TO.C,*%
X215480000Y-123280000D03*
%TD*%
%TO.C,*%
X210760000Y-104310000D03*
%TD*%
D19*
%TO.C,SW3*%
X157750000Y-121280000D03*
X157750000Y-118030000D03*
%TD*%
D12*
%TO.C,*%
X215670000Y-116700000D03*
%TD*%
%TO.C,*%
X213890000Y-116720000D03*
%TD*%
D20*
%TO.C,IC3*%
X212580000Y-127812500D03*
X212580000Y-126862500D03*
X212580000Y-125912500D03*
X209680000Y-125912500D03*
X209680000Y-126862500D03*
X209680000Y-127812500D03*
D21*
X211130000Y-126862500D03*
%TD*%
D22*
%TO.C,SW4*%
X209910000Y-117422500D03*
X206660000Y-117422500D03*
%TD*%
D23*
%TO.C,R8*%
X191470000Y-101290000D03*
X192490000Y-101290000D03*
%TD*%
D24*
%TO.C,R24*%
X160302500Y-128800000D03*
X161497500Y-128800000D03*
%TD*%
D25*
%TO.C,R21*%
X210842500Y-117757500D03*
X212037500Y-117757500D03*
%TD*%
D12*
%TO.C,*%
X215660000Y-118370000D03*
%TD*%
%TO.C,REF\u002A\u002A*%
X219130000Y-105000000D03*
%TD*%
D26*
%TO.C,H2*%
X202762944Y-100582944D03*
X203465888Y-98885888D03*
X203465888Y-102280000D03*
X205162944Y-98182944D03*
D27*
X205162944Y-100582944D03*
D26*
X205162944Y-102982944D03*
X206860000Y-98885888D03*
X206860000Y-102280000D03*
X207562944Y-100582944D03*
%TD*%
D14*
%TO.C,C11*%
X157985000Y-122122500D03*
X157985000Y-123257500D03*
%TD*%
D28*
%TO.C,PA1010D1*%
X185350000Y-105240000D03*
D29*
X180500000Y-101890000D03*
X180500000Y-103490000D03*
X180500000Y-106390000D03*
X180500000Y-107990000D03*
X180500000Y-109590000D03*
X190200000Y-109590000D03*
X190200000Y-107990000D03*
X190200000Y-106390000D03*
X190200000Y-103490000D03*
X190200000Y-101890000D03*
%TD*%
D30*
%TO.C,C5*%
X194380000Y-108380000D03*
X195340000Y-108380000D03*
%TD*%
D31*
%TO.C,D6*%
X215050000Y-120027500D03*
X215050000Y-121777500D03*
%TD*%
D12*
%TO.C,*%
X212170000Y-104300000D03*
%TD*%
D26*
%TO.C,H1*%
X222280000Y-100830000D03*
X222982944Y-99132944D03*
X222982944Y-102527056D03*
X224680000Y-98430000D03*
D27*
X224680000Y-100830000D03*
D26*
X224680000Y-103230000D03*
X226377056Y-99132944D03*
X226377056Y-102527056D03*
X227080000Y-100830000D03*
%TD*%
D32*
%TO.C,R7*%
X198260000Y-103700000D03*
X198260000Y-104720000D03*
%TD*%
D12*
%TO.C,*%
X204450000Y-116900000D03*
%TD*%
D33*
%TO.C,IC1*%
X217897500Y-102430000D03*
X217897500Y-101160000D03*
X217897500Y-99890000D03*
X217897500Y-98620000D03*
X212473500Y-98620000D03*
X212473500Y-99890000D03*
X212473500Y-101160000D03*
X212473500Y-102430000D03*
%TD*%
D22*
%TO.C,SW5*%
X204120000Y-121432500D03*
X207370000Y-121432500D03*
%TD*%
D14*
%TO.C,C9*%
X214787500Y-105087500D03*
X214787500Y-103952500D03*
%TD*%
D12*
%TO.C,*%
X217790000Y-105000000D03*
%TD*%
D26*
%TO.C,H3*%
X222252944Y-110192944D03*
X222955888Y-108495888D03*
X222955888Y-111890000D03*
X224652944Y-107792944D03*
D27*
X224652944Y-110192944D03*
D26*
X224652944Y-112592944D03*
X226350000Y-108495888D03*
X226350000Y-111890000D03*
X227052944Y-110192944D03*
%TD*%
D34*
%TO.C,D4*%
X208160000Y-128007500D03*
X208160000Y-126257500D03*
%TD*%
D25*
%TO.C,R13*%
X216830000Y-103950000D03*
X218025000Y-103950000D03*
%TD*%
D35*
%TO.C,R12*%
X209977500Y-101945000D03*
X209977500Y-100750000D03*
%TD*%
D36*
%TO.C,U2*%
X208692500Y-119930000D03*
X208692500Y-120430000D03*
X208692500Y-120930000D03*
X208692500Y-121430000D03*
X208692500Y-121930000D03*
X208692500Y-122430000D03*
X208692500Y-122930000D03*
X208692500Y-123430000D03*
D37*
X209380000Y-124117500D03*
X209880000Y-124117500D03*
X210380000Y-124117500D03*
X210880000Y-124117500D03*
X211380000Y-124117500D03*
X211880000Y-124117500D03*
X212380000Y-124117500D03*
X212880000Y-124117500D03*
D36*
X213567500Y-123430000D03*
X213567500Y-122930000D03*
X213567500Y-122430000D03*
X213567500Y-121930000D03*
X213567500Y-121430000D03*
X213567500Y-120930000D03*
X213567500Y-120430000D03*
X213567500Y-119930000D03*
D37*
X212880000Y-119242500D03*
X212380000Y-119242500D03*
X211880000Y-119242500D03*
X211380000Y-119242500D03*
X210880000Y-119242500D03*
X210380000Y-119242500D03*
X209880000Y-119242500D03*
X209380000Y-119242500D03*
D38*
X211130000Y-121680000D03*
%TD*%
D12*
%TO.C,*%
X205400000Y-119570000D03*
%TD*%
D34*
%TO.C,D5*%
X166315000Y-121090000D03*
X166315000Y-122840000D03*
%TD*%
D39*
%TO.C,WSEN-PADS1*%
X195060000Y-105430000D03*
D40*
X195060000Y-104920000D03*
D41*
X194790000Y-104410000D03*
X194290000Y-104410000D03*
X193790000Y-104410000D03*
D40*
X193520000Y-104930000D03*
X193520000Y-105430000D03*
D41*
X193790000Y-105940000D03*
X194290000Y-105940000D03*
X194790000Y-105940000D03*
%TD*%
D38*
%TO.C,U1*%
X161995000Y-121192500D03*
D37*
X160245000Y-118755000D03*
X160745000Y-118755000D03*
X161245000Y-118755000D03*
X161745000Y-118755000D03*
X162245000Y-118755000D03*
X162745000Y-118755000D03*
X163245000Y-118755000D03*
X163745000Y-118755000D03*
D36*
X164432500Y-119442500D03*
X164432500Y-119942500D03*
X164432500Y-120442500D03*
X164432500Y-120942500D03*
X164432500Y-121442500D03*
X164432500Y-121942500D03*
X164432500Y-122442500D03*
X164432500Y-122942500D03*
D37*
X163745000Y-123630000D03*
X163245000Y-123630000D03*
X162745000Y-123630000D03*
X162245000Y-123630000D03*
X161745000Y-123630000D03*
X161245000Y-123630000D03*
X160745000Y-123630000D03*
X160245000Y-123630000D03*
D36*
X159557500Y-122942500D03*
X159557500Y-122442500D03*
X159557500Y-121942500D03*
X159557500Y-121442500D03*
X159557500Y-120942500D03*
X159557500Y-120442500D03*
X159557500Y-119942500D03*
X159557500Y-119442500D03*
%TD*%
D34*
%TO.C,D3*%
X158955000Y-125680000D03*
X158955000Y-127430000D03*
%TD*%
D30*
%TO.C,C6*%
X194380000Y-109390000D03*
X195340000Y-109390000D03*
%TD*%
D12*
%TO.C,*%
X207160000Y-119560000D03*
%TD*%
D42*
%TO.C,D2*%
X157907500Y-95010000D03*
X156332500Y-95010000D03*
%TD*%
D12*
%TO.C,*%
X205390000Y-124390000D03*
%TD*%
D26*
%TO.C,H4*%
X202682944Y-110192944D03*
X203385888Y-108495888D03*
X203385888Y-111890000D03*
X205082944Y-107792944D03*
D27*
X205082944Y-110192944D03*
D26*
X205082944Y-112592944D03*
X206780000Y-108495888D03*
X206780000Y-111890000D03*
X207482944Y-110192944D03*
%TD*%
D14*
%TO.C,C7*%
X219517500Y-98687500D03*
X219517500Y-97552500D03*
%TD*%
%TO.C,C25*%
X164695000Y-126332500D03*
X164695000Y-127467500D03*
%TD*%
%TO.C,C27*%
X213800000Y-128130000D03*
X213800000Y-126995000D03*
%TD*%
D43*
%TO.C,C19*%
X212017500Y-116787500D03*
X210882500Y-116787500D03*
%TD*%
D24*
%TO.C,R9*%
X213665000Y-97250000D03*
X212470000Y-97250000D03*
%TD*%
D21*
%TO.C,IC2*%
X161930000Y-126460000D03*
D20*
X160480000Y-127410000D03*
X160480000Y-126460000D03*
X160480000Y-125510000D03*
X163380000Y-125510000D03*
X163380000Y-126460000D03*
X163380000Y-127410000D03*
%TD*%
D24*
%TO.C,R11*%
X213645000Y-96270000D03*
X212450000Y-96270000D03*
%TD*%
D44*
%TO.C,C18*%
X205152500Y-122812500D03*
X206287500Y-122812500D03*
%TD*%
D35*
%TO.C,R14*%
X215787500Y-105137500D03*
X215787500Y-103942500D03*
%TD*%
D42*
%TO.C,D1*%
X161137500Y-95000000D03*
X159562500Y-95000000D03*
%TD*%
D24*
%TO.C,R25*%
X210877500Y-129192500D03*
X209682500Y-129192500D03*
%TD*%
D45*
%TO.C,C8*%
X210957500Y-99992500D03*
X210957500Y-101127500D03*
%TD*%
G36*
X221739958Y-110929685D02*
G01*
X221777169Y-110966045D01*
X222891078Y-112645611D01*
X222911726Y-112712360D01*
X222893010Y-112779677D01*
X222840870Y-112826187D01*
X222786752Y-112838143D01*
X206937873Y-112711973D01*
X206870992Y-112691755D01*
X206825659Y-112638589D01*
X206816267Y-112569353D01*
X206840226Y-112512828D01*
X207933187Y-111078316D01*
X207989474Y-111036920D01*
X208030740Y-111029470D01*
X221672749Y-110910586D01*
X221739958Y-110929685D01*
G37*
G36*
X222848555Y-107690388D02*
G01*
X222894539Y-107742992D01*
X222904784Y-107812107D01*
X222886211Y-107862149D01*
X221706734Y-109692979D01*
X221653879Y-109738675D01*
X221602173Y-109749824D01*
X208036064Y-109714787D01*
X207969075Y-109694929D01*
X207926469Y-109648186D01*
X207024264Y-107920511D01*
X207010680Y-107851974D01*
X207036307Y-107786974D01*
X207093007Y-107746147D01*
X207133639Y-107739113D01*
X222781430Y-107670995D01*
X222848555Y-107690388D01*
G37*
G36*
X215511961Y-125690283D02*
G01*
X215558257Y-125742613D01*
X215570000Y-125795284D01*
X215570000Y-126546000D01*
X215550315Y-126613039D01*
X215497511Y-126658794D01*
X215446000Y-126670000D01*
X214732754Y-126670000D01*
X214665715Y-126650315D01*
X214619960Y-126597511D01*
X214608760Y-126547252D01*
X214601252Y-125803966D01*
X214620259Y-125736732D01*
X214672598Y-125690446D01*
X214723968Y-125678721D01*
X215444722Y-125671291D01*
X215511961Y-125690283D01*
G37*
G36*
X149083774Y-125469907D02*
G01*
X149129737Y-125522529D01*
X149141142Y-125573338D01*
X149158848Y-127485631D01*
X149139785Y-127552850D01*
X149087407Y-127599092D01*
X149035628Y-127610777D01*
X146084901Y-127629219D01*
X146017740Y-127609953D01*
X145971656Y-127557436D01*
X145960126Y-127505096D01*
X145962066Y-125585941D01*
X145981818Y-125518921D01*
X146034669Y-125473220D01*
X146085576Y-125462067D01*
X149016657Y-125450487D01*
X149083774Y-125469907D01*
G37*
G36*
X149103774Y-122769907D02*
G01*
X149149737Y-122822529D01*
X149161142Y-122873338D01*
X149178848Y-124785631D01*
X149159785Y-124852850D01*
X149107407Y-124899092D01*
X149055628Y-124910777D01*
X146104901Y-124929219D01*
X146037740Y-124909953D01*
X145991656Y-124857436D01*
X145980126Y-124805096D01*
X145982066Y-122885941D01*
X146001818Y-122818921D01*
X146054669Y-122773220D01*
X146105576Y-122762067D01*
X149036657Y-122750487D01*
X149103774Y-122769907D01*
G37*
G36*
X149143774Y-120099907D02*
G01*
X149189737Y-120152529D01*
X149201142Y-120203338D01*
X149218848Y-122115631D01*
X149199785Y-122182850D01*
X149147407Y-122229092D01*
X149095628Y-122240777D01*
X146144901Y-122259219D01*
X146077740Y-122239953D01*
X146031656Y-122187436D01*
X146020126Y-122135096D01*
X146022066Y-120215941D01*
X146041818Y-120148921D01*
X146094669Y-120103220D01*
X146145576Y-120092067D01*
X149076657Y-120080487D01*
X149143774Y-120099907D01*
G37*
G36*
X149162886Y-117190579D02*
G01*
X149209003Y-117243067D01*
X149220565Y-117294789D01*
X149229432Y-119245076D01*
X149210052Y-119312205D01*
X149157457Y-119358199D01*
X149105075Y-119369639D01*
X146063767Y-119360858D01*
X145996785Y-119340980D01*
X145951182Y-119288045D01*
X145940125Y-119236734D01*
X145942066Y-117316081D01*
X145961818Y-117249061D01*
X146014669Y-117203360D01*
X146065213Y-117192209D01*
X149095713Y-117171356D01*
X149162886Y-117190579D01*
G37*
M02*
