%TF.GenerationSoftware,KiCad,Pcbnew,9.0.0*%
%TF.CreationDate,2025-03-27T23:54:46+01:00*%
%TF.ProjectId,flexpcb,666c6578-7063-4622-9e6b-696361645f70,rev?*%
%TF.SameCoordinates,Original*%
%TF.FileFunction,Copper,L1,Top*%
%TF.FilePolarity,Positive*%
%FSLAX46Y46*%
G04 Gerber Fmt 4.6, Leading zero omitted, Abs format (unit mm)*
G04 Created by KiCad (PCBNEW 9.0.0) date 2025-03-27 23:54:46*
%MOMM*%
%LPD*%
G01*
G04 APERTURE LIST*
G04 Aperture macros list*
%AMRoundRect*
0 Rectangle with rounded corners*
0 $1 Rounding radius*
0 $2 $3 $4 $5 $6 $7 $8 $9 X,Y pos of 4 corners*
0 Add a 4 corners polygon primitive as box body*
4,1,4,$2,$3,$4,$5,$6,$7,$8,$9,$2,$3,0*
0 Add four circle primitives for the rounded corners*
1,1,$1+$1,$2,$3*
1,1,$1+$1,$4,$5*
1,1,$1+$1,$6,$7*
1,1,$1+$1,$8,$9*
0 Add four rect primitives between the rounded corners*
20,1,$1+$1,$2,$3,$4,$5,0*
20,1,$1+$1,$4,$5,$6,$7,0*
20,1,$1+$1,$6,$7,$8,$9,0*
20,1,$1+$1,$8,$9,$2,$3,0*%
G04 Aperture macros list end*
%TA.AperFunction,ComponentPad*%
%ADD10R,1.000000X1.000000*%
%TD*%
%TA.AperFunction,ComponentPad*%
%ADD11C,2.200000*%
%TD*%
%TA.AperFunction,ComponentPad*%
%ADD12RoundRect,0.225000X-0.525000X-0.525000X0.525000X-0.525000X0.525000X0.525000X-0.525000X0.525000X0*%
%TD*%
%TA.AperFunction,SMDPad,CuDef*%
%ADD13RoundRect,0.150000X0.150000X0.625000X-0.150000X0.625000X-0.150000X-0.625000X0.150000X-0.625000X0*%
%TD*%
%TA.AperFunction,SMDPad,CuDef*%
%ADD14RoundRect,0.250000X0.350000X0.650000X-0.350000X0.650000X-0.350000X-0.650000X0.350000X-0.650000X0*%
%TD*%
%TA.AperFunction,ComponentPad*%
%ADD15R,0.850000X0.850000*%
%TD*%
%TA.AperFunction,ComponentPad*%
%ADD16O,0.850000X0.850000*%
%TD*%
%TA.AperFunction,ViaPad*%
%ADD17C,0.400000*%
%TD*%
%TA.AperFunction,Conductor*%
%ADD18C,0.200000*%
%TD*%
%TA.AperFunction,Conductor*%
%ADD19C,0.150000*%
%TD*%
%TA.AperFunction,Conductor*%
%ADD20C,0.300000*%
%TD*%
G04 APERTURE END LIST*
D10*
%TO.P,,1*%
%TO.N,GND*%
X133500000Y-106700000D03*
%TD*%
%TO.P,,1*%
%TO.N,I2C1_SCL*%
X135100000Y-106700000D03*
%TD*%
%TO.P,,1*%
%TO.N,I2C1_SDA*%
X136700000Y-106700000D03*
%TD*%
%TO.P,,1*%
%TO.N,+3.3V*%
X138300000Y-106700000D03*
%TD*%
D11*
%TO.P,,1*%
%TO.N,GND*%
X140400000Y-106000000D03*
%TD*%
D10*
%TO.P,,1*%
%TO.N,exti1*%
X150800000Y-116400000D03*
%TD*%
%TO.P,,1*%
%TO.N,+3.3V*%
X150800000Y-113100000D03*
%TD*%
D12*
%TO.P,REF\u002A\u002A,1*%
%TO.N,+3.3V*%
X124500000Y-115900000D03*
%TD*%
D10*
%TO.P,REF\u002A\u002A5,1*%
%TO.N,EXTI0*%
X122770000Y-113840000D03*
%TD*%
%TO.P,REF\u002A\u002A4,1*%
%TO.N,exti3{slash}pwmled*%
X120770000Y-113840000D03*
%TD*%
%TO.P,REF\u002A\u002A3,1*%
%TO.N,swo*%
X124770000Y-111840000D03*
%TD*%
%TO.P,REF\u002A\u002A2,1*%
%TO.N,swclk*%
X122770000Y-111840000D03*
%TD*%
%TO.P,REF\u002A\u002A1,1*%
%TO.N,swdio*%
X120770000Y-111840000D03*
%TD*%
%TO.P,REF\u002A\u002A,1*%
%TO.N,nrst*%
X124770000Y-113840000D03*
%TD*%
D12*
%TO.P,REF\u002A\u002A,1*%
%TO.N,GND*%
X124500000Y-109800000D03*
%TD*%
D11*
%TO.P,,1*%
%TO.N,GND*%
X121810000Y-116590000D03*
%TD*%
%TO.P,,1*%
%TO.N,GND*%
X95150000Y-108720000D03*
%TD*%
D13*
%TO.P,J1,1,Pin_1*%
%TO.N,+3.3V*%
X137100000Y-90275000D03*
%TO.P,J1,2,Pin_2*%
%TO.N,TX*%
X136100000Y-90275000D03*
%TO.P,J1,3,Pin_3*%
%TO.N,RX*%
X135100000Y-90275000D03*
%TO.P,J1,4,Pin_4*%
%TO.N,GND*%
X134100000Y-90275000D03*
D14*
%TO.P,J1,MP*%
X138400000Y-92800000D03*
X132800000Y-92800000D03*
%TD*%
D11*
%TO.P,,1*%
%TO.N,GND*%
X110860000Y-117630000D03*
%TD*%
%TO.P,,1*%
%TO.N,GND*%
X121700000Y-108970000D03*
%TD*%
%TO.P,,1*%
%TO.N,GND*%
X153370000Y-119800000D03*
%TD*%
%TO.P,REF\u002A\u002A,1*%
%TO.N,GND*%
X124930000Y-70128848D03*
%TD*%
%TO.P,,1*%
%TO.N,GND*%
X138121800Y-118701800D03*
%TD*%
%TO.P,,1*%
%TO.N,GND*%
X146320000Y-96978848D03*
%TD*%
%TO.P,,1*%
%TO.N,GND*%
X110880000Y-108450000D03*
%TD*%
%TO.P,,1*%
%TO.N,GND*%
X153420000Y-109540000D03*
%TD*%
%TO.P,,1*%
%TO.N,GND*%
X95190000Y-117880000D03*
%TD*%
D15*
%TO.P,SW1,1,1*%
%TO.N,Net-(Tarvos1-MODE_1)*%
X128330000Y-96548848D03*
D16*
%TO.P,SW1,2,2*%
%TO.N,+3.3V*%
X128330000Y-97548848D03*
%TD*%
D11*
%TO.P,,1*%
%TO.N,GND*%
X131601800Y-133771800D03*
%TD*%
D17*
%TO.N,GND*%
X140900000Y-111900000D03*
X142400000Y-111800000D03*
X142400000Y-110500000D03*
X142400000Y-109300000D03*
X142400000Y-108100000D03*
X142400000Y-106900000D03*
X142400000Y-105800000D03*
X137500000Y-105900000D03*
X135900000Y-105900000D03*
X134300000Y-105900000D03*
X133100000Y-105900000D03*
X132000000Y-105900000D03*
X132000000Y-106800000D03*
X132000000Y-107900000D03*
X132000000Y-109200000D03*
X132000000Y-110500000D03*
X132000000Y-111800000D03*
X133400000Y-111800000D03*
X134800000Y-111800000D03*
X136300000Y-111800000D03*
X137700000Y-111800000D03*
X139400000Y-111800000D03*
X134800000Y-108200000D03*
X135900000Y-107600000D03*
%TO.N,+3.3V*%
X133200000Y-109500000D03*
X132600000Y-109500000D03*
%TO.N,GND*%
X137700000Y-111200000D03*
%TO.N,+3.3V*%
X141600000Y-110600000D03*
X141600000Y-109500000D03*
X141600000Y-108500000D03*
%TO.N,GND*%
X135000000Y-116200000D03*
X134700000Y-115600000D03*
X135300000Y-115600000D03*
X135300000Y-116800000D03*
X134700000Y-116800000D03*
X129100000Y-116800000D03*
X129700000Y-116800000D03*
X129700000Y-115600000D03*
X129100000Y-115600000D03*
X129390000Y-116185000D03*
X138700000Y-92200000D03*
X138700000Y-93400000D03*
X138100000Y-93400000D03*
X138100000Y-92200000D03*
X132500000Y-93400000D03*
X133100000Y-93400000D03*
X133100000Y-92300000D03*
X132500000Y-92300000D03*
X126300000Y-97500000D03*
X126300000Y-76800000D03*
X145600000Y-69200000D03*
X146300000Y-69200000D03*
X147000000Y-69200000D03*
X147000000Y-69800000D03*
X146300000Y-69800000D03*
X145600000Y-69800000D03*
X146400000Y-94400000D03*
X143200000Y-97500000D03*
X136300000Y-97700000D03*
X134300000Y-92200000D03*
X133900000Y-94700000D03*
X130500000Y-86500000D03*
X136600000Y-78100000D03*
X130500000Y-78700000D03*
X131600000Y-80400000D03*
X134100000Y-80500000D03*
X143500000Y-81800000D03*
X141300000Y-94000000D03*
X141300000Y-91400000D03*
X141300000Y-86500000D03*
X141900000Y-78500000D03*
X141300000Y-85100000D03*
X141300000Y-80000000D03*
%TO.N,+3.3V*%
X135900000Y-88500000D03*
X135640000Y-87900000D03*
X135640000Y-87200000D03*
%TO.N,GND*%
X132800000Y-92800000D03*
X138400000Y-92800000D03*
X98300000Y-114900000D03*
X102700000Y-114900000D03*
X107000000Y-114900000D03*
X96200000Y-106500000D03*
X96200000Y-119700000D03*
X109900000Y-112100000D03*
X115100000Y-114000000D03*
X110400000Y-106100000D03*
X112300000Y-109700000D03*
X119500000Y-108900000D03*
X123200000Y-109700000D03*
X121800000Y-113800000D03*
X123800000Y-114000000D03*
X123800000Y-112000000D03*
X123200000Y-115700000D03*
X119500000Y-117300000D03*
%TO.N,EXTI0*%
X117690000Y-117570000D03*
%TO.N,+3.3V*%
X118200000Y-115300000D03*
X119200000Y-115300000D03*
%TO.N,GND*%
X132770000Y-76308848D03*
X141500000Y-72848848D03*
X135950000Y-76388848D03*
X133740000Y-120080000D03*
X125441800Y-128311800D03*
X137008766Y-76402423D03*
X130620000Y-76248848D03*
X132571690Y-83931534D03*
X125371800Y-131751800D03*
X150480000Y-112210000D03*
X130290000Y-91978848D03*
X113550000Y-108340000D03*
X125740000Y-95278848D03*
X133460000Y-96548848D03*
X153430000Y-117220000D03*
X125760000Y-91428848D03*
X131927639Y-88368333D03*
X92270000Y-115070000D03*
X140220000Y-91978848D03*
X155095000Y-112940000D03*
X130150000Y-83538848D03*
X116740000Y-110960000D03*
X92700000Y-110320000D03*
X116790000Y-114710000D03*
X137921800Y-123681800D03*
X99070000Y-109410000D03*
X97730000Y-120270000D03*
X137960000Y-76358848D03*
X131660000Y-76258848D03*
X150550000Y-117480000D03*
X135151800Y-124861800D03*
X134991800Y-122681800D03*
X128670000Y-119530000D03*
X103200000Y-105690000D03*
X137911800Y-125681800D03*
X97390000Y-106040000D03*
X138941800Y-131581800D03*
X116185000Y-116590000D03*
X102460000Y-117440000D03*
X140630000Y-76278848D03*
X141480000Y-70458848D03*
X137761800Y-129991800D03*
X139040000Y-76278848D03*
X132530000Y-96498848D03*
X138475495Y-84217779D03*
X125860000Y-86938848D03*
X141510000Y-71658848D03*
X138761740Y-88690359D03*
X133880000Y-76348848D03*
X107200000Y-110270000D03*
X118710000Y-114290000D03*
X107680000Y-116430000D03*
X129560000Y-76228848D03*
X114170000Y-116430000D03*
X125411800Y-123651800D03*
X108520000Y-120030000D03*
X108230000Y-105800000D03*
X155095000Y-116540000D03*
X98020000Y-116550000D03*
X139810000Y-76308848D03*
X141400000Y-77178848D03*
X116185000Y-108990000D03*
X135010000Y-76328848D03*
X141530000Y-73908848D03*
X125461800Y-120921800D03*
X134250000Y-78198848D03*
X141530000Y-74998848D03*
X138791800Y-121211800D03*
X141480000Y-69218848D03*
X153290000Y-112180000D03*
%TO.N,+3.3V*%
X152510000Y-114240000D03*
X111290000Y-115220000D03*
X105500000Y-105890000D03*
X105500000Y-115400000D03*
X112020000Y-115220000D03*
%TO.N,exti3{slash}pwmled*%
X117300000Y-113600000D03*
%TO.N,EXTI0*%
X100500000Y-105890000D03*
X100500000Y-120190000D03*
%TO.N,exti1*%
X152530000Y-115240000D03*
%TO.N,TX*%
X138110000Y-96518848D03*
%TO.N,RX*%
X137600000Y-97558848D03*
%TO.N,RX_GPS*%
X138801800Y-126741800D03*
X132680000Y-120120000D03*
%TO.N,TX_GPS*%
X137761800Y-126721800D03*
X131690000Y-120100000D03*
%TO.N,I2C1_SCL*%
X140332500Y-111100000D03*
X135600000Y-109100000D03*
%TD*%
D18*
%TO.N,+3.3V*%
X150940000Y-114240000D02*
X150800000Y-114100000D01*
X150800000Y-114100000D02*
X150800000Y-113100000D01*
X152510000Y-114240000D02*
X150940000Y-114240000D01*
%TO.N,I2C1_SCL*%
X139832500Y-110600000D02*
X140332500Y-111100000D01*
X135600000Y-109100000D02*
X135600000Y-109800000D01*
X135600000Y-109800000D02*
X136400000Y-110600000D01*
X136400000Y-110600000D02*
X139832500Y-110600000D01*
D19*
%TO.N,exti1*%
X150800000Y-115200000D02*
X152490000Y-115200000D01*
X152490000Y-115200000D02*
X152530000Y-115240000D01*
X150800000Y-116400000D02*
X150800000Y-115200000D01*
%TO.N,TX*%
X136000000Y-94408848D02*
X138110000Y-96518848D01*
%TO.N,RX*%
X137600000Y-97558848D02*
X135000000Y-94958848D01*
%TO.N,TX*%
X136000000Y-90375000D02*
X136000000Y-94408848D01*
X136100000Y-90275000D02*
X136000000Y-90375000D01*
%TO.N,RX*%
X135000000Y-90375000D02*
X135100000Y-90275000D01*
X135000000Y-94958848D02*
X135000000Y-90375000D01*
D20*
%TO.N,+3.3V*%
X105500000Y-115400000D02*
X105500000Y-105890000D01*
D19*
%TO.N,exti3{slash}pwmled*%
X117540000Y-113840000D02*
X117300000Y-113600000D01*
X120770000Y-113840000D02*
X117540000Y-113840000D01*
D18*
%TO.N,+3.3V*%
X112100000Y-115300000D02*
X112020000Y-115220000D01*
X118200000Y-115300000D02*
X112100000Y-115300000D01*
D20*
X119500000Y-115000000D02*
X119200000Y-115300000D01*
X123600000Y-115000000D02*
X119500000Y-115000000D01*
X124500000Y-115900000D02*
X123600000Y-115000000D01*
X119200000Y-115300000D02*
X118200000Y-115300000D01*
D19*
%TO.N,exti3{slash}pwmled*%
X117300000Y-113600000D02*
X117240000Y-113660000D01*
D20*
%TO.N,+3.3V*%
X111290000Y-115220000D02*
X112020000Y-115220000D01*
D19*
%TO.N,EXTI0*%
X100880000Y-120190000D02*
X100500000Y-120190000D01*
X101660000Y-120970000D02*
X100880000Y-120190000D01*
X113080000Y-117570000D02*
X109680000Y-120970000D01*
X109680000Y-120970000D02*
X101660000Y-120970000D01*
X117690000Y-117570000D02*
X113080000Y-117570000D01*
X100500000Y-105890000D02*
X100500000Y-120190000D01*
%TO.N,RX_GPS*%
X132680000Y-121010000D02*
X132680000Y-120120000D01*
X136452455Y-123620000D02*
X135290000Y-123620000D01*
X135290000Y-123620000D02*
X132680000Y-121010000D01*
X138801800Y-126741800D02*
X138801800Y-125969345D01*
X138801800Y-125969345D02*
X136452455Y-123620000D01*
%TO.N,TX_GPS*%
X131690000Y-120100000D02*
X131690000Y-122460000D01*
X137211800Y-126171800D02*
X137761800Y-126721800D01*
X131690000Y-122460000D02*
X135401800Y-126171800D01*
X135401800Y-126171800D02*
X137211800Y-126171800D01*
%TD*%
%TA.AperFunction,Conductor*%
%TO.N,GND*%
G36*
X147933043Y-68250185D02*
G01*
X147978798Y-68302989D01*
X147990003Y-68354142D01*
X148008999Y-74926992D01*
X147989509Y-74994088D01*
X147936837Y-75039995D01*
X147886319Y-75051343D01*
X145240582Y-75079490D01*
X145240581Y-75079489D01*
X145239751Y-75079498D01*
X145219193Y-75079454D01*
X145218924Y-75079720D01*
X145218546Y-75079725D01*
X145218517Y-75079753D01*
X145218516Y-75079754D01*
X145204689Y-75093876D01*
X145204690Y-75093877D01*
X145204103Y-75094476D01*
X145189546Y-75108971D01*
X145189545Y-75109349D01*
X145189280Y-75109620D01*
X145189280Y-75109625D01*
X145189279Y-75109627D01*
X145189490Y-75129425D01*
X145189497Y-75131014D01*
X145149511Y-93374655D01*
X145149500Y-93379697D01*
X145149262Y-93400334D01*
X145149454Y-93400531D01*
X145149454Y-93400807D01*
X145164068Y-93415486D01*
X145178501Y-93430255D01*
X145178769Y-93430257D01*
X145178964Y-93430453D01*
X145178970Y-93430453D01*
X145178971Y-93430454D01*
X145199275Y-93430498D01*
X145200122Y-93430503D01*
X147625606Y-93458490D01*
X147692412Y-93478947D01*
X147737554Y-93532275D01*
X147748169Y-93583432D01*
X147710822Y-98457146D01*
X147690625Y-98524033D01*
X147637472Y-98569382D01*
X147587326Y-98580195D01*
X142800207Y-98599499D01*
X142800206Y-98599498D01*
X142799894Y-98599500D01*
X142779082Y-98599500D01*
X142778997Y-98599584D01*
X142778879Y-98599585D01*
X142778829Y-98599634D01*
X142778828Y-98599635D01*
X142764394Y-98614185D01*
X142764196Y-98614384D01*
X142749500Y-98629082D01*
X142749500Y-98629201D01*
X142749416Y-98629286D01*
X142749416Y-98629314D01*
X142749416Y-98629315D01*
X142749499Y-98649831D01*
X142749500Y-98650331D01*
X142749500Y-98871614D01*
X142729815Y-98938653D01*
X142677011Y-98984408D01*
X142607853Y-98994352D01*
X142544297Y-98965327D01*
X142537819Y-98959295D01*
X142438017Y-98859493D01*
X142438011Y-98859488D01*
X142312488Y-98787017D01*
X142312489Y-98787017D01*
X142301006Y-98783940D01*
X142172475Y-98749500D01*
X142027525Y-98749500D01*
X141898993Y-98783940D01*
X141887511Y-98787017D01*
X141761988Y-98859488D01*
X141761982Y-98859493D01*
X141659493Y-98961982D01*
X141659488Y-98961988D01*
X141587017Y-99087511D01*
X141587016Y-99087515D01*
X141549500Y-99227525D01*
X141549500Y-99241328D01*
X141549500Y-99372475D01*
X141587016Y-99512485D01*
X141587017Y-99512488D01*
X141659488Y-99638011D01*
X141659490Y-99638013D01*
X141659491Y-99638015D01*
X141761985Y-99740509D01*
X141761986Y-99740510D01*
X141761988Y-99740511D01*
X141887511Y-99812982D01*
X141887512Y-99812982D01*
X141887515Y-99812984D01*
X142027525Y-99850500D01*
X142027528Y-99850500D01*
X142172472Y-99850500D01*
X142172475Y-99850500D01*
X142312485Y-99812984D01*
X142438015Y-99740509D01*
X142537819Y-99640705D01*
X142599142Y-99607220D01*
X142668834Y-99612204D01*
X142724767Y-99654076D01*
X142749184Y-99719540D01*
X142749500Y-99728386D01*
X142749500Y-103571614D01*
X142729815Y-103638653D01*
X142677011Y-103684408D01*
X142607853Y-103694352D01*
X142544297Y-103665327D01*
X142537819Y-103659295D01*
X142438017Y-103559493D01*
X142438011Y-103559488D01*
X142312488Y-103487017D01*
X142312489Y-103487017D01*
X142301006Y-103483940D01*
X142172475Y-103449500D01*
X142027525Y-103449500D01*
X141898993Y-103483940D01*
X141887511Y-103487017D01*
X141761988Y-103559488D01*
X141761982Y-103559493D01*
X141659493Y-103661982D01*
X141659488Y-103661988D01*
X141587017Y-103787511D01*
X141587016Y-103787515D01*
X141549500Y-103927525D01*
X141549500Y-103941328D01*
X141549500Y-104072475D01*
X141587016Y-104212485D01*
X141587017Y-104212488D01*
X141659488Y-104338011D01*
X141659490Y-104338013D01*
X141659491Y-104338015D01*
X141761985Y-104440509D01*
X141761986Y-104440510D01*
X141761988Y-104440511D01*
X141887511Y-104512982D01*
X141887512Y-104512982D01*
X141887515Y-104512984D01*
X142027525Y-104550500D01*
X142027528Y-104550500D01*
X142172472Y-104550500D01*
X142172475Y-104550500D01*
X142312485Y-104512984D01*
X142438015Y-104440509D01*
X142537819Y-104340705D01*
X142599142Y-104307220D01*
X142668834Y-104312204D01*
X142724767Y-104354076D01*
X142749184Y-104419540D01*
X142749500Y-104428386D01*
X142749500Y-109620918D01*
X142779082Y-109650500D01*
X142820918Y-109650500D01*
X150507529Y-109650500D01*
X150574568Y-109670185D01*
X150610134Y-109704872D01*
X150918624Y-110159488D01*
X150943898Y-110196734D01*
X150965252Y-110263260D01*
X150947250Y-110330771D01*
X150895606Y-110377831D01*
X150826718Y-110389501D01*
X150809198Y-110386135D01*
X150713773Y-110360566D01*
X150672475Y-110349500D01*
X150527525Y-110349500D01*
X150398993Y-110383940D01*
X150387511Y-110387017D01*
X150261988Y-110459488D01*
X150261982Y-110459493D01*
X150159493Y-110561982D01*
X150159488Y-110561988D01*
X150087017Y-110687511D01*
X150087016Y-110687515D01*
X150049500Y-110827525D01*
X150049500Y-110841328D01*
X150049500Y-110972475D01*
X150084678Y-111103760D01*
X150087017Y-111112488D01*
X150159488Y-111238011D01*
X150159493Y-111238017D01*
X150247625Y-111326149D01*
X150251555Y-111333347D01*
X150259244Y-111338406D01*
X150261983Y-111340508D01*
X150387511Y-111412982D01*
X150387512Y-111412982D01*
X150387515Y-111412984D01*
X150527525Y-111450500D01*
X150527528Y-111450500D01*
X150672472Y-111450500D01*
X150672475Y-111450500D01*
X150812485Y-111412984D01*
X150938015Y-111340509D01*
X151040509Y-111238015D01*
X151112984Y-111112485D01*
X151150500Y-110972475D01*
X151150500Y-110904773D01*
X151170185Y-110837734D01*
X151222989Y-110791979D01*
X151292147Y-110782035D01*
X151355703Y-110811060D01*
X151377104Y-110835144D01*
X151650481Y-111238015D01*
X151865969Y-111555577D01*
X151879364Y-111575316D01*
X151879319Y-111580476D01*
X151890776Y-111592135D01*
X151897076Y-111601419D01*
X151897077Y-111601420D01*
X151899958Y-111605665D01*
X151900554Y-111606057D01*
X151903873Y-111608786D01*
X151907987Y-111610037D01*
X151908640Y-111610314D01*
X151908641Y-111610315D01*
X151924987Y-111610458D01*
X151941046Y-111613533D01*
X151945312Y-111610636D01*
X151950470Y-111610682D01*
X151950472Y-111610680D01*
X151950476Y-111610681D01*
X151962138Y-111599220D01*
X151975665Y-111590042D01*
X151976634Y-111584975D01*
X151980311Y-111581363D01*
X151980311Y-111581362D01*
X151980315Y-111581359D01*
X151980359Y-111576237D01*
X151982567Y-111553995D01*
X151983533Y-111548953D01*
X151983531Y-111548950D01*
X151983386Y-111548245D01*
X151980832Y-111522101D01*
X152008985Y-108303415D01*
X152029255Y-108236551D01*
X152082457Y-108191259D01*
X152132980Y-108180500D01*
X154644480Y-108180500D01*
X154711519Y-108200185D01*
X154757274Y-108252989D01*
X154768477Y-108305221D01*
X154761956Y-109423641D01*
X154749762Y-111514867D01*
X154749651Y-111533998D01*
X154749621Y-111539119D01*
X154749388Y-111539355D01*
X154749498Y-111559965D01*
X154749495Y-111560642D01*
X154749378Y-111580634D01*
X154749611Y-111581188D01*
X154763827Y-111595251D01*
X154764723Y-111596147D01*
X154778788Y-111610377D01*
X154778789Y-111610377D01*
X154779347Y-111610611D01*
X154779353Y-111610610D01*
X154779355Y-111610612D01*
X154799420Y-111610503D01*
X154800484Y-111610503D01*
X154820623Y-111610621D01*
X154820623Y-111610620D01*
X154842706Y-111610750D01*
X154845190Y-111610255D01*
X156475661Y-111601442D01*
X156542804Y-111620764D01*
X156588843Y-111673320D01*
X156600328Y-111724851D01*
X156628677Y-117696869D01*
X156609310Y-117764002D01*
X156556724Y-117810007D01*
X156506071Y-117821450D01*
X154901248Y-117839481D01*
X154901249Y-117839482D01*
X154899938Y-117839496D01*
X154879543Y-117839311D01*
X154879115Y-117839731D01*
X154878516Y-117839738D01*
X154878512Y-117839741D01*
X154878510Y-117839742D01*
X154865145Y-117853411D01*
X154863370Y-117855190D01*
X154849691Y-117868622D01*
X154849267Y-117869620D01*
X154849482Y-117888793D01*
X154849485Y-117891313D01*
X154821051Y-121009507D01*
X154800756Y-121076364D01*
X154747537Y-121121635D01*
X154699136Y-121132359D01*
X152064979Y-121176556D01*
X151997619Y-121157998D01*
X151950985Y-121105969D01*
X151938904Y-121053697D01*
X151938508Y-121010027D01*
X151910507Y-117920664D01*
X151910500Y-117919841D01*
X151910612Y-117899355D01*
X151910333Y-117899073D01*
X151910330Y-117898659D01*
X151910321Y-117898638D01*
X151896305Y-117884873D01*
X151895648Y-117884228D01*
X151881191Y-117869614D01*
X151880764Y-117869611D01*
X151880459Y-117869312D01*
X151880445Y-117869312D01*
X151880444Y-117869311D01*
X151860766Y-117869490D01*
X151858974Y-117869493D01*
X150185479Y-117860447D01*
X150118547Y-117840401D01*
X150073078Y-117787350D01*
X150062155Y-117735276D01*
X150062439Y-117705288D01*
X150067653Y-117154249D01*
X150087971Y-117087402D01*
X150141205Y-117042149D01*
X150210455Y-117032861D01*
X150239102Y-117040866D01*
X150241276Y-117041765D01*
X150241278Y-117041767D01*
X150252253Y-117043950D01*
X150285177Y-117050500D01*
X150285180Y-117050500D01*
X151314822Y-117050500D01*
X151358717Y-117041768D01*
X151358717Y-117041767D01*
X151358722Y-117041767D01*
X151408504Y-117008504D01*
X151441767Y-116958722D01*
X151450500Y-116914820D01*
X151450500Y-115885180D01*
X151450500Y-115885177D01*
X151441768Y-115841282D01*
X151441767Y-115841281D01*
X151441767Y-115841278D01*
X151408504Y-115791496D01*
X151365312Y-115762636D01*
X151358724Y-115758234D01*
X151358717Y-115758231D01*
X151314822Y-115749500D01*
X151314820Y-115749500D01*
X151149500Y-115749500D01*
X151140814Y-115746949D01*
X151131853Y-115748238D01*
X151107812Y-115737259D01*
X151082461Y-115729815D01*
X151076533Y-115722974D01*
X151068297Y-115719213D01*
X151054007Y-115696978D01*
X151036706Y-115677011D01*
X151034418Y-115666496D01*
X151030523Y-115660435D01*
X151025500Y-115625500D01*
X151025500Y-115549500D01*
X151045185Y-115482461D01*
X151097989Y-115436706D01*
X151149500Y-115425500D01*
X152168456Y-115425500D01*
X152235495Y-115445185D01*
X152256137Y-115461818D01*
X152314788Y-115520469D01*
X152314791Y-115520471D01*
X152314794Y-115520473D01*
X152394706Y-115566611D01*
X152394707Y-115566611D01*
X152394712Y-115566614D01*
X152483856Y-115590500D01*
X152483858Y-115590500D01*
X152576142Y-115590500D01*
X152576144Y-115590500D01*
X152665288Y-115566614D01*
X152745212Y-115520469D01*
X152810469Y-115455212D01*
X152856614Y-115375288D01*
X152880500Y-115286144D01*
X152880500Y-115193856D01*
X152856614Y-115104712D01*
X152845067Y-115084712D01*
X152810473Y-115024794D01*
X152810470Y-115024791D01*
X152810469Y-115024788D01*
X152745212Y-114959531D01*
X152745209Y-114959529D01*
X152745205Y-114959526D01*
X152665293Y-114913388D01*
X152665290Y-114913387D01*
X152665289Y-114913386D01*
X152665288Y-114913386D01*
X152576144Y-114889500D01*
X152483856Y-114889500D01*
X152394712Y-114913386D01*
X152394711Y-114913386D01*
X152394709Y-114913387D01*
X152394706Y-114913388D01*
X152317636Y-114957886D01*
X152288364Y-114964987D01*
X152259764Y-114974431D01*
X152255635Y-114974500D01*
X150844855Y-114974500D01*
X150755145Y-114974500D01*
X150755143Y-114974500D01*
X150755141Y-114974501D01*
X150672266Y-115008827D01*
X150608827Y-115072266D01*
X150574501Y-115155141D01*
X150574500Y-115155146D01*
X150574500Y-115625500D01*
X150572910Y-115630912D01*
X150574016Y-115636444D01*
X150563175Y-115664068D01*
X150554815Y-115692539D01*
X150550552Y-115696232D01*
X150548491Y-115701485D01*
X150524431Y-115718866D01*
X150502011Y-115738294D01*
X150495228Y-115739963D01*
X150491855Y-115742401D01*
X150470307Y-115746099D01*
X150457245Y-115749316D01*
X150453868Y-115749500D01*
X150285180Y-115749500D01*
X150241278Y-115758233D01*
X150236636Y-115761334D01*
X150212745Y-115762636D01*
X150186972Y-115756569D01*
X150160599Y-115754210D01*
X150153492Y-115748689D01*
X150144734Y-115746628D01*
X150126330Y-115727589D01*
X150105422Y-115711346D01*
X150102428Y-115702860D01*
X150096175Y-115696391D01*
X150090986Y-115670425D01*
X150082178Y-115645456D01*
X150082006Y-115637674D01*
X150098798Y-113863343D01*
X150119116Y-113796495D01*
X150172350Y-113751242D01*
X150241600Y-113741954D01*
X150246974Y-113742900D01*
X150265187Y-113746523D01*
X150285179Y-113750500D01*
X150285180Y-113750500D01*
X150425500Y-113750500D01*
X150492539Y-113770185D01*
X150538294Y-113822989D01*
X150549500Y-113874500D01*
X150549500Y-114149829D01*
X150587636Y-114241897D01*
X150727635Y-114381895D01*
X150727635Y-114381896D01*
X150727636Y-114381897D01*
X150798103Y-114452364D01*
X150890172Y-114490500D01*
X152213640Y-114490500D01*
X152245251Y-114499782D01*
X152277169Y-114508010D01*
X152278625Y-114509582D01*
X152280679Y-114510185D01*
X152289129Y-114516126D01*
X152294784Y-114520465D01*
X152294788Y-114520469D01*
X152294792Y-114520471D01*
X152294793Y-114520472D01*
X152374706Y-114566611D01*
X152374707Y-114566611D01*
X152374712Y-114566614D01*
X152463856Y-114590500D01*
X152463858Y-114590500D01*
X152556142Y-114590500D01*
X152556144Y-114590500D01*
X152645288Y-114566614D01*
X152725212Y-114520469D01*
X152790469Y-114455212D01*
X152836614Y-114375288D01*
X152860500Y-114286144D01*
X152860500Y-114193856D01*
X152836614Y-114104712D01*
X152836612Y-114104709D01*
X152836612Y-114104707D01*
X152790473Y-114024794D01*
X152790470Y-114024791D01*
X152790469Y-114024788D01*
X152725212Y-113959531D01*
X152725209Y-113959529D01*
X152725205Y-113959526D01*
X152645293Y-113913388D01*
X152645290Y-113913387D01*
X152645289Y-113913386D01*
X152645288Y-113913386D01*
X152556144Y-113889500D01*
X152463856Y-113889500D01*
X152374712Y-113913386D01*
X152374711Y-113913386D01*
X152374709Y-113913387D01*
X152374706Y-113913388D01*
X152294793Y-113959527D01*
X152289129Y-113963874D01*
X152223960Y-113989070D01*
X152213640Y-113989500D01*
X151372280Y-113989500D01*
X151305241Y-113969815D01*
X151259486Y-113917011D01*
X151249542Y-113847853D01*
X151278567Y-113784297D01*
X151337345Y-113746523D01*
X151348088Y-113743883D01*
X151358717Y-113741768D01*
X151358717Y-113741767D01*
X151358722Y-113741767D01*
X151408504Y-113708504D01*
X151441767Y-113658722D01*
X151441768Y-113658717D01*
X151450500Y-113614822D01*
X151450500Y-112585177D01*
X151441768Y-112541282D01*
X151441767Y-112541281D01*
X151441767Y-112541278D01*
X151408504Y-112491496D01*
X151408503Y-112491495D01*
X151358724Y-112458234D01*
X151358717Y-112458231D01*
X151314822Y-112449500D01*
X151314820Y-112449500D01*
X150285180Y-112449500D01*
X150261480Y-112454214D01*
X150191888Y-112447985D01*
X150136712Y-112405122D01*
X150113468Y-112339232D01*
X150113296Y-112331423D01*
X150120303Y-111591077D01*
X150120527Y-111590853D01*
X150120500Y-111570231D01*
X150120696Y-111549561D01*
X150120694Y-111549559D01*
X150120695Y-111549549D01*
X150120480Y-111549024D01*
X150106368Y-111534949D01*
X150105425Y-111533998D01*
X150095247Y-111523625D01*
X150093644Y-111520622D01*
X150091874Y-111519893D01*
X150090872Y-111519472D01*
X150070827Y-111519497D01*
X150070828Y-111519498D01*
X150070193Y-111519498D01*
X150049561Y-111519304D01*
X150049334Y-111519525D01*
X150025088Y-111519557D01*
X150025087Y-111519556D01*
X150025087Y-111519557D01*
X142780047Y-111528859D01*
X142759082Y-111528859D01*
X142759016Y-111528885D01*
X142744244Y-111543696D01*
X142744134Y-111543807D01*
X142729498Y-111558442D01*
X142729473Y-111558504D01*
X142729500Y-111579424D01*
X142729500Y-112034749D01*
X142709815Y-112101788D01*
X142657011Y-112147543D01*
X142605785Y-112158749D01*
X133580179Y-112179499D01*
X133580143Y-112179499D01*
X133579846Y-112179500D01*
X133559082Y-112179500D01*
X133559034Y-112179547D01*
X133558966Y-112179548D01*
X133558826Y-112179687D01*
X133558826Y-112179688D01*
X133544433Y-112194147D01*
X133544321Y-112194260D01*
X133544209Y-112194373D01*
X133529500Y-112209082D01*
X133529500Y-112209149D01*
X133529452Y-112209198D01*
X133529452Y-112209326D01*
X133529452Y-112209327D01*
X133529500Y-112230116D01*
X133529500Y-113751614D01*
X133509815Y-113818653D01*
X133457011Y-113864408D01*
X133387853Y-113874352D01*
X133324297Y-113845327D01*
X133317819Y-113839295D01*
X133238017Y-113759493D01*
X133238011Y-113759488D01*
X133112488Y-113687017D01*
X133112489Y-113687017D01*
X133101006Y-113683940D01*
X132972475Y-113649500D01*
X132827525Y-113649500D01*
X132698993Y-113683940D01*
X132687511Y-113687017D01*
X132561988Y-113759488D01*
X132561982Y-113759493D01*
X132459493Y-113861982D01*
X132459488Y-113861988D01*
X132387017Y-113987511D01*
X132387016Y-113987515D01*
X132349500Y-114127525D01*
X132349500Y-114141328D01*
X132349500Y-114272475D01*
X132379770Y-114385443D01*
X132387017Y-114412488D01*
X132459488Y-114538011D01*
X132459490Y-114538013D01*
X132459491Y-114538015D01*
X132561985Y-114640509D01*
X132561986Y-114640510D01*
X132561988Y-114640511D01*
X132687511Y-114712982D01*
X132687512Y-114712982D01*
X132687515Y-114712984D01*
X132827525Y-114750500D01*
X132827528Y-114750500D01*
X132972472Y-114750500D01*
X132972475Y-114750500D01*
X133112485Y-114712984D01*
X133238015Y-114640509D01*
X133317819Y-114560705D01*
X133379142Y-114527220D01*
X133448834Y-114532204D01*
X133504767Y-114574076D01*
X133529184Y-114639540D01*
X133529500Y-114648386D01*
X133529500Y-114740918D01*
X133559082Y-114770500D01*
X133600918Y-114770500D01*
X135974825Y-114770500D01*
X136041864Y-114790185D01*
X136087619Y-114842989D01*
X136098824Y-114894979D01*
X136089673Y-117264884D01*
X136089579Y-117289167D01*
X136089382Y-117289368D01*
X136089498Y-117310042D01*
X136089496Y-117310710D01*
X136089419Y-117330730D01*
X136089619Y-117331204D01*
X136103960Y-117345384D01*
X136104669Y-117346091D01*
X136118887Y-117360419D01*
X136118889Y-117360419D01*
X136119363Y-117360617D01*
X136119366Y-117360616D01*
X136119368Y-117360618D01*
X136139572Y-117360502D01*
X136140620Y-117360502D01*
X136160723Y-117360580D01*
X136160723Y-117360579D01*
X136183271Y-117360667D01*
X136185378Y-117360243D01*
X139494332Y-117341496D01*
X139561481Y-117360800D01*
X139607535Y-117413344D01*
X139619034Y-117465822D01*
X139579960Y-132245828D01*
X139560098Y-132312815D01*
X139507173Y-132358430D01*
X139455960Y-132369500D01*
X133300282Y-132369500D01*
X133279638Y-132369273D01*
X133279406Y-132369500D01*
X133279082Y-132369500D01*
X133264918Y-132383662D01*
X133264040Y-132384531D01*
X133249732Y-132398528D01*
X133249500Y-132399072D01*
X133249500Y-132418967D01*
X133249493Y-132420330D01*
X133221376Y-134978893D01*
X133200955Y-135045712D01*
X133147652Y-135090884D01*
X133098850Y-135101521D01*
X130064051Y-135137436D01*
X129996784Y-135118546D01*
X129950407Y-135066288D01*
X129938591Y-135014798D01*
X129938199Y-134978893D01*
X129910500Y-132439798D01*
X129910579Y-132419275D01*
X129910291Y-132418985D01*
X129910287Y-132418555D01*
X129910283Y-132418545D01*
X129896203Y-132404769D01*
X129896203Y-132404768D01*
X129895534Y-132404113D01*
X129881110Y-132389580D01*
X129880676Y-132389578D01*
X129880366Y-132389275D01*
X129880359Y-132389275D01*
X129860713Y-132389488D01*
X129858896Y-132389494D01*
X124793747Y-132370162D01*
X124726783Y-132350222D01*
X124681230Y-132297244D01*
X124670220Y-132246363D01*
X124662568Y-127502318D01*
X124661058Y-126566379D01*
X130699500Y-126566379D01*
X130699500Y-126753620D01*
X130736025Y-126937243D01*
X130736027Y-126937251D01*
X130807676Y-127110228D01*
X130807681Y-127110237D01*
X130911697Y-127265907D01*
X130911700Y-127265911D01*
X131044088Y-127398299D01*
X131044092Y-127398302D01*
X131199762Y-127502318D01*
X131199768Y-127502321D01*
X131199769Y-127502322D01*
X131372749Y-127573973D01*
X131556379Y-127610499D01*
X131556383Y-127610500D01*
X131556384Y-127610500D01*
X131743617Y-127610500D01*
X131743618Y-127610499D01*
X131927251Y-127573973D01*
X132100231Y-127502322D01*
X132255908Y-127398302D01*
X132388302Y-127265908D01*
X132492322Y-127110231D01*
X132563973Y-126937251D01*
X132600500Y-126753616D01*
X132600500Y-126566384D01*
X132563973Y-126382749D01*
X132492322Y-126209769D01*
X132492321Y-126209768D01*
X132492318Y-126209762D01*
X132388302Y-126054092D01*
X132388299Y-126054088D01*
X132255911Y-125921700D01*
X132255907Y-125921697D01*
X132100237Y-125817681D01*
X132100228Y-125817676D01*
X131927251Y-125746027D01*
X131927243Y-125746025D01*
X131743620Y-125709500D01*
X131743616Y-125709500D01*
X131556384Y-125709500D01*
X131556379Y-125709500D01*
X131372756Y-125746025D01*
X131372748Y-125746027D01*
X131199771Y-125817676D01*
X131199762Y-125817681D01*
X131044092Y-125921697D01*
X131044088Y-125921700D01*
X130911700Y-126054088D01*
X130911697Y-126054092D01*
X130807681Y-126209762D01*
X130807676Y-126209771D01*
X130736027Y-126382748D01*
X130736025Y-126382756D01*
X130699500Y-126566379D01*
X124661058Y-126566379D01*
X124650784Y-120196165D01*
X124670361Y-120129095D01*
X124723091Y-120083255D01*
X124775817Y-120071970D01*
X128162969Y-120100275D01*
X128168907Y-120100325D01*
X128169082Y-120100500D01*
X128189793Y-120100500D01*
X128210495Y-120100673D01*
X128210495Y-120100672D01*
X128210503Y-120100673D01*
X128210910Y-120100506D01*
X128210916Y-120100500D01*
X128210918Y-120100500D01*
X128225590Y-120085827D01*
X128240323Y-120071339D01*
X128240324Y-120071135D01*
X128240468Y-120070993D01*
X128240500Y-120070919D01*
X128240500Y-120053856D01*
X131339500Y-120053856D01*
X131339500Y-120146144D01*
X131352903Y-120196166D01*
X131363387Y-120235290D01*
X131363388Y-120235293D01*
X131409526Y-120315205D01*
X131409533Y-120315214D01*
X131428181Y-120333862D01*
X131461666Y-120395185D01*
X131464500Y-120421543D01*
X131464500Y-122405142D01*
X131464499Y-122405156D01*
X131464499Y-122504853D01*
X131464500Y-122504858D01*
X131488772Y-122563457D01*
X131498829Y-122587735D01*
X131498830Y-122587736D01*
X131562264Y-122651170D01*
X131562265Y-122651170D01*
X131579705Y-122668610D01*
X135203559Y-126292464D01*
X135203562Y-126292468D01*
X135210630Y-126299536D01*
X135274064Y-126362970D01*
X135284696Y-126367374D01*
X135294176Y-126371301D01*
X135294175Y-126371301D01*
X135347752Y-126393493D01*
X135356945Y-126397301D01*
X135356948Y-126397301D01*
X135461089Y-126397301D01*
X135461097Y-126397300D01*
X137067033Y-126397300D01*
X137134072Y-126416985D01*
X137154714Y-126433619D01*
X137374981Y-126653886D01*
X137408466Y-126715209D01*
X137411300Y-126741567D01*
X137411300Y-126767944D01*
X137416658Y-126787942D01*
X137435187Y-126857090D01*
X137435188Y-126857093D01*
X137481326Y-126937005D01*
X137481329Y-126937009D01*
X137481331Y-126937012D01*
X137546588Y-127002269D01*
X137546591Y-127002270D01*
X137546594Y-127002273D01*
X137626506Y-127048411D01*
X137626507Y-127048411D01*
X137626512Y-127048414D01*
X137715656Y-127072300D01*
X137715658Y-127072300D01*
X137807942Y-127072300D01*
X137807944Y-127072300D01*
X137897088Y-127048414D01*
X137977012Y-127002269D01*
X138042269Y-126937012D01*
X138088414Y-126857088D01*
X138112300Y-126767944D01*
X138112300Y-126675656D01*
X138088414Y-126586512D01*
X138076793Y-126566384D01*
X138042273Y-126506594D01*
X138042270Y-126506591D01*
X138042269Y-126506588D01*
X137977012Y-126441331D01*
X137977009Y-126441329D01*
X137977005Y-126441326D01*
X137897093Y-126395188D01*
X137897090Y-126395187D01*
X137897089Y-126395186D01*
X137897088Y-126395186D01*
X137807944Y-126371300D01*
X137807943Y-126371300D01*
X137781568Y-126371300D01*
X137714529Y-126351615D01*
X137693887Y-126334981D01*
X137420411Y-126061506D01*
X137420410Y-126061505D01*
X137402970Y-126044064D01*
X137339536Y-125980630D01*
X137339535Y-125980629D01*
X137315257Y-125970572D01*
X137315257Y-125970571D01*
X137256658Y-125946300D01*
X137256656Y-125946299D01*
X137256655Y-125946299D01*
X137166945Y-125946299D01*
X137152511Y-125946299D01*
X137152503Y-125946300D01*
X135546567Y-125946300D01*
X135479528Y-125926615D01*
X135458886Y-125909981D01*
X131951819Y-122402914D01*
X131918334Y-122341591D01*
X131915500Y-122315233D01*
X131915500Y-120421543D01*
X131935185Y-120354504D01*
X131951819Y-120333862D01*
X131960393Y-120325288D01*
X131970469Y-120315212D01*
X132016614Y-120235288D01*
X132040500Y-120146144D01*
X132040500Y-120073856D01*
X132329500Y-120073856D01*
X132329500Y-120166144D01*
X132348256Y-120236144D01*
X132353387Y-120255290D01*
X132353388Y-120255293D01*
X132399526Y-120335205D01*
X132399533Y-120335214D01*
X132418181Y-120353862D01*
X132451666Y-120415185D01*
X132454500Y-120441543D01*
X132454500Y-120955142D01*
X132454499Y-120955156D01*
X132454499Y-121054853D01*
X132454500Y-121054858D01*
X132478772Y-121113457D01*
X132488829Y-121137735D01*
X132488830Y-121137736D01*
X132552264Y-121201170D01*
X132552265Y-121201170D01*
X132569705Y-121218610D01*
X132569706Y-121218611D01*
X135162264Y-123811170D01*
X135162266Y-123811172D01*
X135226365Y-123837721D01*
X135245145Y-123845500D01*
X135334854Y-123845500D01*
X136307688Y-123845500D01*
X136374727Y-123865185D01*
X136395369Y-123881819D01*
X138539981Y-126026431D01*
X138573466Y-126087754D01*
X138576300Y-126114112D01*
X138576300Y-126420257D01*
X138556615Y-126487296D01*
X138539981Y-126507938D01*
X138521333Y-126526585D01*
X138521326Y-126526594D01*
X138475188Y-126606506D01*
X138475187Y-126606509D01*
X138475186Y-126606511D01*
X138475186Y-126606512D01*
X138451300Y-126695656D01*
X138451300Y-126787944D01*
X138469828Y-126857093D01*
X138475187Y-126877090D01*
X138475188Y-126877093D01*
X138521326Y-126957005D01*
X138521329Y-126957009D01*
X138521331Y-126957012D01*
X138586588Y-127022269D01*
X138586591Y-127022270D01*
X138586594Y-127022273D01*
X138666506Y-127068411D01*
X138666507Y-127068411D01*
X138666512Y-127068414D01*
X138755656Y-127092300D01*
X138755658Y-127092300D01*
X138847942Y-127092300D01*
X138847944Y-127092300D01*
X138937088Y-127068414D01*
X139017012Y-127022269D01*
X139082269Y-126957012D01*
X139128414Y-126877088D01*
X139152300Y-126787944D01*
X139152300Y-126695656D01*
X139128414Y-126606512D01*
X139116867Y-126586512D01*
X139082273Y-126526594D01*
X139082270Y-126526591D01*
X139082269Y-126526588D01*
X139063619Y-126507938D01*
X139030134Y-126446615D01*
X139027300Y-126420257D01*
X139027300Y-126040117D01*
X139027300Y-126014202D01*
X139027301Y-126014200D01*
X139027301Y-125924491D01*
X138992970Y-125841610D01*
X138992970Y-125841609D01*
X138929536Y-125778175D01*
X138922471Y-125771110D01*
X138922464Y-125771104D01*
X136661065Y-123509705D01*
X136643625Y-123492264D01*
X136580191Y-123428830D01*
X136580190Y-123428829D01*
X136555912Y-123418772D01*
X136555912Y-123418771D01*
X136497313Y-123394500D01*
X136497311Y-123394499D01*
X136497310Y-123394499D01*
X136407600Y-123394499D01*
X136393166Y-123394499D01*
X136393158Y-123394500D01*
X135434768Y-123394500D01*
X135367729Y-123374815D01*
X135347087Y-123358181D01*
X132941819Y-120952913D01*
X132908334Y-120891590D01*
X132905500Y-120865232D01*
X132905500Y-120441543D01*
X132925185Y-120374504D01*
X132941819Y-120353862D01*
X132960469Y-120335212D01*
X133006614Y-120255288D01*
X133030500Y-120166144D01*
X133030500Y-120073856D01*
X133006614Y-119984712D01*
X133006611Y-119984706D01*
X132960473Y-119904794D01*
X132960470Y-119904791D01*
X132960469Y-119904788D01*
X132895212Y-119839531D01*
X132895209Y-119839529D01*
X132895205Y-119839526D01*
X132815293Y-119793388D01*
X132815290Y-119793387D01*
X132815289Y-119793386D01*
X132815288Y-119793386D01*
X132726144Y-119769500D01*
X132633856Y-119769500D01*
X132544712Y-119793386D01*
X132544711Y-119793386D01*
X132544709Y-119793387D01*
X132544706Y-119793388D01*
X132464794Y-119839526D01*
X132464785Y-119839533D01*
X132399533Y-119904785D01*
X132399526Y-119904794D01*
X132353388Y-119984706D01*
X132353387Y-119984709D01*
X132353386Y-119984711D01*
X132353386Y-119984712D01*
X132329500Y-120073856D01*
X132040500Y-120073856D01*
X132040500Y-120053856D01*
X132016614Y-119964712D01*
X131982020Y-119904794D01*
X131970473Y-119884794D01*
X131970470Y-119884791D01*
X131970469Y-119884788D01*
X131905212Y-119819531D01*
X131905209Y-119819529D01*
X131905205Y-119819526D01*
X131825293Y-119773388D01*
X131825290Y-119773387D01*
X131825289Y-119773386D01*
X131825288Y-119773386D01*
X131736144Y-119749500D01*
X131643856Y-119749500D01*
X131554712Y-119773386D01*
X131554711Y-119773386D01*
X131554709Y-119773387D01*
X131554706Y-119773388D01*
X131474794Y-119819526D01*
X131474785Y-119819533D01*
X131409533Y-119884785D01*
X131409526Y-119884794D01*
X131363388Y-119964706D01*
X131363387Y-119964709D01*
X131363386Y-119964711D01*
X131363386Y-119964712D01*
X131339500Y-120053856D01*
X128240500Y-120053856D01*
X128240500Y-120050740D01*
X128240504Y-120049701D01*
X128240546Y-120044690D01*
X128240546Y-120044689D01*
X128240862Y-120006822D01*
X128240500Y-120004958D01*
X128240500Y-114617912D01*
X128260185Y-114550873D01*
X128312989Y-114505118D01*
X128382147Y-114495174D01*
X128445703Y-114524199D01*
X128453518Y-114532493D01*
X128453744Y-114532268D01*
X128459491Y-114538015D01*
X128561985Y-114640509D01*
X128561986Y-114640510D01*
X128561988Y-114640511D01*
X128687511Y-114712982D01*
X128687512Y-114712982D01*
X128687515Y-114712984D01*
X128827525Y-114750500D01*
X128827528Y-114750500D01*
X128972472Y-114750500D01*
X128972475Y-114750500D01*
X129112485Y-114712984D01*
X129238015Y-114640509D01*
X129340509Y-114538015D01*
X129412984Y-114412485D01*
X129450500Y-114272475D01*
X129450500Y-114127525D01*
X130349500Y-114127525D01*
X130349500Y-114141328D01*
X130349500Y-114272475D01*
X130379770Y-114385443D01*
X130387017Y-114412488D01*
X130459488Y-114538011D01*
X130459490Y-114538013D01*
X130459491Y-114538015D01*
X130561985Y-114640509D01*
X130561986Y-114640510D01*
X130561988Y-114640511D01*
X130687511Y-114712982D01*
X130687512Y-114712982D01*
X130687515Y-114712984D01*
X130827525Y-114750500D01*
X130827528Y-114750500D01*
X130972472Y-114750500D01*
X130972475Y-114750500D01*
X131112485Y-114712984D01*
X131238015Y-114640509D01*
X131340509Y-114538015D01*
X131412984Y-114412485D01*
X131450500Y-114272475D01*
X131450500Y-114127525D01*
X131412984Y-113987515D01*
X131402978Y-113970185D01*
X131340511Y-113861988D01*
X131340506Y-113861982D01*
X131238017Y-113759493D01*
X131238011Y-113759488D01*
X131112488Y-113687017D01*
X131112489Y-113687017D01*
X131101006Y-113683940D01*
X130972475Y-113649500D01*
X130827525Y-113649500D01*
X130698993Y-113683940D01*
X130687511Y-113687017D01*
X130561988Y-113759488D01*
X130561982Y-113759493D01*
X130459493Y-113861982D01*
X130459488Y-113861988D01*
X130387017Y-113987511D01*
X130387016Y-113987515D01*
X130349500Y-114127525D01*
X129450500Y-114127525D01*
X129412984Y-113987515D01*
X129402978Y-113970185D01*
X129340511Y-113861988D01*
X129340506Y-113861982D01*
X129238017Y-113759493D01*
X129238011Y-113759488D01*
X129112488Y-113687017D01*
X129112489Y-113687017D01*
X129101006Y-113683940D01*
X128972475Y-113649500D01*
X128827525Y-113649500D01*
X128698993Y-113683940D01*
X128687511Y-113687017D01*
X128561988Y-113759488D01*
X128561982Y-113759493D01*
X128459493Y-113861982D01*
X128459488Y-113861988D01*
X128387017Y-113987511D01*
X128387016Y-113987515D01*
X128349500Y-114127525D01*
X128349500Y-114127527D01*
X128349500Y-114272476D01*
X128361053Y-114315593D01*
X128360761Y-114327849D01*
X128364998Y-114339356D01*
X128359945Y-114362124D01*
X128359390Y-114385443D01*
X128352516Y-114395597D01*
X128349861Y-114407566D01*
X128333301Y-114423987D01*
X128320227Y-114443305D01*
X128308954Y-114448131D01*
X128300249Y-114456765D01*
X128277437Y-114461627D01*
X128255998Y-114470808D01*
X128242228Y-114469132D01*
X128231915Y-114471331D01*
X128224377Y-114469500D01*
X128210918Y-114469500D01*
X128190687Y-114469500D01*
X128189798Y-114469497D01*
X126519470Y-114457523D01*
X126452573Y-114437358D01*
X126407198Y-114384228D01*
X126397751Y-114315000D01*
X126427231Y-114251654D01*
X126432678Y-114245844D01*
X126438010Y-114240511D01*
X126438015Y-114240509D01*
X126540509Y-114138015D01*
X126612984Y-114012485D01*
X126650500Y-113872475D01*
X126650500Y-113727525D01*
X126612984Y-113587515D01*
X126595677Y-113557539D01*
X126540511Y-113461988D01*
X126540506Y-113461982D01*
X126438017Y-113359493D01*
X126438011Y-113359488D01*
X126312488Y-113287017D01*
X126312489Y-113287017D01*
X126301006Y-113283940D01*
X126172475Y-113249500D01*
X126027525Y-113249500D01*
X125898993Y-113283940D01*
X125887511Y-113287017D01*
X125761988Y-113359488D01*
X125761982Y-113359493D01*
X125659493Y-113461982D01*
X125659486Y-113461991D01*
X125651886Y-113475156D01*
X125601319Y-113523371D01*
X125532712Y-113536593D01*
X125467847Y-113510625D01*
X125427319Y-113453710D01*
X125420500Y-113413155D01*
X125420500Y-113325177D01*
X125411768Y-113281282D01*
X125411767Y-113281281D01*
X125411767Y-113281278D01*
X125378504Y-113231496D01*
X125378503Y-113231495D01*
X125328724Y-113198234D01*
X125328717Y-113198231D01*
X125284822Y-113189500D01*
X125284820Y-113189500D01*
X124255180Y-113189500D01*
X124255178Y-113189500D01*
X124211282Y-113198231D01*
X124211275Y-113198234D01*
X124161496Y-113231495D01*
X124161495Y-113231496D01*
X124128234Y-113281275D01*
X124128231Y-113281282D01*
X124119500Y-113325177D01*
X124119500Y-113325180D01*
X124119500Y-114354820D01*
X124119500Y-114354822D01*
X124119499Y-114354822D01*
X124128231Y-114398717D01*
X124128234Y-114398724D01*
X124161495Y-114448503D01*
X124161496Y-114448504D01*
X124211278Y-114481767D01*
X124211281Y-114481767D01*
X124211282Y-114481768D01*
X124255177Y-114490500D01*
X125225500Y-114490500D01*
X125292539Y-114510185D01*
X125338294Y-114562989D01*
X125349500Y-114614500D01*
X125349500Y-114917024D01*
X125329815Y-114984063D01*
X125277011Y-115029818D01*
X125207853Y-115039762D01*
X125171040Y-115028425D01*
X125133626Y-115010134D01*
X125123198Y-115008614D01*
X125060636Y-114999500D01*
X125060630Y-114999500D01*
X124075833Y-114999500D01*
X124008794Y-114979815D01*
X123988152Y-114963181D01*
X123784512Y-114759541D01*
X123784507Y-114759537D01*
X123768853Y-114750499D01*
X123768851Y-114750499D01*
X123739297Y-114733436D01*
X123715990Y-114719979D01*
X123689876Y-114712982D01*
X123639562Y-114699500D01*
X123411634Y-114699500D01*
X123344595Y-114679815D01*
X123298840Y-114627011D01*
X123288896Y-114557853D01*
X123317921Y-114494297D01*
X123342739Y-114472400D01*
X123378504Y-114448504D01*
X123411767Y-114398722D01*
X123412389Y-114395597D01*
X123420500Y-114354822D01*
X123420500Y-113325177D01*
X123411768Y-113281282D01*
X123411767Y-113281281D01*
X123411767Y-113281278D01*
X123378504Y-113231496D01*
X123378503Y-113231495D01*
X123328724Y-113198234D01*
X123328717Y-113198231D01*
X123284822Y-113189500D01*
X123284820Y-113189500D01*
X122255180Y-113189500D01*
X122255178Y-113189500D01*
X122211282Y-113198231D01*
X122211275Y-113198234D01*
X122161496Y-113231495D01*
X122161495Y-113231496D01*
X122128234Y-113281275D01*
X122128231Y-113281282D01*
X122119500Y-113325177D01*
X122119500Y-113325180D01*
X122119500Y-114354820D01*
X122119500Y-114354822D01*
X122119499Y-114354822D01*
X122128231Y-114398717D01*
X122128234Y-114398724D01*
X122161494Y-114448502D01*
X122161495Y-114448502D01*
X122161496Y-114448504D01*
X122197257Y-114472398D01*
X122242062Y-114526009D01*
X122250769Y-114595334D01*
X122220615Y-114658362D01*
X122161172Y-114695082D01*
X122128366Y-114699500D01*
X121411634Y-114699500D01*
X121344595Y-114679815D01*
X121298840Y-114627011D01*
X121288896Y-114557853D01*
X121317921Y-114494297D01*
X121342739Y-114472400D01*
X121378504Y-114448504D01*
X121411767Y-114398722D01*
X121412389Y-114395597D01*
X121420500Y-114354822D01*
X121420500Y-113325177D01*
X121411768Y-113281282D01*
X121411767Y-113281281D01*
X121411767Y-113281278D01*
X121378504Y-113231496D01*
X121378503Y-113231495D01*
X121328724Y-113198234D01*
X121328717Y-113198231D01*
X121284822Y-113189500D01*
X121284820Y-113189500D01*
X120255180Y-113189500D01*
X120255178Y-113189500D01*
X120211282Y-113198231D01*
X120211275Y-113198234D01*
X120161496Y-113231495D01*
X120161495Y-113231496D01*
X120128234Y-113281275D01*
X120128231Y-113281282D01*
X120119500Y-113325177D01*
X120119500Y-113490500D01*
X120099815Y-113557539D01*
X120047011Y-113603294D01*
X119995500Y-113614500D01*
X117761898Y-113614500D01*
X117694859Y-113594815D01*
X117649104Y-113542011D01*
X117642123Y-113522594D01*
X117638916Y-113510625D01*
X117626614Y-113464712D01*
X117626612Y-113464709D01*
X117626612Y-113464707D01*
X117626611Y-113464706D01*
X117580473Y-113384794D01*
X117580470Y-113384791D01*
X117580469Y-113384788D01*
X117515212Y-113319531D01*
X117515209Y-113319529D01*
X117515205Y-113319526D01*
X117435293Y-113273388D01*
X117435290Y-113273387D01*
X117435289Y-113273386D01*
X117435288Y-113273386D01*
X117346144Y-113249500D01*
X117253856Y-113249500D01*
X117164712Y-113273386D01*
X117164711Y-113273386D01*
X117164709Y-113273387D01*
X117164706Y-113273388D01*
X117084794Y-113319526D01*
X117084785Y-113319533D01*
X117019533Y-113384785D01*
X117019526Y-113384794D01*
X116973388Y-113464706D01*
X116973387Y-113464709D01*
X116973386Y-113464711D01*
X116973386Y-113464712D01*
X116949500Y-113553856D01*
X116949500Y-113646144D01*
X116971306Y-113727527D01*
X116973387Y-113735290D01*
X116973388Y-113735293D01*
X117019526Y-113815205D01*
X117019529Y-113815209D01*
X117019531Y-113815212D01*
X117084788Y-113880469D01*
X117084791Y-113880470D01*
X117084794Y-113880473D01*
X117164706Y-113926611D01*
X117164707Y-113926611D01*
X117164712Y-113926614D01*
X117253856Y-113950500D01*
X117280232Y-113950500D01*
X117347271Y-113970185D01*
X117367913Y-113986819D01*
X117412266Y-114031172D01*
X117458139Y-114050172D01*
X117495145Y-114065500D01*
X119995500Y-114065500D01*
X120062539Y-114085185D01*
X120108294Y-114137989D01*
X120119500Y-114189500D01*
X120119500Y-114354820D01*
X120119500Y-114354822D01*
X120119499Y-114354822D01*
X120128231Y-114398717D01*
X120128234Y-114398724D01*
X120161494Y-114448502D01*
X120161495Y-114448502D01*
X120161496Y-114448504D01*
X120197257Y-114472398D01*
X120242062Y-114526009D01*
X120250769Y-114595334D01*
X120220615Y-114658362D01*
X120161172Y-114695082D01*
X120128366Y-114699500D01*
X119460438Y-114699500D01*
X119393039Y-114717559D01*
X119384007Y-114719980D01*
X119331148Y-114750499D01*
X119315492Y-114759537D01*
X119315491Y-114759538D01*
X119138654Y-114936374D01*
X119131722Y-114941005D01*
X119128781Y-114945242D01*
X119114595Y-114952449D01*
X119098428Y-114963252D01*
X119090911Y-114966365D01*
X119064712Y-114973386D01*
X119041218Y-114986949D01*
X119033711Y-114990060D01*
X119013294Y-114992255D01*
X118986256Y-114999500D01*
X118413745Y-114999500D01*
X118351744Y-114982887D01*
X118335289Y-114973386D01*
X118283580Y-114959531D01*
X118246144Y-114949500D01*
X118153856Y-114949500D01*
X118064712Y-114973386D01*
X118064711Y-114973386D01*
X118064709Y-114973387D01*
X118064706Y-114973388D01*
X117984793Y-115019527D01*
X117979129Y-115023874D01*
X117913960Y-115049070D01*
X117903640Y-115049500D01*
X112395927Y-115049500D01*
X112328888Y-115029815D01*
X112307038Y-115009712D01*
X112306216Y-115010535D01*
X112235214Y-114939533D01*
X112235212Y-114939531D01*
X112235209Y-114939529D01*
X112235205Y-114939526D01*
X112155293Y-114893388D01*
X112155290Y-114893387D01*
X112155289Y-114893386D01*
X112155288Y-114893386D01*
X112066144Y-114869500D01*
X111973856Y-114869500D01*
X111884710Y-114893386D01*
X111868256Y-114902887D01*
X111806255Y-114919500D01*
X111503745Y-114919500D01*
X111441744Y-114902887D01*
X111425289Y-114893386D01*
X111380716Y-114881443D01*
X111336144Y-114869500D01*
X111243856Y-114869500D01*
X111154712Y-114893386D01*
X111154711Y-114893386D01*
X111154709Y-114893387D01*
X111154706Y-114893388D01*
X111074794Y-114939526D01*
X111074785Y-114939533D01*
X111009533Y-115004785D01*
X111009526Y-115004794D01*
X110963388Y-115084706D01*
X110963387Y-115084709D01*
X110963386Y-115084711D01*
X110963386Y-115084712D01*
X110939500Y-115173856D01*
X110939500Y-115266144D01*
X110963002Y-115353856D01*
X110963387Y-115355290D01*
X110963388Y-115355293D01*
X111009526Y-115435205D01*
X111009529Y-115435209D01*
X111009531Y-115435212D01*
X111074788Y-115500469D01*
X111074791Y-115500470D01*
X111074794Y-115500473D01*
X111154706Y-115546611D01*
X111154707Y-115546611D01*
X111154712Y-115546614D01*
X111243856Y-115570500D01*
X111243858Y-115570500D01*
X111336142Y-115570500D01*
X111336144Y-115570500D01*
X111425288Y-115546614D01*
X111441744Y-115537113D01*
X111503745Y-115520500D01*
X111806255Y-115520500D01*
X111868256Y-115537113D01*
X111884708Y-115546612D01*
X111884712Y-115546614D01*
X111973856Y-115570500D01*
X111973858Y-115570500D01*
X112066142Y-115570500D01*
X112066144Y-115570500D01*
X112100785Y-115561217D01*
X112125019Y-115554725D01*
X112157111Y-115550500D01*
X117903640Y-115550500D01*
X117970679Y-115570185D01*
X117979129Y-115576126D01*
X117984784Y-115580465D01*
X117984788Y-115580469D01*
X117984792Y-115580471D01*
X117984793Y-115580472D01*
X118064706Y-115626611D01*
X118064707Y-115626611D01*
X118064712Y-115626614D01*
X118153856Y-115650500D01*
X118153858Y-115650500D01*
X118246142Y-115650500D01*
X118246144Y-115650500D01*
X118335288Y-115626614D01*
X118351744Y-115617113D01*
X118413745Y-115600500D01*
X118986255Y-115600500D01*
X119048256Y-115617113D01*
X119064708Y-115626612D01*
X119064712Y-115626614D01*
X119153856Y-115650500D01*
X119153858Y-115650500D01*
X119246142Y-115650500D01*
X119246144Y-115650500D01*
X119335288Y-115626614D01*
X119415212Y-115580469D01*
X119480469Y-115515212D01*
X119513903Y-115457304D01*
X119526612Y-115435292D01*
X119526612Y-115435291D01*
X119526614Y-115435288D01*
X119531531Y-115416934D01*
X119539549Y-115403047D01*
X119542476Y-115389595D01*
X119563624Y-115361346D01*
X119588156Y-115336815D01*
X119649481Y-115303333D01*
X119675834Y-115300500D01*
X123424167Y-115300500D01*
X123491206Y-115320185D01*
X123511848Y-115336819D01*
X123563181Y-115388152D01*
X123596666Y-115449475D01*
X123599500Y-115475833D01*
X123599500Y-116460636D01*
X123608614Y-116523198D01*
X123610134Y-116533626D01*
X123628425Y-116571040D01*
X123640183Y-116639913D01*
X123612840Y-116704210D01*
X123555075Y-116743517D01*
X123544425Y-116746435D01*
X123530897Y-116749500D01*
X123515847Y-116749500D01*
X123511436Y-116753909D01*
X123505307Y-116755298D01*
X123505260Y-116755330D01*
X123504452Y-116756607D01*
X123504453Y-116756608D01*
X123497083Y-116768263D01*
X123486265Y-116779082D01*
X123486265Y-116785370D01*
X123473028Y-116806303D01*
X122748916Y-117951411D01*
X122696449Y-117997552D01*
X122643646Y-118009137D01*
X118062639Y-117991936D01*
X117995674Y-117972000D01*
X117950118Y-117919025D01*
X117940434Y-117849829D01*
X117966809Y-117792645D01*
X117965522Y-117791658D01*
X117970463Y-117785217D01*
X117970469Y-117785212D01*
X118016614Y-117705288D01*
X118040500Y-117616144D01*
X118040500Y-117523856D01*
X118016614Y-117434712D01*
X117984350Y-117378830D01*
X117970473Y-117354794D01*
X117970470Y-117354791D01*
X117970469Y-117354788D01*
X117905212Y-117289531D01*
X117905209Y-117289529D01*
X117905205Y-117289526D01*
X117825293Y-117243388D01*
X117825290Y-117243387D01*
X117825289Y-117243386D01*
X117825288Y-117243386D01*
X117736144Y-117219500D01*
X117643856Y-117219500D01*
X117554712Y-117243386D01*
X117554711Y-117243386D01*
X117554709Y-117243387D01*
X117554706Y-117243388D01*
X117474794Y-117289526D01*
X117474785Y-117289533D01*
X117456138Y-117308181D01*
X117394815Y-117341666D01*
X117368457Y-117344500D01*
X113139297Y-117344500D01*
X113139289Y-117344499D01*
X113124855Y-117344499D01*
X113035145Y-117344499D01*
X113035143Y-117344499D01*
X113010290Y-117354794D01*
X112976539Y-117368774D01*
X112976537Y-117368774D01*
X112952264Y-117378829D01*
X112888829Y-117442265D01*
X109622914Y-120708181D01*
X109561591Y-120741666D01*
X109535233Y-120744500D01*
X101804767Y-120744500D01*
X101737728Y-120724815D01*
X101717086Y-120708181D01*
X101093863Y-120084958D01*
X101071170Y-120062265D01*
X101071170Y-120062264D01*
X101007736Y-119998830D01*
X100973652Y-119984712D01*
X100957916Y-119978193D01*
X100957914Y-119978192D01*
X100924856Y-119964499D01*
X100924855Y-119964499D01*
X100849500Y-119964499D01*
X100782461Y-119944814D01*
X100736706Y-119892010D01*
X100725500Y-119840499D01*
X100725500Y-106211543D01*
X100745185Y-106144504D01*
X100761819Y-106123862D01*
X100769532Y-106116149D01*
X100780469Y-106105212D01*
X100826614Y-106025288D01*
X100850500Y-105936144D01*
X100850500Y-105843856D01*
X105149500Y-105843856D01*
X105149500Y-105936144D01*
X105151978Y-105945391D01*
X105173386Y-106025289D01*
X105182885Y-106041740D01*
X105199500Y-106103743D01*
X105199500Y-115186255D01*
X105182887Y-115248256D01*
X105173386Y-115264710D01*
X105158522Y-115320185D01*
X105149500Y-115353856D01*
X105149500Y-115446144D01*
X105169416Y-115520473D01*
X105173387Y-115535290D01*
X105173388Y-115535293D01*
X105219526Y-115615205D01*
X105219529Y-115615209D01*
X105219531Y-115615212D01*
X105284788Y-115680469D01*
X105284791Y-115680470D01*
X105284794Y-115680473D01*
X105364706Y-115726611D01*
X105364707Y-115726611D01*
X105364712Y-115726614D01*
X105453856Y-115750500D01*
X105453858Y-115750500D01*
X105546142Y-115750500D01*
X105546144Y-115750500D01*
X105635288Y-115726614D01*
X105715212Y-115680469D01*
X105780469Y-115615212D01*
X105826614Y-115535288D01*
X105850500Y-115446144D01*
X105850500Y-115353856D01*
X105826614Y-115264712D01*
X105817113Y-115248256D01*
X105800500Y-115186255D01*
X105800500Y-112949448D01*
X106349500Y-112949448D01*
X106349500Y-113130551D01*
X106377829Y-113309410D01*
X106433787Y-113481636D01*
X106433788Y-113481639D01*
X106472462Y-113557539D01*
X106501485Y-113614500D01*
X106516006Y-113642997D01*
X106622441Y-113789494D01*
X106622445Y-113789499D01*
X106750500Y-113917554D01*
X106750505Y-113917558D01*
X106822941Y-113970185D01*
X106897006Y-114023996D01*
X106978458Y-114065498D01*
X107058360Y-114106211D01*
X107058363Y-114106212D01*
X107123960Y-114127525D01*
X107230591Y-114162171D01*
X107313429Y-114175291D01*
X107409449Y-114190500D01*
X107409454Y-114190500D01*
X107590551Y-114190500D01*
X107677259Y-114176765D01*
X107769409Y-114162171D01*
X107941639Y-114106211D01*
X108102994Y-114023996D01*
X108249501Y-113917553D01*
X108377553Y-113789501D01*
X108483996Y-113642994D01*
X108566211Y-113481639D01*
X108622171Y-113309409D01*
X108639779Y-113198234D01*
X108650500Y-113130551D01*
X108650500Y-112949448D01*
X108628885Y-112812982D01*
X108622171Y-112770591D01*
X108566211Y-112598361D01*
X108566211Y-112598360D01*
X108522456Y-112512488D01*
X108483996Y-112437006D01*
X108437110Y-112372472D01*
X108424287Y-112354822D01*
X120119499Y-112354822D01*
X120128231Y-112398717D01*
X120128234Y-112398724D01*
X120153813Y-112437006D01*
X120161496Y-112448504D01*
X120211278Y-112481767D01*
X120211281Y-112481767D01*
X120211282Y-112481768D01*
X120255177Y-112490500D01*
X120255180Y-112490500D01*
X121284822Y-112490500D01*
X121328717Y-112481768D01*
X121328717Y-112481767D01*
X121328722Y-112481767D01*
X121378504Y-112448504D01*
X121411767Y-112398722D01*
X121420500Y-112354822D01*
X122119499Y-112354822D01*
X122128231Y-112398717D01*
X122128234Y-112398724D01*
X122153813Y-112437006D01*
X122161496Y-112448504D01*
X122211278Y-112481767D01*
X122211281Y-112481767D01*
X122211282Y-112481768D01*
X122255177Y-112490500D01*
X122255180Y-112490500D01*
X123284822Y-112490500D01*
X123328717Y-112481768D01*
X123328717Y-112481767D01*
X123328722Y-112481767D01*
X123378504Y-112448504D01*
X123411767Y-112398722D01*
X123420500Y-112354820D01*
X123420500Y-111325180D01*
X123420500Y-111325177D01*
X123411768Y-111281282D01*
X123411767Y-111281281D01*
X123411767Y-111281278D01*
X123378504Y-111231496D01*
X123378503Y-111231495D01*
X123328724Y-111198234D01*
X123328717Y-111198231D01*
X123284822Y-111189500D01*
X123284820Y-111189500D01*
X122255180Y-111189500D01*
X122255178Y-111189500D01*
X122211282Y-111198231D01*
X122211275Y-111198234D01*
X122161496Y-111231495D01*
X122161495Y-111231496D01*
X122128234Y-111281275D01*
X122128231Y-111281282D01*
X122119500Y-111325177D01*
X122119500Y-111325180D01*
X122119500Y-112354820D01*
X122119500Y-112354822D01*
X122119499Y-112354822D01*
X121420500Y-112354822D01*
X121420500Y-112354820D01*
X121420500Y-111325180D01*
X121420500Y-111325177D01*
X121411768Y-111281282D01*
X121411767Y-111281281D01*
X121411767Y-111281278D01*
X121378504Y-111231496D01*
X121378503Y-111231495D01*
X121328724Y-111198234D01*
X121328717Y-111198231D01*
X121284822Y-111189500D01*
X121284820Y-111189500D01*
X120255180Y-111189500D01*
X120255178Y-111189500D01*
X120211282Y-111198231D01*
X120211275Y-111198234D01*
X120161496Y-111231495D01*
X120161495Y-111231496D01*
X120128234Y-111281275D01*
X120128231Y-111281282D01*
X120119500Y-111325177D01*
X120119500Y-111325180D01*
X120119500Y-112354820D01*
X120119500Y-112354822D01*
X120119499Y-112354822D01*
X108424287Y-112354822D01*
X108377558Y-112290505D01*
X108377554Y-112290500D01*
X108249499Y-112162445D01*
X108249494Y-112162441D01*
X108102997Y-112056006D01*
X108102996Y-112056005D01*
X108102994Y-112056004D01*
X108044819Y-112026362D01*
X107941639Y-111973788D01*
X107941636Y-111973787D01*
X107769410Y-111917829D01*
X107590551Y-111889500D01*
X107590546Y-111889500D01*
X107409454Y-111889500D01*
X107409449Y-111889500D01*
X107230589Y-111917829D01*
X107058363Y-111973787D01*
X107058360Y-111973788D01*
X106897002Y-112056006D01*
X106750505Y-112162441D01*
X106750500Y-112162445D01*
X106622445Y-112290500D01*
X106622441Y-112290505D01*
X106516006Y-112437002D01*
X106433788Y-112598360D01*
X106433787Y-112598363D01*
X106377829Y-112770589D01*
X106349500Y-112949448D01*
X105800500Y-112949448D01*
X105800500Y-106103743D01*
X105817115Y-106041740D01*
X105826614Y-106025288D01*
X105850500Y-105936144D01*
X105850500Y-105843856D01*
X105826614Y-105754712D01*
X105810032Y-105725991D01*
X105780473Y-105674794D01*
X105780470Y-105674791D01*
X105780469Y-105674788D01*
X105715212Y-105609531D01*
X105715209Y-105609529D01*
X105715205Y-105609526D01*
X105635293Y-105563388D01*
X105635290Y-105563387D01*
X105635289Y-105563386D01*
X105635288Y-105563386D01*
X105546144Y-105539500D01*
X105453856Y-105539500D01*
X105364712Y-105563386D01*
X105364711Y-105563386D01*
X105364709Y-105563387D01*
X105364706Y-105563388D01*
X105284794Y-105609526D01*
X105284785Y-105609533D01*
X105219533Y-105674785D01*
X105219526Y-105674794D01*
X105173388Y-105754706D01*
X105173387Y-105754709D01*
X105173386Y-105754711D01*
X105173386Y-105754712D01*
X105149500Y-105843856D01*
X100850500Y-105843856D01*
X100826614Y-105754712D01*
X100810032Y-105725991D01*
X100780473Y-105674794D01*
X100780470Y-105674791D01*
X100780469Y-105674788D01*
X100715212Y-105609531D01*
X100715209Y-105609529D01*
X100715205Y-105609526D01*
X100635293Y-105563388D01*
X100635290Y-105563387D01*
X100635289Y-105563386D01*
X100635288Y-105563386D01*
X100546144Y-105539500D01*
X100453856Y-105539500D01*
X100364712Y-105563386D01*
X100364711Y-105563386D01*
X100364709Y-105563387D01*
X100364706Y-105563388D01*
X100284794Y-105609526D01*
X100284785Y-105609533D01*
X100219533Y-105674785D01*
X100219526Y-105674794D01*
X100173388Y-105754706D01*
X100173387Y-105754709D01*
X100173386Y-105754711D01*
X100173386Y-105754712D01*
X100149500Y-105843856D01*
X100149500Y-105936144D01*
X100171394Y-106017854D01*
X100173387Y-106025290D01*
X100173388Y-106025293D01*
X100219526Y-106105205D01*
X100219533Y-106105214D01*
X100238181Y-106123862D01*
X100271666Y-106185185D01*
X100274500Y-106211543D01*
X100274500Y-119868457D01*
X100254815Y-119935496D01*
X100238181Y-119956138D01*
X100219533Y-119974785D01*
X100219526Y-119974794D01*
X100173388Y-120054706D01*
X100173387Y-120054709D01*
X100173386Y-120054711D01*
X100173386Y-120054712D01*
X100149500Y-120143856D01*
X100149500Y-120236144D01*
X100170686Y-120315212D01*
X100173387Y-120325290D01*
X100173388Y-120325293D01*
X100219526Y-120405205D01*
X100219529Y-120405209D01*
X100219531Y-120405212D01*
X100284788Y-120470469D01*
X100284791Y-120470470D01*
X100284794Y-120470473D01*
X100364706Y-120516611D01*
X100364707Y-120516611D01*
X100364712Y-120516614D01*
X100453856Y-120540500D01*
X100453858Y-120540500D01*
X100546142Y-120540500D01*
X100546144Y-120540500D01*
X100635288Y-120516614D01*
X100635292Y-120516612D01*
X100678784Y-120491501D01*
X100712914Y-120471795D01*
X100780813Y-120455322D01*
X100846841Y-120478174D01*
X100862596Y-120491501D01*
X101468829Y-121097734D01*
X101468830Y-121097736D01*
X101532264Y-121161170D01*
X101566595Y-121175390D01*
X101615146Y-121195501D01*
X101615147Y-121195501D01*
X101719289Y-121195501D01*
X101719297Y-121195500D01*
X109620704Y-121195500D01*
X109635143Y-121195500D01*
X109635145Y-121195501D01*
X109723889Y-121195501D01*
X109790928Y-121215186D01*
X109836683Y-121267991D01*
X109844089Y-121319501D01*
X109846626Y-121337148D01*
X109817601Y-121400704D01*
X109794778Y-121421239D01*
X109455604Y-121657574D01*
X109389347Y-121679749D01*
X109385479Y-121679834D01*
X96555959Y-121758967D01*
X96488799Y-121739696D01*
X96457132Y-121710863D01*
X96432934Y-121679597D01*
X91616313Y-115456093D01*
X91590850Y-115391030D01*
X91590376Y-115380473D01*
X91585354Y-112949448D01*
X97349500Y-112949448D01*
X97349500Y-113130551D01*
X97377829Y-113309410D01*
X97433787Y-113481636D01*
X97433788Y-113481639D01*
X97472462Y-113557539D01*
X97501485Y-113614500D01*
X97516006Y-113642997D01*
X97622441Y-113789494D01*
X97622445Y-113789499D01*
X97750500Y-113917554D01*
X97750505Y-113917558D01*
X97822941Y-113970185D01*
X97897006Y-114023996D01*
X97978458Y-114065498D01*
X98058360Y-114106211D01*
X98058363Y-114106212D01*
X98123960Y-114127525D01*
X98230591Y-114162171D01*
X98313429Y-114175291D01*
X98409449Y-114190500D01*
X98409454Y-114190500D01*
X98590551Y-114190500D01*
X98677259Y-114176765D01*
X98769409Y-114162171D01*
X98941639Y-114106211D01*
X99102994Y-114023996D01*
X99249501Y-113917553D01*
X99377553Y-113789501D01*
X99483996Y-113642994D01*
X99566211Y-113481639D01*
X99622171Y-113309409D01*
X99639779Y-113198234D01*
X99650500Y-113130551D01*
X99650500Y-112949448D01*
X99628885Y-112812982D01*
X99622171Y-112770591D01*
X99566211Y-112598361D01*
X99566211Y-112598360D01*
X99522456Y-112512488D01*
X99483996Y-112437006D01*
X99437110Y-112372472D01*
X99377558Y-112290505D01*
X99377554Y-112290500D01*
X99249499Y-112162445D01*
X99249494Y-112162441D01*
X99102997Y-112056006D01*
X99102996Y-112056005D01*
X99102994Y-112056004D01*
X99044819Y-112026362D01*
X98941639Y-111973788D01*
X98941636Y-111973787D01*
X98769410Y-111917829D01*
X98590551Y-111889500D01*
X98590546Y-111889500D01*
X98409454Y-111889500D01*
X98409449Y-111889500D01*
X98230589Y-111917829D01*
X98058363Y-111973787D01*
X98058360Y-111973788D01*
X97897002Y-112056006D01*
X97750505Y-112162441D01*
X97750500Y-112162445D01*
X97622445Y-112290500D01*
X97622441Y-112290505D01*
X97516006Y-112437002D01*
X97433788Y-112598360D01*
X97433787Y-112598363D01*
X97377829Y-112770589D01*
X97349500Y-112949448D01*
X91585354Y-112949448D01*
X91580628Y-110661968D01*
X91600174Y-110594889D01*
X91608317Y-110583609D01*
X96627002Y-104396188D01*
X96684519Y-104356526D01*
X96723009Y-104350304D01*
X109339616Y-104320618D01*
X109405888Y-104339630D01*
X109574591Y-104445654D01*
X114768203Y-107709662D01*
X114778827Y-107720394D01*
X114785329Y-107720425D01*
X114790837Y-107723887D01*
X114790839Y-107723888D01*
X114791639Y-107723705D01*
X114819843Y-107720601D01*
X122618700Y-107760037D01*
X122685637Y-107780060D01*
X122720135Y-107813616D01*
X122980679Y-108191259D01*
X123467665Y-108897116D01*
X123480508Y-108915730D01*
X123480508Y-108920918D01*
X123492050Y-108932460D01*
X123501320Y-108945896D01*
X123502079Y-108946387D01*
X123505292Y-108948984D01*
X123509262Y-108950156D01*
X123510088Y-108950498D01*
X123510090Y-108950500D01*
X123515132Y-108950500D01*
X123537508Y-108952535D01*
X123542469Y-108953446D01*
X123542471Y-108953444D01*
X123543354Y-108953256D01*
X123569352Y-108950500D01*
X125325500Y-108950500D01*
X125392539Y-108970185D01*
X125438294Y-109022989D01*
X125449500Y-109074500D01*
X125449500Y-111071162D01*
X125429815Y-111138201D01*
X125377011Y-111183956D01*
X125307853Y-111193900D01*
X125301310Y-111192780D01*
X125284820Y-111189500D01*
X124255180Y-111189500D01*
X124255178Y-111189500D01*
X124211282Y-111198231D01*
X124211275Y-111198234D01*
X124161496Y-111231495D01*
X124161495Y-111231496D01*
X124128234Y-111281275D01*
X124128231Y-111281282D01*
X124119500Y-111325177D01*
X124119500Y-111325180D01*
X124119500Y-112354820D01*
X124119500Y-112354822D01*
X124119499Y-112354822D01*
X124128231Y-112398717D01*
X124128234Y-112398724D01*
X124153813Y-112437006D01*
X124161496Y-112448504D01*
X124211278Y-112481767D01*
X124211281Y-112481767D01*
X124211282Y-112481768D01*
X124255177Y-112490500D01*
X124255180Y-112490500D01*
X125284822Y-112490500D01*
X125328717Y-112481768D01*
X125328717Y-112481767D01*
X125328722Y-112481767D01*
X125370034Y-112454163D01*
X125388659Y-112441719D01*
X125389475Y-112442940D01*
X125438878Y-112415961D01*
X125508570Y-112420940D01*
X125564506Y-112462808D01*
X125585018Y-112505029D01*
X125587016Y-112512485D01*
X125587017Y-112512488D01*
X125659488Y-112638011D01*
X125659490Y-112638013D01*
X125659491Y-112638015D01*
X125761985Y-112740509D01*
X125761986Y-112740510D01*
X125761988Y-112740511D01*
X125887511Y-112812982D01*
X125887512Y-112812982D01*
X125887515Y-112812984D01*
X126027525Y-112850500D01*
X126027528Y-112850500D01*
X126172472Y-112850500D01*
X126172475Y-112850500D01*
X126312485Y-112812984D01*
X126438015Y-112740509D01*
X126540509Y-112638015D01*
X126612984Y-112512485D01*
X126650500Y-112372475D01*
X126650500Y-112227525D01*
X126612984Y-112087515D01*
X126594792Y-112056006D01*
X126540511Y-111961988D01*
X126540506Y-111961982D01*
X126438017Y-111859493D01*
X126438015Y-111859491D01*
X126438012Y-111859489D01*
X126438008Y-111859486D01*
X126424844Y-111851886D01*
X126376629Y-111801319D01*
X126363407Y-111732712D01*
X126389375Y-111667847D01*
X126446290Y-111627319D01*
X126486845Y-111620500D01*
X130613155Y-111620500D01*
X130680194Y-111640185D01*
X130725949Y-111692989D01*
X130735893Y-111762147D01*
X130706868Y-111825703D01*
X130675156Y-111851886D01*
X130661991Y-111859486D01*
X130661982Y-111859493D01*
X130559493Y-111961982D01*
X130559488Y-111961988D01*
X130487017Y-112087511D01*
X130487016Y-112087515D01*
X130449500Y-112227525D01*
X130449500Y-112241328D01*
X130449500Y-112372475D01*
X130481125Y-112490500D01*
X130487017Y-112512488D01*
X130559488Y-112638011D01*
X130559490Y-112638013D01*
X130559491Y-112638015D01*
X130661985Y-112740509D01*
X130661986Y-112740510D01*
X130661988Y-112740511D01*
X130787511Y-112812982D01*
X130787512Y-112812982D01*
X130787515Y-112812984D01*
X130927525Y-112850500D01*
X130927528Y-112850500D01*
X131072472Y-112850500D01*
X131072475Y-112850500D01*
X131158218Y-112827525D01*
X131849500Y-112827525D01*
X131849500Y-112841328D01*
X131849500Y-112972475D01*
X131887016Y-113112485D01*
X131887017Y-113112488D01*
X131959488Y-113238011D01*
X131959490Y-113238013D01*
X131959491Y-113238015D01*
X132061985Y-113340509D01*
X132061986Y-113340510D01*
X132061988Y-113340511D01*
X132187511Y-113412982D01*
X132187512Y-113412982D01*
X132187515Y-113412984D01*
X132327525Y-113450500D01*
X132327528Y-113450500D01*
X132472472Y-113450500D01*
X132472475Y-113450500D01*
X132612485Y-113412984D01*
X132738015Y-113340509D01*
X132840509Y-113238015D01*
X132912984Y-113112485D01*
X132950500Y-112972475D01*
X132950500Y-112827525D01*
X132912984Y-112687515D01*
X132884406Y-112638017D01*
X132840511Y-112561988D01*
X132840506Y-112561982D01*
X132738017Y-112459493D01*
X132738011Y-112459488D01*
X132612488Y-112387017D01*
X132612489Y-112387017D01*
X132601006Y-112383940D01*
X132472475Y-112349500D01*
X132327525Y-112349500D01*
X132198993Y-112383940D01*
X132187511Y-112387017D01*
X132061988Y-112459488D01*
X132061982Y-112459493D01*
X131959493Y-112561982D01*
X131959488Y-112561988D01*
X131887017Y-112687511D01*
X131887016Y-112687515D01*
X131849500Y-112827525D01*
X131158218Y-112827525D01*
X131212485Y-112812984D01*
X131338015Y-112740509D01*
X131440509Y-112638015D01*
X131512984Y-112512485D01*
X131550500Y-112372475D01*
X131550500Y-112227525D01*
X131512984Y-112087515D01*
X131494792Y-112056006D01*
X131440511Y-111961988D01*
X131440506Y-111961982D01*
X131338017Y-111859493D01*
X131338015Y-111859491D01*
X131338012Y-111859489D01*
X131338008Y-111859486D01*
X131324844Y-111851886D01*
X131276629Y-111801319D01*
X131263407Y-111732712D01*
X131289375Y-111667847D01*
X131346290Y-111627319D01*
X131386845Y-111620500D01*
X131650918Y-111620500D01*
X131680500Y-111590918D01*
X131680500Y-108823996D01*
X132244500Y-108823996D01*
X132244500Y-110276008D01*
X132248054Y-110309055D01*
X132259260Y-110360566D01*
X132293686Y-110429342D01*
X132339436Y-110482139D01*
X132344422Y-110487623D01*
X132409884Y-110527525D01*
X132413150Y-110529516D01*
X132480189Y-110549201D01*
X132524000Y-110555500D01*
X132524003Y-110555500D01*
X134575991Y-110555500D01*
X134576000Y-110555500D01*
X134609055Y-110551946D01*
X134660566Y-110540740D01*
X134729342Y-110506313D01*
X134782146Y-110460558D01*
X134787621Y-110455580D01*
X134829516Y-110386850D01*
X134849201Y-110319811D01*
X134855500Y-110276000D01*
X134855500Y-109669116D01*
X134875185Y-109602077D01*
X134921963Y-109559273D01*
X134946411Y-109546467D01*
X135167963Y-109430415D01*
X135236483Y-109416746D01*
X135301515Y-109442291D01*
X135342413Y-109498940D01*
X135349500Y-109540259D01*
X135349500Y-109849829D01*
X135387636Y-109941897D01*
X136180565Y-110734825D01*
X136180568Y-110734829D01*
X136187636Y-110741897D01*
X136258103Y-110812364D01*
X136350172Y-110850500D01*
X139677377Y-110850500D01*
X139744416Y-110870185D01*
X139765058Y-110886819D01*
X139945810Y-111067570D01*
X139979295Y-111128893D01*
X139981068Y-111139063D01*
X139982000Y-111146142D01*
X139982000Y-111146144D01*
X139995957Y-111198234D01*
X140005887Y-111235290D01*
X140005888Y-111235293D01*
X140052026Y-111315205D01*
X140052029Y-111315209D01*
X140052031Y-111315212D01*
X140117288Y-111380469D01*
X140117291Y-111380470D01*
X140117294Y-111380473D01*
X140197206Y-111426611D01*
X140197207Y-111426611D01*
X140197212Y-111426614D01*
X140286356Y-111450500D01*
X140286358Y-111450500D01*
X140378642Y-111450500D01*
X140378644Y-111450500D01*
X140467788Y-111426614D01*
X140547712Y-111380469D01*
X140612969Y-111315212D01*
X140659114Y-111235288D01*
X140683000Y-111146144D01*
X140683000Y-111053856D01*
X140671675Y-111011590D01*
X140672270Y-110986598D01*
X140668712Y-110961853D01*
X140673087Y-110952272D01*
X140673338Y-110941744D01*
X140687350Y-110921040D01*
X140697737Y-110898297D01*
X140706597Y-110892602D01*
X140712500Y-110883882D01*
X140735480Y-110874040D01*
X140756515Y-110860523D01*
X140772369Y-110858243D01*
X140776728Y-110856377D01*
X140791450Y-110855500D01*
X140920500Y-110855500D01*
X140987539Y-110875185D01*
X141033294Y-110927989D01*
X141044500Y-110979500D01*
X141044500Y-111376008D01*
X141048054Y-111409055D01*
X141059260Y-111460566D01*
X141093686Y-111529342D01*
X141133524Y-111575316D01*
X141139442Y-111582146D01*
X141144420Y-111587621D01*
X141144422Y-111587623D01*
X141198792Y-111620764D01*
X141213150Y-111629516D01*
X141280189Y-111649201D01*
X141324000Y-111655500D01*
X141324003Y-111655500D01*
X141875991Y-111655500D01*
X141876000Y-111655500D01*
X141909055Y-111651946D01*
X141960566Y-111640740D01*
X142029342Y-111606313D01*
X142082146Y-111560558D01*
X142087621Y-111555580D01*
X142129516Y-111486850D01*
X142149201Y-111419811D01*
X142155500Y-111376000D01*
X142155500Y-110527525D01*
X142849500Y-110527525D01*
X142849500Y-110541328D01*
X142849500Y-110672475D01*
X142886984Y-110812364D01*
X142887017Y-110812488D01*
X142959488Y-110938011D01*
X142959490Y-110938013D01*
X142959491Y-110938015D01*
X143061985Y-111040509D01*
X143061986Y-111040510D01*
X143061988Y-111040511D01*
X143187511Y-111112982D01*
X143187512Y-111112982D01*
X143187515Y-111112984D01*
X143327525Y-111150500D01*
X143327528Y-111150500D01*
X143472472Y-111150500D01*
X143472475Y-111150500D01*
X143612485Y-111112984D01*
X143738015Y-111040509D01*
X143840509Y-110938015D01*
X143912984Y-110812485D01*
X143950500Y-110672475D01*
X143950500Y-110527525D01*
X143912984Y-110387515D01*
X143912696Y-110387017D01*
X143840511Y-110261988D01*
X143840506Y-110261982D01*
X143738017Y-110159493D01*
X143738011Y-110159488D01*
X143612488Y-110087017D01*
X143612489Y-110087017D01*
X143601006Y-110083940D01*
X143472475Y-110049500D01*
X143327525Y-110049500D01*
X143198993Y-110083940D01*
X143187511Y-110087017D01*
X143061988Y-110159488D01*
X143061982Y-110159493D01*
X142959493Y-110261982D01*
X142959488Y-110261988D01*
X142887017Y-110387511D01*
X142887016Y-110387515D01*
X142849500Y-110527525D01*
X142155500Y-110527525D01*
X142155500Y-107724000D01*
X142151946Y-107690945D01*
X142140740Y-107639434D01*
X142114427Y-107586867D01*
X142106313Y-107570657D01*
X142060563Y-107517860D01*
X142055577Y-107512376D01*
X141986854Y-107470486D01*
X141986848Y-107470483D01*
X141919812Y-107450799D01*
X141919802Y-107450797D01*
X141876003Y-107444500D01*
X141876000Y-107444500D01*
X139393166Y-107444500D01*
X139326127Y-107424815D01*
X139318766Y-107419700D01*
X139140532Y-107286024D01*
X139105100Y-107259450D01*
X139063279Y-107203479D01*
X139055500Y-107160250D01*
X139055500Y-106224008D01*
X139055499Y-106223991D01*
X139054498Y-106214685D01*
X139051946Y-106190945D01*
X139040740Y-106139434D01*
X139022874Y-106103743D01*
X139006313Y-106070657D01*
X138960563Y-106017860D01*
X138955577Y-106012376D01*
X138886854Y-105970486D01*
X138886848Y-105970483D01*
X138819812Y-105950799D01*
X138819802Y-105950797D01*
X138776003Y-105944500D01*
X138776000Y-105944500D01*
X137847044Y-105944500D01*
X137830436Y-105945390D01*
X137830427Y-105945390D01*
X137830421Y-105945391D01*
X137830415Y-105945391D01*
X137830384Y-105945394D01*
X137804062Y-105948224D01*
X137804060Y-105948225D01*
X137746165Y-105966354D01*
X137746155Y-105966358D01*
X137684845Y-105999836D01*
X137684837Y-105999841D01*
X137649415Y-106026357D01*
X137649405Y-106026366D01*
X137626361Y-106049411D01*
X137626335Y-106049439D01*
X137620919Y-106055467D01*
X137620870Y-106055523D01*
X137615239Y-106061793D01*
X137610891Y-106067187D01*
X137610865Y-106067219D01*
X137598608Y-106082431D01*
X137595270Y-106087524D01*
X137595048Y-106087378D01*
X137591902Y-106092371D01*
X137590674Y-106094440D01*
X137580761Y-106116149D01*
X137579207Y-106119423D01*
X137578520Y-106120816D01*
X137570495Y-106136156D01*
X137569797Y-106138528D01*
X137566319Y-106145592D01*
X137545643Y-106168089D01*
X137526676Y-106192048D01*
X137522225Y-106193572D01*
X137519041Y-106197037D01*
X137489480Y-106204785D01*
X137460575Y-106214685D01*
X137456006Y-106213560D01*
X137451455Y-106214754D01*
X137422401Y-106205292D01*
X137392729Y-106197992D01*
X137389492Y-106194575D01*
X137385019Y-106193119D01*
X137365692Y-106169451D01*
X137348595Y-106151403D01*
X137348552Y-106151432D01*
X137348383Y-106151179D01*
X137344678Y-106147268D01*
X137342233Y-106141975D01*
X137308504Y-106091496D01*
X137308503Y-106091495D01*
X137258724Y-106058234D01*
X137258717Y-106058231D01*
X137214822Y-106049500D01*
X137214820Y-106049500D01*
X136185180Y-106049500D01*
X136185178Y-106049500D01*
X136141282Y-106058231D01*
X136141275Y-106058234D01*
X136091496Y-106091495D01*
X136091495Y-106091496D01*
X136058234Y-106141275D01*
X136058231Y-106141282D01*
X136049500Y-106185177D01*
X136049500Y-106185180D01*
X136049500Y-107214820D01*
X136049500Y-107214822D01*
X136049499Y-107214822D01*
X136058231Y-107258717D01*
X136058232Y-107258721D01*
X136058233Y-107258722D01*
X136091496Y-107308504D01*
X136141278Y-107341767D01*
X136141281Y-107341767D01*
X136141282Y-107341768D01*
X136185177Y-107350500D01*
X136665134Y-107350500D01*
X136732173Y-107370185D01*
X136777928Y-107422989D01*
X136787872Y-107492147D01*
X136758847Y-107555703D01*
X136717572Y-107586867D01*
X134690431Y-108532867D01*
X134637993Y-108544500D01*
X132523991Y-108544500D01*
X132490944Y-108548054D01*
X132439433Y-108559260D01*
X132370657Y-108593686D01*
X132317860Y-108639436D01*
X132312376Y-108644422D01*
X132270486Y-108713145D01*
X132270483Y-108713151D01*
X132250799Y-108780187D01*
X132250797Y-108780197D01*
X132244500Y-108823996D01*
X131680500Y-108823996D01*
X131680500Y-107214822D01*
X134449499Y-107214822D01*
X134458231Y-107258717D01*
X134458232Y-107258721D01*
X134458233Y-107258722D01*
X134491496Y-107308504D01*
X134541278Y-107341767D01*
X134541281Y-107341767D01*
X134541282Y-107341768D01*
X134585177Y-107350500D01*
X134585180Y-107350500D01*
X135614822Y-107350500D01*
X135658717Y-107341768D01*
X135658717Y-107341767D01*
X135658722Y-107341767D01*
X135708504Y-107308504D01*
X135741767Y-107258722D01*
X135750500Y-107214820D01*
X135750500Y-106185180D01*
X135750500Y-106185177D01*
X135741768Y-106141282D01*
X135741767Y-106141281D01*
X135741767Y-106141278D01*
X135708504Y-106091496D01*
X135705409Y-106089428D01*
X135658724Y-106058234D01*
X135658717Y-106058231D01*
X135614822Y-106049500D01*
X135614820Y-106049500D01*
X134585180Y-106049500D01*
X134585178Y-106049500D01*
X134541282Y-106058231D01*
X134541275Y-106058234D01*
X134491496Y-106091495D01*
X134491495Y-106091496D01*
X134458234Y-106141275D01*
X134458231Y-106141282D01*
X134449500Y-106185177D01*
X134449500Y-106185180D01*
X134449500Y-107214820D01*
X134449500Y-107214822D01*
X134449499Y-107214822D01*
X131680500Y-107214822D01*
X131680500Y-105725991D01*
X131700185Y-105658952D01*
X131752989Y-105613197D01*
X131805107Y-105601993D01*
X138278852Y-105633938D01*
X138288979Y-105633988D01*
X138289082Y-105634091D01*
X138309794Y-105634091D01*
X138330668Y-105634194D01*
X138330916Y-105634091D01*
X138330918Y-105634091D01*
X138345633Y-105619375D01*
X138360396Y-105604758D01*
X138360396Y-105604753D01*
X138360497Y-105604511D01*
X138360500Y-105604509D01*
X138360500Y-105583636D01*
X138360602Y-105562922D01*
X138360500Y-105562818D01*
X138360500Y-104438386D01*
X138380185Y-104371347D01*
X138432989Y-104325592D01*
X138502147Y-104315648D01*
X138565703Y-104344673D01*
X138572181Y-104350705D01*
X138661985Y-104440509D01*
X138661986Y-104440510D01*
X138661988Y-104440511D01*
X138787511Y-104512982D01*
X138787512Y-104512982D01*
X138787515Y-104512984D01*
X138927525Y-104550500D01*
X138927528Y-104550500D01*
X139072472Y-104550500D01*
X139072475Y-104550500D01*
X139212485Y-104512984D01*
X139338015Y-104440509D01*
X139440509Y-104338015D01*
X139512984Y-104212485D01*
X139550500Y-104072475D01*
X139550500Y-103927525D01*
X140049500Y-103927525D01*
X140049500Y-103941328D01*
X140049500Y-104072475D01*
X140087016Y-104212485D01*
X140087017Y-104212488D01*
X140159488Y-104338011D01*
X140159490Y-104338013D01*
X140159491Y-104338015D01*
X140261985Y-104440509D01*
X140261986Y-104440510D01*
X140261988Y-104440511D01*
X140387511Y-104512982D01*
X140387512Y-104512982D01*
X140387515Y-104512984D01*
X140527525Y-104550500D01*
X140527528Y-104550500D01*
X140672472Y-104550500D01*
X140672475Y-104550500D01*
X140812485Y-104512984D01*
X140938015Y-104440509D01*
X141040509Y-104338015D01*
X141112984Y-104212485D01*
X141150500Y-104072475D01*
X141150500Y-103927525D01*
X141112984Y-103787515D01*
X141040509Y-103661985D01*
X140938015Y-103559491D01*
X140938013Y-103559490D01*
X140938011Y-103559488D01*
X140812488Y-103487017D01*
X140812489Y-103487017D01*
X140801006Y-103483940D01*
X140672475Y-103449500D01*
X140527525Y-103449500D01*
X140398993Y-103483940D01*
X140387511Y-103487017D01*
X140261988Y-103559488D01*
X140261982Y-103559493D01*
X140159493Y-103661982D01*
X140159488Y-103661988D01*
X140087017Y-103787511D01*
X140087016Y-103787515D01*
X140049500Y-103927525D01*
X139550500Y-103927525D01*
X139512984Y-103787515D01*
X139440509Y-103661985D01*
X139338015Y-103559491D01*
X139338013Y-103559490D01*
X139338011Y-103559488D01*
X139212488Y-103487017D01*
X139212489Y-103487017D01*
X139201006Y-103483940D01*
X139072475Y-103449500D01*
X138927525Y-103449500D01*
X138798993Y-103483940D01*
X138787511Y-103487017D01*
X138661988Y-103559488D01*
X138661982Y-103559493D01*
X138572181Y-103649295D01*
X138510858Y-103682780D01*
X138441166Y-103677796D01*
X138385233Y-103635924D01*
X138360816Y-103570460D01*
X138360500Y-103561614D01*
X138360500Y-99738386D01*
X138380185Y-99671347D01*
X138432989Y-99625592D01*
X138502147Y-99615648D01*
X138565703Y-99644673D01*
X138572181Y-99650705D01*
X138661985Y-99740509D01*
X138661986Y-99740510D01*
X138661988Y-99740511D01*
X138787511Y-99812982D01*
X138787512Y-99812982D01*
X138787515Y-99812984D01*
X138927525Y-99850500D01*
X138927528Y-99850500D01*
X139072472Y-99850500D01*
X139072475Y-99850500D01*
X139212485Y-99812984D01*
X139338015Y-99740509D01*
X139440509Y-99638015D01*
X139512984Y-99512485D01*
X139550500Y-99372475D01*
X139550500Y-99227525D01*
X140049500Y-99227525D01*
X140049500Y-99241328D01*
X140049500Y-99372475D01*
X140087016Y-99512485D01*
X140087017Y-99512488D01*
X140159488Y-99638011D01*
X140159490Y-99638013D01*
X140159491Y-99638015D01*
X140261985Y-99740509D01*
X140261986Y-99740510D01*
X140261988Y-99740511D01*
X140387511Y-99812982D01*
X140387512Y-99812982D01*
X140387515Y-99812984D01*
X140527525Y-99850500D01*
X140527528Y-99850500D01*
X140672472Y-99850500D01*
X140672475Y-99850500D01*
X140812485Y-99812984D01*
X140938015Y-99740509D01*
X141040509Y-99638015D01*
X141112984Y-99512485D01*
X141150500Y-99372475D01*
X141150500Y-99227525D01*
X141112984Y-99087515D01*
X141047681Y-98974408D01*
X141040511Y-98961988D01*
X141040506Y-98961982D01*
X140938017Y-98859493D01*
X140938011Y-98859488D01*
X140812488Y-98787017D01*
X140812489Y-98787017D01*
X140801006Y-98783940D01*
X140672475Y-98749500D01*
X140527525Y-98749500D01*
X140398993Y-98783940D01*
X140387511Y-98787017D01*
X140261988Y-98859488D01*
X140261982Y-98859493D01*
X140159493Y-98961982D01*
X140159488Y-98961988D01*
X140087017Y-99087511D01*
X140087016Y-99087515D01*
X140049500Y-99227525D01*
X139550500Y-99227525D01*
X139512984Y-99087515D01*
X139447681Y-98974408D01*
X139440511Y-98961988D01*
X139440506Y-98961982D01*
X139338017Y-98859493D01*
X139338011Y-98859488D01*
X139212488Y-98787017D01*
X139212489Y-98787017D01*
X139201006Y-98783940D01*
X139072475Y-98749500D01*
X138927525Y-98749500D01*
X138798993Y-98783940D01*
X138787511Y-98787017D01*
X138661988Y-98859488D01*
X138661982Y-98859493D01*
X138572181Y-98949295D01*
X138552744Y-98959907D01*
X138536011Y-98974408D01*
X138522679Y-98976324D01*
X138510858Y-98982780D01*
X138488771Y-98981200D01*
X138466853Y-98984352D01*
X138454601Y-98978756D01*
X138441166Y-98977796D01*
X138423439Y-98964525D01*
X138403297Y-98955327D01*
X138396014Y-98943995D01*
X138385233Y-98935924D01*
X138377495Y-98915178D01*
X138365523Y-98896549D01*
X138362371Y-98874630D01*
X138360816Y-98870460D01*
X138360500Y-98861614D01*
X138360500Y-98680117D01*
X138360521Y-98670945D01*
X138360549Y-98659199D01*
X138360547Y-98659197D01*
X138360548Y-98659197D01*
X138360502Y-98659084D01*
X138345900Y-98644482D01*
X138331036Y-98629549D01*
X138330966Y-98629548D01*
X138330918Y-98629500D01*
X138309966Y-98629500D01*
X125584119Y-98599903D01*
X125517125Y-98580062D01*
X125471493Y-98527152D01*
X125460407Y-98475969D01*
X125460220Y-98124347D01*
X125459617Y-96988670D01*
X127754499Y-96988670D01*
X127763231Y-97032565D01*
X127763234Y-97032572D01*
X127796495Y-97082351D01*
X127799732Y-97084514D01*
X127844538Y-97138126D01*
X127853247Y-97207450D01*
X127838230Y-97249617D01*
X127793720Y-97326709D01*
X127793720Y-97326710D01*
X127793719Y-97326712D01*
X127793719Y-97326713D01*
X127754500Y-97473082D01*
X127754500Y-97624614D01*
X127774109Y-97697798D01*
X127793719Y-97770984D01*
X127831602Y-97836598D01*
X127869485Y-97902213D01*
X127976635Y-98009363D01*
X128107865Y-98085129D01*
X128254234Y-98124348D01*
X128254236Y-98124348D01*
X128405764Y-98124348D01*
X128405766Y-98124348D01*
X128552135Y-98085129D01*
X128683365Y-98009363D01*
X128790515Y-97902213D01*
X128866281Y-97770983D01*
X128905500Y-97624614D01*
X128905500Y-97473082D01*
X128866281Y-97326713D01*
X128838376Y-97278381D01*
X128821770Y-97249618D01*
X128805296Y-97181718D01*
X128828148Y-97115691D01*
X128860267Y-97084514D01*
X128863504Y-97082352D01*
X128896767Y-97032570D01*
X128905500Y-96988668D01*
X128905500Y-96109028D01*
X128905500Y-96109025D01*
X128896768Y-96065130D01*
X128896767Y-96065129D01*
X128896767Y-96065126D01*
X128863504Y-96015344D01*
X128863503Y-96015343D01*
X128813724Y-95982082D01*
X128813717Y-95982079D01*
X128769822Y-95973348D01*
X128769820Y-95973348D01*
X127890180Y-95973348D01*
X127890178Y-95973348D01*
X127846282Y-95982079D01*
X127846275Y-95982082D01*
X127796496Y-96015343D01*
X127796495Y-96015344D01*
X127763234Y-96065123D01*
X127763231Y-96065130D01*
X127754500Y-96109025D01*
X127754500Y-96109028D01*
X127754500Y-96988668D01*
X127754500Y-96988670D01*
X127754499Y-96988670D01*
X125459617Y-96988670D01*
X125455693Y-89605131D01*
X134649500Y-89605131D01*
X134649500Y-90944856D01*
X134649502Y-90944882D01*
X134652413Y-90969987D01*
X134652415Y-90969991D01*
X134697793Y-91072764D01*
X134738181Y-91113152D01*
X134771666Y-91174475D01*
X134774500Y-91200833D01*
X134774500Y-94903990D01*
X134774499Y-94904004D01*
X134774499Y-95003701D01*
X134774500Y-95003706D01*
X134798772Y-95062305D01*
X134808829Y-95086583D01*
X134808830Y-95086584D01*
X134872264Y-95150018D01*
X134872265Y-95150018D01*
X134889705Y-95167458D01*
X137213181Y-97490934D01*
X137246666Y-97552257D01*
X137249500Y-97578615D01*
X137249500Y-97604992D01*
X137254757Y-97624613D01*
X137273387Y-97694138D01*
X137273388Y-97694141D01*
X137319526Y-97774053D01*
X137319529Y-97774057D01*
X137319531Y-97774060D01*
X137384788Y-97839317D01*
X137384791Y-97839318D01*
X137384794Y-97839321D01*
X137464706Y-97885459D01*
X137464707Y-97885459D01*
X137464712Y-97885462D01*
X137553856Y-97909348D01*
X137553858Y-97909348D01*
X137646142Y-97909348D01*
X137646144Y-97909348D01*
X137735288Y-97885462D01*
X137815212Y-97839317D01*
X137880469Y-97774060D01*
X137926614Y-97694136D01*
X137950500Y-97604992D01*
X137950500Y-97512704D01*
X137926614Y-97423560D01*
X137926611Y-97423554D01*
X137880473Y-97343642D01*
X137880470Y-97343639D01*
X137880469Y-97343636D01*
X137815212Y-97278379D01*
X137815209Y-97278377D01*
X137815205Y-97278374D01*
X137735293Y-97232236D01*
X137735290Y-97232235D01*
X137735289Y-97232234D01*
X137735288Y-97232234D01*
X137646144Y-97208348D01*
X137646143Y-97208348D01*
X137619767Y-97208348D01*
X137552728Y-97188663D01*
X137532086Y-97172029D01*
X135261819Y-94901762D01*
X135228334Y-94840439D01*
X135225500Y-94814081D01*
X135225500Y-91318063D01*
X135245185Y-91251024D01*
X135297989Y-91205269D01*
X135316954Y-91198410D01*
X135319979Y-91197586D01*
X135319991Y-91197585D01*
X135422765Y-91152206D01*
X135502206Y-91072765D01*
X135502206Y-91072764D01*
X135510331Y-91064640D01*
X135512749Y-91067058D01*
X135551810Y-91035165D01*
X135621230Y-91027249D01*
X135683910Y-91058121D01*
X135688465Y-91062527D01*
X135697200Y-91071420D01*
X135697794Y-91072765D01*
X135738633Y-91113604D01*
X135738965Y-91113942D01*
X135755200Y-91144321D01*
X135771666Y-91174475D01*
X135771754Y-91175294D01*
X135771898Y-91175564D01*
X135771848Y-91176174D01*
X135774500Y-91200833D01*
X135774500Y-94353990D01*
X135774499Y-94354004D01*
X135774499Y-94453701D01*
X135774500Y-94453706D01*
X135798772Y-94512305D01*
X135808829Y-94536583D01*
X135808830Y-94536584D01*
X135872264Y-94600018D01*
X135872265Y-94600018D01*
X135889705Y-94617458D01*
X137723181Y-96450934D01*
X137756666Y-96512257D01*
X137759500Y-96538615D01*
X137759500Y-96564991D01*
X137783387Y-96654138D01*
X137783388Y-96654141D01*
X137829526Y-96734053D01*
X137829529Y-96734057D01*
X137829531Y-96734060D01*
X137894788Y-96799317D01*
X137894791Y-96799318D01*
X137894794Y-96799321D01*
X137974706Y-96845459D01*
X137974707Y-96845459D01*
X137974712Y-96845462D01*
X138063856Y-96869348D01*
X138063858Y-96869348D01*
X138156142Y-96869348D01*
X138156144Y-96869348D01*
X138245288Y-96845462D01*
X138325212Y-96799317D01*
X138390469Y-96734060D01*
X138436614Y-96654136D01*
X138460500Y-96564992D01*
X138460500Y-96472704D01*
X138436614Y-96383560D01*
X138436611Y-96383554D01*
X138390473Y-96303642D01*
X138390470Y-96303639D01*
X138390469Y-96303636D01*
X138325212Y-96238379D01*
X138325209Y-96238377D01*
X138325205Y-96238374D01*
X138245293Y-96192236D01*
X138245290Y-96192235D01*
X138245289Y-96192234D01*
X138245288Y-96192234D01*
X138156144Y-96168348D01*
X138156143Y-96168348D01*
X138129767Y-96168348D01*
X138062728Y-96148663D01*
X138042086Y-96132029D01*
X136261819Y-94351762D01*
X136228334Y-94290439D01*
X136225500Y-94264081D01*
X136225500Y-91318063D01*
X136245185Y-91251024D01*
X136297989Y-91205269D01*
X136316954Y-91198410D01*
X136319979Y-91197586D01*
X136319991Y-91197585D01*
X136422765Y-91152206D01*
X136489348Y-91085622D01*
X136550667Y-91052140D01*
X136620359Y-91057124D01*
X136676293Y-91098995D01*
X136687910Y-91117801D01*
X136693687Y-91129343D01*
X136739436Y-91182139D01*
X136744422Y-91187623D01*
X136813145Y-91229513D01*
X136813150Y-91229516D01*
X136880189Y-91249201D01*
X136924000Y-91255500D01*
X136924003Y-91255500D01*
X137675991Y-91255500D01*
X137676000Y-91255500D01*
X137709055Y-91251946D01*
X137760566Y-91240740D01*
X137829342Y-91206313D01*
X137882146Y-91160558D01*
X137887621Y-91155580D01*
X137929516Y-91086850D01*
X137949201Y-91019811D01*
X137955500Y-90976000D01*
X137955500Y-86924000D01*
X137951946Y-86890945D01*
X137940740Y-86839434D01*
X137923545Y-86805084D01*
X137906313Y-86770657D01*
X137860563Y-86717860D01*
X137855577Y-86712376D01*
X137786854Y-86670486D01*
X137786848Y-86670483D01*
X137719812Y-86650799D01*
X137719802Y-86650797D01*
X137676003Y-86644500D01*
X137676000Y-86644500D01*
X135524000Y-86644500D01*
X135523991Y-86644500D01*
X135490944Y-86648054D01*
X135439433Y-86659260D01*
X135370657Y-86693686D01*
X135317860Y-86739436D01*
X135312376Y-86744422D01*
X135270486Y-86813145D01*
X135270483Y-86813151D01*
X135250799Y-86880187D01*
X135250797Y-86880197D01*
X135244500Y-86923996D01*
X135244500Y-88262008D01*
X135244501Y-88262031D01*
X135246791Y-88288611D01*
X135246795Y-88288639D01*
X135254054Y-88330436D01*
X135254054Y-88330438D01*
X135281566Y-88395375D01*
X135281568Y-88395378D01*
X135322696Y-88451847D01*
X135322704Y-88451856D01*
X135339558Y-88469157D01*
X135353586Y-88483557D01*
X135353594Y-88483563D01*
X135571912Y-88651500D01*
X135603694Y-88687783D01*
X135619528Y-88715208D01*
X135619530Y-88715210D01*
X135619531Y-88715212D01*
X135684788Y-88780469D01*
X135684791Y-88780470D01*
X135684794Y-88780473D01*
X135764708Y-88826613D01*
X135764712Y-88826614D01*
X135794288Y-88834538D01*
X135837799Y-88856028D01*
X136190342Y-89127215D01*
X136231477Y-89183692D01*
X136235549Y-89253443D01*
X136201263Y-89314322D01*
X136139507Y-89347001D01*
X136114739Y-89349500D01*
X135905143Y-89349500D01*
X135905117Y-89349502D01*
X135880012Y-89352413D01*
X135880008Y-89352415D01*
X135777235Y-89397793D01*
X135777234Y-89397794D01*
X135689669Y-89485360D01*
X135687251Y-89482942D01*
X135648171Y-89514842D01*
X135578750Y-89522747D01*
X135516076Y-89491865D01*
X135510389Y-89485301D01*
X135510331Y-89485360D01*
X135422765Y-89397794D01*
X135319992Y-89352415D01*
X135294865Y-89349500D01*
X134905143Y-89349500D01*
X134905117Y-89349502D01*
X134880012Y-89352413D01*
X134880008Y-89352415D01*
X134777235Y-89397793D01*
X134697794Y-89477234D01*
X134652415Y-89580006D01*
X134652415Y-89580008D01*
X134649500Y-89605131D01*
X125455693Y-89605131D01*
X125455680Y-89580009D01*
X125454147Y-86693686D01*
X125450500Y-79830201D01*
X125450699Y-79809569D01*
X125450494Y-79809360D01*
X125450494Y-79809060D01*
X125436310Y-79794891D01*
X125436286Y-79794867D01*
X125435820Y-79794402D01*
X125421402Y-79779703D01*
X125421111Y-79779700D01*
X125420899Y-79779488D01*
X125400868Y-79779498D01*
X125399618Y-79779492D01*
X123493605Y-79761165D01*
X123426758Y-79740837D01*
X123381513Y-79687596D01*
X123370797Y-79636960D01*
X123377340Y-75832634D01*
X123397140Y-75765629D01*
X123450023Y-75719965D01*
X123501340Y-75708848D01*
X141090000Y-75708848D01*
X141150000Y-75648848D01*
X141150000Y-68354500D01*
X141169685Y-68287461D01*
X141222489Y-68241706D01*
X141274000Y-68230500D01*
X147866004Y-68230500D01*
X147933043Y-68250185D01*
G37*
%TD.AperFunction*%
%TD*%
%TA.AperFunction,Conductor*%
%TO.N,+3.3V*%
G36*
X137743039Y-86819685D02*
G01*
X137788794Y-86872489D01*
X137800000Y-86924000D01*
X137800000Y-90976000D01*
X137780315Y-91043039D01*
X137727511Y-91088794D01*
X137676000Y-91100000D01*
X136924000Y-91100000D01*
X136856961Y-91080315D01*
X136811206Y-91027511D01*
X136800000Y-90976000D01*
X136800000Y-89399999D01*
X135448396Y-88360304D01*
X135407261Y-88303827D01*
X135400000Y-88262019D01*
X135400000Y-86924000D01*
X135419685Y-86856961D01*
X135472489Y-86811206D01*
X135524000Y-86800000D01*
X137676000Y-86800000D01*
X137743039Y-86819685D01*
G37*
%TD.AperFunction*%
%TD*%
%TA.AperFunction,Conductor*%
%TO.N,+3.3V*%
G36*
X139047232Y-107410424D02*
G01*
X139300000Y-107600000D01*
X141876000Y-107600000D01*
X141943039Y-107619685D01*
X141988794Y-107672489D01*
X142000000Y-107724000D01*
X142000000Y-111376000D01*
X141980315Y-111443039D01*
X141927511Y-111488794D01*
X141876000Y-111500000D01*
X141324000Y-111500000D01*
X141256961Y-111480315D01*
X141211206Y-111427511D01*
X141200000Y-111376000D01*
X141200000Y-110700000D01*
X140338122Y-110700000D01*
X140271083Y-110680315D01*
X140250446Y-110663686D01*
X139974397Y-110387636D01*
X139974396Y-110387635D01*
X139974395Y-110387634D01*
X139964243Y-110380851D01*
X139965215Y-110379396D01*
X139922140Y-110344680D01*
X139900079Y-110278384D01*
X139900000Y-110273965D01*
X139900000Y-109299999D01*
X138138670Y-107698791D01*
X138899999Y-107300000D01*
X139047232Y-107410424D01*
G37*
%TD.AperFunction*%
%TD*%
%TA.AperFunction,Conductor*%
%TO.N,+3.3V*%
G36*
X138843039Y-106119685D02*
G01*
X138888794Y-106172489D01*
X138900000Y-106224000D01*
X138900000Y-107300000D01*
X138138670Y-107698791D01*
X138138669Y-107698791D01*
X135959170Y-108840433D01*
X135890650Y-108854103D01*
X135825618Y-108828558D01*
X135816519Y-108820534D01*
X135815205Y-108819526D01*
X135735293Y-108773388D01*
X135735290Y-108773387D01*
X135735289Y-108773386D01*
X135735288Y-108773386D01*
X135646144Y-108749500D01*
X135553856Y-108749500D01*
X135464712Y-108773386D01*
X135464711Y-108773386D01*
X135464709Y-108773387D01*
X135464706Y-108773388D01*
X135384794Y-108819526D01*
X135384785Y-108819533D01*
X135319533Y-108884785D01*
X135319526Y-108884794D01*
X135273388Y-108964706D01*
X135273387Y-108964709D01*
X135249500Y-109053856D01*
X135249500Y-109137136D01*
X135229815Y-109204175D01*
X135183037Y-109246979D01*
X134700000Y-109499999D01*
X134700000Y-110276000D01*
X134680315Y-110343039D01*
X134627511Y-110388794D01*
X134576000Y-110400000D01*
X132524000Y-110400000D01*
X132456961Y-110380315D01*
X132411206Y-110327511D01*
X132400000Y-110276000D01*
X132400000Y-108824000D01*
X132419685Y-108756961D01*
X132472489Y-108711206D01*
X132524000Y-108700000D01*
X134699998Y-108700000D01*
X134700000Y-108700000D01*
X137700000Y-107300000D01*
X137700000Y-106247044D01*
X137708644Y-106217603D01*
X137715168Y-106187617D01*
X137718922Y-106182601D01*
X137719685Y-106180005D01*
X137736319Y-106159363D01*
X137759363Y-106136319D01*
X137820686Y-106102834D01*
X137847044Y-106100000D01*
X138776000Y-106100000D01*
X138843039Y-106119685D01*
G37*
%TD.AperFunction*%
%TD*%
M02*
