M48
; DRILL file {KiCad 9.0.0} date 2025-03-27T23:54:43+0100
; FORMAT={-:-/ absolute / metric / decimal}
; #@! TF.CreationDate,2025-03-27T23:54:43+01:00
; #@! TF.GenerationSoftware,Kicad,Pcbnew,9.0.0
; #@! TF.FileFunction,Plated,1,2,PTH
FMAT,2
METRIC
; #@! TA.AperFunction,Plated,PTH,ViaDrill
T1C0.300
; #@! TA.AperFunction,Plated,PTH,ComponentDrill
T2C0.500
; #@! TA.AperFunction,Plated,PTH,ComponentDrill
T3C0.600
; #@! TA.AperFunction,Plated,PTH,ComponentDrill
T4C1.000
; #@! TA.AperFunction,Plated,PTH,ComponentDrill
T5C1.200
%
G90
G05
T1
X92.27Y-115.07
X92.7Y-110.32
X96.2Y-106.5
X96.2Y-119.7
X97.39Y-106.04
X97.73Y-120.27
X98.02Y-116.55
X98.3Y-114.9
X99.07Y-109.41
X100.5Y-105.89
X100.5Y-120.19
X102.46Y-117.44
X102.7Y-114.9
X103.2Y-105.69
X105.5Y-105.89
X105.5Y-115.4
X107.0Y-114.9
X107.2Y-110.27
X107.68Y-116.43
X108.23Y-105.8
X108.52Y-120.03
X109.9Y-112.1
X110.4Y-106.1
X111.29Y-115.22
X112.02Y-115.22
X112.3Y-109.7
X113.55Y-108.34
X114.17Y-116.43
X115.1Y-114.0
X116.185Y-108.99
X116.185Y-116.59
X116.74Y-110.96
X116.79Y-114.71
X117.3Y-113.6
X117.69Y-117.57
X118.2Y-115.3
X118.71Y-114.29
X119.2Y-115.3
X119.5Y-108.9
X119.5Y-117.3
X121.8Y-113.8
X123.2Y-109.7
X123.2Y-115.7
X123.8Y-112.0
X123.8Y-114.0
X125.372Y-131.752
X125.412Y-123.652
X125.442Y-128.312
X125.462Y-120.922
X125.74Y-95.279
X125.76Y-91.429
X125.86Y-86.939
X126.3Y-76.8
X126.3Y-97.5
X128.67Y-119.53
X129.1Y-115.6
X129.1Y-116.8
X129.39Y-116.185
X129.56Y-76.229
X129.7Y-115.6
X129.7Y-116.8
X130.15Y-83.539
X130.29Y-91.979
X130.5Y-78.7
X130.5Y-86.5
X130.62Y-76.249
X131.6Y-80.4
X131.66Y-76.259
X131.69Y-120.1
X131.928Y-88.368
X132.0Y-105.9
X132.0Y-106.8
X132.0Y-107.9
X132.0Y-109.2
X132.0Y-110.5
X132.0Y-111.8
X132.5Y-92.3
X132.5Y-93.4
X132.53Y-96.499
X132.572Y-83.932
X132.6Y-109.5
X132.68Y-120.12
X132.77Y-76.309
X132.8Y-92.8
X133.1Y-92.3
X133.1Y-93.4
X133.1Y-105.9
X133.2Y-109.5
X133.4Y-111.8
X133.46Y-96.549
X133.74Y-120.08
X133.88Y-76.349
X133.9Y-94.7
X134.1Y-80.5
X134.25Y-78.199
X134.3Y-92.2
X134.3Y-105.9
X134.7Y-115.6
X134.7Y-116.8
X134.8Y-108.2
X134.8Y-111.8
X134.992Y-122.682
X135.0Y-116.2
X135.01Y-76.329
X135.152Y-124.862
X135.3Y-115.6
X135.3Y-116.8
X135.6Y-109.1
X135.64Y-87.2
X135.64Y-87.9
X135.9Y-88.5
X135.9Y-105.9
X135.9Y-107.6
X135.95Y-76.389
X136.3Y-97.7
X136.3Y-111.8
X136.6Y-78.1
X137.009Y-76.402
X137.5Y-105.9
X137.6Y-97.559
X137.7Y-111.2
X137.7Y-111.8
X137.762Y-126.722
X137.762Y-129.992
X137.912Y-125.682
X137.922Y-123.682
X137.96Y-76.359
X138.1Y-92.2
X138.1Y-93.4
X138.11Y-96.519
X138.4Y-92.8
X138.475Y-84.218
X138.7Y-92.2
X138.7Y-93.4
X138.762Y-88.69
X138.792Y-121.212
X138.802Y-126.742
X138.942Y-131.582
X139.04Y-76.279
X139.4Y-111.8
X139.81Y-76.309
X140.22Y-91.979
X140.332Y-111.1
X140.63Y-76.279
X140.9Y-111.9
X141.3Y-80.0
X141.3Y-85.1
X141.3Y-86.5
X141.3Y-91.4
X141.3Y-94.0
X141.4Y-77.179
X141.48Y-69.219
X141.48Y-70.459
X141.5Y-72.849
X141.51Y-71.659
X141.53Y-73.909
X141.53Y-74.999
X141.6Y-108.5
X141.6Y-109.5
X141.6Y-110.6
X141.9Y-78.5
X142.4Y-105.8
X142.4Y-106.9
X142.4Y-108.1
X142.4Y-109.3
X142.4Y-110.5
X142.4Y-111.8
X143.2Y-97.5
X143.5Y-81.8
X145.6Y-69.2
X145.6Y-69.8
X146.3Y-69.2
X146.3Y-69.8
X146.4Y-94.4
X147.0Y-69.2
X147.0Y-69.8
X150.48Y-112.21
X150.55Y-117.48
X152.51Y-114.24
X152.53Y-115.24
X153.29Y-112.18
X153.43Y-117.22
X155.095Y-112.94
X155.095Y-116.54
T2
X128.33Y-96.549
X128.33Y-97.549
T3
X120.77Y-111.84
X120.77Y-113.84
X122.77Y-111.84
X122.77Y-113.84
X124.77Y-111.84
X124.77Y-113.84
X133.5Y-106.7
X135.1Y-106.7
X136.7Y-106.7
X138.3Y-106.7
X150.8Y-113.1
X150.8Y-116.4
T4
X124.5Y-109.8
X124.5Y-115.9
T5
X95.15Y-108.72
X95.19Y-117.88
X110.86Y-117.63
X110.88Y-108.45
X121.7Y-108.97
X121.81Y-116.59
X124.93Y-70.129
X131.602Y-133.772
X138.122Y-118.702
X140.4Y-106.0
X146.32Y-96.979
X153.37Y-119.8
X153.42Y-109.54
M30
