%TF.GenerationSoftware,KiCad,Pcbnew,9.0.0*%
%TF.CreationDate,2025-03-27T23:54:47+01:00*%
%TF.ProjectId,flexpcb,666c6578-7063-4622-9e6b-696361645f70,rev?*%
%TF.SameCoordinates,Original*%
%TF.FileFunction,Legend,Bot*%
%TF.FilePolarity,Positive*%
%FSLAX46Y46*%
G04 Gerber Fmt 4.6, Leading zero omitted, Abs format (unit mm)*
G04 Created by KiCad (PCBNEW 9.0.0) date 2025-03-27 23:54:47*
%MOMM*%
%LPD*%
G01*
G04 APERTURE LIST*
%ADD10C,0.125000*%
%ADD11C,0.150000*%
%ADD12C,0.120000*%
%ADD13C,0.100000*%
G04 APERTURE END LIST*
D10*
X138341166Y-122615569D02*
X138307833Y-122548902D01*
X138307833Y-122548902D02*
X138307833Y-122448902D01*
X138307833Y-122448902D02*
X138341166Y-122348902D01*
X138341166Y-122348902D02*
X138407833Y-122282236D01*
X138407833Y-122282236D02*
X138474500Y-122248902D01*
X138474500Y-122248902D02*
X138607833Y-122215569D01*
X138607833Y-122215569D02*
X138707833Y-122215569D01*
X138707833Y-122215569D02*
X138841166Y-122248902D01*
X138841166Y-122248902D02*
X138907833Y-122282236D01*
X138907833Y-122282236D02*
X138974500Y-122348902D01*
X138974500Y-122348902D02*
X139007833Y-122448902D01*
X139007833Y-122448902D02*
X139007833Y-122515569D01*
X139007833Y-122515569D02*
X138974500Y-122615569D01*
X138974500Y-122615569D02*
X138941166Y-122648902D01*
X138941166Y-122648902D02*
X138707833Y-122648902D01*
X138707833Y-122648902D02*
X138707833Y-122515569D01*
X139007833Y-122948902D02*
X138307833Y-122948902D01*
X138307833Y-122948902D02*
X138307833Y-123215569D01*
X138307833Y-123215569D02*
X138341166Y-123282236D01*
X138341166Y-123282236D02*
X138374500Y-123315569D01*
X138374500Y-123315569D02*
X138441166Y-123348902D01*
X138441166Y-123348902D02*
X138541166Y-123348902D01*
X138541166Y-123348902D02*
X138607833Y-123315569D01*
X138607833Y-123315569D02*
X138641166Y-123282236D01*
X138641166Y-123282236D02*
X138674500Y-123215569D01*
X138674500Y-123215569D02*
X138674500Y-122948902D01*
X138974500Y-123615569D02*
X139007833Y-123715569D01*
X139007833Y-123715569D02*
X139007833Y-123882236D01*
X139007833Y-123882236D02*
X138974500Y-123948902D01*
X138974500Y-123948902D02*
X138941166Y-123982236D01*
X138941166Y-123982236D02*
X138874500Y-124015569D01*
X138874500Y-124015569D02*
X138807833Y-124015569D01*
X138807833Y-124015569D02*
X138741166Y-123982236D01*
X138741166Y-123982236D02*
X138707833Y-123948902D01*
X138707833Y-123948902D02*
X138674500Y-123882236D01*
X138674500Y-123882236D02*
X138641166Y-123748902D01*
X138641166Y-123748902D02*
X138607833Y-123682236D01*
X138607833Y-123682236D02*
X138574500Y-123648902D01*
X138574500Y-123648902D02*
X138507833Y-123615569D01*
X138507833Y-123615569D02*
X138441166Y-123615569D01*
X138441166Y-123615569D02*
X138374500Y-123648902D01*
X138374500Y-123648902D02*
X138341166Y-123682236D01*
X138341166Y-123682236D02*
X138307833Y-123748902D01*
X138307833Y-123748902D02*
X138307833Y-123915569D01*
X138307833Y-123915569D02*
X138341166Y-124015569D01*
X109251097Y-120141166D02*
X109017764Y-120141166D01*
X108917764Y-120507833D02*
X109251097Y-120507833D01*
X109251097Y-120507833D02*
X109251097Y-119807833D01*
X109251097Y-119807833D02*
X108917764Y-119807833D01*
X108684431Y-119807833D02*
X108217764Y-120507833D01*
X108217764Y-119807833D02*
X108684431Y-120507833D01*
X108051097Y-119807833D02*
X107651097Y-119807833D01*
X107851097Y-120507833D02*
X107851097Y-119807833D01*
X107417764Y-120507833D02*
X107417764Y-119807833D01*
X106951098Y-119807833D02*
X106884431Y-119807833D01*
X106884431Y-119807833D02*
X106817764Y-119841166D01*
X106817764Y-119841166D02*
X106784431Y-119874500D01*
X106784431Y-119874500D02*
X106751098Y-119941166D01*
X106751098Y-119941166D02*
X106717764Y-120074500D01*
X106717764Y-120074500D02*
X106717764Y-120241166D01*
X106717764Y-120241166D02*
X106751098Y-120374500D01*
X106751098Y-120374500D02*
X106784431Y-120441166D01*
X106784431Y-120441166D02*
X106817764Y-120474500D01*
X106817764Y-120474500D02*
X106884431Y-120507833D01*
X106884431Y-120507833D02*
X106951098Y-120507833D01*
X106951098Y-120507833D02*
X107017764Y-120474500D01*
X107017764Y-120474500D02*
X107051098Y-120441166D01*
X107051098Y-120441166D02*
X107084431Y-120374500D01*
X107084431Y-120374500D02*
X107117764Y-120241166D01*
X107117764Y-120241166D02*
X107117764Y-120074500D01*
X107117764Y-120074500D02*
X107084431Y-119941166D01*
X107084431Y-119941166D02*
X107051098Y-119874500D01*
X107051098Y-119874500D02*
X107017764Y-119841166D01*
X107017764Y-119841166D02*
X106951098Y-119807833D01*
X94151097Y-110507833D02*
X94217764Y-110474500D01*
X94217764Y-110474500D02*
X94251097Y-110407833D01*
X94251097Y-110407833D02*
X94251097Y-109807833D01*
X93617763Y-110474500D02*
X93684430Y-110507833D01*
X93684430Y-110507833D02*
X93817763Y-110507833D01*
X93817763Y-110507833D02*
X93884430Y-110474500D01*
X93884430Y-110474500D02*
X93917763Y-110407833D01*
X93917763Y-110407833D02*
X93917763Y-110141166D01*
X93917763Y-110141166D02*
X93884430Y-110074500D01*
X93884430Y-110074500D02*
X93817763Y-110041166D01*
X93817763Y-110041166D02*
X93684430Y-110041166D01*
X93684430Y-110041166D02*
X93617763Y-110074500D01*
X93617763Y-110074500D02*
X93584430Y-110141166D01*
X93584430Y-110141166D02*
X93584430Y-110207833D01*
X93584430Y-110207833D02*
X93917763Y-110274500D01*
X92984430Y-110507833D02*
X92984430Y-109807833D01*
X92984430Y-110474500D02*
X93051097Y-110507833D01*
X93051097Y-110507833D02*
X93184430Y-110507833D01*
X93184430Y-110507833D02*
X93251097Y-110474500D01*
X93251097Y-110474500D02*
X93284430Y-110441166D01*
X93284430Y-110441166D02*
X93317763Y-110374500D01*
X93317763Y-110374500D02*
X93317763Y-110174500D01*
X93317763Y-110174500D02*
X93284430Y-110107833D01*
X93284430Y-110107833D02*
X93251097Y-110074500D01*
X93251097Y-110074500D02*
X93184430Y-110041166D01*
X93184430Y-110041166D02*
X93051097Y-110041166D01*
X93051097Y-110041166D02*
X92984430Y-110074500D01*
X92684430Y-109874500D02*
X92651097Y-109841166D01*
X92651097Y-109841166D02*
X92584430Y-109807833D01*
X92584430Y-109807833D02*
X92417764Y-109807833D01*
X92417764Y-109807833D02*
X92351097Y-109841166D01*
X92351097Y-109841166D02*
X92317764Y-109874500D01*
X92317764Y-109874500D02*
X92284430Y-109941166D01*
X92284430Y-109941166D02*
X92284430Y-110007833D01*
X92284430Y-110007833D02*
X92317764Y-110107833D01*
X92317764Y-110107833D02*
X92717764Y-110507833D01*
X92717764Y-110507833D02*
X92284430Y-110507833D01*
X114251097Y-110307833D02*
X114317764Y-110274500D01*
X114317764Y-110274500D02*
X114351097Y-110207833D01*
X114351097Y-110207833D02*
X114351097Y-109607833D01*
X113717763Y-110274500D02*
X113784430Y-110307833D01*
X113784430Y-110307833D02*
X113917763Y-110307833D01*
X113917763Y-110307833D02*
X113984430Y-110274500D01*
X113984430Y-110274500D02*
X114017763Y-110207833D01*
X114017763Y-110207833D02*
X114017763Y-109941166D01*
X114017763Y-109941166D02*
X113984430Y-109874500D01*
X113984430Y-109874500D02*
X113917763Y-109841166D01*
X113917763Y-109841166D02*
X113784430Y-109841166D01*
X113784430Y-109841166D02*
X113717763Y-109874500D01*
X113717763Y-109874500D02*
X113684430Y-109941166D01*
X113684430Y-109941166D02*
X113684430Y-110007833D01*
X113684430Y-110007833D02*
X114017763Y-110074500D01*
X113084430Y-110307833D02*
X113084430Y-109607833D01*
X113084430Y-110274500D02*
X113151097Y-110307833D01*
X113151097Y-110307833D02*
X113284430Y-110307833D01*
X113284430Y-110307833D02*
X113351097Y-110274500D01*
X113351097Y-110274500D02*
X113384430Y-110241166D01*
X113384430Y-110241166D02*
X113417763Y-110174500D01*
X113417763Y-110174500D02*
X113417763Y-109974500D01*
X113417763Y-109974500D02*
X113384430Y-109907833D01*
X113384430Y-109907833D02*
X113351097Y-109874500D01*
X113351097Y-109874500D02*
X113284430Y-109841166D01*
X113284430Y-109841166D02*
X113151097Y-109841166D01*
X113151097Y-109841166D02*
X113084430Y-109874500D01*
X112384430Y-110307833D02*
X112784430Y-110307833D01*
X112584430Y-110307833D02*
X112584430Y-109607833D01*
X112584430Y-109607833D02*
X112651097Y-109707833D01*
X112651097Y-109707833D02*
X112717764Y-109774500D01*
X112717764Y-109774500D02*
X112784430Y-109807833D01*
X120251097Y-116641166D02*
X119717764Y-116641166D01*
X119984430Y-116907833D02*
X119984430Y-116374500D01*
X119451097Y-116207833D02*
X119017763Y-116207833D01*
X119017763Y-116207833D02*
X119251097Y-116474500D01*
X119251097Y-116474500D02*
X119151097Y-116474500D01*
X119151097Y-116474500D02*
X119084430Y-116507833D01*
X119084430Y-116507833D02*
X119051097Y-116541166D01*
X119051097Y-116541166D02*
X119017763Y-116607833D01*
X119017763Y-116607833D02*
X119017763Y-116774500D01*
X119017763Y-116774500D02*
X119051097Y-116841166D01*
X119051097Y-116841166D02*
X119084430Y-116874500D01*
X119084430Y-116874500D02*
X119151097Y-116907833D01*
X119151097Y-116907833D02*
X119351097Y-116907833D01*
X119351097Y-116907833D02*
X119417763Y-116874500D01*
X119417763Y-116874500D02*
X119451097Y-116841166D01*
X118717763Y-116841166D02*
X118684430Y-116874500D01*
X118684430Y-116874500D02*
X118717763Y-116907833D01*
X118717763Y-116907833D02*
X118751096Y-116874500D01*
X118751096Y-116874500D02*
X118717763Y-116841166D01*
X118717763Y-116841166D02*
X118717763Y-116907833D01*
X118451097Y-116207833D02*
X118017763Y-116207833D01*
X118017763Y-116207833D02*
X118251097Y-116474500D01*
X118251097Y-116474500D02*
X118151097Y-116474500D01*
X118151097Y-116474500D02*
X118084430Y-116507833D01*
X118084430Y-116507833D02*
X118051097Y-116541166D01*
X118051097Y-116541166D02*
X118017763Y-116607833D01*
X118017763Y-116607833D02*
X118017763Y-116774500D01*
X118017763Y-116774500D02*
X118051097Y-116841166D01*
X118051097Y-116841166D02*
X118084430Y-116874500D01*
X118084430Y-116874500D02*
X118151097Y-116907833D01*
X118151097Y-116907833D02*
X118351097Y-116907833D01*
X118351097Y-116907833D02*
X118417763Y-116874500D01*
X118417763Y-116874500D02*
X118451097Y-116841166D01*
X117784430Y-116441166D02*
X117617763Y-116907833D01*
X117617763Y-116907833D02*
X117451096Y-116441166D01*
X119751097Y-108441166D02*
X119751097Y-109007833D01*
X119751097Y-109007833D02*
X119784430Y-109074500D01*
X119784430Y-109074500D02*
X119817764Y-109107833D01*
X119817764Y-109107833D02*
X119884430Y-109141166D01*
X119884430Y-109141166D02*
X119984430Y-109141166D01*
X119984430Y-109141166D02*
X120051097Y-109107833D01*
X119751097Y-108874500D02*
X119817764Y-108907833D01*
X119817764Y-108907833D02*
X119951097Y-108907833D01*
X119951097Y-108907833D02*
X120017764Y-108874500D01*
X120017764Y-108874500D02*
X120051097Y-108841166D01*
X120051097Y-108841166D02*
X120084430Y-108774500D01*
X120084430Y-108774500D02*
X120084430Y-108574500D01*
X120084430Y-108574500D02*
X120051097Y-108507833D01*
X120051097Y-108507833D02*
X120017764Y-108474500D01*
X120017764Y-108474500D02*
X119951097Y-108441166D01*
X119951097Y-108441166D02*
X119817764Y-108441166D01*
X119817764Y-108441166D02*
X119751097Y-108474500D01*
X119417764Y-108441166D02*
X119417764Y-108907833D01*
X119417764Y-108507833D02*
X119384431Y-108474500D01*
X119384431Y-108474500D02*
X119317764Y-108441166D01*
X119317764Y-108441166D02*
X119217764Y-108441166D01*
X119217764Y-108441166D02*
X119151097Y-108474500D01*
X119151097Y-108474500D02*
X119117764Y-108541166D01*
X119117764Y-108541166D02*
X119117764Y-108907833D01*
X118484431Y-108907833D02*
X118484431Y-108207833D01*
X118484431Y-108874500D02*
X118551098Y-108907833D01*
X118551098Y-108907833D02*
X118684431Y-108907833D01*
X118684431Y-108907833D02*
X118751098Y-108874500D01*
X118751098Y-108874500D02*
X118784431Y-108841166D01*
X118784431Y-108841166D02*
X118817764Y-108774500D01*
X118817764Y-108774500D02*
X118817764Y-108574500D01*
X118817764Y-108574500D02*
X118784431Y-108507833D01*
X118784431Y-108507833D02*
X118751098Y-108474500D01*
X118751098Y-108474500D02*
X118684431Y-108441166D01*
X118684431Y-108441166D02*
X118551098Y-108441166D01*
X118551098Y-108441166D02*
X118484431Y-108474500D01*
X122951097Y-110974500D02*
X123017764Y-111007833D01*
X123017764Y-111007833D02*
X123151097Y-111007833D01*
X123151097Y-111007833D02*
X123217764Y-110974500D01*
X123217764Y-110974500D02*
X123251097Y-110941166D01*
X123251097Y-110941166D02*
X123284430Y-110874500D01*
X123284430Y-110874500D02*
X123284430Y-110674500D01*
X123284430Y-110674500D02*
X123251097Y-110607833D01*
X123251097Y-110607833D02*
X123217764Y-110574500D01*
X123217764Y-110574500D02*
X123151097Y-110541166D01*
X123151097Y-110541166D02*
X123017764Y-110541166D01*
X123017764Y-110541166D02*
X122951097Y-110574500D01*
X122551097Y-111007833D02*
X122617764Y-110974500D01*
X122617764Y-110974500D02*
X122651097Y-110907833D01*
X122651097Y-110907833D02*
X122651097Y-110307833D01*
X122284430Y-111007833D02*
X122284430Y-110307833D01*
X122217763Y-110741166D02*
X122017763Y-111007833D01*
X122017763Y-110541166D02*
X122284430Y-110807833D01*
X120951097Y-111007833D02*
X120951097Y-110307833D01*
X120951097Y-110974500D02*
X121017764Y-111007833D01*
X121017764Y-111007833D02*
X121151097Y-111007833D01*
X121151097Y-111007833D02*
X121217764Y-110974500D01*
X121217764Y-110974500D02*
X121251097Y-110941166D01*
X121251097Y-110941166D02*
X121284430Y-110874500D01*
X121284430Y-110874500D02*
X121284430Y-110674500D01*
X121284430Y-110674500D02*
X121251097Y-110607833D01*
X121251097Y-110607833D02*
X121217764Y-110574500D01*
X121217764Y-110574500D02*
X121151097Y-110541166D01*
X121151097Y-110541166D02*
X121017764Y-110541166D01*
X121017764Y-110541166D02*
X120951097Y-110574500D01*
X120617764Y-111007833D02*
X120617764Y-110541166D01*
X120617764Y-110307833D02*
X120651097Y-110341166D01*
X120651097Y-110341166D02*
X120617764Y-110374500D01*
X120617764Y-110374500D02*
X120584431Y-110341166D01*
X120584431Y-110341166D02*
X120617764Y-110307833D01*
X120617764Y-110307833D02*
X120617764Y-110374500D01*
X120184431Y-111007833D02*
X120251098Y-110974500D01*
X120251098Y-110974500D02*
X120284431Y-110941166D01*
X120284431Y-110941166D02*
X120317764Y-110874500D01*
X120317764Y-110874500D02*
X120317764Y-110674500D01*
X120317764Y-110674500D02*
X120284431Y-110607833D01*
X120284431Y-110607833D02*
X120251098Y-110574500D01*
X120251098Y-110574500D02*
X120184431Y-110541166D01*
X120184431Y-110541166D02*
X120084431Y-110541166D01*
X120084431Y-110541166D02*
X120017764Y-110574500D01*
X120017764Y-110574500D02*
X119984431Y-110607833D01*
X119984431Y-110607833D02*
X119951098Y-110674500D01*
X119951098Y-110674500D02*
X119951098Y-110874500D01*
X119951098Y-110874500D02*
X119984431Y-110941166D01*
X119984431Y-110941166D02*
X120017764Y-110974500D01*
X120017764Y-110974500D02*
X120084431Y-111007833D01*
X120084431Y-111007833D02*
X120184431Y-111007833D01*
X139051097Y-111807833D02*
X139051097Y-111107833D01*
X139051097Y-111374500D02*
X138984430Y-111341166D01*
X138984430Y-111341166D02*
X138851097Y-111341166D01*
X138851097Y-111341166D02*
X138784430Y-111374500D01*
X138784430Y-111374500D02*
X138751097Y-111407833D01*
X138751097Y-111407833D02*
X138717764Y-111474500D01*
X138717764Y-111474500D02*
X138717764Y-111674500D01*
X138717764Y-111674500D02*
X138751097Y-111741166D01*
X138751097Y-111741166D02*
X138784430Y-111774500D01*
X138784430Y-111774500D02*
X138851097Y-111807833D01*
X138851097Y-111807833D02*
X138984430Y-111807833D01*
X138984430Y-111807833D02*
X139051097Y-111774500D01*
X138417764Y-111807833D02*
X138417764Y-111341166D01*
X138417764Y-111407833D02*
X138384431Y-111374500D01*
X138384431Y-111374500D02*
X138317764Y-111341166D01*
X138317764Y-111341166D02*
X138217764Y-111341166D01*
X138217764Y-111341166D02*
X138151097Y-111374500D01*
X138151097Y-111374500D02*
X138117764Y-111441166D01*
X138117764Y-111441166D02*
X138117764Y-111807833D01*
X138117764Y-111441166D02*
X138084431Y-111374500D01*
X138084431Y-111374500D02*
X138017764Y-111341166D01*
X138017764Y-111341166D02*
X137917764Y-111341166D01*
X137917764Y-111341166D02*
X137851097Y-111374500D01*
X137851097Y-111374500D02*
X137817764Y-111441166D01*
X137817764Y-111441166D02*
X137817764Y-111807833D01*
X137484431Y-111341166D02*
X137484431Y-112041166D01*
X137484431Y-111374500D02*
X137417764Y-111341166D01*
X137417764Y-111341166D02*
X137284431Y-111341166D01*
X137284431Y-111341166D02*
X137217764Y-111374500D01*
X137217764Y-111374500D02*
X137184431Y-111407833D01*
X137184431Y-111407833D02*
X137151098Y-111474500D01*
X137151098Y-111474500D02*
X137151098Y-111674500D01*
X137151098Y-111674500D02*
X137184431Y-111741166D01*
X137184431Y-111741166D02*
X137217764Y-111774500D01*
X137217764Y-111774500D02*
X137284431Y-111807833D01*
X137284431Y-111807833D02*
X137417764Y-111807833D01*
X137417764Y-111807833D02*
X137484431Y-111774500D01*
X136517765Y-111107833D02*
X136851098Y-111107833D01*
X136851098Y-111107833D02*
X136884431Y-111441166D01*
X136884431Y-111441166D02*
X136851098Y-111407833D01*
X136851098Y-111407833D02*
X136784431Y-111374500D01*
X136784431Y-111374500D02*
X136617765Y-111374500D01*
X136617765Y-111374500D02*
X136551098Y-111407833D01*
X136551098Y-111407833D02*
X136517765Y-111441166D01*
X136517765Y-111441166D02*
X136484431Y-111507833D01*
X136484431Y-111507833D02*
X136484431Y-111674500D01*
X136484431Y-111674500D02*
X136517765Y-111741166D01*
X136517765Y-111741166D02*
X136551098Y-111774500D01*
X136551098Y-111774500D02*
X136617765Y-111807833D01*
X136617765Y-111807833D02*
X136784431Y-111807833D01*
X136784431Y-111807833D02*
X136851098Y-111774500D01*
X136851098Y-111774500D02*
X136884431Y-111741166D01*
X136084431Y-111407833D02*
X136151098Y-111374500D01*
X136151098Y-111374500D02*
X136184431Y-111341166D01*
X136184431Y-111341166D02*
X136217764Y-111274500D01*
X136217764Y-111274500D02*
X136217764Y-111241166D01*
X136217764Y-111241166D02*
X136184431Y-111174500D01*
X136184431Y-111174500D02*
X136151098Y-111141166D01*
X136151098Y-111141166D02*
X136084431Y-111107833D01*
X136084431Y-111107833D02*
X135951098Y-111107833D01*
X135951098Y-111107833D02*
X135884431Y-111141166D01*
X135884431Y-111141166D02*
X135851098Y-111174500D01*
X135851098Y-111174500D02*
X135817764Y-111241166D01*
X135817764Y-111241166D02*
X135817764Y-111274500D01*
X135817764Y-111274500D02*
X135851098Y-111341166D01*
X135851098Y-111341166D02*
X135884431Y-111374500D01*
X135884431Y-111374500D02*
X135951098Y-111407833D01*
X135951098Y-111407833D02*
X136084431Y-111407833D01*
X136084431Y-111407833D02*
X136151098Y-111441166D01*
X136151098Y-111441166D02*
X136184431Y-111474500D01*
X136184431Y-111474500D02*
X136217764Y-111541166D01*
X136217764Y-111541166D02*
X136217764Y-111674500D01*
X136217764Y-111674500D02*
X136184431Y-111741166D01*
X136184431Y-111741166D02*
X136151098Y-111774500D01*
X136151098Y-111774500D02*
X136084431Y-111807833D01*
X136084431Y-111807833D02*
X135951098Y-111807833D01*
X135951098Y-111807833D02*
X135884431Y-111774500D01*
X135884431Y-111774500D02*
X135851098Y-111741166D01*
X135851098Y-111741166D02*
X135817764Y-111674500D01*
X135817764Y-111674500D02*
X135817764Y-111541166D01*
X135817764Y-111541166D02*
X135851098Y-111474500D01*
X135851098Y-111474500D02*
X135884431Y-111441166D01*
X135884431Y-111441166D02*
X135951098Y-111407833D01*
X135151097Y-111807833D02*
X135551097Y-111807833D01*
X135351097Y-111807833D02*
X135351097Y-111107833D01*
X135351097Y-111107833D02*
X135417764Y-111207833D01*
X135417764Y-111207833D02*
X135484431Y-111274500D01*
X135484431Y-111274500D02*
X135551097Y-111307833D01*
D11*
X126083866Y-83746943D02*
X126036247Y-83794562D01*
X126036247Y-83794562D02*
X125988628Y-83889800D01*
X125988628Y-83889800D02*
X126083866Y-84080276D01*
X126083866Y-84080276D02*
X126036247Y-84175514D01*
X126036247Y-84175514D02*
X125988628Y-84223133D01*
D12*
%TO.C,R25*%
X140762379Y-108640000D02*
X141097621Y-108640000D01*
X140762379Y-109400000D02*
X141097621Y-109400000D01*
%TO.C,R8*%
X137430000Y-128513641D02*
X137430000Y-128206359D01*
X138190000Y-128513641D02*
X138190000Y-128206359D01*
%TO.C,C4*%
X127330000Y-120832164D02*
X127330000Y-121047836D01*
X128050000Y-120832164D02*
X128050000Y-121047836D01*
%TO.C,C5*%
X125090000Y-126545835D02*
X125090000Y-126314165D01*
X125810000Y-126545835D02*
X125810000Y-126314165D01*
%TO.C,R5*%
X125710000Y-78542489D02*
X125710000Y-78235207D01*
X126470000Y-78542489D02*
X126470000Y-78235207D01*
%TO.C,PA1010D1*%
D13*
X135650000Y-132160000D02*
X127650000Y-132160000D01*
X127650000Y-122160000D01*
X135650000Y-122160000D01*
X135650000Y-132160000D01*
D11*
X132650000Y-126660000D02*
G75*
G02*
X130650000Y-126660000I-1000000J0D01*
G01*
X130650000Y-126660000D02*
G75*
G02*
X132650000Y-126660000I1000000J0D01*
G01*
D12*
%TO.C,U2*%
X151795000Y-115800000D02*
X152785000Y-115800000D01*
X152785000Y-112630000D02*
X153935000Y-112630000D01*
X152785000Y-113680000D02*
X152785000Y-112630000D01*
X152785000Y-115800000D02*
X152785000Y-116850000D01*
X152785000Y-116850000D02*
X153935000Y-116850000D01*
X155905000Y-113800000D02*
X155905000Y-115680000D01*
%TO.C,R14*%
X133244879Y-109670000D02*
X133580121Y-109670000D01*
X133244879Y-110430000D02*
X133580121Y-110430000D01*
%TO.C,C31*%
X133558335Y-107620000D02*
X133326665Y-107620000D01*
X133558335Y-108340000D02*
X133326665Y-108340000D01*
%TO.C,C1*%
X145690000Y-73256252D02*
X145690000Y-71833748D01*
X147510000Y-73256252D02*
X147510000Y-71833748D01*
%TO.C,R13*%
X133254879Y-108610000D02*
X133590121Y-108610000D01*
X133254879Y-109370000D02*
X133590121Y-109370000D01*
%TO.C,R2*%
X138893641Y-97138848D02*
X138586359Y-97138848D01*
X138893641Y-97898848D02*
X138586359Y-97898848D01*
%TO.C,C7*%
X94167836Y-115500000D02*
X93952164Y-115500000D01*
X94167836Y-116220000D02*
X93952164Y-116220000D01*
%TO.C,U1*%
X115375000Y-115730000D02*
X115375000Y-109850000D01*
X118495000Y-108680000D02*
X117345000Y-108680000D01*
X118495000Y-109730000D02*
X118495000Y-108680000D01*
X118495000Y-115850000D02*
X118495000Y-116900000D01*
X118495000Y-116900000D02*
X117345000Y-116900000D01*
X119485000Y-109730000D02*
X118495000Y-109730000D01*
%TO.C,R7*%
X138450000Y-128523641D02*
X138450000Y-128216359D01*
X139210000Y-128523641D02*
X139210000Y-128216359D01*
%TO.C,R26*%
X140762379Y-107610000D02*
X141097621Y-107610000D01*
X140762379Y-108370000D02*
X141097621Y-108370000D01*
D13*
%TO.C,U3*%
X135450000Y-109785000D02*
X135450000Y-109785000D01*
X135550000Y-109785000D02*
X135550000Y-109785000D01*
X135450000Y-109785000D02*
G75*
G02*
X135550000Y-109785000I50000J0D01*
G01*
X135550000Y-109785000D02*
G75*
G02*
X135450000Y-109785000I-50000J0D01*
G01*
D12*
%TO.C,R27*%
X141097621Y-110720000D02*
X140762379Y-110720000D01*
X141097621Y-111480000D02*
X140762379Y-111480000D01*
%TO.C,D2*%
X123765000Y-76736348D02*
X123765000Y-79021348D01*
X125235000Y-76736348D02*
X123765000Y-76736348D01*
X125235000Y-79021348D02*
X125235000Y-76736348D01*
%TO.C,R23*%
X141097621Y-109670000D02*
X140762379Y-109670000D01*
X141097621Y-110430000D02*
X140762379Y-110430000D01*
%TO.C,SW2*%
X96850000Y-108440000D02*
X96850000Y-117640000D01*
X96850000Y-117640000D02*
X98400000Y-119240000D01*
X98400000Y-106840000D02*
X96850000Y-108440000D01*
X98400000Y-106840000D02*
X99550000Y-106840000D01*
X98400000Y-119240000D02*
X99550000Y-119240000D01*
X101450000Y-106840000D02*
X104550000Y-106840000D01*
X101450000Y-119240000D02*
X104550000Y-119240000D01*
X107600000Y-106840000D02*
X106450000Y-106840000D01*
X107600000Y-106840000D02*
X109150000Y-108440000D01*
X107600000Y-119240000D02*
X106450000Y-119240000D01*
X109150000Y-108440000D02*
X109150000Y-117640000D01*
X109150000Y-117640000D02*
X107600000Y-119240000D01*
%TO.C,C23*%
X133508335Y-110720000D02*
X133276665Y-110720000D01*
X133508335Y-111440000D02*
X133276665Y-111440000D01*
D13*
%TO.C,LED1*%
X111250000Y-114670000D02*
X111250000Y-114670000D01*
X111250000Y-114770000D02*
X111250000Y-114770000D01*
X111250000Y-114670000D02*
G75*
G02*
X111250000Y-114770000I0J-50000D01*
G01*
X111250000Y-114770000D02*
G75*
G02*
X111250000Y-114670000I0J50000D01*
G01*
D12*
%TO.C,D1*%
X123705000Y-74108848D02*
X123705000Y-76393848D01*
X123705000Y-76393848D02*
X125175000Y-76393848D01*
X125175000Y-76393848D02*
X125175000Y-74108848D01*
%TO.C,J2*%
X129080000Y-117345000D02*
X129080000Y-119845000D01*
X129080000Y-119845000D02*
X130130000Y-119845000D01*
X130130000Y-119845000D02*
X130130000Y-120835000D01*
X130250000Y-115375000D02*
X134130000Y-115375000D01*
X135300000Y-117345000D02*
X135300000Y-119845000D01*
X135300000Y-119845000D02*
X134250000Y-119845000D01*
%TO.C,C3*%
X126360000Y-120822164D02*
X126360000Y-121037836D01*
X127080000Y-120822164D02*
X127080000Y-121037836D01*
%TO.C,R1*%
X139693641Y-96138848D02*
X139386359Y-96138848D01*
X139693641Y-96898848D02*
X139386359Y-96898848D01*
D13*
%TO.C,LED2*%
X92190000Y-112140000D02*
X92190000Y-112140000D01*
X92290000Y-112140000D02*
X92290000Y-112140000D01*
X92190000Y-112140000D02*
G75*
G02*
X92290000Y-112140000I50000J0D01*
G01*
X92290000Y-112140000D02*
G75*
G02*
X92190000Y-112140000I-50000J0D01*
G01*
D12*
%TO.C,C2*%
X125640000Y-89161012D02*
X125640000Y-89376684D01*
X126360000Y-89161012D02*
X126360000Y-89376684D01*
%TO.C,R6*%
X125560000Y-93445207D02*
X125560000Y-93752489D01*
X126320000Y-93445207D02*
X126320000Y-93752489D01*
%TO.C,R4*%
X125630000Y-75155207D02*
X125630000Y-75462489D01*
X126390000Y-75155207D02*
X126390000Y-75462489D01*
%TO.C,R3*%
X143823641Y-95568848D02*
X143516359Y-95568848D01*
X143823641Y-96328848D02*
X143516359Y-96328848D01*
%TO.C,C6*%
X112590000Y-116327836D02*
X112590000Y-116112164D01*
X113310000Y-116327836D02*
X113310000Y-116112164D01*
%TD*%
M02*
