%TF.GenerationSoftware,KiCad,Pcbnew,9.0.0*%
%TF.CreationDate,2025-03-27T23:54:47+01:00*%
%TF.ProjectId,flexpcb,666c6578-7063-4622-9e6b-696361645f70,rev?*%
%TF.SameCoordinates,Original*%
%TF.FileFunction,Copper,L2,Bot*%
%TF.FilePolarity,Positive*%
%FSLAX46Y46*%
G04 Gerber Fmt 4.6, Leading zero omitted, Abs format (unit mm)*
G04 Created by KiCad (PCBNEW 9.0.0) date 2025-03-27 23:54:47*
%MOMM*%
%LPD*%
G01*
G04 APERTURE LIST*
G04 Aperture macros list*
%AMRoundRect*
0 Rectangle with rounded corners*
0 $1 Rounding radius*
0 $2 $3 $4 $5 $6 $7 $8 $9 X,Y pos of 4 corners*
0 Add a 4 corners polygon primitive as box body*
4,1,4,$2,$3,$4,$5,$6,$7,$8,$9,$2,$3,0*
0 Add four circle primitives for the rounded corners*
1,1,$1+$1,$2,$3*
1,1,$1+$1,$4,$5*
1,1,$1+$1,$6,$7*
1,1,$1+$1,$8,$9*
0 Add four rect primitives between the rounded corners*
20,1,$1+$1,$2,$3,$4,$5,0*
20,1,$1+$1,$4,$5,$6,$7,0*
20,1,$1+$1,$6,$7,$8,$9,0*
20,1,$1+$1,$8,$9,$2,$3,0*%
G04 Aperture macros list end*
%TA.AperFunction,SMDPad,CuDef*%
%ADD10R,2.000000X1.000000*%
%TD*%
%TA.AperFunction,SMDPad,CuDef*%
%ADD11R,1.000000X2.000000*%
%TD*%
%TA.AperFunction,ComponentPad*%
%ADD12R,1.000000X1.000000*%
%TD*%
%TA.AperFunction,ComponentPad*%
%ADD13C,2.200000*%
%TD*%
%TA.AperFunction,ComponentPad*%
%ADD14RoundRect,0.225000X-0.525000X-0.525000X0.525000X-0.525000X0.525000X0.525000X-0.525000X0.525000X0*%
%TD*%
%TA.AperFunction,ComponentPad*%
%ADD15R,0.850000X0.850000*%
%TD*%
%TA.AperFunction,ComponentPad*%
%ADD16O,0.850000X0.850000*%
%TD*%
%TA.AperFunction,SMDPad,CuDef*%
%ADD17RoundRect,0.160000X-0.197500X-0.160000X0.197500X-0.160000X0.197500X0.160000X-0.197500X0.160000X0*%
%TD*%
%TA.AperFunction,SMDPad,CuDef*%
%ADD18RoundRect,0.135000X-0.185000X0.135000X-0.185000X-0.135000X0.185000X-0.135000X0.185000X0.135000X0*%
%TD*%
%TA.AperFunction,SMDPad,CuDef*%
%ADD19RoundRect,0.140000X0.170000X-0.140000X0.170000X0.140000X-0.170000X0.140000X-0.170000X-0.140000X0*%
%TD*%
%TA.AperFunction,SMDPad,CuDef*%
%ADD20RoundRect,0.155000X-0.155000X0.212500X-0.155000X-0.212500X0.155000X-0.212500X0.155000X0.212500X0*%
%TD*%
%TA.AperFunction,SMDPad,CuDef*%
%ADD21R,1.200000X0.800000*%
%TD*%
%TA.AperFunction,SMDPad,CuDef*%
%ADD22RoundRect,0.150000X0.625000X-0.150000X0.625000X0.150000X-0.625000X0.150000X-0.625000X-0.150000X0*%
%TD*%
%TA.AperFunction,SMDPad,CuDef*%
%ADD23RoundRect,0.250000X0.650000X-0.350000X0.650000X0.350000X-0.650000X0.350000X-0.650000X-0.350000X0*%
%TD*%
%TA.AperFunction,SMDPad,CuDef*%
%ADD24RoundRect,0.155000X0.212500X0.155000X-0.212500X0.155000X-0.212500X-0.155000X0.212500X-0.155000X0*%
%TD*%
%TA.AperFunction,SMDPad,CuDef*%
%ADD25RoundRect,0.250000X0.650000X-0.325000X0.650000X0.325000X-0.650000X0.325000X-0.650000X-0.325000X0*%
%TD*%
%TA.AperFunction,SMDPad,CuDef*%
%ADD26RoundRect,0.135000X-0.135000X-0.185000X0.135000X-0.185000X0.135000X0.185000X-0.135000X0.185000X0*%
%TD*%
%TA.AperFunction,SMDPad,CuDef*%
%ADD27RoundRect,0.140000X-0.140000X-0.170000X0.140000X-0.170000X0.140000X0.170000X-0.140000X0.170000X0*%
%TD*%
%TA.AperFunction,SMDPad,CuDef*%
%ADD28RoundRect,0.150000X-0.625000X0.150000X-0.625000X-0.150000X0.625000X-0.150000X0.625000X0.150000X0*%
%TD*%
%TA.AperFunction,SMDPad,CuDef*%
%ADD29RoundRect,0.250000X-0.650000X0.350000X-0.650000X-0.350000X0.650000X-0.350000X0.650000X0.350000X0*%
%TD*%
%TA.AperFunction,SMDPad,CuDef*%
%ADD30R,0.325000X0.300000*%
%TD*%
%TA.AperFunction,SMDPad,CuDef*%
%ADD31R,0.300000X0.325000*%
%TD*%
%TA.AperFunction,SMDPad,CuDef*%
%ADD32RoundRect,0.160000X0.197500X0.160000X-0.197500X0.160000X-0.197500X-0.160000X0.197500X-0.160000X0*%
%TD*%
%TA.AperFunction,SMDPad,CuDef*%
%ADD33RoundRect,0.218750X-0.256250X0.218750X-0.256250X-0.218750X0.256250X-0.218750X0.256250X0.218750X0*%
%TD*%
%TA.AperFunction,SMDPad,CuDef*%
%ADD34R,1.500000X2.000000*%
%TD*%
%TA.AperFunction,SMDPad,CuDef*%
%ADD35R,0.900000X0.900000*%
%TD*%
%TA.AperFunction,SMDPad,CuDef*%
%ADD36RoundRect,0.218750X0.256250X-0.218750X0.256250X0.218750X-0.256250X0.218750X-0.256250X-0.218750X0*%
%TD*%
%TA.AperFunction,SMDPad,CuDef*%
%ADD37RoundRect,0.150000X-0.150000X-0.625000X0.150000X-0.625000X0.150000X0.625000X-0.150000X0.625000X0*%
%TD*%
%TA.AperFunction,SMDPad,CuDef*%
%ADD38RoundRect,0.250000X-0.350000X-0.650000X0.350000X-0.650000X0.350000X0.650000X-0.350000X0.650000X0*%
%TD*%
%TA.AperFunction,SMDPad,CuDef*%
%ADD39RoundRect,0.135000X0.185000X-0.135000X0.185000X0.135000X-0.185000X0.135000X-0.185000X-0.135000X0*%
%TD*%
%TA.AperFunction,SMDPad,CuDef*%
%ADD40RoundRect,0.140000X-0.170000X0.140000X-0.170000X-0.140000X0.170000X-0.140000X0.170000X0.140000X0*%
%TD*%
%TA.AperFunction,ViaPad*%
%ADD41C,0.400000*%
%TD*%
%TA.AperFunction,Conductor*%
%ADD42C,0.300000*%
%TD*%
%TA.AperFunction,Conductor*%
%ADD43C,0.200000*%
%TD*%
%TA.AperFunction,Conductor*%
%ADD44C,0.150000*%
%TD*%
G04 APERTURE END LIST*
D10*
%TO.P,Tarvos1,1,ANT*%
%TO.N,unconnected-(Tarvos1-ANT-Pad1)*%
X143810000Y-69958848D03*
%TO.P,Tarvos1,2,GND*%
%TO.N,GND*%
X143830000Y-71948848D03*
%TO.P,Tarvos1,3,VCC*%
%TO.N,+3.3V*%
X143830000Y-73938848D03*
%TO.P,Tarvos1,4,UTXD*%
%TO.N,Net-(Tarvos1-UTXD)*%
X143840000Y-75938848D03*
%TO.P,Tarvos1,5,URXD*%
%TO.N,Net-(Tarvos1-URXD)*%
X143840000Y-77928848D03*
%TO.P,Tarvos1,6,/RTS*%
%TO.N,unconnected-(Tarvos1-{slash}RTS-Pad6)*%
X143830000Y-79918848D03*
%TO.P,Tarvos1,7,RSV*%
%TO.N,unconnected-(Tarvos1-RSV-Pad7)*%
X143820000Y-83908848D03*
%TO.P,Tarvos1,8,RSV*%
%TO.N,unconnected-(Tarvos1-RSV-Pad8)*%
X143820000Y-85908848D03*
%TO.P,Tarvos1,9,RSV*%
%TO.N,unconnected-(Tarvos1-RSV-Pad9)*%
X143820000Y-87898848D03*
%TO.P,Tarvos1,10,RSV*%
%TO.N,unconnected-(Tarvos1-RSV-Pad10)*%
X143830000Y-89868848D03*
%TO.P,Tarvos1,11,RSV*%
%TO.N,unconnected-(Tarvos1-RSV-Pad11)*%
X143810000Y-91888848D03*
%TO.P,Tarvos1,12,BOOT*%
%TO.N,Net-(Tarvos1-BOOT)*%
X143810000Y-93868848D03*
%TO.P,Tarvos1,13,RSV*%
%TO.N,unconnected-(Tarvos1-RSV-Pad13)*%
X127900000Y-93868848D03*
%TO.P,Tarvos1,14,WAKE-UP*%
%TO.N,GND*%
X127880000Y-91878848D03*
%TO.P,Tarvos1,15,MODE_1*%
%TO.N,Net-(Tarvos1-MODE_1)*%
X127870000Y-89888848D03*
%TO.P,Tarvos1,16,RSV*%
%TO.N,unconnected-(Tarvos1-RSV-Pad16)*%
X127880000Y-87888848D03*
%TO.P,Tarvos1,17,RSV*%
%TO.N,unconnected-(Tarvos1-RSV-Pad17)*%
X127890000Y-85898848D03*
%TO.P,Tarvos1,18,RSV*%
%TO.N,unconnected-(Tarvos1-RSV-Pad18)*%
X127880000Y-83918848D03*
%TO.P,Tarvos1,19,/RESET*%
%TO.N,unconnected-(Tarvos1-{slash}RESET-Pad19)*%
X127880000Y-79918848D03*
%TO.P,Tarvos1,20,RX_IND*%
%TO.N,Net-(Tarvos1-RX_IND)*%
X127890000Y-77928848D03*
%TO.P,Tarvos1,21,TX_IND*%
%TO.N,Net-(Tarvos1-TX_IND)*%
X127890000Y-75928848D03*
%TO.P,Tarvos1,22,RSV*%
%TO.N,unconnected-(Tarvos1-RSV-Pad22)*%
X127910000Y-73938848D03*
%TO.P,Tarvos1,23,GND*%
%TO.N,GND*%
X127900000Y-71938848D03*
D11*
%TO.P,Tarvos1,i1,TEST*%
%TO.N,unconnected-(Tarvos1-TEST-Padi1)*%
X138850000Y-94838848D03*
%TO.P,Tarvos1,i2,TEST*%
%TO.N,unconnected-(Tarvos1-TEST-Padi2)*%
X136820000Y-94838848D03*
%TO.P,Tarvos1,i3,TEST*%
%TO.N,unconnected-(Tarvos1-TEST-Padi3)*%
X134840000Y-94838848D03*
%TO.P,Tarvos1,i4,TEST*%
%TO.N,unconnected-(Tarvos1-TEST-Padi4)*%
X132880000Y-94858848D03*
%TD*%
D12*
%TO.P,,1*%
%TO.N,GND*%
X133500000Y-106700000D03*
%TD*%
%TO.P,,1*%
%TO.N,I2C1_SCL*%
X135100000Y-106700000D03*
%TD*%
%TO.P,,1*%
%TO.N,I2C1_SDA*%
X136700000Y-106700000D03*
%TD*%
%TO.P,,1*%
%TO.N,+3.3V*%
X138300000Y-106700000D03*
%TD*%
D13*
%TO.P,,1*%
%TO.N,GND*%
X140400000Y-106000000D03*
%TD*%
D12*
%TO.P,,1*%
%TO.N,exti1*%
X150800000Y-116400000D03*
%TD*%
%TO.P,,1*%
%TO.N,+3.3V*%
X150800000Y-113100000D03*
%TD*%
D14*
%TO.P,REF\u002A\u002A,1*%
%TO.N,+3.3V*%
X124500000Y-115900000D03*
%TD*%
D12*
%TO.P,REF\u002A\u002A5,1*%
%TO.N,EXTI0*%
X122770000Y-113840000D03*
%TD*%
%TO.P,REF\u002A\u002A4,1*%
%TO.N,exti3{slash}pwmled*%
X120770000Y-113840000D03*
%TD*%
%TO.P,REF\u002A\u002A3,1*%
%TO.N,swo*%
X124770000Y-111840000D03*
%TD*%
%TO.P,REF\u002A\u002A2,1*%
%TO.N,swclk*%
X122770000Y-111840000D03*
%TD*%
%TO.P,REF\u002A\u002A1,1*%
%TO.N,swdio*%
X120770000Y-111840000D03*
%TD*%
%TO.P,REF\u002A\u002A,1*%
%TO.N,nrst*%
X124770000Y-113840000D03*
%TD*%
D14*
%TO.P,REF\u002A\u002A,1*%
%TO.N,GND*%
X124500000Y-109800000D03*
%TD*%
D13*
%TO.P,,1*%
%TO.N,GND*%
X121810000Y-116590000D03*
%TD*%
%TO.P,,1*%
%TO.N,GND*%
X95150000Y-108720000D03*
%TD*%
%TO.P,,1*%
%TO.N,GND*%
X110860000Y-117630000D03*
%TD*%
%TO.P,,1*%
%TO.N,GND*%
X121700000Y-108970000D03*
%TD*%
%TO.P,,1*%
%TO.N,GND*%
X153370000Y-119800000D03*
%TD*%
%TO.P,REF\u002A\u002A,1*%
%TO.N,GND*%
X124930000Y-70128848D03*
%TD*%
%TO.P,,1*%
%TO.N,GND*%
X138121800Y-118701800D03*
%TD*%
%TO.P,,1*%
%TO.N,GND*%
X146320000Y-96978848D03*
%TD*%
%TO.P,,1*%
%TO.N,GND*%
X110880000Y-108450000D03*
%TD*%
%TO.P,,1*%
%TO.N,GND*%
X153420000Y-109540000D03*
%TD*%
%TO.P,,1*%
%TO.N,GND*%
X95190000Y-117880000D03*
%TD*%
D15*
%TO.P,SW1,1,1*%
%TO.N,Net-(Tarvos1-MODE_1)*%
X128330000Y-96548848D03*
D16*
%TO.P,SW1,2,2*%
%TO.N,+3.3V*%
X128330000Y-97548848D03*
%TD*%
D13*
%TO.P,,1*%
%TO.N,GND*%
X131601800Y-133771800D03*
%TD*%
D17*
%TO.P,R25,1*%
%TO.N,Net-(U3-SDO)*%
X140332500Y-109020000D03*
%TO.P,R25,2*%
%TO.N,+3.3V*%
X141527500Y-109020000D03*
%TD*%
D18*
%TO.P,R8,1*%
%TO.N,TX_GPS*%
X137810000Y-127850000D03*
%TO.P,R8,2*%
%TO.N,Net-(PA1010D1-TX)*%
X137810000Y-128870000D03*
%TD*%
D19*
%TO.P,C4,1*%
%TO.N,+3.3V*%
X127690000Y-121420000D03*
%TO.P,C4,2*%
%TO.N,GND*%
X127690000Y-120460000D03*
%TD*%
D20*
%TO.P,C5,1*%
%TO.N,Net-(PA1010D1-VBACKUP)*%
X125450000Y-125862500D03*
%TO.P,C5,2*%
%TO.N,GND*%
X125450000Y-126997500D03*
%TD*%
D18*
%TO.P,R5,1*%
%TO.N,Net-(Tarvos1-RX_IND)*%
X126090000Y-77878848D03*
%TO.P,R5,2*%
%TO.N,Net-(D2-A)*%
X126090000Y-78898848D03*
%TD*%
D21*
%TO.P,PA1010D1,1,I2C_SDA*%
%TO.N,unconnected-(PA1010D1-I2C_SDA-Pad1)*%
X136500000Y-123310000D03*
%TO.P,PA1010D1,2,I2C_SCL*%
%TO.N,unconnected-(PA1010D1-I2C_SCL-Pad2)*%
X136500000Y-124910000D03*
%TO.P,PA1010D1,3,1PPS*%
%TO.N,unconnected-(PA1010D1-1PPS-Pad3)*%
X136500000Y-127810000D03*
%TO.P,PA1010D1,4,TX*%
%TO.N,Net-(PA1010D1-TX)*%
X136500000Y-129410000D03*
%TO.P,PA1010D1,5,RX*%
%TO.N,Net-(PA1010D1-RX)*%
X136500000Y-131010000D03*
%TO.P,PA1010D1,6,NRESET*%
%TO.N,unconnected-(PA1010D1-NRESET-Pad6)*%
X126800000Y-131010000D03*
%TO.P,PA1010D1,7,GND*%
%TO.N,GND*%
X126800000Y-129410000D03*
%TO.P,PA1010D1,8,WAKE_UP*%
%TO.N,unconnected-(PA1010D1-WAKE_UP-Pad8)*%
X126800000Y-127810000D03*
%TO.P,PA1010D1,9,VBACKUP*%
%TO.N,Net-(PA1010D1-VBACKUP)*%
X126800000Y-124910000D03*
%TO.P,PA1010D1,10,VCC*%
%TO.N,+3.3V*%
X126800000Y-123310000D03*
%TD*%
D22*
%TO.P,U2,1,1*%
%TO.N,exti1*%
X152570000Y-115240000D03*
%TO.P,U2,2,2*%
%TO.N,+3.3V*%
X152570000Y-114240000D03*
D23*
%TO.P,U2,MP,MP*%
%TO.N,GND*%
X155095000Y-116540000D03*
X155095000Y-112940000D03*
%TD*%
D17*
%TO.P,R14,1*%
%TO.N,+3.3V*%
X132815000Y-110050000D03*
%TO.P,R14,2*%
%TO.N,Net-(U3-VDD)*%
X134010000Y-110050000D03*
%TD*%
D24*
%TO.P,C31,1*%
%TO.N,Net-(U3-VDDIO)*%
X134010000Y-107980000D03*
%TO.P,C31,2*%
%TO.N,GND*%
X132875000Y-107980000D03*
%TD*%
D25*
%TO.P,C1,1*%
%TO.N,+3.3V*%
X146600000Y-74020000D03*
%TO.P,C1,2*%
%TO.N,GND*%
X146600000Y-71070000D03*
%TD*%
D17*
%TO.P,R13,1*%
%TO.N,+3.3V*%
X132825000Y-108990000D03*
%TO.P,R13,2*%
%TO.N,Net-(U3-VDDIO)*%
X134020000Y-108990000D03*
%TD*%
D26*
%TO.P,R2,1*%
%TO.N,RX*%
X138230000Y-97518848D03*
%TO.P,R2,2*%
%TO.N,Net-(Tarvos1-URXD)*%
X139250000Y-97518848D03*
%TD*%
D27*
%TO.P,C7,1*%
%TO.N,+3.3V*%
X93580000Y-115860000D03*
%TO.P,C7,2*%
%TO.N,GND*%
X94540000Y-115860000D03*
%TD*%
D28*
%TO.P,U1,1,1*%
%TO.N,swo*%
X118710000Y-110290000D03*
%TO.P,U1,2,2*%
%TO.N,swclk*%
X118710000Y-111290000D03*
%TO.P,U1,3,3*%
%TO.N,swdio*%
X118710000Y-112290000D03*
%TO.P,U1,4,4*%
%TO.N,nrst*%
X118710000Y-113290000D03*
%TO.P,U1,5,5*%
%TO.N,GND*%
X118710000Y-114290000D03*
%TO.P,U1,6,6*%
%TO.N,+3.3V*%
X118710000Y-115290000D03*
D29*
%TO.P,U1,MP,MP*%
%TO.N,GND*%
X116185000Y-108990000D03*
X116185000Y-116590000D03*
%TD*%
D18*
%TO.P,R7,1*%
%TO.N,RX_GPS*%
X138830000Y-127860000D03*
%TO.P,R7,2*%
%TO.N,Net-(PA1010D1-RX)*%
X138830000Y-128880000D03*
%TD*%
D17*
%TO.P,R26,1*%
%TO.N,I2C1_SDA*%
X140332500Y-107990000D03*
%TO.P,R26,2*%
%TO.N,+3.3V*%
X141527500Y-107990000D03*
%TD*%
D30*
%TO.P,U3,1,VDDIO*%
%TO.N,Net-(U3-VDDIO)*%
X136400000Y-109785000D03*
%TO.P,U3,2,SCK*%
%TO.N,I2C1_SCL*%
X136400000Y-109285000D03*
D31*
%TO.P,U3,3,VSS_1*%
%TO.N,GND*%
X136650000Y-108760000D03*
%TO.P,U3,4,SDI*%
%TO.N,I2C1_SDA*%
X137150000Y-108760000D03*
%TO.P,U3,5,SDO*%
%TO.N,Net-(U3-SDO)*%
X137650000Y-108760000D03*
D30*
%TO.P,U3,6,CSB*%
%TO.N,Net-(U3-CSB)*%
X137900000Y-109285000D03*
%TO.P,U3,7,INT*%
%TO.N,unconnected-(U3-INT-Pad7)*%
X137900000Y-109785000D03*
D31*
%TO.P,U3,8,VSS_2*%
%TO.N,GND*%
X137650000Y-110310000D03*
%TO.P,U3,9,VSS_3*%
X137150000Y-110310000D03*
%TO.P,U3,10,VDD*%
%TO.N,Net-(U3-VDD)*%
X136650000Y-110310000D03*
%TD*%
D32*
%TO.P,R27,1*%
%TO.N,+3.3V*%
X141527500Y-111100000D03*
%TO.P,R27,2*%
%TO.N,I2C1_SCL*%
X140332500Y-111100000D03*
%TD*%
D33*
%TO.P,D2,1,K*%
%TO.N,GND*%
X124500000Y-77433848D03*
%TO.P,D2,2,A*%
%TO.N,Net-(D2-A)*%
X124500000Y-79008848D03*
%TD*%
D32*
%TO.P,R23,1*%
%TO.N,+3.3V*%
X141527500Y-110050000D03*
%TO.P,R23,2*%
%TO.N,Net-(U3-CSB)*%
X140332500Y-110050000D03*
%TD*%
D34*
%TO.P,SW2,1,1*%
%TO.N,+3.3V*%
X105500000Y-120190000D03*
X105500000Y-105890000D03*
%TO.P,SW2,2,2*%
%TO.N,EXTI0*%
X100500000Y-120190000D03*
X100500000Y-105890000D03*
%TD*%
D24*
%TO.P,C23,1*%
%TO.N,Net-(U3-VDD)*%
X133960000Y-111080000D03*
%TO.P,C23,2*%
%TO.N,GND*%
X132825000Y-111080000D03*
%TD*%
D35*
%TO.P,LED1,1,DOUT*%
%TO.N,Net-(LED1-DOUT)*%
X111250000Y-113720000D03*
%TO.P,LED1,2,VDD*%
%TO.N,+3.3V*%
X112950000Y-113720000D03*
%TO.P,LED1,3,DIN*%
%TO.N,exti3{slash}pwmled*%
X112950000Y-112020000D03*
%TO.P,LED1,4,GND*%
%TO.N,GND*%
X111250000Y-112020000D03*
%TD*%
D36*
%TO.P,D1,1,K*%
%TO.N,GND*%
X124440000Y-75696348D03*
%TO.P,D1,2,A*%
%TO.N,Net-(D1-A)*%
X124440000Y-74121348D03*
%TD*%
D37*
%TO.P,J2,1,Pin_1*%
%TO.N,+3.3V*%
X130690000Y-120060000D03*
%TO.P,J2,2,Pin_2*%
%TO.N,TX_GPS*%
X131690000Y-120060000D03*
%TO.P,J2,3,Pin_3*%
%TO.N,RX_GPS*%
X132690000Y-120060000D03*
%TO.P,J2,4,Pin_4*%
%TO.N,GND*%
X133690000Y-120060000D03*
D38*
%TO.P,J2,MP*%
X129390000Y-116185000D03*
X134990000Y-116185000D03*
%TD*%
D19*
%TO.P,C3,1*%
%TO.N,+3.3V*%
X126720000Y-121410000D03*
%TO.P,C3,2*%
%TO.N,GND*%
X126720000Y-120450000D03*
%TD*%
D26*
%TO.P,R1,1*%
%TO.N,TX*%
X139030000Y-96518848D03*
%TO.P,R1,2*%
%TO.N,Net-(Tarvos1-UTXD)*%
X140050000Y-96518848D03*
%TD*%
D35*
%TO.P,LED2,1,DOUT*%
%TO.N,unconnected-(LED2-DOUT-Pad1)*%
X93240000Y-112140000D03*
%TO.P,LED2,2,VDD*%
%TO.N,+3.3V*%
X93240000Y-113840000D03*
%TO.P,LED2,3,DIN*%
%TO.N,Net-(LED1-DOUT)*%
X94940000Y-113840000D03*
%TO.P,LED2,4,GND*%
%TO.N,GND*%
X94940000Y-112140000D03*
%TD*%
D19*
%TO.P,C2,1*%
%TO.N,Net-(Tarvos1-MODE_1)*%
X126000000Y-89748848D03*
%TO.P,C2,2*%
%TO.N,GND*%
X126000000Y-88788848D03*
%TD*%
D39*
%TO.P,R6,1*%
%TO.N,GND*%
X125940000Y-94108848D03*
%TO.P,R6,2*%
%TO.N,Net-(Tarvos1-MODE_1)*%
X125940000Y-93088848D03*
%TD*%
%TO.P,R4,1*%
%TO.N,Net-(Tarvos1-TX_IND)*%
X126010000Y-75818848D03*
%TO.P,R4,2*%
%TO.N,Net-(D1-A)*%
X126010000Y-74798848D03*
%TD*%
D26*
%TO.P,R3,1*%
%TO.N,GND*%
X143160000Y-95948848D03*
%TO.P,R3,2*%
%TO.N,Net-(Tarvos1-BOOT)*%
X144180000Y-95948848D03*
%TD*%
D40*
%TO.P,C6,1*%
%TO.N,+3.3V*%
X112950000Y-115740000D03*
%TO.P,C6,2*%
%TO.N,GND*%
X112950000Y-116700000D03*
%TD*%
D41*
%TO.N,GND*%
X140900000Y-111900000D03*
X142400000Y-111800000D03*
X142400000Y-110500000D03*
X142400000Y-109300000D03*
X142400000Y-108100000D03*
X142400000Y-106900000D03*
X142400000Y-105800000D03*
X137500000Y-105900000D03*
X135900000Y-105900000D03*
X134300000Y-105900000D03*
X133100000Y-105900000D03*
X132000000Y-105900000D03*
X132000000Y-106800000D03*
X132000000Y-107900000D03*
X132000000Y-109200000D03*
X132000000Y-110500000D03*
X132000000Y-111800000D03*
X133400000Y-111800000D03*
X134800000Y-111800000D03*
X136300000Y-111800000D03*
X137700000Y-111800000D03*
X139400000Y-111800000D03*
X134800000Y-108200000D03*
X135900000Y-107600000D03*
%TO.N,+3.3V*%
X133200000Y-109500000D03*
X132600000Y-109500000D03*
%TO.N,GND*%
X137700000Y-111200000D03*
%TO.N,+3.3V*%
X141600000Y-110600000D03*
X141600000Y-109500000D03*
X141600000Y-108500000D03*
%TO.N,GND*%
X135000000Y-116200000D03*
X134700000Y-115600000D03*
X135300000Y-115600000D03*
X135300000Y-116800000D03*
X134700000Y-116800000D03*
X129100000Y-116800000D03*
X129700000Y-116800000D03*
X129700000Y-115600000D03*
X129100000Y-115600000D03*
X129390000Y-116185000D03*
X138700000Y-92200000D03*
X138700000Y-93400000D03*
X138100000Y-93400000D03*
X138100000Y-92200000D03*
X132500000Y-93400000D03*
X133100000Y-93400000D03*
X133100000Y-92300000D03*
X132500000Y-92300000D03*
X126300000Y-97500000D03*
X126300000Y-76800000D03*
X145600000Y-69200000D03*
X146300000Y-69200000D03*
X147000000Y-69200000D03*
X147000000Y-69800000D03*
X146300000Y-69800000D03*
X145600000Y-69800000D03*
X146400000Y-94400000D03*
X143200000Y-97500000D03*
X136300000Y-97700000D03*
X134300000Y-92200000D03*
X133900000Y-94700000D03*
X130500000Y-86500000D03*
X136600000Y-78100000D03*
X130500000Y-78700000D03*
X131600000Y-80400000D03*
X134100000Y-80500000D03*
X143500000Y-81800000D03*
X141300000Y-94000000D03*
X141300000Y-91400000D03*
X141300000Y-86500000D03*
X141900000Y-78500000D03*
X141300000Y-85100000D03*
X141300000Y-80000000D03*
%TO.N,+3.3V*%
X135900000Y-88500000D03*
X135640000Y-87900000D03*
X135640000Y-87200000D03*
%TO.N,GND*%
X132800000Y-92800000D03*
X138400000Y-92800000D03*
X98300000Y-114900000D03*
X102700000Y-114900000D03*
X107000000Y-114900000D03*
X96200000Y-106500000D03*
X96200000Y-119700000D03*
X109900000Y-112100000D03*
X115100000Y-114000000D03*
X110400000Y-106100000D03*
X112300000Y-109700000D03*
X119500000Y-108900000D03*
X123200000Y-109700000D03*
X121800000Y-113800000D03*
X123800000Y-114000000D03*
X123800000Y-112000000D03*
X123200000Y-115700000D03*
X119500000Y-117300000D03*
%TO.N,EXTI0*%
X117690000Y-117570000D03*
%TO.N,+3.3V*%
X118200000Y-115300000D03*
X119200000Y-115300000D03*
%TO.N,GND*%
X132770000Y-76308848D03*
X141500000Y-72848848D03*
X135950000Y-76388848D03*
X133740000Y-120080000D03*
X125441800Y-128311800D03*
X137008766Y-76402423D03*
X130620000Y-76248848D03*
X132571690Y-83931534D03*
X125371800Y-131751800D03*
X150480000Y-112210000D03*
X130290000Y-91978848D03*
X113550000Y-108340000D03*
X125740000Y-95278848D03*
X133460000Y-96548848D03*
X153430000Y-117220000D03*
X125760000Y-91428848D03*
X131927639Y-88368333D03*
X92270000Y-115070000D03*
X140220000Y-91978848D03*
X155095000Y-112940000D03*
X130150000Y-83538848D03*
X116740000Y-110960000D03*
X92700000Y-110320000D03*
X116790000Y-114710000D03*
X137921800Y-123681800D03*
X99070000Y-109410000D03*
X97730000Y-120270000D03*
X137960000Y-76358848D03*
X131660000Y-76258848D03*
X150550000Y-117480000D03*
X135151800Y-124861800D03*
X134991800Y-122681800D03*
X128670000Y-119530000D03*
X103200000Y-105690000D03*
X137911800Y-125681800D03*
X97390000Y-106040000D03*
X138941800Y-131581800D03*
X116185000Y-116590000D03*
X102460000Y-117440000D03*
X140630000Y-76278848D03*
X141480000Y-70458848D03*
X137761800Y-129991800D03*
X139040000Y-76278848D03*
X132530000Y-96498848D03*
X138475495Y-84217779D03*
X125860000Y-86938848D03*
X141510000Y-71658848D03*
X138761740Y-88690359D03*
X133880000Y-76348848D03*
X107200000Y-110270000D03*
X118710000Y-114290000D03*
X107680000Y-116430000D03*
X129560000Y-76228848D03*
X114170000Y-116430000D03*
X125411800Y-123651800D03*
X108520000Y-120030000D03*
X108230000Y-105800000D03*
X155095000Y-116540000D03*
X98020000Y-116550000D03*
X139810000Y-76308848D03*
X141400000Y-77178848D03*
X116185000Y-108990000D03*
X135010000Y-76328848D03*
X141530000Y-73908848D03*
X125461800Y-120921800D03*
X134250000Y-78198848D03*
X141530000Y-74998848D03*
X138791800Y-121211800D03*
X141480000Y-69218848D03*
X153290000Y-112180000D03*
%TO.N,+3.3V*%
X152510000Y-114240000D03*
X111290000Y-115220000D03*
X105500000Y-105890000D03*
X105500000Y-115400000D03*
X112020000Y-115220000D03*
%TO.N,exti3{slash}pwmled*%
X117300000Y-113600000D03*
%TO.N,EXTI0*%
X100500000Y-105890000D03*
X100500000Y-120190000D03*
%TO.N,exti1*%
X152530000Y-115240000D03*
%TO.N,TX*%
X138110000Y-96518848D03*
%TO.N,RX*%
X137600000Y-97558848D03*
%TO.N,RX_GPS*%
X138801800Y-126741800D03*
X132680000Y-120120000D03*
%TO.N,TX_GPS*%
X137761800Y-126721800D03*
X131690000Y-120100000D03*
%TO.N,I2C1_SCL*%
X140332500Y-111100000D03*
X135600000Y-109100000D03*
%TD*%
D42*
%TO.N,+3.3V*%
X135900000Y-95878848D02*
X135900000Y-88500000D01*
X134678848Y-97100000D02*
X135900000Y-95878848D01*
X129056000Y-97274848D02*
X129056000Y-97100000D01*
X128604000Y-97274848D02*
X129056000Y-97274848D01*
X129056000Y-97100000D02*
X134678848Y-97100000D01*
X128330000Y-97548848D02*
X128604000Y-97274848D01*
%TO.N,GND*%
X137650000Y-110650000D02*
X137650000Y-110310000D01*
X137700000Y-111200000D02*
X137700000Y-110700000D01*
X137700000Y-110700000D02*
X137650000Y-110650000D01*
D43*
%TO.N,I2C1_SCL*%
X135400000Y-107000000D02*
X135100000Y-106700000D01*
X135400000Y-108900000D02*
X135400000Y-107000000D01*
X135785000Y-109285000D02*
X136400000Y-109285000D01*
X135600000Y-109100000D02*
X135785000Y-109285000D01*
X135600000Y-109100000D02*
X135400000Y-108900000D01*
D42*
%TO.N,GND*%
X136650000Y-108350000D02*
X135900000Y-107600000D01*
X136650000Y-108760000D02*
X136650000Y-108350000D01*
X137650000Y-110510000D02*
X137650000Y-110310000D01*
X137560000Y-110600000D02*
X137650000Y-110510000D01*
X137150000Y-110550000D02*
X137200000Y-110600000D01*
X137200000Y-110600000D02*
X137560000Y-110600000D01*
X137150000Y-110310000D02*
X137150000Y-110550000D01*
D44*
%TO.N,I2C1_SDA*%
X136700000Y-107034500D02*
X136700000Y-106700000D01*
X137655500Y-107990000D02*
X136700000Y-107034500D01*
%TO.N,exti1*%
X150800000Y-115200000D02*
X150840000Y-115240000D01*
X150800000Y-116400000D02*
X150800000Y-115200000D01*
X150840000Y-115240000D02*
X152570000Y-115240000D01*
%TO.N,Net-(Tarvos1-UTXD)*%
X140140000Y-96608848D02*
X140050000Y-96518848D01*
X141410000Y-96608848D02*
X140140000Y-96608848D01*
X141508647Y-96510201D02*
X141410000Y-96608848D01*
X141571118Y-96277710D02*
X141508647Y-96510201D01*
X141612147Y-95970426D02*
X141571118Y-96277710D01*
X141617403Y-95687918D02*
X141612147Y-95970426D01*
X140700000Y-94770515D02*
X141617403Y-95687918D01*
X140700000Y-78900000D02*
X140700000Y-94770515D01*
X142550000Y-77050000D02*
X140700000Y-78900000D01*
X143192237Y-76064963D02*
X142955573Y-76185546D01*
X142740685Y-76341666D02*
X142645026Y-76433823D01*
X143707194Y-75941337D02*
X143444851Y-75982887D01*
X142645026Y-76433823D02*
X142550000Y-76528849D01*
X142955573Y-76185546D02*
X142740685Y-76341666D01*
X143840000Y-75938848D02*
X143707194Y-75941337D01*
X143444851Y-75982887D02*
X143192237Y-76064963D01*
X142550000Y-76528849D02*
X142550000Y-77050000D01*
D42*
%TO.N,+3.3V*%
X135900000Y-88500000D02*
X135900000Y-88160000D01*
X135900000Y-88160000D02*
X135640000Y-87900000D01*
X135640000Y-87900000D02*
X135640000Y-87200000D01*
X135640000Y-87200000D02*
X135640000Y-82058848D01*
D44*
%TO.N,Net-(LED1-DOUT)*%
X95500000Y-114400000D02*
X94940000Y-113840000D01*
X110570000Y-114400000D02*
X95500000Y-114400000D01*
X111250000Y-113720000D02*
X110570000Y-114400000D01*
D42*
%TO.N,+3.3V*%
X111110000Y-115400000D02*
X105680000Y-115400000D01*
X105680000Y-115400000D02*
X105500000Y-115220000D01*
X111290000Y-115220000D02*
X111110000Y-115400000D01*
X105500000Y-115400000D02*
X105500000Y-115220000D01*
X94062450Y-115400000D02*
X94040000Y-115400000D01*
X94213450Y-115249000D02*
X94062450Y-115400000D01*
X95017550Y-115400000D02*
X94866550Y-115249000D01*
X94866550Y-115249000D02*
X94213450Y-115249000D01*
X94040000Y-115400000D02*
X93580000Y-115860000D01*
X105500000Y-115400000D02*
X95017550Y-115400000D01*
D44*
%TO.N,EXTI0*%
X118400000Y-117200000D02*
X118060000Y-117200000D01*
X120600000Y-115000000D02*
X118400000Y-117200000D01*
X121610000Y-115000000D02*
X120600000Y-115000000D01*
X118060000Y-117200000D02*
X117690000Y-117570000D01*
X122770000Y-113840000D02*
X121610000Y-115000000D01*
D42*
%TO.N,+3.3V*%
X113410000Y-115290000D02*
X118710000Y-115290000D01*
X113400000Y-115300000D02*
X113410000Y-115290000D01*
X112950000Y-114850000D02*
X113400000Y-115300000D01*
X112950000Y-114790000D02*
X112950000Y-114850000D01*
X112950000Y-115740000D02*
X112950000Y-114790000D01*
D44*
%TO.N,exti3{slash}pwmled*%
X114840000Y-112020000D02*
X112950000Y-112020000D01*
X116420000Y-113600000D02*
X114840000Y-112020000D01*
X117300000Y-113600000D02*
X116420000Y-113600000D01*
%TO.N,nrst*%
X123800000Y-112870000D02*
X124770000Y-113840000D01*
X119904999Y-112870000D02*
X123800000Y-112870000D01*
X118710000Y-113290000D02*
X119484999Y-113290000D01*
X119484999Y-113290000D02*
X119904999Y-112870000D01*
%TO.N,swdio*%
X120320000Y-112290000D02*
X120770000Y-111840000D01*
X118710000Y-112290000D02*
X120320000Y-112290000D01*
%TO.N,swclk*%
X121830000Y-110900000D02*
X122770000Y-111840000D01*
X119100000Y-110900000D02*
X121830000Y-110900000D01*
X118710000Y-111290000D02*
X119100000Y-110900000D01*
%TO.N,swo*%
X124540000Y-111840000D02*
X124770000Y-111840000D01*
X119594999Y-110400000D02*
X123100000Y-110400000D01*
X119484999Y-110290000D02*
X119594999Y-110400000D01*
X123100000Y-110400000D02*
X124540000Y-111840000D01*
X118710000Y-110290000D02*
X119484999Y-110290000D01*
D42*
%TO.N,GND*%
X123610000Y-76208848D02*
X123670000Y-76268848D01*
X127900000Y-71938848D02*
X125407814Y-71938848D01*
X124440000Y-75696348D02*
X124057500Y-75696348D01*
X123610000Y-73736662D02*
X123610000Y-71448848D01*
X123610000Y-73736662D02*
X123610000Y-75248848D01*
X124057500Y-75696348D02*
X123610000Y-75248848D01*
X123610000Y-71448848D02*
X124930000Y-70128848D01*
X125407814Y-71938848D02*
X123610000Y-73736662D01*
X123610000Y-75248848D02*
X123610000Y-76208848D01*
D44*
%TO.N,Net-(PA1010D1-VBACKUP)*%
X125450000Y-125862500D02*
X125450000Y-125070000D01*
X125836274Y-124910000D02*
X126800000Y-124910000D01*
X125450000Y-125070000D02*
G75*
G02*
X125836274Y-124909989I386300J-386300D01*
G01*
D42*
%TO.N,+3.3V*%
X105500000Y-115220000D02*
X105500000Y-120130000D01*
X112950000Y-113720000D02*
X112950000Y-114790000D01*
X105500000Y-120130000D02*
X105500000Y-120190000D01*
X143877500Y-73986348D02*
X143830000Y-73938848D01*
X145860000Y-73986348D02*
X143877500Y-73986348D01*
X112950000Y-114790000D02*
X112520000Y-115220000D01*
X143760000Y-73938848D02*
X143830000Y-73938848D01*
D43*
X152570000Y-114240000D02*
X152510000Y-114240000D01*
D42*
X93240000Y-115520000D02*
X93580000Y-115860000D01*
X93240000Y-113840000D02*
X93240000Y-115520000D01*
X135640000Y-82058848D02*
X143760000Y-73938848D01*
X112520000Y-115220000D02*
X112020000Y-115220000D01*
D44*
%TO.N,Net-(Tarvos1-MODE_1)*%
X126015847Y-89733001D02*
X126105481Y-89733001D01*
X126550000Y-92798848D02*
X126550000Y-94768848D01*
X126000000Y-89748848D02*
X126015847Y-89733001D01*
X125940000Y-93088848D02*
X125962777Y-93066071D01*
X126550000Y-94768848D02*
X128330000Y-96548848D01*
X126550000Y-90032990D02*
X126550000Y-92798848D01*
X127870000Y-89888848D02*
X126849705Y-89888848D01*
X125962777Y-93066071D02*
X126109682Y-93066071D01*
X126109682Y-93066071D02*
G75*
G03*
X126549985Y-92798833I-339782J1056171D01*
G01*
X126560000Y-90008848D02*
G75*
G03*
X126549981Y-90032990I24100J-24152D01*
G01*
X126849705Y-89888848D02*
G75*
G03*
X126559988Y-90008836I-5J-409752D01*
G01*
X126105481Y-89733001D02*
G75*
G02*
X126560004Y-90008844I-350781J-1090399D01*
G01*
%TO.N,Net-(D1-A)*%
X126010000Y-74798848D02*
X125963593Y-74752441D01*
X125963593Y-74752441D02*
G75*
G03*
X124440000Y-74121338I-1523593J-1523559D01*
G01*
%TO.N,Net-(D2-A)*%
X125824437Y-79008848D02*
X124500000Y-79008848D01*
X126090000Y-78898848D02*
G75*
G02*
X125824437Y-79008878I-265600J265548D01*
G01*
D43*
%TO.N,exti1*%
X152570000Y-115240000D02*
X152530000Y-115240000D01*
D44*
%TO.N,Net-(PA1010D1-TX)*%
X136500000Y-129410000D02*
X136506325Y-129410000D01*
X136506325Y-129410000D02*
G75*
G03*
X137809993Y-128869993I-25J1843700D01*
G01*
%TO.N,Net-(PA1010D1-RX)*%
X136500000Y-131010000D02*
X137892721Y-131010000D01*
X138830000Y-129181767D02*
X138830000Y-128880000D01*
X138110000Y-130920000D02*
G75*
G03*
X138829986Y-129181767I-1738200J1738200D01*
G01*
X137892721Y-131010000D02*
G75*
G03*
X138109994Y-130919994I-21J307300D01*
G01*
%TO.N,TX*%
X139030000Y-96518848D02*
X138110000Y-96518848D01*
%TO.N,Net-(Tarvos1-URXD)*%
X141920000Y-79358848D02*
X143003517Y-78275331D01*
X139250000Y-97518848D02*
X141290000Y-97518848D01*
X141290000Y-97518848D02*
X141360000Y-97448848D01*
X141360000Y-97446229D02*
X141371608Y-97434621D01*
X141360000Y-97448848D02*
X141360000Y-97446229D01*
X141920000Y-95819904D02*
X141920000Y-79358848D01*
X141371608Y-97434621D02*
G75*
G03*
X141919999Y-95819904I-2126608J1622721D01*
G01*
X143003517Y-78275331D02*
G75*
G02*
X143840000Y-77928844I836483J-836469D01*
G01*
%TO.N,RX*%
X138230000Y-97518848D02*
X137640000Y-97518848D01*
X137640000Y-97518848D02*
X137600000Y-97558848D01*
%TO.N,Net-(Tarvos1-BOOT)*%
X144200000Y-95928848D02*
X144200000Y-94258848D01*
X144180000Y-95948848D02*
X144200000Y-95928848D01*
X144200000Y-94258848D02*
X143810000Y-93868848D01*
%TO.N,Net-(Tarvos1-TX_IND)*%
X127890000Y-75928848D02*
X126275563Y-75928848D01*
X126275563Y-75928848D02*
G75*
G02*
X126010021Y-75818827I37J375548D01*
G01*
%TO.N,Net-(Tarvos1-RX_IND)*%
X127890000Y-77928848D02*
X126210710Y-77928848D01*
X126210710Y-77928848D02*
G75*
G02*
X126089987Y-77878861I-10J170748D01*
G01*
%TO.N,RX_GPS*%
X138830000Y-127860000D02*
X138830000Y-126770000D01*
X138830000Y-126770000D02*
X138801800Y-126741800D01*
%TO.N,TX_GPS*%
X137810000Y-126770000D02*
X137761800Y-126721800D01*
X137810000Y-127850000D02*
X137810000Y-126770000D01*
D43*
%TO.N,Net-(U3-VDD)*%
X134010000Y-110050000D02*
X134830000Y-110050000D01*
X134010000Y-111030000D02*
X133960000Y-111080000D01*
X136650000Y-110310000D02*
X135090000Y-110310000D01*
X135090000Y-110310000D02*
X134830000Y-110050000D01*
X134010000Y-110050000D02*
X134010000Y-111030000D01*
D42*
%TO.N,Net-(U3-VDDIO)*%
X134020000Y-108990000D02*
X134460000Y-108990000D01*
X134010000Y-108980000D02*
X134020000Y-108990000D01*
X135255000Y-109785000D02*
X136400000Y-109785000D01*
X134010000Y-107980000D02*
X134010000Y-108980000D01*
X134460000Y-108990000D02*
X135255000Y-109785000D01*
D44*
%TO.N,Net-(U3-CSB)*%
X140332500Y-110050000D02*
X139960000Y-110050000D01*
X139960000Y-110050000D02*
X139195000Y-109285000D01*
X139195000Y-109285000D02*
X137900000Y-109285000D01*
%TO.N,Net-(U3-SDO)*%
X139920000Y-109020000D02*
X139260000Y-108360000D01*
X140332500Y-109020000D02*
X139920000Y-109020000D01*
X139260000Y-108360000D02*
X138050000Y-108360000D01*
X138050000Y-108360000D02*
X137650000Y-108760000D01*
%TO.N,I2C1_SDA*%
X140332500Y-107990000D02*
X137655500Y-107990000D01*
X137655500Y-107990000D02*
X137150000Y-108495500D01*
X137150000Y-108495500D02*
X137150000Y-108760000D01*
%TD*%
%TA.AperFunction,Conductor*%
%TO.N,GND*%
G36*
X142608834Y-75617499D02*
G01*
X142664767Y-75659371D01*
X142689184Y-75724835D01*
X142689500Y-75733681D01*
X142689500Y-76034971D01*
X142669815Y-76102010D01*
X142625871Y-76140087D01*
X142626813Y-76141555D01*
X142616535Y-76148148D01*
X142601684Y-76162455D01*
X142588545Y-76173466D01*
X142571856Y-76185591D01*
X142571848Y-76185600D01*
X142571749Y-76185763D01*
X142552062Y-76210260D01*
X142528993Y-76232485D01*
X142521113Y-76238830D01*
X142487854Y-76272088D01*
X142486209Y-76273702D01*
X142452384Y-76306290D01*
X142445894Y-76314048D01*
X142422267Y-76337676D01*
X142422265Y-76337678D01*
X142358830Y-76401112D01*
X142358830Y-76401114D01*
X142324499Y-76483993D01*
X142324499Y-76588137D01*
X142324500Y-76588146D01*
X142324500Y-76905232D01*
X142304815Y-76972271D01*
X142288181Y-76992913D01*
X140508829Y-78772264D01*
X140498774Y-78796537D01*
X140498774Y-78796539D01*
X140488719Y-78820813D01*
X140474499Y-78855143D01*
X140474499Y-78959288D01*
X140474500Y-78959297D01*
X140474500Y-94715657D01*
X140474499Y-94715671D01*
X140474499Y-94815368D01*
X140474500Y-94815373D01*
X140498772Y-94873972D01*
X140508829Y-94898250D01*
X140508830Y-94898251D01*
X140572264Y-94961685D01*
X140572265Y-94961685D01*
X140589705Y-94979125D01*
X141352879Y-95742299D01*
X141368116Y-95770204D01*
X141384804Y-95797265D01*
X141385370Y-95801802D01*
X141386364Y-95803622D01*
X141389177Y-95832287D01*
X141387056Y-95946270D01*
X141385986Y-95960374D01*
X141350605Y-96225362D01*
X141347450Y-96241120D01*
X141333906Y-96291527D01*
X141297502Y-96351159D01*
X141234634Y-96381645D01*
X141214155Y-96383348D01*
X140591633Y-96383348D01*
X140524594Y-96363663D01*
X140478839Y-96310859D01*
X140468458Y-96273631D01*
X140468361Y-96272795D01*
X140467730Y-96267350D01*
X140450986Y-96229428D01*
X140424619Y-96169712D01*
X140424617Y-96169709D01*
X140424616Y-96169707D01*
X140349141Y-96094232D01*
X140349138Y-96094231D01*
X140349136Y-96094229D01*
X140251500Y-96051118D01*
X140251501Y-96051118D01*
X140227623Y-96048348D01*
X139872384Y-96048348D01*
X139872361Y-96048350D01*
X139848504Y-96051117D01*
X139848501Y-96051117D01*
X139750864Y-96094228D01*
X139750856Y-96094234D01*
X139675386Y-96169704D01*
X139675380Y-96169714D01*
X139653432Y-96219419D01*
X139644977Y-96229428D01*
X139640626Y-96241789D01*
X139622864Y-96255606D01*
X139608345Y-96272795D01*
X139595820Y-96276644D01*
X139585478Y-96284690D01*
X139563066Y-96286710D01*
X139541559Y-96293321D01*
X139528941Y-96289788D01*
X139515891Y-96290965D01*
X139495945Y-96280549D01*
X139474277Y-96274482D01*
X139464162Y-96263951D01*
X139453957Y-96258622D01*
X139440380Y-96239190D01*
X139432287Y-96230764D01*
X139429136Y-96225240D01*
X139404616Y-96169707D01*
X139387968Y-96153059D01*
X139379716Y-96138590D01*
X139375344Y-96120148D01*
X139366262Y-96103515D01*
X139367453Y-96086856D01*
X139363601Y-96070604D01*
X139369894Y-96052727D01*
X139371246Y-96033823D01*
X139381255Y-96020452D01*
X139386801Y-96004699D01*
X139401760Y-95993061D01*
X139413118Y-95977890D01*
X139418492Y-95974086D01*
X139458504Y-95947352D01*
X139491767Y-95897570D01*
X139496522Y-95873668D01*
X139500500Y-95853670D01*
X139500500Y-93824025D01*
X139491768Y-93780130D01*
X139491767Y-93780129D01*
X139491767Y-93780126D01*
X139458504Y-93730344D01*
X139438656Y-93717082D01*
X139408724Y-93697082D01*
X139408717Y-93697079D01*
X139364822Y-93688348D01*
X139364820Y-93688348D01*
X138335180Y-93688348D01*
X138335178Y-93688348D01*
X138291282Y-93697079D01*
X138291275Y-93697082D01*
X138241496Y-93730343D01*
X138241495Y-93730344D01*
X138208234Y-93780123D01*
X138208231Y-93780130D01*
X138199500Y-93824025D01*
X138199500Y-93824028D01*
X138199500Y-95853668D01*
X138199500Y-95853670D01*
X138199499Y-95853670D01*
X138208231Y-95897565D01*
X138208234Y-95897572D01*
X138241495Y-95947351D01*
X138250132Y-95955988D01*
X138247161Y-95958958D01*
X138277167Y-95994868D01*
X138285869Y-96064194D01*
X138255708Y-96127219D01*
X138196262Y-96163933D01*
X138163467Y-96168348D01*
X138156144Y-96168348D01*
X138063856Y-96168348D01*
X137974712Y-96192234D01*
X137974711Y-96192234D01*
X137974709Y-96192235D01*
X137974706Y-96192236D01*
X137894794Y-96238374D01*
X137894785Y-96238381D01*
X137829533Y-96303633D01*
X137829526Y-96303642D01*
X137783388Y-96383554D01*
X137783387Y-96383557D01*
X137783386Y-96383559D01*
X137783386Y-96383560D01*
X137773797Y-96419347D01*
X137759500Y-96472704D01*
X137759500Y-96564991D01*
X137783387Y-96654138D01*
X137783388Y-96654141D01*
X137829526Y-96734053D01*
X137829529Y-96734057D01*
X137829531Y-96734060D01*
X137894788Y-96799317D01*
X137894791Y-96799318D01*
X137894794Y-96799321D01*
X137974708Y-96845461D01*
X137974996Y-96845580D01*
X137975201Y-96845745D01*
X137981751Y-96849527D01*
X137981161Y-96850547D01*
X138029402Y-96889418D01*
X138051470Y-96955711D01*
X138034194Y-97023411D01*
X138006098Y-97056092D01*
X137993055Y-97066769D01*
X137930859Y-97094232D01*
X137855384Y-97169707D01*
X137848629Y-97185004D01*
X137826425Y-97203182D01*
X137809924Y-97210166D01*
X137796047Y-97221494D01*
X137778420Y-97223501D01*
X137762082Y-97230417D01*
X137744426Y-97227372D01*
X137726626Y-97229399D01*
X137715790Y-97227009D01*
X137646144Y-97208348D01*
X137553856Y-97208348D01*
X137464712Y-97232234D01*
X137464711Y-97232234D01*
X137464709Y-97232235D01*
X137464706Y-97232236D01*
X137384794Y-97278374D01*
X137384785Y-97278381D01*
X137319533Y-97343633D01*
X137319526Y-97343642D01*
X137273388Y-97423554D01*
X137273387Y-97423557D01*
X137273386Y-97423559D01*
X137273386Y-97423560D01*
X137249500Y-97512704D01*
X137249500Y-97604992D01*
X137266183Y-97667255D01*
X137273387Y-97694138D01*
X137273388Y-97694141D01*
X137319526Y-97774053D01*
X137319529Y-97774057D01*
X137319531Y-97774060D01*
X137384788Y-97839317D01*
X137384791Y-97839318D01*
X137384794Y-97839321D01*
X137464706Y-97885459D01*
X137464707Y-97885459D01*
X137464712Y-97885462D01*
X137553856Y-97909348D01*
X137553858Y-97909348D01*
X137646142Y-97909348D01*
X137646144Y-97909348D01*
X137735288Y-97885462D01*
X137740094Y-97882686D01*
X137807992Y-97866209D01*
X137874021Y-97889056D01*
X137889783Y-97902388D01*
X137930859Y-97943464D01*
X137930862Y-97943465D01*
X137930863Y-97943466D01*
X138028499Y-97986577D01*
X138028500Y-97986577D01*
X138028502Y-97986578D01*
X138052377Y-97989348D01*
X138407622Y-97989347D01*
X138431498Y-97986578D01*
X138529135Y-97943467D01*
X138529136Y-97943466D01*
X138529141Y-97943464D01*
X138604616Y-97867989D01*
X138620576Y-97831842D01*
X138626566Y-97818278D01*
X138671651Y-97764902D01*
X138738438Y-97744374D01*
X138805720Y-97763212D01*
X138852136Y-97815435D01*
X138853434Y-97818278D01*
X138862725Y-97839321D01*
X138875384Y-97867989D01*
X138950859Y-97943464D01*
X138950862Y-97943465D01*
X138950863Y-97943466D01*
X139048499Y-97986577D01*
X139048500Y-97986577D01*
X139048502Y-97986578D01*
X139072377Y-97989348D01*
X139427622Y-97989347D01*
X139451498Y-97986578D01*
X139549135Y-97943467D01*
X139549136Y-97943466D01*
X139549141Y-97943464D01*
X139624616Y-97867989D01*
X139642565Y-97827338D01*
X139646574Y-97818260D01*
X139691661Y-97764885D01*
X139758447Y-97744358D01*
X139760008Y-97744348D01*
X141245143Y-97744348D01*
X141245145Y-97744349D01*
X141334855Y-97744349D01*
X141393460Y-97720073D01*
X141417736Y-97710018D01*
X141481170Y-97646584D01*
X141481170Y-97646583D01*
X141487735Y-97640018D01*
X141487736Y-97640018D01*
X141505113Y-97622640D01*
X141514642Y-97615309D01*
X141514505Y-97615154D01*
X141523663Y-97607077D01*
X141523669Y-97607074D01*
X141528264Y-97601050D01*
X141535048Y-97592907D01*
X141537046Y-97590707D01*
X141551170Y-97576584D01*
X141552255Y-97573961D01*
X141560972Y-97564365D01*
X141561755Y-97563886D01*
X141562775Y-97562358D01*
X141562778Y-97562356D01*
X141562779Y-97562352D01*
X141563476Y-97561310D01*
X141578498Y-97535205D01*
X141632463Y-97464463D01*
X141775168Y-97236399D01*
X141896152Y-96996105D01*
X141994376Y-96745645D01*
X142068997Y-96487169D01*
X142119374Y-96222896D01*
X142145076Y-95955094D01*
X142145358Y-95865101D01*
X142145500Y-95864759D01*
X142145500Y-95820244D01*
X142145580Y-95793460D01*
X142145666Y-95764740D01*
X142145500Y-95763024D01*
X142145500Y-79503615D01*
X142165185Y-79436576D01*
X142181819Y-79415934D01*
X142982087Y-78615667D01*
X143043410Y-78582182D01*
X143069768Y-78579348D01*
X144854822Y-78579348D01*
X144898717Y-78570616D01*
X144898717Y-78570615D01*
X144898722Y-78570615D01*
X144948504Y-78537352D01*
X144954799Y-78527930D01*
X145008408Y-78483127D01*
X145077732Y-78474418D01*
X145140761Y-78504572D01*
X145177481Y-78564014D01*
X145181900Y-78597094D01*
X145180438Y-79263924D01*
X145160606Y-79330920D01*
X145107702Y-79376559D01*
X145038522Y-79386351D01*
X144975030Y-79357187D01*
X144953335Y-79332541D01*
X144944519Y-79319347D01*
X144938504Y-79310344D01*
X144899830Y-79284503D01*
X144888724Y-79277082D01*
X144888717Y-79277079D01*
X144844822Y-79268348D01*
X144844820Y-79268348D01*
X142815180Y-79268348D01*
X142815178Y-79268348D01*
X142771282Y-79277079D01*
X142771275Y-79277082D01*
X142721496Y-79310343D01*
X142721495Y-79310344D01*
X142688234Y-79360123D01*
X142688231Y-79360130D01*
X142679500Y-79404025D01*
X142679500Y-79404028D01*
X142679500Y-80433668D01*
X142679500Y-80433670D01*
X142679499Y-80433670D01*
X142688231Y-80477565D01*
X142688234Y-80477572D01*
X142721495Y-80527351D01*
X142721496Y-80527352D01*
X142771278Y-80560615D01*
X142771281Y-80560615D01*
X142771282Y-80560616D01*
X142815177Y-80569348D01*
X142815180Y-80569348D01*
X144844822Y-80569348D01*
X144888717Y-80560616D01*
X144888717Y-80560615D01*
X144888722Y-80560615D01*
X144938504Y-80527352D01*
X144950455Y-80509464D01*
X145004064Y-80464660D01*
X145073389Y-80455951D01*
X145136417Y-80486104D01*
X145173138Y-80545546D01*
X145177557Y-80578627D01*
X145171689Y-83255796D01*
X145151857Y-83322792D01*
X145098953Y-83368431D01*
X145029773Y-83378223D01*
X144966281Y-83349059D01*
X144944589Y-83324418D01*
X144928504Y-83300344D01*
X144928502Y-83300343D01*
X144928502Y-83300342D01*
X144878724Y-83267082D01*
X144878717Y-83267079D01*
X144834822Y-83258348D01*
X144834820Y-83258348D01*
X142805180Y-83258348D01*
X142805178Y-83258348D01*
X142761282Y-83267079D01*
X142761275Y-83267082D01*
X142711496Y-83300343D01*
X142711495Y-83300344D01*
X142678234Y-83350123D01*
X142678231Y-83350130D01*
X142669500Y-83394025D01*
X142669500Y-83394028D01*
X142669500Y-84423668D01*
X142669500Y-84423670D01*
X142669499Y-84423670D01*
X142678231Y-84467565D01*
X142678234Y-84467572D01*
X142684916Y-84477572D01*
X142711496Y-84517352D01*
X142761278Y-84550615D01*
X142761281Y-84550615D01*
X142761282Y-84550616D01*
X142805177Y-84559348D01*
X142805180Y-84559348D01*
X144834822Y-84559348D01*
X144878717Y-84550616D01*
X144878717Y-84550615D01*
X144878722Y-84550615D01*
X144928504Y-84517352D01*
X144941716Y-84497578D01*
X144995324Y-84452776D01*
X145064648Y-84444067D01*
X145127677Y-84474221D01*
X145164397Y-84533663D01*
X145168816Y-84566743D01*
X145167320Y-85249257D01*
X145147488Y-85316253D01*
X145094584Y-85361892D01*
X145025404Y-85371684D01*
X144961912Y-85342520D01*
X144940220Y-85317878D01*
X144928504Y-85300344D01*
X144928502Y-85300343D01*
X144928502Y-85300342D01*
X144878724Y-85267082D01*
X144878717Y-85267079D01*
X144834822Y-85258348D01*
X144834820Y-85258348D01*
X142805180Y-85258348D01*
X142805178Y-85258348D01*
X142761282Y-85267079D01*
X142761275Y-85267082D01*
X142711496Y-85300343D01*
X142711495Y-85300344D01*
X142678234Y-85350123D01*
X142678231Y-85350130D01*
X142669500Y-85394025D01*
X142669500Y-85394028D01*
X142669500Y-86423668D01*
X142669500Y-86423670D01*
X142669499Y-86423670D01*
X142678231Y-86467565D01*
X142678234Y-86467572D01*
X142704814Y-86507352D01*
X142711496Y-86517352D01*
X142761278Y-86550615D01*
X142761281Y-86550615D01*
X142761282Y-86550616D01*
X142805177Y-86559348D01*
X142805180Y-86559348D01*
X144834822Y-86559348D01*
X144878717Y-86550616D01*
X144878717Y-86550615D01*
X144878722Y-86550615D01*
X144928504Y-86517352D01*
X144937316Y-86504162D01*
X144990927Y-86459359D01*
X145060252Y-86450651D01*
X145123280Y-86480805D01*
X145159999Y-86540247D01*
X145164418Y-86573326D01*
X145162972Y-87232750D01*
X145143140Y-87299746D01*
X145090236Y-87345385D01*
X145021056Y-87355177D01*
X144957564Y-87326013D01*
X144935872Y-87301372D01*
X144928504Y-87290344D01*
X144928502Y-87290343D01*
X144928502Y-87290342D01*
X144878724Y-87257082D01*
X144878717Y-87257079D01*
X144834822Y-87248348D01*
X144834820Y-87248348D01*
X142805180Y-87248348D01*
X142805178Y-87248348D01*
X142761282Y-87257079D01*
X142761275Y-87257082D01*
X142711496Y-87290343D01*
X142711495Y-87290344D01*
X142678234Y-87340123D01*
X142678231Y-87340130D01*
X142669500Y-87384025D01*
X142669500Y-87384028D01*
X142669500Y-88413668D01*
X142669500Y-88413670D01*
X142669499Y-88413670D01*
X142678231Y-88457565D01*
X142678234Y-88457572D01*
X142711495Y-88507351D01*
X142711496Y-88507352D01*
X142761278Y-88540615D01*
X142761281Y-88540615D01*
X142761282Y-88540616D01*
X142805177Y-88549348D01*
X142805180Y-88549348D01*
X144834822Y-88549348D01*
X144878717Y-88540616D01*
X144878717Y-88540615D01*
X144878722Y-88540615D01*
X144928504Y-88507352D01*
X144932939Y-88500713D01*
X144986550Y-88455908D01*
X145055875Y-88447199D01*
X145118903Y-88477353D01*
X145155623Y-88536795D01*
X145160042Y-88569875D01*
X145158701Y-89181451D01*
X145138869Y-89248447D01*
X145085965Y-89294086D01*
X145016785Y-89303878D01*
X144953293Y-89274714D01*
X144947020Y-89268860D01*
X144938503Y-89260343D01*
X144888724Y-89227082D01*
X144888717Y-89227079D01*
X144844822Y-89218348D01*
X144844820Y-89218348D01*
X142815180Y-89218348D01*
X142815178Y-89218348D01*
X142771282Y-89227079D01*
X142771275Y-89227082D01*
X142721496Y-89260343D01*
X142721495Y-89260344D01*
X142688234Y-89310123D01*
X142688231Y-89310130D01*
X142679500Y-89354025D01*
X142679500Y-89354028D01*
X142679500Y-90383668D01*
X142679500Y-90383670D01*
X142679499Y-90383670D01*
X142688231Y-90427565D01*
X142688234Y-90427572D01*
X142721495Y-90477351D01*
X142721496Y-90477352D01*
X142771278Y-90510615D01*
X142771281Y-90510615D01*
X142771282Y-90510616D01*
X142815177Y-90519348D01*
X142815180Y-90519348D01*
X144844822Y-90519348D01*
X144888717Y-90510616D01*
X144888717Y-90510615D01*
X144888722Y-90510615D01*
X144938504Y-90477352D01*
X144938506Y-90477348D01*
X144943996Y-90471859D01*
X145005318Y-90438372D01*
X145075009Y-90443354D01*
X145130944Y-90485223D01*
X145155364Y-90550687D01*
X145155680Y-90559809D01*
X145154223Y-91224622D01*
X145134391Y-91291618D01*
X145081487Y-91337257D01*
X145012307Y-91347049D01*
X144948815Y-91317885D01*
X144927123Y-91293243D01*
X144918504Y-91280344D01*
X144918502Y-91280343D01*
X144918502Y-91280342D01*
X144868724Y-91247082D01*
X144868717Y-91247079D01*
X144824822Y-91238348D01*
X144824820Y-91238348D01*
X142795180Y-91238348D01*
X142795178Y-91238348D01*
X142751282Y-91247079D01*
X142751275Y-91247082D01*
X142701496Y-91280343D01*
X142701495Y-91280344D01*
X142668234Y-91330123D01*
X142668231Y-91330130D01*
X142659500Y-91374025D01*
X142659500Y-91374028D01*
X142659500Y-92403668D01*
X142659500Y-92403670D01*
X142659499Y-92403670D01*
X142668231Y-92447565D01*
X142668232Y-92447569D01*
X142668233Y-92447570D01*
X142701496Y-92497352D01*
X142751278Y-92530615D01*
X142751281Y-92530615D01*
X142751282Y-92530616D01*
X142795177Y-92539348D01*
X142795180Y-92539348D01*
X144824822Y-92539348D01*
X144868717Y-92530616D01*
X144868717Y-92530615D01*
X144868722Y-92530615D01*
X144918504Y-92497352D01*
X144924199Y-92488827D01*
X144977810Y-92444024D01*
X145047135Y-92435315D01*
X145110163Y-92465470D01*
X145146882Y-92524912D01*
X145151301Y-92557991D01*
X145149897Y-93198148D01*
X145130065Y-93265144D01*
X145077161Y-93310783D01*
X145007981Y-93320575D01*
X144944489Y-93291411D01*
X144922794Y-93266765D01*
X144918503Y-93260343D01*
X144868724Y-93227082D01*
X144868717Y-93227079D01*
X144824822Y-93218348D01*
X144824820Y-93218348D01*
X142795180Y-93218348D01*
X142795178Y-93218348D01*
X142751282Y-93227079D01*
X142751275Y-93227082D01*
X142701496Y-93260343D01*
X142701495Y-93260344D01*
X142668234Y-93310123D01*
X142668231Y-93310130D01*
X142659500Y-93354025D01*
X142659500Y-93354028D01*
X142659500Y-94383668D01*
X142659500Y-94383670D01*
X142659499Y-94383670D01*
X142668231Y-94427565D01*
X142668232Y-94427569D01*
X142668233Y-94427570D01*
X142701496Y-94477352D01*
X142751278Y-94510615D01*
X142751281Y-94510615D01*
X142751282Y-94510616D01*
X142795177Y-94519348D01*
X142795180Y-94519348D01*
X143850500Y-94519348D01*
X143917539Y-94539033D01*
X143963294Y-94591837D01*
X143974500Y-94643348D01*
X143974500Y-95402087D01*
X143954815Y-95469126D01*
X143902011Y-95514881D01*
X143900587Y-95515521D01*
X143880863Y-95524230D01*
X143880861Y-95524231D01*
X143880859Y-95524232D01*
X143880858Y-95524232D01*
X143880856Y-95524234D01*
X143805386Y-95599704D01*
X143805381Y-95599711D01*
X143762270Y-95697347D01*
X143759500Y-95721223D01*
X143759500Y-96176463D01*
X143759502Y-96176486D01*
X143762269Y-96200343D01*
X143762269Y-96200346D01*
X143805380Y-96297983D01*
X143805383Y-96297987D01*
X143805384Y-96297989D01*
X143880859Y-96373464D01*
X143880862Y-96373465D01*
X143880863Y-96373466D01*
X143978499Y-96416577D01*
X143978500Y-96416577D01*
X143978502Y-96416578D01*
X144002377Y-96419348D01*
X144357622Y-96419347D01*
X144381498Y-96416578D01*
X144479135Y-96373467D01*
X144479136Y-96373466D01*
X144479141Y-96373464D01*
X144554616Y-96297989D01*
X144597730Y-96200346D01*
X144600500Y-96176471D01*
X144600499Y-95721226D01*
X144597730Y-95697350D01*
X144597729Y-95697347D01*
X144554619Y-95599712D01*
X144554617Y-95599709D01*
X144554616Y-95599707D01*
X144479141Y-95524232D01*
X144479140Y-95524231D01*
X144471016Y-95516107D01*
X144471905Y-95515217D01*
X144435239Y-95470297D01*
X144425500Y-95422125D01*
X144425500Y-94643348D01*
X144445185Y-94576309D01*
X144497989Y-94530554D01*
X144549500Y-94519348D01*
X144824822Y-94519348D01*
X144868717Y-94510616D01*
X144868717Y-94510615D01*
X144868722Y-94510615D01*
X144918504Y-94477352D01*
X144951767Y-94427570D01*
X144960500Y-94383668D01*
X144960500Y-93511481D01*
X144966720Y-93490296D01*
X144968273Y-93468268D01*
X144976372Y-93457424D01*
X144980185Y-93444442D01*
X144996869Y-93429985D01*
X145010086Y-93412291D01*
X145022763Y-93407547D01*
X145032989Y-93398687D01*
X145054842Y-93395544D01*
X145075525Y-93387806D01*
X145088752Y-93390668D01*
X145102147Y-93388743D01*
X145122232Y-93397915D01*
X145143814Y-93402587D01*
X145161087Y-93415660D01*
X145165703Y-93417768D01*
X145172090Y-93423709D01*
X145172651Y-93424269D01*
X145178501Y-93430255D01*
X145178651Y-93430256D01*
X145178764Y-93430369D01*
X145178962Y-93430453D01*
X145178970Y-93430453D01*
X145178971Y-93430454D01*
X145199275Y-93430498D01*
X145200122Y-93430503D01*
X147625606Y-93458490D01*
X147692412Y-93478947D01*
X147737554Y-93532275D01*
X147748169Y-93583432D01*
X147710822Y-98457146D01*
X147690625Y-98524033D01*
X147637472Y-98569382D01*
X147587326Y-98580195D01*
X142800207Y-98599499D01*
X142800206Y-98599498D01*
X142799894Y-98599500D01*
X142779082Y-98599500D01*
X142778997Y-98599584D01*
X142778879Y-98599585D01*
X142778829Y-98599634D01*
X142778828Y-98599635D01*
X142764394Y-98614185D01*
X142764196Y-98614384D01*
X142749500Y-98629082D01*
X142749500Y-98629201D01*
X142749416Y-98629286D01*
X142749416Y-98629314D01*
X142749416Y-98629315D01*
X142749499Y-98649831D01*
X142749500Y-98650331D01*
X142749500Y-98871614D01*
X142729815Y-98938653D01*
X142677011Y-98984408D01*
X142607853Y-98994352D01*
X142544297Y-98965327D01*
X142537819Y-98959295D01*
X142438017Y-98859493D01*
X142438011Y-98859488D01*
X142312488Y-98787017D01*
X142312489Y-98787017D01*
X142301006Y-98783940D01*
X142172475Y-98749500D01*
X142027525Y-98749500D01*
X141898993Y-98783940D01*
X141887511Y-98787017D01*
X141761988Y-98859488D01*
X141761982Y-98859493D01*
X141659493Y-98961982D01*
X141659488Y-98961988D01*
X141587017Y-99087511D01*
X141587016Y-99087515D01*
X141549500Y-99227525D01*
X141549500Y-99241328D01*
X141549500Y-99372475D01*
X141587016Y-99512485D01*
X141587017Y-99512488D01*
X141659488Y-99638011D01*
X141659490Y-99638013D01*
X141659491Y-99638015D01*
X141761985Y-99740509D01*
X141761986Y-99740510D01*
X141761988Y-99740511D01*
X141887511Y-99812982D01*
X141887512Y-99812982D01*
X141887515Y-99812984D01*
X142027525Y-99850500D01*
X142027528Y-99850500D01*
X142172472Y-99850500D01*
X142172475Y-99850500D01*
X142312485Y-99812984D01*
X142438015Y-99740509D01*
X142537819Y-99640705D01*
X142599142Y-99607220D01*
X142668834Y-99612204D01*
X142724767Y-99654076D01*
X142749184Y-99719540D01*
X142749500Y-99728386D01*
X142749500Y-103571614D01*
X142729815Y-103638653D01*
X142677011Y-103684408D01*
X142607853Y-103694352D01*
X142544297Y-103665327D01*
X142537819Y-103659295D01*
X142438017Y-103559493D01*
X142438011Y-103559488D01*
X142312488Y-103487017D01*
X142312489Y-103487017D01*
X142301006Y-103483940D01*
X142172475Y-103449500D01*
X142027525Y-103449500D01*
X141898993Y-103483940D01*
X141887511Y-103487017D01*
X141761988Y-103559488D01*
X141761982Y-103559493D01*
X141659493Y-103661982D01*
X141659488Y-103661988D01*
X141587017Y-103787511D01*
X141587016Y-103787515D01*
X141549500Y-103927525D01*
X141549500Y-103941328D01*
X141549500Y-104072475D01*
X141587016Y-104212485D01*
X141587017Y-104212488D01*
X141659488Y-104338011D01*
X141659490Y-104338013D01*
X141659491Y-104338015D01*
X141761985Y-104440509D01*
X141761986Y-104440510D01*
X141761988Y-104440511D01*
X141887511Y-104512982D01*
X141887512Y-104512982D01*
X141887515Y-104512984D01*
X142027525Y-104550500D01*
X142027528Y-104550500D01*
X142172472Y-104550500D01*
X142172475Y-104550500D01*
X142312485Y-104512984D01*
X142438015Y-104440509D01*
X142537819Y-104340705D01*
X142599142Y-104307220D01*
X142668834Y-104312204D01*
X142724767Y-104354076D01*
X142749184Y-104419540D01*
X142749500Y-104428386D01*
X142749500Y-109620918D01*
X142779082Y-109650500D01*
X142820918Y-109650500D01*
X150507529Y-109650500D01*
X150574568Y-109670185D01*
X150610134Y-109704872D01*
X150943898Y-110196734D01*
X150965252Y-110263260D01*
X150947250Y-110330771D01*
X150895606Y-110377831D01*
X150826718Y-110389501D01*
X150809198Y-110386135D01*
X150744480Y-110368794D01*
X150672475Y-110349500D01*
X150527525Y-110349500D01*
X150398993Y-110383940D01*
X150387511Y-110387017D01*
X150261988Y-110459488D01*
X150261982Y-110459493D01*
X150159493Y-110561982D01*
X150159488Y-110561988D01*
X150087017Y-110687511D01*
X150087016Y-110687515D01*
X150049500Y-110827525D01*
X150049500Y-110841328D01*
X150049500Y-110972475D01*
X150082366Y-111095131D01*
X150087017Y-111112488D01*
X150159488Y-111238011D01*
X150159493Y-111238017D01*
X150247625Y-111326149D01*
X150251555Y-111333347D01*
X150259244Y-111338406D01*
X150261983Y-111340508D01*
X150387511Y-111412982D01*
X150387512Y-111412982D01*
X150387515Y-111412984D01*
X150527525Y-111450500D01*
X150527528Y-111450500D01*
X150672472Y-111450500D01*
X150672475Y-111450500D01*
X150812485Y-111412984D01*
X150938015Y-111340509D01*
X151040509Y-111238015D01*
X151112984Y-111112485D01*
X151150500Y-110972475D01*
X151150500Y-110904773D01*
X151170185Y-110837734D01*
X151222989Y-110791979D01*
X151292147Y-110782035D01*
X151355703Y-110811060D01*
X151377104Y-110835144D01*
X151650481Y-111238015D01*
X151865969Y-111555577D01*
X151879364Y-111575316D01*
X151879319Y-111580476D01*
X151890776Y-111592135D01*
X151897076Y-111601419D01*
X151897077Y-111601420D01*
X151899958Y-111605665D01*
X151900554Y-111606057D01*
X151903873Y-111608786D01*
X151907987Y-111610037D01*
X151908640Y-111610314D01*
X151908641Y-111610315D01*
X151924987Y-111610458D01*
X151941046Y-111613533D01*
X151945312Y-111610636D01*
X151950470Y-111610682D01*
X151950472Y-111610680D01*
X151950476Y-111610681D01*
X151962138Y-111599220D01*
X151975665Y-111590042D01*
X151976634Y-111584975D01*
X151980311Y-111581363D01*
X151980311Y-111581362D01*
X151980315Y-111581359D01*
X151980359Y-111576237D01*
X151982567Y-111553995D01*
X151983533Y-111548953D01*
X151983531Y-111548950D01*
X151983386Y-111548245D01*
X151980832Y-111522101D01*
X152005926Y-108653177D01*
X152008985Y-108303415D01*
X152029255Y-108236551D01*
X152082457Y-108191259D01*
X152132980Y-108180500D01*
X154644480Y-108180500D01*
X154711519Y-108200185D01*
X154757274Y-108252989D01*
X154768477Y-108305221D01*
X154762878Y-109265584D01*
X154749762Y-111514867D01*
X154749651Y-111533998D01*
X154749621Y-111539119D01*
X154749388Y-111539355D01*
X154749498Y-111559965D01*
X154749495Y-111560642D01*
X154749378Y-111580634D01*
X154749611Y-111581188D01*
X154763827Y-111595251D01*
X154764723Y-111596147D01*
X154778788Y-111610377D01*
X154778789Y-111610377D01*
X154779347Y-111610611D01*
X154779353Y-111610610D01*
X154779355Y-111610612D01*
X154799420Y-111610503D01*
X154800484Y-111610503D01*
X154820623Y-111610621D01*
X154820623Y-111610620D01*
X154842706Y-111610750D01*
X154845190Y-111610255D01*
X156475661Y-111601442D01*
X156542804Y-111620764D01*
X156588843Y-111673320D01*
X156600328Y-111724851D01*
X156628677Y-117696869D01*
X156609310Y-117764002D01*
X156556724Y-117810007D01*
X156506071Y-117821450D01*
X154901248Y-117839481D01*
X154901249Y-117839482D01*
X154899938Y-117839496D01*
X154879543Y-117839311D01*
X154879115Y-117839731D01*
X154878516Y-117839738D01*
X154878512Y-117839741D01*
X154878510Y-117839742D01*
X154865145Y-117853411D01*
X154863370Y-117855190D01*
X154849691Y-117868622D01*
X154849267Y-117869620D01*
X154849482Y-117888793D01*
X154849485Y-117891313D01*
X154821051Y-121009507D01*
X154800756Y-121076364D01*
X154747537Y-121121635D01*
X154699136Y-121132359D01*
X152064979Y-121176556D01*
X151997619Y-121157998D01*
X151950985Y-121105969D01*
X151938904Y-121053697D01*
X151938892Y-121052427D01*
X151910507Y-117920664D01*
X151910500Y-117919841D01*
X151910612Y-117899355D01*
X151910333Y-117899073D01*
X151910330Y-117898659D01*
X151910321Y-117898638D01*
X151896305Y-117884873D01*
X151895648Y-117884228D01*
X151881191Y-117869614D01*
X151880764Y-117869611D01*
X151880459Y-117869312D01*
X151880445Y-117869312D01*
X151880444Y-117869311D01*
X151860766Y-117869490D01*
X151858974Y-117869493D01*
X150185479Y-117860447D01*
X150118547Y-117840401D01*
X150073078Y-117787350D01*
X150062155Y-117735276D01*
X150062439Y-117705288D01*
X150067653Y-117154249D01*
X150087971Y-117087402D01*
X150141205Y-117042149D01*
X150210455Y-117032861D01*
X150239102Y-117040866D01*
X150241276Y-117041765D01*
X150241278Y-117041767D01*
X150252253Y-117043950D01*
X150285177Y-117050500D01*
X150285180Y-117050500D01*
X151314822Y-117050500D01*
X151358717Y-117041768D01*
X151358717Y-117041767D01*
X151358722Y-117041767D01*
X151408504Y-117008504D01*
X151441767Y-116958722D01*
X151450500Y-116914820D01*
X151450500Y-115885180D01*
X151450500Y-115885177D01*
X151441768Y-115841282D01*
X151441767Y-115841281D01*
X151441767Y-115841278D01*
X151408504Y-115791496D01*
X151408503Y-115791495D01*
X151358724Y-115758234D01*
X151358717Y-115758231D01*
X151314822Y-115749500D01*
X151314820Y-115749500D01*
X151149500Y-115749500D01*
X151140814Y-115746949D01*
X151131853Y-115748238D01*
X151107812Y-115737259D01*
X151082461Y-115729815D01*
X151076533Y-115722974D01*
X151068297Y-115719213D01*
X151054007Y-115696978D01*
X151036706Y-115677011D01*
X151034418Y-115666496D01*
X151030523Y-115660435D01*
X151025500Y-115625500D01*
X151025500Y-115589500D01*
X151045185Y-115522461D01*
X151097989Y-115476706D01*
X151149500Y-115465500D01*
X151569049Y-115465500D01*
X151636088Y-115485185D01*
X151681843Y-115537989D01*
X151682483Y-115539414D01*
X151692790Y-115562759D01*
X151692793Y-115562763D01*
X151692794Y-115562765D01*
X151772235Y-115642206D01*
X151875009Y-115687585D01*
X151900135Y-115690500D01*
X153239864Y-115690499D01*
X153239879Y-115690497D01*
X153239882Y-115690497D01*
X153264987Y-115687586D01*
X153264988Y-115687585D01*
X153264991Y-115687585D01*
X153367765Y-115642206D01*
X153447206Y-115562765D01*
X153492585Y-115459991D01*
X153495500Y-115434865D01*
X153495499Y-115045136D01*
X153495128Y-115041938D01*
X153492586Y-115020012D01*
X153492585Y-115020010D01*
X153492585Y-115020009D01*
X153447206Y-114917235D01*
X153367765Y-114837794D01*
X153359640Y-114829669D01*
X153362058Y-114827250D01*
X153330165Y-114788190D01*
X153322249Y-114718770D01*
X153353121Y-114656090D01*
X153359699Y-114650390D01*
X153359640Y-114650331D01*
X153395804Y-114614167D01*
X153447206Y-114562765D01*
X153492585Y-114459991D01*
X153495500Y-114434865D01*
X153495499Y-114045136D01*
X153495497Y-114045117D01*
X153492586Y-114020012D01*
X153492585Y-114020010D01*
X153492585Y-114020009D01*
X153447206Y-113917235D01*
X153367765Y-113837794D01*
X153316626Y-113815214D01*
X153264992Y-113792415D01*
X153239865Y-113789500D01*
X151900143Y-113789500D01*
X151900117Y-113789502D01*
X151875012Y-113792413D01*
X151875008Y-113792415D01*
X151772235Y-113837793D01*
X151692794Y-113917234D01*
X151647415Y-114020006D01*
X151647415Y-114020008D01*
X151644500Y-114045131D01*
X151644500Y-114434856D01*
X151644502Y-114434882D01*
X151647413Y-114459987D01*
X151647415Y-114459991D01*
X151692793Y-114562764D01*
X151780360Y-114650331D01*
X151777942Y-114652748D01*
X151809842Y-114691829D01*
X151817747Y-114761250D01*
X151790494Y-114819797D01*
X151777209Y-114835597D01*
X151772235Y-114837794D01*
X151692794Y-114917235D01*
X151675340Y-114956763D01*
X151663962Y-114970297D01*
X151648991Y-114980235D01*
X151637397Y-114993963D01*
X151620488Y-114999159D01*
X151605753Y-115008943D01*
X151587786Y-115009210D01*
X151570611Y-115014490D01*
X151569049Y-115014500D01*
X150966091Y-115014500D01*
X150918635Y-115005060D01*
X150903458Y-114998773D01*
X150903458Y-114998772D01*
X150844858Y-114974500D01*
X150844856Y-114974499D01*
X150844855Y-114974499D01*
X150755145Y-114974499D01*
X150755143Y-114974499D01*
X150720813Y-114988719D01*
X150696539Y-114998774D01*
X150696537Y-114998774D01*
X150672264Y-115008829D01*
X150608832Y-115072261D01*
X150608829Y-115072266D01*
X150604886Y-115081786D01*
X150599357Y-115095135D01*
X150574499Y-115155145D01*
X150574499Y-115244855D01*
X150574500Y-115244857D01*
X150574500Y-115269279D01*
X150574500Y-115625500D01*
X150554815Y-115692539D01*
X150502011Y-115738294D01*
X150450500Y-115749500D01*
X150285175Y-115749500D01*
X150230191Y-115760437D01*
X150160599Y-115754210D01*
X150105422Y-115711346D01*
X150082178Y-115645456D01*
X150082006Y-115637674D01*
X150098798Y-113863343D01*
X150119116Y-113796495D01*
X150172350Y-113751242D01*
X150241600Y-113741954D01*
X150246974Y-113742900D01*
X150267801Y-113747043D01*
X150285179Y-113750500D01*
X150285180Y-113750500D01*
X151314822Y-113750500D01*
X151358717Y-113741768D01*
X151358717Y-113741767D01*
X151358722Y-113741767D01*
X151408504Y-113708504D01*
X151441767Y-113658722D01*
X151441768Y-113658717D01*
X151450500Y-113614822D01*
X151450500Y-112585177D01*
X151441768Y-112541282D01*
X151441767Y-112541281D01*
X151441767Y-112541278D01*
X151424543Y-112515501D01*
X151408504Y-112491496D01*
X151408503Y-112491495D01*
X151358724Y-112458234D01*
X151358717Y-112458231D01*
X151314822Y-112449500D01*
X151314820Y-112449500D01*
X150285180Y-112449500D01*
X150261480Y-112454214D01*
X150191888Y-112447985D01*
X150136712Y-112405122D01*
X150113468Y-112339232D01*
X150113296Y-112331423D01*
X150120303Y-111591077D01*
X150120527Y-111590853D01*
X150120500Y-111570231D01*
X150120696Y-111549561D01*
X150120694Y-111549559D01*
X150120695Y-111549549D01*
X150120480Y-111549024D01*
X150106368Y-111534949D01*
X150105425Y-111533998D01*
X150095247Y-111523625D01*
X150093644Y-111520622D01*
X150091874Y-111519893D01*
X150090872Y-111519472D01*
X150070827Y-111519497D01*
X150070828Y-111519498D01*
X150070193Y-111519498D01*
X150049561Y-111519304D01*
X150049334Y-111519525D01*
X150025088Y-111519557D01*
X150025087Y-111519556D01*
X150025087Y-111519557D01*
X142780047Y-111528859D01*
X142759082Y-111528859D01*
X142759016Y-111528885D01*
X142744244Y-111543696D01*
X142744134Y-111543807D01*
X142729498Y-111558442D01*
X142729473Y-111558504D01*
X142729500Y-111579424D01*
X142729500Y-112034749D01*
X142709815Y-112101788D01*
X142657011Y-112147543D01*
X142605785Y-112158749D01*
X133580179Y-112179499D01*
X133580143Y-112179499D01*
X133579846Y-112179500D01*
X133559082Y-112179500D01*
X133559034Y-112179547D01*
X133558966Y-112179548D01*
X133558826Y-112179687D01*
X133558826Y-112179688D01*
X133544433Y-112194147D01*
X133544321Y-112194260D01*
X133544209Y-112194373D01*
X133529500Y-112209082D01*
X133529500Y-112209149D01*
X133529452Y-112209198D01*
X133529452Y-112209326D01*
X133529452Y-112209327D01*
X133529500Y-112230116D01*
X133529500Y-113751614D01*
X133509815Y-113818653D01*
X133457011Y-113864408D01*
X133387853Y-113874352D01*
X133324297Y-113845327D01*
X133317819Y-113839295D01*
X133238017Y-113759493D01*
X133238011Y-113759488D01*
X133112488Y-113687017D01*
X133112489Y-113687017D01*
X133099378Y-113683504D01*
X132972475Y-113649500D01*
X132827525Y-113649500D01*
X132700622Y-113683504D01*
X132687511Y-113687017D01*
X132561988Y-113759488D01*
X132561982Y-113759493D01*
X132459493Y-113861982D01*
X132459488Y-113861988D01*
X132387017Y-113987511D01*
X132387016Y-113987515D01*
X132349500Y-114127525D01*
X132349500Y-114141328D01*
X132349500Y-114272475D01*
X132383270Y-114398504D01*
X132387017Y-114412488D01*
X132459488Y-114538011D01*
X132459490Y-114538013D01*
X132459491Y-114538015D01*
X132561985Y-114640509D01*
X132561986Y-114640510D01*
X132561988Y-114640511D01*
X132687511Y-114712982D01*
X132687512Y-114712982D01*
X132687515Y-114712984D01*
X132827525Y-114750500D01*
X132827528Y-114750500D01*
X132972472Y-114750500D01*
X132972475Y-114750500D01*
X133112485Y-114712984D01*
X133238015Y-114640509D01*
X133317819Y-114560705D01*
X133379142Y-114527220D01*
X133448834Y-114532204D01*
X133504767Y-114574076D01*
X133529184Y-114639540D01*
X133529500Y-114648386D01*
X133529500Y-114740918D01*
X133559082Y-114770500D01*
X133600918Y-114770500D01*
X135974825Y-114770500D01*
X136041864Y-114790185D01*
X136087619Y-114842989D01*
X136098824Y-114894979D01*
X136089673Y-117264884D01*
X136089579Y-117289167D01*
X136089382Y-117289368D01*
X136089498Y-117310042D01*
X136089496Y-117310710D01*
X136089419Y-117330730D01*
X136089619Y-117331204D01*
X136103960Y-117345384D01*
X136104669Y-117346091D01*
X136118887Y-117360419D01*
X136118889Y-117360419D01*
X136119363Y-117360617D01*
X136119366Y-117360616D01*
X136119368Y-117360618D01*
X136139572Y-117360502D01*
X136140620Y-117360502D01*
X136160723Y-117360580D01*
X136160723Y-117360579D01*
X136183271Y-117360667D01*
X136185378Y-117360243D01*
X139494332Y-117341496D01*
X139561481Y-117360800D01*
X139607535Y-117413344D01*
X139619034Y-117465822D01*
X139587269Y-129481007D01*
X139582131Y-131424820D01*
X139579960Y-132245828D01*
X139560098Y-132312815D01*
X139507173Y-132358430D01*
X139455960Y-132369500D01*
X133300282Y-132369500D01*
X133279638Y-132369273D01*
X133279406Y-132369500D01*
X133279082Y-132369500D01*
X133264918Y-132383662D01*
X133264040Y-132384531D01*
X133249732Y-132398528D01*
X133249500Y-132399072D01*
X133249500Y-132418967D01*
X133249493Y-132420330D01*
X133221376Y-134978893D01*
X133200955Y-135045712D01*
X133147652Y-135090884D01*
X133098850Y-135101521D01*
X130064051Y-135137436D01*
X129996784Y-135118546D01*
X129950407Y-135066288D01*
X129938591Y-135014798D01*
X129938199Y-134978893D01*
X129910500Y-132439798D01*
X129910579Y-132419275D01*
X129910291Y-132418985D01*
X129910287Y-132418555D01*
X129910283Y-132418545D01*
X129896203Y-132404769D01*
X129896203Y-132404768D01*
X129895534Y-132404113D01*
X129881110Y-132389580D01*
X129880676Y-132389578D01*
X129880366Y-132389275D01*
X129880359Y-132389275D01*
X129860713Y-132389488D01*
X129858896Y-132389494D01*
X124793747Y-132370162D01*
X124726783Y-132350222D01*
X124681230Y-132297244D01*
X124670220Y-132246363D01*
X124668895Y-131424822D01*
X126049499Y-131424822D01*
X126058231Y-131468717D01*
X126058232Y-131468721D01*
X126058233Y-131468722D01*
X126091496Y-131518504D01*
X126141278Y-131551767D01*
X126141281Y-131551767D01*
X126141282Y-131551768D01*
X126185177Y-131560500D01*
X126185180Y-131560500D01*
X127414822Y-131560500D01*
X127458717Y-131551768D01*
X127458717Y-131551767D01*
X127458722Y-131551767D01*
X127508504Y-131518504D01*
X127541767Y-131468722D01*
X127550500Y-131424820D01*
X127550500Y-130595180D01*
X127550500Y-130595177D01*
X127541768Y-130551282D01*
X127541767Y-130551281D01*
X127541767Y-130551278D01*
X127508504Y-130501496D01*
X127479317Y-130481994D01*
X127458724Y-130468234D01*
X127458717Y-130468231D01*
X127414822Y-130459500D01*
X127414820Y-130459500D01*
X126185180Y-130459500D01*
X126185178Y-130459500D01*
X126141282Y-130468231D01*
X126141275Y-130468234D01*
X126091496Y-130501495D01*
X126091495Y-130501496D01*
X126058234Y-130551275D01*
X126058231Y-130551282D01*
X126049500Y-130595177D01*
X126049500Y-130595180D01*
X126049500Y-131424820D01*
X126049500Y-131424822D01*
X126049499Y-131424822D01*
X124668895Y-131424822D01*
X124668895Y-131424820D01*
X124663734Y-128224822D01*
X126049499Y-128224822D01*
X126058231Y-128268717D01*
X126058234Y-128268724D01*
X126082431Y-128304937D01*
X126091496Y-128318504D01*
X126141278Y-128351767D01*
X126141281Y-128351767D01*
X126141282Y-128351768D01*
X126185177Y-128360500D01*
X126185180Y-128360500D01*
X127414822Y-128360500D01*
X127458717Y-128351768D01*
X127458717Y-128351767D01*
X127458722Y-128351767D01*
X127508504Y-128318504D01*
X127541767Y-128268722D01*
X127544185Y-128256566D01*
X127550500Y-128224822D01*
X135749499Y-128224822D01*
X135758231Y-128268717D01*
X135758234Y-128268724D01*
X135782431Y-128304937D01*
X135791496Y-128318504D01*
X135841278Y-128351767D01*
X135841281Y-128351767D01*
X135841282Y-128351768D01*
X135885177Y-128360500D01*
X135885180Y-128360500D01*
X137114822Y-128360500D01*
X137158717Y-128351768D01*
X137158717Y-128351767D01*
X137158722Y-128351767D01*
X137208504Y-128318504D01*
X137241767Y-128268722D01*
X137241768Y-128268716D01*
X137246442Y-128257436D01*
X137249585Y-128258738D01*
X137272547Y-128214824D01*
X137333257Y-128180240D01*
X137403027Y-128183969D01*
X137425491Y-128194523D01*
X137438636Y-128202393D01*
X137460859Y-128224616D01*
X137517593Y-128249667D01*
X137524181Y-128253611D01*
X137542886Y-128273863D01*
X137563946Y-128291652D01*
X137566254Y-128299163D01*
X137571587Y-128304937D01*
X137576373Y-128332087D01*
X137584473Y-128358438D01*
X137582354Y-128366005D01*
X137583719Y-128373746D01*
X137573065Y-128399177D01*
X137565634Y-128425720D01*
X137559760Y-128430940D01*
X137556724Y-128438190D01*
X137534017Y-128453821D01*
X137513411Y-128472137D01*
X137510570Y-128473434D01*
X137460863Y-128495382D01*
X137460861Y-128495383D01*
X137460859Y-128495384D01*
X137460858Y-128495384D01*
X137460856Y-128495386D01*
X137385386Y-128570856D01*
X137385381Y-128570863D01*
X137342270Y-128668499D01*
X137339500Y-128692375D01*
X137339500Y-128757534D01*
X137319815Y-128824573D01*
X137267011Y-128870328D01*
X137197853Y-128880272D01*
X137168048Y-128872095D01*
X137158723Y-128868232D01*
X137114822Y-128859500D01*
X137114820Y-128859500D01*
X135885180Y-128859500D01*
X135885178Y-128859500D01*
X135841282Y-128868231D01*
X135841275Y-128868234D01*
X135791496Y-128901495D01*
X135791495Y-128901496D01*
X135758234Y-128951275D01*
X135758231Y-128951282D01*
X135749500Y-128995177D01*
X135749500Y-128995180D01*
X135749500Y-129824820D01*
X135749500Y-129824822D01*
X135749499Y-129824822D01*
X135758231Y-129868717D01*
X135758234Y-129868724D01*
X135791495Y-129918503D01*
X135791496Y-129918504D01*
X135841278Y-129951767D01*
X135841281Y-129951767D01*
X135841282Y-129951768D01*
X135885177Y-129960500D01*
X135885180Y-129960500D01*
X137114822Y-129960500D01*
X137158717Y-129951768D01*
X137158717Y-129951767D01*
X137158722Y-129951767D01*
X137208504Y-129918504D01*
X137241767Y-129868722D01*
X137250500Y-129824820D01*
X137250500Y-129582476D01*
X137270185Y-129515437D01*
X137320696Y-129470757D01*
X137508802Y-129380169D01*
X137621259Y-129309505D01*
X137687232Y-129290499D01*
X138037616Y-129290499D01*
X138037622Y-129290499D01*
X138061498Y-129287730D01*
X138159135Y-129244619D01*
X138159136Y-129244618D01*
X138159141Y-129244616D01*
X138227319Y-129176438D01*
X138228604Y-129175736D01*
X138229336Y-129174466D01*
X138259169Y-129159046D01*
X138288642Y-129142953D01*
X138290103Y-129143057D01*
X138291405Y-129142385D01*
X138324826Y-129145540D01*
X138358334Y-129147937D01*
X138359979Y-129148859D01*
X138360965Y-129148953D01*
X138365659Y-129152046D01*
X138391549Y-129166568D01*
X138404224Y-129176514D01*
X138405384Y-129179141D01*
X138480859Y-129254616D01*
X138533214Y-129277733D01*
X138545449Y-129287334D01*
X138557073Y-129303622D01*
X138572362Y-129316536D01*
X138576955Y-129331479D01*
X138586037Y-129344205D01*
X138587010Y-129364192D01*
X138592890Y-129383322D01*
X138592705Y-129391836D01*
X138590854Y-129424805D01*
X138589297Y-129438624D01*
X138549692Y-129671737D01*
X138546598Y-129685294D01*
X138481141Y-129912508D01*
X138476548Y-129925633D01*
X138386065Y-130144083D01*
X138380032Y-130156612D01*
X138265654Y-130363565D01*
X138258256Y-130375339D01*
X138121424Y-130568187D01*
X138112756Y-130579055D01*
X137966130Y-130743128D01*
X137906785Y-130779998D01*
X137873674Y-130784500D01*
X137374500Y-130784500D01*
X137307461Y-130764815D01*
X137261706Y-130712011D01*
X137250500Y-130660500D01*
X137250500Y-130595177D01*
X137241768Y-130551282D01*
X137241767Y-130551281D01*
X137241767Y-130551278D01*
X137208504Y-130501496D01*
X137179317Y-130481994D01*
X137158724Y-130468234D01*
X137158717Y-130468231D01*
X137114822Y-130459500D01*
X137114820Y-130459500D01*
X135885180Y-130459500D01*
X135885178Y-130459500D01*
X135841282Y-130468231D01*
X135841275Y-130468234D01*
X135791496Y-130501495D01*
X135791495Y-130501496D01*
X135758234Y-130551275D01*
X135758231Y-130551282D01*
X135749500Y-130595177D01*
X135749500Y-130595180D01*
X135749500Y-131424820D01*
X135749500Y-131424822D01*
X135749499Y-131424822D01*
X135758231Y-131468717D01*
X135758232Y-131468721D01*
X135758233Y-131468722D01*
X135791496Y-131518504D01*
X135841278Y-131551767D01*
X135841281Y-131551767D01*
X135841282Y-131551768D01*
X135885177Y-131560500D01*
X135885180Y-131560500D01*
X137114822Y-131560500D01*
X137158717Y-131551768D01*
X137158717Y-131551767D01*
X137158722Y-131551767D01*
X137208504Y-131518504D01*
X137241767Y-131468722D01*
X137250500Y-131424820D01*
X137250500Y-131359500D01*
X137270185Y-131292461D01*
X137322989Y-131246706D01*
X137374500Y-131235500D01*
X137835336Y-131235500D01*
X137841432Y-131235503D01*
X137841459Y-131235510D01*
X137892736Y-131235507D01*
X137892736Y-131235508D01*
X137945209Y-131235505D01*
X138048136Y-131215026D01*
X138048137Y-131215025D01*
X138048139Y-131215025D01*
X138048141Y-131215024D01*
X138062372Y-131209128D01*
X138145091Y-131174862D01*
X138232349Y-131116556D01*
X138233292Y-131115611D01*
X138233373Y-131115549D01*
X138269461Y-131079461D01*
X138269462Y-131079462D01*
X138376035Y-130972890D01*
X138563974Y-130737221D01*
X138724345Y-130481991D01*
X138855129Y-130210409D01*
X138954684Y-129925892D01*
X139021756Y-129632017D01*
X139050129Y-129380169D01*
X139050287Y-129378771D01*
X139077352Y-129314357D01*
X139123417Y-129279220D01*
X139179141Y-129254616D01*
X139254616Y-129179141D01*
X139297730Y-129081498D01*
X139300500Y-129057623D01*
X139300499Y-128702378D01*
X139297730Y-128678502D01*
X139293315Y-128668502D01*
X139254619Y-128580864D01*
X139254617Y-128580861D01*
X139254616Y-128580859D01*
X139179141Y-128505384D01*
X139155587Y-128494984D01*
X139129428Y-128483433D01*
X139076053Y-128438346D01*
X139055526Y-128371560D01*
X139074365Y-128304278D01*
X139126589Y-128257862D01*
X139129344Y-128256603D01*
X139179141Y-128234616D01*
X139254616Y-128159141D01*
X139297730Y-128061498D01*
X139300500Y-128037623D01*
X139300499Y-127682378D01*
X139297730Y-127658502D01*
X139276535Y-127610500D01*
X139254619Y-127560864D01*
X139254617Y-127560861D01*
X139254616Y-127560859D01*
X139179141Y-127485384D01*
X139153121Y-127473895D01*
X139129412Y-127463426D01*
X139076037Y-127418339D01*
X139055510Y-127351553D01*
X139055500Y-127349992D01*
X139055500Y-127033989D01*
X139075185Y-126966950D01*
X139081130Y-126958495D01*
X139082259Y-126957021D01*
X139082269Y-126957012D01*
X139128414Y-126877088D01*
X139152300Y-126787944D01*
X139152300Y-126695656D01*
X139128414Y-126606512D01*
X139116867Y-126586512D01*
X139082273Y-126526594D01*
X139082270Y-126526591D01*
X139082269Y-126526588D01*
X139017012Y-126461331D01*
X139017009Y-126461329D01*
X139017005Y-126461326D01*
X138937093Y-126415188D01*
X138937090Y-126415187D01*
X138937089Y-126415186D01*
X138937088Y-126415186D01*
X138847944Y-126391300D01*
X138755656Y-126391300D01*
X138666512Y-126415186D01*
X138666511Y-126415186D01*
X138666509Y-126415187D01*
X138666506Y-126415188D01*
X138586594Y-126461326D01*
X138586585Y-126461333D01*
X138521333Y-126526585D01*
X138521326Y-126526594D01*
X138475188Y-126606506D01*
X138475187Y-126606509D01*
X138475186Y-126606511D01*
X138475186Y-126606512D01*
X138451300Y-126695656D01*
X138451300Y-126787944D01*
X138469828Y-126857093D01*
X138475187Y-126877090D01*
X138475188Y-126877093D01*
X138521326Y-126957005D01*
X138521333Y-126957014D01*
X138568181Y-127003862D01*
X138601666Y-127065185D01*
X138604500Y-127091543D01*
X138604500Y-127349992D01*
X138584815Y-127417031D01*
X138554598Y-127449417D01*
X138543377Y-127457778D01*
X138480859Y-127485384D01*
X138406317Y-127559925D01*
X138399098Y-127565306D01*
X138374438Y-127574443D01*
X138351358Y-127587047D01*
X138342196Y-127586391D01*
X138333582Y-127589584D01*
X138307896Y-127583938D01*
X138281666Y-127582063D01*
X138272469Y-127576152D01*
X138265341Y-127574586D01*
X138257003Y-127566212D01*
X138237319Y-127553562D01*
X138159143Y-127475386D01*
X138159141Y-127475384D01*
X138126397Y-127460926D01*
X138109412Y-127453426D01*
X138056037Y-127408339D01*
X138035510Y-127341553D01*
X138035500Y-127339992D01*
X138035500Y-126981962D01*
X138052114Y-126919961D01*
X138088411Y-126857093D01*
X138088410Y-126857093D01*
X138088414Y-126857088D01*
X138112300Y-126767944D01*
X138112300Y-126675656D01*
X138088414Y-126586512D01*
X138076793Y-126566384D01*
X138042273Y-126506594D01*
X138042270Y-126506591D01*
X138042269Y-126506588D01*
X137977012Y-126441331D01*
X137977009Y-126441329D01*
X137977005Y-126441326D01*
X137897093Y-126395188D01*
X137897090Y-126395187D01*
X137897089Y-126395186D01*
X137897088Y-126395186D01*
X137807944Y-126371300D01*
X137715656Y-126371300D01*
X137626512Y-126395186D01*
X137626511Y-126395186D01*
X137626509Y-126395187D01*
X137626506Y-126395188D01*
X137546594Y-126441326D01*
X137546585Y-126441333D01*
X137481333Y-126506585D01*
X137481326Y-126506594D01*
X137435188Y-126586506D01*
X137435187Y-126586509D01*
X137435186Y-126586511D01*
X137435186Y-126586512D01*
X137411300Y-126675656D01*
X137411300Y-126767944D01*
X137416658Y-126787942D01*
X137435187Y-126857090D01*
X137435188Y-126857093D01*
X137481326Y-126937005D01*
X137481333Y-126937014D01*
X137548181Y-127003862D01*
X137562884Y-127030789D01*
X137579477Y-127056608D01*
X137580368Y-127062808D01*
X137581666Y-127065185D01*
X137584500Y-127091543D01*
X137584500Y-127339992D01*
X137564815Y-127407031D01*
X137512011Y-127452786D01*
X137510588Y-127453426D01*
X137487941Y-127463426D01*
X137460859Y-127475384D01*
X137460857Y-127475385D01*
X137451382Y-127481877D01*
X137450480Y-127480561D01*
X137400606Y-127507791D01*
X137330915Y-127502802D01*
X137274985Y-127460926D01*
X137251772Y-127401138D01*
X137251689Y-127401155D01*
X137251594Y-127400678D01*
X137250854Y-127398772D01*
X137250500Y-127395179D01*
X137241768Y-127351282D01*
X137241767Y-127351281D01*
X137241767Y-127351278D01*
X137208504Y-127301496D01*
X137208371Y-127301407D01*
X137158724Y-127268234D01*
X137158717Y-127268231D01*
X137114822Y-127259500D01*
X137114820Y-127259500D01*
X135885180Y-127259500D01*
X135885178Y-127259500D01*
X135841282Y-127268231D01*
X135841275Y-127268234D01*
X135791496Y-127301495D01*
X135791495Y-127301496D01*
X135758234Y-127351275D01*
X135758231Y-127351282D01*
X135749500Y-127395177D01*
X135749500Y-127395179D01*
X135749500Y-127395180D01*
X135749500Y-128224820D01*
X135749500Y-128224822D01*
X135749499Y-128224822D01*
X127550500Y-128224822D01*
X127550500Y-127395177D01*
X127541768Y-127351282D01*
X127541767Y-127351281D01*
X127541767Y-127351278D01*
X127508504Y-127301496D01*
X127508371Y-127301407D01*
X127458724Y-127268234D01*
X127458717Y-127268231D01*
X127414822Y-127259500D01*
X127414820Y-127259500D01*
X126185180Y-127259500D01*
X126185178Y-127259500D01*
X126141282Y-127268231D01*
X126141275Y-127268234D01*
X126091496Y-127301495D01*
X126091495Y-127301496D01*
X126058234Y-127351275D01*
X126058231Y-127351282D01*
X126049500Y-127395177D01*
X126049500Y-127395179D01*
X126049500Y-127395180D01*
X126049500Y-128224820D01*
X126049500Y-128224822D01*
X126049499Y-128224822D01*
X124663734Y-128224822D01*
X124662401Y-127398299D01*
X124662386Y-127389288D01*
X124661560Y-126877088D01*
X124661059Y-126566379D01*
X130699500Y-126566379D01*
X130699500Y-126753620D01*
X130736025Y-126937243D01*
X130736027Y-126937251D01*
X130807676Y-127110228D01*
X130807681Y-127110237D01*
X130911697Y-127265907D01*
X130911700Y-127265911D01*
X131044088Y-127398299D01*
X131044092Y-127398302D01*
X131199762Y-127502318D01*
X131199771Y-127502323D01*
X131212972Y-127507791D01*
X131372749Y-127573973D01*
X131556379Y-127610499D01*
X131556383Y-127610500D01*
X131556384Y-127610500D01*
X131743617Y-127610500D01*
X131743618Y-127610499D01*
X131927251Y-127573973D01*
X132100231Y-127502322D01*
X132255908Y-127398302D01*
X132304218Y-127349992D01*
X132352804Y-127301407D01*
X132388299Y-127265911D01*
X132388302Y-127265908D01*
X132492322Y-127110231D01*
X132563973Y-126937251D01*
X132600500Y-126753616D01*
X132600500Y-126566384D01*
X132563973Y-126382749D01*
X132492322Y-126209769D01*
X132492321Y-126209768D01*
X132492318Y-126209762D01*
X132388302Y-126054092D01*
X132388299Y-126054088D01*
X132255911Y-125921700D01*
X132255907Y-125921697D01*
X132100237Y-125817681D01*
X132100228Y-125817676D01*
X131927251Y-125746027D01*
X131927243Y-125746025D01*
X131743620Y-125709500D01*
X131743616Y-125709500D01*
X131556384Y-125709500D01*
X131556379Y-125709500D01*
X131372756Y-125746025D01*
X131372748Y-125746027D01*
X131199771Y-125817676D01*
X131199762Y-125817681D01*
X131044092Y-125921697D01*
X131044088Y-125921700D01*
X130911700Y-126054088D01*
X130911697Y-126054092D01*
X130807681Y-126209762D01*
X130807676Y-126209771D01*
X130736027Y-126382748D01*
X130736025Y-126382756D01*
X130699500Y-126566379D01*
X124661059Y-126566379D01*
X124660484Y-126209769D01*
X124659507Y-125604380D01*
X124989500Y-125604380D01*
X124989500Y-126120619D01*
X124992463Y-126146156D01*
X124992463Y-126146158D01*
X125038597Y-126250640D01*
X125119360Y-126331403D01*
X125223844Y-126377537D01*
X125249384Y-126380500D01*
X125249386Y-126380500D01*
X125650614Y-126380500D01*
X125650616Y-126380500D01*
X125676156Y-126377537D01*
X125780640Y-126331403D01*
X125861403Y-126250640D01*
X125907537Y-126146156D01*
X125910500Y-126120616D01*
X125910500Y-125604384D01*
X125907537Y-125578844D01*
X125902373Y-125567150D01*
X125893302Y-125497874D01*
X125923124Y-125434688D01*
X125982373Y-125397657D01*
X126052237Y-125398536D01*
X126084698Y-125413962D01*
X126091496Y-125418504D01*
X126141278Y-125451767D01*
X126141281Y-125451767D01*
X126141282Y-125451768D01*
X126185177Y-125460500D01*
X126185180Y-125460500D01*
X127414822Y-125460500D01*
X127458717Y-125451768D01*
X127458717Y-125451767D01*
X127458722Y-125451767D01*
X127508504Y-125418504D01*
X127541767Y-125368722D01*
X127546011Y-125347386D01*
X127550500Y-125324822D01*
X135749499Y-125324822D01*
X135758231Y-125368717D01*
X135758234Y-125368724D01*
X135778154Y-125398536D01*
X135791496Y-125418504D01*
X135841278Y-125451767D01*
X135841281Y-125451767D01*
X135841282Y-125451768D01*
X135885177Y-125460500D01*
X135885180Y-125460500D01*
X137114822Y-125460500D01*
X137158717Y-125451768D01*
X137158717Y-125451767D01*
X137158722Y-125451767D01*
X137208504Y-125418504D01*
X137241767Y-125368722D01*
X137246011Y-125347386D01*
X137250500Y-125324822D01*
X137250500Y-124495177D01*
X137241768Y-124451282D01*
X137241767Y-124451281D01*
X137241767Y-124451278D01*
X137208504Y-124401496D01*
X137208503Y-124401495D01*
X137158724Y-124368234D01*
X137158717Y-124368231D01*
X137114822Y-124359500D01*
X137114820Y-124359500D01*
X135885180Y-124359500D01*
X135885178Y-124359500D01*
X135841282Y-124368231D01*
X135841275Y-124368234D01*
X135791496Y-124401495D01*
X135791495Y-124401496D01*
X135758234Y-124451275D01*
X135758231Y-124451282D01*
X135749500Y-124495177D01*
X135749500Y-124495180D01*
X135749500Y-125324820D01*
X135749500Y-125324822D01*
X135749499Y-125324822D01*
X127550500Y-125324822D01*
X127550500Y-124495177D01*
X127541768Y-124451282D01*
X127541767Y-124451281D01*
X127541767Y-124451278D01*
X127508504Y-124401496D01*
X127508503Y-124401495D01*
X127458724Y-124368234D01*
X127458717Y-124368231D01*
X127414822Y-124359500D01*
X127414820Y-124359500D01*
X126185180Y-124359500D01*
X126185178Y-124359500D01*
X126141282Y-124368231D01*
X126141275Y-124368234D01*
X126091496Y-124401495D01*
X126091495Y-124401496D01*
X126058234Y-124451275D01*
X126058231Y-124451282D01*
X126049500Y-124495177D01*
X126049500Y-124560500D01*
X126046949Y-124569185D01*
X126048238Y-124578147D01*
X126037259Y-124602187D01*
X126029815Y-124627539D01*
X126022974Y-124633466D01*
X126019213Y-124641703D01*
X125996978Y-124655992D01*
X125977011Y-124673294D01*
X125966496Y-124675581D01*
X125960435Y-124679477D01*
X125925500Y-124684500D01*
X125892961Y-124684500D01*
X125892929Y-124684497D01*
X125887631Y-124684497D01*
X125887596Y-124684487D01*
X125760255Y-124684493D01*
X125611149Y-124714157D01*
X125470700Y-124772337D01*
X125344297Y-124856799D01*
X125344294Y-124856801D01*
X125326604Y-124874491D01*
X125326595Y-124874499D01*
X125258827Y-124942267D01*
X125224501Y-125025141D01*
X125224500Y-125025146D01*
X125224500Y-125266375D01*
X125204815Y-125333414D01*
X125152011Y-125379169D01*
X125150587Y-125379809D01*
X125119359Y-125393597D01*
X125038597Y-125474359D01*
X124992463Y-125578841D01*
X124992463Y-125578843D01*
X124989500Y-125604380D01*
X124659507Y-125604380D01*
X124659502Y-125601003D01*
X124656858Y-123961774D01*
X124656406Y-123681860D01*
X125966381Y-123681860D01*
X125966382Y-123681870D01*
X125969676Y-123716091D01*
X125980867Y-123769436D01*
X126015536Y-123839339D01*
X126015536Y-123839341D01*
X126015537Y-123839342D01*
X126061292Y-123892146D01*
X126066270Y-123897621D01*
X126066272Y-123897623D01*
X126134995Y-123939513D01*
X126135000Y-123939516D01*
X126202039Y-123959201D01*
X126245850Y-123965500D01*
X126245853Y-123965500D01*
X127218638Y-123965500D01*
X127235261Y-123964609D01*
X127261619Y-123961775D01*
X127319519Y-123943645D01*
X127380842Y-123910160D01*
X127416274Y-123883636D01*
X127445516Y-123854393D01*
X127458722Y-123851767D01*
X127508504Y-123818504D01*
X127541767Y-123768722D01*
X127544393Y-123755516D01*
X127575087Y-123724822D01*
X135749499Y-123724822D01*
X135758231Y-123768717D01*
X135758232Y-123768721D01*
X135758233Y-123768722D01*
X135791496Y-123818504D01*
X135841278Y-123851767D01*
X135841281Y-123851767D01*
X135841282Y-123851768D01*
X135885177Y-123860500D01*
X135885180Y-123860500D01*
X137114822Y-123860500D01*
X137158717Y-123851768D01*
X137158717Y-123851767D01*
X137158722Y-123851767D01*
X137208504Y-123818504D01*
X137241767Y-123768722D01*
X137244394Y-123755516D01*
X137250500Y-123724822D01*
X137250500Y-122895177D01*
X137241768Y-122851282D01*
X137241767Y-122851281D01*
X137241767Y-122851278D01*
X137208504Y-122801496D01*
X137208503Y-122801495D01*
X137158724Y-122768234D01*
X137158717Y-122768231D01*
X137114822Y-122759500D01*
X137114820Y-122759500D01*
X135885180Y-122759500D01*
X135885178Y-122759500D01*
X135841282Y-122768231D01*
X135841275Y-122768234D01*
X135791496Y-122801495D01*
X135791495Y-122801496D01*
X135758234Y-122851275D01*
X135758231Y-122851282D01*
X135749500Y-122895177D01*
X135749500Y-122895180D01*
X135749500Y-123724820D01*
X135749500Y-123724822D01*
X135749499Y-123724822D01*
X127575087Y-123724822D01*
X128073636Y-123226274D01*
X128084761Y-123213889D01*
X128101395Y-123193247D01*
X128129516Y-123139488D01*
X128149201Y-123072449D01*
X128155500Y-123028638D01*
X128155500Y-122072293D01*
X128175185Y-122005254D01*
X128227989Y-121959499D01*
X128280733Y-121948299D01*
X129968500Y-121965094D01*
X129968533Y-121965093D01*
X129968543Y-121965094D01*
X129970120Y-121965089D01*
X129972569Y-121965082D01*
X129979042Y-121964977D01*
X129979048Y-121964976D01*
X129979049Y-121964976D01*
X129990335Y-121963014D01*
X130026593Y-121956714D01*
X130092741Y-121934215D01*
X130132189Y-121914144D01*
X131027612Y-121283693D01*
X131049753Y-121264769D01*
X131081938Y-121231561D01*
X131118986Y-121168787D01*
X131139407Y-121101968D01*
X131146188Y-121058229D01*
X131146667Y-121014627D01*
X131167085Y-120947812D01*
X131220388Y-120902639D01*
X131289652Y-120893455D01*
X131352885Y-120923176D01*
X131358340Y-120928311D01*
X131367235Y-120937206D01*
X131470009Y-120982585D01*
X131495135Y-120985500D01*
X131884864Y-120985499D01*
X131884879Y-120985497D01*
X131884882Y-120985497D01*
X131909987Y-120982586D01*
X131909988Y-120982585D01*
X131909991Y-120982585D01*
X132012765Y-120937206D01*
X132092206Y-120857765D01*
X132092206Y-120857764D01*
X132100331Y-120849640D01*
X132102749Y-120852058D01*
X132141810Y-120820165D01*
X132211230Y-120812249D01*
X132273910Y-120843121D01*
X132279609Y-120849699D01*
X132279669Y-120849640D01*
X132287794Y-120857765D01*
X132367235Y-120937206D01*
X132470009Y-120982585D01*
X132495135Y-120985500D01*
X132884864Y-120985499D01*
X132884879Y-120985497D01*
X132884882Y-120985497D01*
X132909987Y-120982586D01*
X132909988Y-120982585D01*
X132909991Y-120982585D01*
X133012765Y-120937206D01*
X133092206Y-120857765D01*
X133137585Y-120754991D01*
X133140500Y-120729865D01*
X133140499Y-119390136D01*
X133140497Y-119390117D01*
X133137586Y-119365012D01*
X133137585Y-119365010D01*
X133137585Y-119365009D01*
X133092206Y-119262235D01*
X133012765Y-119182794D01*
X132995514Y-119175177D01*
X132909992Y-119137415D01*
X132884865Y-119134500D01*
X132495143Y-119134500D01*
X132495117Y-119134502D01*
X132470012Y-119137413D01*
X132470008Y-119137415D01*
X132367235Y-119182793D01*
X132367234Y-119182794D01*
X132279669Y-119270360D01*
X132277251Y-119267942D01*
X132238171Y-119299842D01*
X132168750Y-119307747D01*
X132106076Y-119276865D01*
X132100389Y-119270301D01*
X132100331Y-119270360D01*
X132012765Y-119182794D01*
X131909992Y-119137415D01*
X131884865Y-119134500D01*
X131495143Y-119134500D01*
X131495117Y-119134502D01*
X131470012Y-119137413D01*
X131470008Y-119137415D01*
X131367236Y-119182793D01*
X131287012Y-119263017D01*
X131225688Y-119296501D01*
X131155997Y-119291517D01*
X131103007Y-119253421D01*
X131087093Y-119233790D01*
X131075884Y-119219963D01*
X131071094Y-119214334D01*
X131071092Y-119214332D01*
X131071091Y-119214331D01*
X131003769Y-119170208D01*
X131003768Y-119170207D01*
X131003767Y-119170207D01*
X130976725Y-119161295D01*
X130937411Y-119148338D01*
X130937407Y-119148337D01*
X130933210Y-119146954D01*
X130933331Y-119146585D01*
X130921574Y-119142528D01*
X130909994Y-119137416D01*
X130909992Y-119137415D01*
X130884868Y-119134500D01*
X130884865Y-119134500D01*
X130709576Y-119134500D01*
X130705513Y-119134433D01*
X130477257Y-119126949D01*
X130477232Y-119126949D01*
X130439912Y-119130242D01*
X130439907Y-119130242D01*
X130381938Y-119142528D01*
X130381322Y-119142659D01*
X130381321Y-119142660D01*
X130381319Y-119142660D01*
X130381318Y-119142661D01*
X130309708Y-119179418D01*
X130257924Y-119226324D01*
X130257922Y-119226327D01*
X130229687Y-119260400D01*
X130229684Y-119260404D01*
X129218789Y-120912305D01*
X129167006Y-120959212D01*
X129113490Y-120971579D01*
X128341204Y-120974493D01*
X128339599Y-120974489D01*
X126327085Y-120956026D01*
X126284723Y-120955638D01*
X126284722Y-120955638D01*
X126284721Y-120955638D01*
X126284720Y-120955638D01*
X126266340Y-120957417D01*
X126252066Y-120958799D01*
X126252063Y-120958799D01*
X126252058Y-120958800D01*
X126201092Y-120969249D01*
X126201091Y-120969249D01*
X126132249Y-121002563D01*
X126078749Y-121047551D01*
X126073223Y-121052427D01*
X126073219Y-121052432D01*
X126030314Y-121120530D01*
X126030311Y-121120537D01*
X126009638Y-121187266D01*
X126009635Y-121187278D01*
X126002689Y-121230984D01*
X126002689Y-121230991D01*
X125973130Y-123226274D01*
X125966381Y-123681860D01*
X124656406Y-123681860D01*
X124650784Y-120196165D01*
X124670361Y-120129095D01*
X124723091Y-120083255D01*
X124775817Y-120071970D01*
X128162969Y-120100275D01*
X128168907Y-120100325D01*
X128169082Y-120100500D01*
X128189793Y-120100500D01*
X128210495Y-120100673D01*
X128210495Y-120100672D01*
X128210503Y-120100673D01*
X128210910Y-120100506D01*
X128210916Y-120100500D01*
X128210918Y-120100500D01*
X128225590Y-120085827D01*
X128240323Y-120071339D01*
X128240324Y-120071135D01*
X128240468Y-120070993D01*
X128240500Y-120070919D01*
X128240500Y-120050182D01*
X128240673Y-120029505D01*
X128240500Y-120029329D01*
X128240500Y-114617912D01*
X128260185Y-114550873D01*
X128312989Y-114505118D01*
X128382147Y-114495174D01*
X128445703Y-114524199D01*
X128453518Y-114532493D01*
X128453744Y-114532268D01*
X128459491Y-114538015D01*
X128561985Y-114640509D01*
X128561986Y-114640510D01*
X128561988Y-114640511D01*
X128687511Y-114712982D01*
X128687512Y-114712982D01*
X128687515Y-114712984D01*
X128827525Y-114750500D01*
X128827528Y-114750500D01*
X128972472Y-114750500D01*
X128972475Y-114750500D01*
X129112485Y-114712984D01*
X129238015Y-114640509D01*
X129340509Y-114538015D01*
X129412984Y-114412485D01*
X129450500Y-114272475D01*
X129450500Y-114127525D01*
X130349500Y-114127525D01*
X130349500Y-114141328D01*
X130349500Y-114272475D01*
X130383270Y-114398504D01*
X130387017Y-114412488D01*
X130459488Y-114538011D01*
X130459490Y-114538013D01*
X130459491Y-114538015D01*
X130561985Y-114640509D01*
X130561986Y-114640510D01*
X130561988Y-114640511D01*
X130687511Y-114712982D01*
X130687512Y-114712982D01*
X130687515Y-114712984D01*
X130827525Y-114750500D01*
X130827528Y-114750500D01*
X130972472Y-114750500D01*
X130972475Y-114750500D01*
X131112485Y-114712984D01*
X131238015Y-114640509D01*
X131340509Y-114538015D01*
X131412984Y-114412485D01*
X131450500Y-114272475D01*
X131450500Y-114127525D01*
X131412984Y-113987515D01*
X131408456Y-113979673D01*
X131340511Y-113861988D01*
X131340506Y-113861982D01*
X131238017Y-113759493D01*
X131238011Y-113759488D01*
X131112488Y-113687017D01*
X131112489Y-113687017D01*
X131099378Y-113683504D01*
X130972475Y-113649500D01*
X130827525Y-113649500D01*
X130700622Y-113683504D01*
X130687511Y-113687017D01*
X130561988Y-113759488D01*
X130561982Y-113759493D01*
X130459493Y-113861982D01*
X130459488Y-113861988D01*
X130387017Y-113987511D01*
X130387016Y-113987515D01*
X130349500Y-114127525D01*
X129450500Y-114127525D01*
X129412984Y-113987515D01*
X129408456Y-113979673D01*
X129340511Y-113861988D01*
X129340506Y-113861982D01*
X129238017Y-113759493D01*
X129238011Y-113759488D01*
X129112488Y-113687017D01*
X129112489Y-113687017D01*
X129099378Y-113683504D01*
X128972475Y-113649500D01*
X128827525Y-113649500D01*
X128700622Y-113683504D01*
X128687511Y-113687017D01*
X128561988Y-113759488D01*
X128561982Y-113759493D01*
X128459493Y-113861982D01*
X128459488Y-113861988D01*
X128387017Y-113987511D01*
X128387016Y-113987515D01*
X128349500Y-114127525D01*
X128349500Y-114127527D01*
X128349500Y-114272476D01*
X128361053Y-114315593D01*
X128360761Y-114327849D01*
X128364998Y-114339356D01*
X128359945Y-114362124D01*
X128359390Y-114385443D01*
X128352516Y-114395597D01*
X128349861Y-114407566D01*
X128333301Y-114423987D01*
X128320227Y-114443305D01*
X128308954Y-114448131D01*
X128300249Y-114456765D01*
X128277437Y-114461627D01*
X128255998Y-114470808D01*
X128242228Y-114469132D01*
X128231915Y-114471331D01*
X128224377Y-114469500D01*
X128210918Y-114469500D01*
X128190687Y-114469500D01*
X128189798Y-114469497D01*
X126519470Y-114457523D01*
X126452573Y-114437358D01*
X126407198Y-114384228D01*
X126397751Y-114315000D01*
X126427231Y-114251654D01*
X126432678Y-114245844D01*
X126438010Y-114240511D01*
X126438015Y-114240509D01*
X126540509Y-114138015D01*
X126612984Y-114012485D01*
X126650500Y-113872475D01*
X126650500Y-113727525D01*
X126612984Y-113587515D01*
X126575950Y-113523371D01*
X126540511Y-113461988D01*
X126540506Y-113461982D01*
X126438017Y-113359493D01*
X126438011Y-113359488D01*
X126312488Y-113287017D01*
X126312489Y-113287017D01*
X126291884Y-113281496D01*
X126172475Y-113249500D01*
X126027525Y-113249500D01*
X125908116Y-113281496D01*
X125887511Y-113287017D01*
X125761988Y-113359488D01*
X125761982Y-113359493D01*
X125659493Y-113461982D01*
X125659486Y-113461991D01*
X125651886Y-113475156D01*
X125601319Y-113523371D01*
X125532712Y-113536593D01*
X125467847Y-113510625D01*
X125427319Y-113453710D01*
X125420500Y-113413155D01*
X125420500Y-113325177D01*
X125411768Y-113281282D01*
X125411767Y-113281281D01*
X125411767Y-113281278D01*
X125378504Y-113231496D01*
X125363881Y-113221725D01*
X125328724Y-113198234D01*
X125328717Y-113198231D01*
X125284822Y-113189500D01*
X125284820Y-113189500D01*
X124489767Y-113189500D01*
X124422728Y-113169815D01*
X124402086Y-113153181D01*
X124008610Y-112759705D01*
X123991170Y-112742264D01*
X123927736Y-112678830D01*
X123927735Y-112678829D01*
X123903457Y-112668772D01*
X123903457Y-112668771D01*
X123844858Y-112644500D01*
X123844856Y-112644499D01*
X123844855Y-112644499D01*
X123755145Y-112644499D01*
X123740711Y-112644499D01*
X123740703Y-112644500D01*
X123479531Y-112644500D01*
X123412492Y-112624815D01*
X123366737Y-112572011D01*
X123356793Y-112502853D01*
X123376429Y-112451610D01*
X123388539Y-112433484D01*
X123411767Y-112398722D01*
X123420500Y-112354820D01*
X123420500Y-111338767D01*
X123440185Y-111271728D01*
X123492989Y-111225973D01*
X123562147Y-111216029D01*
X123625703Y-111245054D01*
X123632181Y-111251086D01*
X124083181Y-111702086D01*
X124116666Y-111763409D01*
X124119500Y-111789767D01*
X124119500Y-112354820D01*
X124119500Y-112354822D01*
X124119499Y-112354822D01*
X124128231Y-112398717D01*
X124128234Y-112398724D01*
X124153813Y-112437006D01*
X124161496Y-112448504D01*
X124211278Y-112481767D01*
X124211281Y-112481767D01*
X124211282Y-112481768D01*
X124255177Y-112490500D01*
X124255180Y-112490500D01*
X125284822Y-112490500D01*
X125328717Y-112481768D01*
X125328717Y-112481767D01*
X125328722Y-112481767D01*
X125373856Y-112451610D01*
X125388659Y-112441719D01*
X125389475Y-112442940D01*
X125438878Y-112415961D01*
X125508570Y-112420940D01*
X125564506Y-112462808D01*
X125585018Y-112505029D01*
X125587016Y-112512485D01*
X125587017Y-112512488D01*
X125659488Y-112638011D01*
X125659490Y-112638013D01*
X125659491Y-112638015D01*
X125761985Y-112740509D01*
X125761986Y-112740510D01*
X125761988Y-112740511D01*
X125887511Y-112812982D01*
X125887512Y-112812982D01*
X125887515Y-112812984D01*
X126027525Y-112850500D01*
X126027528Y-112850500D01*
X126172472Y-112850500D01*
X126172475Y-112850500D01*
X126312485Y-112812984D01*
X126438015Y-112740509D01*
X126540509Y-112638015D01*
X126612984Y-112512485D01*
X126650500Y-112372475D01*
X126650500Y-112227525D01*
X126612984Y-112087515D01*
X126602876Y-112070008D01*
X126540511Y-111961988D01*
X126540506Y-111961982D01*
X126438017Y-111859493D01*
X126438015Y-111859491D01*
X126438012Y-111859489D01*
X126438008Y-111859486D01*
X126424844Y-111851886D01*
X126376629Y-111801319D01*
X126363407Y-111732712D01*
X126389375Y-111667847D01*
X126446290Y-111627319D01*
X126486845Y-111620500D01*
X130613155Y-111620500D01*
X130680194Y-111640185D01*
X130725949Y-111692989D01*
X130735893Y-111762147D01*
X130706868Y-111825703D01*
X130675156Y-111851886D01*
X130661991Y-111859486D01*
X130661982Y-111859493D01*
X130559493Y-111961982D01*
X130559488Y-111961988D01*
X130487017Y-112087511D01*
X130487016Y-112087515D01*
X130449500Y-112227525D01*
X130449500Y-112241328D01*
X130449500Y-112372475D01*
X130479603Y-112484820D01*
X130487017Y-112512488D01*
X130559488Y-112638011D01*
X130559490Y-112638013D01*
X130559491Y-112638015D01*
X130661985Y-112740509D01*
X130661986Y-112740510D01*
X130661988Y-112740511D01*
X130787511Y-112812982D01*
X130787512Y-112812982D01*
X130787515Y-112812984D01*
X130927525Y-112850500D01*
X130927528Y-112850500D01*
X131072472Y-112850500D01*
X131072475Y-112850500D01*
X131158218Y-112827525D01*
X131849500Y-112827525D01*
X131849500Y-112841328D01*
X131849500Y-112972475D01*
X131882366Y-113095131D01*
X131887017Y-113112488D01*
X131959488Y-113238011D01*
X131959490Y-113238013D01*
X131959491Y-113238015D01*
X132061985Y-113340509D01*
X132061986Y-113340510D01*
X132061988Y-113340511D01*
X132187511Y-113412982D01*
X132187512Y-113412982D01*
X132187515Y-113412984D01*
X132327525Y-113450500D01*
X132327528Y-113450500D01*
X132472472Y-113450500D01*
X132472475Y-113450500D01*
X132612485Y-113412984D01*
X132738015Y-113340509D01*
X132840509Y-113238015D01*
X132912984Y-113112485D01*
X132950500Y-112972475D01*
X132950500Y-112827525D01*
X132912984Y-112687515D01*
X132884406Y-112638017D01*
X132840511Y-112561988D01*
X132840506Y-112561982D01*
X132738017Y-112459493D01*
X132738011Y-112459488D01*
X132612488Y-112387017D01*
X132612489Y-112387017D01*
X132601006Y-112383940D01*
X132472475Y-112349500D01*
X132327525Y-112349500D01*
X132198993Y-112383940D01*
X132187511Y-112387017D01*
X132061988Y-112459488D01*
X132061982Y-112459493D01*
X131959493Y-112561982D01*
X131959488Y-112561988D01*
X131887017Y-112687511D01*
X131887016Y-112687515D01*
X131849500Y-112827525D01*
X131158218Y-112827525D01*
X131212485Y-112812984D01*
X131338015Y-112740509D01*
X131440509Y-112638015D01*
X131512984Y-112512485D01*
X131550500Y-112372475D01*
X131550500Y-112227525D01*
X131512984Y-112087515D01*
X131502876Y-112070008D01*
X131440511Y-111961988D01*
X131440506Y-111961982D01*
X131338017Y-111859493D01*
X131338015Y-111859491D01*
X131338012Y-111859489D01*
X131338008Y-111859486D01*
X131324844Y-111851886D01*
X131276629Y-111801319D01*
X131263407Y-111732712D01*
X131289375Y-111667847D01*
X131346290Y-111627319D01*
X131386845Y-111620500D01*
X131650918Y-111620500D01*
X131680500Y-111590918D01*
X131680500Y-108723996D01*
X132244500Y-108723996D01*
X132244500Y-110376008D01*
X132248054Y-110409055D01*
X132259260Y-110460566D01*
X132293686Y-110529342D01*
X132321972Y-110561985D01*
X132339442Y-110582146D01*
X132344420Y-110587621D01*
X132344422Y-110587623D01*
X132407080Y-110625816D01*
X132413150Y-110629516D01*
X132480189Y-110649201D01*
X132524000Y-110655500D01*
X132524003Y-110655500D01*
X133342239Y-110655500D01*
X133409278Y-110675185D01*
X133455033Y-110727989D01*
X133464977Y-110797147D01*
X133455674Y-110829585D01*
X133451296Y-110839501D01*
X133444963Y-110853844D01*
X133442000Y-110879380D01*
X133442000Y-111280619D01*
X133444963Y-111306156D01*
X133444963Y-111306158D01*
X133475802Y-111376000D01*
X133491097Y-111410640D01*
X133571860Y-111491403D01*
X133676344Y-111537537D01*
X133701884Y-111540500D01*
X133701886Y-111540500D01*
X134218114Y-111540500D01*
X134218116Y-111540500D01*
X134243656Y-111537537D01*
X134348140Y-111491403D01*
X134428903Y-111410640D01*
X134475037Y-111306156D01*
X134478000Y-111280616D01*
X134478000Y-110879384D01*
X134475037Y-110853844D01*
X134428903Y-110749360D01*
X134350387Y-110670844D01*
X134316902Y-110609521D01*
X134321886Y-110539829D01*
X134347874Y-110498069D01*
X134365063Y-110479849D01*
X134386014Y-110470599D01*
X134468099Y-110388514D01*
X134482935Y-110354912D01*
X134497565Y-110339406D01*
X134510066Y-110332100D01*
X134519411Y-110321037D01*
X134539629Y-110314822D01*
X134557888Y-110304152D01*
X134572355Y-110304764D01*
X134586197Y-110300510D01*
X134587759Y-110300500D01*
X134674876Y-110300500D01*
X134741915Y-110320185D01*
X134762557Y-110336818D01*
X134834795Y-110409055D01*
X134877635Y-110451895D01*
X134877636Y-110451897D01*
X134948103Y-110522364D01*
X134986240Y-110538160D01*
X135040173Y-110560501D01*
X135040174Y-110560501D01*
X135154262Y-110560501D01*
X135154270Y-110560500D01*
X136323195Y-110560500D01*
X136390234Y-110580185D01*
X136392043Y-110581369D01*
X136441278Y-110614267D01*
X136441280Y-110614267D01*
X136441282Y-110614268D01*
X136485177Y-110623000D01*
X136485180Y-110623000D01*
X136814822Y-110623000D01*
X136858717Y-110614268D01*
X136858717Y-110614267D01*
X136858722Y-110614267D01*
X136908504Y-110581004D01*
X136921214Y-110561982D01*
X136925806Y-110555110D01*
X136979418Y-110510304D01*
X137028908Y-110500000D01*
X138200000Y-110500000D01*
X138200000Y-110027388D01*
X138202383Y-110003196D01*
X138213000Y-109949822D01*
X138213000Y-109634500D01*
X138232685Y-109567461D01*
X138285489Y-109521706D01*
X138337000Y-109510500D01*
X139050233Y-109510500D01*
X139117272Y-109530185D01*
X139137914Y-109546819D01*
X139790969Y-110199875D01*
X139824454Y-110261198D01*
X139826462Y-110273271D01*
X139827510Y-110282314D01*
X139827513Y-110282324D01*
X139874400Y-110388513D01*
X139956487Y-110470600D01*
X139959554Y-110472701D01*
X139963846Y-110477959D01*
X139964611Y-110478724D01*
X139964533Y-110478801D01*
X140003737Y-110526827D01*
X140011643Y-110596248D01*
X139980762Y-110658923D01*
X139959554Y-110677299D01*
X139956487Y-110679399D01*
X139874401Y-110761485D01*
X139827512Y-110867678D01*
X139824500Y-110893639D01*
X139824500Y-111306348D01*
X139824502Y-111306372D01*
X139827510Y-111332314D01*
X139827513Y-111332324D01*
X139874400Y-111438513D01*
X139874401Y-111438514D01*
X139956486Y-111520599D01*
X140062680Y-111567488D01*
X140088643Y-111570500D01*
X140576356Y-111570499D01*
X140584876Y-111569511D01*
X140602314Y-111567489D01*
X140602315Y-111567488D01*
X140602320Y-111567488D01*
X140708514Y-111520599D01*
X140774050Y-111455062D01*
X140835369Y-111421580D01*
X140905061Y-111426564D01*
X140960995Y-111468435D01*
X140972611Y-111487240D01*
X140993686Y-111529341D01*
X140993686Y-111529342D01*
X141033524Y-111575316D01*
X141039442Y-111582146D01*
X141044420Y-111587621D01*
X141044422Y-111587623D01*
X141098792Y-111620764D01*
X141113150Y-111629516D01*
X141180189Y-111649201D01*
X141224000Y-111655500D01*
X141224003Y-111655500D01*
X141875991Y-111655500D01*
X141876000Y-111655500D01*
X141909055Y-111651946D01*
X141960566Y-111640740D01*
X142029342Y-111606313D01*
X142082146Y-111560558D01*
X142087621Y-111555580D01*
X142092100Y-111548233D01*
X142100505Y-111534443D01*
X142129516Y-111486850D01*
X142149201Y-111419811D01*
X142155500Y-111376000D01*
X142155500Y-110527525D01*
X142849500Y-110527525D01*
X142849500Y-110541328D01*
X142849500Y-110672475D01*
X142882906Y-110797147D01*
X142887017Y-110812488D01*
X142959488Y-110938011D01*
X142959490Y-110938013D01*
X142959491Y-110938015D01*
X143061985Y-111040509D01*
X143061986Y-111040510D01*
X143061988Y-111040511D01*
X143187511Y-111112982D01*
X143187512Y-111112982D01*
X143187515Y-111112984D01*
X143327525Y-111150500D01*
X143327528Y-111150500D01*
X143472472Y-111150500D01*
X143472475Y-111150500D01*
X143612485Y-111112984D01*
X143738015Y-111040509D01*
X143840509Y-110938015D01*
X143912984Y-110812485D01*
X143950500Y-110672475D01*
X143950500Y-110527525D01*
X143912984Y-110387515D01*
X143912696Y-110387017D01*
X143840511Y-110261988D01*
X143840506Y-110261982D01*
X143738017Y-110159493D01*
X143738011Y-110159488D01*
X143612488Y-110087017D01*
X143612489Y-110087017D01*
X143601006Y-110083940D01*
X143472475Y-110049500D01*
X143327525Y-110049500D01*
X143198993Y-110083940D01*
X143187511Y-110087017D01*
X143061988Y-110159488D01*
X143061982Y-110159493D01*
X142959493Y-110261982D01*
X142959488Y-110261988D01*
X142887017Y-110387511D01*
X142887016Y-110387515D01*
X142849500Y-110527525D01*
X142155500Y-110527525D01*
X142155500Y-107724000D01*
X142151946Y-107690945D01*
X142140740Y-107639434D01*
X142123545Y-107605084D01*
X142106313Y-107570657D01*
X142060563Y-107517860D01*
X142055577Y-107512376D01*
X141986854Y-107470486D01*
X141986848Y-107470483D01*
X141919812Y-107450799D01*
X141919802Y-107450797D01*
X141876003Y-107444500D01*
X141876000Y-107444500D01*
X141224000Y-107444500D01*
X141223991Y-107444500D01*
X141190944Y-107448054D01*
X141139433Y-107459260D01*
X141070657Y-107493686D01*
X141017860Y-107539436D01*
X141012376Y-107544422D01*
X140969907Y-107614094D01*
X140918206Y-107661091D01*
X140849303Y-107672676D01*
X140785076Y-107645170D01*
X140776347Y-107637234D01*
X140708514Y-107569401D01*
X140602321Y-107522512D01*
X140576357Y-107519500D01*
X140088651Y-107519500D01*
X140088627Y-107519502D01*
X140062685Y-107522510D01*
X140062675Y-107522513D01*
X139956486Y-107569400D01*
X139874402Y-107651484D01*
X139874401Y-107651485D01*
X139874401Y-107651486D01*
X139857136Y-107690587D01*
X139812052Y-107743962D01*
X139745266Y-107764490D01*
X139743703Y-107764500D01*
X137800267Y-107764500D01*
X137733228Y-107744815D01*
X137712586Y-107728181D01*
X137371463Y-107387058D01*
X137337978Y-107325735D01*
X137341878Y-107271195D01*
X137339385Y-107270700D01*
X137350500Y-107214822D01*
X137649499Y-107214822D01*
X137658231Y-107258717D01*
X137658232Y-107258721D01*
X137658233Y-107258722D01*
X137691496Y-107308504D01*
X137741278Y-107341767D01*
X137741281Y-107341767D01*
X137741282Y-107341768D01*
X137785177Y-107350500D01*
X137785180Y-107350500D01*
X138814822Y-107350500D01*
X138858717Y-107341768D01*
X138858717Y-107341767D01*
X138858722Y-107341767D01*
X138908504Y-107308504D01*
X138941767Y-107258722D01*
X138950500Y-107214820D01*
X138950500Y-106185180D01*
X138950500Y-106185177D01*
X138941768Y-106141282D01*
X138941767Y-106141281D01*
X138941767Y-106141278D01*
X138908504Y-106091496D01*
X138908503Y-106091495D01*
X138858724Y-106058234D01*
X138858717Y-106058231D01*
X138814822Y-106049500D01*
X138814820Y-106049500D01*
X137785180Y-106049500D01*
X137785178Y-106049500D01*
X137741282Y-106058231D01*
X137741275Y-106058234D01*
X137691496Y-106091495D01*
X137691495Y-106091496D01*
X137658234Y-106141275D01*
X137658231Y-106141282D01*
X137649500Y-106185177D01*
X137649500Y-106185180D01*
X137649500Y-107214820D01*
X137649500Y-107214822D01*
X137649499Y-107214822D01*
X137350500Y-107214822D01*
X137350500Y-106185177D01*
X137341768Y-106141282D01*
X137341767Y-106141281D01*
X137341767Y-106141278D01*
X137308504Y-106091496D01*
X137308503Y-106091495D01*
X137258724Y-106058234D01*
X137258717Y-106058231D01*
X137214822Y-106049500D01*
X137214820Y-106049500D01*
X136185180Y-106049500D01*
X136185178Y-106049500D01*
X136141282Y-106058231D01*
X136141275Y-106058234D01*
X136091496Y-106091495D01*
X136091495Y-106091496D01*
X136058234Y-106141275D01*
X136058231Y-106141282D01*
X136049500Y-106185177D01*
X136049500Y-106185180D01*
X136049500Y-107214820D01*
X136049500Y-107214822D01*
X136049499Y-107214822D01*
X136058231Y-107258717D01*
X136058232Y-107258721D01*
X136058233Y-107258722D01*
X136091496Y-107308504D01*
X136141278Y-107341767D01*
X136141281Y-107341767D01*
X136141282Y-107341768D01*
X136185177Y-107350500D01*
X136185180Y-107350500D01*
X136645733Y-107350500D01*
X136712772Y-107370185D01*
X136733414Y-107386819D01*
X137248913Y-107902318D01*
X137282398Y-107963641D01*
X137277414Y-108033333D01*
X137248913Y-108077680D01*
X137025283Y-108301310D01*
X137025276Y-108301317D01*
X137022265Y-108304329D01*
X137022264Y-108304330D01*
X136958830Y-108367764D01*
X136958830Y-108367765D01*
X136951075Y-108386484D01*
X136951073Y-108386488D01*
X136935761Y-108423454D01*
X136891920Y-108477857D01*
X136825625Y-108499921D01*
X136821201Y-108500000D01*
X136200000Y-108500000D01*
X136200000Y-108910500D01*
X136197449Y-108919185D01*
X136198738Y-108928147D01*
X136187759Y-108952187D01*
X136180315Y-108977539D01*
X136173474Y-108983466D01*
X136169713Y-108991703D01*
X136147478Y-109005992D01*
X136127511Y-109023294D01*
X136116996Y-109025581D01*
X136110935Y-109029477D01*
X136076000Y-109034500D01*
X136038375Y-109034500D01*
X135971336Y-109014815D01*
X135932905Y-108970463D01*
X135930677Y-108971750D01*
X135919999Y-108953256D01*
X135880469Y-108884788D01*
X135815212Y-108819531D01*
X135815209Y-108819529D01*
X135815205Y-108819526D01*
X135735293Y-108773388D01*
X135727784Y-108770278D01*
X135729064Y-108767185D01*
X135682655Y-108738827D01*
X135652194Y-108675947D01*
X135650500Y-108655518D01*
X135650500Y-107413539D01*
X135670185Y-107346500D01*
X135705611Y-107310436D01*
X135708504Y-107308504D01*
X135741767Y-107258722D01*
X135750500Y-107214820D01*
X135750500Y-106185180D01*
X135750500Y-106185177D01*
X135741768Y-106141282D01*
X135741767Y-106141281D01*
X135741767Y-106141278D01*
X135708504Y-106091496D01*
X135708503Y-106091495D01*
X135658724Y-106058234D01*
X135658717Y-106058231D01*
X135614822Y-106049500D01*
X135614820Y-106049500D01*
X134585180Y-106049500D01*
X134585178Y-106049500D01*
X134541282Y-106058231D01*
X134541275Y-106058234D01*
X134491496Y-106091495D01*
X134491495Y-106091496D01*
X134458234Y-106141275D01*
X134458231Y-106141282D01*
X134449500Y-106185177D01*
X134449500Y-106185180D01*
X134449500Y-107214820D01*
X134449500Y-107214822D01*
X134449499Y-107214822D01*
X134458231Y-107258717D01*
X134458232Y-107258721D01*
X134458233Y-107258722D01*
X134491496Y-107308504D01*
X134541278Y-107341767D01*
X134541281Y-107341767D01*
X134541282Y-107341768D01*
X134585177Y-107350500D01*
X134585180Y-107350500D01*
X135025500Y-107350500D01*
X135092539Y-107370185D01*
X135138294Y-107422989D01*
X135149500Y-107474500D01*
X135149500Y-108955167D01*
X135129815Y-109022206D01*
X135077011Y-109067961D01*
X135007853Y-109077905D01*
X134944297Y-109048880D01*
X134937819Y-109042848D01*
X134644510Y-108749539D01*
X134607267Y-108728037D01*
X134607264Y-108728036D01*
X134600274Y-108724000D01*
X134575989Y-108709979D01*
X134541559Y-108700753D01*
X134534001Y-108697615D01*
X134512925Y-108680600D01*
X134489798Y-108666503D01*
X134479791Y-108653851D01*
X134479636Y-108653726D01*
X134479595Y-108653603D01*
X134479258Y-108653177D01*
X134478100Y-108651487D01*
X134395759Y-108569146D01*
X134362274Y-108507823D01*
X134367258Y-108438131D01*
X134395759Y-108393784D01*
X134421779Y-108367764D01*
X134478903Y-108310640D01*
X134525037Y-108206156D01*
X134528000Y-108180616D01*
X134528000Y-107779384D01*
X134525037Y-107753844D01*
X134521050Y-107744815D01*
X134497264Y-107690944D01*
X134478903Y-107649360D01*
X134398140Y-107568597D01*
X134343389Y-107544422D01*
X134293657Y-107522463D01*
X134268119Y-107519500D01*
X134268116Y-107519500D01*
X133751884Y-107519500D01*
X133751880Y-107519500D01*
X133726343Y-107522463D01*
X133726341Y-107522463D01*
X133621859Y-107568597D01*
X133541097Y-107649359D01*
X133494963Y-107753841D01*
X133494963Y-107753843D01*
X133492000Y-107779380D01*
X133492000Y-108180619D01*
X133494963Y-108206156D01*
X133494963Y-108206157D01*
X133525032Y-108274255D01*
X133534104Y-108343533D01*
X133504281Y-108406718D01*
X133445032Y-108443750D01*
X133393958Y-108447081D01*
X133376002Y-108444500D01*
X133376000Y-108444500D01*
X132524000Y-108444500D01*
X132523991Y-108444500D01*
X132490944Y-108448054D01*
X132439433Y-108459260D01*
X132370657Y-108493686D01*
X132317860Y-108539436D01*
X132312376Y-108544422D01*
X132270486Y-108613145D01*
X132270483Y-108613151D01*
X132250799Y-108680187D01*
X132250797Y-108680197D01*
X132244500Y-108723996D01*
X131680500Y-108723996D01*
X131680500Y-105725991D01*
X131700185Y-105658952D01*
X131752989Y-105613197D01*
X131805107Y-105601993D01*
X138278852Y-105633938D01*
X138288979Y-105633988D01*
X138289082Y-105634091D01*
X138309794Y-105634091D01*
X138330668Y-105634194D01*
X138330916Y-105634091D01*
X138330918Y-105634091D01*
X138345633Y-105619375D01*
X138360396Y-105604758D01*
X138360396Y-105604753D01*
X138360497Y-105604511D01*
X138360500Y-105604509D01*
X138360500Y-105583636D01*
X138360602Y-105562922D01*
X138360500Y-105562818D01*
X138360500Y-104438386D01*
X138380185Y-104371347D01*
X138432989Y-104325592D01*
X138502147Y-104315648D01*
X138565703Y-104344673D01*
X138572181Y-104350705D01*
X138661985Y-104440509D01*
X138661986Y-104440510D01*
X138661988Y-104440511D01*
X138787511Y-104512982D01*
X138787512Y-104512982D01*
X138787515Y-104512984D01*
X138927525Y-104550500D01*
X138927528Y-104550500D01*
X139072472Y-104550500D01*
X139072475Y-104550500D01*
X139212485Y-104512984D01*
X139338015Y-104440509D01*
X139440509Y-104338015D01*
X139512984Y-104212485D01*
X139550500Y-104072475D01*
X139550500Y-103927525D01*
X140049500Y-103927525D01*
X140049500Y-103941328D01*
X140049500Y-104072475D01*
X140087016Y-104212485D01*
X140087017Y-104212488D01*
X140159488Y-104338011D01*
X140159490Y-104338013D01*
X140159491Y-104338015D01*
X140261985Y-104440509D01*
X140261986Y-104440510D01*
X140261988Y-104440511D01*
X140387511Y-104512982D01*
X140387512Y-104512982D01*
X140387515Y-104512984D01*
X140527525Y-104550500D01*
X140527528Y-104550500D01*
X140672472Y-104550500D01*
X140672475Y-104550500D01*
X140812485Y-104512984D01*
X140938015Y-104440509D01*
X141040509Y-104338015D01*
X141112984Y-104212485D01*
X141150500Y-104072475D01*
X141150500Y-103927525D01*
X141112984Y-103787515D01*
X141040509Y-103661985D01*
X140938015Y-103559491D01*
X140938013Y-103559490D01*
X140938011Y-103559488D01*
X140812488Y-103487017D01*
X140812489Y-103487017D01*
X140801006Y-103483940D01*
X140672475Y-103449500D01*
X140527525Y-103449500D01*
X140398993Y-103483940D01*
X140387511Y-103487017D01*
X140261988Y-103559488D01*
X140261982Y-103559493D01*
X140159493Y-103661982D01*
X140159488Y-103661988D01*
X140087017Y-103787511D01*
X140087016Y-103787515D01*
X140049500Y-103927525D01*
X139550500Y-103927525D01*
X139512984Y-103787515D01*
X139440509Y-103661985D01*
X139338015Y-103559491D01*
X139338013Y-103559490D01*
X139338011Y-103559488D01*
X139212488Y-103487017D01*
X139212489Y-103487017D01*
X139201006Y-103483940D01*
X139072475Y-103449500D01*
X138927525Y-103449500D01*
X138798993Y-103483940D01*
X138787511Y-103487017D01*
X138661988Y-103559488D01*
X138661982Y-103559493D01*
X138572181Y-103649295D01*
X138510858Y-103682780D01*
X138441166Y-103677796D01*
X138385233Y-103635924D01*
X138360816Y-103570460D01*
X138360500Y-103561614D01*
X138360500Y-99738386D01*
X138380185Y-99671347D01*
X138432989Y-99625592D01*
X138502147Y-99615648D01*
X138565703Y-99644673D01*
X138572181Y-99650705D01*
X138661985Y-99740509D01*
X138661986Y-99740510D01*
X138661988Y-99740511D01*
X138787511Y-99812982D01*
X138787512Y-99812982D01*
X138787515Y-99812984D01*
X138927525Y-99850500D01*
X138927528Y-99850500D01*
X139072472Y-99850500D01*
X139072475Y-99850500D01*
X139212485Y-99812984D01*
X139338015Y-99740509D01*
X139440509Y-99638015D01*
X139512984Y-99512485D01*
X139550500Y-99372475D01*
X139550500Y-99227525D01*
X140049500Y-99227525D01*
X140049500Y-99241328D01*
X140049500Y-99372475D01*
X140087016Y-99512485D01*
X140087017Y-99512488D01*
X140159488Y-99638011D01*
X140159490Y-99638013D01*
X140159491Y-99638015D01*
X140261985Y-99740509D01*
X140261986Y-99740510D01*
X140261988Y-99740511D01*
X140387511Y-99812982D01*
X140387512Y-99812982D01*
X140387515Y-99812984D01*
X140527525Y-99850500D01*
X140527528Y-99850500D01*
X140672472Y-99850500D01*
X140672475Y-99850500D01*
X140812485Y-99812984D01*
X140938015Y-99740509D01*
X141040509Y-99638015D01*
X141112984Y-99512485D01*
X141150500Y-99372475D01*
X141150500Y-99227525D01*
X141112984Y-99087515D01*
X141047681Y-98974408D01*
X141040511Y-98961988D01*
X141040506Y-98961982D01*
X140938017Y-98859493D01*
X140938011Y-98859488D01*
X140812488Y-98787017D01*
X140812489Y-98787017D01*
X140801006Y-98783940D01*
X140672475Y-98749500D01*
X140527525Y-98749500D01*
X140398993Y-98783940D01*
X140387511Y-98787017D01*
X140261988Y-98859488D01*
X140261982Y-98859493D01*
X140159493Y-98961982D01*
X140159488Y-98961988D01*
X140087017Y-99087511D01*
X140087016Y-99087515D01*
X140049500Y-99227525D01*
X139550500Y-99227525D01*
X139512984Y-99087515D01*
X139447681Y-98974408D01*
X139440511Y-98961988D01*
X139440506Y-98961982D01*
X139338017Y-98859493D01*
X139338011Y-98859488D01*
X139212488Y-98787017D01*
X139212489Y-98787017D01*
X139201006Y-98783940D01*
X139072475Y-98749500D01*
X138927525Y-98749500D01*
X138798993Y-98783940D01*
X138787511Y-98787017D01*
X138661988Y-98859488D01*
X138661982Y-98859493D01*
X138572181Y-98949295D01*
X138552744Y-98959907D01*
X138536011Y-98974408D01*
X138522679Y-98976324D01*
X138510858Y-98982780D01*
X138488771Y-98981200D01*
X138466853Y-98984352D01*
X138454601Y-98978756D01*
X138441166Y-98977796D01*
X138423439Y-98964525D01*
X138403297Y-98955327D01*
X138396014Y-98943995D01*
X138385233Y-98935924D01*
X138377495Y-98915178D01*
X138365523Y-98896549D01*
X138362371Y-98874630D01*
X138360816Y-98870460D01*
X138360500Y-98861614D01*
X138360500Y-98680117D01*
X138360521Y-98670945D01*
X138360549Y-98659199D01*
X138360547Y-98659197D01*
X138360548Y-98659197D01*
X138360502Y-98659084D01*
X138345900Y-98644482D01*
X138331036Y-98629549D01*
X138330966Y-98629548D01*
X138330918Y-98629500D01*
X138309966Y-98629500D01*
X125584119Y-98599903D01*
X125517125Y-98580062D01*
X125471493Y-98527152D01*
X125460407Y-98475969D01*
X125460220Y-98124347D01*
X125457813Y-93595083D01*
X125477462Y-93528036D01*
X125530242Y-93482253D01*
X125599395Y-93472273D01*
X125631900Y-93481586D01*
X125688499Y-93506577D01*
X125688500Y-93506577D01*
X125688502Y-93506578D01*
X125712377Y-93509348D01*
X126167622Y-93509347D01*
X126184441Y-93507396D01*
X126186213Y-93507191D01*
X126255074Y-93519020D01*
X126306608Y-93566201D01*
X126324500Y-93630365D01*
X126324500Y-94723990D01*
X126324499Y-94723993D01*
X126324499Y-94813703D01*
X126325190Y-94815370D01*
X126332972Y-94834159D01*
X126332973Y-94834161D01*
X126358830Y-94896584D01*
X126439700Y-94977454D01*
X126439706Y-94977459D01*
X127718181Y-96255934D01*
X127751666Y-96317257D01*
X127754500Y-96343615D01*
X127754500Y-96988668D01*
X127754500Y-96988670D01*
X127754499Y-96988670D01*
X127763231Y-97032565D01*
X127763234Y-97032572D01*
X127796495Y-97082351D01*
X127799732Y-97084514D01*
X127844538Y-97138126D01*
X127853247Y-97207450D01*
X127838230Y-97249617D01*
X127793720Y-97326709D01*
X127793720Y-97326710D01*
X127793719Y-97326712D01*
X127793719Y-97326713D01*
X127754500Y-97473082D01*
X127754500Y-97624614D01*
X127774109Y-97697798D01*
X127793719Y-97770984D01*
X127821025Y-97818278D01*
X127869485Y-97902213D01*
X127976635Y-98009363D01*
X128107865Y-98085129D01*
X128254234Y-98124348D01*
X128254236Y-98124348D01*
X128405764Y-98124348D01*
X128405766Y-98124348D01*
X128552135Y-98085129D01*
X128683365Y-98009363D01*
X128790515Y-97902213D01*
X128866281Y-97770983D01*
X128894074Y-97667253D01*
X128930439Y-97607594D01*
X128993286Y-97577065D01*
X129013849Y-97575348D01*
X129095560Y-97575348D01*
X129095562Y-97575348D01*
X129171989Y-97554869D01*
X129240511Y-97515308D01*
X129296460Y-97459359D01*
X129296463Y-97459352D01*
X129301410Y-97452908D01*
X129303236Y-97454309D01*
X129345215Y-97414284D01*
X129402034Y-97400500D01*
X134718408Y-97400500D01*
X134718410Y-97400500D01*
X134794837Y-97380021D01*
X134863359Y-97340460D01*
X134919308Y-97284511D01*
X136140460Y-96063359D01*
X136151328Y-96044534D01*
X136201895Y-95996319D01*
X136270502Y-95983096D01*
X136282907Y-95984918D01*
X136305177Y-95989348D01*
X136305180Y-95989348D01*
X137334822Y-95989348D01*
X137378717Y-95980616D01*
X137378717Y-95980615D01*
X137378722Y-95980615D01*
X137428504Y-95947352D01*
X137461767Y-95897570D01*
X137466522Y-95873668D01*
X137470500Y-95853670D01*
X137470500Y-93824025D01*
X137461768Y-93780130D01*
X137461767Y-93780129D01*
X137461767Y-93780126D01*
X137428504Y-93730344D01*
X137408656Y-93717082D01*
X137378724Y-93697082D01*
X137378717Y-93697079D01*
X137334822Y-93688348D01*
X137334820Y-93688348D01*
X136324500Y-93688348D01*
X136257461Y-93668663D01*
X136211706Y-93615859D01*
X136200500Y-93564348D01*
X136200500Y-88713743D01*
X136217115Y-88651740D01*
X136226613Y-88635289D01*
X136226614Y-88635288D01*
X136250500Y-88546144D01*
X136250500Y-88453856D01*
X136226614Y-88364712D01*
X136217113Y-88348256D01*
X136200500Y-88286255D01*
X136200500Y-88120439D01*
X136199100Y-88115214D01*
X136199100Y-88115212D01*
X136180022Y-88044012D01*
X136140460Y-87975489D01*
X136003626Y-87838655D01*
X135998994Y-87831723D01*
X135994755Y-87828780D01*
X135987547Y-87814591D01*
X135976746Y-87798426D01*
X135973634Y-87790914D01*
X135966614Y-87764712D01*
X135953051Y-87741221D01*
X135949939Y-87733707D01*
X135947743Y-87713289D01*
X135940500Y-87686255D01*
X135940500Y-87413743D01*
X135957115Y-87351740D01*
X135963818Y-87340130D01*
X135966614Y-87335288D01*
X135990500Y-87246144D01*
X135990500Y-87153856D01*
X135966614Y-87064712D01*
X135957113Y-87048256D01*
X135940500Y-86986255D01*
X135940500Y-82234681D01*
X135960185Y-82167642D01*
X135976819Y-82147000D01*
X142477819Y-75646000D01*
X142539142Y-75612515D01*
X142608834Y-75617499D01*
G37*
%TD.AperFunction*%
%TA.AperFunction,Conductor*%
G36*
X109405888Y-104339630D02*
G01*
X111252284Y-105500027D01*
X114688421Y-107659522D01*
X114756107Y-107702060D01*
X114778249Y-107719811D01*
X114778825Y-107720392D01*
X114778827Y-107720394D01*
X114778829Y-107720394D01*
X114784632Y-107722832D01*
X114790837Y-107723886D01*
X114790839Y-107723888D01*
X114791639Y-107723705D01*
X114819843Y-107720601D01*
X122618700Y-107760037D01*
X122685637Y-107780060D01*
X122720135Y-107813616D01*
X122973337Y-108180616D01*
X123467665Y-108897116D01*
X123480508Y-108915730D01*
X123480508Y-108920918D01*
X123492050Y-108932460D01*
X123501320Y-108945896D01*
X123502079Y-108946387D01*
X123505292Y-108948984D01*
X123509262Y-108950156D01*
X123510088Y-108950498D01*
X123510090Y-108950500D01*
X123515132Y-108950500D01*
X123537508Y-108952535D01*
X123542469Y-108953446D01*
X123542471Y-108953444D01*
X123543354Y-108953256D01*
X123569352Y-108950500D01*
X125325500Y-108950500D01*
X125392539Y-108970185D01*
X125438294Y-109022989D01*
X125449500Y-109074500D01*
X125449500Y-111071162D01*
X125429815Y-111138201D01*
X125377011Y-111183956D01*
X125307853Y-111193900D01*
X125301310Y-111192780D01*
X125284820Y-111189500D01*
X124259767Y-111189500D01*
X124192728Y-111169815D01*
X124172086Y-111153181D01*
X123314292Y-110295387D01*
X123291170Y-110272265D01*
X123291170Y-110272264D01*
X123227736Y-110208830D01*
X123186856Y-110191897D01*
X123169520Y-110184716D01*
X123144857Y-110174499D01*
X123144855Y-110174499D01*
X123055145Y-110174499D01*
X123040711Y-110174499D01*
X123040703Y-110174500D01*
X119755154Y-110174500D01*
X119688115Y-110154815D01*
X119642360Y-110102011D01*
X119635881Y-110078782D01*
X119635035Y-110079013D01*
X119632585Y-110070013D01*
X119632585Y-110070009D01*
X119587206Y-109967235D01*
X119507765Y-109887794D01*
X119507763Y-109887793D01*
X119404992Y-109842415D01*
X119379865Y-109839500D01*
X118040143Y-109839500D01*
X118040117Y-109839502D01*
X118015012Y-109842413D01*
X118015008Y-109842415D01*
X117912235Y-109887793D01*
X117832794Y-109967234D01*
X117787415Y-110070006D01*
X117787415Y-110070008D01*
X117784500Y-110095131D01*
X117784500Y-110484856D01*
X117784502Y-110484882D01*
X117787413Y-110509987D01*
X117787415Y-110509991D01*
X117832793Y-110612764D01*
X117920360Y-110700331D01*
X117917942Y-110702748D01*
X117949842Y-110741829D01*
X117957747Y-110811250D01*
X117926865Y-110873924D01*
X117920301Y-110879610D01*
X117920360Y-110879669D01*
X117832794Y-110967234D01*
X117787415Y-111070006D01*
X117787415Y-111070008D01*
X117784500Y-111095131D01*
X117784500Y-111484856D01*
X117784502Y-111484882D01*
X117787413Y-111509987D01*
X117787415Y-111509991D01*
X117832793Y-111612764D01*
X117920360Y-111700331D01*
X117917942Y-111702748D01*
X117949842Y-111741829D01*
X117957747Y-111811250D01*
X117926865Y-111873924D01*
X117920301Y-111879610D01*
X117920360Y-111879669D01*
X117832794Y-111967234D01*
X117787415Y-112070006D01*
X117787415Y-112070008D01*
X117784500Y-112095131D01*
X117784500Y-112484856D01*
X117784502Y-112484882D01*
X117787413Y-112509987D01*
X117787415Y-112509991D01*
X117832793Y-112612764D01*
X117920360Y-112700331D01*
X117917942Y-112702748D01*
X117949842Y-112741829D01*
X117957747Y-112811250D01*
X117926865Y-112873924D01*
X117920301Y-112879610D01*
X117920360Y-112879669D01*
X117832794Y-112967234D01*
X117787415Y-113070006D01*
X117787415Y-113070008D01*
X117784500Y-113095131D01*
X117784500Y-113289457D01*
X117764815Y-113356496D01*
X117712011Y-113402251D01*
X117642853Y-113412195D01*
X117579297Y-113383170D01*
X117572819Y-113377138D01*
X117515214Y-113319533D01*
X117515212Y-113319531D01*
X117515209Y-113319529D01*
X117515205Y-113319526D01*
X117435293Y-113273388D01*
X117435290Y-113273387D01*
X117435289Y-113273386D01*
X117435288Y-113273386D01*
X117346144Y-113249500D01*
X117253856Y-113249500D01*
X117164712Y-113273386D01*
X117164711Y-113273386D01*
X117164709Y-113273387D01*
X117164706Y-113273388D01*
X117084794Y-113319526D01*
X117084785Y-113319533D01*
X117066138Y-113338181D01*
X117004815Y-113371666D01*
X116978457Y-113374500D01*
X116564768Y-113374500D01*
X116497729Y-113354815D01*
X116477087Y-113338181D01*
X115048611Y-111909706D01*
X115048610Y-111909705D01*
X115031170Y-111892264D01*
X114967736Y-111828830D01*
X114967735Y-111828829D01*
X114943457Y-111818772D01*
X114943457Y-111818771D01*
X114884858Y-111794500D01*
X114884856Y-111794499D01*
X114884855Y-111794499D01*
X114795145Y-111794499D01*
X114780711Y-111794499D01*
X114780703Y-111794500D01*
X113674500Y-111794500D01*
X113607461Y-111774815D01*
X113561706Y-111722011D01*
X113550500Y-111670500D01*
X113550500Y-111555177D01*
X113541768Y-111511282D01*
X113541767Y-111511281D01*
X113541767Y-111511278D01*
X113508504Y-111461496D01*
X113508503Y-111461495D01*
X113458724Y-111428234D01*
X113458717Y-111428231D01*
X113414822Y-111419500D01*
X113414820Y-111419500D01*
X112485180Y-111419500D01*
X112485178Y-111419500D01*
X112441282Y-111428231D01*
X112441275Y-111428234D01*
X112391496Y-111461495D01*
X112391495Y-111461496D01*
X112358234Y-111511275D01*
X112358231Y-111511282D01*
X112349500Y-111555177D01*
X112349500Y-111555180D01*
X112349500Y-112484820D01*
X112349500Y-112484822D01*
X112349499Y-112484822D01*
X112358231Y-112528717D01*
X112358234Y-112528724D01*
X112391495Y-112578503D01*
X112391496Y-112578504D01*
X112441278Y-112611767D01*
X112441281Y-112611767D01*
X112441282Y-112611768D01*
X112485177Y-112620500D01*
X112485180Y-112620500D01*
X113414822Y-112620500D01*
X113458717Y-112611768D01*
X113458717Y-112611767D01*
X113458722Y-112611767D01*
X113508504Y-112578504D01*
X113541767Y-112528722D01*
X113549172Y-112491496D01*
X113550500Y-112484822D01*
X113550500Y-112369500D01*
X113570185Y-112302461D01*
X113622989Y-112256706D01*
X113674500Y-112245500D01*
X114695233Y-112245500D01*
X114762272Y-112265185D01*
X114782914Y-112281819D01*
X116228829Y-113727735D01*
X116292266Y-113791172D01*
X116350290Y-113815205D01*
X116375145Y-113825500D01*
X116978457Y-113825500D01*
X117045496Y-113845185D01*
X117066138Y-113861819D01*
X117084788Y-113880469D01*
X117084791Y-113880470D01*
X117084794Y-113880473D01*
X117164706Y-113926611D01*
X117164707Y-113926611D01*
X117164712Y-113926614D01*
X117253856Y-113950500D01*
X117253858Y-113950500D01*
X117346142Y-113950500D01*
X117346144Y-113950500D01*
X117435288Y-113926614D01*
X117515212Y-113880469D01*
X117580469Y-113815212D01*
X117626614Y-113735288D01*
X117640489Y-113683502D01*
X117676854Y-113623843D01*
X117739701Y-113593314D01*
X117809076Y-113601609D01*
X117847945Y-113627916D01*
X117912235Y-113692206D01*
X118015009Y-113737585D01*
X118040135Y-113740500D01*
X119379864Y-113740499D01*
X119379879Y-113740497D01*
X119379882Y-113740497D01*
X119404987Y-113737586D01*
X119404988Y-113737585D01*
X119404991Y-113737585D01*
X119507765Y-113692206D01*
X119587206Y-113612765D01*
X119632585Y-113509991D01*
X119633998Y-113497806D01*
X119643281Y-113475914D01*
X119648337Y-113452672D01*
X119659411Y-113437878D01*
X119661275Y-113433483D01*
X119669469Y-113424435D01*
X119676169Y-113417736D01*
X119676169Y-113417734D01*
X119917553Y-113176350D01*
X119978875Y-113142866D01*
X120048567Y-113147850D01*
X120104500Y-113189722D01*
X120128917Y-113255186D01*
X120126851Y-113288222D01*
X120120625Y-113319526D01*
X120119500Y-113325180D01*
X120119500Y-114354820D01*
X120119500Y-114354822D01*
X120119499Y-114354822D01*
X120128231Y-114398717D01*
X120128234Y-114398724D01*
X120161495Y-114448503D01*
X120161496Y-114448504D01*
X120211278Y-114481767D01*
X120211281Y-114481767D01*
X120211282Y-114481768D01*
X120255177Y-114490500D01*
X120255180Y-114490500D01*
X121284822Y-114490500D01*
X121328717Y-114481768D01*
X121328717Y-114481767D01*
X121328722Y-114481767D01*
X121378504Y-114448504D01*
X121411767Y-114398722D01*
X121412907Y-114392989D01*
X121420500Y-114354822D01*
X121420500Y-113325177D01*
X121411768Y-113281282D01*
X121411767Y-113281281D01*
X121411767Y-113281278D01*
X121411765Y-113281275D01*
X121407094Y-113269998D01*
X121410339Y-113268653D01*
X121395641Y-113221725D01*
X121414120Y-113154343D01*
X121466094Y-113107648D01*
X121519621Y-113095500D01*
X122020379Y-113095500D01*
X122087418Y-113115185D01*
X122133173Y-113167989D01*
X122143117Y-113237147D01*
X122130853Y-113269147D01*
X122132906Y-113269998D01*
X122128231Y-113281282D01*
X122119500Y-113325177D01*
X122119500Y-114120233D01*
X122099815Y-114187272D01*
X122083181Y-114207914D01*
X121552914Y-114738181D01*
X121491591Y-114771666D01*
X121465233Y-114774500D01*
X120644857Y-114774500D01*
X120644855Y-114774499D01*
X120555146Y-114774499D01*
X120518931Y-114789500D01*
X120503762Y-114795782D01*
X120503762Y-114795783D01*
X120472263Y-114808830D01*
X120472262Y-114808831D01*
X120408829Y-114872265D01*
X119847180Y-115433913D01*
X119785857Y-115467398D01*
X119716165Y-115462414D01*
X119660232Y-115420542D01*
X119635815Y-115355078D01*
X119635499Y-115346250D01*
X119635499Y-115095136D01*
X119634407Y-115085716D01*
X119632586Y-115070012D01*
X119632585Y-115070010D01*
X119632585Y-115070009D01*
X119587206Y-114967235D01*
X119507765Y-114887794D01*
X119466333Y-114869500D01*
X119404992Y-114842415D01*
X119379865Y-114839500D01*
X118040143Y-114839500D01*
X118040117Y-114839502D01*
X118015012Y-114842413D01*
X118015008Y-114842415D01*
X117912235Y-114887793D01*
X117912234Y-114887794D01*
X117846848Y-114953181D01*
X117785525Y-114986666D01*
X117759167Y-114989500D01*
X113565833Y-114989500D01*
X113498794Y-114969815D01*
X113478152Y-114953181D01*
X113286819Y-114761848D01*
X113272115Y-114734920D01*
X113255523Y-114709102D01*
X113254631Y-114702901D01*
X113253334Y-114700525D01*
X113250500Y-114674167D01*
X113250500Y-114444500D01*
X113270185Y-114377461D01*
X113322989Y-114331706D01*
X113374500Y-114320500D01*
X113414822Y-114320500D01*
X113458717Y-114311768D01*
X113458717Y-114311767D01*
X113458722Y-114311767D01*
X113508504Y-114278504D01*
X113541767Y-114228722D01*
X113545906Y-114207914D01*
X113550500Y-114184822D01*
X113550500Y-113255177D01*
X113541768Y-113211282D01*
X113541767Y-113211281D01*
X113541767Y-113211278D01*
X113508504Y-113161496D01*
X113496060Y-113153181D01*
X113458724Y-113128234D01*
X113458717Y-113128231D01*
X113414822Y-113119500D01*
X113414820Y-113119500D01*
X112485180Y-113119500D01*
X112485178Y-113119500D01*
X112441282Y-113128231D01*
X112441275Y-113128234D01*
X112391496Y-113161495D01*
X112391495Y-113161496D01*
X112358234Y-113211275D01*
X112358231Y-113211282D01*
X112349500Y-113255177D01*
X112349500Y-113255180D01*
X112349500Y-114184820D01*
X112349500Y-114184822D01*
X112349499Y-114184822D01*
X112358231Y-114228717D01*
X112358234Y-114228724D01*
X112387468Y-114272476D01*
X112391496Y-114278504D01*
X112441278Y-114311767D01*
X112441281Y-114311767D01*
X112441282Y-114311768D01*
X112485177Y-114320500D01*
X112485180Y-114320500D01*
X112525500Y-114320500D01*
X112534185Y-114323050D01*
X112543147Y-114321762D01*
X112567187Y-114332740D01*
X112592539Y-114340185D01*
X112598466Y-114347025D01*
X112606703Y-114350787D01*
X112620992Y-114373021D01*
X112638294Y-114392989D01*
X112640581Y-114403503D01*
X112644477Y-114409565D01*
X112649500Y-114444500D01*
X112649500Y-114614167D01*
X112629815Y-114681206D01*
X112613181Y-114701848D01*
X112431848Y-114883181D01*
X112370525Y-114916666D01*
X112344167Y-114919500D01*
X112233745Y-114919500D01*
X112171744Y-114902887D01*
X112155289Y-114893386D01*
X112110716Y-114881443D01*
X112066144Y-114869500D01*
X111973856Y-114869500D01*
X111884712Y-114893386D01*
X111884711Y-114893386D01*
X111884709Y-114893387D01*
X111884706Y-114893388D01*
X111804794Y-114939526D01*
X111804785Y-114939533D01*
X111742681Y-115001638D01*
X111681358Y-115035123D01*
X111611666Y-115030139D01*
X111567319Y-115001638D01*
X111505214Y-114939533D01*
X111505212Y-114939531D01*
X111505209Y-114939529D01*
X111505205Y-114939526D01*
X111425293Y-114893388D01*
X111425290Y-114893387D01*
X111425289Y-114893386D01*
X111425288Y-114893386D01*
X111336144Y-114869500D01*
X111243856Y-114869500D01*
X111154712Y-114893386D01*
X111154711Y-114893386D01*
X111154709Y-114893387D01*
X111154706Y-114893388D01*
X111074794Y-114939526D01*
X111074785Y-114939533D01*
X111009533Y-115004785D01*
X111009529Y-115004791D01*
X110990643Y-115037502D01*
X110940076Y-115085716D01*
X110883257Y-115099500D01*
X105855833Y-115099500D01*
X105788794Y-115079815D01*
X105768152Y-115063181D01*
X105684513Y-114979542D01*
X105684511Y-114979540D01*
X105673852Y-114973386D01*
X105615991Y-114939980D01*
X105615990Y-114939979D01*
X105590513Y-114933152D01*
X105539562Y-114919500D01*
X105460438Y-114919500D01*
X105422224Y-114929739D01*
X105384009Y-114939979D01*
X105384004Y-114939982D01*
X105315495Y-114979535D01*
X105315487Y-114979541D01*
X105259542Y-115035486D01*
X105259538Y-115035492D01*
X105258379Y-115037500D01*
X105256957Y-115038855D01*
X105254592Y-115041938D01*
X105254111Y-115041569D01*
X105207812Y-115085716D01*
X105150992Y-115099500D01*
X95193383Y-115099500D01*
X95167954Y-115092033D01*
X95141725Y-115088227D01*
X95132025Y-115081483D01*
X95126344Y-115079815D01*
X95112058Y-115069107D01*
X95108780Y-115066259D01*
X95051061Y-115008540D01*
X95035403Y-114999500D01*
X95000833Y-114979541D01*
X94982540Y-114968979D01*
X94957063Y-114962152D01*
X94906112Y-114948500D01*
X94173888Y-114948500D01*
X94106489Y-114966559D01*
X94097457Y-114968980D01*
X94056353Y-114992711D01*
X94056348Y-114992715D01*
X94044597Y-114999500D01*
X94028939Y-115008540D01*
X93918243Y-115119234D01*
X93916228Y-115121081D01*
X93913538Y-115122400D01*
X93894469Y-115137033D01*
X93855495Y-115159536D01*
X93855490Y-115159539D01*
X93752181Y-115262848D01*
X93690858Y-115296332D01*
X93621166Y-115291348D01*
X93565233Y-115249476D01*
X93540816Y-115184011D01*
X93540500Y-115175166D01*
X93540500Y-114564500D01*
X93560185Y-114497461D01*
X93612989Y-114451706D01*
X93664500Y-114440500D01*
X93704822Y-114440500D01*
X93748717Y-114431768D01*
X93748717Y-114431767D01*
X93748722Y-114431767D01*
X93798504Y-114398504D01*
X93831767Y-114348722D01*
X93839118Y-114311767D01*
X93840500Y-114304822D01*
X94339499Y-114304822D01*
X94348231Y-114348717D01*
X94348234Y-114348724D01*
X94381495Y-114398503D01*
X94381496Y-114398504D01*
X94431278Y-114431767D01*
X94431281Y-114431767D01*
X94431282Y-114431768D01*
X94475177Y-114440500D01*
X94475180Y-114440500D01*
X95170233Y-114440500D01*
X95199673Y-114449144D01*
X95229660Y-114455668D01*
X95234675Y-114459422D01*
X95237272Y-114460185D01*
X95257914Y-114476819D01*
X95301759Y-114520664D01*
X95301762Y-114520668D01*
X95308830Y-114527736D01*
X95372264Y-114591170D01*
X95406592Y-114605388D01*
X95406594Y-114605390D01*
X95406595Y-114605390D01*
X95455146Y-114625501D01*
X95455147Y-114625501D01*
X95559289Y-114625501D01*
X95559297Y-114625500D01*
X110525143Y-114625500D01*
X110525145Y-114625501D01*
X110614855Y-114625501D01*
X110673460Y-114601225D01*
X110697736Y-114591170D01*
X110761170Y-114527736D01*
X110761170Y-114527735D01*
X110778606Y-114510299D01*
X110778607Y-114510296D01*
X110932087Y-114356817D01*
X110993410Y-114323334D01*
X111019767Y-114320500D01*
X111714822Y-114320500D01*
X111758717Y-114311768D01*
X111758717Y-114311767D01*
X111758722Y-114311767D01*
X111808504Y-114278504D01*
X111841767Y-114228722D01*
X111845906Y-114207914D01*
X111850500Y-114184822D01*
X111850500Y-113255177D01*
X111841768Y-113211282D01*
X111841767Y-113211281D01*
X111841767Y-113211278D01*
X111808504Y-113161496D01*
X111796060Y-113153181D01*
X111758724Y-113128234D01*
X111758717Y-113128231D01*
X111714822Y-113119500D01*
X111714820Y-113119500D01*
X110785180Y-113119500D01*
X110785178Y-113119500D01*
X110741282Y-113128231D01*
X110741275Y-113128234D01*
X110691496Y-113161495D01*
X110691495Y-113161496D01*
X110658234Y-113211275D01*
X110658231Y-113211282D01*
X110649500Y-113255177D01*
X110649500Y-113950233D01*
X110640855Y-113979673D01*
X110634332Y-114009660D01*
X110630577Y-114014675D01*
X110629815Y-114017272D01*
X110613181Y-114037914D01*
X110512914Y-114138181D01*
X110451591Y-114171666D01*
X110425233Y-114174500D01*
X108277477Y-114174500D01*
X108210438Y-114154815D01*
X108164683Y-114102011D01*
X108154739Y-114032853D01*
X108183764Y-113969297D01*
X108204592Y-113950182D01*
X108249495Y-113917558D01*
X108249497Y-113917555D01*
X108249501Y-113917553D01*
X108377553Y-113789501D01*
X108483996Y-113642994D01*
X108566211Y-113481639D01*
X108622171Y-113309409D01*
X108639779Y-113198234D01*
X108650500Y-113130551D01*
X108650500Y-112949448D01*
X108628885Y-112812982D01*
X108622171Y-112770591D01*
X108582574Y-112648722D01*
X108566212Y-112598363D01*
X108566211Y-112598360D01*
X108522456Y-112512488D01*
X108483996Y-112437006D01*
X108437110Y-112372472D01*
X108377558Y-112290505D01*
X108377554Y-112290500D01*
X108249499Y-112162445D01*
X108249494Y-112162441D01*
X108102997Y-112056006D01*
X108102996Y-112056005D01*
X108102994Y-112056004D01*
X108044819Y-112026362D01*
X107941639Y-111973788D01*
X107941636Y-111973787D01*
X107769410Y-111917829D01*
X107590551Y-111889500D01*
X107590546Y-111889500D01*
X107409454Y-111889500D01*
X107409449Y-111889500D01*
X107230589Y-111917829D01*
X107058363Y-111973787D01*
X107058360Y-111973788D01*
X106897002Y-112056006D01*
X106750505Y-112162441D01*
X106750500Y-112162445D01*
X106622445Y-112290500D01*
X106622441Y-112290505D01*
X106516006Y-112437002D01*
X106433788Y-112598360D01*
X106433787Y-112598363D01*
X106377829Y-112770589D01*
X106349500Y-112949448D01*
X106349500Y-113130551D01*
X106377829Y-113309410D01*
X106433787Y-113481636D01*
X106433788Y-113481639D01*
X106473597Y-113559767D01*
X106508321Y-113627916D01*
X106516006Y-113642997D01*
X106622441Y-113789494D01*
X106622445Y-113789499D01*
X106750504Y-113917558D01*
X106795408Y-113950182D01*
X106838074Y-114005511D01*
X106844053Y-114075125D01*
X106811448Y-114136920D01*
X106750609Y-114171277D01*
X106722523Y-114174500D01*
X99277477Y-114174500D01*
X99210438Y-114154815D01*
X99164683Y-114102011D01*
X99154739Y-114032853D01*
X99183764Y-113969297D01*
X99204592Y-113950182D01*
X99249495Y-113917558D01*
X99249497Y-113917555D01*
X99249501Y-113917553D01*
X99377553Y-113789501D01*
X99483996Y-113642994D01*
X99566211Y-113481639D01*
X99622171Y-113309409D01*
X99639779Y-113198234D01*
X99650500Y-113130551D01*
X99650500Y-112949448D01*
X99628885Y-112812982D01*
X99622171Y-112770591D01*
X99582574Y-112648722D01*
X99566212Y-112598363D01*
X99566211Y-112598360D01*
X99522456Y-112512488D01*
X99483996Y-112437006D01*
X99437110Y-112372472D01*
X99377558Y-112290505D01*
X99377554Y-112290500D01*
X99249499Y-112162445D01*
X99249494Y-112162441D01*
X99102997Y-112056006D01*
X99102996Y-112056005D01*
X99102994Y-112056004D01*
X99044819Y-112026362D01*
X98941639Y-111973788D01*
X98941636Y-111973787D01*
X98769410Y-111917829D01*
X98590551Y-111889500D01*
X98590546Y-111889500D01*
X98409454Y-111889500D01*
X98409449Y-111889500D01*
X98230589Y-111917829D01*
X98058363Y-111973787D01*
X98058360Y-111973788D01*
X97897002Y-112056006D01*
X97750505Y-112162441D01*
X97750500Y-112162445D01*
X97622445Y-112290500D01*
X97622441Y-112290505D01*
X97516006Y-112437002D01*
X97433788Y-112598360D01*
X97433787Y-112598363D01*
X97377829Y-112770589D01*
X97349500Y-112949448D01*
X97349500Y-113130551D01*
X97377829Y-113309410D01*
X97433787Y-113481636D01*
X97433788Y-113481639D01*
X97473597Y-113559767D01*
X97508321Y-113627916D01*
X97516006Y-113642997D01*
X97622441Y-113789494D01*
X97622445Y-113789499D01*
X97750504Y-113917558D01*
X97795408Y-113950182D01*
X97838074Y-114005511D01*
X97844053Y-114075125D01*
X97811448Y-114136920D01*
X97750609Y-114171277D01*
X97722523Y-114174500D01*
X95664500Y-114174500D01*
X95597461Y-114154815D01*
X95551706Y-114102011D01*
X95540500Y-114050500D01*
X95540500Y-113375177D01*
X95531768Y-113331282D01*
X95531767Y-113331281D01*
X95531767Y-113331278D01*
X95498504Y-113281496D01*
X95498178Y-113281278D01*
X95448724Y-113248234D01*
X95448717Y-113248231D01*
X95404822Y-113239500D01*
X95404820Y-113239500D01*
X94475180Y-113239500D01*
X94475178Y-113239500D01*
X94431282Y-113248231D01*
X94431275Y-113248234D01*
X94381496Y-113281495D01*
X94381495Y-113281496D01*
X94348234Y-113331275D01*
X94348231Y-113331282D01*
X94339500Y-113375177D01*
X94339500Y-113375180D01*
X94339500Y-114304820D01*
X94339500Y-114304822D01*
X94339499Y-114304822D01*
X93840500Y-114304822D01*
X93840500Y-113375177D01*
X93831768Y-113331282D01*
X93831767Y-113331281D01*
X93831767Y-113331278D01*
X93798504Y-113281496D01*
X93798178Y-113281278D01*
X93748724Y-113248234D01*
X93748717Y-113248231D01*
X93704822Y-113239500D01*
X93704820Y-113239500D01*
X92775180Y-113239500D01*
X92775178Y-113239500D01*
X92731282Y-113248231D01*
X92731275Y-113248234D01*
X92681496Y-113281495D01*
X92681495Y-113281496D01*
X92648234Y-113331275D01*
X92648231Y-113331282D01*
X92639500Y-113375177D01*
X92639500Y-113375180D01*
X92639500Y-114304820D01*
X92639500Y-114304822D01*
X92639499Y-114304822D01*
X92648231Y-114348717D01*
X92648234Y-114348724D01*
X92681495Y-114398503D01*
X92681496Y-114398504D01*
X92731278Y-114431767D01*
X92731281Y-114431767D01*
X92731282Y-114431768D01*
X92775177Y-114440500D01*
X92775180Y-114440500D01*
X92815500Y-114440500D01*
X92882539Y-114460185D01*
X92928294Y-114512989D01*
X92939500Y-114564500D01*
X92939500Y-115559562D01*
X92959979Y-115635989D01*
X92989768Y-115687585D01*
X92999540Y-115704511D01*
X93115107Y-115820078D01*
X93116939Y-115822078D01*
X93131178Y-115851111D01*
X93146666Y-115879475D01*
X93147108Y-115883593D01*
X93147705Y-115884809D01*
X93147463Y-115886893D01*
X93149500Y-115905832D01*
X93149500Y-116073364D01*
X93149502Y-116073388D01*
X93152317Y-116097659D01*
X93152318Y-116097662D01*
X93196186Y-116197015D01*
X93196187Y-116197016D01*
X93272984Y-116273813D01*
X93372338Y-116317682D01*
X93396627Y-116320500D01*
X93763372Y-116320499D01*
X93787662Y-116317682D01*
X93887016Y-116273813D01*
X93963813Y-116197016D01*
X94007682Y-116097662D01*
X94010500Y-116073373D01*
X94010499Y-115905832D01*
X94019144Y-115876387D01*
X94025667Y-115846405D01*
X94029419Y-115841391D01*
X94030183Y-115838793D01*
X94046813Y-115818156D01*
X94182303Y-115682666D01*
X94207976Y-115662966D01*
X94246961Y-115640460D01*
X94301603Y-115585817D01*
X94362924Y-115552334D01*
X94389283Y-115549500D01*
X94690717Y-115549500D01*
X94757756Y-115569185D01*
X94778398Y-115585819D01*
X94833039Y-115640460D01*
X94833041Y-115640461D01*
X94833045Y-115640464D01*
X94901554Y-115680017D01*
X94901561Y-115680021D01*
X94977988Y-115700500D01*
X105075500Y-115700500D01*
X105142539Y-115720185D01*
X105188294Y-115772989D01*
X105199500Y-115824500D01*
X105199500Y-118915500D01*
X105179815Y-118982539D01*
X105127011Y-119028294D01*
X105075500Y-119039500D01*
X104735178Y-119039500D01*
X104691282Y-119048231D01*
X104691275Y-119048234D01*
X104641496Y-119081495D01*
X104641495Y-119081496D01*
X104608234Y-119131275D01*
X104608231Y-119131282D01*
X104599500Y-119175177D01*
X104599500Y-119175180D01*
X104599500Y-121204820D01*
X104599500Y-121204822D01*
X104599499Y-121204822D01*
X104608231Y-121248717D01*
X104608234Y-121248724D01*
X104641495Y-121298503D01*
X104641496Y-121298504D01*
X104691278Y-121331767D01*
X104691281Y-121331767D01*
X104691282Y-121331768D01*
X104735177Y-121340500D01*
X104735180Y-121340500D01*
X106264822Y-121340500D01*
X106308717Y-121331768D01*
X106308717Y-121331767D01*
X106308722Y-121331767D01*
X106358504Y-121298504D01*
X106391767Y-121248722D01*
X106395294Y-121230991D01*
X106400500Y-121204822D01*
X106400500Y-119175177D01*
X106391768Y-119131282D01*
X106391767Y-119131281D01*
X106391767Y-119131278D01*
X106358504Y-119081496D01*
X106358503Y-119081495D01*
X106308724Y-119048234D01*
X106308717Y-119048231D01*
X106264822Y-119039500D01*
X106264820Y-119039500D01*
X105924500Y-119039500D01*
X105857461Y-119019815D01*
X105811706Y-118967011D01*
X105800500Y-118915500D01*
X105800500Y-115824500D01*
X105820185Y-115757461D01*
X105872989Y-115711706D01*
X105924500Y-115700500D01*
X111149560Y-115700500D01*
X111149562Y-115700500D01*
X111225989Y-115680021D01*
X111294511Y-115640460D01*
X111350460Y-115584511D01*
X111351299Y-115583671D01*
X111406934Y-115551531D01*
X111425288Y-115546614D01*
X111425291Y-115546612D01*
X111425292Y-115546612D01*
X111505205Y-115500473D01*
X111505204Y-115500473D01*
X111505212Y-115500469D01*
X111567319Y-115438362D01*
X111628642Y-115404877D01*
X111698334Y-115409861D01*
X111742681Y-115438362D01*
X111804788Y-115500469D01*
X111804791Y-115500470D01*
X111804794Y-115500473D01*
X111884706Y-115546611D01*
X111884707Y-115546611D01*
X111884712Y-115546614D01*
X111973856Y-115570500D01*
X111973858Y-115570500D01*
X112066142Y-115570500D01*
X112066144Y-115570500D01*
X112155288Y-115546614D01*
X112171744Y-115537113D01*
X112187233Y-115532962D01*
X112198810Y-115525523D01*
X112233745Y-115520500D01*
X112365500Y-115520500D01*
X112432539Y-115540185D01*
X112478294Y-115592989D01*
X112489500Y-115644500D01*
X112489500Y-115923365D01*
X112489502Y-115923388D01*
X112492317Y-115947659D01*
X112492318Y-115947662D01*
X112536186Y-116047015D01*
X112536187Y-116047016D01*
X112612984Y-116123813D01*
X112712338Y-116167682D01*
X112736627Y-116170500D01*
X113163372Y-116170499D01*
X113187662Y-116167682D01*
X113287016Y-116123813D01*
X113363813Y-116047016D01*
X113407682Y-115947662D01*
X113410500Y-115923373D01*
X113410499Y-115714499D01*
X113430183Y-115647461D01*
X113482987Y-115601706D01*
X113534499Y-115590500D01*
X117759167Y-115590500D01*
X117826206Y-115610185D01*
X117846848Y-115626819D01*
X117912235Y-115692206D01*
X118015009Y-115737585D01*
X118040135Y-115740500D01*
X119241233Y-115740499D01*
X119308272Y-115760184D01*
X119354027Y-115812987D01*
X119363971Y-115882146D01*
X119334946Y-115945702D01*
X119328914Y-115952180D01*
X118342914Y-116938181D01*
X118315986Y-116952884D01*
X118290168Y-116969477D01*
X118283967Y-116970368D01*
X118281591Y-116971666D01*
X118255233Y-116974500D01*
X118119297Y-116974500D01*
X118119289Y-116974499D01*
X118104855Y-116974499D01*
X118015145Y-116974499D01*
X118015143Y-116974499D01*
X117980813Y-116988719D01*
X117956539Y-116998774D01*
X117956537Y-116998774D01*
X117932264Y-117008829D01*
X117757913Y-117183181D01*
X117696590Y-117216666D01*
X117670232Y-117219500D01*
X117643856Y-117219500D01*
X117554712Y-117243386D01*
X117554711Y-117243386D01*
X117554709Y-117243387D01*
X117554706Y-117243388D01*
X117474794Y-117289526D01*
X117474785Y-117289533D01*
X117409533Y-117354785D01*
X117409526Y-117354794D01*
X117363388Y-117434706D01*
X117363387Y-117434709D01*
X117363386Y-117434711D01*
X117363386Y-117434712D01*
X117339500Y-117523856D01*
X117339500Y-117616144D01*
X117361130Y-117696869D01*
X117363387Y-117705290D01*
X117363388Y-117705293D01*
X117409528Y-117785208D01*
X117412931Y-117789643D01*
X117438123Y-117854813D01*
X117424083Y-117923257D01*
X117375268Y-117973246D01*
X117314087Y-117989126D01*
X114765327Y-117979556D01*
X114765327Y-117979555D01*
X114754567Y-117979515D01*
X114738292Y-117976608D01*
X114734226Y-117979440D01*
X114729272Y-117979422D01*
X114729271Y-117979422D01*
X114729270Y-117979422D01*
X114725167Y-117983495D01*
X114708713Y-117997216D01*
X109455605Y-121657574D01*
X109389347Y-121679749D01*
X109385479Y-121679834D01*
X96555959Y-121758967D01*
X96488799Y-121739696D01*
X96457132Y-121710863D01*
X96432934Y-121679597D01*
X96065486Y-121204822D01*
X99599499Y-121204822D01*
X99608231Y-121248717D01*
X99608234Y-121248724D01*
X99641495Y-121298503D01*
X99641496Y-121298504D01*
X99691278Y-121331767D01*
X99691281Y-121331767D01*
X99691282Y-121331768D01*
X99735177Y-121340500D01*
X99735180Y-121340500D01*
X101264822Y-121340500D01*
X101308717Y-121331768D01*
X101308717Y-121331767D01*
X101308722Y-121331767D01*
X101358504Y-121298504D01*
X101391767Y-121248722D01*
X101395294Y-121230991D01*
X101400500Y-121204822D01*
X101400500Y-119175177D01*
X101391768Y-119131282D01*
X101391767Y-119131281D01*
X101391767Y-119131278D01*
X101358504Y-119081496D01*
X101358503Y-119081495D01*
X101308724Y-119048234D01*
X101308717Y-119048231D01*
X101264822Y-119039500D01*
X101264820Y-119039500D01*
X99735180Y-119039500D01*
X99735178Y-119039500D01*
X99691282Y-119048231D01*
X99691275Y-119048234D01*
X99641496Y-119081495D01*
X99641495Y-119081496D01*
X99608234Y-119131275D01*
X99608231Y-119131282D01*
X99599500Y-119175177D01*
X99599500Y-119175180D01*
X99599500Y-121204820D01*
X99599500Y-121204822D01*
X99599499Y-121204822D01*
X96065486Y-121204822D01*
X91616313Y-115456093D01*
X91590850Y-115391030D01*
X91590376Y-115380473D01*
X91584642Y-112604822D01*
X92639499Y-112604822D01*
X92648231Y-112648717D01*
X92648234Y-112648724D01*
X92674153Y-112687515D01*
X92681496Y-112698504D01*
X92731278Y-112731767D01*
X92731281Y-112731767D01*
X92731282Y-112731768D01*
X92775177Y-112740500D01*
X92775180Y-112740500D01*
X93704822Y-112740500D01*
X93748717Y-112731768D01*
X93748717Y-112731767D01*
X93748722Y-112731767D01*
X93798504Y-112698504D01*
X93831767Y-112648722D01*
X93832607Y-112644499D01*
X93840500Y-112604822D01*
X93840500Y-111675177D01*
X93831768Y-111631282D01*
X93831767Y-111631281D01*
X93831767Y-111631278D01*
X93798504Y-111581496D01*
X93798299Y-111581359D01*
X93748724Y-111548234D01*
X93748717Y-111548231D01*
X93704822Y-111539500D01*
X93704820Y-111539500D01*
X92775180Y-111539500D01*
X92775178Y-111539500D01*
X92731282Y-111548231D01*
X92731275Y-111548234D01*
X92681496Y-111581495D01*
X92681495Y-111581496D01*
X92648234Y-111631275D01*
X92648231Y-111631282D01*
X92639500Y-111675177D01*
X92639500Y-111675180D01*
X92639500Y-112604820D01*
X92639500Y-112604822D01*
X92639499Y-112604822D01*
X91584642Y-112604822D01*
X91580628Y-110661968D01*
X91600174Y-110594889D01*
X91608317Y-110583609D01*
X94592221Y-106904822D01*
X99599499Y-106904822D01*
X99608231Y-106948717D01*
X99608232Y-106948721D01*
X99608233Y-106948722D01*
X99641496Y-106998504D01*
X99691278Y-107031767D01*
X99691281Y-107031767D01*
X99691282Y-107031768D01*
X99735177Y-107040500D01*
X99735180Y-107040500D01*
X101264822Y-107040500D01*
X101308717Y-107031768D01*
X101308717Y-107031767D01*
X101308722Y-107031767D01*
X101358504Y-106998504D01*
X101391767Y-106948722D01*
X101400500Y-106904822D01*
X104599499Y-106904822D01*
X104608231Y-106948717D01*
X104608232Y-106948721D01*
X104608233Y-106948722D01*
X104641496Y-106998504D01*
X104691278Y-107031767D01*
X104691281Y-107031767D01*
X104691282Y-107031768D01*
X104735177Y-107040500D01*
X104735180Y-107040500D01*
X106264822Y-107040500D01*
X106308717Y-107031768D01*
X106308717Y-107031767D01*
X106308722Y-107031767D01*
X106358504Y-106998504D01*
X106391767Y-106948722D01*
X106400500Y-106904820D01*
X106400500Y-104875180D01*
X106400500Y-104875177D01*
X106391768Y-104831282D01*
X106391767Y-104831281D01*
X106391767Y-104831278D01*
X106358504Y-104781496D01*
X106358503Y-104781495D01*
X106308724Y-104748234D01*
X106308717Y-104748231D01*
X106264822Y-104739500D01*
X106264820Y-104739500D01*
X104735180Y-104739500D01*
X104735178Y-104739500D01*
X104691282Y-104748231D01*
X104691275Y-104748234D01*
X104641496Y-104781495D01*
X104641495Y-104781496D01*
X104608234Y-104831275D01*
X104608231Y-104831282D01*
X104599500Y-104875177D01*
X104599500Y-104875180D01*
X104599500Y-106904820D01*
X104599500Y-106904822D01*
X104599499Y-106904822D01*
X101400500Y-106904822D01*
X101400500Y-106904820D01*
X101400500Y-104875180D01*
X101400500Y-104875177D01*
X101391768Y-104831282D01*
X101391767Y-104831281D01*
X101391767Y-104831278D01*
X101358504Y-104781496D01*
X101358503Y-104781495D01*
X101308724Y-104748234D01*
X101308717Y-104748231D01*
X101264822Y-104739500D01*
X101264820Y-104739500D01*
X99735180Y-104739500D01*
X99735178Y-104739500D01*
X99691282Y-104748231D01*
X99691275Y-104748234D01*
X99641496Y-104781495D01*
X99641495Y-104781496D01*
X99608234Y-104831275D01*
X99608231Y-104831282D01*
X99599500Y-104875177D01*
X99599500Y-104875180D01*
X99599500Y-106904820D01*
X99599500Y-106904822D01*
X99599499Y-106904822D01*
X94592221Y-106904822D01*
X96627002Y-104396188D01*
X96684519Y-104356526D01*
X96723009Y-104350304D01*
X109339616Y-104320618D01*
X109405888Y-104339630D01*
G37*
%TD.AperFunction*%
%TA.AperFunction,Conductor*%
G36*
X123722272Y-113115185D02*
G01*
X123742914Y-113131819D01*
X124083181Y-113472086D01*
X124116666Y-113533409D01*
X124119500Y-113559767D01*
X124119500Y-114354820D01*
X124119500Y-114354822D01*
X124119499Y-114354822D01*
X124128231Y-114398717D01*
X124128234Y-114398724D01*
X124161495Y-114448503D01*
X124161496Y-114448504D01*
X124211278Y-114481767D01*
X124211281Y-114481767D01*
X124211282Y-114481768D01*
X124255177Y-114490500D01*
X125225500Y-114490500D01*
X125292539Y-114510185D01*
X125338294Y-114562989D01*
X125349500Y-114614500D01*
X125349500Y-114917024D01*
X125329815Y-114984063D01*
X125277011Y-115029818D01*
X125207853Y-115039762D01*
X125171040Y-115028425D01*
X125133626Y-115010134D01*
X125122684Y-115008540D01*
X125060636Y-114999500D01*
X123939364Y-114999500D01*
X123866375Y-115010134D01*
X123866373Y-115010134D01*
X123866371Y-115010135D01*
X123753789Y-115065172D01*
X123665172Y-115153789D01*
X123610135Y-115266371D01*
X123610134Y-115266373D01*
X123610134Y-115266375D01*
X123599500Y-115339364D01*
X123599500Y-116460636D01*
X123608614Y-116523198D01*
X123610134Y-116533626D01*
X123628425Y-116571040D01*
X123640183Y-116639913D01*
X123612840Y-116704210D01*
X123555075Y-116743517D01*
X123544425Y-116746435D01*
X123530897Y-116749500D01*
X123515847Y-116749500D01*
X123511436Y-116753909D01*
X123505307Y-116755298D01*
X123505260Y-116755330D01*
X123504452Y-116756607D01*
X123504453Y-116756608D01*
X123497083Y-116768263D01*
X123486265Y-116779082D01*
X123486265Y-116785370D01*
X123473028Y-116806303D01*
X122748916Y-117951411D01*
X122696449Y-117997552D01*
X122643646Y-118009137D01*
X118062639Y-117991936D01*
X117995674Y-117972000D01*
X117950118Y-117919025D01*
X117940434Y-117849829D01*
X117966809Y-117792645D01*
X117965522Y-117791658D01*
X117970463Y-117785217D01*
X117970469Y-117785212D01*
X118016614Y-117705288D01*
X118040500Y-117616144D01*
X118040500Y-117589767D01*
X118049144Y-117560326D01*
X118055668Y-117530340D01*
X118059422Y-117525324D01*
X118060185Y-117522728D01*
X118076819Y-117502086D01*
X118117086Y-117461819D01*
X118178409Y-117428334D01*
X118204767Y-117425500D01*
X118340703Y-117425500D01*
X118340711Y-117425501D01*
X118355145Y-117425501D01*
X118444853Y-117425501D01*
X118444855Y-117425501D01*
X118503460Y-117401225D01*
X118527736Y-117391170D01*
X118591170Y-117327736D01*
X118591170Y-117327734D01*
X120657086Y-115261819D01*
X120718409Y-115228334D01*
X120744767Y-115225500D01*
X121550703Y-115225500D01*
X121550711Y-115225501D01*
X121565145Y-115225501D01*
X121654854Y-115225501D01*
X121654855Y-115225501D01*
X121715361Y-115200438D01*
X121737736Y-115191170D01*
X121801170Y-115127736D01*
X121801170Y-115127734D01*
X122402086Y-114526819D01*
X122463409Y-114493334D01*
X122489767Y-114490500D01*
X123284822Y-114490500D01*
X123328717Y-114481768D01*
X123328717Y-114481767D01*
X123328722Y-114481767D01*
X123378504Y-114448504D01*
X123411767Y-114398722D01*
X123412907Y-114392989D01*
X123420500Y-114354822D01*
X123420500Y-113325177D01*
X123411768Y-113281282D01*
X123411767Y-113281281D01*
X123411767Y-113281278D01*
X123411765Y-113281275D01*
X123408142Y-113272529D01*
X123406827Y-113271011D01*
X123403219Y-113245919D01*
X123395641Y-113221725D01*
X123398330Y-113211918D01*
X123396883Y-113201853D01*
X123407415Y-113178789D01*
X123414120Y-113154343D01*
X123421683Y-113147547D01*
X123425908Y-113138297D01*
X123447236Y-113124590D01*
X123466094Y-113107648D01*
X123477696Y-113105014D01*
X123484686Y-113100523D01*
X123519621Y-113095500D01*
X123655233Y-113095500D01*
X123722272Y-113115185D01*
G37*
%TD.AperFunction*%
%TA.AperFunction,Conductor*%
G36*
X147933043Y-68250185D02*
G01*
X147978798Y-68302989D01*
X147990003Y-68354142D01*
X148008999Y-74926992D01*
X147989509Y-74994088D01*
X147936837Y-75039995D01*
X147886319Y-75051343D01*
X145240582Y-75079490D01*
X145240581Y-75079489D01*
X145239751Y-75079498D01*
X145219193Y-75079454D01*
X145218924Y-75079720D01*
X145218546Y-75079725D01*
X145218517Y-75079753D01*
X145218516Y-75079754D01*
X145204689Y-75093876D01*
X145204690Y-75093877D01*
X145204103Y-75094476D01*
X145189546Y-75108971D01*
X145189545Y-75109349D01*
X145189280Y-75109620D01*
X145189280Y-75109625D01*
X145189279Y-75109627D01*
X145189490Y-75129425D01*
X145189497Y-75131014D01*
X145189166Y-75282020D01*
X145169334Y-75349016D01*
X145116430Y-75394655D01*
X145047250Y-75404447D01*
X144983758Y-75375283D01*
X144962066Y-75350642D01*
X144948504Y-75330344D01*
X144948502Y-75330343D01*
X144948502Y-75330342D01*
X144898724Y-75297082D01*
X144898717Y-75297079D01*
X144854822Y-75288348D01*
X144854820Y-75288348D01*
X143134833Y-75288348D01*
X143067794Y-75268663D01*
X143022039Y-75215859D01*
X143012095Y-75146701D01*
X143041120Y-75083145D01*
X143047152Y-75076667D01*
X143498152Y-74625667D01*
X143559475Y-74592182D01*
X143585833Y-74589348D01*
X144844822Y-74589348D01*
X144888717Y-74580616D01*
X144888717Y-74580615D01*
X144888722Y-74580615D01*
X144938504Y-74547352D01*
X144971767Y-74497570D01*
X144977191Y-74470302D01*
X144980500Y-74453670D01*
X144980500Y-74410848D01*
X145000185Y-74343809D01*
X145052989Y-74298054D01*
X145104500Y-74286848D01*
X145429392Y-74286848D01*
X145496431Y-74306533D01*
X145542186Y-74359337D01*
X145551865Y-74391450D01*
X145564354Y-74470304D01*
X145621950Y-74583342D01*
X145621952Y-74583344D01*
X145621954Y-74583347D01*
X145711652Y-74673045D01*
X145711654Y-74673046D01*
X145711658Y-74673050D01*
X145824694Y-74730645D01*
X145824698Y-74730647D01*
X145918475Y-74745499D01*
X145918481Y-74745500D01*
X147281518Y-74745499D01*
X147375304Y-74730646D01*
X147488342Y-74673050D01*
X147578050Y-74583342D01*
X147635646Y-74470304D01*
X147635646Y-74470302D01*
X147635647Y-74470301D01*
X147650499Y-74376524D01*
X147650500Y-74376519D01*
X147650499Y-73663482D01*
X147635646Y-73569696D01*
X147578050Y-73456658D01*
X147578046Y-73456654D01*
X147578045Y-73456652D01*
X147488347Y-73366954D01*
X147488344Y-73366952D01*
X147488342Y-73366950D01*
X147411517Y-73327805D01*
X147375301Y-73309352D01*
X147281524Y-73294500D01*
X145918482Y-73294500D01*
X145837519Y-73307323D01*
X145824696Y-73309354D01*
X145711658Y-73366950D01*
X145711657Y-73366951D01*
X145711652Y-73366954D01*
X145621954Y-73456652D01*
X145621951Y-73456657D01*
X145564352Y-73569698D01*
X145562524Y-73581246D01*
X145532595Y-73644381D01*
X145473283Y-73681312D01*
X145440051Y-73685848D01*
X145104500Y-73685848D01*
X145037461Y-73666163D01*
X144991706Y-73613359D01*
X144980500Y-73561848D01*
X144980500Y-73424025D01*
X144971768Y-73380130D01*
X144971767Y-73380129D01*
X144971767Y-73380126D01*
X144938504Y-73330344D01*
X144907087Y-73309352D01*
X144888724Y-73297082D01*
X144888717Y-73297079D01*
X144844822Y-73288348D01*
X144844820Y-73288348D01*
X142815180Y-73288348D01*
X142815178Y-73288348D01*
X142771282Y-73297079D01*
X142771275Y-73297082D01*
X142721496Y-73330343D01*
X142721495Y-73330344D01*
X142688234Y-73380123D01*
X142688231Y-73380130D01*
X142679500Y-73424025D01*
X142679500Y-73424028D01*
X142679500Y-74453668D01*
X142679500Y-74453670D01*
X142679499Y-74453670D01*
X142689914Y-74506024D01*
X142683687Y-74575616D01*
X142655978Y-74617897D01*
X135455489Y-81818388D01*
X135399541Y-81874335D01*
X135399535Y-81874343D01*
X135359982Y-81942852D01*
X135359979Y-81942857D01*
X135339500Y-82019287D01*
X135339500Y-86986255D01*
X135322887Y-87048256D01*
X135313386Y-87064710D01*
X135289500Y-87153856D01*
X135289500Y-87246144D01*
X135290091Y-87248348D01*
X135313386Y-87335289D01*
X135322885Y-87351740D01*
X135339500Y-87413743D01*
X135339500Y-87686255D01*
X135322887Y-87748256D01*
X135313386Y-87764710D01*
X135289500Y-87853856D01*
X135289500Y-87946143D01*
X135313387Y-88035290D01*
X135313388Y-88035293D01*
X135359526Y-88115205D01*
X135359529Y-88115209D01*
X135359531Y-88115212D01*
X135424788Y-88180469D01*
X135424791Y-88180470D01*
X135424794Y-88180473D01*
X135511751Y-88230679D01*
X135510290Y-88233208D01*
X135553753Y-88268219D01*
X135575832Y-88334508D01*
X135571687Y-88371053D01*
X135549500Y-88453856D01*
X135549500Y-88546143D01*
X135573386Y-88635289D01*
X135582885Y-88651740D01*
X135599500Y-88713743D01*
X135599500Y-93599249D01*
X135579815Y-93666288D01*
X135527011Y-93712043D01*
X135457853Y-93721987D01*
X135406611Y-93702352D01*
X135398722Y-93697081D01*
X135398721Y-93697080D01*
X135398720Y-93697080D01*
X135398717Y-93697079D01*
X135354822Y-93688348D01*
X135354820Y-93688348D01*
X134325180Y-93688348D01*
X134325178Y-93688348D01*
X134281282Y-93697079D01*
X134281275Y-93697082D01*
X134231496Y-93730343D01*
X134231495Y-93730344D01*
X134198234Y-93780123D01*
X134198231Y-93780130D01*
X134189500Y-93824025D01*
X134189500Y-93824028D01*
X134189500Y-95853668D01*
X134189500Y-95853670D01*
X134189499Y-95853670D01*
X134198231Y-95897565D01*
X134198234Y-95897572D01*
X134231495Y-95947351D01*
X134231496Y-95947352D01*
X134281278Y-95980615D01*
X134281281Y-95980615D01*
X134281282Y-95980616D01*
X134325177Y-95989348D01*
X135065166Y-95989348D01*
X135132205Y-96009033D01*
X135177960Y-96061837D01*
X135187904Y-96130995D01*
X135158879Y-96194551D01*
X135152847Y-96201029D01*
X134590696Y-96763181D01*
X134529373Y-96796666D01*
X134503015Y-96799500D01*
X129029500Y-96799500D01*
X128962461Y-96779815D01*
X128916706Y-96727011D01*
X128905500Y-96675500D01*
X128905500Y-96109025D01*
X128896768Y-96065130D01*
X128896767Y-96065129D01*
X128896767Y-96065126D01*
X128863504Y-96015344D01*
X128863503Y-96015343D01*
X128813724Y-95982082D01*
X128813717Y-95982079D01*
X128769822Y-95973348D01*
X128769820Y-95973348D01*
X128124767Y-95973348D01*
X128057728Y-95953663D01*
X128037086Y-95937029D01*
X127973727Y-95873670D01*
X132229499Y-95873670D01*
X132238231Y-95917565D01*
X132238234Y-95917572D01*
X132263903Y-95955988D01*
X132271496Y-95967352D01*
X132321278Y-96000615D01*
X132321281Y-96000615D01*
X132321282Y-96000616D01*
X132365177Y-96009348D01*
X132365180Y-96009348D01*
X133394822Y-96009348D01*
X133438717Y-96000616D01*
X133438717Y-96000615D01*
X133438722Y-96000615D01*
X133488504Y-95967352D01*
X133521767Y-95917570D01*
X133525745Y-95897572D01*
X133530500Y-95873670D01*
X133530500Y-93844025D01*
X133521768Y-93800130D01*
X133521767Y-93800129D01*
X133521767Y-93800126D01*
X133488504Y-93750344D01*
X133458572Y-93730344D01*
X133438724Y-93717082D01*
X133438717Y-93717079D01*
X133394822Y-93708348D01*
X133394820Y-93708348D01*
X132365180Y-93708348D01*
X132365178Y-93708348D01*
X132321282Y-93717079D01*
X132321275Y-93717082D01*
X132271496Y-93750343D01*
X132271495Y-93750344D01*
X132238234Y-93800123D01*
X132238231Y-93800130D01*
X132229500Y-93844025D01*
X132229500Y-93844028D01*
X132229500Y-95873668D01*
X132229500Y-95873670D01*
X132229499Y-95873670D01*
X127973727Y-95873670D01*
X126831086Y-94731029D01*
X126797601Y-94669706D01*
X126802585Y-94600014D01*
X126844457Y-94544081D01*
X126909921Y-94519664D01*
X126918767Y-94519348D01*
X128914822Y-94519348D01*
X128958717Y-94510616D01*
X128958717Y-94510615D01*
X128958722Y-94510615D01*
X129008504Y-94477352D01*
X129041767Y-94427570D01*
X129050500Y-94383668D01*
X129050500Y-93354028D01*
X129050500Y-93354025D01*
X129041768Y-93310130D01*
X129041767Y-93310129D01*
X129041767Y-93310126D01*
X129008504Y-93260344D01*
X129008503Y-93260343D01*
X128958724Y-93227082D01*
X128958717Y-93227079D01*
X128914822Y-93218348D01*
X128914820Y-93218348D01*
X126899500Y-93218348D01*
X126832461Y-93198663D01*
X126786706Y-93145859D01*
X126775500Y-93094348D01*
X126775500Y-92799588D01*
X126775750Y-92755266D01*
X126775500Y-92754652D01*
X126775500Y-92753993D01*
X126775500Y-90663348D01*
X126795185Y-90596309D01*
X126847989Y-90550554D01*
X126899500Y-90539348D01*
X128884822Y-90539348D01*
X128928717Y-90530616D01*
X128928717Y-90530615D01*
X128928722Y-90530615D01*
X128978504Y-90497352D01*
X129011767Y-90447570D01*
X129015745Y-90427572D01*
X129020500Y-90403670D01*
X129020500Y-89374025D01*
X129011768Y-89330130D01*
X129011767Y-89330129D01*
X129011767Y-89330126D01*
X129005779Y-89321165D01*
X128978504Y-89280344D01*
X128978503Y-89280343D01*
X128928724Y-89247082D01*
X128928717Y-89247079D01*
X128884822Y-89238348D01*
X128884820Y-89238348D01*
X126855180Y-89238348D01*
X126855178Y-89238348D01*
X126811282Y-89247079D01*
X126811275Y-89247082D01*
X126761496Y-89280343D01*
X126761495Y-89280344D01*
X126728234Y-89330123D01*
X126728231Y-89330130D01*
X126719500Y-89374025D01*
X126719500Y-89582105D01*
X126713866Y-89601290D01*
X126713151Y-89621274D01*
X126704223Y-89634129D01*
X126699815Y-89649144D01*
X126684704Y-89662237D01*
X126673298Y-89678663D01*
X126649359Y-89692864D01*
X126647011Y-89694899D01*
X126642944Y-89696670D01*
X126640097Y-89697849D01*
X126570627Y-89705312D01*
X126528308Y-89689281D01*
X126525337Y-89687478D01*
X126520152Y-89684331D01*
X126512946Y-89676433D01*
X126508150Y-89674032D01*
X126503306Y-89665868D01*
X126473060Y-89632716D01*
X126460499Y-89578334D01*
X126460499Y-89565482D01*
X126460499Y-89565476D01*
X126457682Y-89541186D01*
X126413813Y-89441832D01*
X126337016Y-89365035D01*
X126337014Y-89365034D01*
X126237663Y-89321166D01*
X126213373Y-89318348D01*
X125786634Y-89318348D01*
X125786611Y-89318350D01*
X125762340Y-89321165D01*
X125762337Y-89321166D01*
X125662984Y-89365034D01*
X125653504Y-89371529D01*
X125651894Y-89369179D01*
X125605860Y-89394309D01*
X125536169Y-89389315D01*
X125480240Y-89347437D01*
X125455832Y-89281969D01*
X125455517Y-89273205D01*
X125455510Y-89260344D01*
X125455055Y-88403670D01*
X126729499Y-88403670D01*
X126738231Y-88447565D01*
X126738234Y-88447572D01*
X126744916Y-88457572D01*
X126771496Y-88497352D01*
X126821278Y-88530615D01*
X126821281Y-88530615D01*
X126821282Y-88530616D01*
X126865177Y-88539348D01*
X126865180Y-88539348D01*
X128894822Y-88539348D01*
X128938717Y-88530616D01*
X128938717Y-88530615D01*
X128938722Y-88530615D01*
X128988504Y-88497352D01*
X129021767Y-88447570D01*
X129021841Y-88447199D01*
X129030500Y-88403670D01*
X129030500Y-87374025D01*
X129021768Y-87330130D01*
X129021767Y-87330129D01*
X129021767Y-87330126D01*
X128988504Y-87280344D01*
X128953690Y-87257082D01*
X128938724Y-87247082D01*
X128938717Y-87247079D01*
X128894822Y-87238348D01*
X128894820Y-87238348D01*
X126865180Y-87238348D01*
X126865178Y-87238348D01*
X126821282Y-87247079D01*
X126821275Y-87247082D01*
X126771496Y-87280343D01*
X126771495Y-87280344D01*
X126738234Y-87330123D01*
X126738231Y-87330130D01*
X126729500Y-87374025D01*
X126729500Y-87374028D01*
X126729500Y-88403668D01*
X126729500Y-88403670D01*
X126729499Y-88403670D01*
X125455055Y-88403670D01*
X125453998Y-86413670D01*
X126739499Y-86413670D01*
X126748231Y-86457565D01*
X126748234Y-86457572D01*
X126754916Y-86467572D01*
X126781496Y-86507352D01*
X126831278Y-86540615D01*
X126831281Y-86540615D01*
X126831282Y-86540616D01*
X126875177Y-86549348D01*
X126875180Y-86549348D01*
X128904822Y-86549348D01*
X128948717Y-86540616D01*
X128948717Y-86540615D01*
X128948722Y-86540615D01*
X128998504Y-86507352D01*
X129031767Y-86457570D01*
X129033143Y-86450651D01*
X129040500Y-86413670D01*
X129040500Y-85384025D01*
X129031768Y-85340130D01*
X129031767Y-85340129D01*
X129031767Y-85340126D01*
X128998504Y-85290344D01*
X128963690Y-85267082D01*
X128948724Y-85257082D01*
X128948717Y-85257079D01*
X128904822Y-85248348D01*
X128904820Y-85248348D01*
X126875180Y-85248348D01*
X126875178Y-85248348D01*
X126831282Y-85257079D01*
X126831275Y-85257082D01*
X126781496Y-85290343D01*
X126781495Y-85290344D01*
X126748234Y-85340123D01*
X126748231Y-85340130D01*
X126739500Y-85384025D01*
X126739500Y-85384028D01*
X126739500Y-86413668D01*
X126739500Y-86413670D01*
X126739499Y-86413670D01*
X125453998Y-86413670D01*
X125452946Y-84433670D01*
X126729499Y-84433670D01*
X126738231Y-84477565D01*
X126738234Y-84477572D01*
X126771495Y-84527351D01*
X126771496Y-84527352D01*
X126821278Y-84560615D01*
X126821281Y-84560615D01*
X126821282Y-84560616D01*
X126865177Y-84569348D01*
X126865180Y-84569348D01*
X128894822Y-84569348D01*
X128938717Y-84560616D01*
X128938717Y-84560615D01*
X128938722Y-84560615D01*
X128988504Y-84527352D01*
X129021767Y-84477570D01*
X129026699Y-84452776D01*
X129030500Y-84433670D01*
X129030500Y-83404025D01*
X129021768Y-83360130D01*
X129021767Y-83360129D01*
X129021767Y-83360126D01*
X128988504Y-83310344D01*
X128973538Y-83300344D01*
X128938724Y-83277082D01*
X128938717Y-83277079D01*
X128894822Y-83268348D01*
X128894820Y-83268348D01*
X126865180Y-83268348D01*
X126865178Y-83268348D01*
X126821282Y-83277079D01*
X126821275Y-83277082D01*
X126771496Y-83310343D01*
X126771495Y-83310344D01*
X126738234Y-83360123D01*
X126738231Y-83360130D01*
X126729500Y-83404025D01*
X126729500Y-83404028D01*
X126729500Y-84433668D01*
X126729500Y-84433670D01*
X126729499Y-84433670D01*
X125452946Y-84433670D01*
X125450821Y-80433670D01*
X126729499Y-80433670D01*
X126738231Y-80477565D01*
X126738234Y-80477572D01*
X126771495Y-80527351D01*
X126771496Y-80527352D01*
X126821278Y-80560615D01*
X126821281Y-80560615D01*
X126821282Y-80560616D01*
X126865177Y-80569348D01*
X126865180Y-80569348D01*
X128894822Y-80569348D01*
X128938717Y-80560616D01*
X128938717Y-80560615D01*
X128938722Y-80560615D01*
X128988504Y-80527352D01*
X129021767Y-80477570D01*
X129024335Y-80464660D01*
X129030500Y-80433670D01*
X129030500Y-79404025D01*
X129021768Y-79360130D01*
X129021767Y-79360129D01*
X129021767Y-79360126D01*
X128988504Y-79310344D01*
X128949830Y-79284503D01*
X128938724Y-79277082D01*
X128938717Y-79277079D01*
X128894822Y-79268348D01*
X128894820Y-79268348D01*
X126865180Y-79268348D01*
X126865178Y-79268348D01*
X126821282Y-79277079D01*
X126821275Y-79277082D01*
X126771496Y-79310343D01*
X126771495Y-79310344D01*
X126738234Y-79360123D01*
X126738231Y-79360130D01*
X126729500Y-79404025D01*
X126729500Y-79404028D01*
X126729500Y-80433668D01*
X126729500Y-80433670D01*
X126729499Y-80433670D01*
X125450821Y-80433670D01*
X125450500Y-79830201D01*
X125450699Y-79809569D01*
X125450494Y-79809360D01*
X125450494Y-79809060D01*
X125436310Y-79794891D01*
X125436286Y-79794867D01*
X125435820Y-79794402D01*
X125421402Y-79779703D01*
X125421111Y-79779700D01*
X125420899Y-79779488D01*
X125400868Y-79779498D01*
X125399618Y-79779492D01*
X125010500Y-79775751D01*
X124943653Y-79755423D01*
X124898408Y-79702182D01*
X124889129Y-79632931D01*
X124918764Y-79569657D01*
X124957234Y-79540356D01*
X124973780Y-79532267D01*
X125060917Y-79445130D01*
X125060919Y-79445128D01*
X125115043Y-79334415D01*
X125115043Y-79334413D01*
X125115044Y-79334412D01*
X125117886Y-79325215D01*
X125120756Y-79326101D01*
X125143301Y-79276973D01*
X125202149Y-79239307D01*
X125236865Y-79234348D01*
X125650381Y-79234348D01*
X125717420Y-79254033D01*
X125738062Y-79270667D01*
X125740859Y-79273464D01*
X125740862Y-79273465D01*
X125740863Y-79273466D01*
X125838499Y-79316577D01*
X125838500Y-79316577D01*
X125838502Y-79316578D01*
X125862377Y-79319348D01*
X126317622Y-79319347D01*
X126341498Y-79316578D01*
X126396602Y-79292246D01*
X126414141Y-79284503D01*
X126414143Y-79284502D01*
X126417714Y-79282924D01*
X126439141Y-79273464D01*
X126514616Y-79197989D01*
X126557730Y-79100346D01*
X126560500Y-79076471D01*
X126560499Y-78721226D01*
X126557730Y-78697350D01*
X126555484Y-78692263D01*
X126514619Y-78599712D01*
X126514617Y-78599709D01*
X126514616Y-78599707D01*
X126439141Y-78524232D01*
X126394616Y-78504572D01*
X126389428Y-78502281D01*
X126336053Y-78457194D01*
X126315526Y-78390408D01*
X126334365Y-78323126D01*
X126366004Y-78288987D01*
X126376966Y-78280917D01*
X126439141Y-78253464D01*
X126508562Y-78184042D01*
X126516108Y-78178488D01*
X126540491Y-78169615D01*
X126563263Y-78157182D01*
X126579443Y-78155442D01*
X126581766Y-78154597D01*
X126583551Y-78155000D01*
X126589620Y-78154348D01*
X126615500Y-78154348D01*
X126682539Y-78174033D01*
X126728294Y-78226837D01*
X126739500Y-78278348D01*
X126739500Y-78443668D01*
X126739500Y-78443670D01*
X126739499Y-78443670D01*
X126748231Y-78487565D01*
X126748234Y-78487572D01*
X126772731Y-78524234D01*
X126781496Y-78537352D01*
X126831278Y-78570615D01*
X126831281Y-78570615D01*
X126831282Y-78570616D01*
X126875177Y-78579348D01*
X126875180Y-78579348D01*
X128904822Y-78579348D01*
X128948717Y-78570616D01*
X128948717Y-78570615D01*
X128948722Y-78570615D01*
X128998504Y-78537352D01*
X129031767Y-78487570D01*
X129033601Y-78478349D01*
X129040500Y-78443670D01*
X129040500Y-77414025D01*
X129031768Y-77370130D01*
X129031767Y-77370129D01*
X129031767Y-77370126D01*
X128998504Y-77320344D01*
X128998503Y-77320343D01*
X128948724Y-77287082D01*
X128948717Y-77287079D01*
X128904822Y-77278348D01*
X128904820Y-77278348D01*
X126875180Y-77278348D01*
X126875178Y-77278348D01*
X126831282Y-77287079D01*
X126831275Y-77287082D01*
X126781496Y-77320343D01*
X126781495Y-77320344D01*
X126748234Y-77370123D01*
X126748231Y-77370130D01*
X126739500Y-77414025D01*
X126739500Y-77507563D01*
X126719815Y-77574602D01*
X126667011Y-77620357D01*
X126597853Y-77630301D01*
X126534297Y-77601276D01*
X126518606Y-77583697D01*
X126439143Y-77504234D01*
X126439141Y-77504232D01*
X126439138Y-77504231D01*
X126439136Y-77504229D01*
X126341500Y-77461118D01*
X126341501Y-77461118D01*
X126317623Y-77458348D01*
X125862384Y-77458348D01*
X125862361Y-77458350D01*
X125838504Y-77461117D01*
X125838501Y-77461117D01*
X125740864Y-77504228D01*
X125740856Y-77504234D01*
X125665386Y-77579704D01*
X125665381Y-77579711D01*
X125622270Y-77677347D01*
X125619500Y-77701223D01*
X125619500Y-78056463D01*
X125619502Y-78056486D01*
X125622269Y-78080343D01*
X125622269Y-78080346D01*
X125665380Y-78177983D01*
X125665383Y-78177987D01*
X125665384Y-78177989D01*
X125740859Y-78253464D01*
X125778574Y-78270117D01*
X125790570Y-78275414D01*
X125843946Y-78320500D01*
X125864473Y-78387286D01*
X125845634Y-78454568D01*
X125793411Y-78500985D01*
X125790570Y-78502282D01*
X125740863Y-78524230D01*
X125740861Y-78524231D01*
X125740859Y-78524232D01*
X125740858Y-78524232D01*
X125740856Y-78524234D01*
X125665386Y-78599704D01*
X125665381Y-78599711D01*
X125618502Y-78705882D01*
X125615872Y-78704720D01*
X125587150Y-78751429D01*
X125524183Y-78781711D01*
X125504101Y-78783348D01*
X125236865Y-78783348D01*
X125169826Y-78763663D01*
X125124071Y-78710859D01*
X125118591Y-78692263D01*
X125117886Y-78692482D01*
X125115044Y-78683284D01*
X125115043Y-78683281D01*
X125060919Y-78572568D01*
X125060917Y-78572566D01*
X125060917Y-78572565D01*
X124973782Y-78485430D01*
X124959295Y-78478348D01*
X124863067Y-78431305D01*
X124791295Y-78420848D01*
X124791289Y-78420848D01*
X124208706Y-78420848D01*
X124136932Y-78431305D01*
X124026217Y-78485430D01*
X123939082Y-78572565D01*
X123884957Y-78683280D01*
X123883648Y-78692263D01*
X123874500Y-78755053D01*
X123874500Y-78755057D01*
X123874500Y-78755058D01*
X123874500Y-79262641D01*
X123882762Y-79319347D01*
X123884957Y-79334415D01*
X123925885Y-79418136D01*
X123939082Y-79445130D01*
X124026218Y-79532266D01*
X124034581Y-79538237D01*
X124033127Y-79540272D01*
X124073812Y-79577436D01*
X124091732Y-79644969D01*
X124070298Y-79711469D01*
X124016313Y-79755825D01*
X123966583Y-79765713D01*
X123493605Y-79761165D01*
X123426758Y-79740837D01*
X123381513Y-79687596D01*
X123370797Y-79636960D01*
X123377340Y-75832634D01*
X123397140Y-75765629D01*
X123450023Y-75719965D01*
X123501340Y-75708848D01*
X125415500Y-75708848D01*
X125482539Y-75728533D01*
X125528294Y-75781337D01*
X125539500Y-75832847D01*
X125539500Y-75996462D01*
X125539502Y-75996486D01*
X125542269Y-76020343D01*
X125542269Y-76020346D01*
X125585380Y-76117983D01*
X125585383Y-76117987D01*
X125585384Y-76117989D01*
X125660859Y-76193464D01*
X125660862Y-76193465D01*
X125660863Y-76193466D01*
X125758499Y-76236577D01*
X125758500Y-76236577D01*
X125758502Y-76236578D01*
X125782377Y-76239348D01*
X126237622Y-76239347D01*
X126261498Y-76236578D01*
X126359135Y-76193467D01*
X126359136Y-76193466D01*
X126359141Y-76193464D01*
X126361938Y-76190667D01*
X126368269Y-76187209D01*
X126368618Y-76186971D01*
X126368642Y-76187006D01*
X126388865Y-76175963D01*
X126414684Y-76159371D01*
X126420884Y-76158479D01*
X126423261Y-76157182D01*
X126449619Y-76154348D01*
X126615500Y-76154348D01*
X126682539Y-76174033D01*
X126728294Y-76226837D01*
X126739500Y-76278348D01*
X126739500Y-76443668D01*
X126739500Y-76443670D01*
X126739499Y-76443670D01*
X126748231Y-76487565D01*
X126748234Y-76487572D01*
X126777508Y-76531384D01*
X126781496Y-76537352D01*
X126831278Y-76570615D01*
X126831281Y-76570615D01*
X126831282Y-76570616D01*
X126875177Y-76579348D01*
X126875180Y-76579348D01*
X128904822Y-76579348D01*
X128948717Y-76570616D01*
X128948717Y-76570615D01*
X128948722Y-76570615D01*
X128998504Y-76537352D01*
X129031767Y-76487570D01*
X129040500Y-76443668D01*
X129040500Y-75832847D01*
X129060185Y-75765809D01*
X129112989Y-75720054D01*
X129164500Y-75708848D01*
X141090000Y-75708848D01*
X141150000Y-75648848D01*
X141150000Y-70473670D01*
X142659499Y-70473670D01*
X142668231Y-70517565D01*
X142668232Y-70517569D01*
X142668233Y-70517570D01*
X142701496Y-70567352D01*
X142751278Y-70600615D01*
X142751281Y-70600615D01*
X142751282Y-70600616D01*
X142795177Y-70609348D01*
X142795180Y-70609348D01*
X144824822Y-70609348D01*
X144868717Y-70600616D01*
X144868717Y-70600615D01*
X144868722Y-70600615D01*
X144918504Y-70567352D01*
X144951767Y-70517570D01*
X144960500Y-70473668D01*
X144960500Y-69444028D01*
X144960500Y-69444025D01*
X144951768Y-69400130D01*
X144951767Y-69400129D01*
X144951767Y-69400126D01*
X144918504Y-69350344D01*
X144918503Y-69350343D01*
X144868724Y-69317082D01*
X144868717Y-69317079D01*
X144824822Y-69308348D01*
X144824820Y-69308348D01*
X142795180Y-69308348D01*
X142795178Y-69308348D01*
X142751282Y-69317079D01*
X142751275Y-69317082D01*
X142701496Y-69350343D01*
X142701495Y-69350344D01*
X142668234Y-69400123D01*
X142668231Y-69400130D01*
X142659500Y-69444025D01*
X142659500Y-69444028D01*
X142659500Y-70473668D01*
X142659500Y-70473670D01*
X142659499Y-70473670D01*
X141150000Y-70473670D01*
X141150000Y-68354500D01*
X141169685Y-68287461D01*
X141222489Y-68241706D01*
X141274000Y-68230500D01*
X147866004Y-68230500D01*
X147933043Y-68250185D01*
G37*
%TD.AperFunction*%
%TA.AperFunction,Conductor*%
G36*
X142608834Y-77412584D02*
G01*
X142664767Y-77454456D01*
X142689184Y-77519920D01*
X142689500Y-77528766D01*
X142689500Y-78219080D01*
X142669815Y-78286119D01*
X142653181Y-78306761D01*
X141728829Y-79231112D01*
X141718774Y-79255385D01*
X141718774Y-79255387D01*
X141711286Y-79273465D01*
X141694499Y-79313991D01*
X141694499Y-79418136D01*
X141694500Y-79418145D01*
X141694500Y-95146748D01*
X141674815Y-95213787D01*
X141622011Y-95259542D01*
X141552853Y-95269486D01*
X141489297Y-95240461D01*
X141482819Y-95234429D01*
X140961819Y-94713429D01*
X140928334Y-94652106D01*
X140925500Y-94625748D01*
X140925500Y-79044766D01*
X140945185Y-78977727D01*
X140961814Y-78957090D01*
X142477819Y-77441084D01*
X142539142Y-77407600D01*
X142608834Y-77412584D01*
G37*
%TD.AperFunction*%
%TA.AperFunction,Conductor*%
G36*
X125652647Y-90127416D02*
G01*
X125653504Y-90126167D01*
X125660667Y-90131074D01*
X125661176Y-90131306D01*
X125661649Y-90131746D01*
X125662983Y-90132660D01*
X125662984Y-90132661D01*
X125762338Y-90176530D01*
X125786627Y-90179348D01*
X126200500Y-90179347D01*
X126267539Y-90199031D01*
X126313294Y-90251835D01*
X126324500Y-90303347D01*
X126324500Y-92547330D01*
X126304815Y-92614369D01*
X126252011Y-92660124D01*
X126186210Y-92670504D01*
X126167626Y-92668348D01*
X125712384Y-92668348D01*
X125712361Y-92668350D01*
X125688505Y-92671116D01*
X125631362Y-92696348D01*
X125562083Y-92705419D01*
X125498898Y-92675595D01*
X125461868Y-92616345D01*
X125457276Y-92582979D01*
X125457245Y-92524912D01*
X125456023Y-90225127D01*
X125475672Y-90158078D01*
X125528452Y-90112295D01*
X125597605Y-90102315D01*
X125652647Y-90127416D01*
G37*
%TD.AperFunction*%
%TD*%
%TA.AperFunction,Conductor*%
%TO.N,+3.3V*%
G36*
X130888737Y-119296024D02*
G01*
X130955095Y-119317894D01*
X130999095Y-119372170D01*
X131008666Y-119421320D01*
X130990697Y-121056520D01*
X130970276Y-121123339D01*
X130938091Y-121156547D01*
X130042668Y-121786998D01*
X129976520Y-121809497D01*
X129970047Y-121809602D01*
X128000000Y-121789999D01*
X128000000Y-123028638D01*
X127980315Y-123095677D01*
X127963681Y-123116319D01*
X127306319Y-123773681D01*
X127244996Y-123807166D01*
X127218638Y-123810000D01*
X126245850Y-123810000D01*
X126178811Y-123790315D01*
X126133056Y-123737511D01*
X126121864Y-123684163D01*
X126158173Y-121233287D01*
X126178848Y-121166549D01*
X126232324Y-121121581D01*
X126283296Y-121111131D01*
X128340000Y-121130000D01*
X129270024Y-121126490D01*
X130362320Y-119341571D01*
X130414102Y-119294666D01*
X130472147Y-119282365D01*
X130888737Y-119296024D01*
G37*
%TD.AperFunction*%
%TD*%
%TA.AperFunction,Conductor*%
%TO.N,+3.3V*%
G36*
X141943039Y-107619685D02*
G01*
X141988794Y-107672489D01*
X142000000Y-107724000D01*
X142000000Y-111376000D01*
X141980315Y-111443039D01*
X141927511Y-111488794D01*
X141876000Y-111500000D01*
X141224000Y-111500000D01*
X141156961Y-111480315D01*
X141111206Y-111427511D01*
X141100000Y-111376000D01*
X141100000Y-107724000D01*
X141119685Y-107656961D01*
X141172489Y-107611206D01*
X141224000Y-107600000D01*
X141876000Y-107600000D01*
X141943039Y-107619685D01*
G37*
%TD.AperFunction*%
%TD*%
%TA.AperFunction,Conductor*%
%TO.N,+3.3V*%
G36*
X133443039Y-108619685D02*
G01*
X133488794Y-108672489D01*
X133500000Y-108724000D01*
X133500000Y-110376000D01*
X133480315Y-110443039D01*
X133427511Y-110488794D01*
X133376000Y-110500000D01*
X132524000Y-110500000D01*
X132456961Y-110480315D01*
X132411206Y-110427511D01*
X132400000Y-110376000D01*
X132400000Y-108724000D01*
X132419685Y-108656961D01*
X132472489Y-108611206D01*
X132524000Y-108600000D01*
X133376000Y-108600000D01*
X133443039Y-108619685D01*
G37*
%TD.AperFunction*%
%TD*%
M02*
