%TF.GenerationSoftware,KiCad,Pcbnew,9.0.0*%
%TF.CreationDate,2025-03-27T23:54:47+01:00*%
%TF.ProjectId,flexpcb,666c6578-7063-4622-9e6b-696361645f70,rev?*%
%TF.SameCoordinates,Original*%
%TF.FileFunction,Paste,Bot*%
%TF.FilePolarity,Positive*%
%FSLAX46Y46*%
G04 Gerber Fmt 4.6, Leading zero omitted, Abs format (unit mm)*
G04 Created by KiCad (PCBNEW 9.0.0) date 2025-03-27 23:54:47*
%MOMM*%
%LPD*%
G01*
G04 APERTURE LIST*
G04 Aperture macros list*
%AMRoundRect*
0 Rectangle with rounded corners*
0 $1 Rounding radius*
0 $2 $3 $4 $5 $6 $7 $8 $9 X,Y pos of 4 corners*
0 Add a 4 corners polygon primitive as box body*
4,1,4,$2,$3,$4,$5,$6,$7,$8,$9,$2,$3,0*
0 Add four circle primitives for the rounded corners*
1,1,$1+$1,$2,$3*
1,1,$1+$1,$4,$5*
1,1,$1+$1,$6,$7*
1,1,$1+$1,$8,$9*
0 Add four rect primitives between the rounded corners*
20,1,$1+$1,$2,$3,$4,$5,0*
20,1,$1+$1,$4,$5,$6,$7,0*
20,1,$1+$1,$6,$7,$8,$9,0*
20,1,$1+$1,$8,$9,$2,$3,0*%
G04 Aperture macros list end*
%ADD10R,2.000000X1.000000*%
%ADD11R,1.000000X2.000000*%
%ADD12RoundRect,0.160000X-0.197500X-0.160000X0.197500X-0.160000X0.197500X0.160000X-0.197500X0.160000X0*%
%ADD13RoundRect,0.135000X-0.185000X0.135000X-0.185000X-0.135000X0.185000X-0.135000X0.185000X0.135000X0*%
%ADD14RoundRect,0.140000X0.170000X-0.140000X0.170000X0.140000X-0.170000X0.140000X-0.170000X-0.140000X0*%
%ADD15RoundRect,0.155000X-0.155000X0.212500X-0.155000X-0.212500X0.155000X-0.212500X0.155000X0.212500X0*%
%ADD16R,1.200000X0.800000*%
%ADD17RoundRect,0.150000X0.625000X-0.150000X0.625000X0.150000X-0.625000X0.150000X-0.625000X-0.150000X0*%
%ADD18RoundRect,0.250000X0.650000X-0.350000X0.650000X0.350000X-0.650000X0.350000X-0.650000X-0.350000X0*%
%ADD19RoundRect,0.155000X0.212500X0.155000X-0.212500X0.155000X-0.212500X-0.155000X0.212500X-0.155000X0*%
%ADD20RoundRect,0.250000X0.650000X-0.325000X0.650000X0.325000X-0.650000X0.325000X-0.650000X-0.325000X0*%
%ADD21RoundRect,0.135000X-0.135000X-0.185000X0.135000X-0.185000X0.135000X0.185000X-0.135000X0.185000X0*%
%ADD22RoundRect,0.140000X-0.140000X-0.170000X0.140000X-0.170000X0.140000X0.170000X-0.140000X0.170000X0*%
%ADD23RoundRect,0.150000X-0.625000X0.150000X-0.625000X-0.150000X0.625000X-0.150000X0.625000X0.150000X0*%
%ADD24RoundRect,0.250000X-0.650000X0.350000X-0.650000X-0.350000X0.650000X-0.350000X0.650000X0.350000X0*%
%ADD25R,0.325000X0.300000*%
%ADD26R,0.300000X0.325000*%
%ADD27RoundRect,0.160000X0.197500X0.160000X-0.197500X0.160000X-0.197500X-0.160000X0.197500X-0.160000X0*%
%ADD28RoundRect,0.218750X-0.256250X0.218750X-0.256250X-0.218750X0.256250X-0.218750X0.256250X0.218750X0*%
%ADD29R,1.500000X2.000000*%
%ADD30R,0.900000X0.900000*%
%ADD31RoundRect,0.218750X0.256250X-0.218750X0.256250X0.218750X-0.256250X0.218750X-0.256250X-0.218750X0*%
%ADD32RoundRect,0.150000X-0.150000X-0.625000X0.150000X-0.625000X0.150000X0.625000X-0.150000X0.625000X0*%
%ADD33RoundRect,0.250000X-0.350000X-0.650000X0.350000X-0.650000X0.350000X0.650000X-0.350000X0.650000X0*%
%ADD34RoundRect,0.135000X0.185000X-0.135000X0.185000X0.135000X-0.185000X0.135000X-0.185000X-0.135000X0*%
%ADD35RoundRect,0.140000X-0.170000X0.140000X-0.170000X-0.140000X0.170000X-0.140000X0.170000X0.140000X0*%
G04 APERTURE END LIST*
D10*
%TO.C,Tarvos1*%
X143810000Y-69958848D03*
X143830000Y-71948848D03*
X143830000Y-73938848D03*
X143840000Y-75938848D03*
X143840000Y-77928848D03*
X143830000Y-79918848D03*
X143820000Y-83908848D03*
X143820000Y-85908848D03*
X143820000Y-87898848D03*
X143830000Y-89868848D03*
X143810000Y-91888848D03*
X143810000Y-93868848D03*
X127900000Y-93868848D03*
X127880000Y-91878848D03*
X127870000Y-89888848D03*
X127880000Y-87888848D03*
X127890000Y-85898848D03*
X127880000Y-83918848D03*
X127880000Y-79918848D03*
X127890000Y-77928848D03*
X127890000Y-75928848D03*
X127910000Y-73938848D03*
X127900000Y-71938848D03*
D11*
X138850000Y-94838848D03*
X136820000Y-94838848D03*
X134840000Y-94838848D03*
X132880000Y-94858848D03*
%TD*%
D12*
%TO.C,R25*%
X140332500Y-109020000D03*
X141527500Y-109020000D03*
%TD*%
D13*
%TO.C,R8*%
X137810000Y-127850000D03*
X137810000Y-128870000D03*
%TD*%
D14*
%TO.C,C4*%
X127690000Y-121420000D03*
X127690000Y-120460000D03*
%TD*%
D15*
%TO.C,C5*%
X125450000Y-125862500D03*
X125450000Y-126997500D03*
%TD*%
D13*
%TO.C,R5*%
X126090000Y-77878848D03*
X126090000Y-78898848D03*
%TD*%
D16*
%TO.C,PA1010D1*%
X136500000Y-123310000D03*
X136500000Y-124910000D03*
X136500000Y-127810000D03*
X136500000Y-129410000D03*
X136500000Y-131010000D03*
X126800000Y-131010000D03*
X126800000Y-129410000D03*
X126800000Y-127810000D03*
X126800000Y-124910000D03*
X126800000Y-123310000D03*
%TD*%
D17*
%TO.C,U2*%
X152570000Y-115240000D03*
X152570000Y-114240000D03*
D18*
X155095000Y-116540000D03*
X155095000Y-112940000D03*
%TD*%
D12*
%TO.C,R14*%
X132815000Y-110050000D03*
X134010000Y-110050000D03*
%TD*%
D19*
%TO.C,C31*%
X134010000Y-107980000D03*
X132875000Y-107980000D03*
%TD*%
D20*
%TO.C,C1*%
X146600000Y-74020000D03*
X146600000Y-71070000D03*
%TD*%
D12*
%TO.C,R13*%
X132825000Y-108990000D03*
X134020000Y-108990000D03*
%TD*%
D21*
%TO.C,R2*%
X138230000Y-97518848D03*
X139250000Y-97518848D03*
%TD*%
D22*
%TO.C,C7*%
X93580000Y-115860000D03*
X94540000Y-115860000D03*
%TD*%
D23*
%TO.C,U1*%
X118710000Y-110290000D03*
X118710000Y-111290000D03*
X118710000Y-112290000D03*
X118710000Y-113290000D03*
X118710000Y-114290000D03*
X118710000Y-115290000D03*
D24*
X116185000Y-108990000D03*
X116185000Y-116590000D03*
%TD*%
D13*
%TO.C,R7*%
X138830000Y-127860000D03*
X138830000Y-128880000D03*
%TD*%
D12*
%TO.C,R26*%
X140332500Y-107990000D03*
X141527500Y-107990000D03*
%TD*%
D25*
%TO.C,U3*%
X136400000Y-109785000D03*
X136400000Y-109285000D03*
D26*
X136650000Y-108760000D03*
X137150000Y-108760000D03*
X137650000Y-108760000D03*
D25*
X137900000Y-109285000D03*
X137900000Y-109785000D03*
D26*
X137650000Y-110310000D03*
X137150000Y-110310000D03*
X136650000Y-110310000D03*
%TD*%
D27*
%TO.C,R27*%
X141527500Y-111100000D03*
X140332500Y-111100000D03*
%TD*%
D28*
%TO.C,D2*%
X124500000Y-77433848D03*
X124500000Y-79008848D03*
%TD*%
D27*
%TO.C,R23*%
X141527500Y-110050000D03*
X140332500Y-110050000D03*
%TD*%
D29*
%TO.C,SW2*%
X105500000Y-120190000D03*
X105500000Y-105890000D03*
X100500000Y-120190000D03*
X100500000Y-105890000D03*
%TD*%
D19*
%TO.C,C23*%
X133960000Y-111080000D03*
X132825000Y-111080000D03*
%TD*%
D30*
%TO.C,LED1*%
X111250000Y-113720000D03*
X112950000Y-113720000D03*
X112950000Y-112020000D03*
X111250000Y-112020000D03*
%TD*%
D31*
%TO.C,D1*%
X124440000Y-75696348D03*
X124440000Y-74121348D03*
%TD*%
D32*
%TO.C,J2*%
X130690000Y-120060000D03*
X131690000Y-120060000D03*
X132690000Y-120060000D03*
X133690000Y-120060000D03*
D33*
X129390000Y-116185000D03*
X134990000Y-116185000D03*
%TD*%
D14*
%TO.C,C3*%
X126720000Y-121410000D03*
X126720000Y-120450000D03*
%TD*%
D21*
%TO.C,R1*%
X139030000Y-96518848D03*
X140050000Y-96518848D03*
%TD*%
D30*
%TO.C,LED2*%
X93240000Y-112140000D03*
X93240000Y-113840000D03*
X94940000Y-113840000D03*
X94940000Y-112140000D03*
%TD*%
D14*
%TO.C,C2*%
X126000000Y-89748848D03*
X126000000Y-88788848D03*
%TD*%
D34*
%TO.C,R6*%
X125940000Y-94108848D03*
X125940000Y-93088848D03*
%TD*%
%TO.C,R4*%
X126010000Y-75818848D03*
X126010000Y-74798848D03*
%TD*%
D21*
%TO.C,R3*%
X143160000Y-95948848D03*
X144180000Y-95948848D03*
%TD*%
D35*
%TO.C,C6*%
X112950000Y-115740000D03*
X112950000Y-116700000D03*
%TD*%
M02*
