%TF.GenerationSoftware,KiCad,Pcbnew,9.0.0*%
%TF.CreationDate,2025-03-28T18:18:21+01:00*%
%TF.ProjectId,cansatperso,63616e73-6174-4706-9572-736f2e6b6963,rev?*%
%TF.SameCoordinates,Original*%
%TF.FileFunction,Copper,L2,Inr*%
%TF.FilePolarity,Positive*%
%FSLAX46Y46*%
G04 Gerber Fmt 4.6, Leading zero omitted, Abs format (unit mm)*
G04 Created by KiCad (PCBNEW 9.0.0) date 2025-03-28 18:18:21*
%MOMM*%
%LPD*%
G01*
G04 APERTURE LIST*
G04 Aperture macros list*
%AMOutline5P*
0 Free polygon, 5 corners , with rotation*
0 The origin of the aperture is its center*
0 number of corners: always 5*
0 $1 to $10 corner X, Y*
0 $11 Rotation angle, in degrees counterclockwise*
0 create outline with 5 corners*
4,1,5,$1,$2,$3,$4,$5,$6,$7,$8,$9,$10,$1,$2,$11*%
%AMOutline6P*
0 Free polygon, 6 corners , with rotation*
0 The origin of the aperture is its center*
0 number of corners: always 6*
0 $1 to $12 corner X, Y*
0 $13 Rotation angle, in degrees counterclockwise*
0 create outline with 6 corners*
4,1,6,$1,$2,$3,$4,$5,$6,$7,$8,$9,$10,$11,$12,$1,$2,$13*%
%AMOutline7P*
0 Free polygon, 7 corners , with rotation*
0 The origin of the aperture is its center*
0 number of corners: always 7*
0 $1 to $14 corner X, Y*
0 $15 Rotation angle, in degrees counterclockwise*
0 create outline with 7 corners*
4,1,7,$1,$2,$3,$4,$5,$6,$7,$8,$9,$10,$11,$12,$13,$14,$1,$2,$15*%
%AMOutline8P*
0 Free polygon, 8 corners , with rotation*
0 The origin of the aperture is its center*
0 number of corners: always 8*
0 $1 to $16 corner X, Y*
0 $17 Rotation angle, in degrees counterclockwise*
0 create outline with 8 corners*
4,1,8,$1,$2,$3,$4,$5,$6,$7,$8,$9,$10,$11,$12,$13,$14,$15,$16,$1,$2,$17*%
%AMFreePoly0*
4,1,7,1.000000,0.600000,1.000000,-1.000000,-1.000000,-1.000000,-1.000000,0.600000,-0.600000,1.000000,0.600000,1.000000,1.000000,0.600000,1.000000,0.600000,$1*%
G04 Aperture macros list end*
%TA.AperFunction,ComponentPad*%
%ADD10C,2.200000*%
%TD*%
%TA.AperFunction,ComponentPad*%
%ADD11Outline6P,-0.600000X0.360000X-0.360000X0.600000X0.360000X0.600000X0.600000X0.360000X0.600000X-0.600000X-0.600000X-0.600000X270.000000*%
%TD*%
%TA.AperFunction,ComponentPad*%
%ADD12FreePoly0,90.000000*%
%TD*%
%TA.AperFunction,ViaPad*%
%ADD13C,0.400000*%
%TD*%
%TA.AperFunction,Conductor*%
%ADD14C,0.150000*%
%TD*%
G04 APERTURE END LIST*
D10*
%TO.N,GND*%
%TO.C,*%
X176700000Y-71600000D03*
%TD*%
%TO.N,GND*%
%TO.C,*%
X191200000Y-95400000D03*
%TD*%
D11*
%TO.N,TIM3_CHI_PWM4*%
%TO.C,REF\u002A\u002A2*%
X195660000Y-87340000D03*
%TD*%
D12*
%TO.N,GND*%
%TO.C,*%
X172680000Y-80400000D03*
%TD*%
D11*
%TO.N,+5V*%
%TO.C,REF\u002A\u002A1*%
X195660000Y-89740000D03*
%TD*%
D10*
%TO.N,GND*%
%TO.C,*%
X176700000Y-95400000D03*
%TD*%
%TO.N,GND*%
%TO.C,*%
X191200000Y-71600000D03*
%TD*%
D11*
%TO.N,GND*%
%TO.C,REF\u002A\u002A*%
X195660000Y-92190000D03*
%TD*%
D12*
%TO.N,VIN*%
%TO.C,REF\u002A\u002A*%
X172675000Y-86705000D03*
%TD*%
D13*
%TO.N,+3.3V*%
X190420521Y-89010521D03*
%TO.N,ADC1_IN2_CURR*%
X174500000Y-90800000D03*
%TO.N,+3.3V*%
X179000000Y-79425000D03*
%TO.N,GND*%
X176000000Y-79425000D03*
%TO.N,I2C1_SDA*%
X178000000Y-79425000D03*
X181600000Y-82800000D03*
%TO.N,GND*%
X176360000Y-93120000D03*
X184730000Y-85210000D03*
X176140000Y-82470000D03*
X194760000Y-76690000D03*
X195710000Y-81720000D03*
X192250000Y-88020000D03*
X182160000Y-85940000D03*
X188060000Y-80840000D03*
X191100000Y-73300000D03*
X174140000Y-76740000D03*
X186860000Y-77390000D03*
X182600000Y-73300000D03*
X189650000Y-79120000D03*
X190880000Y-79060000D03*
X175390000Y-93170000D03*
X194680000Y-91940000D03*
X180900000Y-73300000D03*
X185500000Y-89530000D03*
X183680000Y-78680000D03*
X178400000Y-90820000D03*
X173080000Y-74720000D03*
X186880000Y-77930000D03*
X186810000Y-92670000D03*
X182750000Y-85180000D03*
X194760000Y-85190000D03*
X186380000Y-89540000D03*
X183870000Y-86560000D03*
X185770000Y-86240000D03*
X175330000Y-93790000D03*
X182730000Y-75760000D03*
X179340000Y-84110000D03*
X191820000Y-87500000D03*
X192290000Y-91270000D03*
X177500000Y-73300000D03*
X188800000Y-87800000D03*
X174340000Y-78550000D03*
X183840000Y-85180000D03*
X176300000Y-92500000D03*
X183670000Y-77690000D03*
X187970000Y-90257500D03*
X178860000Y-92680000D03*
X187700000Y-73300000D03*
X184670000Y-89530000D03*
X184040000Y-93547500D03*
X182700000Y-93770000D03*
X194580000Y-91267500D03*
X189400000Y-73300000D03*
X174340000Y-80170000D03*
X178930000Y-93810000D03*
X189690000Y-80400000D03*
X182750000Y-86610000D03*
X179200000Y-73300000D03*
X181370000Y-87230000D03*
X192770000Y-77880000D03*
X178130000Y-84070000D03*
X181100000Y-79200000D03*
X192420000Y-91820000D03*
X189020000Y-78290000D03*
X174000000Y-90300000D03*
X183600000Y-79750000D03*
X191330000Y-77620000D03*
X185670000Y-85170000D03*
X181840000Y-86720000D03*
X194760000Y-80090000D03*
X181000000Y-93770000D03*
X177480000Y-92630000D03*
X184300000Y-73300000D03*
X177600000Y-93770000D03*
X186000000Y-73300000D03*
X188010000Y-79360000D03*
X192600000Y-87500000D03*
%TO.N,+3.3V*%
X193380000Y-84040000D03*
X190050000Y-89495521D03*
X189750000Y-81710000D03*
X193800000Y-86700000D03*
X189950000Y-84530000D03*
X187800000Y-75020000D03*
X190070000Y-85070000D03*
X193830000Y-84270000D03*
X195710000Y-80320000D03*
X173070000Y-76130000D03*
X186180000Y-91660000D03*
X188320000Y-75010000D03*
X185110000Y-91730000D03*
X181090000Y-83220000D03*
X192570000Y-76830000D03*
X183050000Y-75090000D03*
X193816587Y-87131306D03*
X187000000Y-91430000D03*
X193150000Y-82610000D03*
X185020000Y-92422500D03*
X180140000Y-83220000D03*
%TO.N,NRST*%
X173080000Y-93590000D03*
X179380000Y-90850660D03*
%TO.N,USART3_RX*%
X180000000Y-93270000D03*
%TO.N,SDDETECT*%
X193396250Y-81483750D03*
X184190000Y-91260000D03*
%TO.N,+5V*%
X189147500Y-91280000D03*
X193490000Y-93810000D03*
X181560000Y-74390000D03*
X173070000Y-73460000D03*
X181541494Y-73890340D03*
X175170000Y-73890000D03*
X175170000Y-74330000D03*
X194280000Y-88840000D03*
X194280000Y-89310000D03*
X195710000Y-78920000D03*
%TO.N,ADC1_IN3_VBAT*%
X174770000Y-83300000D03*
X179180000Y-88470000D03*
%TO.N,ADC1_IN2_CURR*%
X179541191Y-88089171D03*
%TO.N,I2C3_SDA_ACCEL*%
X185110000Y-82870000D03*
X195710000Y-83120000D03*
X189860000Y-83705000D03*
%TO.N,I2C1_SCL*%
X177000000Y-78300000D03*
%TO.N,I2C3_SCL_ACCEL*%
X188090000Y-87150000D03*
X191937000Y-83410000D03*
X195710000Y-84520000D03*
%TO.N,3.3VEN*%
X189655249Y-93721215D03*
X189160000Y-93790000D03*
X189740000Y-77920000D03*
X190530166Y-83559834D03*
X189610000Y-93200000D03*
%TO.N,SPI1_CS_SD*%
X182650000Y-91240000D03*
X190330000Y-76010000D03*
%TO.N,SPI1_MISO_SD*%
X181480000Y-91210000D03*
X184510000Y-76050000D03*
%TO.N,SPI1_SCK_SD*%
X180225170Y-90704168D03*
X187020000Y-75880000D03*
%TO.N,SPI1_MOSI_SD*%
X189220000Y-75840000D03*
X182060000Y-91220000D03*
%TO.N,USART1_RX_GPS*%
X189730000Y-83060000D03*
X183132230Y-82772331D03*
%TO.N,USART1_TX_GPS*%
X183185000Y-83269541D03*
X189760000Y-82490000D03*
%TO.N,LPUART1_RX_RADIO*%
X186065000Y-78680000D03*
X179690000Y-90100000D03*
%TO.N,LPUART1_TX_RADIO*%
X187160000Y-90760000D03*
X187976943Y-78256943D03*
%TO.N,GPIO_EXTI1*%
X173070000Y-77580000D03*
X183230000Y-91230000D03*
%TO.N,SWO*%
X183310000Y-82305000D03*
X173090000Y-89490000D03*
%TO.N,SWDIO*%
X188230000Y-83220000D03*
X173070000Y-92300000D03*
%TO.N,I2C1_SCL*%
X186100000Y-82800000D03*
%TO.N,SWCLK{slash}I2C1_SDA*%
X173070000Y-90900000D03*
X187585000Y-83220000D03*
%TO.N,TIM3_CHI_PWM4*%
X188120000Y-87730000D03*
%TO.N,USART3_TX*%
X185620000Y-91330000D03*
X180020000Y-92060000D03*
%TO.N,D+*%
X193220000Y-89955000D03*
X188120000Y-85490000D03*
%TO.N,D-*%
X190860000Y-90540000D03*
X188150000Y-86110000D03*
%TO.N,PWEN*%
X188180000Y-88240000D03*
X194690000Y-93860000D03*
%TO.N,USBD+*%
X192060000Y-93870000D03*
%TO.N,USBD-*%
X190740000Y-93860000D03*
%TO.N,ADC2_IN17*%
X180190000Y-90150000D03*
X174500000Y-93530000D03*
%TO.N,USART3_RX*%
X182345000Y-82715000D03*
%TD*%
D14*
%TO.N,SPI1_SCK_SD*%
X186815000Y-75675000D02*
X187020000Y-75880000D01*
X184354669Y-75675000D02*
X186815000Y-75675000D01*
X184135000Y-75894669D02*
X184354669Y-75675000D01*
X184135000Y-76205331D02*
X184135000Y-75894669D01*
X184354669Y-85545331D02*
X184354669Y-76425000D01*
X184354669Y-76425000D02*
X184135000Y-76205331D01*
X180610000Y-89290000D02*
X184354669Y-85545331D01*
X179969669Y-89290000D02*
X180610000Y-89290000D01*
X179315000Y-90255331D02*
X179315000Y-89944669D01*
X179763837Y-90704168D02*
X179315000Y-90255331D01*
X179315000Y-89944669D02*
X179969669Y-89290000D01*
X180225170Y-90704168D02*
X179763837Y-90704168D01*
%TO.N,LPUART1_RX_RADIO*%
X180250000Y-89540000D02*
X179690000Y-90100000D01*
X184895000Y-86441446D02*
X181796446Y-89540000D01*
X185295000Y-85325331D02*
X184895000Y-85725331D01*
X185295000Y-83905000D02*
X185295000Y-85325331D01*
X181796446Y-89540000D02*
X180250000Y-89540000D01*
X185500000Y-79245000D02*
X185500000Y-83700000D01*
X186065000Y-78680000D02*
X185500000Y-79245000D01*
X184895000Y-85725331D02*
X184895000Y-86441446D01*
X185500000Y-83700000D02*
X185295000Y-83905000D01*
%TO.N,USART3_RX*%
X181580000Y-83480000D02*
X182345000Y-82715000D01*
X181580000Y-84110000D02*
X181580000Y-83480000D01*
X180995000Y-84695000D02*
X181580000Y-84110000D01*
X180995000Y-87418554D02*
X180995000Y-84695000D01*
X180068554Y-88345000D02*
X180995000Y-87418554D01*
X177950000Y-89770000D02*
X178875000Y-88845000D01*
X178875000Y-88845000D02*
X179395000Y-88845000D01*
X177950000Y-91220000D02*
X177950000Y-89770000D01*
X179730000Y-93000000D02*
X177950000Y-91220000D01*
X179395000Y-88845000D02*
X179895000Y-88345000D01*
X180000000Y-93000000D02*
X179730000Y-93000000D01*
X179895000Y-88345000D02*
X180068554Y-88345000D01*
%TO.N,USART3_TX*%
X184345331Y-91635000D02*
X184650331Y-91330000D01*
X180983554Y-92060000D02*
X181408554Y-91635000D01*
X180180000Y-92060000D02*
X180983554Y-92060000D01*
X180020000Y-91900000D02*
X180180000Y-92060000D01*
X184650331Y-91330000D02*
X185620000Y-91330000D01*
X181408554Y-91635000D02*
X184345331Y-91635000D01*
%TO.N,ADC1_IN3_VBAT*%
X179180000Y-88190000D02*
X174770000Y-83780000D01*
X179180000Y-88470000D02*
X179180000Y-88190000D01*
X174770000Y-83780000D02*
X174770000Y-83300000D01*
%TO.N,I2C3_SDA_ACCEL*%
X195625000Y-83035000D02*
X195710000Y-83120000D01*
X189860000Y-83705000D02*
X189860000Y-83699669D01*
X189860000Y-83699669D02*
X190524669Y-83035000D01*
X190524669Y-83035000D02*
X195625000Y-83035000D01*
%TO.N,I2C3_SCL_ACCEL*%
X191937000Y-83410000D02*
X193550000Y-83410000D01*
X188820331Y-87150000D02*
X191937000Y-84033331D01*
X191937000Y-84033331D02*
X191937000Y-83410000D01*
X188090000Y-87150000D02*
X188820331Y-87150000D01*
X193550000Y-83410000D02*
X194660000Y-84520000D01*
X194660000Y-84520000D02*
X195710000Y-84520000D01*
%TO.N,SPI1_CS_SD*%
X187210000Y-78493554D02*
X187210000Y-85720000D01*
X189693554Y-76010000D02*
X187210000Y-78493554D01*
X190330000Y-76010000D02*
X189693554Y-76010000D01*
X187210000Y-85720000D02*
X182650000Y-90280000D01*
X182650000Y-90280000D02*
X182650000Y-91240000D01*
%TO.N,SPI1_MISO_SD*%
X180604669Y-91605000D02*
X180385000Y-91385331D01*
X185825331Y-85545000D02*
X186500000Y-84870331D01*
X181480000Y-91210000D02*
X181085000Y-91605000D01*
X180835000Y-90855000D02*
X185145000Y-86545000D01*
X180604669Y-90855000D02*
X180835000Y-90855000D01*
X185145000Y-86545000D02*
X185145000Y-85981115D01*
X186500000Y-78040000D02*
X184510000Y-76050000D01*
X181085000Y-91605000D02*
X180604669Y-91605000D01*
X180385000Y-91385331D02*
X180385000Y-91074669D01*
X185581115Y-85545000D02*
X185825331Y-85545000D01*
X186500000Y-84870331D02*
X186500000Y-78040000D01*
X180385000Y-91074669D02*
X180604669Y-90855000D01*
X185145000Y-85981115D02*
X185581115Y-85545000D01*
%TO.N,SPI1_MOSI_SD*%
X186960000Y-78390000D02*
X186960000Y-85600000D01*
X189220000Y-75840000D02*
X189220000Y-76130000D01*
X186960000Y-85600000D02*
X182060000Y-90500000D01*
X189220000Y-76130000D02*
X186960000Y-78390000D01*
X182060000Y-90500000D02*
X182060000Y-91220000D01*
%TO.N,LPUART1_TX_RADIO*%
X187580000Y-90340000D02*
X187160000Y-90760000D01*
X188605000Y-83375331D02*
X187580000Y-84400331D01*
X187580000Y-84400331D02*
X187580000Y-90340000D01*
X187976943Y-78256943D02*
X188605000Y-78885000D01*
X188605000Y-78885000D02*
X188605000Y-83375331D01*
%TO.N,TIM3_CHI_PWM4*%
X191124669Y-87425000D02*
X192094669Y-88395000D01*
X194605000Y-88395000D02*
X195660000Y-87340000D01*
X188425000Y-87425000D02*
X191124669Y-87425000D01*
X188120000Y-87730000D02*
X188425000Y-87425000D01*
X192094669Y-88395000D02*
X194605000Y-88395000D01*
%TO.N,PWEN*%
X193835331Y-93395000D02*
X193184669Y-93395000D01*
X193184669Y-93395000D02*
X188180000Y-88390331D01*
X194690000Y-93860000D02*
X194230000Y-93400000D01*
X193840331Y-93400000D02*
X193835331Y-93395000D01*
X194230000Y-93400000D02*
X193840331Y-93400000D01*
X188180000Y-88390331D02*
X188180000Y-88240000D01*
%TD*%
%TA.AperFunction,Conductor*%
%TO.N,GND*%
G36*
X177899500Y-94219107D02*
G01*
X177899464Y-94238825D01*
X177899500Y-94238912D01*
X177899500Y-96575500D01*
X177879815Y-96642539D01*
X177827011Y-96688294D01*
X177775500Y-96699500D01*
X175624493Y-96699500D01*
X175557454Y-96679815D01*
X175511699Y-96627011D01*
X175500493Y-96575501D01*
X175500467Y-94215606D01*
X175500467Y-94215387D01*
X175500494Y-94200000D01*
X177899500Y-94200000D01*
X177899500Y-94219107D01*
G37*
%TD.AperFunction*%
%TA.AperFunction,Conductor*%
G36*
X190693856Y-94210500D02*
G01*
X190693858Y-94210500D01*
X190786142Y-94210500D01*
X190786144Y-94210500D01*
X190825331Y-94200000D01*
X191937349Y-94200000D01*
X192013856Y-94220500D01*
X192013858Y-94220500D01*
X192106142Y-94220500D01*
X192106144Y-94220500D01*
X192182651Y-94200000D01*
X192353340Y-94200000D01*
X192390616Y-94247397D01*
X192399500Y-94293486D01*
X192399500Y-96575500D01*
X192379815Y-96642539D01*
X192327011Y-96688294D01*
X192275500Y-96699500D01*
X190124494Y-96699500D01*
X190057455Y-96679815D01*
X190011700Y-96627011D01*
X190000494Y-96575504D01*
X190000426Y-94241145D01*
X190000426Y-94240911D01*
X190000463Y-94220965D01*
X190000426Y-94220875D01*
X190000426Y-94220778D01*
X189998193Y-94215387D01*
X189992855Y-94202500D01*
X189992767Y-94202288D01*
X189991824Y-94200000D01*
X190654669Y-94200000D01*
X190693856Y-94210500D01*
G37*
%TD.AperFunction*%
%TD*%
%TA.AperFunction,Conductor*%
%TO.N,GND*%
G36*
X177842539Y-70220185D02*
G01*
X177888294Y-70272989D01*
X177899500Y-70324500D01*
X177899500Y-72859992D01*
X177914799Y-72896928D01*
X177914800Y-72896929D01*
X177943071Y-72925200D01*
X177980009Y-72940500D01*
X177980011Y-72940500D01*
X189919989Y-72940500D01*
X189919991Y-72940500D01*
X189956929Y-72925200D01*
X189985200Y-72896929D01*
X190000500Y-72859991D01*
X190000500Y-70424500D01*
X190020185Y-70357461D01*
X190072989Y-70311706D01*
X190124500Y-70300500D01*
X192275500Y-70300500D01*
X192342539Y-70320185D01*
X192388294Y-70372989D01*
X192399500Y-70424500D01*
X192399500Y-72859992D01*
X192414799Y-72896928D01*
X192414800Y-72896929D01*
X192443071Y-72925200D01*
X192480009Y-72940500D01*
X192519991Y-72940500D01*
X193393822Y-72940500D01*
X193400000Y-73200000D01*
X174900000Y-73400000D01*
X174889060Y-72940500D01*
X175419989Y-72940500D01*
X175419991Y-72940500D01*
X175456929Y-72925200D01*
X175485200Y-72896929D01*
X175500500Y-72859991D01*
X175500500Y-70324500D01*
X175520185Y-70257461D01*
X175572989Y-70211706D01*
X175624500Y-70200500D01*
X177775500Y-70200500D01*
X177842539Y-70220185D01*
G37*
%TD.AperFunction*%
%TD*%
%TA.AperFunction,Conductor*%
%TO.N,GND*%
G36*
X174900000Y-73400000D02*
G01*
X193400000Y-73200000D01*
X193393821Y-72940500D01*
X194945500Y-72940500D01*
X195012539Y-72960185D01*
X195058294Y-73012989D01*
X195069500Y-73064500D01*
X195069500Y-78249992D01*
X195084799Y-78286928D01*
X195108511Y-78310640D01*
X195141996Y-78371963D01*
X195144830Y-78398437D01*
X195140814Y-82685616D01*
X195121067Y-82752637D01*
X195068220Y-82798343D01*
X195016814Y-82809500D01*
X193621008Y-82809500D01*
X193553969Y-82789815D01*
X193508214Y-82737011D01*
X193498270Y-82667853D01*
X193500191Y-82658484D01*
X193500500Y-82656142D01*
X193500500Y-82563858D01*
X193500500Y-82563856D01*
X193476614Y-82474712D01*
X193475849Y-82473387D01*
X193430473Y-82394794D01*
X193430470Y-82394791D01*
X193430469Y-82394788D01*
X193365212Y-82329531D01*
X193365209Y-82329529D01*
X193365205Y-82329526D01*
X193285293Y-82283388D01*
X193285290Y-82283387D01*
X193285289Y-82283386D01*
X193285288Y-82283386D01*
X193196144Y-82259500D01*
X193103856Y-82259500D01*
X193014712Y-82283386D01*
X193014711Y-82283386D01*
X193014709Y-82283387D01*
X193014706Y-82283388D01*
X192934794Y-82329526D01*
X192934785Y-82329533D01*
X192869533Y-82394785D01*
X192869526Y-82394794D01*
X192823388Y-82474706D01*
X192823387Y-82474709D01*
X192823386Y-82474711D01*
X192823386Y-82474712D01*
X192808459Y-82530420D01*
X192799500Y-82563856D01*
X192799500Y-82656142D01*
X192800561Y-82664200D01*
X192798503Y-82664470D01*
X192797104Y-82723257D01*
X192757941Y-82781119D01*
X192693713Y-82808623D01*
X192678992Y-82809500D01*
X190583966Y-82809500D01*
X190583958Y-82809499D01*
X190569524Y-82809499D01*
X190479814Y-82809499D01*
X190479813Y-82809499D01*
X190427934Y-82830989D01*
X190427933Y-82830988D01*
X190396934Y-82843829D01*
X190396931Y-82843831D01*
X190333500Y-82907262D01*
X190333499Y-82907264D01*
X190333498Y-82907265D01*
X190295824Y-82944939D01*
X190263307Y-82977456D01*
X190201983Y-83010940D01*
X190132292Y-83005955D01*
X190076358Y-82964084D01*
X190060685Y-82931817D01*
X190059722Y-82932216D01*
X190056613Y-82924710D01*
X190039555Y-82895166D01*
X190017935Y-82857720D01*
X190001462Y-82789822D01*
X190024313Y-82723795D01*
X190037640Y-82708040D01*
X190040469Y-82705212D01*
X190086614Y-82625288D01*
X190110500Y-82536144D01*
X190110500Y-82443856D01*
X190086614Y-82354712D01*
X190084554Y-82351144D01*
X190040473Y-82274794D01*
X190040470Y-82274791D01*
X190040469Y-82274788D01*
X189975212Y-82209531D01*
X189966497Y-82204499D01*
X189918282Y-82153933D01*
X189905059Y-82085326D01*
X189931027Y-82020461D01*
X189959229Y-81996025D01*
X189958763Y-81995417D01*
X189965204Y-81990473D01*
X189965212Y-81990469D01*
X190030469Y-81925212D01*
X190076614Y-81845288D01*
X190100500Y-81756144D01*
X190100500Y-81663856D01*
X190076614Y-81574712D01*
X190030469Y-81494788D01*
X189973287Y-81437606D01*
X193045750Y-81437606D01*
X193045750Y-81529894D01*
X193066391Y-81606929D01*
X193069637Y-81619040D01*
X193069638Y-81619043D01*
X193115776Y-81698955D01*
X193115779Y-81698959D01*
X193115781Y-81698962D01*
X193181038Y-81764219D01*
X193181041Y-81764220D01*
X193181044Y-81764223D01*
X193260956Y-81810361D01*
X193260957Y-81810361D01*
X193260962Y-81810364D01*
X193350106Y-81834250D01*
X193350108Y-81834250D01*
X193442392Y-81834250D01*
X193442394Y-81834250D01*
X193531538Y-81810364D01*
X193611462Y-81764219D01*
X193676719Y-81698962D01*
X193722864Y-81619038D01*
X193746750Y-81529894D01*
X193746750Y-81437606D01*
X193722864Y-81348462D01*
X193722861Y-81348456D01*
X193676723Y-81268544D01*
X193676720Y-81268541D01*
X193676719Y-81268538D01*
X193611462Y-81203281D01*
X193611459Y-81203279D01*
X193611455Y-81203276D01*
X193531543Y-81157138D01*
X193531540Y-81157137D01*
X193531539Y-81157136D01*
X193531538Y-81157136D01*
X193442394Y-81133250D01*
X193350106Y-81133250D01*
X193260962Y-81157136D01*
X193260961Y-81157136D01*
X193260959Y-81157137D01*
X193260956Y-81157138D01*
X193181044Y-81203276D01*
X193181035Y-81203283D01*
X193115783Y-81268535D01*
X193115776Y-81268544D01*
X193069638Y-81348456D01*
X193069637Y-81348459D01*
X193069636Y-81348461D01*
X193069636Y-81348462D01*
X193045750Y-81437606D01*
X189973287Y-81437606D01*
X189965212Y-81429531D01*
X189965209Y-81429529D01*
X189965205Y-81429526D01*
X189885293Y-81383388D01*
X189885290Y-81383387D01*
X189885289Y-81383386D01*
X189885288Y-81383386D01*
X189796144Y-81359500D01*
X189703856Y-81359500D01*
X189614712Y-81383386D01*
X189614711Y-81383386D01*
X189614709Y-81383387D01*
X189614706Y-81383388D01*
X189534794Y-81429526D01*
X189534785Y-81429533D01*
X189469533Y-81494785D01*
X189469526Y-81494794D01*
X189423388Y-81574706D01*
X189423387Y-81574709D01*
X189423386Y-81574711D01*
X189423386Y-81574712D01*
X189399500Y-81663856D01*
X189399500Y-81756144D01*
X189420428Y-81834250D01*
X189423387Y-81845290D01*
X189423388Y-81845293D01*
X189469526Y-81925205D01*
X189469529Y-81925209D01*
X189469531Y-81925212D01*
X189534788Y-81990469D01*
X189543499Y-81995498D01*
X189591715Y-82046064D01*
X189604940Y-82114670D01*
X189578973Y-82179536D01*
X189550771Y-82203976D01*
X189551237Y-82204583D01*
X189544785Y-82209533D01*
X189479533Y-82274785D01*
X189479526Y-82274794D01*
X189433388Y-82354706D01*
X189433387Y-82354709D01*
X189433386Y-82354711D01*
X189433386Y-82354712D01*
X189409500Y-82443856D01*
X189409500Y-82536144D01*
X189433019Y-82623920D01*
X189433387Y-82625290D01*
X189433388Y-82625293D01*
X189472063Y-82692278D01*
X189488537Y-82760177D01*
X189465685Y-82826205D01*
X189452363Y-82841955D01*
X189449536Y-82844782D01*
X189449526Y-82844794D01*
X189403388Y-82924706D01*
X189403387Y-82924709D01*
X189403387Y-82924710D01*
X189403386Y-82924712D01*
X189379500Y-83013856D01*
X189379500Y-83106144D01*
X189402368Y-83191489D01*
X189403387Y-83195290D01*
X189403388Y-83195293D01*
X189449526Y-83275205D01*
X189449529Y-83275209D01*
X189449531Y-83275212D01*
X189514788Y-83340469D01*
X189514789Y-83340470D01*
X189514791Y-83340471D01*
X189520616Y-83343834D01*
X189568831Y-83394402D01*
X189582052Y-83463010D01*
X189566001Y-83513220D01*
X189533387Y-83569708D01*
X189533387Y-83569709D01*
X189533386Y-83569711D01*
X189533386Y-83569712D01*
X189509500Y-83658856D01*
X189509500Y-83751144D01*
X189532225Y-83835956D01*
X189533387Y-83840290D01*
X189533388Y-83840293D01*
X189579526Y-83920205D01*
X189579529Y-83920209D01*
X189579531Y-83920212D01*
X189644788Y-83985469D01*
X189644791Y-83985470D01*
X189644794Y-83985473D01*
X189731751Y-84035679D01*
X189730079Y-84038574D01*
X189772379Y-84072595D01*
X189794507Y-84138868D01*
X189777292Y-84206584D01*
X189740220Y-84243257D01*
X189741237Y-84244583D01*
X189734785Y-84249533D01*
X189669533Y-84314785D01*
X189669526Y-84314794D01*
X189623388Y-84394706D01*
X189623387Y-84394709D01*
X189623386Y-84394711D01*
X189623386Y-84394712D01*
X189599500Y-84483856D01*
X189599500Y-84576144D01*
X189619328Y-84650145D01*
X189623387Y-84665290D01*
X189623388Y-84665293D01*
X189669526Y-84745205D01*
X189669533Y-84745214D01*
X189718670Y-84794351D01*
X189752155Y-84855674D01*
X189747171Y-84925366D01*
X189745555Y-84929474D01*
X189743387Y-84934709D01*
X189743386Y-84934711D01*
X189743386Y-84934712D01*
X189719500Y-85023856D01*
X189719500Y-85116144D01*
X189741146Y-85196929D01*
X189743387Y-85205290D01*
X189743388Y-85205293D01*
X189789526Y-85285205D01*
X189789529Y-85285209D01*
X189789531Y-85285212D01*
X189854788Y-85350469D01*
X189854791Y-85350470D01*
X189854794Y-85350473D01*
X189934706Y-85396611D01*
X189934707Y-85396612D01*
X189934709Y-85396612D01*
X189934712Y-85396614D01*
X189979712Y-85408671D01*
X190039371Y-85445036D01*
X190069900Y-85507883D01*
X190061605Y-85577259D01*
X190035298Y-85616127D01*
X188763245Y-86888181D01*
X188701922Y-86921666D01*
X188675564Y-86924500D01*
X188411543Y-86924500D01*
X188344504Y-86904815D01*
X188323862Y-86888181D01*
X188305214Y-86869533D01*
X188305212Y-86869531D01*
X188305209Y-86869529D01*
X188305205Y-86869526D01*
X188225293Y-86823388D01*
X188225290Y-86823387D01*
X188225289Y-86823386D01*
X188225288Y-86823386D01*
X188136144Y-86799500D01*
X188043856Y-86799500D01*
X187961593Y-86821542D01*
X187936598Y-86820946D01*
X187911853Y-86824505D01*
X187902272Y-86820129D01*
X187891743Y-86819879D01*
X187871039Y-86805866D01*
X187848297Y-86795480D01*
X187842602Y-86786618D01*
X187833881Y-86780716D01*
X187824040Y-86757735D01*
X187810523Y-86736702D01*
X187808243Y-86720844D01*
X187806377Y-86716487D01*
X187805500Y-86701767D01*
X187805500Y-86530599D01*
X187825185Y-86463560D01*
X187877989Y-86417805D01*
X187947147Y-86407861D01*
X187991503Y-86423214D01*
X188014708Y-86436612D01*
X188014709Y-86436612D01*
X188014712Y-86436614D01*
X188103856Y-86460500D01*
X188103858Y-86460500D01*
X188196142Y-86460500D01*
X188196144Y-86460500D01*
X188285288Y-86436614D01*
X188365212Y-86390469D01*
X188430469Y-86325212D01*
X188476614Y-86245288D01*
X188500500Y-86156144D01*
X188500500Y-86063856D01*
X188476614Y-85974712D01*
X188469893Y-85963071D01*
X188430473Y-85894794D01*
X188430470Y-85894791D01*
X188430469Y-85894788D01*
X188408079Y-85872398D01*
X188374594Y-85811075D01*
X188379578Y-85741383D01*
X188397389Y-85709224D01*
X188400460Y-85705220D01*
X188400469Y-85705212D01*
X188446614Y-85625288D01*
X188470500Y-85536144D01*
X188470500Y-85443856D01*
X188446614Y-85354712D01*
X188444167Y-85350473D01*
X188400473Y-85274794D01*
X188400470Y-85274791D01*
X188400469Y-85274788D01*
X188335212Y-85209531D01*
X188335209Y-85209529D01*
X188335205Y-85209526D01*
X188255293Y-85163388D01*
X188255290Y-85163387D01*
X188255289Y-85163386D01*
X188255288Y-85163386D01*
X188166144Y-85139500D01*
X188073856Y-85139500D01*
X187984712Y-85163386D01*
X187984711Y-85163386D01*
X187984709Y-85163387D01*
X187977198Y-85166498D01*
X187975864Y-85163279D01*
X187923474Y-85175933D01*
X187857471Y-85153013D01*
X187814336Y-85098048D01*
X187805500Y-85052079D01*
X187805500Y-84545097D01*
X187825185Y-84478058D01*
X187841815Y-84457420D01*
X188732734Y-83566501D01*
X188732736Y-83566501D01*
X188796170Y-83503067D01*
X188816140Y-83454855D01*
X188830501Y-83420186D01*
X188830501Y-83330476D01*
X188830501Y-83320487D01*
X188830500Y-83320473D01*
X188830500Y-78955772D01*
X188830500Y-78929857D01*
X188830501Y-78929855D01*
X188830501Y-78840146D01*
X188796170Y-78757265D01*
X188796170Y-78757264D01*
X188732736Y-78693830D01*
X188725671Y-78686765D01*
X188725664Y-78686759D01*
X188363762Y-78324857D01*
X188330277Y-78263534D01*
X188327443Y-78237176D01*
X188327443Y-78210801D01*
X188327443Y-78210799D01*
X188303557Y-78121655D01*
X188288052Y-78094800D01*
X188257416Y-78041737D01*
X188257413Y-78041734D01*
X188257412Y-78041731D01*
X188206750Y-77991069D01*
X188202411Y-77983123D01*
X188195164Y-77977698D01*
X188185929Y-77952938D01*
X188173265Y-77929746D01*
X188173910Y-77920716D01*
X188170747Y-77912234D01*
X188176363Y-77886413D01*
X188177261Y-77873856D01*
X189389500Y-77873856D01*
X189389500Y-77966144D01*
X189409753Y-78041731D01*
X189413387Y-78055290D01*
X189413388Y-78055293D01*
X189459526Y-78135205D01*
X189459529Y-78135209D01*
X189459531Y-78135212D01*
X189524788Y-78200469D01*
X189524791Y-78200470D01*
X189524794Y-78200473D01*
X189604706Y-78246611D01*
X189604707Y-78246611D01*
X189604712Y-78246614D01*
X189693856Y-78270500D01*
X189693858Y-78270500D01*
X189786142Y-78270500D01*
X189786144Y-78270500D01*
X189875288Y-78246614D01*
X189955212Y-78200469D01*
X190020469Y-78135212D01*
X190066614Y-78055288D01*
X190090500Y-77966144D01*
X190090500Y-77873856D01*
X190066614Y-77784712D01*
X190066611Y-77784706D01*
X190020473Y-77704794D01*
X190020470Y-77704791D01*
X190020469Y-77704788D01*
X189955212Y-77639531D01*
X189955209Y-77639529D01*
X189955205Y-77639526D01*
X189875293Y-77593388D01*
X189875290Y-77593387D01*
X189875289Y-77593386D01*
X189875288Y-77593386D01*
X189786144Y-77569500D01*
X189693856Y-77569500D01*
X189604712Y-77593386D01*
X189604711Y-77593386D01*
X189604709Y-77593387D01*
X189604706Y-77593388D01*
X189524794Y-77639526D01*
X189524785Y-77639533D01*
X189459533Y-77704785D01*
X189459526Y-77704794D01*
X189413388Y-77784706D01*
X189413387Y-77784709D01*
X189413386Y-77784711D01*
X189413386Y-77784712D01*
X189389500Y-77873856D01*
X188177261Y-77873856D01*
X188178249Y-77860054D01*
X188184067Y-77851000D01*
X188185599Y-77843961D01*
X188206746Y-77815711D01*
X189238602Y-76783856D01*
X192219500Y-76783856D01*
X192219500Y-76876143D01*
X192243387Y-76965290D01*
X192243388Y-76965293D01*
X192289526Y-77045205D01*
X192289529Y-77045209D01*
X192289531Y-77045212D01*
X192354788Y-77110469D01*
X192354791Y-77110470D01*
X192354794Y-77110473D01*
X192434706Y-77156611D01*
X192434707Y-77156611D01*
X192434712Y-77156614D01*
X192523856Y-77180500D01*
X192523858Y-77180500D01*
X192616142Y-77180500D01*
X192616144Y-77180500D01*
X192705288Y-77156614D01*
X192785212Y-77110469D01*
X192850469Y-77045212D01*
X192896614Y-76965288D01*
X192920500Y-76876144D01*
X192920500Y-76783856D01*
X192896614Y-76694712D01*
X192896611Y-76694706D01*
X192850473Y-76614794D01*
X192850470Y-76614791D01*
X192850469Y-76614788D01*
X192785212Y-76549531D01*
X192785209Y-76549529D01*
X192785205Y-76549526D01*
X192705293Y-76503388D01*
X192705290Y-76503387D01*
X192705289Y-76503386D01*
X192705288Y-76503386D01*
X192616144Y-76479500D01*
X192523856Y-76479500D01*
X192434712Y-76503386D01*
X192434711Y-76503386D01*
X192434709Y-76503387D01*
X192434706Y-76503388D01*
X192354794Y-76549526D01*
X192354785Y-76549533D01*
X192289533Y-76614785D01*
X192289526Y-76614794D01*
X192243388Y-76694706D01*
X192243387Y-76694709D01*
X192219500Y-76783856D01*
X189238602Y-76783856D01*
X189750640Y-76271819D01*
X189777567Y-76257115D01*
X189803386Y-76240523D01*
X189809586Y-76239631D01*
X189811963Y-76238334D01*
X189838321Y-76235500D01*
X190008457Y-76235500D01*
X190075496Y-76255185D01*
X190096138Y-76271819D01*
X190114788Y-76290469D01*
X190114791Y-76290470D01*
X190114794Y-76290473D01*
X190194706Y-76336611D01*
X190194707Y-76336611D01*
X190194712Y-76336614D01*
X190283856Y-76360500D01*
X190283858Y-76360500D01*
X190376142Y-76360500D01*
X190376144Y-76360500D01*
X190465288Y-76336614D01*
X190545212Y-76290469D01*
X190610469Y-76225212D01*
X190656614Y-76145288D01*
X190680500Y-76056144D01*
X190680500Y-75963856D01*
X190656614Y-75874712D01*
X190656611Y-75874706D01*
X190610473Y-75794794D01*
X190610470Y-75794791D01*
X190610469Y-75794788D01*
X190545212Y-75729531D01*
X190545209Y-75729529D01*
X190545205Y-75729526D01*
X190465293Y-75683388D01*
X190465290Y-75683387D01*
X190465289Y-75683386D01*
X190465288Y-75683386D01*
X190376144Y-75659500D01*
X190283856Y-75659500D01*
X190194712Y-75683386D01*
X190194711Y-75683386D01*
X190194709Y-75683387D01*
X190194706Y-75683388D01*
X190114794Y-75729526D01*
X190114785Y-75729533D01*
X190096138Y-75748181D01*
X190034815Y-75781666D01*
X190008457Y-75784500D01*
X189752850Y-75784500D01*
X189738410Y-75784499D01*
X189738409Y-75784499D01*
X189662516Y-75784499D01*
X189595476Y-75764814D01*
X189549722Y-75712009D01*
X189549721Y-75712007D01*
X189547955Y-75707948D01*
X189546614Y-75704710D01*
X189500473Y-75624794D01*
X189500470Y-75624791D01*
X189500469Y-75624788D01*
X189435212Y-75559531D01*
X189435209Y-75559529D01*
X189435205Y-75559526D01*
X189355293Y-75513388D01*
X189355290Y-75513387D01*
X189355289Y-75513386D01*
X189355288Y-75513386D01*
X189266144Y-75489500D01*
X189173856Y-75489500D01*
X189084712Y-75513386D01*
X189084711Y-75513386D01*
X189084709Y-75513387D01*
X189084706Y-75513388D01*
X189004794Y-75559526D01*
X189004785Y-75559533D01*
X188939533Y-75624785D01*
X188939526Y-75624794D01*
X188893388Y-75704706D01*
X188893387Y-75704709D01*
X188869500Y-75793856D01*
X188869500Y-75886143D01*
X188893386Y-75975290D01*
X188905262Y-75995859D01*
X188921733Y-76063760D01*
X188898880Y-76129786D01*
X188885555Y-76145539D01*
X186937182Y-78093912D01*
X186875859Y-78127397D01*
X186806167Y-78122413D01*
X186750234Y-78080541D01*
X186725817Y-78015077D01*
X186725501Y-78006231D01*
X186725501Y-77995146D01*
X186725501Y-77995145D01*
X186701225Y-77936539D01*
X186691170Y-77912264D01*
X186627736Y-77848830D01*
X186620671Y-77841765D01*
X186620664Y-77841759D01*
X184896819Y-76117914D01*
X184882115Y-76090986D01*
X184865523Y-76065168D01*
X184864631Y-76058967D01*
X184863334Y-76056591D01*
X184860500Y-76030233D01*
X184860500Y-76024500D01*
X184880185Y-75957461D01*
X184932989Y-75911706D01*
X184984500Y-75900500D01*
X186567480Y-75900500D01*
X186634519Y-75920185D01*
X186680274Y-75972989D01*
X186687254Y-75992405D01*
X186693385Y-76015286D01*
X186693388Y-76015293D01*
X186739526Y-76095205D01*
X186739529Y-76095209D01*
X186739531Y-76095212D01*
X186804788Y-76160469D01*
X186804791Y-76160470D01*
X186804794Y-76160473D01*
X186884706Y-76206611D01*
X186884707Y-76206611D01*
X186884712Y-76206614D01*
X186973856Y-76230500D01*
X186973858Y-76230500D01*
X187066142Y-76230500D01*
X187066144Y-76230500D01*
X187155288Y-76206614D01*
X187235212Y-76160469D01*
X187300469Y-76095212D01*
X187346614Y-76015288D01*
X187370500Y-75926144D01*
X187370500Y-75833856D01*
X187346614Y-75744712D01*
X187346611Y-75744706D01*
X187300473Y-75664794D01*
X187300470Y-75664791D01*
X187300469Y-75664788D01*
X187235212Y-75599531D01*
X187235209Y-75599529D01*
X187235205Y-75599526D01*
X187155293Y-75553388D01*
X187155290Y-75553387D01*
X187155289Y-75553386D01*
X187155288Y-75553386D01*
X187066144Y-75529500D01*
X187066143Y-75529500D01*
X187039769Y-75529500D01*
X186972730Y-75509815D01*
X186952088Y-75493181D01*
X186942737Y-75483830D01*
X186918457Y-75473772D01*
X186918457Y-75473771D01*
X186859858Y-75449500D01*
X186859856Y-75449499D01*
X186859855Y-75449499D01*
X186770145Y-75449499D01*
X186755711Y-75449499D01*
X186755703Y-75449500D01*
X184413966Y-75449500D01*
X184413958Y-75449499D01*
X184399524Y-75449499D01*
X184309814Y-75449499D01*
X184309812Y-75449499D01*
X184275482Y-75463719D01*
X184251208Y-75473774D01*
X184251206Y-75473774D01*
X184226933Y-75483829D01*
X184011545Y-75699217D01*
X184011540Y-75699222D01*
X184007265Y-75703498D01*
X184007264Y-75703499D01*
X183943830Y-75766933D01*
X183938625Y-75779500D01*
X183931570Y-75796531D01*
X183931568Y-75796534D01*
X183909499Y-75849811D01*
X183909499Y-75953957D01*
X183909500Y-75953966D01*
X183909500Y-76150473D01*
X183909499Y-76150487D01*
X183909499Y-76250184D01*
X183909500Y-76250189D01*
X183933772Y-76308788D01*
X183943829Y-76333066D01*
X183943830Y-76333067D01*
X184007264Y-76396501D01*
X184007265Y-76396501D01*
X184024705Y-76413941D01*
X184092850Y-76482086D01*
X184126335Y-76543409D01*
X184129169Y-76569767D01*
X184129169Y-85400564D01*
X184109484Y-85467603D01*
X184092850Y-85488245D01*
X180552914Y-89028181D01*
X180491591Y-89061666D01*
X180465233Y-89064500D01*
X180014526Y-89064500D01*
X180014524Y-89064499D01*
X179924815Y-89064499D01*
X179886186Y-89080500D01*
X179871224Y-89086697D01*
X179871219Y-89086698D01*
X179841935Y-89098827D01*
X179841933Y-89098829D01*
X179505317Y-89435446D01*
X179187265Y-89753498D01*
X179187264Y-89753499D01*
X179170297Y-89770466D01*
X179123829Y-89816933D01*
X179121156Y-89823388D01*
X179089499Y-89899811D01*
X179089499Y-90003957D01*
X179089500Y-90003966D01*
X179089500Y-90200473D01*
X179089499Y-90200487D01*
X179089499Y-90300186D01*
X179099692Y-90324794D01*
X179106182Y-90340460D01*
X179123830Y-90383067D01*
X179159411Y-90418648D01*
X179166514Y-90429589D01*
X179172929Y-90451071D01*
X179183675Y-90470750D01*
X179182734Y-90483901D01*
X179186508Y-90496537D01*
X179180290Y-90518078D01*
X179178691Y-90540442D01*
X179169876Y-90554156D01*
X179167132Y-90563666D01*
X179159443Y-90570390D01*
X179150190Y-90584789D01*
X179099533Y-90635445D01*
X179099526Y-90635454D01*
X179053388Y-90715366D01*
X179053387Y-90715369D01*
X179053386Y-90715371D01*
X179053386Y-90715372D01*
X179029500Y-90804516D01*
X179029500Y-90896804D01*
X179052525Y-90982736D01*
X179053387Y-90985950D01*
X179053388Y-90985953D01*
X179099526Y-91065865D01*
X179099529Y-91065869D01*
X179099531Y-91065872D01*
X179164788Y-91131129D01*
X179164791Y-91131130D01*
X179164794Y-91131133D01*
X179244706Y-91177271D01*
X179244707Y-91177271D01*
X179244712Y-91177274D01*
X179333856Y-91201160D01*
X179333858Y-91201160D01*
X179426142Y-91201160D01*
X179426144Y-91201160D01*
X179515288Y-91177274D01*
X179595212Y-91131129D01*
X179660469Y-91065872D01*
X179669959Y-91049435D01*
X179703313Y-90991667D01*
X179711999Y-90983384D01*
X179716986Y-90972465D01*
X179736819Y-90959718D01*
X179753880Y-90943452D01*
X179767135Y-90940236D01*
X179775764Y-90934691D01*
X179810699Y-90929668D01*
X179903627Y-90929668D01*
X179970666Y-90949353D01*
X179991308Y-90965987D01*
X180009958Y-90984637D01*
X180009961Y-90984638D01*
X180009964Y-90984641D01*
X180096921Y-91034847D01*
X180095214Y-91037801D01*
X180137331Y-91071716D01*
X180159419Y-91138003D01*
X180159500Y-91142473D01*
X180159500Y-91330473D01*
X180159499Y-91330487D01*
X180159499Y-91340476D01*
X180159499Y-91430186D01*
X180180324Y-91480460D01*
X180189681Y-91503050D01*
X180196470Y-91566216D01*
X180197147Y-91572521D01*
X180180771Y-91605232D01*
X180167069Y-91632603D01*
X180165869Y-91634999D01*
X180105778Y-91670649D01*
X180105773Y-91670648D01*
X180075118Y-91674499D01*
X179975144Y-91674499D01*
X179892265Y-91708830D01*
X179892262Y-91708831D01*
X179856023Y-91745070D01*
X179830351Y-91764770D01*
X179804788Y-91779530D01*
X179739530Y-91844789D01*
X179739526Y-91844794D01*
X179693388Y-91924706D01*
X179693387Y-91924709D01*
X179693386Y-91924711D01*
X179693386Y-91924712D01*
X179669500Y-92013856D01*
X179669500Y-92106144D01*
X179691362Y-92187736D01*
X179693387Y-92195290D01*
X179693388Y-92195293D01*
X179739526Y-92275205D01*
X179739529Y-92275209D01*
X179739531Y-92275212D01*
X179804788Y-92340469D01*
X179804791Y-92340470D01*
X179804794Y-92340473D01*
X179884706Y-92386611D01*
X179884707Y-92386611D01*
X179884712Y-92386614D01*
X179973856Y-92410500D01*
X179973858Y-92410500D01*
X180066142Y-92410500D01*
X180066144Y-92410500D01*
X180155288Y-92386614D01*
X180235212Y-92340469D01*
X180253862Y-92321819D01*
X180315185Y-92288334D01*
X180341543Y-92285500D01*
X180938697Y-92285500D01*
X180938699Y-92285501D01*
X181028409Y-92285501D01*
X181104805Y-92253856D01*
X181111290Y-92251170D01*
X181174724Y-92187736D01*
X181174724Y-92187734D01*
X181465641Y-91896816D01*
X181526963Y-91863334D01*
X181553321Y-91860500D01*
X184286034Y-91860500D01*
X184286042Y-91860501D01*
X184300476Y-91860501D01*
X184390183Y-91860501D01*
X184390186Y-91860501D01*
X184428117Y-91844789D01*
X184452955Y-91834501D01*
X184460064Y-91831555D01*
X184473067Y-91826170D01*
X184536501Y-91762736D01*
X184536501Y-91762735D01*
X184553934Y-91745302D01*
X184553938Y-91745296D01*
X184557674Y-91741560D01*
X184618995Y-91708077D01*
X184688687Y-91713061D01*
X184744620Y-91754933D01*
X184765127Y-91797148D01*
X184783385Y-91865287D01*
X184783388Y-91865293D01*
X184829526Y-91945205D01*
X184829533Y-91945214D01*
X184830984Y-91946665D01*
X184831816Y-91948189D01*
X184834478Y-91951658D01*
X184833937Y-91952073D01*
X184864469Y-92007988D01*
X184859485Y-92077680D01*
X184817613Y-92133613D01*
X184805310Y-92141729D01*
X184804794Y-92142026D01*
X184804785Y-92142033D01*
X184739533Y-92207285D01*
X184739526Y-92207294D01*
X184693388Y-92287206D01*
X184693387Y-92287209D01*
X184693386Y-92287211D01*
X184693386Y-92287212D01*
X184669500Y-92376356D01*
X184669500Y-92468644D01*
X184681978Y-92515214D01*
X184693387Y-92557790D01*
X184693388Y-92557793D01*
X184739526Y-92637705D01*
X184739529Y-92637709D01*
X184739531Y-92637712D01*
X184804788Y-92702969D01*
X184804791Y-92702970D01*
X184804794Y-92702973D01*
X184884706Y-92749111D01*
X184884707Y-92749111D01*
X184884712Y-92749114D01*
X184973856Y-92773000D01*
X184973858Y-92773000D01*
X185066142Y-92773000D01*
X185066144Y-92773000D01*
X185155288Y-92749114D01*
X185235212Y-92702969D01*
X185300469Y-92637712D01*
X185346614Y-92557788D01*
X185370500Y-92468644D01*
X185370500Y-92376356D01*
X185346614Y-92287212D01*
X185346611Y-92287206D01*
X185300473Y-92207294D01*
X185300470Y-92207291D01*
X185300469Y-92207288D01*
X185299015Y-92205834D01*
X185298181Y-92204308D01*
X185295522Y-92200842D01*
X185296062Y-92200427D01*
X185265530Y-92144511D01*
X185270514Y-92074819D01*
X185312386Y-92018886D01*
X185324684Y-92010773D01*
X185325212Y-92010469D01*
X185390469Y-91945212D01*
X185436614Y-91865288D01*
X185460500Y-91776144D01*
X185460500Y-91776142D01*
X185461501Y-91772407D01*
X185473551Y-91752636D01*
X185481489Y-91730890D01*
X185491392Y-91723367D01*
X185497866Y-91712746D01*
X185518691Y-91702629D01*
X185537126Y-91688626D01*
X185553859Y-91685546D01*
X185560713Y-91682217D01*
X185571560Y-91680881D01*
X185576408Y-91680500D01*
X185666144Y-91680500D01*
X185703391Y-91670519D01*
X185714749Y-91669627D01*
X185738232Y-91674562D01*
X185762219Y-91675133D01*
X185771800Y-91681617D01*
X185783125Y-91683998D01*
X185800210Y-91700845D01*
X185820082Y-91714294D01*
X185826526Y-91726793D01*
X185832876Y-91733055D01*
X185835291Y-91743796D01*
X185844239Y-91761151D01*
X185849423Y-91780499D01*
X185853387Y-91795290D01*
X185853388Y-91795293D01*
X185899526Y-91875205D01*
X185899529Y-91875209D01*
X185899531Y-91875212D01*
X185964788Y-91940469D01*
X185964791Y-91940470D01*
X185964794Y-91940473D01*
X186044706Y-91986611D01*
X186044707Y-91986611D01*
X186044712Y-91986614D01*
X186133856Y-92010500D01*
X186133858Y-92010500D01*
X186226142Y-92010500D01*
X186226144Y-92010500D01*
X186315288Y-91986614D01*
X186395212Y-91940469D01*
X186460469Y-91875212D01*
X186506614Y-91795288D01*
X186527736Y-91716457D01*
X186564100Y-91656800D01*
X186626946Y-91626270D01*
X186696322Y-91634564D01*
X186735191Y-91660872D01*
X186784788Y-91710469D01*
X186784791Y-91710470D01*
X186784794Y-91710473D01*
X186864706Y-91756611D01*
X186864707Y-91756611D01*
X186864712Y-91756614D01*
X186953856Y-91780500D01*
X186953858Y-91780500D01*
X187046142Y-91780500D01*
X187046144Y-91780500D01*
X187135288Y-91756614D01*
X187215212Y-91710469D01*
X187280469Y-91645212D01*
X187326614Y-91565288D01*
X187350500Y-91476144D01*
X187350500Y-91383856D01*
X187326614Y-91294712D01*
X187326310Y-91294185D01*
X187322583Y-91287729D01*
X187322583Y-91287728D01*
X187291478Y-91233856D01*
X188797000Y-91233856D01*
X188797000Y-91326144D01*
X188819335Y-91409500D01*
X188820887Y-91415290D01*
X188820888Y-91415293D01*
X188867026Y-91495205D01*
X188867029Y-91495209D01*
X188867031Y-91495212D01*
X188932288Y-91560469D01*
X188932291Y-91560470D01*
X188932294Y-91560473D01*
X189012206Y-91606611D01*
X189012207Y-91606611D01*
X189012212Y-91606614D01*
X189101356Y-91630500D01*
X189101358Y-91630500D01*
X189193642Y-91630500D01*
X189193644Y-91630500D01*
X189282788Y-91606614D01*
X189362712Y-91560469D01*
X189427969Y-91495212D01*
X189474114Y-91415288D01*
X189498000Y-91326144D01*
X189498000Y-91233856D01*
X189474114Y-91144712D01*
X189474111Y-91144706D01*
X189427973Y-91064794D01*
X189427970Y-91064791D01*
X189427969Y-91064788D01*
X189362712Y-90999531D01*
X189362709Y-90999529D01*
X189362705Y-90999526D01*
X189282793Y-90953388D01*
X189282790Y-90953387D01*
X189282789Y-90953386D01*
X189282788Y-90953386D01*
X189193644Y-90929500D01*
X189101356Y-90929500D01*
X189012212Y-90953386D01*
X189012211Y-90953386D01*
X189012209Y-90953387D01*
X189012206Y-90953388D01*
X188932294Y-90999526D01*
X188932285Y-90999533D01*
X188867033Y-91064785D01*
X188867026Y-91064794D01*
X188820888Y-91144706D01*
X188820887Y-91144709D01*
X188820886Y-91144711D01*
X188820886Y-91144712D01*
X188797000Y-91233856D01*
X187291478Y-91233856D01*
X187290674Y-91232464D01*
X187274199Y-91164564D01*
X187297050Y-91098537D01*
X187336057Y-91063075D01*
X187375212Y-91040469D01*
X187440469Y-90975212D01*
X187451821Y-90955549D01*
X187460847Y-90942043D01*
X187471617Y-90928013D01*
X187619089Y-90629108D01*
X187621065Y-90626351D01*
X187621458Y-90624548D01*
X187642606Y-90596297D01*
X187690294Y-90548610D01*
X187690297Y-90548608D01*
X187707735Y-90531170D01*
X187707736Y-90531170D01*
X187771170Y-90467736D01*
X187789281Y-90424011D01*
X187805501Y-90384854D01*
X187805501Y-90295145D01*
X187805500Y-90295142D01*
X187805500Y-88643278D01*
X187825185Y-88576239D01*
X187877989Y-88530484D01*
X187947147Y-88520540D01*
X187991498Y-88535890D01*
X188013219Y-88548431D01*
X188038899Y-88568136D01*
X188069700Y-88598937D01*
X188069706Y-88598942D01*
X192993498Y-93522734D01*
X192993499Y-93522736D01*
X193056933Y-93586170D01*
X193090555Y-93600096D01*
X193104724Y-93611693D01*
X193114518Y-93626031D01*
X193128040Y-93636927D01*
X193133817Y-93654282D01*
X193144135Y-93669387D01*
X193144622Y-93686744D01*
X193150107Y-93703220D01*
X193146082Y-93738672D01*
X193146098Y-93739229D01*
X193146000Y-93739389D01*
X193145961Y-93739742D01*
X193139500Y-93763854D01*
X193139500Y-93763856D01*
X193139500Y-93856144D01*
X193143339Y-93870470D01*
X193163386Y-93945289D01*
X193171536Y-93959404D01*
X193188010Y-94027304D01*
X193165159Y-94093331D01*
X193110239Y-94136523D01*
X193063908Y-94145406D01*
X192532125Y-94144368D01*
X192532014Y-94144367D01*
X192520054Y-94144332D01*
X192519991Y-94144307D01*
X192510962Y-94144307D01*
X192510611Y-94144306D01*
X192477303Y-94134423D01*
X192443925Y-94124622D01*
X192443805Y-94124483D01*
X192443628Y-94124431D01*
X192420795Y-94097928D01*
X192398170Y-94071818D01*
X192398144Y-94071637D01*
X192398023Y-94071497D01*
X192393155Y-94036937D01*
X192388226Y-94002660D01*
X192388285Y-94002370D01*
X192388277Y-94002310D01*
X192388314Y-94002228D01*
X192391189Y-93988214D01*
X192396241Y-93969358D01*
X192410500Y-93916144D01*
X192410500Y-93823856D01*
X192386614Y-93734712D01*
X192386611Y-93734706D01*
X192340473Y-93654794D01*
X192340470Y-93654791D01*
X192340469Y-93654788D01*
X192275212Y-93589531D01*
X192275209Y-93589529D01*
X192275205Y-93589526D01*
X192195293Y-93543388D01*
X192195290Y-93543387D01*
X192195289Y-93543386D01*
X192195288Y-93543386D01*
X192106144Y-93519500D01*
X192013856Y-93519500D01*
X191924712Y-93543386D01*
X191924711Y-93543386D01*
X191924709Y-93543387D01*
X191924706Y-93543388D01*
X191844794Y-93589526D01*
X191844785Y-93589533D01*
X191779533Y-93654785D01*
X191779526Y-93654794D01*
X191733388Y-93734706D01*
X191733387Y-93734709D01*
X191733386Y-93734711D01*
X191733386Y-93734712D01*
X191709500Y-93823856D01*
X191709500Y-93916144D01*
X191733357Y-94005180D01*
X191733387Y-94005290D01*
X191733388Y-94005293D01*
X191779526Y-94085205D01*
X191779529Y-94085209D01*
X191779531Y-94085212D01*
X191844788Y-94150469D01*
X191844791Y-94150470D01*
X191844794Y-94150473D01*
X191924706Y-94196611D01*
X191924707Y-94196611D01*
X191924712Y-94196614D01*
X191937349Y-94200000D01*
X190825331Y-94200000D01*
X190875288Y-94186614D01*
X190955212Y-94140469D01*
X191020469Y-94075212D01*
X191066614Y-93995288D01*
X191090500Y-93906144D01*
X191090500Y-93813856D01*
X191066614Y-93724712D01*
X191066611Y-93724706D01*
X191020473Y-93644794D01*
X191020470Y-93644791D01*
X191020469Y-93644788D01*
X190955212Y-93579531D01*
X190955209Y-93579529D01*
X190955205Y-93579526D01*
X190875293Y-93533388D01*
X190875290Y-93533387D01*
X190875289Y-93533386D01*
X190875288Y-93533386D01*
X190786144Y-93509500D01*
X190693856Y-93509500D01*
X190604712Y-93533386D01*
X190604711Y-93533386D01*
X190604709Y-93533387D01*
X190604706Y-93533388D01*
X190524794Y-93579526D01*
X190524785Y-93579533D01*
X190459533Y-93644785D01*
X190459526Y-93644794D01*
X190413388Y-93724706D01*
X190413387Y-93724709D01*
X190413386Y-93724711D01*
X190413386Y-93724712D01*
X190389500Y-93813856D01*
X190389500Y-93906144D01*
X190408853Y-93978372D01*
X190413387Y-93995290D01*
X190413388Y-93995293D01*
X190459526Y-94075205D01*
X190459529Y-94075209D01*
X190459531Y-94075212D01*
X190524788Y-94140469D01*
X190524791Y-94140470D01*
X190524794Y-94140473D01*
X190604706Y-94186611D01*
X190604707Y-94186611D01*
X190604712Y-94186614D01*
X190654669Y-94200000D01*
X189991824Y-94200000D01*
X189985231Y-94183999D01*
X189985161Y-94183929D01*
X189985125Y-94183841D01*
X189971121Y-94169837D01*
X189957012Y-94155676D01*
X189957010Y-94155675D01*
X189957006Y-94155671D01*
X189947213Y-94149128D01*
X189946714Y-94148795D01*
X189946812Y-94148648D01*
X189942262Y-94143204D01*
X189903997Y-94112366D01*
X189881935Y-94046071D01*
X189899217Y-93978372D01*
X189918173Y-93953971D01*
X189935718Y-93936427D01*
X189981863Y-93856503D01*
X190005749Y-93767359D01*
X190005749Y-93675071D01*
X189981863Y-93585927D01*
X189981860Y-93585921D01*
X189935722Y-93506009D01*
X189935719Y-93506006D01*
X189935718Y-93506003D01*
X189935715Y-93506000D01*
X189930771Y-93499557D01*
X189933492Y-93497468D01*
X189907595Y-93450042D01*
X189912579Y-93380350D01*
X189921375Y-93361682D01*
X189936613Y-93335289D01*
X189936614Y-93335288D01*
X189960500Y-93246144D01*
X189960500Y-93153856D01*
X189936614Y-93064712D01*
X189930888Y-93054794D01*
X189890473Y-92984794D01*
X189890470Y-92984791D01*
X189890469Y-92984788D01*
X189825212Y-92919531D01*
X189825209Y-92919529D01*
X189825205Y-92919526D01*
X189745293Y-92873388D01*
X189745290Y-92873387D01*
X189745289Y-92873386D01*
X189745288Y-92873386D01*
X189656144Y-92849500D01*
X189563856Y-92849500D01*
X189474712Y-92873386D01*
X189474711Y-92873386D01*
X189474709Y-92873387D01*
X189474706Y-92873388D01*
X189394794Y-92919526D01*
X189394785Y-92919533D01*
X189329533Y-92984785D01*
X189329526Y-92984794D01*
X189283388Y-93064706D01*
X189283387Y-93064709D01*
X189283386Y-93064711D01*
X189283386Y-93064712D01*
X189259500Y-93153856D01*
X189259500Y-93246144D01*
X189269484Y-93283408D01*
X189267822Y-93353256D01*
X189228660Y-93411119D01*
X189164431Y-93438623D01*
X189149710Y-93439500D01*
X189113856Y-93439500D01*
X189024712Y-93463386D01*
X189024711Y-93463386D01*
X189024709Y-93463387D01*
X189024706Y-93463388D01*
X188944794Y-93509526D01*
X188944785Y-93509533D01*
X188879533Y-93574785D01*
X188879526Y-93574794D01*
X188833388Y-93654706D01*
X188833387Y-93654709D01*
X188833386Y-93654711D01*
X188833386Y-93654712D01*
X188809500Y-93743856D01*
X188809500Y-93836144D01*
X188830935Y-93916142D01*
X188833387Y-93925290D01*
X188833387Y-93925291D01*
X188848896Y-93952153D01*
X188865369Y-94020053D01*
X188842517Y-94086080D01*
X188787595Y-94129271D01*
X188741282Y-94138153D01*
X178032013Y-94118575D01*
X178032013Y-94118574D01*
X178020078Y-94118553D01*
X178019991Y-94118518D01*
X177999893Y-94118518D01*
X177999888Y-94118518D01*
X177996305Y-94118511D01*
X177980193Y-94118482D01*
X177980192Y-94118482D01*
X177980184Y-94118482D01*
X177980013Y-94118516D01*
X177973466Y-94121228D01*
X177961517Y-94126177D01*
X177954009Y-94129271D01*
X177943221Y-94133716D01*
X177943077Y-94133812D01*
X177929219Y-94147669D01*
X177929064Y-94147824D01*
X177914902Y-94161933D01*
X177914802Y-94162081D01*
X177907202Y-94180428D01*
X177907159Y-94180531D01*
X177899537Y-94198843D01*
X177899536Y-94198938D01*
X177899500Y-94199027D01*
X177899500Y-94200000D01*
X175500494Y-94200000D01*
X175500502Y-94195519D01*
X175500467Y-94195434D01*
X175500467Y-94195342D01*
X175492897Y-94177068D01*
X175485267Y-94158555D01*
X175485201Y-94158488D01*
X175485166Y-94158404D01*
X175471030Y-94144268D01*
X175457046Y-94130234D01*
X175456960Y-94130198D01*
X175456895Y-94130133D01*
X175438852Y-94122659D01*
X175438678Y-94122519D01*
X175438654Y-94122577D01*
X175420133Y-94114868D01*
X175419967Y-94114834D01*
X175419957Y-94114834D01*
X175400187Y-94114834D01*
X174618371Y-94113462D01*
X174379629Y-94113043D01*
X173340774Y-94111220D01*
X173273770Y-94091418D01*
X173228107Y-94038533D01*
X173218285Y-93969358D01*
X173247422Y-93905853D01*
X173278991Y-93879834D01*
X173295212Y-93870469D01*
X173360469Y-93805212D01*
X173406614Y-93725288D01*
X173430500Y-93636144D01*
X173430500Y-93543856D01*
X173414423Y-93483856D01*
X174149500Y-93483856D01*
X174149500Y-93576144D01*
X174172456Y-93661819D01*
X174173387Y-93665290D01*
X174173388Y-93665293D01*
X174219526Y-93745205D01*
X174219529Y-93745209D01*
X174219531Y-93745212D01*
X174284788Y-93810469D01*
X174284791Y-93810470D01*
X174284794Y-93810473D01*
X174364706Y-93856611D01*
X174364708Y-93856612D01*
X174364709Y-93856612D01*
X174364712Y-93856614D01*
X174453856Y-93880500D01*
X174546144Y-93880500D01*
X174635288Y-93856614D01*
X174715212Y-93810469D01*
X174780469Y-93745212D01*
X174826614Y-93665288D01*
X174850500Y-93576144D01*
X174850500Y-93483856D01*
X174826614Y-93394712D01*
X174826611Y-93394706D01*
X174780473Y-93314794D01*
X174780470Y-93314791D01*
X174780469Y-93314788D01*
X174715212Y-93249531D01*
X174715209Y-93249529D01*
X174715205Y-93249526D01*
X174635293Y-93203388D01*
X174635290Y-93203387D01*
X174635289Y-93203386D01*
X174635288Y-93203386D01*
X174546144Y-93179500D01*
X174453856Y-93179500D01*
X174364712Y-93203386D01*
X174364711Y-93203386D01*
X174364709Y-93203387D01*
X174364706Y-93203388D01*
X174284794Y-93249526D01*
X174284785Y-93249533D01*
X174219533Y-93314785D01*
X174219526Y-93314794D01*
X174173388Y-93394706D01*
X174173387Y-93394709D01*
X174173386Y-93394711D01*
X174173386Y-93394712D01*
X174149500Y-93483856D01*
X173414423Y-93483856D01*
X173406614Y-93454712D01*
X173406611Y-93454706D01*
X173360473Y-93374794D01*
X173360470Y-93374791D01*
X173360469Y-93374788D01*
X173295212Y-93309531D01*
X173295209Y-93309529D01*
X173295205Y-93309526D01*
X173215293Y-93263388D01*
X173215290Y-93263387D01*
X173215289Y-93263386D01*
X173215288Y-93263386D01*
X173126144Y-93239500D01*
X173033856Y-93239500D01*
X172944712Y-93263386D01*
X172944711Y-93263386D01*
X172944709Y-93263387D01*
X172944706Y-93263388D01*
X172864794Y-93309526D01*
X172864785Y-93309533D01*
X172799533Y-93374785D01*
X172794583Y-93381237D01*
X172792511Y-93379647D01*
X172751315Y-93418925D01*
X172682707Y-93432145D01*
X172617843Y-93406174D01*
X172577318Y-93349258D01*
X172570500Y-93308707D01*
X172570500Y-92595056D01*
X172590185Y-92528017D01*
X172642989Y-92482262D01*
X172712147Y-92472318D01*
X172775703Y-92501343D01*
X172783562Y-92509686D01*
X172783784Y-92509465D01*
X172789531Y-92515212D01*
X172854788Y-92580469D01*
X172854791Y-92580470D01*
X172854794Y-92580473D01*
X172934706Y-92626611D01*
X172934707Y-92626611D01*
X172934712Y-92626614D01*
X173023856Y-92650500D01*
X173023858Y-92650500D01*
X173116142Y-92650500D01*
X173116144Y-92650500D01*
X173205288Y-92626614D01*
X173285212Y-92580469D01*
X173350469Y-92515212D01*
X173396614Y-92435288D01*
X173420500Y-92346144D01*
X173420500Y-92253856D01*
X173396614Y-92164712D01*
X173384951Y-92144511D01*
X173350473Y-92084794D01*
X173350470Y-92084791D01*
X173350469Y-92084788D01*
X173285212Y-92019531D01*
X173285209Y-92019529D01*
X173285205Y-92019526D01*
X173205293Y-91973388D01*
X173205290Y-91973387D01*
X173205289Y-91973386D01*
X173205288Y-91973386D01*
X173116144Y-91949500D01*
X173023856Y-91949500D01*
X172934712Y-91973386D01*
X172934711Y-91973386D01*
X172934709Y-91973387D01*
X172934706Y-91973388D01*
X172854794Y-92019526D01*
X172854785Y-92019533D01*
X172783784Y-92090535D01*
X172781780Y-92088531D01*
X172736446Y-92121633D01*
X172666700Y-92125787D01*
X172605780Y-92091573D01*
X172573028Y-92029855D01*
X172570500Y-92004943D01*
X172570500Y-91195056D01*
X172590185Y-91128017D01*
X172642989Y-91082262D01*
X172712147Y-91072318D01*
X172775703Y-91101343D01*
X172783562Y-91109686D01*
X172783784Y-91109465D01*
X172789531Y-91115212D01*
X172854788Y-91180469D01*
X172854791Y-91180470D01*
X172854794Y-91180473D01*
X172934706Y-91226611D01*
X172934707Y-91226611D01*
X172934712Y-91226614D01*
X173023856Y-91250500D01*
X173023858Y-91250500D01*
X173116142Y-91250500D01*
X173116144Y-91250500D01*
X173205288Y-91226614D01*
X173285212Y-91180469D01*
X173350469Y-91115212D01*
X173396614Y-91035288D01*
X173420500Y-90946144D01*
X173420500Y-90853856D01*
X173396614Y-90764712D01*
X173396611Y-90764706D01*
X173390347Y-90753856D01*
X174149500Y-90753856D01*
X174149500Y-90846144D01*
X174172876Y-90933386D01*
X174173387Y-90935290D01*
X174173388Y-90935293D01*
X174219526Y-91015205D01*
X174219529Y-91015209D01*
X174219531Y-91015212D01*
X174284788Y-91080469D01*
X174284791Y-91080470D01*
X174284794Y-91080473D01*
X174364706Y-91126611D01*
X174364707Y-91126611D01*
X174364712Y-91126614D01*
X174453856Y-91150500D01*
X174453858Y-91150500D01*
X174546142Y-91150500D01*
X174546144Y-91150500D01*
X174635288Y-91126614D01*
X174715212Y-91080469D01*
X174780469Y-91015212D01*
X174826614Y-90935288D01*
X174850500Y-90846144D01*
X174850500Y-90753856D01*
X174826614Y-90664712D01*
X174809722Y-90635454D01*
X174780473Y-90584794D01*
X174780470Y-90584791D01*
X174780469Y-90584788D01*
X174715212Y-90519531D01*
X174715209Y-90519529D01*
X174715205Y-90519526D01*
X174635293Y-90473388D01*
X174635290Y-90473387D01*
X174635289Y-90473386D01*
X174635288Y-90473386D01*
X174546144Y-90449500D01*
X174453856Y-90449500D01*
X174364712Y-90473386D01*
X174364711Y-90473386D01*
X174364709Y-90473387D01*
X174364706Y-90473388D01*
X174284794Y-90519526D01*
X174284785Y-90519533D01*
X174219533Y-90584785D01*
X174219526Y-90584794D01*
X174173388Y-90664706D01*
X174173387Y-90664709D01*
X174173386Y-90664711D01*
X174173386Y-90664712D01*
X174149500Y-90753856D01*
X173390347Y-90753856D01*
X173350473Y-90684794D01*
X173350470Y-90684791D01*
X173350469Y-90684788D01*
X173285212Y-90619531D01*
X173285209Y-90619529D01*
X173285205Y-90619526D01*
X173205293Y-90573388D01*
X173205290Y-90573387D01*
X173205289Y-90573386D01*
X173205288Y-90573386D01*
X173116144Y-90549500D01*
X173023856Y-90549500D01*
X172934712Y-90573386D01*
X172934711Y-90573386D01*
X172934709Y-90573387D01*
X172934706Y-90573388D01*
X172854794Y-90619526D01*
X172854785Y-90619533D01*
X172783784Y-90690535D01*
X172781780Y-90688531D01*
X172736446Y-90721633D01*
X172666700Y-90725787D01*
X172605780Y-90691573D01*
X172573028Y-90629855D01*
X172570500Y-90604943D01*
X172570500Y-89753972D01*
X172590185Y-89686933D01*
X172642989Y-89641178D01*
X172712147Y-89631234D01*
X172775703Y-89660259D01*
X172801886Y-89691970D01*
X172809531Y-89705212D01*
X172874788Y-89770469D01*
X172874791Y-89770470D01*
X172874794Y-89770473D01*
X172954706Y-89816611D01*
X172954707Y-89816611D01*
X172954712Y-89816614D01*
X173043856Y-89840500D01*
X173043858Y-89840500D01*
X173136142Y-89840500D01*
X173136144Y-89840500D01*
X173225288Y-89816614D01*
X173305212Y-89770469D01*
X173370469Y-89705212D01*
X173416614Y-89625288D01*
X173440500Y-89536144D01*
X173440500Y-89443856D01*
X173416614Y-89354712D01*
X173396578Y-89320009D01*
X173370473Y-89274794D01*
X173370470Y-89274791D01*
X173370469Y-89274788D01*
X173305212Y-89209531D01*
X173279841Y-89194883D01*
X173240011Y-89171886D01*
X173191797Y-89121319D01*
X173178575Y-89052711D01*
X173204544Y-88987847D01*
X173261458Y-88947319D01*
X173302013Y-88940500D01*
X173669989Y-88940500D01*
X173669991Y-88940500D01*
X173706929Y-88925200D01*
X173735200Y-88896929D01*
X173750500Y-88859991D01*
X173750500Y-88710009D01*
X173750500Y-87893280D01*
X173770185Y-87826241D01*
X173786819Y-87805599D01*
X173809666Y-87782751D01*
X173809667Y-87782750D01*
X173830500Y-87705000D01*
X173830500Y-85705000D01*
X173809667Y-85627250D01*
X173809666Y-85627249D01*
X173809666Y-85627248D01*
X173786819Y-85604401D01*
X173753334Y-85543078D01*
X173750500Y-85516720D01*
X173750500Y-83253856D01*
X174419500Y-83253856D01*
X174419500Y-83346144D01*
X174443366Y-83435214D01*
X174443387Y-83435290D01*
X174443388Y-83435293D01*
X174489526Y-83515205D01*
X174489533Y-83515214D01*
X174508181Y-83533862D01*
X174522884Y-83560789D01*
X174539477Y-83586608D01*
X174540368Y-83592808D01*
X174541666Y-83595185D01*
X174544500Y-83621543D01*
X174544500Y-83725142D01*
X174544499Y-83725156D01*
X174544499Y-83824853D01*
X174544500Y-83824858D01*
X174568772Y-83883457D01*
X174578829Y-83907735D01*
X174578830Y-83907736D01*
X174642264Y-83971170D01*
X174642265Y-83971170D01*
X174659705Y-83988610D01*
X178841895Y-88170800D01*
X178875380Y-88232123D01*
X178870396Y-88301815D01*
X178861603Y-88320478D01*
X178853387Y-88334709D01*
X178829500Y-88423856D01*
X178829500Y-88516146D01*
X178830017Y-88520074D01*
X178829500Y-88523389D01*
X178829500Y-88524271D01*
X178829362Y-88524271D01*
X178819251Y-88589109D01*
X178786906Y-88631144D01*
X178772235Y-88643485D01*
X178747264Y-88653830D01*
X178683830Y-88717264D01*
X178683829Y-88717265D01*
X178680066Y-88721027D01*
X178680060Y-88721033D01*
X177758829Y-89642264D01*
X177748774Y-89666537D01*
X177748774Y-89666539D01*
X177745466Y-89674526D01*
X177724499Y-89725143D01*
X177724499Y-89829288D01*
X177724500Y-89829297D01*
X177724500Y-91165142D01*
X177724499Y-91165156D01*
X177724499Y-91264857D01*
X177741601Y-91306144D01*
X177758828Y-91347733D01*
X177758831Y-91347737D01*
X177839700Y-91428606D01*
X177839706Y-91428611D01*
X179538829Y-93127734D01*
X179538830Y-93127736D01*
X179602264Y-93191170D01*
X179603404Y-93191642D01*
X179612771Y-93200922D01*
X179624126Y-93221488D01*
X179639194Y-93239517D01*
X179642290Y-93254387D01*
X179646542Y-93262088D01*
X179645898Y-93271715D01*
X179649500Y-93289011D01*
X179649500Y-93316144D01*
X179670552Y-93394712D01*
X179673387Y-93405290D01*
X179673388Y-93405293D01*
X179719526Y-93485205D01*
X179719529Y-93485209D01*
X179719531Y-93485212D01*
X179784788Y-93550469D01*
X179784791Y-93550470D01*
X179784794Y-93550473D01*
X179864706Y-93596611D01*
X179864707Y-93596611D01*
X179864712Y-93596614D01*
X179953856Y-93620500D01*
X179953858Y-93620500D01*
X180046142Y-93620500D01*
X180046144Y-93620500D01*
X180135288Y-93596614D01*
X180215212Y-93550469D01*
X180280469Y-93485212D01*
X180326614Y-93405288D01*
X180350500Y-93316144D01*
X180350500Y-93223856D01*
X180326614Y-93134712D01*
X180326611Y-93134706D01*
X180280473Y-93054794D01*
X180280470Y-93054791D01*
X180280469Y-93054788D01*
X180261819Y-93036138D01*
X180228334Y-92974815D01*
X180227065Y-92963016D01*
X180225500Y-92955151D01*
X180225500Y-92955145D01*
X180217721Y-92936365D01*
X180191172Y-92872266D01*
X180127733Y-92808827D01*
X180044858Y-92774501D01*
X180044856Y-92774500D01*
X180044855Y-92774500D01*
X180044853Y-92774500D01*
X179874767Y-92774500D01*
X179807728Y-92754815D01*
X179787086Y-92738181D01*
X178211819Y-91162914D01*
X178178334Y-91101591D01*
X178175500Y-91075233D01*
X178175500Y-89914767D01*
X178195185Y-89847728D01*
X178211819Y-89827086D01*
X178932086Y-89106819D01*
X178993409Y-89073334D01*
X179019767Y-89070500D01*
X179350143Y-89070500D01*
X179350145Y-89070501D01*
X179439855Y-89070501D01*
X179498460Y-89046225D01*
X179522736Y-89036170D01*
X179586170Y-88972736D01*
X179586170Y-88972735D01*
X179603608Y-88955297D01*
X179603609Y-88955294D01*
X179952085Y-88606820D01*
X180013408Y-88573335D01*
X180015003Y-88572999D01*
X180027260Y-88570501D01*
X180113409Y-88570501D01*
X180185836Y-88540500D01*
X180196290Y-88536170D01*
X180259724Y-88472736D01*
X180259724Y-88472735D01*
X180277162Y-88455297D01*
X180277163Y-88455294D01*
X181186170Y-87546290D01*
X181186170Y-87546288D01*
X181186172Y-87546287D01*
X181203335Y-87504849D01*
X181220500Y-87463409D01*
X181220500Y-87373700D01*
X181220500Y-84839766D01*
X181240185Y-84772727D01*
X181256815Y-84752089D01*
X181707734Y-84301170D01*
X181707736Y-84301170D01*
X181771170Y-84237736D01*
X181795292Y-84179500D01*
X181805501Y-84154855D01*
X181805501Y-84065145D01*
X181805501Y-84055156D01*
X181805500Y-84055142D01*
X181805500Y-83624767D01*
X181825185Y-83557728D01*
X181841819Y-83537086D01*
X182277087Y-83101819D01*
X182338410Y-83068334D01*
X182364768Y-83065500D01*
X182391142Y-83065500D01*
X182391144Y-83065500D01*
X182480288Y-83041614D01*
X182560212Y-82995469D01*
X182625469Y-82930212D01*
X182625469Y-82930211D01*
X182631216Y-82924465D01*
X182633018Y-82926267D01*
X182648191Y-82915184D01*
X182672540Y-82895166D01*
X182676185Y-82894737D01*
X182679151Y-82892572D01*
X182710617Y-82890693D01*
X182741932Y-82887016D01*
X182745232Y-82888627D01*
X182748897Y-82888409D01*
X182776392Y-82903845D01*
X182804715Y-82917677D01*
X182807748Y-82921448D01*
X182809822Y-82922613D01*
X182827130Y-82944939D01*
X182827815Y-82946068D01*
X182851761Y-82987543D01*
X182854851Y-82990633D01*
X182861078Y-83000897D01*
X182868378Y-83028373D01*
X182878632Y-83054893D01*
X182877234Y-83061705D01*
X182879020Y-83068424D01*
X182870307Y-83095485D01*
X182864595Y-83123338D01*
X182862450Y-83127212D01*
X182858388Y-83134247D01*
X182858387Y-83134250D01*
X182858386Y-83134252D01*
X182858386Y-83134253D01*
X182834500Y-83223397D01*
X182834500Y-83315685D01*
X182855592Y-83394402D01*
X182858387Y-83404831D01*
X182858388Y-83404834D01*
X182904526Y-83484746D01*
X182904529Y-83484750D01*
X182904531Y-83484753D01*
X182969788Y-83550010D01*
X182969791Y-83550011D01*
X182969794Y-83550014D01*
X183049706Y-83596152D01*
X183049707Y-83596152D01*
X183049712Y-83596155D01*
X183138856Y-83620041D01*
X183138858Y-83620041D01*
X183231142Y-83620041D01*
X183231144Y-83620041D01*
X183320288Y-83596155D01*
X183400212Y-83550010D01*
X183465469Y-83484753D01*
X183511614Y-83404829D01*
X183535500Y-83315685D01*
X183535500Y-83223397D01*
X183511614Y-83134253D01*
X183507209Y-83126624D01*
X183473555Y-83068334D01*
X183465469Y-83054329D01*
X183465464Y-83054324D01*
X183463795Y-83052148D01*
X183462953Y-83049970D01*
X183461406Y-83047291D01*
X183461823Y-83047049D01*
X183438597Y-82986980D01*
X183452633Y-82918535D01*
X183454770Y-82914674D01*
X183458844Y-82907619D01*
X183482730Y-82818475D01*
X183482730Y-82726187D01*
X183480144Y-82716536D01*
X183481805Y-82646688D01*
X183520967Y-82588825D01*
X183524442Y-82586058D01*
X183525198Y-82585476D01*
X183525212Y-82585469D01*
X183590469Y-82520212D01*
X183636614Y-82440288D01*
X183660500Y-82351144D01*
X183660500Y-82258856D01*
X183636614Y-82169712D01*
X183604835Y-82114670D01*
X183590473Y-82089794D01*
X183590470Y-82089791D01*
X183590469Y-82089788D01*
X183525212Y-82024531D01*
X183525209Y-82024529D01*
X183525205Y-82024526D01*
X183445293Y-81978388D01*
X183445290Y-81978387D01*
X183445289Y-81978386D01*
X183445288Y-81978386D01*
X183356144Y-81954500D01*
X183263856Y-81954500D01*
X183174712Y-81978386D01*
X183174711Y-81978386D01*
X183174709Y-81978387D01*
X183174706Y-81978388D01*
X183094794Y-82024526D01*
X183094785Y-82024533D01*
X183029533Y-82089785D01*
X183029526Y-82089794D01*
X182983388Y-82169706D01*
X182983387Y-82169709D01*
X182983386Y-82169711D01*
X182983386Y-82169712D01*
X182959500Y-82258856D01*
X182959500Y-82351144D01*
X182960455Y-82354709D01*
X182962086Y-82360794D01*
X182961791Y-82373156D01*
X182966045Y-82384769D01*
X182960975Y-82407428D01*
X182960423Y-82430644D01*
X182953118Y-82442548D01*
X182950791Y-82452954D01*
X182936681Y-82469337D01*
X182929475Y-82481083D01*
X182920746Y-82489709D01*
X182917018Y-82491862D01*
X182851761Y-82557119D01*
X182850727Y-82558908D01*
X182843279Y-82566270D01*
X182819681Y-82578975D01*
X182798033Y-82594774D01*
X182789385Y-82595286D01*
X182781759Y-82599393D01*
X182755040Y-82597324D01*
X182728286Y-82598911D01*
X182720734Y-82594667D01*
X182712098Y-82593999D01*
X182690737Y-82577811D01*
X182667374Y-82564683D01*
X182659229Y-82553934D01*
X182656412Y-82551799D01*
X182655289Y-82548733D01*
X182648730Y-82540077D01*
X182625469Y-82499788D01*
X182560212Y-82434531D01*
X182560209Y-82434529D01*
X182560205Y-82434526D01*
X182480293Y-82388388D01*
X182480290Y-82388387D01*
X182480289Y-82388386D01*
X182480288Y-82388386D01*
X182391144Y-82364500D01*
X182298856Y-82364500D01*
X182209712Y-82388386D01*
X182209711Y-82388386D01*
X182209709Y-82388387D01*
X182209706Y-82388388D01*
X182129794Y-82434526D01*
X182129785Y-82434533D01*
X182064533Y-82499785D01*
X182064528Y-82499791D01*
X182046844Y-82530420D01*
X181996275Y-82578634D01*
X181927667Y-82591854D01*
X181862804Y-82565884D01*
X181851778Y-82556097D01*
X181815214Y-82519533D01*
X181815212Y-82519531D01*
X181815209Y-82519529D01*
X181815205Y-82519526D01*
X181735293Y-82473388D01*
X181735290Y-82473387D01*
X181735289Y-82473386D01*
X181735288Y-82473386D01*
X181646144Y-82449500D01*
X181553856Y-82449500D01*
X181464712Y-82473386D01*
X181464711Y-82473386D01*
X181464709Y-82473387D01*
X181464706Y-82473388D01*
X181384794Y-82519526D01*
X181384785Y-82519533D01*
X181319533Y-82584785D01*
X181319526Y-82584794D01*
X181273388Y-82664706D01*
X181273387Y-82664709D01*
X181273386Y-82664711D01*
X181273386Y-82664712D01*
X181272276Y-82668856D01*
X181249500Y-82753855D01*
X181248469Y-82761689D01*
X181220200Y-82825584D01*
X181161875Y-82864054D01*
X181125530Y-82869500D01*
X181043856Y-82869500D01*
X180954712Y-82893386D01*
X180954711Y-82893386D01*
X180954709Y-82893387D01*
X180954706Y-82893388D01*
X180874794Y-82939526D01*
X180874785Y-82939533D01*
X180809533Y-83004785D01*
X180809526Y-83004794D01*
X180763388Y-83084706D01*
X180763387Y-83084709D01*
X180763386Y-83084711D01*
X180763386Y-83084712D01*
X180739500Y-83173856D01*
X180739500Y-83266144D01*
X180760935Y-83346142D01*
X180763387Y-83355290D01*
X180763388Y-83355293D01*
X180809526Y-83435205D01*
X180809529Y-83435209D01*
X180809531Y-83435212D01*
X180874788Y-83500469D01*
X180874791Y-83500470D01*
X180874794Y-83500473D01*
X180954706Y-83546611D01*
X180954707Y-83546611D01*
X180954712Y-83546614D01*
X181043856Y-83570500D01*
X181043858Y-83570500D01*
X181136141Y-83570500D01*
X181136144Y-83570500D01*
X181198409Y-83553816D01*
X181268256Y-83555479D01*
X181326119Y-83594641D01*
X181353623Y-83658869D01*
X181354500Y-83673591D01*
X181354500Y-83965232D01*
X181334815Y-84032271D01*
X181318181Y-84052913D01*
X180806347Y-84564746D01*
X180806346Y-84564747D01*
X180803830Y-84567264D01*
X180802490Y-84570500D01*
X180769499Y-84650145D01*
X180769499Y-84739855D01*
X180769500Y-84739857D01*
X180769500Y-84765577D01*
X180769500Y-87273786D01*
X180749815Y-87340825D01*
X180733181Y-87361467D01*
X180077356Y-88017292D01*
X180016033Y-88050777D01*
X179946341Y-88045793D01*
X179890408Y-88003921D01*
X179869900Y-87961702D01*
X179867805Y-87953882D01*
X179867802Y-87953877D01*
X179821664Y-87873965D01*
X179821661Y-87873962D01*
X179821660Y-87873959D01*
X179756403Y-87808702D01*
X179756400Y-87808700D01*
X179756396Y-87808697D01*
X179676484Y-87762559D01*
X179676481Y-87762558D01*
X179676480Y-87762557D01*
X179676479Y-87762557D01*
X179587335Y-87738671D01*
X179495047Y-87738671D01*
X179405903Y-87762557D01*
X179405902Y-87762557D01*
X179405900Y-87762558D01*
X179405897Y-87762559D01*
X179325985Y-87808697D01*
X179325973Y-87808706D01*
X179309469Y-87825210D01*
X179248145Y-87858692D01*
X179178453Y-87853705D01*
X179134111Y-87825206D01*
X175031819Y-83722914D01*
X175017115Y-83695986D01*
X175000523Y-83670168D01*
X174999631Y-83663967D01*
X174998334Y-83661591D01*
X174995500Y-83635233D01*
X174995500Y-83621543D01*
X175015185Y-83554504D01*
X175031819Y-83533862D01*
X175040826Y-83524855D01*
X175050469Y-83515212D01*
X175096614Y-83435288D01*
X175120500Y-83346144D01*
X175120500Y-83253856D01*
X175099064Y-83173856D01*
X179789500Y-83173856D01*
X179789500Y-83266144D01*
X179810935Y-83346142D01*
X179813387Y-83355290D01*
X179813388Y-83355293D01*
X179859526Y-83435205D01*
X179859529Y-83435209D01*
X179859531Y-83435212D01*
X179924788Y-83500469D01*
X179924791Y-83500470D01*
X179924794Y-83500473D01*
X180004706Y-83546611D01*
X180004707Y-83546611D01*
X180004712Y-83546614D01*
X180093856Y-83570500D01*
X180093858Y-83570500D01*
X180186142Y-83570500D01*
X180186144Y-83570500D01*
X180275288Y-83546614D01*
X180355212Y-83500469D01*
X180420469Y-83435212D01*
X180466614Y-83355288D01*
X180490500Y-83266144D01*
X180490500Y-83173856D01*
X180466614Y-83084712D01*
X180465619Y-83082988D01*
X180420473Y-83004794D01*
X180420470Y-83004791D01*
X180420469Y-83004788D01*
X180355212Y-82939531D01*
X180355209Y-82939529D01*
X180355205Y-82939526D01*
X180275293Y-82893388D01*
X180275290Y-82893387D01*
X180275289Y-82893386D01*
X180275288Y-82893386D01*
X180186144Y-82869500D01*
X180093856Y-82869500D01*
X180004712Y-82893386D01*
X180004711Y-82893386D01*
X180004709Y-82893387D01*
X180004706Y-82893388D01*
X179924794Y-82939526D01*
X179924785Y-82939533D01*
X179859533Y-83004785D01*
X179859526Y-83004794D01*
X179813388Y-83084706D01*
X179813387Y-83084709D01*
X179813386Y-83084711D01*
X179813386Y-83084712D01*
X179789500Y-83173856D01*
X175099064Y-83173856D01*
X175096614Y-83164712D01*
X175096613Y-83164710D01*
X175096611Y-83164706D01*
X175050473Y-83084794D01*
X175050470Y-83084791D01*
X175050469Y-83084788D01*
X174985212Y-83019531D01*
X174985209Y-83019529D01*
X174985205Y-83019526D01*
X174905293Y-82973388D01*
X174905290Y-82973387D01*
X174905289Y-82973386D01*
X174905288Y-82973386D01*
X174816144Y-82949500D01*
X174723856Y-82949500D01*
X174634712Y-82973386D01*
X174634711Y-82973386D01*
X174634709Y-82973387D01*
X174634706Y-82973388D01*
X174554794Y-83019526D01*
X174554785Y-83019533D01*
X174489533Y-83084785D01*
X174489526Y-83084794D01*
X174443388Y-83164706D01*
X174443387Y-83164709D01*
X174443387Y-83164710D01*
X174443386Y-83164712D01*
X174419500Y-83253856D01*
X173750500Y-83253856D01*
X173750500Y-81530010D01*
X173750499Y-81530007D01*
X173750451Y-81529892D01*
X173735200Y-81493071D01*
X173706929Y-81464800D01*
X173706928Y-81464799D01*
X173669992Y-81449500D01*
X173669991Y-81449500D01*
X172627607Y-81449500D01*
X172560568Y-81429815D01*
X172514813Y-81377011D01*
X172503607Y-81325558D01*
X172502881Y-79775499D01*
X172502749Y-79494557D01*
X172522402Y-79427509D01*
X172575185Y-79381730D01*
X172588381Y-79378856D01*
X177649500Y-79378856D01*
X177649500Y-79471144D01*
X177655773Y-79494557D01*
X177673387Y-79560290D01*
X177673388Y-79560293D01*
X177719526Y-79640205D01*
X177719529Y-79640209D01*
X177719531Y-79640212D01*
X177784788Y-79705469D01*
X177784791Y-79705470D01*
X177784794Y-79705473D01*
X177864706Y-79751611D01*
X177864707Y-79751611D01*
X177864712Y-79751614D01*
X177953856Y-79775500D01*
X177953858Y-79775500D01*
X178046142Y-79775500D01*
X178046144Y-79775500D01*
X178135288Y-79751614D01*
X178215212Y-79705469D01*
X178280469Y-79640212D01*
X178326614Y-79560288D01*
X178350500Y-79471144D01*
X178350500Y-79378856D01*
X178649500Y-79378856D01*
X178649500Y-79471144D01*
X178655773Y-79494557D01*
X178673387Y-79560290D01*
X178673388Y-79560293D01*
X178719526Y-79640205D01*
X178719529Y-79640209D01*
X178719531Y-79640212D01*
X178784788Y-79705469D01*
X178784791Y-79705470D01*
X178784794Y-79705473D01*
X178864706Y-79751611D01*
X178864707Y-79751611D01*
X178864712Y-79751614D01*
X178953856Y-79775500D01*
X178953858Y-79775500D01*
X179046142Y-79775500D01*
X179046144Y-79775500D01*
X179135288Y-79751614D01*
X179215212Y-79705469D01*
X179280469Y-79640212D01*
X179326614Y-79560288D01*
X179350500Y-79471144D01*
X179350500Y-79378856D01*
X179326614Y-79289712D01*
X179326611Y-79289706D01*
X179280473Y-79209794D01*
X179280470Y-79209791D01*
X179280469Y-79209788D01*
X179215212Y-79144531D01*
X179215209Y-79144529D01*
X179215205Y-79144526D01*
X179135293Y-79098388D01*
X179135290Y-79098387D01*
X179135289Y-79098386D01*
X179135288Y-79098386D01*
X179046144Y-79074500D01*
X178953856Y-79074500D01*
X178864712Y-79098386D01*
X178864711Y-79098386D01*
X178864709Y-79098387D01*
X178864706Y-79098388D01*
X178784794Y-79144526D01*
X178784785Y-79144533D01*
X178719533Y-79209785D01*
X178719526Y-79209794D01*
X178673388Y-79289706D01*
X178673387Y-79289709D01*
X178673386Y-79289711D01*
X178673386Y-79289712D01*
X178649500Y-79378856D01*
X178350500Y-79378856D01*
X178326614Y-79289712D01*
X178326611Y-79289706D01*
X178280473Y-79209794D01*
X178280470Y-79209791D01*
X178280469Y-79209788D01*
X178215212Y-79144531D01*
X178215209Y-79144529D01*
X178215205Y-79144526D01*
X178135293Y-79098388D01*
X178135290Y-79098387D01*
X178135289Y-79098386D01*
X178135288Y-79098386D01*
X178046144Y-79074500D01*
X177953856Y-79074500D01*
X177864712Y-79098386D01*
X177864711Y-79098386D01*
X177864709Y-79098387D01*
X177864706Y-79098388D01*
X177784794Y-79144526D01*
X177784785Y-79144533D01*
X177719533Y-79209785D01*
X177719526Y-79209794D01*
X177673388Y-79289706D01*
X177673387Y-79289709D01*
X177673386Y-79289711D01*
X177673386Y-79289712D01*
X177649500Y-79378856D01*
X172588381Y-79378856D01*
X172626749Y-79370500D01*
X173669989Y-79370500D01*
X173669991Y-79370500D01*
X173706929Y-79355200D01*
X173735200Y-79326929D01*
X173750500Y-79289991D01*
X173750500Y-79180009D01*
X173750500Y-78253856D01*
X176649500Y-78253856D01*
X176649500Y-78346144D01*
X176662921Y-78396233D01*
X176673387Y-78435290D01*
X176673388Y-78435293D01*
X176719526Y-78515205D01*
X176719529Y-78515209D01*
X176719531Y-78515212D01*
X176784788Y-78580469D01*
X176784791Y-78580470D01*
X176784794Y-78580473D01*
X176864706Y-78626611D01*
X176864707Y-78626611D01*
X176864712Y-78626614D01*
X176953856Y-78650500D01*
X176953858Y-78650500D01*
X177046142Y-78650500D01*
X177046144Y-78650500D01*
X177135288Y-78626614D01*
X177215212Y-78580469D01*
X177280469Y-78515212D01*
X177326614Y-78435288D01*
X177350500Y-78346144D01*
X177350500Y-78253856D01*
X177326614Y-78164712D01*
X177326611Y-78164706D01*
X177280473Y-78084794D01*
X177280470Y-78084791D01*
X177280469Y-78084788D01*
X177215212Y-78019531D01*
X177215209Y-78019529D01*
X177215205Y-78019526D01*
X177135293Y-77973388D01*
X177135290Y-77973387D01*
X177135289Y-77973386D01*
X177135288Y-77973386D01*
X177046144Y-77949500D01*
X176953856Y-77949500D01*
X176864712Y-77973386D01*
X176864711Y-77973386D01*
X176864709Y-77973387D01*
X176864706Y-77973388D01*
X176784794Y-78019526D01*
X176784785Y-78019533D01*
X176719533Y-78084785D01*
X176719526Y-78084794D01*
X176673388Y-78164706D01*
X176673387Y-78164709D01*
X176673386Y-78164711D01*
X176673386Y-78164712D01*
X176649500Y-78253856D01*
X173750500Y-78253856D01*
X173750500Y-78160009D01*
X173735200Y-78123071D01*
X173706929Y-78094800D01*
X173706928Y-78094799D01*
X173669992Y-78079500D01*
X173669991Y-78079500D01*
X173365057Y-78079500D01*
X173298018Y-78059815D01*
X173252263Y-78007011D01*
X173242319Y-77937853D01*
X173271344Y-77874297D01*
X173279685Y-77866436D01*
X173279465Y-77866216D01*
X173303922Y-77841759D01*
X173350469Y-77795212D01*
X173396614Y-77715288D01*
X173420500Y-77626144D01*
X173420500Y-77533856D01*
X173396614Y-77444712D01*
X173396611Y-77444706D01*
X173350473Y-77364794D01*
X173350470Y-77364791D01*
X173350469Y-77364788D01*
X173285212Y-77299531D01*
X173285209Y-77299529D01*
X173285205Y-77299526D01*
X173205293Y-77253388D01*
X173205290Y-77253387D01*
X173205289Y-77253386D01*
X173205288Y-77253386D01*
X173116144Y-77229500D01*
X173023856Y-77229500D01*
X172934712Y-77253386D01*
X172934711Y-77253386D01*
X172934709Y-77253387D01*
X172934706Y-77253388D01*
X172854794Y-77299526D01*
X172854785Y-77299533D01*
X172783784Y-77370535D01*
X172781780Y-77368531D01*
X172736446Y-77401633D01*
X172666700Y-77405787D01*
X172605780Y-77371573D01*
X172573028Y-77309855D01*
X172570500Y-77284943D01*
X172570500Y-76425056D01*
X172590185Y-76358017D01*
X172642989Y-76312262D01*
X172712147Y-76302318D01*
X172775703Y-76331343D01*
X172783562Y-76339686D01*
X172783784Y-76339465D01*
X172789531Y-76345212D01*
X172854788Y-76410469D01*
X172854791Y-76410470D01*
X172854794Y-76410473D01*
X172934706Y-76456611D01*
X172934707Y-76456611D01*
X172934712Y-76456614D01*
X173023856Y-76480500D01*
X173023858Y-76480500D01*
X173116142Y-76480500D01*
X173116144Y-76480500D01*
X173205288Y-76456614D01*
X173285212Y-76410469D01*
X173350469Y-76345212D01*
X173396614Y-76265288D01*
X173420500Y-76176144D01*
X173420500Y-76083856D01*
X173396614Y-75994712D01*
X173395282Y-75992405D01*
X173350473Y-75914794D01*
X173350470Y-75914791D01*
X173350469Y-75914788D01*
X173285212Y-75849531D01*
X173285209Y-75849529D01*
X173285205Y-75849526D01*
X173205293Y-75803388D01*
X173205290Y-75803387D01*
X173205289Y-75803386D01*
X173205288Y-75803386D01*
X173116144Y-75779500D01*
X173023856Y-75779500D01*
X172934712Y-75803386D01*
X172934711Y-75803386D01*
X172934709Y-75803387D01*
X172934706Y-75803388D01*
X172854794Y-75849526D01*
X172854785Y-75849533D01*
X172783784Y-75920535D01*
X172781780Y-75918531D01*
X172736446Y-75951633D01*
X172666700Y-75955787D01*
X172605780Y-75921573D01*
X172573028Y-75859855D01*
X172570500Y-75834943D01*
X172570500Y-75043856D01*
X182699500Y-75043856D01*
X182699500Y-75136144D01*
X182723366Y-75225214D01*
X182723387Y-75225290D01*
X182723388Y-75225293D01*
X182769526Y-75305205D01*
X182769529Y-75305209D01*
X182769531Y-75305212D01*
X182834788Y-75370469D01*
X182834791Y-75370470D01*
X182834794Y-75370473D01*
X182914706Y-75416611D01*
X182914707Y-75416611D01*
X182914712Y-75416614D01*
X183003856Y-75440500D01*
X183003858Y-75440500D01*
X183096142Y-75440500D01*
X183096144Y-75440500D01*
X183185288Y-75416614D01*
X183265212Y-75370469D01*
X183330469Y-75305212D01*
X183376614Y-75225288D01*
X183400500Y-75136144D01*
X183400500Y-75043856D01*
X183381744Y-74973856D01*
X187449500Y-74973856D01*
X187449500Y-75066144D01*
X187468256Y-75136144D01*
X187473387Y-75155290D01*
X187473388Y-75155293D01*
X187519526Y-75235205D01*
X187519529Y-75235209D01*
X187519531Y-75235212D01*
X187584788Y-75300469D01*
X187584791Y-75300470D01*
X187584794Y-75300473D01*
X187664706Y-75346611D01*
X187664707Y-75346611D01*
X187664712Y-75346614D01*
X187753856Y-75370500D01*
X187753858Y-75370500D01*
X187846142Y-75370500D01*
X187846144Y-75370500D01*
X187935288Y-75346614D01*
X188006660Y-75305406D01*
X188074558Y-75288933D01*
X188130659Y-75305406D01*
X188174165Y-75330524D01*
X188184708Y-75336612D01*
X188184712Y-75336614D01*
X188273856Y-75360500D01*
X188273858Y-75360500D01*
X188366142Y-75360500D01*
X188366144Y-75360500D01*
X188455288Y-75336614D01*
X188535212Y-75290469D01*
X188600469Y-75225212D01*
X188646614Y-75145288D01*
X188670500Y-75056144D01*
X188670500Y-74963856D01*
X188646614Y-74874712D01*
X188646611Y-74874706D01*
X188600473Y-74794794D01*
X188600470Y-74794791D01*
X188600469Y-74794788D01*
X188535212Y-74729531D01*
X188535209Y-74729529D01*
X188535205Y-74729526D01*
X188455293Y-74683388D01*
X188455290Y-74683387D01*
X188455289Y-74683386D01*
X188455288Y-74683386D01*
X188366144Y-74659500D01*
X188273856Y-74659500D01*
X188184712Y-74683386D01*
X188184711Y-74683386D01*
X188184709Y-74683387D01*
X188184708Y-74683387D01*
X188113339Y-74724593D01*
X188045439Y-74741066D01*
X187989337Y-74724592D01*
X187935290Y-74693386D01*
X187875858Y-74677462D01*
X187846144Y-74669500D01*
X187753856Y-74669500D01*
X187664712Y-74693386D01*
X187664711Y-74693386D01*
X187664709Y-74693387D01*
X187664706Y-74693388D01*
X187584794Y-74739526D01*
X187584785Y-74739533D01*
X187519533Y-74804785D01*
X187519526Y-74804794D01*
X187473388Y-74884706D01*
X187473387Y-74884709D01*
X187473386Y-74884711D01*
X187473386Y-74884712D01*
X187449500Y-74973856D01*
X183381744Y-74973856D01*
X183376614Y-74954712D01*
X183376612Y-74954709D01*
X183376612Y-74954707D01*
X183376611Y-74954706D01*
X183330473Y-74874794D01*
X183330470Y-74874791D01*
X183330469Y-74874788D01*
X183265212Y-74809531D01*
X183265209Y-74809529D01*
X183265205Y-74809526D01*
X183185293Y-74763388D01*
X183185290Y-74763387D01*
X183185289Y-74763386D01*
X183185288Y-74763386D01*
X183096144Y-74739500D01*
X183003856Y-74739500D01*
X182914712Y-74763386D01*
X182914711Y-74763386D01*
X182914709Y-74763387D01*
X182914706Y-74763388D01*
X182834794Y-74809526D01*
X182834785Y-74809533D01*
X182769533Y-74874785D01*
X182769526Y-74874794D01*
X182723388Y-74954706D01*
X182723387Y-74954709D01*
X182723386Y-74954711D01*
X182723386Y-74954712D01*
X182699500Y-75043856D01*
X172570500Y-75043856D01*
X172570500Y-73843856D01*
X174819500Y-73843856D01*
X174819500Y-73936143D01*
X174843387Y-74025290D01*
X174843387Y-74025291D01*
X174856498Y-74048000D01*
X174872971Y-74115901D01*
X174856498Y-74172000D01*
X174843387Y-74194708D01*
X174843387Y-74194709D01*
X174843387Y-74194710D01*
X174843386Y-74194712D01*
X174819500Y-74283856D01*
X174819500Y-74376144D01*
X174835576Y-74436142D01*
X174843387Y-74465290D01*
X174843388Y-74465293D01*
X174889526Y-74545205D01*
X174889529Y-74545209D01*
X174889531Y-74545212D01*
X174954788Y-74610469D01*
X174954791Y-74610470D01*
X174954794Y-74610473D01*
X175034706Y-74656611D01*
X175034707Y-74656611D01*
X175034712Y-74656614D01*
X175123856Y-74680500D01*
X175123858Y-74680500D01*
X175216142Y-74680500D01*
X175216144Y-74680500D01*
X175305288Y-74656614D01*
X175385212Y-74610469D01*
X175450469Y-74545212D01*
X175496614Y-74465288D01*
X175520500Y-74376144D01*
X175520500Y-74283856D01*
X175496614Y-74194712D01*
X175483501Y-74172001D01*
X175467028Y-74104102D01*
X175483502Y-74047998D01*
X175496416Y-74025631D01*
X175496614Y-74025288D01*
X175520500Y-73936144D01*
X175520500Y-73844196D01*
X181190994Y-73844196D01*
X181190994Y-73936483D01*
X181214880Y-74025628D01*
X181254468Y-74094195D01*
X181270941Y-74162095D01*
X181254468Y-74218196D01*
X181233387Y-74254708D01*
X181233387Y-74254709D01*
X181233386Y-74254711D01*
X181233386Y-74254712D01*
X181209500Y-74343856D01*
X181209500Y-74436144D01*
X181217310Y-74465293D01*
X181233387Y-74525290D01*
X181233388Y-74525293D01*
X181279526Y-74605205D01*
X181279529Y-74605209D01*
X181279531Y-74605212D01*
X181344788Y-74670469D01*
X181344791Y-74670470D01*
X181344794Y-74670473D01*
X181424706Y-74716611D01*
X181424707Y-74716611D01*
X181424712Y-74716614D01*
X181513856Y-74740500D01*
X181513858Y-74740500D01*
X181606142Y-74740500D01*
X181606144Y-74740500D01*
X181695288Y-74716614D01*
X181775212Y-74670469D01*
X181840469Y-74605212D01*
X181886614Y-74525288D01*
X181910500Y-74436144D01*
X181910500Y-74343856D01*
X181886614Y-74254712D01*
X181886611Y-74254706D01*
X181847026Y-74186144D01*
X181830552Y-74118244D01*
X181847027Y-74062140D01*
X181868106Y-74025631D01*
X181868108Y-74025628D01*
X181891994Y-73936484D01*
X181891994Y-73844196D01*
X181868108Y-73755052D01*
X181867910Y-73754709D01*
X181821967Y-73675134D01*
X181821964Y-73675131D01*
X181821963Y-73675128D01*
X181756706Y-73609871D01*
X181756703Y-73609869D01*
X181756699Y-73609866D01*
X181676787Y-73563728D01*
X181676784Y-73563727D01*
X181676783Y-73563726D01*
X181676782Y-73563726D01*
X181587638Y-73539840D01*
X181495350Y-73539840D01*
X181406206Y-73563726D01*
X181406205Y-73563726D01*
X181406203Y-73563727D01*
X181406200Y-73563728D01*
X181326288Y-73609866D01*
X181326279Y-73609873D01*
X181261027Y-73675125D01*
X181261020Y-73675134D01*
X181214882Y-73755046D01*
X181214881Y-73755049D01*
X181190994Y-73844196D01*
X175520500Y-73844196D01*
X175520500Y-73843856D01*
X175496614Y-73754712D01*
X175488393Y-73740473D01*
X175450473Y-73674794D01*
X175450470Y-73674791D01*
X175450469Y-73674788D01*
X175385212Y-73609531D01*
X175385209Y-73609529D01*
X175385205Y-73609526D01*
X175305293Y-73563388D01*
X175305290Y-73563387D01*
X175305289Y-73563386D01*
X175305288Y-73563386D01*
X175216144Y-73539500D01*
X175123856Y-73539500D01*
X175034712Y-73563386D01*
X175034711Y-73563386D01*
X175034709Y-73563387D01*
X175034706Y-73563388D01*
X174954794Y-73609526D01*
X174954785Y-73609533D01*
X174889533Y-73674785D01*
X174889526Y-73674794D01*
X174843388Y-73754706D01*
X174843387Y-73754709D01*
X174843386Y-73754711D01*
X174843386Y-73754712D01*
X174834838Y-73786614D01*
X174819500Y-73843856D01*
X172570500Y-73843856D01*
X172570500Y-73755056D01*
X172590185Y-73688017D01*
X172642989Y-73642262D01*
X172712147Y-73632318D01*
X172775703Y-73661343D01*
X172783562Y-73669686D01*
X172783784Y-73669465D01*
X172789531Y-73675212D01*
X172854788Y-73740469D01*
X172854791Y-73740470D01*
X172854794Y-73740473D01*
X172934706Y-73786611D01*
X172934707Y-73786611D01*
X172934712Y-73786614D01*
X173023856Y-73810500D01*
X173023858Y-73810500D01*
X173116142Y-73810500D01*
X173116144Y-73810500D01*
X173205288Y-73786614D01*
X173285212Y-73740469D01*
X173350469Y-73675212D01*
X173396614Y-73595288D01*
X173420500Y-73506144D01*
X173420500Y-73413856D01*
X173396614Y-73324712D01*
X173396611Y-73324706D01*
X173350473Y-73244794D01*
X173350470Y-73244791D01*
X173350469Y-73244788D01*
X173285212Y-73179531D01*
X173271971Y-73171886D01*
X173223756Y-73121318D01*
X173210535Y-73052711D01*
X173236504Y-72987847D01*
X173293419Y-72947319D01*
X173333973Y-72940500D01*
X174889060Y-72940500D01*
X174900000Y-73400000D01*
G37*
%TD.AperFunction*%
%TA.AperFunction,Conductor*%
G36*
X192347424Y-94192477D02*
G01*
X192353341Y-94200000D01*
X192182651Y-94200000D01*
X192195288Y-94196614D01*
X192210544Y-94187806D01*
X192213497Y-94186101D01*
X192281397Y-94169626D01*
X192347424Y-94192477D01*
G37*
%TD.AperFunction*%
%TA.AperFunction,Conductor*%
G36*
X191046941Y-87670185D02*
G01*
X191067583Y-87686819D01*
X191896428Y-88515664D01*
X191896431Y-88515668D01*
X191966935Y-88586172D01*
X192016787Y-88606820D01*
X192049814Y-88620500D01*
X193814351Y-88620500D01*
X193881390Y-88640185D01*
X193927145Y-88692989D01*
X193937089Y-88762147D01*
X193934128Y-88776583D01*
X193929500Y-88793856D01*
X193929500Y-88886144D01*
X193953386Y-88975288D01*
X193961591Y-88989500D01*
X193975159Y-89012999D01*
X193991632Y-89080899D01*
X193975159Y-89137001D01*
X193953386Y-89174711D01*
X193953386Y-89174712D01*
X193929500Y-89263856D01*
X193929500Y-89356144D01*
X193953002Y-89443856D01*
X193953387Y-89445290D01*
X193953388Y-89445293D01*
X193999526Y-89525205D01*
X193999529Y-89525209D01*
X193999531Y-89525212D01*
X194064788Y-89590469D01*
X194064791Y-89590470D01*
X194064794Y-89590473D01*
X194144706Y-89636611D01*
X194144707Y-89636611D01*
X194144712Y-89636614D01*
X194233856Y-89660500D01*
X194233858Y-89660500D01*
X194326142Y-89660500D01*
X194326144Y-89660500D01*
X194415288Y-89636614D01*
X194495212Y-89590469D01*
X194560469Y-89525212D01*
X194606614Y-89445288D01*
X194630500Y-89356144D01*
X194630500Y-89263856D01*
X194606614Y-89174712D01*
X194584840Y-89136999D01*
X194568367Y-89069103D01*
X194584839Y-89013001D01*
X194606614Y-88975288D01*
X194630500Y-88886144D01*
X194630500Y-88793856D01*
X194618768Y-88750071D01*
X194618786Y-88749309D01*
X194618395Y-88748650D01*
X194619616Y-88714441D01*
X194620431Y-88680225D01*
X194620860Y-88679590D01*
X194620888Y-88678825D01*
X194640400Y-88650719D01*
X194659593Y-88622363D01*
X194660442Y-88621851D01*
X194660735Y-88621431D01*
X194691041Y-88603448D01*
X194691086Y-88603422D01*
X194722282Y-88590500D01*
X194732736Y-88586170D01*
X194796170Y-88522736D01*
X194796170Y-88522735D01*
X194813601Y-88505304D01*
X194813604Y-88505299D01*
X194847822Y-88471081D01*
X194909144Y-88437599D01*
X194978835Y-88442585D01*
X195034768Y-88484457D01*
X195059184Y-88549922D01*
X195059500Y-88558766D01*
X195059500Y-88893051D01*
X195039815Y-88960090D01*
X195004391Y-88996153D01*
X194951495Y-89031496D01*
X194918234Y-89081275D01*
X194918231Y-89081282D01*
X194909500Y-89125177D01*
X194909500Y-89125180D01*
X194909500Y-90354820D01*
X194909500Y-90354822D01*
X194909499Y-90354822D01*
X194918231Y-90398717D01*
X194918234Y-90398724D01*
X194951494Y-90448502D01*
X194951495Y-90448502D01*
X194951496Y-90448504D01*
X195001278Y-90481767D01*
X195001280Y-90481767D01*
X195004390Y-90483845D01*
X195049195Y-90537457D01*
X195059500Y-90586948D01*
X195059500Y-91469992D01*
X195074799Y-91506928D01*
X195096128Y-91528257D01*
X195129613Y-91589580D01*
X195132447Y-91616054D01*
X195131362Y-92775261D01*
X195111615Y-92842282D01*
X195095046Y-92862823D01*
X195074800Y-92883069D01*
X195074799Y-92883071D01*
X195059500Y-92920007D01*
X195059500Y-93453834D01*
X195039815Y-93520873D01*
X194987011Y-93566628D01*
X194917853Y-93576572D01*
X194899573Y-93572515D01*
X194885881Y-93568370D01*
X194825288Y-93533386D01*
X194736144Y-93509500D01*
X194691411Y-93509500D01*
X194673840Y-93504181D01*
X194659346Y-93494694D01*
X194642728Y-93489815D01*
X194622086Y-93473181D01*
X194438610Y-93289705D01*
X194421170Y-93272264D01*
X194357736Y-93208830D01*
X194357735Y-93208829D01*
X194333457Y-93198772D01*
X194333457Y-93198771D01*
X194274858Y-93174500D01*
X194274856Y-93174499D01*
X194274855Y-93174499D01*
X194185145Y-93174499D01*
X194170711Y-93174499D01*
X194170703Y-93174500D01*
X193916924Y-93174500D01*
X193912526Y-93174422D01*
X193890154Y-93173628D01*
X193880186Y-93169499D01*
X193790476Y-93169499D01*
X193790474Y-93169500D01*
X193329436Y-93169500D01*
X193262397Y-93149815D01*
X193241755Y-93133181D01*
X191089808Y-90981234D01*
X191056323Y-90919911D01*
X191061307Y-90850219D01*
X191089807Y-90805873D01*
X191140469Y-90755212D01*
X191186614Y-90675288D01*
X191210500Y-90586144D01*
X191210500Y-90493856D01*
X191186614Y-90404712D01*
X191183153Y-90398717D01*
X191140473Y-90324794D01*
X191140470Y-90324791D01*
X191140469Y-90324788D01*
X191075212Y-90259531D01*
X191075209Y-90259529D01*
X191075205Y-90259526D01*
X190995293Y-90213388D01*
X190995290Y-90213387D01*
X190995289Y-90213386D01*
X190995288Y-90213386D01*
X190906144Y-90189500D01*
X190813856Y-90189500D01*
X190724712Y-90213386D01*
X190724711Y-90213386D01*
X190724709Y-90213387D01*
X190724706Y-90213388D01*
X190644794Y-90259526D01*
X190644784Y-90259534D01*
X190594126Y-90310192D01*
X190532803Y-90343676D01*
X190463111Y-90338691D01*
X190418765Y-90310191D01*
X190136375Y-90027801D01*
X190102890Y-89966478D01*
X190107011Y-89908856D01*
X192869500Y-89908856D01*
X192869500Y-90001143D01*
X192893387Y-90090290D01*
X192893388Y-90090293D01*
X192939526Y-90170205D01*
X192939529Y-90170209D01*
X192939531Y-90170212D01*
X193004788Y-90235469D01*
X193004791Y-90235470D01*
X193004794Y-90235473D01*
X193084706Y-90281611D01*
X193084707Y-90281611D01*
X193084712Y-90281614D01*
X193173856Y-90305500D01*
X193173858Y-90305500D01*
X193266142Y-90305500D01*
X193266144Y-90305500D01*
X193355288Y-90281614D01*
X193435212Y-90235469D01*
X193500469Y-90170212D01*
X193546614Y-90090288D01*
X193570500Y-90001144D01*
X193570500Y-89908856D01*
X193546614Y-89819712D01*
X193545010Y-89816933D01*
X193500473Y-89739794D01*
X193500470Y-89739791D01*
X193500469Y-89739788D01*
X193435212Y-89674531D01*
X193435209Y-89674529D01*
X193435205Y-89674526D01*
X193355293Y-89628388D01*
X193355290Y-89628387D01*
X193355289Y-89628386D01*
X193355288Y-89628386D01*
X193266144Y-89604500D01*
X193173856Y-89604500D01*
X193084712Y-89628386D01*
X193084711Y-89628386D01*
X193084709Y-89628387D01*
X193084706Y-89628388D01*
X193004794Y-89674526D01*
X193004785Y-89674533D01*
X192939533Y-89739785D01*
X192939526Y-89739794D01*
X192893388Y-89819706D01*
X192893387Y-89819709D01*
X192893386Y-89819711D01*
X192893386Y-89819712D01*
X192888489Y-89837989D01*
X192869500Y-89908856D01*
X190107011Y-89908856D01*
X190107874Y-89896786D01*
X190149746Y-89840853D01*
X190165235Y-89830959D01*
X190177972Y-89824095D01*
X190185288Y-89822135D01*
X190265212Y-89775990D01*
X190330469Y-89710733D01*
X190376614Y-89630809D01*
X190400500Y-89541665D01*
X190400500Y-89473898D01*
X190420185Y-89406859D01*
X190472989Y-89361104D01*
X190492401Y-89354124D01*
X190555809Y-89337135D01*
X190635733Y-89290990D01*
X190700990Y-89225733D01*
X190747135Y-89145809D01*
X190771021Y-89056665D01*
X190771021Y-88964377D01*
X190747135Y-88875233D01*
X190747132Y-88875227D01*
X190700994Y-88795315D01*
X190700991Y-88795312D01*
X190700990Y-88795309D01*
X190635733Y-88730052D01*
X190635730Y-88730050D01*
X190635726Y-88730047D01*
X190555814Y-88683909D01*
X190555811Y-88683908D01*
X190555810Y-88683907D01*
X190555809Y-88683907D01*
X190466665Y-88660021D01*
X190374377Y-88660021D01*
X190285233Y-88683907D01*
X190285232Y-88683907D01*
X190285230Y-88683908D01*
X190285227Y-88683909D01*
X190205315Y-88730047D01*
X190205306Y-88730054D01*
X190140054Y-88795306D01*
X190140047Y-88795315D01*
X190093909Y-88875227D01*
X190093908Y-88875230D01*
X190093907Y-88875232D01*
X190093907Y-88875233D01*
X190076419Y-88940499D01*
X190070021Y-88964377D01*
X190070021Y-89032143D01*
X190050336Y-89099182D01*
X189997532Y-89144937D01*
X189978116Y-89151917D01*
X189914713Y-89168906D01*
X189914706Y-89168909D01*
X189834794Y-89215047D01*
X189834785Y-89215054D01*
X189769533Y-89280306D01*
X189769526Y-89280315D01*
X189723388Y-89360227D01*
X189720278Y-89367737D01*
X189717289Y-89366499D01*
X189688798Y-89413229D01*
X189625947Y-89443750D01*
X189556573Y-89435446D01*
X189517719Y-89409145D01*
X188552428Y-88443854D01*
X188518943Y-88382531D01*
X188520334Y-88324080D01*
X188530500Y-88286144D01*
X188530500Y-88193856D01*
X188506614Y-88104712D01*
X188506611Y-88104706D01*
X188460473Y-88024794D01*
X188460470Y-88024791D01*
X188460469Y-88024788D01*
X188460466Y-88024785D01*
X188455522Y-88018342D01*
X188456564Y-88017541D01*
X188427099Y-87963580D01*
X188428986Y-87903331D01*
X188433188Y-87888541D01*
X188446614Y-87865288D01*
X188470500Y-87776144D01*
X188470500Y-87757224D01*
X188475221Y-87740609D01*
X188485012Y-87725074D01*
X188490185Y-87707461D01*
X188503254Y-87696136D01*
X188512479Y-87681502D01*
X188529115Y-87673727D01*
X188542989Y-87661706D01*
X188565160Y-87656882D01*
X188575778Y-87651921D01*
X188583303Y-87652935D01*
X188594500Y-87650500D01*
X190979902Y-87650500D01*
X191046941Y-87670185D01*
G37*
%TD.AperFunction*%
%TA.AperFunction,Conductor*%
G36*
X187273834Y-86077584D02*
G01*
X187329767Y-86119456D01*
X187354184Y-86184920D01*
X187354500Y-86193766D01*
X187354500Y-90192431D01*
X187334815Y-90259470D01*
X187285365Y-90303633D01*
X186991977Y-90448385D01*
X186983293Y-90453018D01*
X186982027Y-90453745D01*
X186980161Y-90455482D01*
X186957726Y-90472060D01*
X186944788Y-90479530D01*
X186879530Y-90544789D01*
X186879526Y-90544794D01*
X186833388Y-90624706D01*
X186833387Y-90624709D01*
X186833386Y-90624711D01*
X186833386Y-90624712D01*
X186809500Y-90713856D01*
X186809500Y-90806144D01*
X186817462Y-90835858D01*
X186833386Y-90895290D01*
X186856483Y-90935293D01*
X186868181Y-90955554D01*
X186869326Y-90957536D01*
X186885800Y-91025436D01*
X186862949Y-91091463D01*
X186823943Y-91126924D01*
X186784788Y-91149531D01*
X186784785Y-91149533D01*
X186719533Y-91214785D01*
X186719526Y-91214794D01*
X186673388Y-91294706D01*
X186673387Y-91294707D01*
X186652264Y-91373540D01*
X186615898Y-91433201D01*
X186553051Y-91463729D01*
X186483676Y-91455434D01*
X186444808Y-91429127D01*
X186395214Y-91379533D01*
X186395212Y-91379531D01*
X186395209Y-91379529D01*
X186395205Y-91379526D01*
X186315293Y-91333388D01*
X186315290Y-91333387D01*
X186315289Y-91333386D01*
X186315288Y-91333386D01*
X186226144Y-91309500D01*
X186133856Y-91309500D01*
X186133854Y-91309500D01*
X186107626Y-91316528D01*
X186037776Y-91314865D01*
X185979914Y-91275701D01*
X185955760Y-91228846D01*
X185948342Y-91201160D01*
X185946614Y-91194711D01*
X185946611Y-91194706D01*
X185900473Y-91114794D01*
X185900470Y-91114791D01*
X185900469Y-91114788D01*
X185835212Y-91049531D01*
X185835209Y-91049529D01*
X185835205Y-91049526D01*
X185755293Y-91003388D01*
X185755290Y-91003387D01*
X185755289Y-91003386D01*
X185755288Y-91003386D01*
X185666144Y-90979500D01*
X185573856Y-90979500D01*
X185484712Y-91003386D01*
X185484711Y-91003386D01*
X185484709Y-91003387D01*
X185484706Y-91003388D01*
X185404794Y-91049526D01*
X185404785Y-91049533D01*
X185386138Y-91068181D01*
X185324815Y-91101666D01*
X185298457Y-91104500D01*
X184605471Y-91104500D01*
X184602444Y-91105102D01*
X184595719Y-91104500D01*
X184593263Y-91104500D01*
X184593263Y-91104280D01*
X184532853Y-91098872D01*
X184477677Y-91056006D01*
X184470872Y-91045486D01*
X184470472Y-91044794D01*
X184470469Y-91044788D01*
X184405212Y-90979531D01*
X184405209Y-90979529D01*
X184405205Y-90979526D01*
X184325293Y-90933388D01*
X184325290Y-90933387D01*
X184325289Y-90933386D01*
X184325288Y-90933386D01*
X184236144Y-90909500D01*
X184143856Y-90909500D01*
X184054712Y-90933386D01*
X184054711Y-90933386D01*
X184054709Y-90933387D01*
X184054706Y-90933388D01*
X183974794Y-90979526D01*
X183974785Y-90979533D01*
X183909533Y-91044785D01*
X183909526Y-91044794D01*
X183863388Y-91124706D01*
X183863387Y-91124709D01*
X183863386Y-91124711D01*
X183863386Y-91124712D01*
X183847538Y-91183858D01*
X183839500Y-91213856D01*
X183839500Y-91285500D01*
X183836949Y-91294185D01*
X183838238Y-91303147D01*
X183827259Y-91327187D01*
X183819815Y-91352539D01*
X183812974Y-91358466D01*
X183809213Y-91366703D01*
X183786978Y-91380992D01*
X183767011Y-91398294D01*
X183756496Y-91400581D01*
X183750435Y-91404477D01*
X183715500Y-91409500D01*
X183704338Y-91409500D01*
X183637299Y-91389815D01*
X183591544Y-91337011D01*
X183583644Y-91284271D01*
X183580500Y-91284271D01*
X183580500Y-91183858D01*
X183580500Y-91183856D01*
X183556614Y-91094712D01*
X183556611Y-91094706D01*
X183510473Y-91014794D01*
X183510470Y-91014791D01*
X183510469Y-91014788D01*
X183445212Y-90949531D01*
X183445209Y-90949529D01*
X183445205Y-90949526D01*
X183365293Y-90903388D01*
X183365290Y-90903387D01*
X183365289Y-90903386D01*
X183365288Y-90903386D01*
X183276144Y-90879500D01*
X183183856Y-90879500D01*
X183094710Y-90903386D01*
X183061499Y-90922561D01*
X182993599Y-90939033D01*
X182927572Y-90916180D01*
X182884382Y-90861258D01*
X182875500Y-90815173D01*
X182875500Y-90424766D01*
X182895185Y-90357727D01*
X182911814Y-90337090D01*
X187142819Y-86106084D01*
X187204142Y-86072600D01*
X187273834Y-86077584D01*
G37*
%TD.AperFunction*%
%TA.AperFunction,Conductor*%
G36*
X184588834Y-85732584D02*
G01*
X184644767Y-85774456D01*
X184669184Y-85839920D01*
X184669500Y-85848766D01*
X184669500Y-86296679D01*
X184649815Y-86363718D01*
X184633181Y-86384360D01*
X181739360Y-89278181D01*
X181678037Y-89311666D01*
X181651679Y-89314500D01*
X181203767Y-89314500D01*
X181136728Y-89294815D01*
X181090973Y-89242011D01*
X181081029Y-89172853D01*
X181110054Y-89109297D01*
X181116086Y-89102819D01*
X184457819Y-85761085D01*
X184519142Y-85727600D01*
X184588834Y-85732584D01*
G37*
%TD.AperFunction*%
%TA.AperFunction,Conductor*%
G36*
X193061081Y-83655185D02*
G01*
X193106836Y-83707989D01*
X193116780Y-83777147D01*
X193101429Y-83821501D01*
X193099531Y-83824787D01*
X193099531Y-83824788D01*
X193093214Y-83835729D01*
X193053386Y-83904711D01*
X193049233Y-83920212D01*
X193029500Y-83993856D01*
X193029500Y-84086144D01*
X193052134Y-84170616D01*
X193053387Y-84175290D01*
X193053388Y-84175293D01*
X193099526Y-84255205D01*
X193099529Y-84255209D01*
X193099531Y-84255212D01*
X193164788Y-84320469D01*
X193164791Y-84320470D01*
X193164794Y-84320473D01*
X193244706Y-84366611D01*
X193244707Y-84366611D01*
X193244712Y-84366614D01*
X193333856Y-84390500D01*
X193333858Y-84390500D01*
X193423257Y-84390500D01*
X193490296Y-84410185D01*
X193530643Y-84452498D01*
X193533483Y-84457416D01*
X193549531Y-84485212D01*
X193614788Y-84550469D01*
X193614791Y-84550470D01*
X193614794Y-84550473D01*
X193694706Y-84596611D01*
X193694707Y-84596611D01*
X193694712Y-84596614D01*
X193783856Y-84620500D01*
X193783858Y-84620500D01*
X193876142Y-84620500D01*
X193876144Y-84620500D01*
X193965288Y-84596614D01*
X194045212Y-84550469D01*
X194110469Y-84485212D01*
X194110469Y-84485211D01*
X194116216Y-84479465D01*
X194117461Y-84480710D01*
X194123228Y-84476497D01*
X194133486Y-84462796D01*
X194150857Y-84456316D01*
X194165829Y-84445381D01*
X194182913Y-84444360D01*
X194198950Y-84438379D01*
X194217065Y-84442319D01*
X194235574Y-84441214D01*
X194250841Y-84449667D01*
X194267223Y-84453231D01*
X194295477Y-84474382D01*
X194461759Y-84640664D01*
X194461762Y-84640668D01*
X194468830Y-84647736D01*
X194532264Y-84711170D01*
X194542896Y-84715574D01*
X194552376Y-84719501D01*
X194552375Y-84719501D01*
X194605952Y-84741693D01*
X194615145Y-84745501D01*
X194615148Y-84745501D01*
X194719289Y-84745501D01*
X194719297Y-84745500D01*
X195014768Y-84745500D01*
X195023510Y-84748067D01*
X195032531Y-84746779D01*
X195056507Y-84757756D01*
X195081807Y-84765185D01*
X195087773Y-84772070D01*
X195096059Y-84775864D01*
X195110295Y-84798062D01*
X195127562Y-84817989D01*
X195129857Y-84828564D01*
X195133778Y-84834678D01*
X195138768Y-84869617D01*
X195138675Y-84967949D01*
X195118927Y-85034970D01*
X195102359Y-85055511D01*
X195074799Y-85083072D01*
X195059500Y-85120007D01*
X195059500Y-86493051D01*
X195039815Y-86560090D01*
X195004391Y-86596153D01*
X194951495Y-86631496D01*
X194918234Y-86681275D01*
X194918231Y-86681282D01*
X194909500Y-86725177D01*
X194909500Y-87720232D01*
X194889815Y-87787271D01*
X194873181Y-87807913D01*
X194547914Y-88133181D01*
X194486591Y-88166666D01*
X194460233Y-88169500D01*
X192239436Y-88169500D01*
X192172397Y-88149815D01*
X192151755Y-88133181D01*
X191333279Y-87314705D01*
X191315839Y-87297264D01*
X191252405Y-87233830D01*
X191252404Y-87233829D01*
X191228126Y-87223772D01*
X191228126Y-87223771D01*
X191169527Y-87199500D01*
X191169525Y-87199499D01*
X191169524Y-87199499D01*
X191079814Y-87199499D01*
X191065380Y-87199499D01*
X191065372Y-87199500D01*
X189389098Y-87199500D01*
X189322059Y-87179815D01*
X189276304Y-87127011D01*
X189266360Y-87057853D01*
X189295385Y-86994297D01*
X189301417Y-86987819D01*
X189635380Y-86653856D01*
X193449500Y-86653856D01*
X193449500Y-86746144D01*
X193469257Y-86819879D01*
X193473386Y-86835288D01*
X193492282Y-86868016D01*
X193508755Y-86935916D01*
X193492286Y-86992010D01*
X193489976Y-86996011D01*
X193489973Y-86996018D01*
X193466087Y-87085162D01*
X193466087Y-87177450D01*
X193478499Y-87223774D01*
X193489974Y-87266596D01*
X193489975Y-87266599D01*
X193536113Y-87346511D01*
X193536116Y-87346515D01*
X193536118Y-87346518D01*
X193601375Y-87411775D01*
X193601378Y-87411776D01*
X193601381Y-87411779D01*
X193681293Y-87457917D01*
X193681294Y-87457917D01*
X193681299Y-87457920D01*
X193770443Y-87481806D01*
X193770445Y-87481806D01*
X193862729Y-87481806D01*
X193862731Y-87481806D01*
X193951875Y-87457920D01*
X194031799Y-87411775D01*
X194097056Y-87346518D01*
X194143201Y-87266594D01*
X194167087Y-87177450D01*
X194167087Y-87085162D01*
X194143201Y-86996018D01*
X194143200Y-86996017D01*
X194143200Y-86996015D01*
X194124305Y-86963290D01*
X194107831Y-86895390D01*
X194124305Y-86839285D01*
X194126614Y-86835288D01*
X194150500Y-86746144D01*
X194150500Y-86653856D01*
X194126614Y-86564712D01*
X194126611Y-86564706D01*
X194080473Y-86484794D01*
X194080470Y-86484791D01*
X194080469Y-86484788D01*
X194015212Y-86419531D01*
X194015209Y-86419529D01*
X194015205Y-86419526D01*
X193935293Y-86373388D01*
X193935290Y-86373387D01*
X193935289Y-86373386D01*
X193935288Y-86373386D01*
X193846144Y-86349500D01*
X193753856Y-86349500D01*
X193664712Y-86373386D01*
X193664711Y-86373386D01*
X193664709Y-86373387D01*
X193664706Y-86373388D01*
X193584794Y-86419526D01*
X193584785Y-86419533D01*
X193519533Y-86484785D01*
X193519526Y-86484794D01*
X193473388Y-86564706D01*
X193473387Y-86564709D01*
X193473386Y-86564711D01*
X193473386Y-86564712D01*
X193449500Y-86653856D01*
X189635380Y-86653856D01*
X189731188Y-86558048D01*
X190110700Y-86178536D01*
X192064734Y-84224501D01*
X192064736Y-84224501D01*
X192128170Y-84161067D01*
X192159204Y-84086144D01*
X192162501Y-84078185D01*
X192162501Y-83988476D01*
X192162501Y-83978487D01*
X192162500Y-83978473D01*
X192162500Y-83759500D01*
X192182185Y-83692461D01*
X192234989Y-83646706D01*
X192286500Y-83635500D01*
X192994042Y-83635500D01*
X193061081Y-83655185D01*
G37*
%TD.AperFunction*%
%TA.AperFunction,Conductor*%
G36*
X186653834Y-85137915D02*
G01*
X186709767Y-85179787D01*
X186734184Y-85245251D01*
X186734500Y-85254097D01*
X186734500Y-85455232D01*
X186714815Y-85522271D01*
X186698181Y-85542913D01*
X185582181Y-86658913D01*
X185520858Y-86692398D01*
X185451166Y-86687414D01*
X185395233Y-86645542D01*
X185370816Y-86580078D01*
X185370500Y-86571232D01*
X185370500Y-86125882D01*
X185390185Y-86058843D01*
X185406819Y-86038201D01*
X185638201Y-85806819D01*
X185665128Y-85792115D01*
X185690947Y-85775523D01*
X185697147Y-85774631D01*
X185699524Y-85773334D01*
X185725882Y-85770500D01*
X185766034Y-85770500D01*
X185766042Y-85770501D01*
X185780476Y-85770501D01*
X185870184Y-85770501D01*
X185870186Y-85770501D01*
X185928791Y-85746225D01*
X185953067Y-85736170D01*
X186016501Y-85672736D01*
X186016501Y-85672734D01*
X186522819Y-85166416D01*
X186584142Y-85132931D01*
X186653834Y-85137915D01*
G37*
%TD.AperFunction*%
%TA.AperFunction,Conductor*%
G36*
X184785372Y-83022366D02*
G01*
X184811554Y-83054075D01*
X184829531Y-83085212D01*
X184894788Y-83150469D01*
X184894791Y-83150470D01*
X184894794Y-83150473D01*
X184974706Y-83196611D01*
X184974707Y-83196611D01*
X184974712Y-83196614D01*
X185063856Y-83220500D01*
X185063858Y-83220500D01*
X185150500Y-83220500D01*
X185159185Y-83223050D01*
X185168147Y-83221762D01*
X185192187Y-83232740D01*
X185217539Y-83240185D01*
X185223466Y-83247025D01*
X185231703Y-83250787D01*
X185245992Y-83273021D01*
X185263294Y-83292989D01*
X185265581Y-83303503D01*
X185269477Y-83309565D01*
X185274500Y-83344500D01*
X185274500Y-83555232D01*
X185254815Y-83622271D01*
X185238181Y-83642913D01*
X185103830Y-83777263D01*
X185103830Y-83777265D01*
X185069499Y-83860144D01*
X185069499Y-83964288D01*
X185069500Y-83964297D01*
X185069500Y-85180563D01*
X185049815Y-85247602D01*
X185033181Y-85268244D01*
X184791850Y-85509575D01*
X184730527Y-85543060D01*
X184660835Y-85538076D01*
X184604902Y-85496204D01*
X184580485Y-85430740D01*
X184580169Y-85421894D01*
X184580169Y-83116079D01*
X184599854Y-83049040D01*
X184652658Y-83003285D01*
X184721816Y-82993341D01*
X184785372Y-83022366D01*
G37*
%TD.AperFunction*%
%TA.AperFunction,Conductor*%
G36*
X185874222Y-83082988D02*
G01*
X185878737Y-83082774D01*
X185911498Y-83095890D01*
X185964712Y-83126614D01*
X186053856Y-83150500D01*
X186053858Y-83150500D01*
X186150500Y-83150500D01*
X186217539Y-83170185D01*
X186263294Y-83222989D01*
X186274500Y-83274500D01*
X186274500Y-84725564D01*
X186254815Y-84792603D01*
X186238181Y-84813245D01*
X185768245Y-85283181D01*
X185741317Y-85297884D01*
X185715499Y-85314477D01*
X185709298Y-85315368D01*
X185706922Y-85316666D01*
X185680564Y-85319500D01*
X185644500Y-85319500D01*
X185577461Y-85299815D01*
X185531706Y-85247011D01*
X185520500Y-85195500D01*
X185520500Y-84049767D01*
X185540185Y-83982728D01*
X185556818Y-83962087D01*
X185610292Y-83908612D01*
X185610296Y-83908609D01*
X185627735Y-83891170D01*
X185627736Y-83891170D01*
X185691170Y-83827736D01*
X185719421Y-83759531D01*
X185725501Y-83744854D01*
X185725501Y-83655145D01*
X185725501Y-83645156D01*
X185725500Y-83645142D01*
X185725500Y-83203278D01*
X185727210Y-83197451D01*
X185726062Y-83191489D01*
X185736939Y-83164318D01*
X185745185Y-83136239D01*
X185749773Y-83132263D01*
X185752031Y-83126624D01*
X185775877Y-83109644D01*
X185797989Y-83090484D01*
X185803998Y-83089619D01*
X185808946Y-83086097D01*
X185838180Y-83084705D01*
X185867147Y-83080540D01*
X185874222Y-83082988D01*
G37*
%TD.AperFunction*%
%TA.AperFunction,Conductor*%
G36*
X187640362Y-78456363D02*
G01*
X187666721Y-78458249D01*
X187675774Y-78464067D01*
X187682815Y-78465599D01*
X187711069Y-78486750D01*
X187761731Y-78537412D01*
X187761734Y-78537413D01*
X187761737Y-78537416D01*
X187841649Y-78583554D01*
X187841650Y-78583554D01*
X187841655Y-78583557D01*
X187930799Y-78607443D01*
X187957176Y-78607443D01*
X188024215Y-78627128D01*
X188044857Y-78643762D01*
X188343181Y-78942086D01*
X188376666Y-79003409D01*
X188379500Y-79029767D01*
X188379500Y-82745500D01*
X188359815Y-82812539D01*
X188307011Y-82858294D01*
X188255500Y-82869500D01*
X188183856Y-82869500D01*
X188094712Y-82893386D01*
X188094711Y-82893386D01*
X188094709Y-82893387D01*
X188094706Y-82893388D01*
X188014794Y-82939526D01*
X188014788Y-82939531D01*
X187995180Y-82959139D01*
X187933856Y-82992623D01*
X187864164Y-82987637D01*
X187819820Y-82959139D01*
X187810181Y-82949500D01*
X187800212Y-82939531D01*
X187800208Y-82939529D01*
X187800205Y-82939526D01*
X187720293Y-82893388D01*
X187720290Y-82893387D01*
X187720289Y-82893386D01*
X187720288Y-82893386D01*
X187631144Y-82869500D01*
X187559500Y-82869500D01*
X187492461Y-82849815D01*
X187446706Y-82797011D01*
X187435500Y-82745500D01*
X187435500Y-78638320D01*
X187455185Y-78571281D01*
X187471810Y-78550648D01*
X187535711Y-78486746D01*
X187543653Y-78482410D01*
X187549078Y-78475164D01*
X187573834Y-78465930D01*
X187597029Y-78453265D01*
X187606059Y-78453910D01*
X187614542Y-78450747D01*
X187640362Y-78456363D01*
G37*
%TD.AperFunction*%
%TD*%
%TA.AperFunction,Conductor*%
%TO.N,LPUART1_TX_RADIO*%
G36*
X187393021Y-90432771D02*
G01*
X187487228Y-90526978D01*
X187490655Y-90535251D01*
X187489447Y-90540428D01*
X187332166Y-90859211D01*
X187325433Y-90865114D01*
X187316497Y-90864526D01*
X187315222Y-90863794D01*
X187161284Y-90762023D01*
X187157976Y-90758715D01*
X187056205Y-90604777D01*
X187054501Y-90595986D01*
X187059513Y-90588565D01*
X187060778Y-90587838D01*
X187379572Y-90430551D01*
X187388507Y-90429964D01*
X187393021Y-90432771D01*
G37*
%TD.AperFunction*%
%TD*%
M02*
