%TF.GenerationSoftware,KiCad,Pcbnew,8.0.5*%
%TF.CreationDate,2025-02-13T07:49:46+01:00*%
%TF.ProjectId,flexpcb,666c6578-7063-4622-9e6b-696361645f70,rev?*%
%TF.SameCoordinates,Original*%
%TF.FileFunction,Profile,NP*%
%FSLAX46Y46*%
G04 Gerber Fmt 4.6, Leading zero omitted, Abs format (unit mm)*
G04 Created by KiCad (PCBNEW 8.0.5) date 2025-02-13 07:49:46*
%MOMM*%
%LPD*%
G01*
G04 APERTURE LIST*
%TA.AperFunction,Profile*%
%ADD10C,0.050000*%
%TD*%
G04 APERTURE END LIST*
D10*
X84480000Y-67110000D02*
X102760000Y-67140000D01*
X102760000Y-64560000D01*
X108010000Y-64560000D01*
X108010000Y-74260075D01*
X190710000Y-74240075D01*
X190710000Y-73620000D01*
X195820000Y-73620000D01*
X195820000Y-79650000D01*
X190730000Y-79690000D01*
X190740522Y-78906123D01*
X152570000Y-78937967D01*
X151480000Y-79990000D01*
X151540000Y-96750000D01*
X155290000Y-96750000D01*
X155290000Y-93928506D01*
X158448107Y-93968986D01*
X158420000Y-96750000D01*
X158390000Y-109090000D01*
X152030000Y-109090000D01*
X152030000Y-111810000D01*
X148640000Y-111860000D01*
X148640000Y-109090000D01*
X143380000Y-109090000D01*
X143380000Y-96660000D01*
X148550000Y-96660000D01*
X148510000Y-80040000D01*
X147440000Y-78990145D01*
X122530000Y-79020000D01*
X122556072Y-81424488D01*
X125861862Y-81439425D01*
X125892657Y-84426512D01*
X122604479Y-84440716D01*
X122608927Y-86299117D01*
X120893020Y-86299779D01*
X120993018Y-111360070D01*
X136672787Y-111342141D01*
X136680000Y-110790000D01*
X140760000Y-110790000D01*
X140810000Y-115760000D01*
X136760000Y-115730000D01*
X136756901Y-115094678D01*
X107480000Y-115110000D01*
X105300000Y-118653382D01*
X97301202Y-118620000D01*
X91988003Y-122310889D01*
X79030000Y-122380000D01*
X74100000Y-115970000D01*
X74083109Y-111179563D01*
X79200000Y-104880000D01*
X91950000Y-104850000D01*
X97363049Y-108247549D01*
X105260000Y-108290000D01*
X107480000Y-111466746D01*
X118451582Y-111505691D01*
X118391569Y-86269129D01*
X116230000Y-86250000D01*
X116230000Y-84360000D01*
X112780000Y-84340000D01*
X112792050Y-81472276D01*
X116230000Y-81492264D01*
X116230000Y-79020000D01*
X108020000Y-79020000D01*
X108010000Y-86930000D01*
X89170000Y-86930000D01*
X89170000Y-89019387D01*
X77530000Y-89010000D01*
X77530000Y-64270000D01*
X84480000Y-64270000D01*
X84480000Y-67110000D01*
M02*
