%TF.GenerationSoftware,KiCad,Pcbnew,8.0.5*%
%TF.CreationDate,2025-02-13T07:49:46+01:00*%
%TF.ProjectId,flexpcb,666c6578-7063-4622-9e6b-696361645f70,rev?*%
%TF.SameCoordinates,Original*%
%TF.FileFunction,Legend,Top*%
%TF.FilePolarity,Positive*%
%FSLAX46Y46*%
G04 Gerber Fmt 4.6, Leading zero omitted, Abs format (unit mm)*
G04 Created by KiCad (PCBNEW 8.0.5) date 2025-02-13 07:49:46*
%MOMM*%
%LPD*%
G01*
G04 APERTURE LIST*
%ADD10C,0.200000*%
%ADD11C,0.100000*%
%ADD12C,0.120000*%
G04 APERTURE END LIST*
D10*
%TO.C,J2*%
X194665000Y-77660000D02*
X194665000Y-77660000D01*
X194665000Y-77760000D02*
X194665000Y-77760000D01*
X194665000Y-77760000D02*
X194665000Y-77760000D01*
X194665000Y-77660000D02*
G75*
G02*
X194665000Y-77760000I0J-50000D01*
G01*
X194665000Y-77660000D02*
G75*
G02*
X194665000Y-77760000I0J-50000D01*
G01*
X194665000Y-77760000D02*
G75*
G02*
X194665000Y-77660000I0J50000D01*
G01*
D11*
%TO.C,J1*%
X138555000Y-111540000D02*
X138955000Y-111540000D01*
X138555000Y-115000000D02*
X138955000Y-115000000D01*
D12*
%TO.C,SW1*%
X105225000Y-84695000D02*
X105225000Y-84010000D01*
X105350000Y-82700000D02*
X107470000Y-82700000D01*
X105350000Y-83325000D02*
X105350000Y-82700000D01*
X105700000Y-80700000D02*
X106120000Y-80700000D01*
X105700000Y-82700000D02*
X105700000Y-80700000D01*
X105760000Y-82700000D02*
X105760000Y-80700000D01*
X105880000Y-82700000D02*
X105880000Y-80700000D01*
X105910000Y-84695000D02*
X105225000Y-84695000D01*
X106000000Y-82700000D02*
X106000000Y-80700000D01*
X106120000Y-80700000D02*
X106120000Y-82700000D01*
X106410000Y-83325000D02*
X106410000Y-82700000D01*
X106700000Y-80700000D02*
X107120000Y-80700000D01*
X106700000Y-82700000D02*
X106700000Y-80700000D01*
X107120000Y-80700000D02*
X107120000Y-82700000D01*
X107470000Y-82700000D02*
X107470000Y-83615507D01*
%TD*%
M02*
