%TF.GenerationSoftware,KiCad,Pcbnew,8.0.5*%
%TF.CreationDate,2025-02-13T07:49:46+01:00*%
%TF.ProjectId,flexpcb,666c6578-7063-4622-9e6b-696361645f70,rev?*%
%TF.SameCoordinates,Original*%
%TF.FileFunction,Other,ECO1*%
%FSLAX46Y46*%
G04 Gerber Fmt 4.6, Leading zero omitted, Abs format (unit mm)*
G04 Created by KiCad (PCBNEW 8.0.5) date 2025-02-13 07:49:46*
%MOMM*%
%LPD*%
G01*
G04 APERTURE LIST*
%ADD10C,0.100000*%
%ADD11C,0.150000*%
G04 APERTURE END LIST*
D10*
X139450000Y-117540000D02*
X139450000Y-116170000D01*
X91400000Y-123700000D02*
X91400000Y-122370000D01*
X95270000Y-65800000D02*
X94750000Y-66320000D01*
X128060000Y-88030000D02*
X124920000Y-84890000D01*
X197670000Y-72660000D02*
X196070000Y-74260000D01*
D11*
X186249160Y-71552200D02*
X186392017Y-71599819D01*
X186392017Y-71599819D02*
X186630112Y-71599819D01*
X186630112Y-71599819D02*
X186725350Y-71552200D01*
X186725350Y-71552200D02*
X186772969Y-71504580D01*
X186772969Y-71504580D02*
X186820588Y-71409342D01*
X186820588Y-71409342D02*
X186820588Y-71314104D01*
X186820588Y-71314104D02*
X186772969Y-71218866D01*
X186772969Y-71218866D02*
X186725350Y-71171247D01*
X186725350Y-71171247D02*
X186630112Y-71123628D01*
X186630112Y-71123628D02*
X186439636Y-71076009D01*
X186439636Y-71076009D02*
X186344398Y-71028390D01*
X186344398Y-71028390D02*
X186296779Y-70980771D01*
X186296779Y-70980771D02*
X186249160Y-70885533D01*
X186249160Y-70885533D02*
X186249160Y-70790295D01*
X186249160Y-70790295D02*
X186296779Y-70695057D01*
X186296779Y-70695057D02*
X186344398Y-70647438D01*
X186344398Y-70647438D02*
X186439636Y-70599819D01*
X186439636Y-70599819D02*
X186677731Y-70599819D01*
X186677731Y-70599819D02*
X186820588Y-70647438D01*
X187106303Y-70933152D02*
X187487255Y-70933152D01*
X187249160Y-70599819D02*
X187249160Y-71456961D01*
X187249160Y-71456961D02*
X187296779Y-71552200D01*
X187296779Y-71552200D02*
X187392017Y-71599819D01*
X187392017Y-71599819D02*
X187487255Y-71599819D01*
X187820589Y-71599819D02*
X187820589Y-70933152D01*
X187820589Y-70599819D02*
X187772970Y-70647438D01*
X187772970Y-70647438D02*
X187820589Y-70695057D01*
X187820589Y-70695057D02*
X187868208Y-70647438D01*
X187868208Y-70647438D02*
X187820589Y-70599819D01*
X187820589Y-70599819D02*
X187820589Y-70695057D01*
X188153922Y-70933152D02*
X188534874Y-70933152D01*
X188296779Y-71599819D02*
X188296779Y-70742676D01*
X188296779Y-70742676D02*
X188344398Y-70647438D01*
X188344398Y-70647438D02*
X188439636Y-70599819D01*
X188439636Y-70599819D02*
X188534874Y-70599819D01*
X188725351Y-70933152D02*
X189106303Y-70933152D01*
X188868208Y-71599819D02*
X188868208Y-70742676D01*
X188868208Y-70742676D02*
X188915827Y-70647438D01*
X188915827Y-70647438D02*
X189011065Y-70599819D01*
X189011065Y-70599819D02*
X189106303Y-70599819D01*
X189820589Y-71552200D02*
X189725351Y-71599819D01*
X189725351Y-71599819D02*
X189534875Y-71599819D01*
X189534875Y-71599819D02*
X189439637Y-71552200D01*
X189439637Y-71552200D02*
X189392018Y-71456961D01*
X189392018Y-71456961D02*
X189392018Y-71076009D01*
X189392018Y-71076009D02*
X189439637Y-70980771D01*
X189439637Y-70980771D02*
X189534875Y-70933152D01*
X189534875Y-70933152D02*
X189725351Y-70933152D01*
X189725351Y-70933152D02*
X189820589Y-70980771D01*
X189820589Y-70980771D02*
X189868208Y-71076009D01*
X189868208Y-71076009D02*
X189868208Y-71171247D01*
X189868208Y-71171247D02*
X189392018Y-71266485D01*
X190296780Y-70933152D02*
X190296780Y-71599819D01*
X190296780Y-71028390D02*
X190344399Y-70980771D01*
X190344399Y-70980771D02*
X190439637Y-70933152D01*
X190439637Y-70933152D02*
X190582494Y-70933152D01*
X190582494Y-70933152D02*
X190677732Y-70980771D01*
X190677732Y-70980771D02*
X190725351Y-71076009D01*
X190725351Y-71076009D02*
X190725351Y-71599819D01*
X191582494Y-71552200D02*
X191487256Y-71599819D01*
X191487256Y-71599819D02*
X191296780Y-71599819D01*
X191296780Y-71599819D02*
X191201542Y-71552200D01*
X191201542Y-71552200D02*
X191153923Y-71456961D01*
X191153923Y-71456961D02*
X191153923Y-71076009D01*
X191153923Y-71076009D02*
X191201542Y-70980771D01*
X191201542Y-70980771D02*
X191296780Y-70933152D01*
X191296780Y-70933152D02*
X191487256Y-70933152D01*
X191487256Y-70933152D02*
X191582494Y-70980771D01*
X191582494Y-70980771D02*
X191630113Y-71076009D01*
X191630113Y-71076009D02*
X191630113Y-71171247D01*
X191630113Y-71171247D02*
X191153923Y-71266485D01*
X192058685Y-71599819D02*
X192058685Y-70933152D01*
X192058685Y-71123628D02*
X192106304Y-71028390D01*
X192106304Y-71028390D02*
X192153923Y-70980771D01*
X192153923Y-70980771D02*
X192249161Y-70933152D01*
X192249161Y-70933152D02*
X192344399Y-70933152D01*
X193582495Y-71599819D02*
X193487257Y-71552200D01*
X193487257Y-71552200D02*
X193439638Y-71504580D01*
X193439638Y-71504580D02*
X193392019Y-71409342D01*
X193392019Y-71409342D02*
X193392019Y-71123628D01*
X193392019Y-71123628D02*
X193439638Y-71028390D01*
X193439638Y-71028390D02*
X193487257Y-70980771D01*
X193487257Y-70980771D02*
X193582495Y-70933152D01*
X193582495Y-70933152D02*
X193725352Y-70933152D01*
X193725352Y-70933152D02*
X193820590Y-70980771D01*
X193820590Y-70980771D02*
X193868209Y-71028390D01*
X193868209Y-71028390D02*
X193915828Y-71123628D01*
X193915828Y-71123628D02*
X193915828Y-71409342D01*
X193915828Y-71409342D02*
X193868209Y-71504580D01*
X193868209Y-71504580D02*
X193820590Y-71552200D01*
X193820590Y-71552200D02*
X193725352Y-71599819D01*
X193725352Y-71599819D02*
X193582495Y-71599819D01*
X194344400Y-70933152D02*
X194344400Y-71599819D01*
X194344400Y-71028390D02*
X194392019Y-70980771D01*
X194392019Y-70980771D02*
X194487257Y-70933152D01*
X194487257Y-70933152D02*
X194630114Y-70933152D01*
X194630114Y-70933152D02*
X194725352Y-70980771D01*
X194725352Y-70980771D02*
X194772971Y-71076009D01*
X194772971Y-71076009D02*
X194772971Y-71599819D01*
X196344400Y-71076009D02*
X196487257Y-71123628D01*
X196487257Y-71123628D02*
X196534876Y-71171247D01*
X196534876Y-71171247D02*
X196582495Y-71266485D01*
X196582495Y-71266485D02*
X196582495Y-71409342D01*
X196582495Y-71409342D02*
X196534876Y-71504580D01*
X196534876Y-71504580D02*
X196487257Y-71552200D01*
X196487257Y-71552200D02*
X196392019Y-71599819D01*
X196392019Y-71599819D02*
X196011067Y-71599819D01*
X196011067Y-71599819D02*
X196011067Y-70599819D01*
X196011067Y-70599819D02*
X196344400Y-70599819D01*
X196344400Y-70599819D02*
X196439638Y-70647438D01*
X196439638Y-70647438D02*
X196487257Y-70695057D01*
X196487257Y-70695057D02*
X196534876Y-70790295D01*
X196534876Y-70790295D02*
X196534876Y-70885533D01*
X196534876Y-70885533D02*
X196487257Y-70980771D01*
X196487257Y-70980771D02*
X196439638Y-71028390D01*
X196439638Y-71028390D02*
X196344400Y-71076009D01*
X196344400Y-71076009D02*
X196011067Y-71076009D01*
X197011067Y-71504580D02*
X197058686Y-71552200D01*
X197058686Y-71552200D02*
X197011067Y-71599819D01*
X197011067Y-71599819D02*
X196963448Y-71552200D01*
X196963448Y-71552200D02*
X197011067Y-71504580D01*
X197011067Y-71504580D02*
X197011067Y-71599819D01*
X197915828Y-71552200D02*
X197820590Y-71599819D01*
X197820590Y-71599819D02*
X197630114Y-71599819D01*
X197630114Y-71599819D02*
X197534876Y-71552200D01*
X197534876Y-71552200D02*
X197487257Y-71504580D01*
X197487257Y-71504580D02*
X197439638Y-71409342D01*
X197439638Y-71409342D02*
X197439638Y-71123628D01*
X197439638Y-71123628D02*
X197487257Y-71028390D01*
X197487257Y-71028390D02*
X197534876Y-70980771D01*
X197534876Y-70980771D02*
X197630114Y-70933152D01*
X197630114Y-70933152D02*
X197820590Y-70933152D01*
X197820590Y-70933152D02*
X197915828Y-70980771D01*
X198772971Y-70933152D02*
X198772971Y-71599819D01*
X198344400Y-70933152D02*
X198344400Y-71456961D01*
X198344400Y-71456961D02*
X198392019Y-71552200D01*
X198392019Y-71552200D02*
X198487257Y-71599819D01*
X198487257Y-71599819D02*
X198630114Y-71599819D01*
X198630114Y-71599819D02*
X198725352Y-71552200D01*
X198725352Y-71552200D02*
X198772971Y-71504580D01*
X122569160Y-89852200D02*
X122712017Y-89899819D01*
X122712017Y-89899819D02*
X122950112Y-89899819D01*
X122950112Y-89899819D02*
X123045350Y-89852200D01*
X123045350Y-89852200D02*
X123092969Y-89804580D01*
X123092969Y-89804580D02*
X123140588Y-89709342D01*
X123140588Y-89709342D02*
X123140588Y-89614104D01*
X123140588Y-89614104D02*
X123092969Y-89518866D01*
X123092969Y-89518866D02*
X123045350Y-89471247D01*
X123045350Y-89471247D02*
X122950112Y-89423628D01*
X122950112Y-89423628D02*
X122759636Y-89376009D01*
X122759636Y-89376009D02*
X122664398Y-89328390D01*
X122664398Y-89328390D02*
X122616779Y-89280771D01*
X122616779Y-89280771D02*
X122569160Y-89185533D01*
X122569160Y-89185533D02*
X122569160Y-89090295D01*
X122569160Y-89090295D02*
X122616779Y-88995057D01*
X122616779Y-88995057D02*
X122664398Y-88947438D01*
X122664398Y-88947438D02*
X122759636Y-88899819D01*
X122759636Y-88899819D02*
X122997731Y-88899819D01*
X122997731Y-88899819D02*
X123140588Y-88947438D01*
X123426303Y-89233152D02*
X123807255Y-89233152D01*
X123569160Y-88899819D02*
X123569160Y-89756961D01*
X123569160Y-89756961D02*
X123616779Y-89852200D01*
X123616779Y-89852200D02*
X123712017Y-89899819D01*
X123712017Y-89899819D02*
X123807255Y-89899819D01*
X124140589Y-89899819D02*
X124140589Y-89233152D01*
X124140589Y-88899819D02*
X124092970Y-88947438D01*
X124092970Y-88947438D02*
X124140589Y-88995057D01*
X124140589Y-88995057D02*
X124188208Y-88947438D01*
X124188208Y-88947438D02*
X124140589Y-88899819D01*
X124140589Y-88899819D02*
X124140589Y-88995057D01*
X124473922Y-89233152D02*
X124854874Y-89233152D01*
X124616779Y-89899819D02*
X124616779Y-89042676D01*
X124616779Y-89042676D02*
X124664398Y-88947438D01*
X124664398Y-88947438D02*
X124759636Y-88899819D01*
X124759636Y-88899819D02*
X124854874Y-88899819D01*
X125045351Y-89233152D02*
X125426303Y-89233152D01*
X125188208Y-89899819D02*
X125188208Y-89042676D01*
X125188208Y-89042676D02*
X125235827Y-88947438D01*
X125235827Y-88947438D02*
X125331065Y-88899819D01*
X125331065Y-88899819D02*
X125426303Y-88899819D01*
X126140589Y-89852200D02*
X126045351Y-89899819D01*
X126045351Y-89899819D02*
X125854875Y-89899819D01*
X125854875Y-89899819D02*
X125759637Y-89852200D01*
X125759637Y-89852200D02*
X125712018Y-89756961D01*
X125712018Y-89756961D02*
X125712018Y-89376009D01*
X125712018Y-89376009D02*
X125759637Y-89280771D01*
X125759637Y-89280771D02*
X125854875Y-89233152D01*
X125854875Y-89233152D02*
X126045351Y-89233152D01*
X126045351Y-89233152D02*
X126140589Y-89280771D01*
X126140589Y-89280771D02*
X126188208Y-89376009D01*
X126188208Y-89376009D02*
X126188208Y-89471247D01*
X126188208Y-89471247D02*
X125712018Y-89566485D01*
X126616780Y-89233152D02*
X126616780Y-89899819D01*
X126616780Y-89328390D02*
X126664399Y-89280771D01*
X126664399Y-89280771D02*
X126759637Y-89233152D01*
X126759637Y-89233152D02*
X126902494Y-89233152D01*
X126902494Y-89233152D02*
X126997732Y-89280771D01*
X126997732Y-89280771D02*
X127045351Y-89376009D01*
X127045351Y-89376009D02*
X127045351Y-89899819D01*
X127902494Y-89852200D02*
X127807256Y-89899819D01*
X127807256Y-89899819D02*
X127616780Y-89899819D01*
X127616780Y-89899819D02*
X127521542Y-89852200D01*
X127521542Y-89852200D02*
X127473923Y-89756961D01*
X127473923Y-89756961D02*
X127473923Y-89376009D01*
X127473923Y-89376009D02*
X127521542Y-89280771D01*
X127521542Y-89280771D02*
X127616780Y-89233152D01*
X127616780Y-89233152D02*
X127807256Y-89233152D01*
X127807256Y-89233152D02*
X127902494Y-89280771D01*
X127902494Y-89280771D02*
X127950113Y-89376009D01*
X127950113Y-89376009D02*
X127950113Y-89471247D01*
X127950113Y-89471247D02*
X127473923Y-89566485D01*
X128378685Y-89899819D02*
X128378685Y-89233152D01*
X128378685Y-89423628D02*
X128426304Y-89328390D01*
X128426304Y-89328390D02*
X128473923Y-89280771D01*
X128473923Y-89280771D02*
X128569161Y-89233152D01*
X128569161Y-89233152D02*
X128664399Y-89233152D01*
X129902495Y-89899819D02*
X129807257Y-89852200D01*
X129807257Y-89852200D02*
X129759638Y-89804580D01*
X129759638Y-89804580D02*
X129712019Y-89709342D01*
X129712019Y-89709342D02*
X129712019Y-89423628D01*
X129712019Y-89423628D02*
X129759638Y-89328390D01*
X129759638Y-89328390D02*
X129807257Y-89280771D01*
X129807257Y-89280771D02*
X129902495Y-89233152D01*
X129902495Y-89233152D02*
X130045352Y-89233152D01*
X130045352Y-89233152D02*
X130140590Y-89280771D01*
X130140590Y-89280771D02*
X130188209Y-89328390D01*
X130188209Y-89328390D02*
X130235828Y-89423628D01*
X130235828Y-89423628D02*
X130235828Y-89709342D01*
X130235828Y-89709342D02*
X130188209Y-89804580D01*
X130188209Y-89804580D02*
X130140590Y-89852200D01*
X130140590Y-89852200D02*
X130045352Y-89899819D01*
X130045352Y-89899819D02*
X129902495Y-89899819D01*
X130664400Y-89233152D02*
X130664400Y-89899819D01*
X130664400Y-89328390D02*
X130712019Y-89280771D01*
X130712019Y-89280771D02*
X130807257Y-89233152D01*
X130807257Y-89233152D02*
X130950114Y-89233152D01*
X130950114Y-89233152D02*
X131045352Y-89280771D01*
X131045352Y-89280771D02*
X131092971Y-89376009D01*
X131092971Y-89376009D02*
X131092971Y-89899819D01*
X132664400Y-89376009D02*
X132331067Y-89376009D01*
X132331067Y-89899819D02*
X132331067Y-88899819D01*
X132331067Y-88899819D02*
X132807257Y-88899819D01*
X133188210Y-89804580D02*
X133235829Y-89852200D01*
X133235829Y-89852200D02*
X133188210Y-89899819D01*
X133188210Y-89899819D02*
X133140591Y-89852200D01*
X133140591Y-89852200D02*
X133188210Y-89804580D01*
X133188210Y-89804580D02*
X133188210Y-89899819D01*
X134092971Y-89852200D02*
X133997733Y-89899819D01*
X133997733Y-89899819D02*
X133807257Y-89899819D01*
X133807257Y-89899819D02*
X133712019Y-89852200D01*
X133712019Y-89852200D02*
X133664400Y-89804580D01*
X133664400Y-89804580D02*
X133616781Y-89709342D01*
X133616781Y-89709342D02*
X133616781Y-89423628D01*
X133616781Y-89423628D02*
X133664400Y-89328390D01*
X133664400Y-89328390D02*
X133712019Y-89280771D01*
X133712019Y-89280771D02*
X133807257Y-89233152D01*
X133807257Y-89233152D02*
X133997733Y-89233152D01*
X133997733Y-89233152D02*
X134092971Y-89280771D01*
X134950114Y-89233152D02*
X134950114Y-89899819D01*
X134521543Y-89233152D02*
X134521543Y-89756961D01*
X134521543Y-89756961D02*
X134569162Y-89852200D01*
X134569162Y-89852200D02*
X134664400Y-89899819D01*
X134664400Y-89899819D02*
X134807257Y-89899819D01*
X134807257Y-89899819D02*
X134902495Y-89852200D01*
X134902495Y-89852200D02*
X134950114Y-89804580D01*
X88699160Y-65212200D02*
X88842017Y-65259819D01*
X88842017Y-65259819D02*
X89080112Y-65259819D01*
X89080112Y-65259819D02*
X89175350Y-65212200D01*
X89175350Y-65212200D02*
X89222969Y-65164580D01*
X89222969Y-65164580D02*
X89270588Y-65069342D01*
X89270588Y-65069342D02*
X89270588Y-64974104D01*
X89270588Y-64974104D02*
X89222969Y-64878866D01*
X89222969Y-64878866D02*
X89175350Y-64831247D01*
X89175350Y-64831247D02*
X89080112Y-64783628D01*
X89080112Y-64783628D02*
X88889636Y-64736009D01*
X88889636Y-64736009D02*
X88794398Y-64688390D01*
X88794398Y-64688390D02*
X88746779Y-64640771D01*
X88746779Y-64640771D02*
X88699160Y-64545533D01*
X88699160Y-64545533D02*
X88699160Y-64450295D01*
X88699160Y-64450295D02*
X88746779Y-64355057D01*
X88746779Y-64355057D02*
X88794398Y-64307438D01*
X88794398Y-64307438D02*
X88889636Y-64259819D01*
X88889636Y-64259819D02*
X89127731Y-64259819D01*
X89127731Y-64259819D02*
X89270588Y-64307438D01*
X89556303Y-64593152D02*
X89937255Y-64593152D01*
X89699160Y-64259819D02*
X89699160Y-65116961D01*
X89699160Y-65116961D02*
X89746779Y-65212200D01*
X89746779Y-65212200D02*
X89842017Y-65259819D01*
X89842017Y-65259819D02*
X89937255Y-65259819D01*
X90270589Y-65259819D02*
X90270589Y-64593152D01*
X90270589Y-64259819D02*
X90222970Y-64307438D01*
X90222970Y-64307438D02*
X90270589Y-64355057D01*
X90270589Y-64355057D02*
X90318208Y-64307438D01*
X90318208Y-64307438D02*
X90270589Y-64259819D01*
X90270589Y-64259819D02*
X90270589Y-64355057D01*
X90603922Y-64593152D02*
X90984874Y-64593152D01*
X90746779Y-65259819D02*
X90746779Y-64402676D01*
X90746779Y-64402676D02*
X90794398Y-64307438D01*
X90794398Y-64307438D02*
X90889636Y-64259819D01*
X90889636Y-64259819D02*
X90984874Y-64259819D01*
X91175351Y-64593152D02*
X91556303Y-64593152D01*
X91318208Y-65259819D02*
X91318208Y-64402676D01*
X91318208Y-64402676D02*
X91365827Y-64307438D01*
X91365827Y-64307438D02*
X91461065Y-64259819D01*
X91461065Y-64259819D02*
X91556303Y-64259819D01*
X92270589Y-65212200D02*
X92175351Y-65259819D01*
X92175351Y-65259819D02*
X91984875Y-65259819D01*
X91984875Y-65259819D02*
X91889637Y-65212200D01*
X91889637Y-65212200D02*
X91842018Y-65116961D01*
X91842018Y-65116961D02*
X91842018Y-64736009D01*
X91842018Y-64736009D02*
X91889637Y-64640771D01*
X91889637Y-64640771D02*
X91984875Y-64593152D01*
X91984875Y-64593152D02*
X92175351Y-64593152D01*
X92175351Y-64593152D02*
X92270589Y-64640771D01*
X92270589Y-64640771D02*
X92318208Y-64736009D01*
X92318208Y-64736009D02*
X92318208Y-64831247D01*
X92318208Y-64831247D02*
X91842018Y-64926485D01*
X92746780Y-64593152D02*
X92746780Y-65259819D01*
X92746780Y-64688390D02*
X92794399Y-64640771D01*
X92794399Y-64640771D02*
X92889637Y-64593152D01*
X92889637Y-64593152D02*
X93032494Y-64593152D01*
X93032494Y-64593152D02*
X93127732Y-64640771D01*
X93127732Y-64640771D02*
X93175351Y-64736009D01*
X93175351Y-64736009D02*
X93175351Y-65259819D01*
X94032494Y-65212200D02*
X93937256Y-65259819D01*
X93937256Y-65259819D02*
X93746780Y-65259819D01*
X93746780Y-65259819D02*
X93651542Y-65212200D01*
X93651542Y-65212200D02*
X93603923Y-65116961D01*
X93603923Y-65116961D02*
X93603923Y-64736009D01*
X93603923Y-64736009D02*
X93651542Y-64640771D01*
X93651542Y-64640771D02*
X93746780Y-64593152D01*
X93746780Y-64593152D02*
X93937256Y-64593152D01*
X93937256Y-64593152D02*
X94032494Y-64640771D01*
X94032494Y-64640771D02*
X94080113Y-64736009D01*
X94080113Y-64736009D02*
X94080113Y-64831247D01*
X94080113Y-64831247D02*
X93603923Y-64926485D01*
X94508685Y-65259819D02*
X94508685Y-64593152D01*
X94508685Y-64783628D02*
X94556304Y-64688390D01*
X94556304Y-64688390D02*
X94603923Y-64640771D01*
X94603923Y-64640771D02*
X94699161Y-64593152D01*
X94699161Y-64593152D02*
X94794399Y-64593152D01*
X96032495Y-65259819D02*
X95937257Y-65212200D01*
X95937257Y-65212200D02*
X95889638Y-65164580D01*
X95889638Y-65164580D02*
X95842019Y-65069342D01*
X95842019Y-65069342D02*
X95842019Y-64783628D01*
X95842019Y-64783628D02*
X95889638Y-64688390D01*
X95889638Y-64688390D02*
X95937257Y-64640771D01*
X95937257Y-64640771D02*
X96032495Y-64593152D01*
X96032495Y-64593152D02*
X96175352Y-64593152D01*
X96175352Y-64593152D02*
X96270590Y-64640771D01*
X96270590Y-64640771D02*
X96318209Y-64688390D01*
X96318209Y-64688390D02*
X96365828Y-64783628D01*
X96365828Y-64783628D02*
X96365828Y-65069342D01*
X96365828Y-65069342D02*
X96318209Y-65164580D01*
X96318209Y-65164580D02*
X96270590Y-65212200D01*
X96270590Y-65212200D02*
X96175352Y-65259819D01*
X96175352Y-65259819D02*
X96032495Y-65259819D01*
X96794400Y-64593152D02*
X96794400Y-65259819D01*
X96794400Y-64688390D02*
X96842019Y-64640771D01*
X96842019Y-64640771D02*
X96937257Y-64593152D01*
X96937257Y-64593152D02*
X97080114Y-64593152D01*
X97080114Y-64593152D02*
X97175352Y-64640771D01*
X97175352Y-64640771D02*
X97222971Y-64736009D01*
X97222971Y-64736009D02*
X97222971Y-65259819D01*
X98794400Y-64736009D02*
X98461067Y-64736009D01*
X98461067Y-65259819D02*
X98461067Y-64259819D01*
X98461067Y-64259819D02*
X98937257Y-64259819D01*
X99318210Y-65164580D02*
X99365829Y-65212200D01*
X99365829Y-65212200D02*
X99318210Y-65259819D01*
X99318210Y-65259819D02*
X99270591Y-65212200D01*
X99270591Y-65212200D02*
X99318210Y-65164580D01*
X99318210Y-65164580D02*
X99318210Y-65259819D01*
X100222971Y-65212200D02*
X100127733Y-65259819D01*
X100127733Y-65259819D02*
X99937257Y-65259819D01*
X99937257Y-65259819D02*
X99842019Y-65212200D01*
X99842019Y-65212200D02*
X99794400Y-65164580D01*
X99794400Y-65164580D02*
X99746781Y-65069342D01*
X99746781Y-65069342D02*
X99746781Y-64783628D01*
X99746781Y-64783628D02*
X99794400Y-64688390D01*
X99794400Y-64688390D02*
X99842019Y-64640771D01*
X99842019Y-64640771D02*
X99937257Y-64593152D01*
X99937257Y-64593152D02*
X100127733Y-64593152D01*
X100127733Y-64593152D02*
X100222971Y-64640771D01*
X101080114Y-64593152D02*
X101080114Y-65259819D01*
X100651543Y-64593152D02*
X100651543Y-65116961D01*
X100651543Y-65116961D02*
X100699162Y-65212200D01*
X100699162Y-65212200D02*
X100794400Y-65259819D01*
X100794400Y-65259819D02*
X100937257Y-65259819D01*
X100937257Y-65259819D02*
X101032495Y-65212200D01*
X101032495Y-65212200D02*
X101080114Y-65164580D01*
X160459160Y-104112200D02*
X160602017Y-104159819D01*
X160602017Y-104159819D02*
X160840112Y-104159819D01*
X160840112Y-104159819D02*
X160935350Y-104112200D01*
X160935350Y-104112200D02*
X160982969Y-104064580D01*
X160982969Y-104064580D02*
X161030588Y-103969342D01*
X161030588Y-103969342D02*
X161030588Y-103874104D01*
X161030588Y-103874104D02*
X160982969Y-103778866D01*
X160982969Y-103778866D02*
X160935350Y-103731247D01*
X160935350Y-103731247D02*
X160840112Y-103683628D01*
X160840112Y-103683628D02*
X160649636Y-103636009D01*
X160649636Y-103636009D02*
X160554398Y-103588390D01*
X160554398Y-103588390D02*
X160506779Y-103540771D01*
X160506779Y-103540771D02*
X160459160Y-103445533D01*
X160459160Y-103445533D02*
X160459160Y-103350295D01*
X160459160Y-103350295D02*
X160506779Y-103255057D01*
X160506779Y-103255057D02*
X160554398Y-103207438D01*
X160554398Y-103207438D02*
X160649636Y-103159819D01*
X160649636Y-103159819D02*
X160887731Y-103159819D01*
X160887731Y-103159819D02*
X161030588Y-103207438D01*
X161316303Y-103493152D02*
X161697255Y-103493152D01*
X161459160Y-103159819D02*
X161459160Y-104016961D01*
X161459160Y-104016961D02*
X161506779Y-104112200D01*
X161506779Y-104112200D02*
X161602017Y-104159819D01*
X161602017Y-104159819D02*
X161697255Y-104159819D01*
X162030589Y-104159819D02*
X162030589Y-103493152D01*
X162030589Y-103159819D02*
X161982970Y-103207438D01*
X161982970Y-103207438D02*
X162030589Y-103255057D01*
X162030589Y-103255057D02*
X162078208Y-103207438D01*
X162078208Y-103207438D02*
X162030589Y-103159819D01*
X162030589Y-103159819D02*
X162030589Y-103255057D01*
X162363922Y-103493152D02*
X162744874Y-103493152D01*
X162506779Y-104159819D02*
X162506779Y-103302676D01*
X162506779Y-103302676D02*
X162554398Y-103207438D01*
X162554398Y-103207438D02*
X162649636Y-103159819D01*
X162649636Y-103159819D02*
X162744874Y-103159819D01*
X162935351Y-103493152D02*
X163316303Y-103493152D01*
X163078208Y-104159819D02*
X163078208Y-103302676D01*
X163078208Y-103302676D02*
X163125827Y-103207438D01*
X163125827Y-103207438D02*
X163221065Y-103159819D01*
X163221065Y-103159819D02*
X163316303Y-103159819D01*
X164030589Y-104112200D02*
X163935351Y-104159819D01*
X163935351Y-104159819D02*
X163744875Y-104159819D01*
X163744875Y-104159819D02*
X163649637Y-104112200D01*
X163649637Y-104112200D02*
X163602018Y-104016961D01*
X163602018Y-104016961D02*
X163602018Y-103636009D01*
X163602018Y-103636009D02*
X163649637Y-103540771D01*
X163649637Y-103540771D02*
X163744875Y-103493152D01*
X163744875Y-103493152D02*
X163935351Y-103493152D01*
X163935351Y-103493152D02*
X164030589Y-103540771D01*
X164030589Y-103540771D02*
X164078208Y-103636009D01*
X164078208Y-103636009D02*
X164078208Y-103731247D01*
X164078208Y-103731247D02*
X163602018Y-103826485D01*
X164506780Y-103493152D02*
X164506780Y-104159819D01*
X164506780Y-103588390D02*
X164554399Y-103540771D01*
X164554399Y-103540771D02*
X164649637Y-103493152D01*
X164649637Y-103493152D02*
X164792494Y-103493152D01*
X164792494Y-103493152D02*
X164887732Y-103540771D01*
X164887732Y-103540771D02*
X164935351Y-103636009D01*
X164935351Y-103636009D02*
X164935351Y-104159819D01*
X165792494Y-104112200D02*
X165697256Y-104159819D01*
X165697256Y-104159819D02*
X165506780Y-104159819D01*
X165506780Y-104159819D02*
X165411542Y-104112200D01*
X165411542Y-104112200D02*
X165363923Y-104016961D01*
X165363923Y-104016961D02*
X165363923Y-103636009D01*
X165363923Y-103636009D02*
X165411542Y-103540771D01*
X165411542Y-103540771D02*
X165506780Y-103493152D01*
X165506780Y-103493152D02*
X165697256Y-103493152D01*
X165697256Y-103493152D02*
X165792494Y-103540771D01*
X165792494Y-103540771D02*
X165840113Y-103636009D01*
X165840113Y-103636009D02*
X165840113Y-103731247D01*
X165840113Y-103731247D02*
X165363923Y-103826485D01*
X166268685Y-104159819D02*
X166268685Y-103493152D01*
X166268685Y-103683628D02*
X166316304Y-103588390D01*
X166316304Y-103588390D02*
X166363923Y-103540771D01*
X166363923Y-103540771D02*
X166459161Y-103493152D01*
X166459161Y-103493152D02*
X166554399Y-103493152D01*
X167792495Y-104159819D02*
X167697257Y-104112200D01*
X167697257Y-104112200D02*
X167649638Y-104064580D01*
X167649638Y-104064580D02*
X167602019Y-103969342D01*
X167602019Y-103969342D02*
X167602019Y-103683628D01*
X167602019Y-103683628D02*
X167649638Y-103588390D01*
X167649638Y-103588390D02*
X167697257Y-103540771D01*
X167697257Y-103540771D02*
X167792495Y-103493152D01*
X167792495Y-103493152D02*
X167935352Y-103493152D01*
X167935352Y-103493152D02*
X168030590Y-103540771D01*
X168030590Y-103540771D02*
X168078209Y-103588390D01*
X168078209Y-103588390D02*
X168125828Y-103683628D01*
X168125828Y-103683628D02*
X168125828Y-103969342D01*
X168125828Y-103969342D02*
X168078209Y-104064580D01*
X168078209Y-104064580D02*
X168030590Y-104112200D01*
X168030590Y-104112200D02*
X167935352Y-104159819D01*
X167935352Y-104159819D02*
X167792495Y-104159819D01*
X168554400Y-103493152D02*
X168554400Y-104159819D01*
X168554400Y-103588390D02*
X168602019Y-103540771D01*
X168602019Y-103540771D02*
X168697257Y-103493152D01*
X168697257Y-103493152D02*
X168840114Y-103493152D01*
X168840114Y-103493152D02*
X168935352Y-103540771D01*
X168935352Y-103540771D02*
X168982971Y-103636009D01*
X168982971Y-103636009D02*
X168982971Y-104159819D01*
X170554400Y-103636009D02*
X170221067Y-103636009D01*
X170221067Y-104159819D02*
X170221067Y-103159819D01*
X170221067Y-103159819D02*
X170697257Y-103159819D01*
X171078210Y-104064580D02*
X171125829Y-104112200D01*
X171125829Y-104112200D02*
X171078210Y-104159819D01*
X171078210Y-104159819D02*
X171030591Y-104112200D01*
X171030591Y-104112200D02*
X171078210Y-104064580D01*
X171078210Y-104064580D02*
X171078210Y-104159819D01*
X171982971Y-104112200D02*
X171887733Y-104159819D01*
X171887733Y-104159819D02*
X171697257Y-104159819D01*
X171697257Y-104159819D02*
X171602019Y-104112200D01*
X171602019Y-104112200D02*
X171554400Y-104064580D01*
X171554400Y-104064580D02*
X171506781Y-103969342D01*
X171506781Y-103969342D02*
X171506781Y-103683628D01*
X171506781Y-103683628D02*
X171554400Y-103588390D01*
X171554400Y-103588390D02*
X171602019Y-103540771D01*
X171602019Y-103540771D02*
X171697257Y-103493152D01*
X171697257Y-103493152D02*
X171887733Y-103493152D01*
X171887733Y-103493152D02*
X171982971Y-103540771D01*
X172840114Y-103493152D02*
X172840114Y-104159819D01*
X172411543Y-103493152D02*
X172411543Y-104016961D01*
X172411543Y-104016961D02*
X172459162Y-104112200D01*
X172459162Y-104112200D02*
X172554400Y-104159819D01*
X172554400Y-104159819D02*
X172697257Y-104159819D01*
X172697257Y-104159819D02*
X172792495Y-104112200D01*
X172792495Y-104112200D02*
X172840114Y-104064580D01*
X132649160Y-118672200D02*
X132792017Y-118719819D01*
X132792017Y-118719819D02*
X133030112Y-118719819D01*
X133030112Y-118719819D02*
X133125350Y-118672200D01*
X133125350Y-118672200D02*
X133172969Y-118624580D01*
X133172969Y-118624580D02*
X133220588Y-118529342D01*
X133220588Y-118529342D02*
X133220588Y-118434104D01*
X133220588Y-118434104D02*
X133172969Y-118338866D01*
X133172969Y-118338866D02*
X133125350Y-118291247D01*
X133125350Y-118291247D02*
X133030112Y-118243628D01*
X133030112Y-118243628D02*
X132839636Y-118196009D01*
X132839636Y-118196009D02*
X132744398Y-118148390D01*
X132744398Y-118148390D02*
X132696779Y-118100771D01*
X132696779Y-118100771D02*
X132649160Y-118005533D01*
X132649160Y-118005533D02*
X132649160Y-117910295D01*
X132649160Y-117910295D02*
X132696779Y-117815057D01*
X132696779Y-117815057D02*
X132744398Y-117767438D01*
X132744398Y-117767438D02*
X132839636Y-117719819D01*
X132839636Y-117719819D02*
X133077731Y-117719819D01*
X133077731Y-117719819D02*
X133220588Y-117767438D01*
X133506303Y-118053152D02*
X133887255Y-118053152D01*
X133649160Y-117719819D02*
X133649160Y-118576961D01*
X133649160Y-118576961D02*
X133696779Y-118672200D01*
X133696779Y-118672200D02*
X133792017Y-118719819D01*
X133792017Y-118719819D02*
X133887255Y-118719819D01*
X134220589Y-118719819D02*
X134220589Y-118053152D01*
X134220589Y-117719819D02*
X134172970Y-117767438D01*
X134172970Y-117767438D02*
X134220589Y-117815057D01*
X134220589Y-117815057D02*
X134268208Y-117767438D01*
X134268208Y-117767438D02*
X134220589Y-117719819D01*
X134220589Y-117719819D02*
X134220589Y-117815057D01*
X134553922Y-118053152D02*
X134934874Y-118053152D01*
X134696779Y-118719819D02*
X134696779Y-117862676D01*
X134696779Y-117862676D02*
X134744398Y-117767438D01*
X134744398Y-117767438D02*
X134839636Y-117719819D01*
X134839636Y-117719819D02*
X134934874Y-117719819D01*
X135125351Y-118053152D02*
X135506303Y-118053152D01*
X135268208Y-118719819D02*
X135268208Y-117862676D01*
X135268208Y-117862676D02*
X135315827Y-117767438D01*
X135315827Y-117767438D02*
X135411065Y-117719819D01*
X135411065Y-117719819D02*
X135506303Y-117719819D01*
X136220589Y-118672200D02*
X136125351Y-118719819D01*
X136125351Y-118719819D02*
X135934875Y-118719819D01*
X135934875Y-118719819D02*
X135839637Y-118672200D01*
X135839637Y-118672200D02*
X135792018Y-118576961D01*
X135792018Y-118576961D02*
X135792018Y-118196009D01*
X135792018Y-118196009D02*
X135839637Y-118100771D01*
X135839637Y-118100771D02*
X135934875Y-118053152D01*
X135934875Y-118053152D02*
X136125351Y-118053152D01*
X136125351Y-118053152D02*
X136220589Y-118100771D01*
X136220589Y-118100771D02*
X136268208Y-118196009D01*
X136268208Y-118196009D02*
X136268208Y-118291247D01*
X136268208Y-118291247D02*
X135792018Y-118386485D01*
X136696780Y-118053152D02*
X136696780Y-118719819D01*
X136696780Y-118148390D02*
X136744399Y-118100771D01*
X136744399Y-118100771D02*
X136839637Y-118053152D01*
X136839637Y-118053152D02*
X136982494Y-118053152D01*
X136982494Y-118053152D02*
X137077732Y-118100771D01*
X137077732Y-118100771D02*
X137125351Y-118196009D01*
X137125351Y-118196009D02*
X137125351Y-118719819D01*
X137982494Y-118672200D02*
X137887256Y-118719819D01*
X137887256Y-118719819D02*
X137696780Y-118719819D01*
X137696780Y-118719819D02*
X137601542Y-118672200D01*
X137601542Y-118672200D02*
X137553923Y-118576961D01*
X137553923Y-118576961D02*
X137553923Y-118196009D01*
X137553923Y-118196009D02*
X137601542Y-118100771D01*
X137601542Y-118100771D02*
X137696780Y-118053152D01*
X137696780Y-118053152D02*
X137887256Y-118053152D01*
X137887256Y-118053152D02*
X137982494Y-118100771D01*
X137982494Y-118100771D02*
X138030113Y-118196009D01*
X138030113Y-118196009D02*
X138030113Y-118291247D01*
X138030113Y-118291247D02*
X137553923Y-118386485D01*
X138458685Y-118719819D02*
X138458685Y-118053152D01*
X138458685Y-118243628D02*
X138506304Y-118148390D01*
X138506304Y-118148390D02*
X138553923Y-118100771D01*
X138553923Y-118100771D02*
X138649161Y-118053152D01*
X138649161Y-118053152D02*
X138744399Y-118053152D01*
X139982495Y-118719819D02*
X139887257Y-118672200D01*
X139887257Y-118672200D02*
X139839638Y-118624580D01*
X139839638Y-118624580D02*
X139792019Y-118529342D01*
X139792019Y-118529342D02*
X139792019Y-118243628D01*
X139792019Y-118243628D02*
X139839638Y-118148390D01*
X139839638Y-118148390D02*
X139887257Y-118100771D01*
X139887257Y-118100771D02*
X139982495Y-118053152D01*
X139982495Y-118053152D02*
X140125352Y-118053152D01*
X140125352Y-118053152D02*
X140220590Y-118100771D01*
X140220590Y-118100771D02*
X140268209Y-118148390D01*
X140268209Y-118148390D02*
X140315828Y-118243628D01*
X140315828Y-118243628D02*
X140315828Y-118529342D01*
X140315828Y-118529342D02*
X140268209Y-118624580D01*
X140268209Y-118624580D02*
X140220590Y-118672200D01*
X140220590Y-118672200D02*
X140125352Y-118719819D01*
X140125352Y-118719819D02*
X139982495Y-118719819D01*
X140744400Y-118053152D02*
X140744400Y-118719819D01*
X140744400Y-118148390D02*
X140792019Y-118100771D01*
X140792019Y-118100771D02*
X140887257Y-118053152D01*
X140887257Y-118053152D02*
X141030114Y-118053152D01*
X141030114Y-118053152D02*
X141125352Y-118100771D01*
X141125352Y-118100771D02*
X141172971Y-118196009D01*
X141172971Y-118196009D02*
X141172971Y-118719819D01*
X142744400Y-118196009D02*
X142887257Y-118243628D01*
X142887257Y-118243628D02*
X142934876Y-118291247D01*
X142934876Y-118291247D02*
X142982495Y-118386485D01*
X142982495Y-118386485D02*
X142982495Y-118529342D01*
X142982495Y-118529342D02*
X142934876Y-118624580D01*
X142934876Y-118624580D02*
X142887257Y-118672200D01*
X142887257Y-118672200D02*
X142792019Y-118719819D01*
X142792019Y-118719819D02*
X142411067Y-118719819D01*
X142411067Y-118719819D02*
X142411067Y-117719819D01*
X142411067Y-117719819D02*
X142744400Y-117719819D01*
X142744400Y-117719819D02*
X142839638Y-117767438D01*
X142839638Y-117767438D02*
X142887257Y-117815057D01*
X142887257Y-117815057D02*
X142934876Y-117910295D01*
X142934876Y-117910295D02*
X142934876Y-118005533D01*
X142934876Y-118005533D02*
X142887257Y-118100771D01*
X142887257Y-118100771D02*
X142839638Y-118148390D01*
X142839638Y-118148390D02*
X142744400Y-118196009D01*
X142744400Y-118196009D02*
X142411067Y-118196009D01*
X143411067Y-118624580D02*
X143458686Y-118672200D01*
X143458686Y-118672200D02*
X143411067Y-118719819D01*
X143411067Y-118719819D02*
X143363448Y-118672200D01*
X143363448Y-118672200D02*
X143411067Y-118624580D01*
X143411067Y-118624580D02*
X143411067Y-118719819D01*
X144315828Y-118672200D02*
X144220590Y-118719819D01*
X144220590Y-118719819D02*
X144030114Y-118719819D01*
X144030114Y-118719819D02*
X143934876Y-118672200D01*
X143934876Y-118672200D02*
X143887257Y-118624580D01*
X143887257Y-118624580D02*
X143839638Y-118529342D01*
X143839638Y-118529342D02*
X143839638Y-118243628D01*
X143839638Y-118243628D02*
X143887257Y-118148390D01*
X143887257Y-118148390D02*
X143934876Y-118100771D01*
X143934876Y-118100771D02*
X144030114Y-118053152D01*
X144030114Y-118053152D02*
X144220590Y-118053152D01*
X144220590Y-118053152D02*
X144315828Y-118100771D01*
X145172971Y-118053152D02*
X145172971Y-118719819D01*
X144744400Y-118053152D02*
X144744400Y-118576961D01*
X144744400Y-118576961D02*
X144792019Y-118672200D01*
X144792019Y-118672200D02*
X144887257Y-118719819D01*
X144887257Y-118719819D02*
X145030114Y-118719819D01*
X145030114Y-118719819D02*
X145125352Y-118672200D01*
X145125352Y-118672200D02*
X145172971Y-118624580D01*
X82009160Y-125282200D02*
X82152017Y-125329819D01*
X82152017Y-125329819D02*
X82390112Y-125329819D01*
X82390112Y-125329819D02*
X82485350Y-125282200D01*
X82485350Y-125282200D02*
X82532969Y-125234580D01*
X82532969Y-125234580D02*
X82580588Y-125139342D01*
X82580588Y-125139342D02*
X82580588Y-125044104D01*
X82580588Y-125044104D02*
X82532969Y-124948866D01*
X82532969Y-124948866D02*
X82485350Y-124901247D01*
X82485350Y-124901247D02*
X82390112Y-124853628D01*
X82390112Y-124853628D02*
X82199636Y-124806009D01*
X82199636Y-124806009D02*
X82104398Y-124758390D01*
X82104398Y-124758390D02*
X82056779Y-124710771D01*
X82056779Y-124710771D02*
X82009160Y-124615533D01*
X82009160Y-124615533D02*
X82009160Y-124520295D01*
X82009160Y-124520295D02*
X82056779Y-124425057D01*
X82056779Y-124425057D02*
X82104398Y-124377438D01*
X82104398Y-124377438D02*
X82199636Y-124329819D01*
X82199636Y-124329819D02*
X82437731Y-124329819D01*
X82437731Y-124329819D02*
X82580588Y-124377438D01*
X82866303Y-124663152D02*
X83247255Y-124663152D01*
X83009160Y-124329819D02*
X83009160Y-125186961D01*
X83009160Y-125186961D02*
X83056779Y-125282200D01*
X83056779Y-125282200D02*
X83152017Y-125329819D01*
X83152017Y-125329819D02*
X83247255Y-125329819D01*
X83580589Y-125329819D02*
X83580589Y-124663152D01*
X83580589Y-124329819D02*
X83532970Y-124377438D01*
X83532970Y-124377438D02*
X83580589Y-124425057D01*
X83580589Y-124425057D02*
X83628208Y-124377438D01*
X83628208Y-124377438D02*
X83580589Y-124329819D01*
X83580589Y-124329819D02*
X83580589Y-124425057D01*
X83913922Y-124663152D02*
X84294874Y-124663152D01*
X84056779Y-125329819D02*
X84056779Y-124472676D01*
X84056779Y-124472676D02*
X84104398Y-124377438D01*
X84104398Y-124377438D02*
X84199636Y-124329819D01*
X84199636Y-124329819D02*
X84294874Y-124329819D01*
X84485351Y-124663152D02*
X84866303Y-124663152D01*
X84628208Y-125329819D02*
X84628208Y-124472676D01*
X84628208Y-124472676D02*
X84675827Y-124377438D01*
X84675827Y-124377438D02*
X84771065Y-124329819D01*
X84771065Y-124329819D02*
X84866303Y-124329819D01*
X85580589Y-125282200D02*
X85485351Y-125329819D01*
X85485351Y-125329819D02*
X85294875Y-125329819D01*
X85294875Y-125329819D02*
X85199637Y-125282200D01*
X85199637Y-125282200D02*
X85152018Y-125186961D01*
X85152018Y-125186961D02*
X85152018Y-124806009D01*
X85152018Y-124806009D02*
X85199637Y-124710771D01*
X85199637Y-124710771D02*
X85294875Y-124663152D01*
X85294875Y-124663152D02*
X85485351Y-124663152D01*
X85485351Y-124663152D02*
X85580589Y-124710771D01*
X85580589Y-124710771D02*
X85628208Y-124806009D01*
X85628208Y-124806009D02*
X85628208Y-124901247D01*
X85628208Y-124901247D02*
X85152018Y-124996485D01*
X86056780Y-124663152D02*
X86056780Y-125329819D01*
X86056780Y-124758390D02*
X86104399Y-124710771D01*
X86104399Y-124710771D02*
X86199637Y-124663152D01*
X86199637Y-124663152D02*
X86342494Y-124663152D01*
X86342494Y-124663152D02*
X86437732Y-124710771D01*
X86437732Y-124710771D02*
X86485351Y-124806009D01*
X86485351Y-124806009D02*
X86485351Y-125329819D01*
X87342494Y-125282200D02*
X87247256Y-125329819D01*
X87247256Y-125329819D02*
X87056780Y-125329819D01*
X87056780Y-125329819D02*
X86961542Y-125282200D01*
X86961542Y-125282200D02*
X86913923Y-125186961D01*
X86913923Y-125186961D02*
X86913923Y-124806009D01*
X86913923Y-124806009D02*
X86961542Y-124710771D01*
X86961542Y-124710771D02*
X87056780Y-124663152D01*
X87056780Y-124663152D02*
X87247256Y-124663152D01*
X87247256Y-124663152D02*
X87342494Y-124710771D01*
X87342494Y-124710771D02*
X87390113Y-124806009D01*
X87390113Y-124806009D02*
X87390113Y-124901247D01*
X87390113Y-124901247D02*
X86913923Y-124996485D01*
X87818685Y-125329819D02*
X87818685Y-124663152D01*
X87818685Y-124853628D02*
X87866304Y-124758390D01*
X87866304Y-124758390D02*
X87913923Y-124710771D01*
X87913923Y-124710771D02*
X88009161Y-124663152D01*
X88009161Y-124663152D02*
X88104399Y-124663152D01*
X89342495Y-125329819D02*
X89247257Y-125282200D01*
X89247257Y-125282200D02*
X89199638Y-125234580D01*
X89199638Y-125234580D02*
X89152019Y-125139342D01*
X89152019Y-125139342D02*
X89152019Y-124853628D01*
X89152019Y-124853628D02*
X89199638Y-124758390D01*
X89199638Y-124758390D02*
X89247257Y-124710771D01*
X89247257Y-124710771D02*
X89342495Y-124663152D01*
X89342495Y-124663152D02*
X89485352Y-124663152D01*
X89485352Y-124663152D02*
X89580590Y-124710771D01*
X89580590Y-124710771D02*
X89628209Y-124758390D01*
X89628209Y-124758390D02*
X89675828Y-124853628D01*
X89675828Y-124853628D02*
X89675828Y-125139342D01*
X89675828Y-125139342D02*
X89628209Y-125234580D01*
X89628209Y-125234580D02*
X89580590Y-125282200D01*
X89580590Y-125282200D02*
X89485352Y-125329819D01*
X89485352Y-125329819D02*
X89342495Y-125329819D01*
X90104400Y-124663152D02*
X90104400Y-125329819D01*
X90104400Y-124758390D02*
X90152019Y-124710771D01*
X90152019Y-124710771D02*
X90247257Y-124663152D01*
X90247257Y-124663152D02*
X90390114Y-124663152D01*
X90390114Y-124663152D02*
X90485352Y-124710771D01*
X90485352Y-124710771D02*
X90532971Y-124806009D01*
X90532971Y-124806009D02*
X90532971Y-125329819D01*
X92104400Y-124806009D02*
X91771067Y-124806009D01*
X91771067Y-125329819D02*
X91771067Y-124329819D01*
X91771067Y-124329819D02*
X92247257Y-124329819D01*
X92628210Y-125234580D02*
X92675829Y-125282200D01*
X92675829Y-125282200D02*
X92628210Y-125329819D01*
X92628210Y-125329819D02*
X92580591Y-125282200D01*
X92580591Y-125282200D02*
X92628210Y-125234580D01*
X92628210Y-125234580D02*
X92628210Y-125329819D01*
X93532971Y-125282200D02*
X93437733Y-125329819D01*
X93437733Y-125329819D02*
X93247257Y-125329819D01*
X93247257Y-125329819D02*
X93152019Y-125282200D01*
X93152019Y-125282200D02*
X93104400Y-125234580D01*
X93104400Y-125234580D02*
X93056781Y-125139342D01*
X93056781Y-125139342D02*
X93056781Y-124853628D01*
X93056781Y-124853628D02*
X93104400Y-124758390D01*
X93104400Y-124758390D02*
X93152019Y-124710771D01*
X93152019Y-124710771D02*
X93247257Y-124663152D01*
X93247257Y-124663152D02*
X93437733Y-124663152D01*
X93437733Y-124663152D02*
X93532971Y-124710771D01*
X94390114Y-124663152D02*
X94390114Y-125329819D01*
X93961543Y-124663152D02*
X93961543Y-125186961D01*
X93961543Y-125186961D02*
X94009162Y-125282200D01*
X94009162Y-125282200D02*
X94104400Y-125329819D01*
X94104400Y-125329819D02*
X94247257Y-125329819D01*
X94247257Y-125329819D02*
X94342495Y-125282200D01*
X94342495Y-125282200D02*
X94390114Y-125234580D01*
X117009160Y-67224104D02*
X117485350Y-67224104D01*
X116913922Y-67509819D02*
X117247255Y-66509819D01*
X117247255Y-66509819D02*
X117580588Y-67509819D01*
X118390112Y-67509819D02*
X117913922Y-67509819D01*
X117913922Y-67509819D02*
X117913922Y-66509819D01*
X119199636Y-67509819D02*
X118723446Y-67509819D01*
X118723446Y-67509819D02*
X118723446Y-66509819D01*
X120199637Y-66843152D02*
X120723446Y-66843152D01*
X120723446Y-66843152D02*
X120199637Y-67509819D01*
X120199637Y-67509819D02*
X120723446Y-67509819D01*
X121247256Y-67509819D02*
X121152018Y-67462200D01*
X121152018Y-67462200D02*
X121104399Y-67414580D01*
X121104399Y-67414580D02*
X121056780Y-67319342D01*
X121056780Y-67319342D02*
X121056780Y-67033628D01*
X121056780Y-67033628D02*
X121104399Y-66938390D01*
X121104399Y-66938390D02*
X121152018Y-66890771D01*
X121152018Y-66890771D02*
X121247256Y-66843152D01*
X121247256Y-66843152D02*
X121390113Y-66843152D01*
X121390113Y-66843152D02*
X121485351Y-66890771D01*
X121485351Y-66890771D02*
X121532970Y-66938390D01*
X121532970Y-66938390D02*
X121580589Y-67033628D01*
X121580589Y-67033628D02*
X121580589Y-67319342D01*
X121580589Y-67319342D02*
X121532970Y-67414580D01*
X121532970Y-67414580D02*
X121485351Y-67462200D01*
X121485351Y-67462200D02*
X121390113Y-67509819D01*
X121390113Y-67509819D02*
X121247256Y-67509819D01*
X122009161Y-66843152D02*
X122009161Y-67509819D01*
X122009161Y-66938390D02*
X122056780Y-66890771D01*
X122056780Y-66890771D02*
X122152018Y-66843152D01*
X122152018Y-66843152D02*
X122294875Y-66843152D01*
X122294875Y-66843152D02*
X122390113Y-66890771D01*
X122390113Y-66890771D02*
X122437732Y-66986009D01*
X122437732Y-66986009D02*
X122437732Y-67509819D01*
X123294875Y-67462200D02*
X123199637Y-67509819D01*
X123199637Y-67509819D02*
X123009161Y-67509819D01*
X123009161Y-67509819D02*
X122913923Y-67462200D01*
X122913923Y-67462200D02*
X122866304Y-67366961D01*
X122866304Y-67366961D02*
X122866304Y-66986009D01*
X122866304Y-66986009D02*
X122913923Y-66890771D01*
X122913923Y-66890771D02*
X123009161Y-66843152D01*
X123009161Y-66843152D02*
X123199637Y-66843152D01*
X123199637Y-66843152D02*
X123294875Y-66890771D01*
X123294875Y-66890771D02*
X123342494Y-66986009D01*
X123342494Y-66986009D02*
X123342494Y-67081247D01*
X123342494Y-67081247D02*
X122866304Y-67176485D01*
X124675828Y-67509819D02*
X124580590Y-67462200D01*
X124580590Y-67462200D02*
X124532971Y-67414580D01*
X124532971Y-67414580D02*
X124485352Y-67319342D01*
X124485352Y-67319342D02*
X124485352Y-67033628D01*
X124485352Y-67033628D02*
X124532971Y-66938390D01*
X124532971Y-66938390D02*
X124580590Y-66890771D01*
X124580590Y-66890771D02*
X124675828Y-66843152D01*
X124675828Y-66843152D02*
X124818685Y-66843152D01*
X124818685Y-66843152D02*
X124913923Y-66890771D01*
X124913923Y-66890771D02*
X124961542Y-66938390D01*
X124961542Y-66938390D02*
X125009161Y-67033628D01*
X125009161Y-67033628D02*
X125009161Y-67319342D01*
X125009161Y-67319342D02*
X124961542Y-67414580D01*
X124961542Y-67414580D02*
X124913923Y-67462200D01*
X124913923Y-67462200D02*
X124818685Y-67509819D01*
X124818685Y-67509819D02*
X124675828Y-67509819D01*
X125437733Y-66843152D02*
X125437733Y-67509819D01*
X125437733Y-66938390D02*
X125485352Y-66890771D01*
X125485352Y-66890771D02*
X125580590Y-66843152D01*
X125580590Y-66843152D02*
X125723447Y-66843152D01*
X125723447Y-66843152D02*
X125818685Y-66890771D01*
X125818685Y-66890771D02*
X125866304Y-66986009D01*
X125866304Y-66986009D02*
X125866304Y-67509819D01*
X127104400Y-66509819D02*
X127104400Y-67319342D01*
X127104400Y-67319342D02*
X127152019Y-67414580D01*
X127152019Y-67414580D02*
X127199638Y-67462200D01*
X127199638Y-67462200D02*
X127294876Y-67509819D01*
X127294876Y-67509819D02*
X127485352Y-67509819D01*
X127485352Y-67509819D02*
X127580590Y-67462200D01*
X127580590Y-67462200D02*
X127628209Y-67414580D01*
X127628209Y-67414580D02*
X127675828Y-67319342D01*
X127675828Y-67319342D02*
X127675828Y-66509819D01*
X128104400Y-67462200D02*
X128247257Y-67509819D01*
X128247257Y-67509819D02*
X128485352Y-67509819D01*
X128485352Y-67509819D02*
X128580590Y-67462200D01*
X128580590Y-67462200D02*
X128628209Y-67414580D01*
X128628209Y-67414580D02*
X128675828Y-67319342D01*
X128675828Y-67319342D02*
X128675828Y-67224104D01*
X128675828Y-67224104D02*
X128628209Y-67128866D01*
X128628209Y-67128866D02*
X128580590Y-67081247D01*
X128580590Y-67081247D02*
X128485352Y-67033628D01*
X128485352Y-67033628D02*
X128294876Y-66986009D01*
X128294876Y-66986009D02*
X128199638Y-66938390D01*
X128199638Y-66938390D02*
X128152019Y-66890771D01*
X128152019Y-66890771D02*
X128104400Y-66795533D01*
X128104400Y-66795533D02*
X128104400Y-66700295D01*
X128104400Y-66700295D02*
X128152019Y-66605057D01*
X128152019Y-66605057D02*
X128199638Y-66557438D01*
X128199638Y-66557438D02*
X128294876Y-66509819D01*
X128294876Y-66509819D02*
X128532971Y-66509819D01*
X128532971Y-66509819D02*
X128675828Y-66557438D01*
X129104400Y-66986009D02*
X129437733Y-66986009D01*
X129580590Y-67509819D02*
X129104400Y-67509819D01*
X129104400Y-67509819D02*
X129104400Y-66509819D01*
X129104400Y-66509819D02*
X129580590Y-66509819D01*
X130580590Y-67509819D02*
X130247257Y-67033628D01*
X130009162Y-67509819D02*
X130009162Y-66509819D01*
X130009162Y-66509819D02*
X130390114Y-66509819D01*
X130390114Y-66509819D02*
X130485352Y-66557438D01*
X130485352Y-66557438D02*
X130532971Y-66605057D01*
X130532971Y-66605057D02*
X130580590Y-66700295D01*
X130580590Y-66700295D02*
X130580590Y-66843152D01*
X130580590Y-66843152D02*
X130532971Y-66938390D01*
X130532971Y-66938390D02*
X130485352Y-66986009D01*
X130485352Y-66986009D02*
X130390114Y-67033628D01*
X130390114Y-67033628D02*
X130009162Y-67033628D01*
X131009162Y-67414580D02*
X131056781Y-67462200D01*
X131056781Y-67462200D02*
X131009162Y-67509819D01*
X131009162Y-67509819D02*
X130961543Y-67462200D01*
X130961543Y-67462200D02*
X131009162Y-67414580D01*
X131009162Y-67414580D02*
X131009162Y-67509819D01*
X131866304Y-67462200D02*
X131771066Y-67509819D01*
X131771066Y-67509819D02*
X131580590Y-67509819D01*
X131580590Y-67509819D02*
X131485352Y-67462200D01*
X131485352Y-67462200D02*
X131437733Y-67366961D01*
X131437733Y-67366961D02*
X131437733Y-66986009D01*
X131437733Y-66986009D02*
X131485352Y-66890771D01*
X131485352Y-66890771D02*
X131580590Y-66843152D01*
X131580590Y-66843152D02*
X131771066Y-66843152D01*
X131771066Y-66843152D02*
X131866304Y-66890771D01*
X131866304Y-66890771D02*
X131913923Y-66986009D01*
X131913923Y-66986009D02*
X131913923Y-67081247D01*
X131913923Y-67081247D02*
X131437733Y-67176485D01*
X132771066Y-67462200D02*
X132675828Y-67509819D01*
X132675828Y-67509819D02*
X132485352Y-67509819D01*
X132485352Y-67509819D02*
X132390114Y-67462200D01*
X132390114Y-67462200D02*
X132342495Y-67414580D01*
X132342495Y-67414580D02*
X132294876Y-67319342D01*
X132294876Y-67319342D02*
X132294876Y-67033628D01*
X132294876Y-67033628D02*
X132342495Y-66938390D01*
X132342495Y-66938390D02*
X132390114Y-66890771D01*
X132390114Y-66890771D02*
X132485352Y-66843152D01*
X132485352Y-66843152D02*
X132675828Y-66843152D01*
X132675828Y-66843152D02*
X132771066Y-66890771D01*
X133342495Y-67509819D02*
X133247257Y-67462200D01*
X133247257Y-67462200D02*
X133199638Y-67414580D01*
X133199638Y-67414580D02*
X133152019Y-67319342D01*
X133152019Y-67319342D02*
X133152019Y-67033628D01*
X133152019Y-67033628D02*
X133199638Y-66938390D01*
X133199638Y-66938390D02*
X133247257Y-66890771D01*
X133247257Y-66890771D02*
X133342495Y-66843152D01*
X133342495Y-66843152D02*
X133485352Y-66843152D01*
X133485352Y-66843152D02*
X133580590Y-66890771D01*
X133580590Y-66890771D02*
X133628209Y-66938390D01*
X133628209Y-66938390D02*
X133675828Y-67033628D01*
X133675828Y-67033628D02*
X133675828Y-67319342D01*
X133675828Y-67319342D02*
X133628209Y-67414580D01*
X133628209Y-67414580D02*
X133580590Y-67462200D01*
X133580590Y-67462200D02*
X133485352Y-67509819D01*
X133485352Y-67509819D02*
X133342495Y-67509819D01*
X134628209Y-67509819D02*
X134056781Y-67509819D01*
X134342495Y-67509819D02*
X134342495Y-66509819D01*
X134342495Y-66509819D02*
X134247257Y-66652676D01*
X134247257Y-66652676D02*
X134152019Y-66747914D01*
X134152019Y-66747914D02*
X134056781Y-66795533D01*
X136247257Y-67509819D02*
X136247257Y-66986009D01*
X136247257Y-66986009D02*
X136199638Y-66890771D01*
X136199638Y-66890771D02*
X136104400Y-66843152D01*
X136104400Y-66843152D02*
X135913924Y-66843152D01*
X135913924Y-66843152D02*
X135818686Y-66890771D01*
X136247257Y-67462200D02*
X136152019Y-67509819D01*
X136152019Y-67509819D02*
X135913924Y-67509819D01*
X135913924Y-67509819D02*
X135818686Y-67462200D01*
X135818686Y-67462200D02*
X135771067Y-67366961D01*
X135771067Y-67366961D02*
X135771067Y-67271723D01*
X135771067Y-67271723D02*
X135818686Y-67176485D01*
X135818686Y-67176485D02*
X135913924Y-67128866D01*
X135913924Y-67128866D02*
X136152019Y-67128866D01*
X136152019Y-67128866D02*
X136247257Y-67081247D01*
X136723448Y-67509819D02*
X136723448Y-66843152D01*
X136723448Y-67033628D02*
X136771067Y-66938390D01*
X136771067Y-66938390D02*
X136818686Y-66890771D01*
X136818686Y-66890771D02*
X136913924Y-66843152D01*
X136913924Y-66843152D02*
X137009162Y-66843152D01*
X137723448Y-67462200D02*
X137628210Y-67509819D01*
X137628210Y-67509819D02*
X137437734Y-67509819D01*
X137437734Y-67509819D02*
X137342496Y-67462200D01*
X137342496Y-67462200D02*
X137294877Y-67366961D01*
X137294877Y-67366961D02*
X137294877Y-66986009D01*
X137294877Y-66986009D02*
X137342496Y-66890771D01*
X137342496Y-66890771D02*
X137437734Y-66843152D01*
X137437734Y-66843152D02*
X137628210Y-66843152D01*
X137628210Y-66843152D02*
X137723448Y-66890771D01*
X137723448Y-66890771D02*
X137771067Y-66986009D01*
X137771067Y-66986009D02*
X137771067Y-67081247D01*
X137771067Y-67081247D02*
X137294877Y-67176485D01*
X138913925Y-67462200D02*
X139009163Y-67509819D01*
X139009163Y-67509819D02*
X139199639Y-67509819D01*
X139199639Y-67509819D02*
X139294877Y-67462200D01*
X139294877Y-67462200D02*
X139342496Y-67366961D01*
X139342496Y-67366961D02*
X139342496Y-67319342D01*
X139342496Y-67319342D02*
X139294877Y-67224104D01*
X139294877Y-67224104D02*
X139199639Y-67176485D01*
X139199639Y-67176485D02*
X139056782Y-67176485D01*
X139056782Y-67176485D02*
X138961544Y-67128866D01*
X138961544Y-67128866D02*
X138913925Y-67033628D01*
X138913925Y-67033628D02*
X138913925Y-66986009D01*
X138913925Y-66986009D02*
X138961544Y-66890771D01*
X138961544Y-66890771D02*
X139056782Y-66843152D01*
X139056782Y-66843152D02*
X139199639Y-66843152D01*
X139199639Y-66843152D02*
X139294877Y-66890771D01*
X139628211Y-66843152D02*
X140009163Y-66843152D01*
X139771068Y-66509819D02*
X139771068Y-67366961D01*
X139771068Y-67366961D02*
X139818687Y-67462200D01*
X139818687Y-67462200D02*
X139913925Y-67509819D01*
X139913925Y-67509819D02*
X140009163Y-67509819D01*
X140342497Y-67509819D02*
X140342497Y-66843152D01*
X140342497Y-66509819D02*
X140294878Y-66557438D01*
X140294878Y-66557438D02*
X140342497Y-66605057D01*
X140342497Y-66605057D02*
X140390116Y-66557438D01*
X140390116Y-66557438D02*
X140342497Y-66509819D01*
X140342497Y-66509819D02*
X140342497Y-66605057D01*
X140675830Y-66843152D02*
X141056782Y-66843152D01*
X140818687Y-67509819D02*
X140818687Y-66652676D01*
X140818687Y-66652676D02*
X140866306Y-66557438D01*
X140866306Y-66557438D02*
X140961544Y-66509819D01*
X140961544Y-66509819D02*
X141056782Y-66509819D01*
X141247259Y-66843152D02*
X141628211Y-66843152D01*
X141390116Y-67509819D02*
X141390116Y-66652676D01*
X141390116Y-66652676D02*
X141437735Y-66557438D01*
X141437735Y-66557438D02*
X141532973Y-66509819D01*
X141532973Y-66509819D02*
X141628211Y-66509819D01*
X142342497Y-67462200D02*
X142247259Y-67509819D01*
X142247259Y-67509819D02*
X142056783Y-67509819D01*
X142056783Y-67509819D02*
X141961545Y-67462200D01*
X141961545Y-67462200D02*
X141913926Y-67366961D01*
X141913926Y-67366961D02*
X141913926Y-66986009D01*
X141913926Y-66986009D02*
X141961545Y-66890771D01*
X141961545Y-66890771D02*
X142056783Y-66843152D01*
X142056783Y-66843152D02*
X142247259Y-66843152D01*
X142247259Y-66843152D02*
X142342497Y-66890771D01*
X142342497Y-66890771D02*
X142390116Y-66986009D01*
X142390116Y-66986009D02*
X142390116Y-67081247D01*
X142390116Y-67081247D02*
X141913926Y-67176485D01*
X142818688Y-66843152D02*
X142818688Y-67509819D01*
X142818688Y-66938390D02*
X142866307Y-66890771D01*
X142866307Y-66890771D02*
X142961545Y-66843152D01*
X142961545Y-66843152D02*
X143104402Y-66843152D01*
X143104402Y-66843152D02*
X143199640Y-66890771D01*
X143199640Y-66890771D02*
X143247259Y-66986009D01*
X143247259Y-66986009D02*
X143247259Y-67509819D01*
X144104402Y-67462200D02*
X144009164Y-67509819D01*
X144009164Y-67509819D02*
X143818688Y-67509819D01*
X143818688Y-67509819D02*
X143723450Y-67462200D01*
X143723450Y-67462200D02*
X143675831Y-67366961D01*
X143675831Y-67366961D02*
X143675831Y-66986009D01*
X143675831Y-66986009D02*
X143723450Y-66890771D01*
X143723450Y-66890771D02*
X143818688Y-66843152D01*
X143818688Y-66843152D02*
X144009164Y-66843152D01*
X144009164Y-66843152D02*
X144104402Y-66890771D01*
X144104402Y-66890771D02*
X144152021Y-66986009D01*
X144152021Y-66986009D02*
X144152021Y-67081247D01*
X144152021Y-67081247D02*
X143675831Y-67176485D01*
X144580593Y-67509819D02*
X144580593Y-66843152D01*
X144580593Y-67033628D02*
X144628212Y-66938390D01*
X144628212Y-66938390D02*
X144675831Y-66890771D01*
X144675831Y-66890771D02*
X144771069Y-66843152D01*
X144771069Y-66843152D02*
X144866307Y-66843152D01*
X145152022Y-67462200D02*
X145247260Y-67509819D01*
X145247260Y-67509819D02*
X145437736Y-67509819D01*
X145437736Y-67509819D02*
X145532974Y-67462200D01*
X145532974Y-67462200D02*
X145580593Y-67366961D01*
X145580593Y-67366961D02*
X145580593Y-67319342D01*
X145580593Y-67319342D02*
X145532974Y-67224104D01*
X145532974Y-67224104D02*
X145437736Y-67176485D01*
X145437736Y-67176485D02*
X145294879Y-67176485D01*
X145294879Y-67176485D02*
X145199641Y-67128866D01*
X145199641Y-67128866D02*
X145152022Y-67033628D01*
X145152022Y-67033628D02*
X145152022Y-66986009D01*
X145152022Y-66986009D02*
X145199641Y-66890771D01*
X145199641Y-66890771D02*
X145294879Y-66843152D01*
X145294879Y-66843152D02*
X145437736Y-66843152D01*
X145437736Y-66843152D02*
X145532974Y-66890771D01*
X146628213Y-66843152D02*
X147009165Y-66843152D01*
X146771070Y-67509819D02*
X146771070Y-66652676D01*
X146771070Y-66652676D02*
X146818689Y-66557438D01*
X146818689Y-66557438D02*
X146913927Y-66509819D01*
X146913927Y-66509819D02*
X147009165Y-66509819D01*
X147342499Y-67509819D02*
X147342499Y-66843152D01*
X147342499Y-67033628D02*
X147390118Y-66938390D01*
X147390118Y-66938390D02*
X147437737Y-66890771D01*
X147437737Y-66890771D02*
X147532975Y-66843152D01*
X147532975Y-66843152D02*
X147628213Y-66843152D01*
X148104404Y-67509819D02*
X148009166Y-67462200D01*
X148009166Y-67462200D02*
X147961547Y-67414580D01*
X147961547Y-67414580D02*
X147913928Y-67319342D01*
X147913928Y-67319342D02*
X147913928Y-67033628D01*
X147913928Y-67033628D02*
X147961547Y-66938390D01*
X147961547Y-66938390D02*
X148009166Y-66890771D01*
X148009166Y-66890771D02*
X148104404Y-66843152D01*
X148104404Y-66843152D02*
X148247261Y-66843152D01*
X148247261Y-66843152D02*
X148342499Y-66890771D01*
X148342499Y-66890771D02*
X148390118Y-66938390D01*
X148390118Y-66938390D02*
X148437737Y-67033628D01*
X148437737Y-67033628D02*
X148437737Y-67319342D01*
X148437737Y-67319342D02*
X148390118Y-67414580D01*
X148390118Y-67414580D02*
X148342499Y-67462200D01*
X148342499Y-67462200D02*
X148247261Y-67509819D01*
X148247261Y-67509819D02*
X148104404Y-67509819D01*
X148866309Y-67509819D02*
X148866309Y-66843152D01*
X148866309Y-66938390D02*
X148913928Y-66890771D01*
X148913928Y-66890771D02*
X149009166Y-66843152D01*
X149009166Y-66843152D02*
X149152023Y-66843152D01*
X149152023Y-66843152D02*
X149247261Y-66890771D01*
X149247261Y-66890771D02*
X149294880Y-66986009D01*
X149294880Y-66986009D02*
X149294880Y-67509819D01*
X149294880Y-66986009D02*
X149342499Y-66890771D01*
X149342499Y-66890771D02*
X149437737Y-66843152D01*
X149437737Y-66843152D02*
X149580594Y-66843152D01*
X149580594Y-66843152D02*
X149675833Y-66890771D01*
X149675833Y-66890771D02*
X149723452Y-66986009D01*
X149723452Y-66986009D02*
X149723452Y-67509819D01*
X150818690Y-66843152D02*
X151199642Y-66843152D01*
X150961547Y-66509819D02*
X150961547Y-67366961D01*
X150961547Y-67366961D02*
X151009166Y-67462200D01*
X151009166Y-67462200D02*
X151104404Y-67509819D01*
X151104404Y-67509819D02*
X151199642Y-67509819D01*
X151532976Y-67509819D02*
X151532976Y-66509819D01*
X151961547Y-67509819D02*
X151961547Y-66986009D01*
X151961547Y-66986009D02*
X151913928Y-66890771D01*
X151913928Y-66890771D02*
X151818690Y-66843152D01*
X151818690Y-66843152D02*
X151675833Y-66843152D01*
X151675833Y-66843152D02*
X151580595Y-66890771D01*
X151580595Y-66890771D02*
X151532976Y-66938390D01*
X152818690Y-67462200D02*
X152723452Y-67509819D01*
X152723452Y-67509819D02*
X152532976Y-67509819D01*
X152532976Y-67509819D02*
X152437738Y-67462200D01*
X152437738Y-67462200D02*
X152390119Y-67366961D01*
X152390119Y-67366961D02*
X152390119Y-66986009D01*
X152390119Y-66986009D02*
X152437738Y-66890771D01*
X152437738Y-66890771D02*
X152532976Y-66843152D01*
X152532976Y-66843152D02*
X152723452Y-66843152D01*
X152723452Y-66843152D02*
X152818690Y-66890771D01*
X152818690Y-66890771D02*
X152866309Y-66986009D01*
X152866309Y-66986009D02*
X152866309Y-67081247D01*
X152866309Y-67081247D02*
X152390119Y-67176485D01*
X154437738Y-67462200D02*
X154342500Y-67509819D01*
X154342500Y-67509819D02*
X154152024Y-67509819D01*
X154152024Y-67509819D02*
X154056786Y-67462200D01*
X154056786Y-67462200D02*
X154009167Y-67366961D01*
X154009167Y-67366961D02*
X154009167Y-66986009D01*
X154009167Y-66986009D02*
X154056786Y-66890771D01*
X154056786Y-66890771D02*
X154152024Y-66843152D01*
X154152024Y-66843152D02*
X154342500Y-66843152D01*
X154342500Y-66843152D02*
X154437738Y-66890771D01*
X154437738Y-66890771D02*
X154485357Y-66986009D01*
X154485357Y-66986009D02*
X154485357Y-67081247D01*
X154485357Y-67081247D02*
X154009167Y-67176485D01*
X154818691Y-67509819D02*
X155342500Y-66843152D01*
X154818691Y-66843152D02*
X155342500Y-67509819D01*
X156152024Y-67509819D02*
X156152024Y-66986009D01*
X156152024Y-66986009D02*
X156104405Y-66890771D01*
X156104405Y-66890771D02*
X156009167Y-66843152D01*
X156009167Y-66843152D02*
X155818691Y-66843152D01*
X155818691Y-66843152D02*
X155723453Y-66890771D01*
X156152024Y-67462200D02*
X156056786Y-67509819D01*
X156056786Y-67509819D02*
X155818691Y-67509819D01*
X155818691Y-67509819D02*
X155723453Y-67462200D01*
X155723453Y-67462200D02*
X155675834Y-67366961D01*
X155675834Y-67366961D02*
X155675834Y-67271723D01*
X155675834Y-67271723D02*
X155723453Y-67176485D01*
X155723453Y-67176485D02*
X155818691Y-67128866D01*
X155818691Y-67128866D02*
X156056786Y-67128866D01*
X156056786Y-67128866D02*
X156152024Y-67081247D01*
X157056786Y-67462200D02*
X156961548Y-67509819D01*
X156961548Y-67509819D02*
X156771072Y-67509819D01*
X156771072Y-67509819D02*
X156675834Y-67462200D01*
X156675834Y-67462200D02*
X156628215Y-67414580D01*
X156628215Y-67414580D02*
X156580596Y-67319342D01*
X156580596Y-67319342D02*
X156580596Y-67033628D01*
X156580596Y-67033628D02*
X156628215Y-66938390D01*
X156628215Y-66938390D02*
X156675834Y-66890771D01*
X156675834Y-66890771D02*
X156771072Y-66843152D01*
X156771072Y-66843152D02*
X156961548Y-66843152D01*
X156961548Y-66843152D02*
X157056786Y-66890771D01*
X157342501Y-66843152D02*
X157723453Y-66843152D01*
X157485358Y-66509819D02*
X157485358Y-67366961D01*
X157485358Y-67366961D02*
X157532977Y-67462200D01*
X157532977Y-67462200D02*
X157628215Y-67509819D01*
X157628215Y-67509819D02*
X157723453Y-67509819D01*
X158771073Y-67462200D02*
X158866311Y-67509819D01*
X158866311Y-67509819D02*
X159056787Y-67509819D01*
X159056787Y-67509819D02*
X159152025Y-67462200D01*
X159152025Y-67462200D02*
X159199644Y-67366961D01*
X159199644Y-67366961D02*
X159199644Y-67319342D01*
X159199644Y-67319342D02*
X159152025Y-67224104D01*
X159152025Y-67224104D02*
X159056787Y-67176485D01*
X159056787Y-67176485D02*
X158913930Y-67176485D01*
X158913930Y-67176485D02*
X158818692Y-67128866D01*
X158818692Y-67128866D02*
X158771073Y-67033628D01*
X158771073Y-67033628D02*
X158771073Y-66986009D01*
X158771073Y-66986009D02*
X158818692Y-66890771D01*
X158818692Y-66890771D02*
X158913930Y-66843152D01*
X158913930Y-66843152D02*
X159056787Y-66843152D01*
X159056787Y-66843152D02*
X159152025Y-66890771D01*
X160056787Y-67509819D02*
X160056787Y-66986009D01*
X160056787Y-66986009D02*
X160009168Y-66890771D01*
X160009168Y-66890771D02*
X159913930Y-66843152D01*
X159913930Y-66843152D02*
X159723454Y-66843152D01*
X159723454Y-66843152D02*
X159628216Y-66890771D01*
X160056787Y-67462200D02*
X159961549Y-67509819D01*
X159961549Y-67509819D02*
X159723454Y-67509819D01*
X159723454Y-67509819D02*
X159628216Y-67462200D01*
X159628216Y-67462200D02*
X159580597Y-67366961D01*
X159580597Y-67366961D02*
X159580597Y-67271723D01*
X159580597Y-67271723D02*
X159628216Y-67176485D01*
X159628216Y-67176485D02*
X159723454Y-67128866D01*
X159723454Y-67128866D02*
X159961549Y-67128866D01*
X159961549Y-67128866D02*
X160056787Y-67081247D01*
X160532978Y-67509819D02*
X160532978Y-66843152D01*
X160532978Y-66938390D02*
X160580597Y-66890771D01*
X160580597Y-66890771D02*
X160675835Y-66843152D01*
X160675835Y-66843152D02*
X160818692Y-66843152D01*
X160818692Y-66843152D02*
X160913930Y-66890771D01*
X160913930Y-66890771D02*
X160961549Y-66986009D01*
X160961549Y-66986009D02*
X160961549Y-67509819D01*
X160961549Y-66986009D02*
X161009168Y-66890771D01*
X161009168Y-66890771D02*
X161104406Y-66843152D01*
X161104406Y-66843152D02*
X161247263Y-66843152D01*
X161247263Y-66843152D02*
X161342502Y-66890771D01*
X161342502Y-66890771D02*
X161390121Y-66986009D01*
X161390121Y-66986009D02*
X161390121Y-67509819D01*
X162247263Y-67462200D02*
X162152025Y-67509819D01*
X162152025Y-67509819D02*
X161961549Y-67509819D01*
X161961549Y-67509819D02*
X161866311Y-67462200D01*
X161866311Y-67462200D02*
X161818692Y-67366961D01*
X161818692Y-67366961D02*
X161818692Y-66986009D01*
X161818692Y-66986009D02*
X161866311Y-66890771D01*
X161866311Y-66890771D02*
X161961549Y-66843152D01*
X161961549Y-66843152D02*
X162152025Y-66843152D01*
X162152025Y-66843152D02*
X162247263Y-66890771D01*
X162247263Y-66890771D02*
X162294882Y-66986009D01*
X162294882Y-66986009D02*
X162294882Y-67081247D01*
X162294882Y-67081247D02*
X161818692Y-67176485D01*
X163437740Y-67462200D02*
X163532978Y-67509819D01*
X163532978Y-67509819D02*
X163723454Y-67509819D01*
X163723454Y-67509819D02*
X163818692Y-67462200D01*
X163818692Y-67462200D02*
X163866311Y-67366961D01*
X163866311Y-67366961D02*
X163866311Y-67319342D01*
X163866311Y-67319342D02*
X163818692Y-67224104D01*
X163818692Y-67224104D02*
X163723454Y-67176485D01*
X163723454Y-67176485D02*
X163580597Y-67176485D01*
X163580597Y-67176485D02*
X163485359Y-67128866D01*
X163485359Y-67128866D02*
X163437740Y-67033628D01*
X163437740Y-67033628D02*
X163437740Y-66986009D01*
X163437740Y-66986009D02*
X163485359Y-66890771D01*
X163485359Y-66890771D02*
X163580597Y-66843152D01*
X163580597Y-66843152D02*
X163723454Y-66843152D01*
X163723454Y-66843152D02*
X163818692Y-66890771D01*
X164294883Y-67509819D02*
X164294883Y-66843152D01*
X164294883Y-66509819D02*
X164247264Y-66557438D01*
X164247264Y-66557438D02*
X164294883Y-66605057D01*
X164294883Y-66605057D02*
X164342502Y-66557438D01*
X164342502Y-66557438D02*
X164294883Y-66509819D01*
X164294883Y-66509819D02*
X164294883Y-66605057D01*
X164675835Y-66843152D02*
X165199644Y-66843152D01*
X165199644Y-66843152D02*
X164675835Y-67509819D01*
X164675835Y-67509819D02*
X165199644Y-67509819D01*
X165961549Y-67462200D02*
X165866311Y-67509819D01*
X165866311Y-67509819D02*
X165675835Y-67509819D01*
X165675835Y-67509819D02*
X165580597Y-67462200D01*
X165580597Y-67462200D02*
X165532978Y-67366961D01*
X165532978Y-67366961D02*
X165532978Y-66986009D01*
X165532978Y-66986009D02*
X165580597Y-66890771D01*
X165580597Y-66890771D02*
X165675835Y-66843152D01*
X165675835Y-66843152D02*
X165866311Y-66843152D01*
X165866311Y-66843152D02*
X165961549Y-66890771D01*
X165961549Y-66890771D02*
X166009168Y-66986009D01*
X166009168Y-66986009D02*
X166009168Y-67081247D01*
X166009168Y-67081247D02*
X165532978Y-67176485D01*
X167199645Y-67414580D02*
X167247264Y-67462200D01*
X167247264Y-67462200D02*
X167199645Y-67509819D01*
X167199645Y-67509819D02*
X167152026Y-67462200D01*
X167152026Y-67462200D02*
X167199645Y-67414580D01*
X167199645Y-67414580D02*
X167199645Y-67509819D01*
X167199645Y-67128866D02*
X167152026Y-66557438D01*
X167152026Y-66557438D02*
X167199645Y-66509819D01*
X167199645Y-66509819D02*
X167247264Y-66557438D01*
X167247264Y-66557438D02*
X167199645Y-67128866D01*
X167199645Y-67128866D02*
X167199645Y-66509819D01*
G36*
X140704279Y-110809685D02*
G01*
X140750034Y-110862489D01*
X140761234Y-110912753D01*
X140799994Y-114765403D01*
X140800000Y-114766650D01*
X140800000Y-115626000D01*
X140780315Y-115693039D01*
X140727511Y-115738794D01*
X140676000Y-115750000D01*
X139460514Y-115750000D01*
X139459595Y-115749997D01*
X136893081Y-115730985D01*
X136826190Y-115710804D01*
X136780827Y-115657663D01*
X136770000Y-115606988D01*
X136770000Y-115120000D01*
X136766191Y-115110805D01*
X136764456Y-115102193D01*
X136756900Y-115094677D01*
X136434065Y-115094846D01*
X136367015Y-115075196D01*
X136321233Y-115022416D01*
X136310000Y-114970846D01*
X136310000Y-111484000D01*
X136329685Y-111416961D01*
X136382489Y-111371206D01*
X136434000Y-111360000D01*
X136670000Y-111360000D01*
X136670000Y-111359999D01*
X136700000Y-111329999D01*
X136700000Y-110914000D01*
X136719685Y-110846961D01*
X136772489Y-110801206D01*
X136824000Y-110790000D01*
X140637240Y-110790000D01*
X140704279Y-110809685D01*
G37*
G36*
X195763039Y-73649685D02*
G01*
X195808794Y-73702489D01*
X195820000Y-73754000D01*
X195820000Y-79526970D01*
X195800315Y-79594009D01*
X195747511Y-79639764D01*
X195696974Y-79650966D01*
X190884974Y-79688781D01*
X190817782Y-79669624D01*
X190771614Y-79617181D01*
X190760000Y-79564785D01*
X190760000Y-78920000D01*
X190746118Y-78906118D01*
X190174103Y-78906595D01*
X190107047Y-78886966D01*
X190061249Y-78834200D01*
X190050000Y-78782595D01*
X190050000Y-74384000D01*
X190069685Y-74316961D01*
X190122489Y-74271206D01*
X190174000Y-74260000D01*
X190730000Y-74260000D01*
X190730000Y-74259999D01*
X190760000Y-74230000D01*
X190760000Y-74208119D01*
X190752834Y-74194996D01*
X190750000Y-74168638D01*
X190750000Y-73754000D01*
X190769685Y-73686961D01*
X190822489Y-73641206D01*
X190874000Y-73630000D01*
X195696000Y-73630000D01*
X195763039Y-73649685D01*
G37*
G36*
X156967666Y-93950010D02*
G01*
X158324452Y-93967401D01*
X158391234Y-93987943D01*
X158436308Y-94041329D01*
X158446857Y-94092644D01*
X158420000Y-96749995D01*
X158390324Y-108956301D01*
X158370476Y-109023293D01*
X158317561Y-109068919D01*
X158266324Y-109080000D01*
X152040000Y-109080000D01*
X152030000Y-109090000D01*
X152030000Y-111687814D01*
X152010315Y-111754853D01*
X151957511Y-111800608D01*
X151907829Y-111811801D01*
X150674881Y-111829987D01*
X150673052Y-111830000D01*
X148764000Y-111830000D01*
X148696961Y-111810315D01*
X148651206Y-111757511D01*
X148640000Y-111706000D01*
X148640000Y-109151362D01*
X148659685Y-109084323D01*
X148660000Y-109083932D01*
X148660000Y-109080000D01*
X148650000Y-109070000D01*
X143514000Y-109070000D01*
X143446961Y-109050315D01*
X143401206Y-108997511D01*
X143390000Y-108946000D01*
X143390000Y-96784000D01*
X143409685Y-96716961D01*
X143462489Y-96671206D01*
X143514000Y-96660000D01*
X148549999Y-96660000D01*
X148550206Y-96659792D01*
X148550314Y-96659685D01*
X148560000Y-96649999D01*
X148560000Y-95614000D01*
X148579685Y-95546961D01*
X148632489Y-95501206D01*
X148684000Y-95490000D01*
X151411932Y-95490000D01*
X151478971Y-95509685D01*
X151524726Y-95562489D01*
X151535931Y-95613556D01*
X151539999Y-96749999D01*
X151560000Y-96770000D01*
X155290000Y-96770000D01*
X155290000Y-96769999D01*
X155300000Y-96759999D01*
X155300000Y-94074000D01*
X155319685Y-94006961D01*
X155372489Y-93961206D01*
X155424000Y-93950000D01*
X156966077Y-93950000D01*
X156967666Y-93950010D01*
G37*
G36*
X84423039Y-64289685D02*
G01*
X84468794Y-64342489D01*
X84480000Y-64394000D01*
X84480000Y-67110000D01*
X84479999Y-67110000D01*
X102760000Y-67139999D01*
X102770000Y-67130016D01*
X102770000Y-64684000D01*
X102789685Y-64616961D01*
X102842489Y-64571206D01*
X102894000Y-64560000D01*
X107866000Y-64560000D01*
X107933039Y-64579685D01*
X107978794Y-64632489D01*
X107990000Y-64684000D01*
X107990000Y-74219999D01*
X107999439Y-74242787D01*
X107995846Y-74244274D01*
X107997831Y-74247909D01*
X108009999Y-74260074D01*
X108945970Y-74259848D01*
X109013014Y-74279516D01*
X109058782Y-74332309D01*
X109070000Y-74383848D01*
X109070000Y-78798638D01*
X109050315Y-78865677D01*
X109033681Y-78886319D01*
X108936319Y-78983681D01*
X108874996Y-79017166D01*
X108848638Y-79020000D01*
X108020000Y-79020000D01*
X108010169Y-86796157D01*
X107990400Y-86863171D01*
X107937538Y-86908859D01*
X107886169Y-86920000D01*
X89180000Y-86920000D01*
X89170000Y-86930000D01*
X89170000Y-88895286D01*
X89150315Y-88962325D01*
X89097511Y-89008080D01*
X89045900Y-89019286D01*
X77663900Y-89010107D01*
X77596876Y-88990368D01*
X77551164Y-88937527D01*
X77540000Y-88886107D01*
X77540000Y-64394000D01*
X77559685Y-64326961D01*
X77612489Y-64281206D01*
X77664000Y-64270000D01*
X84356000Y-64270000D01*
X84423039Y-64289685D01*
G37*
G36*
X122473039Y-79559685D02*
G01*
X122518794Y-79612489D01*
X122530000Y-79664000D01*
X122530000Y-81420000D01*
X122560000Y-81450000D01*
X122573567Y-81450000D01*
X122605004Y-81432834D01*
X122631362Y-81430000D01*
X123775624Y-81430000D01*
X123776184Y-81430001D01*
X125739688Y-81438872D01*
X125806638Y-81458860D01*
X125852154Y-81511870D01*
X125863121Y-81561593D01*
X125891371Y-84301773D01*
X125872379Y-84369012D01*
X125820050Y-84415308D01*
X125767914Y-84427050D01*
X125085428Y-84429999D01*
X125084892Y-84430000D01*
X122580000Y-84430000D01*
X122580000Y-86146000D01*
X122560315Y-86213039D01*
X122507511Y-86258794D01*
X122456000Y-86270000D01*
X120860000Y-86270000D01*
X120860000Y-87336000D01*
X120840315Y-87403039D01*
X120787511Y-87448794D01*
X120736000Y-87460000D01*
X118518107Y-87460000D01*
X118451068Y-87440315D01*
X118405313Y-87387511D01*
X118394107Y-87336295D01*
X118391526Y-86251526D01*
X118380000Y-86240000D01*
X116364000Y-86240000D01*
X116296961Y-86220315D01*
X116251206Y-86167511D01*
X116240000Y-86116000D01*
X116240000Y-84340000D01*
X112924000Y-84340000D01*
X112856961Y-84320315D01*
X112811206Y-84267511D01*
X112800000Y-84216000D01*
X112800000Y-81624000D01*
X112819685Y-81556961D01*
X112872489Y-81511206D01*
X112924000Y-81500000D01*
X116280000Y-81500000D01*
X116280000Y-81499999D01*
X116276319Y-81496318D01*
X116242834Y-81434995D01*
X116240000Y-81408637D01*
X116240000Y-79664000D01*
X116259685Y-79596961D01*
X116312489Y-79551206D01*
X116364000Y-79540000D01*
X122406000Y-79540000D01*
X122473039Y-79559685D01*
G37*
G36*
X91980364Y-104869058D02*
G01*
X96325937Y-107596596D01*
X96326217Y-107596772D01*
X97439999Y-108299999D01*
X97440000Y-108300000D01*
X105202365Y-108300000D01*
X105269404Y-108319685D01*
X105304006Y-108352971D01*
X107480000Y-111466745D01*
X107480001Y-111466746D01*
X108086440Y-111468898D01*
X108153409Y-111488820D01*
X108198976Y-111541786D01*
X108210000Y-111592897D01*
X108210000Y-114976000D01*
X108190315Y-115043039D01*
X108137511Y-115088794D01*
X108086000Y-115100000D01*
X107480001Y-115100000D01*
X105834558Y-117774609D01*
X105567163Y-118219119D01*
X105566520Y-118220176D01*
X105350698Y-118570976D01*
X105298804Y-118617760D01*
X105245085Y-118630000D01*
X99697620Y-118630000D01*
X99697103Y-118629999D01*
X97305265Y-118620017D01*
X97300312Y-118619783D01*
X96342699Y-119282793D01*
X95728484Y-119712509D01*
X95728145Y-119712745D01*
X92019606Y-122288935D01*
X91953317Y-122311016D01*
X91949523Y-122311094D01*
X80905330Y-122369998D01*
X80904669Y-122370000D01*
X79083373Y-122370000D01*
X79016334Y-122350315D01*
X78985082Y-122321597D01*
X74852704Y-116948669D01*
X74852708Y-116948665D01*
X74852683Y-116948642D01*
X74135601Y-116015772D01*
X74110351Y-115950625D01*
X74109912Y-115940461D01*
X74100005Y-111203034D01*
X74119550Y-111135954D01*
X74127756Y-111124595D01*
X74812484Y-110281605D01*
X74813587Y-110280266D01*
X74916814Y-110156752D01*
X79180330Y-104925481D01*
X79237942Y-104885950D01*
X79276158Y-104879819D01*
X91914151Y-104850084D01*
X91980364Y-104869058D01*
G37*
M02*
