%TF.GenerationSoftware,KiCad,Pcbnew,9.0.0*%
%TF.CreationDate,2025-03-28T18:18:21+01:00*%
%TF.ProjectId,cansatperso,63616e73-6174-4706-9572-736f2e6b6963,rev?*%
%TF.SameCoordinates,Original*%
%TF.FileFunction,Legend,Top*%
%TF.FilePolarity,Positive*%
%FSLAX46Y46*%
G04 Gerber Fmt 4.6, Leading zero omitted, Abs format (unit mm)*
G04 Created by KiCad (PCBNEW 9.0.0) date 2025-03-28 18:18:21*
%MOMM*%
%LPD*%
G01*
G04 APERTURE LIST*
%ADD10C,0.300000*%
%ADD11C,0.100000*%
%ADD12C,0.254000*%
%ADD13C,0.150000*%
%ADD14C,0.120000*%
%ADD15C,0.200000*%
G04 APERTURE END LIST*
D10*
X174154510Y-86629400D02*
X175297368Y-86629400D01*
X174725939Y-87200828D02*
X174725939Y-86057971D01*
X174254510Y-81271066D02*
X175397368Y-81271066D01*
D11*
X193809122Y-75100276D02*
X193809122Y-75505038D01*
X193809122Y-75505038D02*
X193785312Y-75552657D01*
X193785312Y-75552657D02*
X193761503Y-75576466D01*
X193761503Y-75576466D02*
X193713884Y-75600276D01*
X193713884Y-75600276D02*
X193642455Y-75600276D01*
X193642455Y-75600276D02*
X193594836Y-75576466D01*
X193809122Y-75409800D02*
X193761503Y-75433609D01*
X193761503Y-75433609D02*
X193666265Y-75433609D01*
X193666265Y-75433609D02*
X193618646Y-75409800D01*
X193618646Y-75409800D02*
X193594836Y-75385990D01*
X193594836Y-75385990D02*
X193571027Y-75338371D01*
X193571027Y-75338371D02*
X193571027Y-75195514D01*
X193571027Y-75195514D02*
X193594836Y-75147895D01*
X193594836Y-75147895D02*
X193618646Y-75124085D01*
X193618646Y-75124085D02*
X193666265Y-75100276D01*
X193666265Y-75100276D02*
X193761503Y-75100276D01*
X193761503Y-75100276D02*
X193809122Y-75124085D01*
X194047217Y-75100276D02*
X194047217Y-75433609D01*
X194047217Y-75147895D02*
X194071027Y-75124085D01*
X194071027Y-75124085D02*
X194118646Y-75100276D01*
X194118646Y-75100276D02*
X194190074Y-75100276D01*
X194190074Y-75100276D02*
X194237693Y-75124085D01*
X194237693Y-75124085D02*
X194261503Y-75171704D01*
X194261503Y-75171704D02*
X194261503Y-75433609D01*
X194713884Y-75433609D02*
X194713884Y-74933609D01*
X194713884Y-75409800D02*
X194666265Y-75433609D01*
X194666265Y-75433609D02*
X194571027Y-75433609D01*
X194571027Y-75433609D02*
X194523408Y-75409800D01*
X194523408Y-75409800D02*
X194499598Y-75385990D01*
X194499598Y-75385990D02*
X194475789Y-75338371D01*
X194475789Y-75338371D02*
X194475789Y-75195514D01*
X194475789Y-75195514D02*
X194499598Y-75147895D01*
X194499598Y-75147895D02*
X194523408Y-75124085D01*
X194523408Y-75124085D02*
X194571027Y-75100276D01*
X194571027Y-75100276D02*
X194666265Y-75100276D01*
X194666265Y-75100276D02*
X194713884Y-75124085D01*
X193457217Y-74113609D02*
X193766741Y-74113609D01*
X193766741Y-74113609D02*
X193600074Y-74304085D01*
X193600074Y-74304085D02*
X193671503Y-74304085D01*
X193671503Y-74304085D02*
X193719122Y-74327895D01*
X193719122Y-74327895D02*
X193742931Y-74351704D01*
X193742931Y-74351704D02*
X193766741Y-74399323D01*
X193766741Y-74399323D02*
X193766741Y-74518371D01*
X193766741Y-74518371D02*
X193742931Y-74565990D01*
X193742931Y-74565990D02*
X193719122Y-74589800D01*
X193719122Y-74589800D02*
X193671503Y-74613609D01*
X193671503Y-74613609D02*
X193528646Y-74613609D01*
X193528646Y-74613609D02*
X193481027Y-74589800D01*
X193481027Y-74589800D02*
X193457217Y-74565990D01*
X193981026Y-74565990D02*
X194004836Y-74589800D01*
X194004836Y-74589800D02*
X193981026Y-74613609D01*
X193981026Y-74613609D02*
X193957217Y-74589800D01*
X193957217Y-74589800D02*
X193981026Y-74565990D01*
X193981026Y-74565990D02*
X193981026Y-74613609D01*
X194171502Y-74113609D02*
X194481026Y-74113609D01*
X194481026Y-74113609D02*
X194314359Y-74304085D01*
X194314359Y-74304085D02*
X194385788Y-74304085D01*
X194385788Y-74304085D02*
X194433407Y-74327895D01*
X194433407Y-74327895D02*
X194457216Y-74351704D01*
X194457216Y-74351704D02*
X194481026Y-74399323D01*
X194481026Y-74399323D02*
X194481026Y-74518371D01*
X194481026Y-74518371D02*
X194457216Y-74565990D01*
X194457216Y-74565990D02*
X194433407Y-74589800D01*
X194433407Y-74589800D02*
X194385788Y-74613609D01*
X194385788Y-74613609D02*
X194242931Y-74613609D01*
X194242931Y-74613609D02*
X194195312Y-74589800D01*
X194195312Y-74589800D02*
X194171502Y-74565990D01*
X194647692Y-74280276D02*
X194766740Y-74613609D01*
X194766740Y-74613609D02*
X194885787Y-74280276D01*
X194456741Y-91857419D02*
X194409122Y-91833609D01*
X194409122Y-91833609D02*
X194337693Y-91833609D01*
X194337693Y-91833609D02*
X194266265Y-91857419D01*
X194266265Y-91857419D02*
X194218646Y-91905038D01*
X194218646Y-91905038D02*
X194194836Y-91952657D01*
X194194836Y-91952657D02*
X194171027Y-92047895D01*
X194171027Y-92047895D02*
X194171027Y-92119323D01*
X194171027Y-92119323D02*
X194194836Y-92214561D01*
X194194836Y-92214561D02*
X194218646Y-92262180D01*
X194218646Y-92262180D02*
X194266265Y-92309800D01*
X194266265Y-92309800D02*
X194337693Y-92333609D01*
X194337693Y-92333609D02*
X194385312Y-92333609D01*
X194385312Y-92333609D02*
X194456741Y-92309800D01*
X194456741Y-92309800D02*
X194480550Y-92285990D01*
X194480550Y-92285990D02*
X194480550Y-92119323D01*
X194480550Y-92119323D02*
X194385312Y-92119323D01*
X177723408Y-92550276D02*
X177913884Y-92550276D01*
X177794836Y-92383609D02*
X177794836Y-92812180D01*
X177794836Y-92812180D02*
X177818646Y-92859800D01*
X177818646Y-92859800D02*
X177866265Y-92883609D01*
X177866265Y-92883609D02*
X177913884Y-92883609D01*
X178032931Y-92883609D02*
X178294836Y-92550276D01*
X178032931Y-92550276D02*
X178294836Y-92883609D01*
X178437693Y-92383609D02*
X178747217Y-92383609D01*
X178747217Y-92383609D02*
X178580550Y-92574085D01*
X178580550Y-92574085D02*
X178651979Y-92574085D01*
X178651979Y-92574085D02*
X178699598Y-92597895D01*
X178699598Y-92597895D02*
X178723407Y-92621704D01*
X178723407Y-92621704D02*
X178747217Y-92669323D01*
X178747217Y-92669323D02*
X178747217Y-92788371D01*
X178747217Y-92788371D02*
X178723407Y-92835990D01*
X178723407Y-92835990D02*
X178699598Y-92859800D01*
X178699598Y-92859800D02*
X178651979Y-92883609D01*
X178651979Y-92883609D02*
X178509122Y-92883609D01*
X178509122Y-92883609D02*
X178461503Y-92859800D01*
X178461503Y-92859800D02*
X178437693Y-92835990D01*
X194699800Y-83508972D02*
X194723609Y-83461353D01*
X194723609Y-83461353D02*
X194723609Y-83366115D01*
X194723609Y-83366115D02*
X194699800Y-83318496D01*
X194699800Y-83318496D02*
X194652180Y-83294687D01*
X194652180Y-83294687D02*
X194628371Y-83294687D01*
X194628371Y-83294687D02*
X194580752Y-83318496D01*
X194580752Y-83318496D02*
X194556942Y-83366115D01*
X194556942Y-83366115D02*
X194556942Y-83437544D01*
X194556942Y-83437544D02*
X194533133Y-83485163D01*
X194533133Y-83485163D02*
X194485514Y-83508972D01*
X194485514Y-83508972D02*
X194461704Y-83508972D01*
X194461704Y-83508972D02*
X194414085Y-83485163D01*
X194414085Y-83485163D02*
X194390276Y-83437544D01*
X194390276Y-83437544D02*
X194390276Y-83366115D01*
X194390276Y-83366115D02*
X194414085Y-83318496D01*
X194699800Y-82866115D02*
X194723609Y-82913734D01*
X194723609Y-82913734D02*
X194723609Y-83008972D01*
X194723609Y-83008972D02*
X194699800Y-83056591D01*
X194699800Y-83056591D02*
X194675990Y-83080401D01*
X194675990Y-83080401D02*
X194628371Y-83104210D01*
X194628371Y-83104210D02*
X194485514Y-83104210D01*
X194485514Y-83104210D02*
X194437895Y-83080401D01*
X194437895Y-83080401D02*
X194414085Y-83056591D01*
X194414085Y-83056591D02*
X194390276Y-83008972D01*
X194390276Y-83008972D02*
X194390276Y-82913734D01*
X194390276Y-82913734D02*
X194414085Y-82866115D01*
X194723609Y-82580401D02*
X194699800Y-82628020D01*
X194699800Y-82628020D02*
X194652180Y-82651830D01*
X194652180Y-82651830D02*
X194223609Y-82651830D01*
X174109122Y-74100276D02*
X174109122Y-74505038D01*
X174109122Y-74505038D02*
X174085312Y-74552657D01*
X174085312Y-74552657D02*
X174061503Y-74576466D01*
X174061503Y-74576466D02*
X174013884Y-74600276D01*
X174013884Y-74600276D02*
X173942455Y-74600276D01*
X173942455Y-74600276D02*
X173894836Y-74576466D01*
X174109122Y-74409800D02*
X174061503Y-74433609D01*
X174061503Y-74433609D02*
X173966265Y-74433609D01*
X173966265Y-74433609D02*
X173918646Y-74409800D01*
X173918646Y-74409800D02*
X173894836Y-74385990D01*
X173894836Y-74385990D02*
X173871027Y-74338371D01*
X173871027Y-74338371D02*
X173871027Y-74195514D01*
X173871027Y-74195514D02*
X173894836Y-74147895D01*
X173894836Y-74147895D02*
X173918646Y-74124085D01*
X173918646Y-74124085D02*
X173966265Y-74100276D01*
X173966265Y-74100276D02*
X174061503Y-74100276D01*
X174061503Y-74100276D02*
X174109122Y-74124085D01*
X174347217Y-74100276D02*
X174347217Y-74433609D01*
X174347217Y-74147895D02*
X174371027Y-74124085D01*
X174371027Y-74124085D02*
X174418646Y-74100276D01*
X174418646Y-74100276D02*
X174490074Y-74100276D01*
X174490074Y-74100276D02*
X174537693Y-74124085D01*
X174537693Y-74124085D02*
X174561503Y-74171704D01*
X174561503Y-74171704D02*
X174561503Y-74433609D01*
X175013884Y-74433609D02*
X175013884Y-73933609D01*
X175013884Y-74409800D02*
X174966265Y-74433609D01*
X174966265Y-74433609D02*
X174871027Y-74433609D01*
X174871027Y-74433609D02*
X174823408Y-74409800D01*
X174823408Y-74409800D02*
X174799598Y-74385990D01*
X174799598Y-74385990D02*
X174775789Y-74338371D01*
X174775789Y-74338371D02*
X174775789Y-74195514D01*
X174775789Y-74195514D02*
X174799598Y-74147895D01*
X174799598Y-74147895D02*
X174823408Y-74124085D01*
X174823408Y-74124085D02*
X174871027Y-74100276D01*
X174871027Y-74100276D02*
X174966265Y-74100276D01*
X174966265Y-74100276D02*
X175013884Y-74124085D01*
X194322931Y-73313609D02*
X194084836Y-73313609D01*
X194084836Y-73313609D02*
X194061027Y-73551704D01*
X194061027Y-73551704D02*
X194084836Y-73527895D01*
X194084836Y-73527895D02*
X194132455Y-73504085D01*
X194132455Y-73504085D02*
X194251503Y-73504085D01*
X194251503Y-73504085D02*
X194299122Y-73527895D01*
X194299122Y-73527895D02*
X194322931Y-73551704D01*
X194322931Y-73551704D02*
X194346741Y-73599323D01*
X194346741Y-73599323D02*
X194346741Y-73718371D01*
X194346741Y-73718371D02*
X194322931Y-73765990D01*
X194322931Y-73765990D02*
X194299122Y-73789800D01*
X194299122Y-73789800D02*
X194251503Y-73813609D01*
X194251503Y-73813609D02*
X194132455Y-73813609D01*
X194132455Y-73813609D02*
X194084836Y-73789800D01*
X194084836Y-73789800D02*
X194061027Y-73765990D01*
X194513407Y-73480276D02*
X194632455Y-73813609D01*
X194632455Y-73813609D02*
X194751502Y-73480276D01*
X175099122Y-92633609D02*
X175099122Y-92133609D01*
X175099122Y-92609800D02*
X175051503Y-92633609D01*
X175051503Y-92633609D02*
X174956265Y-92633609D01*
X174956265Y-92633609D02*
X174908646Y-92609800D01*
X174908646Y-92609800D02*
X174884836Y-92585990D01*
X174884836Y-92585990D02*
X174861027Y-92538371D01*
X174861027Y-92538371D02*
X174861027Y-92395514D01*
X174861027Y-92395514D02*
X174884836Y-92347895D01*
X174884836Y-92347895D02*
X174908646Y-92324085D01*
X174908646Y-92324085D02*
X174956265Y-92300276D01*
X174956265Y-92300276D02*
X175051503Y-92300276D01*
X175051503Y-92300276D02*
X175099122Y-92324085D01*
X175337217Y-92633609D02*
X175337217Y-92300276D01*
X175337217Y-92133609D02*
X175313408Y-92157419D01*
X175313408Y-92157419D02*
X175337217Y-92181228D01*
X175337217Y-92181228D02*
X175361027Y-92157419D01*
X175361027Y-92157419D02*
X175337217Y-92133609D01*
X175337217Y-92133609D02*
X175337217Y-92181228D01*
X175646741Y-92633609D02*
X175599122Y-92609800D01*
X175599122Y-92609800D02*
X175575312Y-92585990D01*
X175575312Y-92585990D02*
X175551503Y-92538371D01*
X175551503Y-92538371D02*
X175551503Y-92395514D01*
X175551503Y-92395514D02*
X175575312Y-92347895D01*
X175575312Y-92347895D02*
X175599122Y-92324085D01*
X175599122Y-92324085D02*
X175646741Y-92300276D01*
X175646741Y-92300276D02*
X175718169Y-92300276D01*
X175718169Y-92300276D02*
X175765788Y-92324085D01*
X175765788Y-92324085D02*
X175789598Y-92347895D01*
X175789598Y-92347895D02*
X175813407Y-92395514D01*
X175813407Y-92395514D02*
X175813407Y-92538371D01*
X175813407Y-92538371D02*
X175789598Y-92585990D01*
X175789598Y-92585990D02*
X175765788Y-92609800D01*
X175765788Y-92609800D02*
X175718169Y-92633609D01*
X175718169Y-92633609D02*
X175646741Y-92633609D01*
X194611027Y-87709800D02*
X194682455Y-87733609D01*
X194682455Y-87733609D02*
X194801503Y-87733609D01*
X194801503Y-87733609D02*
X194849122Y-87709800D01*
X194849122Y-87709800D02*
X194872931Y-87685990D01*
X194872931Y-87685990D02*
X194896741Y-87638371D01*
X194896741Y-87638371D02*
X194896741Y-87590752D01*
X194896741Y-87590752D02*
X194872931Y-87543133D01*
X194872931Y-87543133D02*
X194849122Y-87519323D01*
X194849122Y-87519323D02*
X194801503Y-87495514D01*
X194801503Y-87495514D02*
X194706265Y-87471704D01*
X194706265Y-87471704D02*
X194658646Y-87447895D01*
X194658646Y-87447895D02*
X194634836Y-87424085D01*
X194634836Y-87424085D02*
X194611027Y-87376466D01*
X194611027Y-87376466D02*
X194611027Y-87328847D01*
X194611027Y-87328847D02*
X194634836Y-87281228D01*
X194634836Y-87281228D02*
X194658646Y-87257419D01*
X194658646Y-87257419D02*
X194706265Y-87233609D01*
X194706265Y-87233609D02*
X194825312Y-87233609D01*
X194825312Y-87233609D02*
X194896741Y-87257419D01*
X174099122Y-90009800D02*
X174051503Y-90033609D01*
X174051503Y-90033609D02*
X173956265Y-90033609D01*
X173956265Y-90033609D02*
X173908646Y-90009800D01*
X173908646Y-90009800D02*
X173884836Y-89985990D01*
X173884836Y-89985990D02*
X173861027Y-89938371D01*
X173861027Y-89938371D02*
X173861027Y-89795514D01*
X173861027Y-89795514D02*
X173884836Y-89747895D01*
X173884836Y-89747895D02*
X173908646Y-89724085D01*
X173908646Y-89724085D02*
X173956265Y-89700276D01*
X173956265Y-89700276D02*
X174051503Y-89700276D01*
X174051503Y-89700276D02*
X174099122Y-89724085D01*
X174384836Y-90033609D02*
X174337217Y-90009800D01*
X174337217Y-90009800D02*
X174313407Y-89962180D01*
X174313407Y-89962180D02*
X174313407Y-89533609D01*
X174575312Y-90033609D02*
X174575312Y-89533609D01*
X174622931Y-89843133D02*
X174765788Y-90033609D01*
X174765788Y-89700276D02*
X174575312Y-89890752D01*
X175784836Y-93433609D02*
X175784836Y-93100276D01*
X175784836Y-93195514D02*
X175808646Y-93147895D01*
X175808646Y-93147895D02*
X175832455Y-93124085D01*
X175832455Y-93124085D02*
X175880074Y-93100276D01*
X175880074Y-93100276D02*
X175927693Y-93100276D01*
X176070551Y-93409800D02*
X176118170Y-93433609D01*
X176118170Y-93433609D02*
X176213408Y-93433609D01*
X176213408Y-93433609D02*
X176261027Y-93409800D01*
X176261027Y-93409800D02*
X176284836Y-93362180D01*
X176284836Y-93362180D02*
X176284836Y-93338371D01*
X176284836Y-93338371D02*
X176261027Y-93290752D01*
X176261027Y-93290752D02*
X176213408Y-93266942D01*
X176213408Y-93266942D02*
X176141979Y-93266942D01*
X176141979Y-93266942D02*
X176094360Y-93243133D01*
X176094360Y-93243133D02*
X176070551Y-93195514D01*
X176070551Y-93195514D02*
X176070551Y-93171704D01*
X176070551Y-93171704D02*
X176094360Y-93124085D01*
X176094360Y-93124085D02*
X176141979Y-93100276D01*
X176141979Y-93100276D02*
X176213408Y-93100276D01*
X176213408Y-93100276D02*
X176261027Y-93124085D01*
X176427694Y-93100276D02*
X176618170Y-93100276D01*
X176499122Y-92933609D02*
X176499122Y-93362180D01*
X176499122Y-93362180D02*
X176522932Y-93409800D01*
X176522932Y-93409800D02*
X176570551Y-93433609D01*
X176570551Y-93433609D02*
X176618170Y-93433609D01*
X194462931Y-92963609D02*
X194224836Y-92963609D01*
X194224836Y-92963609D02*
X194201027Y-93201704D01*
X194201027Y-93201704D02*
X194224836Y-93177895D01*
X194224836Y-93177895D02*
X194272455Y-93154085D01*
X194272455Y-93154085D02*
X194391503Y-93154085D01*
X194391503Y-93154085D02*
X194439122Y-93177895D01*
X194439122Y-93177895D02*
X194462931Y-93201704D01*
X194462931Y-93201704D02*
X194486741Y-93249323D01*
X194486741Y-93249323D02*
X194486741Y-93368371D01*
X194486741Y-93368371D02*
X194462931Y-93415990D01*
X194462931Y-93415990D02*
X194439122Y-93439800D01*
X194439122Y-93439800D02*
X194391503Y-93463609D01*
X194391503Y-93463609D02*
X194272455Y-93463609D01*
X194272455Y-93463609D02*
X194224836Y-93439800D01*
X194224836Y-93439800D02*
X194201027Y-93415990D01*
X194653407Y-93130276D02*
X194772455Y-93463609D01*
X194772455Y-93463609D02*
X194891502Y-93130276D01*
X194799800Y-84848972D02*
X194823609Y-84801353D01*
X194823609Y-84801353D02*
X194823609Y-84706115D01*
X194823609Y-84706115D02*
X194799800Y-84658496D01*
X194799800Y-84658496D02*
X194752180Y-84634687D01*
X194752180Y-84634687D02*
X194728371Y-84634687D01*
X194728371Y-84634687D02*
X194680752Y-84658496D01*
X194680752Y-84658496D02*
X194656942Y-84706115D01*
X194656942Y-84706115D02*
X194656942Y-84777544D01*
X194656942Y-84777544D02*
X194633133Y-84825163D01*
X194633133Y-84825163D02*
X194585514Y-84848972D01*
X194585514Y-84848972D02*
X194561704Y-84848972D01*
X194561704Y-84848972D02*
X194514085Y-84825163D01*
X194514085Y-84825163D02*
X194490276Y-84777544D01*
X194490276Y-84777544D02*
X194490276Y-84706115D01*
X194490276Y-84706115D02*
X194514085Y-84658496D01*
X194823609Y-84206115D02*
X194323609Y-84206115D01*
X194799800Y-84206115D02*
X194823609Y-84253734D01*
X194823609Y-84253734D02*
X194823609Y-84348972D01*
X194823609Y-84348972D02*
X194799800Y-84396591D01*
X194799800Y-84396591D02*
X194775990Y-84420401D01*
X194775990Y-84420401D02*
X194728371Y-84444210D01*
X194728371Y-84444210D02*
X194585514Y-84444210D01*
X194585514Y-84444210D02*
X194537895Y-84420401D01*
X194537895Y-84420401D02*
X194514085Y-84396591D01*
X194514085Y-84396591D02*
X194490276Y-84348972D01*
X194490276Y-84348972D02*
X194490276Y-84253734D01*
X194490276Y-84253734D02*
X194514085Y-84206115D01*
X194823609Y-83753734D02*
X194561704Y-83753734D01*
X194561704Y-83753734D02*
X194514085Y-83777544D01*
X194514085Y-83777544D02*
X194490276Y-83825163D01*
X194490276Y-83825163D02*
X194490276Y-83920401D01*
X194490276Y-83920401D02*
X194514085Y-83968020D01*
X194799800Y-83753734D02*
X194823609Y-83801353D01*
X194823609Y-83801353D02*
X194823609Y-83920401D01*
X194823609Y-83920401D02*
X194799800Y-83968020D01*
X194799800Y-83968020D02*
X194752180Y-83991829D01*
X194752180Y-83991829D02*
X194704561Y-83991829D01*
X194704561Y-83991829D02*
X194656942Y-83968020D01*
X194656942Y-83968020D02*
X194633133Y-83920401D01*
X194633133Y-83920401D02*
X194633133Y-83801353D01*
X194633133Y-83801353D02*
X194609323Y-83753734D01*
X189394836Y-92863609D02*
X189394836Y-92363609D01*
X189394836Y-92363609D02*
X189513884Y-92363609D01*
X189513884Y-92363609D02*
X189585312Y-92387419D01*
X189585312Y-92387419D02*
X189632931Y-92435038D01*
X189632931Y-92435038D02*
X189656741Y-92482657D01*
X189656741Y-92482657D02*
X189680550Y-92577895D01*
X189680550Y-92577895D02*
X189680550Y-92649323D01*
X189680550Y-92649323D02*
X189656741Y-92744561D01*
X189656741Y-92744561D02*
X189632931Y-92792180D01*
X189632931Y-92792180D02*
X189585312Y-92839800D01*
X189585312Y-92839800D02*
X189513884Y-92863609D01*
X189513884Y-92863609D02*
X189394836Y-92863609D01*
X189894836Y-92673133D02*
X190275789Y-92673133D01*
X190085312Y-92863609D02*
X190085312Y-92482657D01*
X177774836Y-93523609D02*
X177774836Y-93190276D01*
X177774836Y-93285514D02*
X177798646Y-93237895D01*
X177798646Y-93237895D02*
X177822455Y-93214085D01*
X177822455Y-93214085D02*
X177870074Y-93190276D01*
X177870074Y-93190276D02*
X177917693Y-93190276D01*
X178036741Y-93523609D02*
X178298646Y-93190276D01*
X178036741Y-93190276D02*
X178298646Y-93523609D01*
X178441503Y-93023609D02*
X178751027Y-93023609D01*
X178751027Y-93023609D02*
X178584360Y-93214085D01*
X178584360Y-93214085D02*
X178655789Y-93214085D01*
X178655789Y-93214085D02*
X178703408Y-93237895D01*
X178703408Y-93237895D02*
X178727217Y-93261704D01*
X178727217Y-93261704D02*
X178751027Y-93309323D01*
X178751027Y-93309323D02*
X178751027Y-93428371D01*
X178751027Y-93428371D02*
X178727217Y-93475990D01*
X178727217Y-93475990D02*
X178703408Y-93499800D01*
X178703408Y-93499800D02*
X178655789Y-93523609D01*
X178655789Y-93523609D02*
X178512932Y-93523609D01*
X178512932Y-93523609D02*
X178465313Y-93499800D01*
X178465313Y-93499800D02*
X178441503Y-93475990D01*
X176275312Y-94109800D02*
X176227693Y-94133609D01*
X176227693Y-94133609D02*
X176132455Y-94133609D01*
X176132455Y-94133609D02*
X176084836Y-94109800D01*
X176084836Y-94109800D02*
X176061027Y-94062180D01*
X176061027Y-94062180D02*
X176061027Y-93871704D01*
X176061027Y-93871704D02*
X176084836Y-93824085D01*
X176084836Y-93824085D02*
X176132455Y-93800276D01*
X176132455Y-93800276D02*
X176227693Y-93800276D01*
X176227693Y-93800276D02*
X176275312Y-93824085D01*
X176275312Y-93824085D02*
X176299122Y-93871704D01*
X176299122Y-93871704D02*
X176299122Y-93919323D01*
X176299122Y-93919323D02*
X176061027Y-93966942D01*
X176465788Y-94133609D02*
X176727693Y-93800276D01*
X176465788Y-93800276D02*
X176727693Y-94133609D01*
X176846741Y-93800276D02*
X177037217Y-93800276D01*
X176918169Y-93633609D02*
X176918169Y-94062180D01*
X176918169Y-94062180D02*
X176941979Y-94109800D01*
X176941979Y-94109800D02*
X176989598Y-94133609D01*
X176989598Y-94133609D02*
X177037217Y-94133609D01*
X177203883Y-94133609D02*
X177203883Y-93800276D01*
X177203883Y-93633609D02*
X177180074Y-93657419D01*
X177180074Y-93657419D02*
X177203883Y-93681228D01*
X177203883Y-93681228D02*
X177227693Y-93657419D01*
X177227693Y-93657419D02*
X177203883Y-93633609D01*
X177203883Y-93633609D02*
X177203883Y-93681228D01*
X174011027Y-89159800D02*
X174058646Y-89183609D01*
X174058646Y-89183609D02*
X174153884Y-89183609D01*
X174153884Y-89183609D02*
X174201503Y-89159800D01*
X174201503Y-89159800D02*
X174225312Y-89112180D01*
X174225312Y-89112180D02*
X174225312Y-89088371D01*
X174225312Y-89088371D02*
X174201503Y-89040752D01*
X174201503Y-89040752D02*
X174153884Y-89016942D01*
X174153884Y-89016942D02*
X174082455Y-89016942D01*
X174082455Y-89016942D02*
X174034836Y-88993133D01*
X174034836Y-88993133D02*
X174011027Y-88945514D01*
X174011027Y-88945514D02*
X174011027Y-88921704D01*
X174011027Y-88921704D02*
X174034836Y-88874085D01*
X174034836Y-88874085D02*
X174082455Y-88850276D01*
X174082455Y-88850276D02*
X174153884Y-88850276D01*
X174153884Y-88850276D02*
X174201503Y-88874085D01*
X174391979Y-88850276D02*
X174487217Y-89183609D01*
X174487217Y-89183609D02*
X174582455Y-88945514D01*
X174582455Y-88945514D02*
X174677693Y-89183609D01*
X174677693Y-89183609D02*
X174772931Y-88850276D01*
X175034837Y-89183609D02*
X174987218Y-89159800D01*
X174987218Y-89159800D02*
X174963408Y-89135990D01*
X174963408Y-89135990D02*
X174939599Y-89088371D01*
X174939599Y-89088371D02*
X174939599Y-88945514D01*
X174939599Y-88945514D02*
X174963408Y-88897895D01*
X174963408Y-88897895D02*
X174987218Y-88874085D01*
X174987218Y-88874085D02*
X175034837Y-88850276D01*
X175034837Y-88850276D02*
X175106265Y-88850276D01*
X175106265Y-88850276D02*
X175153884Y-88874085D01*
X175153884Y-88874085D02*
X175177694Y-88897895D01*
X175177694Y-88897895D02*
X175201503Y-88945514D01*
X175201503Y-88945514D02*
X175201503Y-89088371D01*
X175201503Y-89088371D02*
X175177694Y-89135990D01*
X175177694Y-89135990D02*
X175153884Y-89159800D01*
X175153884Y-89159800D02*
X175106265Y-89183609D01*
X175106265Y-89183609D02*
X175034837Y-89183609D01*
X188904836Y-92343609D02*
X188904836Y-91843609D01*
X188904836Y-91843609D02*
X189023884Y-91843609D01*
X189023884Y-91843609D02*
X189095312Y-91867419D01*
X189095312Y-91867419D02*
X189142931Y-91915038D01*
X189142931Y-91915038D02*
X189166741Y-91962657D01*
X189166741Y-91962657D02*
X189190550Y-92057895D01*
X189190550Y-92057895D02*
X189190550Y-92129323D01*
X189190550Y-92129323D02*
X189166741Y-92224561D01*
X189166741Y-92224561D02*
X189142931Y-92272180D01*
X189142931Y-92272180D02*
X189095312Y-92319800D01*
X189095312Y-92319800D02*
X189023884Y-92343609D01*
X189023884Y-92343609D02*
X188904836Y-92343609D01*
X189404836Y-92153133D02*
X189785789Y-92153133D01*
X194572931Y-89643609D02*
X194334836Y-89643609D01*
X194334836Y-89643609D02*
X194311027Y-89881704D01*
X194311027Y-89881704D02*
X194334836Y-89857895D01*
X194334836Y-89857895D02*
X194382455Y-89834085D01*
X194382455Y-89834085D02*
X194501503Y-89834085D01*
X194501503Y-89834085D02*
X194549122Y-89857895D01*
X194549122Y-89857895D02*
X194572931Y-89881704D01*
X194572931Y-89881704D02*
X194596741Y-89929323D01*
X194596741Y-89929323D02*
X194596741Y-90048371D01*
X194596741Y-90048371D02*
X194572931Y-90095990D01*
X194572931Y-90095990D02*
X194549122Y-90119800D01*
X194549122Y-90119800D02*
X194501503Y-90143609D01*
X194501503Y-90143609D02*
X194382455Y-90143609D01*
X194382455Y-90143609D02*
X194334836Y-90119800D01*
X194334836Y-90119800D02*
X194311027Y-90095990D01*
X194763407Y-89810276D02*
X194882455Y-90143609D01*
X194882455Y-90143609D02*
X195001502Y-89810276D01*
X174232931Y-73293609D02*
X173994836Y-73293609D01*
X173994836Y-73293609D02*
X173971027Y-73531704D01*
X173971027Y-73531704D02*
X173994836Y-73507895D01*
X173994836Y-73507895D02*
X174042455Y-73484085D01*
X174042455Y-73484085D02*
X174161503Y-73484085D01*
X174161503Y-73484085D02*
X174209122Y-73507895D01*
X174209122Y-73507895D02*
X174232931Y-73531704D01*
X174232931Y-73531704D02*
X174256741Y-73579323D01*
X174256741Y-73579323D02*
X174256741Y-73698371D01*
X174256741Y-73698371D02*
X174232931Y-73745990D01*
X174232931Y-73745990D02*
X174209122Y-73769800D01*
X174209122Y-73769800D02*
X174161503Y-73793609D01*
X174161503Y-73793609D02*
X174042455Y-73793609D01*
X174042455Y-73793609D02*
X173994836Y-73769800D01*
X173994836Y-73769800D02*
X173971027Y-73745990D01*
X174423407Y-73460276D02*
X174542455Y-73793609D01*
X174542455Y-73793609D02*
X174661502Y-73460276D01*
X174037217Y-75033609D02*
X174346741Y-75033609D01*
X174346741Y-75033609D02*
X174180074Y-75224085D01*
X174180074Y-75224085D02*
X174251503Y-75224085D01*
X174251503Y-75224085D02*
X174299122Y-75247895D01*
X174299122Y-75247895D02*
X174322931Y-75271704D01*
X174322931Y-75271704D02*
X174346741Y-75319323D01*
X174346741Y-75319323D02*
X174346741Y-75438371D01*
X174346741Y-75438371D02*
X174322931Y-75485990D01*
X174322931Y-75485990D02*
X174299122Y-75509800D01*
X174299122Y-75509800D02*
X174251503Y-75533609D01*
X174251503Y-75533609D02*
X174108646Y-75533609D01*
X174108646Y-75533609D02*
X174061027Y-75509800D01*
X174061027Y-75509800D02*
X174037217Y-75485990D01*
X174561026Y-75485990D02*
X174584836Y-75509800D01*
X174584836Y-75509800D02*
X174561026Y-75533609D01*
X174561026Y-75533609D02*
X174537217Y-75509800D01*
X174537217Y-75509800D02*
X174561026Y-75485990D01*
X174561026Y-75485990D02*
X174561026Y-75533609D01*
X174751502Y-75033609D02*
X175061026Y-75033609D01*
X175061026Y-75033609D02*
X174894359Y-75224085D01*
X174894359Y-75224085D02*
X174965788Y-75224085D01*
X174965788Y-75224085D02*
X175013407Y-75247895D01*
X175013407Y-75247895D02*
X175037216Y-75271704D01*
X175037216Y-75271704D02*
X175061026Y-75319323D01*
X175061026Y-75319323D02*
X175061026Y-75438371D01*
X175061026Y-75438371D02*
X175037216Y-75485990D01*
X175037216Y-75485990D02*
X175013407Y-75509800D01*
X175013407Y-75509800D02*
X174965788Y-75533609D01*
X174965788Y-75533609D02*
X174822931Y-75533609D01*
X174822931Y-75533609D02*
X174775312Y-75509800D01*
X174775312Y-75509800D02*
X174751502Y-75485990D01*
X175109800Y-80524687D02*
X175133609Y-80572306D01*
X175133609Y-80572306D02*
X175133609Y-80667544D01*
X175133609Y-80667544D02*
X175109800Y-80715163D01*
X175109800Y-80715163D02*
X175062180Y-80738972D01*
X175062180Y-80738972D02*
X174871704Y-80738972D01*
X174871704Y-80738972D02*
X174824085Y-80715163D01*
X174824085Y-80715163D02*
X174800276Y-80667544D01*
X174800276Y-80667544D02*
X174800276Y-80572306D01*
X174800276Y-80572306D02*
X174824085Y-80524687D01*
X174824085Y-80524687D02*
X174871704Y-80500877D01*
X174871704Y-80500877D02*
X174919323Y-80500877D01*
X174919323Y-80500877D02*
X174966942Y-80738972D01*
X175133609Y-80334211D02*
X174800276Y-80072306D01*
X174800276Y-80334211D02*
X175133609Y-80072306D01*
X174800276Y-79953258D02*
X174800276Y-79762782D01*
X174633609Y-79881830D02*
X175062180Y-79881830D01*
X175062180Y-79881830D02*
X175109800Y-79858020D01*
X175109800Y-79858020D02*
X175133609Y-79810401D01*
X175133609Y-79810401D02*
X175133609Y-79762782D01*
X175133609Y-79334211D02*
X175133609Y-79619925D01*
X175133609Y-79477068D02*
X174633609Y-79477068D01*
X174633609Y-79477068D02*
X174705038Y-79524687D01*
X174705038Y-79524687D02*
X174752657Y-79572306D01*
X174752657Y-79572306D02*
X174776466Y-79619925D01*
D12*
X186272667Y-78004318D02*
X186272667Y-78911461D01*
X186272667Y-78911461D02*
X186212190Y-79092889D01*
X186212190Y-79092889D02*
X186091238Y-79213842D01*
X186091238Y-79213842D02*
X185909809Y-79274318D01*
X185909809Y-79274318D02*
X185788857Y-79274318D01*
X186816952Y-78125270D02*
X186877428Y-78064794D01*
X186877428Y-78064794D02*
X186998381Y-78004318D01*
X186998381Y-78004318D02*
X187300762Y-78004318D01*
X187300762Y-78004318D02*
X187421714Y-78064794D01*
X187421714Y-78064794D02*
X187482190Y-78125270D01*
X187482190Y-78125270D02*
X187542667Y-78246222D01*
X187542667Y-78246222D02*
X187542667Y-78367175D01*
X187542667Y-78367175D02*
X187482190Y-78548603D01*
X187482190Y-78548603D02*
X186756476Y-79274318D01*
X186756476Y-79274318D02*
X187542667Y-79274318D01*
D13*
X183098095Y-81662319D02*
X183098095Y-82471842D01*
X183098095Y-82471842D02*
X183145714Y-82567080D01*
X183145714Y-82567080D02*
X183193333Y-82614700D01*
X183193333Y-82614700D02*
X183288571Y-82662319D01*
X183288571Y-82662319D02*
X183479047Y-82662319D01*
X183479047Y-82662319D02*
X183574285Y-82614700D01*
X183574285Y-82614700D02*
X183621904Y-82567080D01*
X183621904Y-82567080D02*
X183669523Y-82471842D01*
X183669523Y-82471842D02*
X183669523Y-81662319D01*
X184669523Y-82662319D02*
X184098095Y-82662319D01*
X184383809Y-82662319D02*
X184383809Y-81662319D01*
X184383809Y-81662319D02*
X184288571Y-81805176D01*
X184288571Y-81805176D02*
X184193333Y-81900414D01*
X184193333Y-81900414D02*
X184098095Y-81948033D01*
D14*
%TO.C,J5*%
X174390000Y-78060000D02*
X174390000Y-79210000D01*
X174390000Y-79210000D02*
X175440000Y-79210000D01*
X175440000Y-79210000D02*
X175440000Y-80200000D01*
X175560000Y-76090000D02*
X179440000Y-76090000D01*
X180610000Y-78060000D02*
X180610000Y-79210000D01*
X180610000Y-79210000D02*
X179560000Y-79210000D01*
%TO.C,R8*%
X184162379Y-73720000D02*
X184497621Y-73720000D01*
X184162379Y-74480000D02*
X184497621Y-74480000D01*
%TO.C,SW1*%
D11*
X176135000Y-90635000D02*
X178655000Y-90635000D01*
X178655000Y-91995000D01*
X176135000Y-91995000D01*
X176135000Y-90635000D01*
D14*
%TO.C,C7*%
X184660000Y-93105835D02*
X184660000Y-92874165D01*
X185380000Y-93105835D02*
X185380000Y-92874165D01*
D11*
%TO.C,Y1*%
X176110000Y-84090000D02*
X176110000Y-84090000D01*
X176110000Y-84190000D02*
X176110000Y-84190000D01*
X176110000Y-84090000D02*
G75*
G02*
X176110000Y-84190000I0J-50000D01*
G01*
X176110000Y-84190000D02*
G75*
G02*
X176110000Y-84090000I0J50000D01*
G01*
D14*
%TO.C,C2*%
X178104165Y-89560000D02*
X178335835Y-89560000D01*
X178104165Y-90280000D02*
X178335835Y-90280000D01*
%TO.C,C6*%
X181583335Y-81510000D02*
X181351665Y-81510000D01*
X181583335Y-82230000D02*
X181351665Y-82230000D01*
%TO.C,C12*%
X176055835Y-89560000D02*
X175824165Y-89560000D01*
X176055835Y-90280000D02*
X175824165Y-90280000D01*
%TO.C,C10*%
X182314165Y-92780000D02*
X182545835Y-92780000D01*
X182314165Y-93500000D02*
X182545835Y-93500000D01*
%TO.C,R2*%
X185807621Y-80650000D02*
X185472379Y-80650000D01*
X185807621Y-81410000D02*
X185472379Y-81410000D01*
%TO.C,C1*%
X191021165Y-87772000D02*
X191252835Y-87772000D01*
X191021165Y-88492000D02*
X191252835Y-88492000D01*
%TO.C,C16*%
X187015835Y-73650000D02*
X186784165Y-73650000D01*
X187015835Y-74370000D02*
X186784165Y-74370000D01*
%TO.C,D3*%
X188565000Y-88680000D02*
X188565000Y-91140000D01*
X188565000Y-91140000D02*
X190035000Y-91140000D01*
X190035000Y-91140000D02*
X190035000Y-88680000D01*
%TO.C,C8*%
X183680000Y-93095835D02*
X183680000Y-92864165D01*
X184400000Y-93095835D02*
X184400000Y-92864165D01*
%TO.C,R5*%
X193720000Y-79022379D02*
X193720000Y-79357621D01*
X194480000Y-79022379D02*
X194480000Y-79357621D01*
%TO.C,R9*%
X192484621Y-82142000D02*
X192149379Y-82142000D01*
X192484621Y-82902000D02*
X192149379Y-82902000D01*
%TO.C,C15*%
X193790000Y-77005835D02*
X193790000Y-76774165D01*
X194510000Y-77005835D02*
X194510000Y-76774165D01*
%TO.C,C11*%
X186474165Y-92900000D02*
X186705835Y-92900000D01*
X186474165Y-93620000D02*
X186705835Y-93620000D01*
D15*
%TO.C,J2*%
X181560000Y-74830000D02*
X181560000Y-76429000D01*
X181560000Y-74830000D02*
X192960000Y-74830000D01*
X183160000Y-80330000D02*
X191238000Y-80330000D01*
X192960000Y-74830000D02*
X192960000Y-76928000D01*
X191187000Y-74466000D02*
G75*
G02*
X191105000Y-74466000I-41000J0D01*
G01*
X191105000Y-74466000D02*
G75*
G02*
X191187000Y-74466000I41000J0D01*
G01*
D14*
%TO.C,U2*%
X190710000Y-91092500D02*
X190710000Y-90292500D01*
X190710000Y-91092500D02*
X190710000Y-91892500D01*
X193830000Y-91092500D02*
X193830000Y-90292500D01*
X193830000Y-91092500D02*
X193830000Y-91892500D01*
X190760000Y-92392500D02*
X190430000Y-92632500D01*
X190430000Y-92152500D01*
X190760000Y-92392500D01*
G36*
X190760000Y-92392500D02*
G01*
X190430000Y-92632500D01*
X190430000Y-92152500D01*
X190760000Y-92392500D01*
G37*
%TO.C,SW2*%
D11*
X187565000Y-81135000D02*
X190085000Y-81135000D01*
X190085000Y-82495000D01*
X187565000Y-82495000D01*
X187565000Y-81135000D01*
D14*
%TO.C,R6*%
X193580000Y-81282379D02*
X193580000Y-81617621D01*
X194340000Y-81282379D02*
X194340000Y-81617621D01*
%TO.C,C4*%
X188440000Y-86685835D02*
X188440000Y-86454165D01*
X189160000Y-86685835D02*
X189160000Y-86454165D01*
%TO.C,C17*%
X193455835Y-87760000D02*
X193224165Y-87760000D01*
X193455835Y-88480000D02*
X193224165Y-88480000D01*
%TO.C,C9*%
X182324165Y-91730000D02*
X182555835Y-91730000D01*
X182324165Y-92450000D02*
X182555835Y-92450000D01*
%TO.C,U1*%
X180250000Y-83902500D02*
X180250000Y-83667500D01*
X180250000Y-90647500D02*
X180250000Y-90172500D01*
X180725000Y-83427500D02*
X180550000Y-83427500D01*
X180725000Y-90647500D02*
X180250000Y-90647500D01*
X186995000Y-83427500D02*
X187470000Y-83427500D01*
X186995000Y-90647500D02*
X187470000Y-90647500D01*
X187470000Y-83427500D02*
X187470000Y-83902500D01*
X187470000Y-90647500D02*
X187470000Y-90172500D01*
X180250000Y-83427500D02*
X180010000Y-83097500D01*
X180490000Y-83097500D01*
X180250000Y-83427500D01*
G36*
X180250000Y-83427500D02*
G01*
X180010000Y-83097500D01*
X180490000Y-83097500D01*
X180250000Y-83427500D01*
G37*
%TO.C,C30*%
X176195835Y-82720000D02*
X175964165Y-82720000D01*
X176195835Y-83440000D02*
X175964165Y-83440000D01*
%TO.C,C13*%
X178465835Y-82720000D02*
X178234165Y-82720000D01*
X178465835Y-83440000D02*
X178234165Y-83440000D01*
%TO.C,R20*%
X187890000Y-92625121D02*
X187890000Y-92289879D01*
X188650000Y-92625121D02*
X188650000Y-92289879D01*
%TO.C,C5*%
X186735835Y-91890000D02*
X186504165Y-91890000D01*
X186735835Y-92610000D02*
X186504165Y-92610000D01*
%TO.C,C14*%
X192445835Y-81110000D02*
X192214165Y-81110000D01*
X192445835Y-81830000D02*
X192214165Y-81830000D01*
%TO.C,R10*%
X188517000Y-83994379D02*
X188517000Y-84329621D01*
X189277000Y-83994379D02*
X189277000Y-84329621D01*
%TO.C,C3*%
X185524165Y-81640000D02*
X185755835Y-81640000D01*
X185524165Y-82360000D02*
X185755835Y-82360000D01*
D11*
%TO.C,IC1*%
X189837000Y-84580000D02*
X189837000Y-84580000D01*
X189937000Y-84580000D02*
X189937000Y-84580000D01*
X189837000Y-84580000D02*
G75*
G02*
X189937000Y-84580000I50000J0D01*
G01*
X189937000Y-84580000D02*
G75*
G02*
X189837000Y-84580000I-50000J0D01*
G01*
D14*
%TO.C,R7*%
X189012379Y-73650000D02*
X189347621Y-73650000D01*
X189012379Y-74410000D02*
X189347621Y-74410000D01*
%TD*%
M02*
