M48
; DRILL file {KiCad 9.0.0} date 2025-03-28T18:18:05+0100
; FORMAT={-:-/ absolute / metric / decimal}
; #@! TF.CreationDate,2025-03-28T18:18:05+01:00
; #@! TF.GenerationSoftware,Kicad,Pcbnew,9.0.0
; #@! TF.FileFunction,Plated,1,6,PTH
FMAT,2
METRIC
; #@! TA.AperFunction,Plated,PTH,ViaDrill
T1C0.300
; #@! TA.AperFunction,Plated,PTH,ComponentDrill
T2C0.600
; #@! TA.AperFunction,Plated,PTH,ComponentDrill
T3C1.000
; #@! TA.AperFunction,Plated,PTH,ComponentDrill
T4C1.200
%
G90
G05
T1
X173.07Y-73.46
X173.07Y-76.13
X173.07Y-77.58
X173.07Y-90.9
X173.07Y-92.3
X173.08Y-74.72
X173.08Y-93.59
X173.09Y-89.49
X174.0Y-90.3
X174.14Y-76.74
X174.34Y-78.55
X174.34Y-80.17
X174.5Y-90.8
X174.5Y-93.53
X174.77Y-83.3
X175.17Y-73.89
X175.17Y-74.33
X175.33Y-93.79
X175.39Y-93.17
X176.0Y-79.425
X176.14Y-82.47
X176.3Y-92.5
X176.36Y-93.12
X177.0Y-78.3
X177.48Y-92.63
X177.5Y-73.3
X177.6Y-93.77
X178.0Y-79.425
X178.13Y-84.07
X178.4Y-90.82
X178.86Y-92.68
X178.93Y-93.81
X179.0Y-79.425
X179.18Y-88.47
X179.2Y-73.3
X179.34Y-84.11
X179.38Y-90.851
X179.541Y-88.089
X179.69Y-90.1
X180.0Y-93.27
X180.02Y-92.06
X180.14Y-83.22
X180.19Y-90.15
X180.225Y-90.704
X180.9Y-73.3
X181.0Y-93.77
X181.09Y-83.22
X181.1Y-79.2
X181.37Y-87.23
X181.48Y-91.21
X181.541Y-73.89
X181.56Y-74.39
X181.6Y-82.8
X181.84Y-86.72
X182.06Y-91.22
X182.16Y-85.94
X182.345Y-82.715
X182.6Y-73.3
X182.65Y-91.24
X182.7Y-93.77
X182.73Y-75.76
X182.75Y-85.18
X182.75Y-86.61
X183.05Y-75.09
X183.132Y-82.772
X183.185Y-83.27
X183.23Y-91.23
X183.31Y-82.305
X183.6Y-79.75
X183.67Y-77.69
X183.68Y-78.68
X183.84Y-85.18
X183.87Y-86.56
X184.04Y-93.547
X184.19Y-91.26
X184.3Y-73.3
X184.51Y-76.05
X184.67Y-89.53
X184.73Y-85.21
X185.02Y-92.422
X185.11Y-82.87
X185.11Y-91.73
X185.5Y-89.53
X185.62Y-91.33
X185.67Y-85.17
X185.77Y-86.24
X186.0Y-73.3
X186.065Y-78.68
X186.1Y-82.8
X186.18Y-91.66
X186.38Y-89.54
X186.81Y-92.67
X186.86Y-77.39
X186.88Y-77.93
X187.0Y-91.43
X187.02Y-75.88
X187.16Y-90.76
X187.585Y-83.22
X187.7Y-73.3
X187.8Y-75.02
X187.97Y-90.257
X187.977Y-78.257
X188.01Y-79.36
X188.06Y-80.84
X188.09Y-87.15
X188.12Y-85.49
X188.12Y-87.73
X188.15Y-86.11
X188.18Y-88.24
X188.23Y-83.22
X188.32Y-75.01
X188.8Y-87.8
X189.02Y-78.29
X189.147Y-91.28
X189.16Y-93.79
X189.22Y-75.84
X189.4Y-73.3
X189.61Y-93.2
X189.65Y-79.12
X189.655Y-93.721
X189.69Y-80.4
X189.73Y-83.06
X189.74Y-77.92
X189.75Y-81.71
X189.76Y-82.49
X189.86Y-83.705
X189.95Y-84.53
X190.05Y-89.496
X190.07Y-85.07
X190.33Y-76.01
X190.421Y-89.011
X190.53Y-83.56
X190.74Y-93.86
X190.86Y-90.54
X190.88Y-79.06
X191.1Y-73.3
X191.33Y-77.62
X191.82Y-87.5
X191.937Y-83.41
X192.06Y-93.87
X192.25Y-88.02
X192.29Y-91.27
X192.42Y-91.82
X192.57Y-76.83
X192.6Y-87.5
X192.77Y-77.88
X193.15Y-82.61
X193.22Y-89.955
X193.38Y-84.04
X193.396Y-81.484
X193.49Y-93.81
X193.8Y-86.7
X193.817Y-87.131
X193.83Y-84.27
X194.28Y-88.84
X194.28Y-89.31
X194.58Y-91.267
X194.68Y-91.94
X194.69Y-93.86
X194.76Y-76.69
X194.76Y-80.09
X194.76Y-85.19
X195.71Y-78.92
X195.71Y-80.32
X195.71Y-81.72
X195.71Y-83.12
X195.71Y-84.52
T2
X195.66Y-87.34
X195.66Y-89.74
X195.66Y-92.19
T3
X172.675Y-86.705
X172.68Y-80.4
T4
X176.7Y-71.6
X176.7Y-95.4
X191.2Y-71.6
X191.2Y-95.4
M30
