%TF.GenerationSoftware,KiCad,Pcbnew,9.0.0*%
%TF.CreationDate,2025-03-28T18:18:21+01:00*%
%TF.ProjectId,cansatperso,63616e73-6174-4706-9572-736f2e6b6963,rev?*%
%TF.SameCoordinates,Original*%
%TF.FileFunction,Copper,L6,Bot*%
%TF.FilePolarity,Positive*%
%FSLAX46Y46*%
G04 Gerber Fmt 4.6, Leading zero omitted, Abs format (unit mm)*
G04 Created by KiCad (PCBNEW 9.0.0) date 2025-03-28 18:18:21*
%MOMM*%
%LPD*%
G01*
G04 APERTURE LIST*
G04 Aperture macros list*
%AMRoundRect*
0 Rectangle with rounded corners*
0 $1 Rounding radius*
0 $2 $3 $4 $5 $6 $7 $8 $9 X,Y pos of 4 corners*
0 Add a 4 corners polygon primitive as box body*
4,1,4,$2,$3,$4,$5,$6,$7,$8,$9,$2,$3,0*
0 Add four circle primitives for the rounded corners*
1,1,$1+$1,$2,$3*
1,1,$1+$1,$4,$5*
1,1,$1+$1,$6,$7*
1,1,$1+$1,$8,$9*
0 Add four rect primitives between the rounded corners*
20,1,$1+$1,$2,$3,$4,$5,0*
20,1,$1+$1,$4,$5,$6,$7,0*
20,1,$1+$1,$6,$7,$8,$9,0*
20,1,$1+$1,$8,$9,$2,$3,0*%
%AMOutline5P*
0 Free polygon, 5 corners , with rotation*
0 The origin of the aperture is its center*
0 number of corners: always 5*
0 $1 to $10 corner X, Y*
0 $11 Rotation angle, in degrees counterclockwise*
0 create outline with 5 corners*
4,1,5,$1,$2,$3,$4,$5,$6,$7,$8,$9,$10,$1,$2,$11*%
%AMOutline6P*
0 Free polygon, 6 corners , with rotation*
0 The origin of the aperture is its center*
0 number of corners: always 6*
0 $1 to $12 corner X, Y*
0 $13 Rotation angle, in degrees counterclockwise*
0 create outline with 6 corners*
4,1,6,$1,$2,$3,$4,$5,$6,$7,$8,$9,$10,$11,$12,$1,$2,$13*%
%AMOutline7P*
0 Free polygon, 7 corners , with rotation*
0 The origin of the aperture is its center*
0 number of corners: always 7*
0 $1 to $14 corner X, Y*
0 $15 Rotation angle, in degrees counterclockwise*
0 create outline with 7 corners*
4,1,7,$1,$2,$3,$4,$5,$6,$7,$8,$9,$10,$11,$12,$13,$14,$1,$2,$15*%
%AMOutline8P*
0 Free polygon, 8 corners , with rotation*
0 The origin of the aperture is its center*
0 number of corners: always 8*
0 $1 to $16 corner X, Y*
0 $17 Rotation angle, in degrees counterclockwise*
0 create outline with 8 corners*
4,1,8,$1,$2,$3,$4,$5,$6,$7,$8,$9,$10,$11,$12,$13,$14,$15,$16,$1,$2,$17*%
%AMFreePoly0*
4,1,7,1.000000,0.600000,1.000000,-1.000000,-1.000000,-1.000000,-1.000000,0.600000,-0.600000,1.000000,0.600000,1.000000,1.000000,0.600000,1.000000,0.600000,$1*%
G04 Aperture macros list end*
%TA.AperFunction,SMDPad,CuDef*%
%ADD10R,1.000000X1.000000*%
%TD*%
%TA.AperFunction,ComponentPad*%
%ADD11C,2.200000*%
%TD*%
%TA.AperFunction,ComponentPad*%
%ADD12Outline6P,-0.600000X0.360000X-0.360000X0.600000X0.360000X0.600000X0.600000X0.360000X0.600000X-0.600000X-0.600000X-0.600000X270.000000*%
%TD*%
%TA.AperFunction,ComponentPad*%
%ADD13FreePoly0,90.000000*%
%TD*%
%TA.AperFunction,SMDPad,CuDef*%
%ADD14RoundRect,0.155000X0.155000X-0.212500X0.155000X0.212500X-0.155000X0.212500X-0.155000X-0.212500X0*%
%TD*%
%TA.AperFunction,SMDPad,CuDef*%
%ADD15RoundRect,0.155000X0.212500X0.155000X-0.212500X0.155000X-0.212500X-0.155000X0.212500X-0.155000X0*%
%TD*%
%TA.AperFunction,SMDPad,CuDef*%
%ADD16RoundRect,0.160000X-0.160000X0.197500X-0.160000X-0.197500X0.160000X-0.197500X0.160000X0.197500X0*%
%TD*%
%TA.AperFunction,SMDPad,CuDef*%
%ADD17RoundRect,0.155000X-0.155000X0.212500X-0.155000X-0.212500X0.155000X-0.212500X0.155000X0.212500X0*%
%TD*%
%TA.AperFunction,SMDPad,CuDef*%
%ADD18RoundRect,0.150000X0.625000X-0.150000X0.625000X0.150000X-0.625000X0.150000X-0.625000X-0.150000X0*%
%TD*%
%TA.AperFunction,SMDPad,CuDef*%
%ADD19RoundRect,0.250000X0.650000X-0.350000X0.650000X0.350000X-0.650000X0.350000X-0.650000X-0.350000X0*%
%TD*%
%TA.AperFunction,SMDPad,CuDef*%
%ADD20RoundRect,0.160000X-0.197500X-0.160000X0.197500X-0.160000X0.197500X0.160000X-0.197500X0.160000X0*%
%TD*%
%TA.AperFunction,SMDPad,CuDef*%
%ADD21R,2.050000X2.450000*%
%TD*%
%TA.AperFunction,SMDPad,CuDef*%
%ADD22RoundRect,0.250000X-0.412500X-1.100000X0.412500X-1.100000X0.412500X1.100000X-0.412500X1.100000X0*%
%TD*%
%TA.AperFunction,SMDPad,CuDef*%
%ADD23RoundRect,0.155000X-0.212500X-0.155000X0.212500X-0.155000X0.212500X0.155000X-0.212500X0.155000X0*%
%TD*%
%TA.AperFunction,SMDPad,CuDef*%
%ADD24RoundRect,0.160000X0.160000X-0.197500X0.160000X0.197500X-0.160000X0.197500X-0.160000X-0.197500X0*%
%TD*%
%TA.AperFunction,SMDPad,CuDef*%
%ADD25RoundRect,0.250000X0.350000X0.650000X-0.350000X0.650000X-0.350000X-0.650000X0.350000X-0.650000X0*%
%TD*%
%TA.AperFunction,SMDPad,CuDef*%
%ADD26RoundRect,0.150000X0.150000X0.625000X-0.150000X0.625000X-0.150000X-0.625000X0.150000X-0.625000X0*%
%TD*%
%TA.AperFunction,SMDPad,CuDef*%
%ADD27R,0.850000X0.300000*%
%TD*%
%TA.AperFunction,SMDPad,CuDef*%
%ADD28R,1.700000X2.500000*%
%TD*%
%TA.AperFunction,SMDPad,CuDef*%
%ADD29RoundRect,0.237500X0.237500X-0.287500X0.237500X0.287500X-0.237500X0.287500X-0.237500X-0.287500X0*%
%TD*%
%TA.AperFunction,SMDPad,CuDef*%
%ADD30RoundRect,0.250000X-1.100000X0.412500X-1.100000X-0.412500X1.100000X-0.412500X1.100000X0.412500X0*%
%TD*%
%TA.AperFunction,SMDPad,CuDef*%
%ADD31RoundRect,0.237500X-0.287500X-0.237500X0.287500X-0.237500X0.287500X0.237500X-0.287500X0.237500X0*%
%TD*%
%TA.AperFunction,SMDPad,CuDef*%
%ADD32RoundRect,0.250000X-0.900000X1.500000X-0.900000X-1.500000X0.900000X-1.500000X0.900000X1.500000X0*%
%TD*%
%TA.AperFunction,SMDPad,CuDef*%
%ADD33R,0.300000X0.800000*%
%TD*%
%TA.AperFunction,SMDPad,CuDef*%
%ADD34R,2.480000X1.750000*%
%TD*%
%TA.AperFunction,ViaPad*%
%ADD35C,0.400000*%
%TD*%
%TA.AperFunction,Conductor*%
%ADD36C,0.250000*%
%TD*%
%TA.AperFunction,Conductor*%
%ADD37C,0.150000*%
%TD*%
G04 APERTURE END LIST*
D10*
%TO.P,,1*%
%TO.N,ADC2_IN17*%
X174500000Y-93530000D03*
%TD*%
D11*
%TO.P,,1,1*%
%TO.N,GND*%
X176700000Y-71600000D03*
%TD*%
%TO.P,,1,1*%
%TO.N,GND*%
X191200000Y-95400000D03*
%TD*%
D12*
%TO.P,REF\u002A\u002A2,1*%
%TO.N,TIM3_CHI_PWM4*%
X195660000Y-87340000D03*
%TD*%
D13*
%TO.P,,1*%
%TO.N,GND*%
X172680000Y-80400000D03*
%TD*%
D12*
%TO.P,REF\u002A\u002A1,5v*%
%TO.N,+5V*%
X195660000Y-89740000D03*
%TD*%
D11*
%TO.P,,1,1*%
%TO.N,GND*%
X176700000Y-95400000D03*
%TD*%
%TO.P,,1,1*%
%TO.N,GND*%
X191200000Y-71600000D03*
%TD*%
D12*
%TO.P,REF\u002A\u002A,1*%
%TO.N,GND*%
X195660000Y-92190000D03*
%TD*%
D13*
%TO.P,REF\u002A\u002A,1*%
%TO.N,VIN*%
X172675000Y-86705000D03*
%TD*%
D14*
%TO.P,C19,1*%
%TO.N,+5V*%
X194630000Y-88437500D03*
%TO.P,C19,2*%
%TO.N,GND*%
X194630000Y-87302500D03*
%TD*%
D15*
%TO.P,C21,1*%
%TO.N,3.3VEN*%
X189145000Y-92250000D03*
%TO.P,C21,2*%
%TO.N,GND*%
X188010000Y-92250000D03*
%TD*%
D16*
%TO.P,R16,1*%
%TO.N,Net-(C26-Pad2)*%
X186500000Y-86352500D03*
%TO.P,R16,2*%
%TO.N,Net-(IC3-FB)*%
X186500000Y-87547500D03*
%TD*%
D17*
%TO.P,C27,1*%
%TO.N,Net-(IC3-COMP)*%
X187480000Y-85842500D03*
%TO.P,C27,2*%
%TO.N,Net-(IC3-FB)*%
X187480000Y-86977500D03*
%TD*%
D10*
%TO.P,,1*%
%TO.N,SWCLK{slash}I2C1_SDA*%
X173070000Y-90900000D03*
%TD*%
D18*
%TO.P,J3,1,Pin_1*%
%TO.N,3.3VEN*%
X191005000Y-83910000D03*
%TO.P,J3,2,Pin_2*%
%TO.N,USART1_RX_GPS*%
X191005000Y-82910000D03*
%TO.P,J3,3,Pin_3*%
%TO.N,USART1_TX_GPS*%
X191005000Y-81910000D03*
%TO.P,J3,4,Pin_4*%
%TO.N,GND*%
X191005000Y-80910000D03*
D19*
%TO.P,J3,MP*%
%TO.N,N/C*%
X193530000Y-85210000D03*
X193530000Y-79610000D03*
%TD*%
D20*
%TO.P,R15,1*%
%TO.N,Net-(IC3-FSW)*%
X185132500Y-88570000D03*
%TO.P,R15,2*%
%TO.N,GND*%
X186327500Y-88570000D03*
%TD*%
D21*
%TO.P,L2,1*%
%TO.N,Net-(D2-K)*%
X180060000Y-81670000D03*
%TO.P,L2,2*%
%TO.N,+5V*%
X180060000Y-75570000D03*
%TD*%
D22*
%TO.P,C29,1*%
%TO.N,+5V*%
X185117500Y-80200000D03*
%TO.P,C29,2*%
%TO.N,GND*%
X188242500Y-80200000D03*
%TD*%
D10*
%TO.P,,1*%
%TO.N,+3.3V*%
X173070000Y-76130000D03*
%TD*%
D23*
%TO.P,C28,1*%
%TO.N,+5V*%
X187722500Y-82380000D03*
%TO.P,C28,2*%
%TO.N,Net-(C28-Pad2)*%
X188857500Y-82380000D03*
%TD*%
D10*
%TO.P,,1*%
%TO.N,GPIO_EXTI1*%
X173070000Y-77580000D03*
%TD*%
D24*
%TO.P,R11,1*%
%TO.N,GND*%
X184200000Y-93207500D03*
%TO.P,R11,2*%
%TO.N,Net-(D5-K)*%
X184200000Y-92012500D03*
%TD*%
D25*
%TO.P,J4,*%
%TO.N,*%
X185440000Y-74530000D03*
D26*
%TO.P,J4,1,Pin_1*%
%TO.N,3.3VEN*%
X189740000Y-77055000D03*
%TO.P,J4,2,Pin_2*%
%TO.N,LPUART1_RX_RADIO*%
X188740000Y-77055000D03*
%TO.P,J4,3,Pin_3*%
%TO.N,LPUART1_TX_RADIO*%
X187740000Y-77055000D03*
%TO.P,J4,4,Pin_4*%
%TO.N,GND*%
X186740000Y-77055000D03*
D25*
%TO.P,J4,MP*%
%TO.N,N/C*%
X191040000Y-74530000D03*
%TD*%
D10*
%TO.P,,1*%
%TO.N,GND*%
X173080000Y-74720000D03*
%TD*%
%TO.P,,1*%
%TO.N,+5V*%
X173070000Y-73460000D03*
%TD*%
%TO.P,,1*%
%TO.N,I2C3_SDA_ACCEL*%
X195700000Y-83100000D03*
%TD*%
D23*
%TO.P,C25,1*%
%TO.N,VIN*%
X182932500Y-88530000D03*
%TO.P,C25,2*%
%TO.N,GND*%
X184067500Y-88530000D03*
%TD*%
D27*
%TO.P,IC5,1,GND*%
%TO.N,GND*%
X193400000Y-91320000D03*
%TO.P,IC5,2,EN*%
%TO.N,PWEN*%
X193400000Y-92270000D03*
%TO.P,IC5,3,VIN*%
%TO.N,+5V*%
X193400000Y-93220000D03*
%TO.P,IC5,4,VOUT*%
%TO.N,3.3VEN*%
X190500000Y-93220000D03*
%TO.P,IC5,5,VSENSE*%
X190500000Y-92270000D03*
%TO.P,IC5,6,ADJ/NC*%
%TO.N,unconnected-(IC5-ADJ{slash}NC-Pad6)*%
X190500000Y-91320000D03*
D28*
%TO.P,IC5,7,EP*%
%TO.N,GND*%
X191950000Y-92270000D03*
%TD*%
D16*
%TO.P,R22,1*%
%TO.N,GND*%
X174430000Y-81312500D03*
%TO.P,R22,2*%
%TO.N,ADC1_IN3_VBAT*%
X174430000Y-82507500D03*
%TD*%
%TO.P,R4,1*%
%TO.N,GND*%
X185960000Y-92470000D03*
%TO.P,R4,2*%
%TO.N,Net-(D4-K)*%
X185960000Y-93665000D03*
%TD*%
D29*
%TO.P,D1,1,K*%
%TO.N,Net-(D1-K)*%
X174550000Y-75605000D03*
%TO.P,D1,2,A*%
%TO.N,+5V*%
X174550000Y-73855000D03*
%TD*%
D30*
%TO.P,C24,1*%
%TO.N,VIN*%
X182080000Y-89967500D03*
%TO.P,C24,2*%
%TO.N,GND*%
X182080000Y-93092500D03*
%TD*%
D24*
%TO.P,R3,1*%
%TO.N,GND*%
X174390000Y-78767500D03*
%TO.P,R3,2*%
%TO.N,Net-(D1-K)*%
X174390000Y-77572500D03*
%TD*%
D10*
%TO.P,,1*%
%TO.N,I2C3_SCL_ACCEL*%
X195700000Y-84500000D03*
%TD*%
%TO.P,7,1*%
%TO.N,+3.3V*%
X195700000Y-80300000D03*
%TD*%
%TO.P,,1*%
%TO.N,+5V*%
X195700000Y-78890000D03*
%TD*%
%TO.P,,1*%
%TO.N,GND*%
X195700000Y-81690000D03*
%TD*%
D17*
%TO.P,C20,1*%
%TO.N,+3.3V*%
X194580000Y-90132500D03*
%TO.P,C20,2*%
%TO.N,GND*%
X194580000Y-91267500D03*
%TD*%
D16*
%TO.P,R19,1*%
%TO.N,Net-(IC3-FB)*%
X187970000Y-89062500D03*
%TO.P,R19,2*%
%TO.N,GND*%
X187970000Y-90257500D03*
%TD*%
%TO.P,R21,1*%
%TO.N,ADC1_IN3_VBAT*%
X174480000Y-83952500D03*
%TO.P,R21,2*%
%TO.N,VIN*%
X174480000Y-85147500D03*
%TD*%
D27*
%TO.P,IC2,1,GND*%
%TO.N,GND*%
X193310000Y-87570000D03*
%TO.P,IC2,2,EN*%
%TO.N,+5V*%
X193310000Y-88520000D03*
%TO.P,IC2,3,VIN*%
X193310000Y-89470000D03*
%TO.P,IC2,4,VOUT*%
%TO.N,+3.3V*%
X190410000Y-89470000D03*
%TO.P,IC2,5,VSENSE*%
X190410000Y-88520000D03*
%TO.P,IC2,6,ADJ/NC*%
%TO.N,unconnected-(IC2-ADJ{slash}NC-Pad6)*%
X190410000Y-87570000D03*
D28*
%TO.P,IC2,7,EP*%
%TO.N,GND*%
X191860000Y-88520000D03*
%TD*%
D17*
%TO.P,C26,1*%
%TO.N,Net-(IC3-COMP)*%
X186530000Y-84152500D03*
%TO.P,C26,2*%
%TO.N,Net-(C26-Pad2)*%
X186530000Y-85287500D03*
%TD*%
D15*
%TO.P,C18,1*%
%TO.N,+5V*%
X189147500Y-91280000D03*
%TO.P,C18,2*%
%TO.N,GND*%
X188012500Y-91280000D03*
%TD*%
D10*
%TO.P,,1*%
%TO.N,SWO*%
X173090000Y-89490000D03*
%TD*%
D31*
%TO.P,D5,1,K*%
%TO.N,Net-(D5-K)*%
X184550000Y-90470000D03*
%TO.P,D5,2,A*%
%TO.N,+3.3V*%
X186300000Y-90470000D03*
%TD*%
D16*
%TO.P,R17,1*%
%TO.N,Net-(C28-Pad2)*%
X188890000Y-85822500D03*
%TO.P,R17,2*%
%TO.N,Net-(IC3-FB)*%
X188890000Y-87017500D03*
%TD*%
D32*
%TO.P,D2,1,K*%
%TO.N,Net-(D2-K)*%
X177930000Y-86510000D03*
%TO.P,D2,2,A*%
%TO.N,GND*%
X177930000Y-91910000D03*
%TD*%
D24*
%TO.P,R1,1*%
%TO.N,PWEN*%
X194580000Y-93537500D03*
%TO.P,R1,2*%
%TO.N,GND*%
X194580000Y-92342500D03*
%TD*%
D31*
%TO.P,D4,1,K*%
%TO.N,Net-(D4-K)*%
X187275000Y-93480000D03*
%TO.P,D4,2,A*%
%TO.N,3.3VEN*%
X189025000Y-93480000D03*
%TD*%
D24*
%TO.P,R18,1*%
%TO.N,+5V*%
X189150000Y-90267500D03*
%TO.P,R18,2*%
%TO.N,Net-(IC3-FB)*%
X189150000Y-89072500D03*
%TD*%
D10*
%TO.P,,1*%
%TO.N,SWDIO*%
X173070000Y-92300000D03*
%TD*%
D33*
%TO.P,IC3,1,OUT*%
%TO.N,Net-(D2-K)*%
X183090000Y-84410000D03*
%TO.P,IC3,2,SYNCH*%
%TO.N,unconnected-(IC3-SYNCH-Pad2)*%
X183590000Y-84410000D03*
%TO.P,IC3,3,EN*%
%TO.N,VIN*%
X184090000Y-84410000D03*
%TO.P,IC3,4,COMP*%
%TO.N,Net-(IC3-COMP)*%
X184590000Y-84410000D03*
%TO.P,IC3,5,FB*%
%TO.N,Net-(IC3-FB)*%
X184590000Y-87410000D03*
%TO.P,IC3,6,FSW*%
%TO.N,Net-(IC3-FSW)*%
X184090000Y-87410000D03*
%TO.P,IC3,7,GND*%
%TO.N,GND*%
X183590000Y-87410000D03*
%TO.P,IC3,8,V_CC*%
%TO.N,VIN*%
X183090000Y-87410000D03*
D34*
%TO.P,IC3,9,EP*%
%TO.N,GND*%
X183840000Y-85910000D03*
%TD*%
D10*
%TO.P,3,1*%
%TO.N,NRST*%
X173080000Y-93590000D03*
%TD*%
D35*
%TO.N,+3.3V*%
X190420521Y-89010521D03*
%TO.N,ADC1_IN2_CURR*%
X174500000Y-90800000D03*
%TO.N,+3.3V*%
X179000000Y-79425000D03*
%TO.N,GND*%
X176000000Y-79425000D03*
%TO.N,I2C1_SDA*%
X178000000Y-79425000D03*
X181600000Y-82800000D03*
%TO.N,GND*%
X176360000Y-93120000D03*
X184730000Y-85210000D03*
X176140000Y-82470000D03*
X194760000Y-76690000D03*
X195710000Y-81720000D03*
X192250000Y-88020000D03*
X182160000Y-85940000D03*
X188060000Y-80840000D03*
X191100000Y-73300000D03*
X174140000Y-76740000D03*
X186860000Y-77390000D03*
X182600000Y-73300000D03*
X189650000Y-79120000D03*
X190880000Y-79060000D03*
X175390000Y-93170000D03*
X194680000Y-91940000D03*
X180900000Y-73300000D03*
X185500000Y-89530000D03*
X183680000Y-78680000D03*
X178400000Y-90820000D03*
X173080000Y-74720000D03*
X186880000Y-77930000D03*
X186810000Y-92670000D03*
X182750000Y-85180000D03*
X194760000Y-85190000D03*
X186380000Y-89540000D03*
X183870000Y-86560000D03*
X185770000Y-86240000D03*
X175330000Y-93790000D03*
X182730000Y-75760000D03*
X179340000Y-84110000D03*
X191820000Y-87500000D03*
X192290000Y-91270000D03*
X177500000Y-73300000D03*
X188800000Y-87800000D03*
X174340000Y-78550000D03*
X183840000Y-85180000D03*
X176300000Y-92500000D03*
X183670000Y-77690000D03*
X187970000Y-90257500D03*
X178860000Y-92680000D03*
X187700000Y-73300000D03*
X184670000Y-89530000D03*
X184040000Y-93547500D03*
X182700000Y-93770000D03*
X194580000Y-91267500D03*
X189400000Y-73300000D03*
X174340000Y-80170000D03*
X178930000Y-93810000D03*
X189690000Y-80400000D03*
X182750000Y-86610000D03*
X179200000Y-73300000D03*
X181370000Y-87230000D03*
X192770000Y-77880000D03*
X178130000Y-84070000D03*
X181100000Y-79200000D03*
X192420000Y-91820000D03*
X189020000Y-78290000D03*
X174000000Y-90300000D03*
X183600000Y-79750000D03*
X191330000Y-77620000D03*
X185670000Y-85170000D03*
X181840000Y-86720000D03*
X194760000Y-80090000D03*
X181000000Y-93770000D03*
X177480000Y-92630000D03*
X184300000Y-73300000D03*
X177600000Y-93770000D03*
X186000000Y-73300000D03*
X188010000Y-79360000D03*
X192600000Y-87500000D03*
%TO.N,+3.3V*%
X193380000Y-84040000D03*
X190050000Y-89495521D03*
X189750000Y-81710000D03*
X193800000Y-86700000D03*
X189950000Y-84530000D03*
X187800000Y-75020000D03*
X190070000Y-85070000D03*
X193830000Y-84270000D03*
X195710000Y-80320000D03*
X173070000Y-76130000D03*
X186180000Y-91660000D03*
X188320000Y-75010000D03*
X185110000Y-91730000D03*
X181090000Y-83220000D03*
X192570000Y-76830000D03*
X183050000Y-75090000D03*
X193816587Y-87131306D03*
X187000000Y-91430000D03*
X193150000Y-82610000D03*
X185020000Y-92422500D03*
X180140000Y-83220000D03*
%TO.N,NRST*%
X173080000Y-93590000D03*
X179380000Y-90850660D03*
%TO.N,USART3_RX*%
X180000000Y-93270000D03*
%TO.N,SDDETECT*%
X193396250Y-81483750D03*
X184190000Y-91260000D03*
%TO.N,+5V*%
X189147500Y-91280000D03*
X193490000Y-93810000D03*
X181560000Y-74390000D03*
X173070000Y-73460000D03*
X181541494Y-73890340D03*
X175170000Y-73890000D03*
X175170000Y-74330000D03*
X194280000Y-88840000D03*
X194280000Y-89310000D03*
X195710000Y-78920000D03*
%TO.N,ADC1_IN3_VBAT*%
X174770000Y-83300000D03*
X179180000Y-88470000D03*
%TO.N,ADC1_IN2_CURR*%
X179541191Y-88089171D03*
%TO.N,I2C3_SDA_ACCEL*%
X185110000Y-82870000D03*
X195710000Y-83120000D03*
X189860000Y-83705000D03*
%TO.N,I2C1_SCL*%
X177000000Y-78300000D03*
%TO.N,I2C3_SCL_ACCEL*%
X188090000Y-87150000D03*
X191937000Y-83410000D03*
X195710000Y-84520000D03*
%TO.N,3.3VEN*%
X189655249Y-93721215D03*
X189160000Y-93790000D03*
X189740000Y-77920000D03*
X190530166Y-83559834D03*
X189610000Y-93200000D03*
%TO.N,SPI1_CS_SD*%
X182650000Y-91240000D03*
X190330000Y-76010000D03*
%TO.N,SPI1_MISO_SD*%
X181480000Y-91210000D03*
X184510000Y-76050000D03*
%TO.N,SPI1_SCK_SD*%
X180225170Y-90704168D03*
X187020000Y-75880000D03*
%TO.N,SPI1_MOSI_SD*%
X189220000Y-75840000D03*
X182060000Y-91220000D03*
%TO.N,USART1_RX_GPS*%
X189730000Y-83060000D03*
X183132230Y-82772331D03*
%TO.N,USART1_TX_GPS*%
X183185000Y-83269541D03*
X189760000Y-82490000D03*
%TO.N,LPUART1_RX_RADIO*%
X186065000Y-78680000D03*
X179690000Y-90100000D03*
%TO.N,LPUART1_TX_RADIO*%
X187160000Y-90760000D03*
X187976943Y-78256943D03*
%TO.N,GPIO_EXTI1*%
X173070000Y-77580000D03*
X183230000Y-91230000D03*
%TO.N,SWO*%
X183310000Y-82305000D03*
X173090000Y-89490000D03*
%TO.N,SWDIO*%
X188230000Y-83220000D03*
X173070000Y-92300000D03*
%TO.N,I2C1_SCL*%
X186100000Y-82800000D03*
%TO.N,SWCLK{slash}I2C1_SDA*%
X173070000Y-90900000D03*
X187585000Y-83220000D03*
%TO.N,TIM3_CHI_PWM4*%
X188120000Y-87730000D03*
%TO.N,USART3_TX*%
X185620000Y-91330000D03*
X180020000Y-92060000D03*
%TO.N,D+*%
X193220000Y-89955000D03*
X188120000Y-85490000D03*
%TO.N,D-*%
X190860000Y-90540000D03*
X188150000Y-86110000D03*
%TO.N,PWEN*%
X188180000Y-88240000D03*
X194690000Y-93860000D03*
%TO.N,USBD+*%
X192060000Y-93870000D03*
%TO.N,USBD-*%
X190740000Y-93860000D03*
%TO.N,ADC2_IN17*%
X180190000Y-90150000D03*
X174500000Y-93530000D03*
%TO.N,USART3_RX*%
X182345000Y-82715000D03*
%TD*%
D36*
%TO.N,VIN*%
X184090000Y-81910000D02*
X184090000Y-84410000D01*
X184100000Y-81900000D02*
X184090000Y-81910000D01*
X182100000Y-79900000D02*
X184100000Y-81900000D01*
X175700000Y-80700000D02*
X176500000Y-79900000D01*
X175700000Y-83927500D02*
X175700000Y-80700000D01*
X174480000Y-85147500D02*
X175700000Y-83927500D01*
X176500000Y-79900000D02*
X182100000Y-79900000D01*
D37*
%TO.N,I2C1_SCL*%
X177800000Y-78300000D02*
X177000000Y-78300000D01*
X185194000Y-82494000D02*
X181400000Y-78700000D01*
X178200000Y-78700000D02*
X177800000Y-78300000D01*
X185394000Y-82494000D02*
X185194000Y-82494000D01*
X181400000Y-78700000D02*
X178200000Y-78700000D01*
X185400000Y-82500000D02*
X185394000Y-82494000D01*
X185800000Y-82500000D02*
X185400000Y-82500000D01*
X186100000Y-82800000D02*
X185800000Y-82500000D01*
%TO.N,GND*%
X193400000Y-91320000D02*
X193557500Y-91320000D01*
X186740000Y-77055000D02*
X186665000Y-77055000D01*
D36*
%TO.N,+3.3V*%
X193043959Y-90380000D02*
X194332500Y-90380000D01*
X192658959Y-89995000D02*
X193043959Y-90380000D01*
X186300000Y-91540000D02*
X186180000Y-91660000D01*
X190050000Y-89495521D02*
X190549479Y-89995000D01*
X186300000Y-90470000D02*
X186300000Y-91540000D01*
X194332500Y-90380000D02*
X194580000Y-90132500D01*
X190549479Y-89995000D02*
X192658959Y-89995000D01*
D37*
%TO.N,Net-(C26-Pad2)*%
X186530000Y-86322500D02*
X186500000Y-86352500D01*
X186530000Y-85287500D02*
X186530000Y-86322500D01*
D36*
%TO.N,+5V*%
X189147500Y-91280000D02*
X189150000Y-91277500D01*
X189150000Y-91277500D02*
X189150000Y-90267500D01*
D37*
%TO.N,Net-(IC3-FSW)*%
X184622500Y-88060000D02*
X185132500Y-88570000D01*
X184390000Y-88060000D02*
X184622500Y-88060000D01*
X184090000Y-87760000D02*
X184390000Y-88060000D01*
X184090000Y-87410000D02*
X184090000Y-87760000D01*
D36*
%TO.N,3.3VEN*%
X189740000Y-77920000D02*
X189740000Y-77055000D01*
D37*
%TO.N,USART1_RX_GPS*%
X189730000Y-83060000D02*
X190855000Y-83060000D01*
X190855000Y-83060000D02*
X191005000Y-82910000D01*
%TO.N,USART1_TX_GPS*%
X189760000Y-82490000D02*
X190340000Y-81910000D01*
X190340000Y-81910000D02*
X191005000Y-81910000D01*
%TO.N,LPUART1_RX_RADIO*%
X188740000Y-78024217D02*
X188740000Y-77055000D01*
X188089217Y-78675000D02*
X188740000Y-78024217D01*
X186065000Y-78680000D02*
X186070000Y-78675000D01*
X186070000Y-78675000D02*
X188089217Y-78675000D01*
X188780000Y-77095000D02*
X188740000Y-77055000D01*
%TO.N,LPUART1_TX_RADIO*%
X187976943Y-78256943D02*
X187740000Y-78020000D01*
X187740000Y-77055000D02*
X187740000Y-77660000D01*
X187740000Y-78020000D02*
X187740000Y-77055000D01*
%TO.N,PWEN*%
X194690000Y-93560000D02*
X193400000Y-92270000D01*
X194690000Y-93860000D02*
X194690000Y-93560000D01*
%TO.N,Net-(D1-K)*%
X174550000Y-75605000D02*
X174550000Y-77412500D01*
X174550000Y-77412500D02*
X174390000Y-77572500D01*
%TO.N,Net-(D4-K)*%
X186145000Y-93480000D02*
X185960000Y-93665000D01*
X187275000Y-93480000D02*
X186145000Y-93480000D01*
%TO.N,Net-(D5-K)*%
X184565000Y-91647500D02*
X184565000Y-90485000D01*
X184565000Y-90485000D02*
X184550000Y-90470000D01*
X184200000Y-92012500D02*
X184565000Y-91647500D01*
%TD*%
%TA.AperFunction,Conductor*%
%TO.N,GND*%
G36*
X177899500Y-94219107D02*
G01*
X177899464Y-94238825D01*
X177899500Y-94238912D01*
X177899500Y-96575500D01*
X177879815Y-96642539D01*
X177827011Y-96688294D01*
X177775500Y-96699500D01*
X175624493Y-96699500D01*
X175557454Y-96679815D01*
X175511699Y-96627011D01*
X175500493Y-96575501D01*
X175500467Y-94215606D01*
X175500467Y-94215387D01*
X175500494Y-94200000D01*
X177899500Y-94200000D01*
X177899500Y-94219107D01*
G37*
%TD.AperFunction*%
%TA.AperFunction,Conductor*%
G36*
X190670436Y-94204224D02*
G01*
X190693856Y-94210500D01*
X190693858Y-94210500D01*
X190786142Y-94210500D01*
X190786144Y-94210500D01*
X190809563Y-94204224D01*
X190841655Y-94200000D01*
X191921023Y-94200000D01*
X191953116Y-94204225D01*
X191960405Y-94206178D01*
X192013856Y-94220500D01*
X192013858Y-94220500D01*
X192106142Y-94220500D01*
X192106144Y-94220500D01*
X192159595Y-94206178D01*
X192166884Y-94204225D01*
X192198977Y-94200000D01*
X192275500Y-94200000D01*
X192342539Y-94219685D01*
X192388294Y-94272489D01*
X192399500Y-94324000D01*
X192399500Y-96575500D01*
X192379815Y-96642539D01*
X192327011Y-96688294D01*
X192275500Y-96699500D01*
X190124494Y-96699500D01*
X190057455Y-96679815D01*
X190011700Y-96627011D01*
X190000494Y-96575504D01*
X190000429Y-94341088D01*
X190000428Y-94324002D01*
X190020111Y-94256964D01*
X190072913Y-94211207D01*
X190124428Y-94200000D01*
X190638345Y-94200000D01*
X190670436Y-94204224D01*
G37*
%TD.AperFunction*%
%TD*%
%TA.AperFunction,Conductor*%
%TO.N,GND*%
G36*
X177842539Y-70220185D02*
G01*
X177888294Y-70272989D01*
X177899500Y-70324500D01*
X177899500Y-72859992D01*
X177914799Y-72896928D01*
X177914800Y-72896929D01*
X177943071Y-72925200D01*
X177980009Y-72940500D01*
X177980011Y-72940500D01*
X189919989Y-72940500D01*
X189919991Y-72940500D01*
X189956929Y-72925200D01*
X189985200Y-72896929D01*
X190000500Y-72859991D01*
X190000500Y-70424500D01*
X190020185Y-70357461D01*
X190072989Y-70311706D01*
X190124500Y-70300500D01*
X192275500Y-70300500D01*
X192342539Y-70320185D01*
X192388294Y-70372989D01*
X192399500Y-70424500D01*
X192399500Y-72859992D01*
X192414799Y-72896928D01*
X192414800Y-72896929D01*
X192443071Y-72925200D01*
X192480009Y-72940500D01*
X192519991Y-72940500D01*
X193393821Y-72940500D01*
X193400000Y-73200000D01*
X184877364Y-73292136D01*
X184877362Y-73292136D01*
X184877363Y-73292135D01*
X175213222Y-73396613D01*
X175145974Y-73377654D01*
X175113814Y-73342487D01*
X175111051Y-73344496D01*
X175105315Y-73336602D01*
X175105312Y-73336599D01*
X175105311Y-73336597D01*
X175018403Y-73249689D01*
X174960830Y-73220354D01*
X174950827Y-73210907D01*
X174938177Y-73205490D01*
X174925926Y-73187389D01*
X174910036Y-73172382D01*
X174905908Y-73157811D01*
X174899015Y-73147627D01*
X174893162Y-73112826D01*
X174892082Y-73067449D01*
X174910166Y-72999962D01*
X174961866Y-72952963D01*
X175016047Y-72940500D01*
X175419989Y-72940500D01*
X175419991Y-72940500D01*
X175456929Y-72925200D01*
X175485200Y-72896929D01*
X175500500Y-72859991D01*
X175500500Y-70324500D01*
X175520185Y-70257461D01*
X175572989Y-70211706D01*
X175624500Y-70200500D01*
X177775500Y-70200500D01*
X177842539Y-70220185D01*
G37*
%TD.AperFunction*%
%TD*%
%TA.AperFunction,Conductor*%
%TO.N,Net-(IC3-COMP)*%
G36*
X186980000Y-83820000D02*
G01*
X187485953Y-83863616D01*
X187551053Y-83888986D01*
X187589276Y-83938312D01*
X187700231Y-84197207D01*
X187710251Y-84244794D01*
X187728746Y-86066543D01*
X187709743Y-86133779D01*
X187657406Y-86180068D01*
X187606549Y-86191789D01*
X187171305Y-86198097D01*
X187103987Y-86179386D01*
X187057472Y-86127251D01*
X187045622Y-86068804D01*
X187100000Y-84800000D01*
X187099999Y-84799999D01*
X186847239Y-84800928D01*
X186796698Y-84790364D01*
X186796019Y-84790064D01*
X186756156Y-84772463D01*
X186749771Y-84771722D01*
X186730619Y-84769500D01*
X186730616Y-84769500D01*
X186329384Y-84769500D01*
X186329380Y-84769500D01*
X186303844Y-84772463D01*
X186303839Y-84772464D01*
X186257979Y-84792713D01*
X186208351Y-84803277D01*
X184514956Y-84809502D01*
X184506040Y-84806919D01*
X184496853Y-84808241D01*
X184473014Y-84797354D01*
X184447844Y-84790064D01*
X184441740Y-84783071D01*
X184433297Y-84779216D01*
X184419129Y-84757170D01*
X184401896Y-84737429D01*
X184399538Y-84726685D01*
X184395523Y-84720438D01*
X184390500Y-84685503D01*
X184390500Y-84458989D01*
X184390549Y-84455497D01*
X184397825Y-84197207D01*
X184416019Y-83551299D01*
X184437584Y-83484844D01*
X184491655Y-83440594D01*
X184559577Y-83432354D01*
X186980000Y-83820000D01*
G37*
%TD.AperFunction*%
%TD*%
%TA.AperFunction,Conductor*%
%TO.N,+3.3V*%
G36*
X192222295Y-84330095D02*
G01*
X192268425Y-84382572D01*
X192280000Y-84434885D01*
X192280000Y-86421332D01*
X192260315Y-86488371D01*
X192221797Y-86526436D01*
X191304620Y-87100604D01*
X191238823Y-87119500D01*
X190995178Y-87119500D01*
X190951282Y-87128231D01*
X190951275Y-87128234D01*
X190901496Y-87161495D01*
X190866153Y-87214391D01*
X190812541Y-87259196D01*
X190763051Y-87269500D01*
X189970178Y-87269500D01*
X189926282Y-87278231D01*
X189926275Y-87278234D01*
X189876496Y-87311495D01*
X189876495Y-87311496D01*
X189843234Y-87361275D01*
X189843231Y-87361282D01*
X189834500Y-87405177D01*
X189834500Y-87405180D01*
X189834500Y-87734820D01*
X189834500Y-87734822D01*
X189834499Y-87734822D01*
X189843231Y-87778717D01*
X189843232Y-87778721D01*
X189843233Y-87778722D01*
X189876496Y-87828504D01*
X189926278Y-87861767D01*
X189926281Y-87861767D01*
X189926282Y-87861768D01*
X189970177Y-87870500D01*
X190735500Y-87870500D01*
X190802539Y-87890185D01*
X190848294Y-87942989D01*
X190859500Y-87994500D01*
X190859500Y-89723322D01*
X190839815Y-89790361D01*
X190787011Y-89836116D01*
X190734700Y-89847319D01*
X189720326Y-89840776D01*
X189653415Y-89820660D01*
X189608002Y-89767562D01*
X189597162Y-89719712D01*
X189590393Y-89432836D01*
X189600925Y-89379831D01*
X189617487Y-89342322D01*
X189617486Y-89342322D01*
X189617488Y-89342320D01*
X189620500Y-89316357D01*
X189620499Y-88828644D01*
X189619498Y-88820009D01*
X189617489Y-88802684D01*
X189617488Y-88802682D01*
X189617488Y-88802680D01*
X189583105Y-88724809D01*
X189572576Y-88677659D01*
X189472973Y-84456022D01*
X189491071Y-84388539D01*
X189542781Y-84341551D01*
X189596052Y-84329102D01*
X190208586Y-84324743D01*
X190259552Y-84335306D01*
X190310005Y-84357584D01*
X190310007Y-84357584D01*
X190310009Y-84357585D01*
X190335135Y-84360500D01*
X191674864Y-84360499D01*
X191674879Y-84360497D01*
X191674882Y-84360497D01*
X191699987Y-84357586D01*
X191699987Y-84357585D01*
X191699991Y-84357585D01*
X191776518Y-84323795D01*
X191825716Y-84313233D01*
X192155119Y-84310888D01*
X192222295Y-84330095D01*
G37*
%TD.AperFunction*%
%TD*%
%TA.AperFunction,Conductor*%
%TO.N,GND*%
G36*
X194831245Y-90861961D02*
G01*
X194878715Y-90913229D01*
X194891668Y-90966797D01*
X194899999Y-91599998D01*
X194900000Y-91599999D01*
X194900000Y-91600000D01*
X195644577Y-91591441D01*
X195711836Y-91610354D01*
X195758195Y-91662629D01*
X195770000Y-91715433D01*
X195770000Y-92662671D01*
X195750315Y-92729710D01*
X195697511Y-92775465D01*
X195642716Y-92786628D01*
X194384467Y-92753297D01*
X194317973Y-92731844D01*
X194273632Y-92677847D01*
X194263809Y-92625549D01*
X194290000Y-91770000D01*
X192810000Y-91770000D01*
X192802892Y-93020929D01*
X192801632Y-93037869D01*
X192795000Y-93083996D01*
X192795000Y-93406000D01*
X192775315Y-93473039D01*
X192722511Y-93518794D01*
X192671000Y-93530000D01*
X192145331Y-93530000D01*
X192106144Y-93519500D01*
X192013856Y-93519500D01*
X191974669Y-93530000D01*
X191228215Y-93530000D01*
X191161176Y-93510315D01*
X191115421Y-93457511D01*
X191106601Y-93396222D01*
X191104684Y-93396085D01*
X191105000Y-93391668D01*
X191105000Y-92115464D01*
X191105000Y-92115463D01*
X191101307Y-92081773D01*
X191089666Y-92029319D01*
X191089665Y-92029317D01*
X191089664Y-92029314D01*
X191081368Y-92012997D01*
X191067905Y-91957755D01*
X191064783Y-91551872D01*
X191067160Y-91526741D01*
X191075500Y-91484820D01*
X191075500Y-91155180D01*
X191066767Y-91111278D01*
X191066766Y-91111277D01*
X191064384Y-91099300D01*
X191064942Y-91099188D01*
X191061106Y-91073894D01*
X191060941Y-91052417D01*
X191080109Y-90985231D01*
X191132560Y-90939072D01*
X191182395Y-90927493D01*
X193990000Y-90870000D01*
X194763594Y-90844496D01*
X194831245Y-90861961D01*
G37*
%TD.AperFunction*%
%TD*%
%TA.AperFunction,Conductor*%
%TO.N,Net-(C28-Pad2)*%
G36*
X189207019Y-81863242D02*
G01*
X189272876Y-81886575D01*
X189315665Y-81941809D01*
X189324070Y-81993024D01*
X189289999Y-82699986D01*
X189299989Y-85027631D01*
X189299919Y-85032364D01*
X189264061Y-86090201D01*
X189242116Y-86156535D01*
X189187793Y-86200475D01*
X189140132Y-86210000D01*
X188634000Y-86210000D01*
X188566961Y-86190315D01*
X188521206Y-86137511D01*
X188510000Y-86086000D01*
X188510000Y-85449984D01*
X188484328Y-84628516D01*
X188450635Y-83550338D01*
X188468215Y-83482720D01*
X188486892Y-83458788D01*
X188510469Y-83435212D01*
X188556614Y-83355288D01*
X188580500Y-83266144D01*
X188580500Y-83173856D01*
X188556614Y-83084712D01*
X188556611Y-83084706D01*
X188510473Y-83004794D01*
X188510470Y-83004791D01*
X188510469Y-83004788D01*
X188465831Y-82960150D01*
X188432346Y-82898827D01*
X188429573Y-82876354D01*
X188420060Y-82571920D01*
X188420000Y-82568047D01*
X188420000Y-81950999D01*
X188439685Y-81883960D01*
X188492489Y-81838205D01*
X188550798Y-81827186D01*
X189207019Y-81863242D01*
G37*
%TD.AperFunction*%
%TD*%
%TA.AperFunction,Conductor*%
%TO.N,GND*%
G36*
X195012539Y-72960185D02*
G01*
X195058294Y-73012989D01*
X195069500Y-73064500D01*
X195069500Y-78262204D01*
X195068305Y-78262204D01*
X195063200Y-78319233D01*
X195062374Y-78321280D01*
X195058232Y-78331279D01*
X195049500Y-78375177D01*
X195049500Y-78375180D01*
X195049500Y-79404820D01*
X195049500Y-79404822D01*
X195049499Y-79404822D01*
X195058231Y-79448717D01*
X195058234Y-79448724D01*
X195091495Y-79498503D01*
X195097544Y-79504552D01*
X195112320Y-79531612D01*
X195128928Y-79557599D01*
X195129771Y-79563572D01*
X195131029Y-79565875D01*
X195133863Y-79592546D01*
X195133849Y-79598092D01*
X195113995Y-79665082D01*
X195097533Y-79685457D01*
X195091496Y-79691493D01*
X195058233Y-79741276D01*
X195058231Y-79741282D01*
X195049500Y-79785177D01*
X195049500Y-79785180D01*
X195049500Y-80814820D01*
X195049500Y-80814822D01*
X195049499Y-80814822D01*
X195058231Y-80858717D01*
X195058234Y-80858724D01*
X195091495Y-80908503D01*
X195094163Y-80911171D01*
X195098121Y-80918419D01*
X195098281Y-80918659D01*
X195098259Y-80918673D01*
X195127648Y-80972494D01*
X195130482Y-80999149D01*
X195130160Y-81133250D01*
X195130000Y-81200000D01*
X196076000Y-81200000D01*
X196143039Y-81219685D01*
X196188794Y-81272489D01*
X196200000Y-81324000D01*
X196200000Y-82064825D01*
X196180315Y-82131864D01*
X196127511Y-82177619D01*
X196074830Y-82188819D01*
X195140000Y-82179999D01*
X195139999Y-82180000D01*
X195138867Y-82394217D01*
X195118829Y-82461151D01*
X195098759Y-82481483D01*
X195100134Y-82482858D01*
X195091494Y-82491498D01*
X195058234Y-82541275D01*
X195058231Y-82541282D01*
X195049500Y-82585177D01*
X195049500Y-82585180D01*
X195049500Y-83614820D01*
X195049500Y-83614822D01*
X195049499Y-83614822D01*
X195058231Y-83658717D01*
X195058234Y-83658724D01*
X195091494Y-83708502D01*
X195095127Y-83712135D01*
X195109982Y-83739343D01*
X195126604Y-83765513D01*
X195127395Y-83771238D01*
X195128609Y-83773460D01*
X195131440Y-83800474D01*
X195131438Y-83800849D01*
X195111396Y-83867783D01*
X195095128Y-83887862D01*
X195091497Y-83891492D01*
X195058234Y-83941275D01*
X195058231Y-83941282D01*
X195049500Y-83985177D01*
X195049500Y-83985180D01*
X195049500Y-85014820D01*
X195049500Y-85014822D01*
X195049499Y-85014822D01*
X195060149Y-85068357D01*
X195060151Y-85116732D01*
X195059500Y-85120005D01*
X195059500Y-86493051D01*
X195039815Y-86560090D01*
X195004391Y-86596153D01*
X194951495Y-86631496D01*
X194918234Y-86681275D01*
X194918231Y-86681282D01*
X194909500Y-86725177D01*
X194909500Y-87739113D01*
X194889815Y-87806152D01*
X194837011Y-87851907D01*
X194786692Y-87863107D01*
X193030000Y-87879999D01*
X193030000Y-87880000D01*
X193023457Y-88099200D01*
X193001781Y-88165622D01*
X192947635Y-88209781D01*
X192899512Y-88219500D01*
X192870178Y-88219500D01*
X192826282Y-88228231D01*
X192826275Y-88228234D01*
X192776496Y-88261495D01*
X192776495Y-88261496D01*
X192743234Y-88311275D01*
X192743231Y-88311282D01*
X192734500Y-88355177D01*
X192734500Y-88355180D01*
X192734500Y-88684820D01*
X192734500Y-88684822D01*
X192734499Y-88684822D01*
X192743231Y-88728717D01*
X192743234Y-88728724D01*
X192775061Y-88776357D01*
X192776496Y-88778504D01*
X192826278Y-88811767D01*
X192826281Y-88811767D01*
X192826282Y-88811768D01*
X192870177Y-88820500D01*
X192874168Y-88820500D01*
X192876181Y-88821091D01*
X192876240Y-88821097D01*
X192876238Y-88821108D01*
X192884631Y-88823572D01*
X192895469Y-88822343D01*
X192917568Y-88833243D01*
X192941207Y-88840185D01*
X192948348Y-88848426D01*
X192958131Y-88853252D01*
X192970829Y-88874371D01*
X192986962Y-88892989D01*
X192989459Y-88905355D01*
X192994135Y-88913131D01*
X192998113Y-88948200D01*
X192995098Y-89049200D01*
X192973422Y-89115622D01*
X192919276Y-89159781D01*
X192876198Y-89168481D01*
X192876240Y-89168903D01*
X192872081Y-89169312D01*
X192871153Y-89169500D01*
X192870178Y-89169500D01*
X192826282Y-89178231D01*
X192826275Y-89178234D01*
X192776496Y-89211495D01*
X192776495Y-89211496D01*
X192743234Y-89261275D01*
X192743231Y-89261282D01*
X192734500Y-89305177D01*
X192734500Y-89595500D01*
X192714815Y-89662539D01*
X192662011Y-89708294D01*
X192610500Y-89719500D01*
X191276000Y-89719500D01*
X191208961Y-89699815D01*
X191163206Y-89647011D01*
X191152004Y-89594528D01*
X191158070Y-88821091D01*
X191169281Y-87391582D01*
X191189491Y-87324702D01*
X191242652Y-87279362D01*
X191275996Y-87269768D01*
X191281746Y-87268959D01*
X191347543Y-87250063D01*
X191387131Y-87232407D01*
X192304308Y-86658239D01*
X192309847Y-86653856D01*
X193449500Y-86653856D01*
X193449500Y-86746144D01*
X193473386Y-86835288D01*
X193487942Y-86860500D01*
X193492282Y-86868016D01*
X193508755Y-86935916D01*
X193492286Y-86992010D01*
X193489976Y-86996011D01*
X193489973Y-86996018D01*
X193466087Y-87085162D01*
X193466087Y-87177449D01*
X193489974Y-87266596D01*
X193489975Y-87266599D01*
X193536113Y-87346511D01*
X193536116Y-87346515D01*
X193536118Y-87346518D01*
X193601375Y-87411775D01*
X193601378Y-87411776D01*
X193601381Y-87411779D01*
X193681293Y-87457917D01*
X193681294Y-87457917D01*
X193681299Y-87457920D01*
X193770443Y-87481806D01*
X193770445Y-87481806D01*
X193862729Y-87481806D01*
X193862731Y-87481806D01*
X193951875Y-87457920D01*
X194031799Y-87411775D01*
X194097056Y-87346518D01*
X194143201Y-87266594D01*
X194167087Y-87177450D01*
X194167087Y-87085162D01*
X194143201Y-86996018D01*
X194143200Y-86996017D01*
X194143200Y-86996015D01*
X194124305Y-86963290D01*
X194107831Y-86895390D01*
X194124305Y-86839285D01*
X194126614Y-86835288D01*
X194150500Y-86746144D01*
X194150500Y-86653856D01*
X194126614Y-86564712D01*
X194126611Y-86564706D01*
X194080473Y-86484794D01*
X194080470Y-86484791D01*
X194080469Y-86484788D01*
X194015212Y-86419531D01*
X194015209Y-86419529D01*
X194015205Y-86419526D01*
X193935293Y-86373388D01*
X193935290Y-86373387D01*
X193935289Y-86373386D01*
X193935288Y-86373386D01*
X193846144Y-86349500D01*
X193753856Y-86349500D01*
X193664712Y-86373386D01*
X193664711Y-86373386D01*
X193664709Y-86373387D01*
X193664706Y-86373388D01*
X193584794Y-86419526D01*
X193584785Y-86419533D01*
X193519533Y-86484785D01*
X193519526Y-86484794D01*
X193473388Y-86564706D01*
X193473387Y-86564709D01*
X193473386Y-86564711D01*
X193473386Y-86564712D01*
X193449500Y-86653856D01*
X192309847Y-86653856D01*
X192331100Y-86637040D01*
X192369618Y-86598975D01*
X192403131Y-86542870D01*
X192423137Y-86522429D01*
X192429999Y-86510001D01*
X192429998Y-86510000D01*
X192430000Y-86510000D01*
X192429922Y-86469230D01*
X192431184Y-86451349D01*
X192435500Y-86421332D01*
X192435500Y-85981255D01*
X192455185Y-85914216D01*
X192507989Y-85868461D01*
X192577147Y-85858517D01*
X192632635Y-85883857D01*
X192633759Y-85882311D01*
X192641653Y-85888045D01*
X192641658Y-85888050D01*
X192733408Y-85934799D01*
X192754698Y-85945647D01*
X192848475Y-85960499D01*
X192848481Y-85960500D01*
X194211518Y-85960499D01*
X194305304Y-85945646D01*
X194418342Y-85888050D01*
X194508050Y-85798342D01*
X194565646Y-85685304D01*
X194565646Y-85685302D01*
X194565647Y-85685301D01*
X194580499Y-85591524D01*
X194580500Y-85591519D01*
X194580499Y-84828482D01*
X194565646Y-84734696D01*
X194508050Y-84621658D01*
X194508046Y-84621654D01*
X194508045Y-84621652D01*
X194418347Y-84531954D01*
X194418344Y-84531952D01*
X194418342Y-84531950D01*
X194305304Y-84474354D01*
X194305302Y-84474353D01*
X194305301Y-84474353D01*
X194280932Y-84470493D01*
X194217798Y-84440563D01*
X194180868Y-84381251D01*
X194180599Y-84324352D01*
X194179439Y-84324200D01*
X194180500Y-84316142D01*
X194180500Y-84223858D01*
X194180500Y-84223856D01*
X194156614Y-84134712D01*
X194156611Y-84134706D01*
X194110473Y-84054794D01*
X194110470Y-84054791D01*
X194110469Y-84054788D01*
X194045212Y-83989531D01*
X194045209Y-83989529D01*
X194045205Y-83989526D01*
X193965293Y-83943388D01*
X193965290Y-83943387D01*
X193965289Y-83943386D01*
X193965288Y-83943386D01*
X193876144Y-83919500D01*
X193786743Y-83919500D01*
X193719704Y-83899815D01*
X193679357Y-83857502D01*
X193660472Y-83824794D01*
X193660469Y-83824788D01*
X193595212Y-83759531D01*
X193595209Y-83759529D01*
X193595205Y-83759526D01*
X193515293Y-83713388D01*
X193515290Y-83713387D01*
X193515289Y-83713386D01*
X193515288Y-83713386D01*
X193426144Y-83689500D01*
X193333856Y-83689500D01*
X193244712Y-83713386D01*
X193244711Y-83713386D01*
X193244709Y-83713387D01*
X193244706Y-83713388D01*
X193164794Y-83759526D01*
X193164785Y-83759533D01*
X193099533Y-83824785D01*
X193099526Y-83824794D01*
X193053388Y-83904706D01*
X193053387Y-83904709D01*
X193053386Y-83904711D01*
X193053386Y-83904712D01*
X193029500Y-83993856D01*
X193029500Y-84086144D01*
X193052935Y-84173606D01*
X193053387Y-84175290D01*
X193053388Y-84175293D01*
X193099529Y-84255211D01*
X193103214Y-84260012D01*
X193128410Y-84325180D01*
X193114373Y-84393626D01*
X193065560Y-84443616D01*
X193004841Y-84459500D01*
X192848482Y-84459500D01*
X192779075Y-84470493D01*
X192754696Y-84474354D01*
X192641658Y-84531950D01*
X192641657Y-84531951D01*
X192633759Y-84537689D01*
X192632294Y-84535673D01*
X192624439Y-84544381D01*
X192604233Y-84549877D01*
X192585858Y-84559911D01*
X192571199Y-84558862D01*
X192557019Y-84562720D01*
X192537052Y-84556420D01*
X192516166Y-84554927D01*
X192504400Y-84546119D01*
X192490386Y-84541698D01*
X192476992Y-84525601D01*
X192460233Y-84513055D01*
X192454309Y-84498340D01*
X192445697Y-84487989D01*
X192440986Y-84465242D01*
X192436434Y-84453932D01*
X192435500Y-84446363D01*
X192435500Y-84434885D01*
X192431828Y-84401291D01*
X192427553Y-84381973D01*
X192426832Y-84376125D01*
X192427259Y-84373519D01*
X192425899Y-84361185D01*
X192422469Y-82563856D01*
X192799500Y-82563856D01*
X192799500Y-82656144D01*
X192820552Y-82734712D01*
X192823387Y-82745290D01*
X192823388Y-82745293D01*
X192869526Y-82825205D01*
X192869529Y-82825209D01*
X192869531Y-82825212D01*
X192934788Y-82890469D01*
X192934791Y-82890470D01*
X192934794Y-82890473D01*
X193014706Y-82936611D01*
X193014707Y-82936611D01*
X193014712Y-82936614D01*
X193103856Y-82960500D01*
X193103858Y-82960500D01*
X193196142Y-82960500D01*
X193196144Y-82960500D01*
X193285288Y-82936614D01*
X193365212Y-82890469D01*
X193430469Y-82825212D01*
X193476614Y-82745288D01*
X193500500Y-82656144D01*
X193500500Y-82563856D01*
X193476614Y-82474712D01*
X193475253Y-82472354D01*
X193430473Y-82394794D01*
X193430470Y-82394791D01*
X193430469Y-82394788D01*
X193365212Y-82329531D01*
X193365209Y-82329529D01*
X193365205Y-82329526D01*
X193285293Y-82283388D01*
X193285290Y-82283387D01*
X193285289Y-82283386D01*
X193285288Y-82283386D01*
X193196144Y-82259500D01*
X193103856Y-82259500D01*
X193014712Y-82283386D01*
X193014711Y-82283386D01*
X193014709Y-82283387D01*
X193014706Y-82283388D01*
X192934794Y-82329526D01*
X192934785Y-82329533D01*
X192869533Y-82394785D01*
X192869526Y-82394794D01*
X192823388Y-82474706D01*
X192823387Y-82474709D01*
X192823386Y-82474711D01*
X192823386Y-82474712D01*
X192799500Y-82563856D01*
X192422469Y-82563856D01*
X192420320Y-81437606D01*
X193045750Y-81437606D01*
X193045750Y-81529894D01*
X193066391Y-81606929D01*
X193069637Y-81619040D01*
X193069638Y-81619043D01*
X193115776Y-81698955D01*
X193115779Y-81698959D01*
X193115781Y-81698962D01*
X193181038Y-81764219D01*
X193181041Y-81764220D01*
X193181044Y-81764223D01*
X193260956Y-81810361D01*
X193260957Y-81810361D01*
X193260962Y-81810364D01*
X193350106Y-81834250D01*
X193350108Y-81834250D01*
X193442392Y-81834250D01*
X193442394Y-81834250D01*
X193531538Y-81810364D01*
X193611462Y-81764219D01*
X193676719Y-81698962D01*
X193722864Y-81619038D01*
X193746750Y-81529894D01*
X193746750Y-81437606D01*
X193722864Y-81348462D01*
X193708741Y-81324000D01*
X193676723Y-81268544D01*
X193676720Y-81268541D01*
X193676719Y-81268538D01*
X193611462Y-81203281D01*
X193611459Y-81203279D01*
X193611455Y-81203276D01*
X193531543Y-81157138D01*
X193531540Y-81157137D01*
X193531539Y-81157136D01*
X193531538Y-81157136D01*
X193442394Y-81133250D01*
X193350106Y-81133250D01*
X193260962Y-81157136D01*
X193260961Y-81157136D01*
X193260959Y-81157137D01*
X193260956Y-81157138D01*
X193181044Y-81203276D01*
X193181035Y-81203283D01*
X193115783Y-81268535D01*
X193115776Y-81268544D01*
X193069638Y-81348456D01*
X193069637Y-81348459D01*
X193069636Y-81348461D01*
X193069636Y-81348462D01*
X193045750Y-81437606D01*
X192420320Y-81437606D01*
X192420000Y-81270000D01*
X192419999Y-81270000D01*
X190040000Y-81290000D01*
X190039997Y-81290000D01*
X189838141Y-81353744D01*
X189800801Y-81359500D01*
X189796144Y-81359500D01*
X189703856Y-81359500D01*
X189614712Y-81383386D01*
X189614711Y-81383386D01*
X189614709Y-81383387D01*
X189614706Y-81383388D01*
X189534789Y-81429529D01*
X189526971Y-81437347D01*
X189476636Y-81467903D01*
X188921221Y-81643298D01*
X188877776Y-81648904D01*
X188372801Y-81624010D01*
X188358633Y-81619653D01*
X188346813Y-81619935D01*
X188314369Y-81606042D01*
X188313004Y-81605210D01*
X188298597Y-81594951D01*
X188291799Y-81589339D01*
X188291794Y-81589336D01*
X188279238Y-81583602D01*
X188279236Y-81583601D01*
X188272514Y-81580531D01*
X188256847Y-81570982D01*
X188242166Y-81566671D01*
X188234096Y-81562986D01*
X188234093Y-81562985D01*
X188228245Y-81560314D01*
X188221447Y-81557402D01*
X188221446Y-81557401D01*
X188221444Y-81557401D01*
X188213418Y-81556441D01*
X188193222Y-81552299D01*
X188189815Y-81551299D01*
X188189814Y-81551298D01*
X188189808Y-81551297D01*
X188189804Y-81551296D01*
X188189798Y-81551295D01*
X188146003Y-81544999D01*
X188146001Y-81544999D01*
X187820481Y-81544999D01*
X187801082Y-81543472D01*
X187772741Y-81538983D01*
X187735852Y-81526998D01*
X187732865Y-81525476D01*
X187701947Y-81513677D01*
X187701931Y-81513672D01*
X187679646Y-81507794D01*
X187651172Y-81500283D01*
X187651159Y-81500281D01*
X187651154Y-81500280D01*
X187618448Y-81495295D01*
X187618428Y-81495293D01*
X187600762Y-81494505D01*
X187534667Y-81471851D01*
X187491311Y-81417060D01*
X187482298Y-81369284D01*
X187505653Y-79228475D01*
X192479500Y-79228475D01*
X192479500Y-79991517D01*
X192490292Y-80059657D01*
X192494354Y-80085304D01*
X192551950Y-80198342D01*
X192551952Y-80198344D01*
X192551954Y-80198347D01*
X192641652Y-80288045D01*
X192641654Y-80288046D01*
X192641658Y-80288050D01*
X192754694Y-80345645D01*
X192754698Y-80345647D01*
X192848475Y-80360499D01*
X192848481Y-80360500D01*
X194211518Y-80360499D01*
X194305304Y-80345646D01*
X194418342Y-80288050D01*
X194508050Y-80198342D01*
X194565646Y-80085304D01*
X194565646Y-80085302D01*
X194565647Y-80085301D01*
X194580499Y-79991524D01*
X194580500Y-79991519D01*
X194580499Y-79228482D01*
X194565646Y-79134696D01*
X194508050Y-79021658D01*
X194508046Y-79021654D01*
X194508045Y-79021652D01*
X194418347Y-78931954D01*
X194418344Y-78931952D01*
X194418342Y-78931950D01*
X194341517Y-78892805D01*
X194305301Y-78874352D01*
X194211524Y-78859500D01*
X192848482Y-78859500D01*
X192767519Y-78872323D01*
X192754696Y-78874354D01*
X192641658Y-78931950D01*
X192641657Y-78931951D01*
X192641652Y-78931954D01*
X192551954Y-79021652D01*
X192551951Y-79021657D01*
X192551950Y-79021658D01*
X192532751Y-79059337D01*
X192494352Y-79134698D01*
X192479500Y-79228475D01*
X187505653Y-79228475D01*
X187507893Y-79023147D01*
X187528308Y-78956327D01*
X187581608Y-78911150D01*
X187631886Y-78900500D01*
X188029920Y-78900500D01*
X188029928Y-78900501D01*
X188044362Y-78900501D01*
X188134071Y-78900501D01*
X188134072Y-78900501D01*
X188198397Y-78873856D01*
X188216953Y-78866170D01*
X188280387Y-78802736D01*
X188280387Y-78802734D01*
X188850294Y-78232827D01*
X188850297Y-78232825D01*
X188867735Y-78215387D01*
X188867736Y-78215387D01*
X188931170Y-78151953D01*
X188931170Y-78151951D01*
X188931172Y-78151950D01*
X188954843Y-78094800D01*
X188965500Y-78069072D01*
X188965500Y-78055951D01*
X188985185Y-77988912D01*
X189009702Y-77961039D01*
X189023238Y-77949658D01*
X189062765Y-77932206D01*
X189142206Y-77852765D01*
X189144403Y-77847788D01*
X189160202Y-77834506D01*
X189177325Y-77826992D01*
X189191810Y-77815165D01*
X189208656Y-77813243D01*
X189224183Y-77806431D01*
X189242650Y-77809367D01*
X189261230Y-77807249D01*
X189276441Y-77814741D01*
X189293186Y-77817404D01*
X189307133Y-77829858D01*
X189323910Y-77838121D01*
X189329609Y-77844699D01*
X189329669Y-77844640D01*
X189353181Y-77868152D01*
X189386666Y-77929475D01*
X189389500Y-77955833D01*
X189389500Y-77966144D01*
X189409753Y-78041731D01*
X189413387Y-78055290D01*
X189413388Y-78055293D01*
X189459526Y-78135205D01*
X189459529Y-78135209D01*
X189459531Y-78135212D01*
X189524788Y-78200469D01*
X189524791Y-78200470D01*
X189524794Y-78200473D01*
X189604706Y-78246611D01*
X189604707Y-78246611D01*
X189604712Y-78246614D01*
X189693856Y-78270500D01*
X189693858Y-78270500D01*
X189786142Y-78270500D01*
X189786144Y-78270500D01*
X189875288Y-78246614D01*
X189955212Y-78200469D01*
X190020469Y-78135212D01*
X190066614Y-78055288D01*
X190090500Y-77966144D01*
X190090500Y-77955833D01*
X190110185Y-77888794D01*
X190126819Y-77868152D01*
X190142206Y-77852765D01*
X190187585Y-77749991D01*
X190190500Y-77724865D01*
X190190499Y-76783856D01*
X192219500Y-76783856D01*
X192219500Y-76876143D01*
X192243387Y-76965290D01*
X192243388Y-76965293D01*
X192289526Y-77045205D01*
X192289529Y-77045209D01*
X192289531Y-77045212D01*
X192354788Y-77110469D01*
X192354791Y-77110470D01*
X192354794Y-77110473D01*
X192434706Y-77156611D01*
X192434707Y-77156611D01*
X192434712Y-77156614D01*
X192523856Y-77180500D01*
X192523858Y-77180500D01*
X192616142Y-77180500D01*
X192616144Y-77180500D01*
X192705288Y-77156614D01*
X192785212Y-77110469D01*
X192850469Y-77045212D01*
X192896614Y-76965288D01*
X192920500Y-76876144D01*
X192920500Y-76783856D01*
X192896614Y-76694712D01*
X192861244Y-76633450D01*
X192850473Y-76614794D01*
X192850470Y-76614791D01*
X192850469Y-76614788D01*
X192785212Y-76549531D01*
X192785209Y-76549529D01*
X192785205Y-76549526D01*
X192705293Y-76503388D01*
X192705290Y-76503387D01*
X192705289Y-76503386D01*
X192705288Y-76503386D01*
X192616144Y-76479500D01*
X192523856Y-76479500D01*
X192434712Y-76503386D01*
X192434711Y-76503386D01*
X192434709Y-76503387D01*
X192434706Y-76503388D01*
X192354794Y-76549526D01*
X192354785Y-76549533D01*
X192289533Y-76614785D01*
X192289526Y-76614794D01*
X192243388Y-76694706D01*
X192243387Y-76694709D01*
X192219500Y-76783856D01*
X190190499Y-76783856D01*
X190190499Y-76484499D01*
X190210184Y-76417461D01*
X190262988Y-76371706D01*
X190314499Y-76360500D01*
X190376142Y-76360500D01*
X190376144Y-76360500D01*
X190465288Y-76336614D01*
X190545212Y-76290469D01*
X190610469Y-76225212D01*
X190656614Y-76145288D01*
X190680500Y-76056144D01*
X190680500Y-75963856D01*
X190656614Y-75874712D01*
X190635179Y-75837586D01*
X190610473Y-75794794D01*
X190610470Y-75794791D01*
X190610469Y-75794788D01*
X190607861Y-75792180D01*
X190606365Y-75789441D01*
X190605522Y-75788342D01*
X190605693Y-75788210D01*
X190574376Y-75730857D01*
X190579360Y-75661165D01*
X190621232Y-75605232D01*
X190686696Y-75580815D01*
X190695515Y-75580499D01*
X191421518Y-75580499D01*
X191515304Y-75565646D01*
X191628342Y-75508050D01*
X191718050Y-75418342D01*
X191775646Y-75305304D01*
X191775646Y-75305302D01*
X191775647Y-75305301D01*
X191790499Y-75211524D01*
X191790500Y-75211519D01*
X191790499Y-73848482D01*
X191775646Y-73754696D01*
X191718050Y-73641658D01*
X191718046Y-73641654D01*
X191718045Y-73641652D01*
X191628347Y-73551954D01*
X191628344Y-73551952D01*
X191628342Y-73551950D01*
X191551517Y-73512805D01*
X191515301Y-73494352D01*
X191421524Y-73479500D01*
X190658482Y-73479500D01*
X190577519Y-73492323D01*
X190564696Y-73494354D01*
X190451658Y-73551950D01*
X190451657Y-73551951D01*
X190451652Y-73551954D01*
X190361954Y-73641652D01*
X190361951Y-73641657D01*
X190304352Y-73754698D01*
X190289500Y-73848475D01*
X190289500Y-75211517D01*
X190294765Y-75244757D01*
X190304354Y-75305304D01*
X190361950Y-75418342D01*
X190361952Y-75418344D01*
X190361954Y-75418347D01*
X190391426Y-75447819D01*
X190424911Y-75509142D01*
X190419927Y-75578834D01*
X190378055Y-75634767D01*
X190312591Y-75659184D01*
X190303745Y-75659500D01*
X190283856Y-75659500D01*
X190194712Y-75683386D01*
X190194711Y-75683386D01*
X190194709Y-75683387D01*
X190194706Y-75683388D01*
X190114794Y-75729526D01*
X190114785Y-75729533D01*
X190049533Y-75794785D01*
X190049526Y-75794794D01*
X190003388Y-75874706D01*
X190003387Y-75874709D01*
X190003386Y-75874711D01*
X190003386Y-75874712D01*
X189991998Y-75917214D01*
X189979500Y-75963856D01*
X189979500Y-76005500D01*
X189976949Y-76014185D01*
X189978238Y-76023147D01*
X189967259Y-76047187D01*
X189959815Y-76072539D01*
X189952974Y-76078466D01*
X189949213Y-76086703D01*
X189926978Y-76100992D01*
X189907011Y-76118294D01*
X189896496Y-76120581D01*
X189890435Y-76124477D01*
X189855500Y-76129500D01*
X189666892Y-76129500D01*
X189599853Y-76109815D01*
X189554098Y-76057011D01*
X189544154Y-75987853D01*
X189547112Y-75973426D01*
X189570500Y-75886144D01*
X189570500Y-75793856D01*
X189546614Y-75704712D01*
X189544686Y-75701372D01*
X189500473Y-75624794D01*
X189500470Y-75624791D01*
X189500469Y-75624788D01*
X189435212Y-75559531D01*
X189435209Y-75559529D01*
X189435205Y-75559526D01*
X189355293Y-75513388D01*
X189355290Y-75513387D01*
X189355289Y-75513386D01*
X189355288Y-75513386D01*
X189266144Y-75489500D01*
X189173856Y-75489500D01*
X189084712Y-75513386D01*
X189084711Y-75513386D01*
X189084709Y-75513387D01*
X189084706Y-75513388D01*
X189004794Y-75559526D01*
X189004785Y-75559533D01*
X188939533Y-75624785D01*
X188939526Y-75624794D01*
X188893388Y-75704706D01*
X188893387Y-75704709D01*
X188893386Y-75704711D01*
X188893386Y-75704712D01*
X188869500Y-75793856D01*
X188869500Y-75886144D01*
X188887950Y-75955000D01*
X188892882Y-75973407D01*
X188891219Y-76043257D01*
X188852056Y-76101119D01*
X188787828Y-76128623D01*
X188773108Y-76129500D01*
X188545143Y-76129500D01*
X188545117Y-76129502D01*
X188520012Y-76132413D01*
X188520008Y-76132415D01*
X188417235Y-76177793D01*
X188417234Y-76177794D01*
X188329669Y-76265360D01*
X188327251Y-76262942D01*
X188288171Y-76294842D01*
X188218750Y-76302747D01*
X188156076Y-76271865D01*
X188150389Y-76265301D01*
X188150331Y-76265360D01*
X188062765Y-76177794D01*
X187959992Y-76132415D01*
X187934865Y-76129500D01*
X187545143Y-76129500D01*
X187545117Y-76129502D01*
X187520012Y-76132413D01*
X187511011Y-76134863D01*
X187510301Y-76132253D01*
X187455330Y-76139441D01*
X187392151Y-76109606D01*
X187355131Y-76050350D01*
X187354770Y-75984849D01*
X187370500Y-75926144D01*
X187370500Y-75833856D01*
X187346614Y-75744712D01*
X187338615Y-75730857D01*
X187300473Y-75664794D01*
X187300470Y-75664791D01*
X187300469Y-75664788D01*
X187235212Y-75599531D01*
X187235209Y-75599529D01*
X187235205Y-75599526D01*
X187155293Y-75553388D01*
X187155290Y-75553387D01*
X187155289Y-75553386D01*
X187155288Y-75553386D01*
X187066144Y-75529500D01*
X186973856Y-75529500D01*
X186884712Y-75553386D01*
X186884711Y-75553386D01*
X186884709Y-75553387D01*
X186884706Y-75553388D01*
X186804794Y-75599526D01*
X186804785Y-75599533D01*
X186739533Y-75664785D01*
X186739526Y-75664794D01*
X186693388Y-75744706D01*
X186693387Y-75744709D01*
X186693386Y-75744711D01*
X186693386Y-75744712D01*
X186669500Y-75833856D01*
X186669500Y-75926144D01*
X186693090Y-76014185D01*
X186693387Y-76015290D01*
X186693388Y-76015293D01*
X186739526Y-76095205D01*
X186739529Y-76095209D01*
X186739531Y-76095212D01*
X186804788Y-76160469D01*
X186804791Y-76160470D01*
X186804794Y-76160473D01*
X186884706Y-76206611D01*
X186884707Y-76206611D01*
X186884712Y-76206614D01*
X186973856Y-76230500D01*
X186973858Y-76230500D01*
X187066141Y-76230500D01*
X187066144Y-76230500D01*
X187139836Y-76210754D01*
X187209683Y-76212417D01*
X187267545Y-76251579D01*
X187295050Y-76315807D01*
X187292495Y-76350629D01*
X187293490Y-76350745D01*
X187289500Y-76385131D01*
X187289500Y-77724856D01*
X187289502Y-77724882D01*
X187292413Y-77749987D01*
X187292415Y-77749991D01*
X187337793Y-77852764D01*
X187337794Y-77852765D01*
X187417235Y-77932206D01*
X187440587Y-77942517D01*
X187493961Y-77987601D01*
X187501093Y-77999870D01*
X187514499Y-78026307D01*
X187514499Y-78064855D01*
X187526903Y-78094800D01*
X187548830Y-78147736D01*
X187604099Y-78203005D01*
X187613037Y-78220631D01*
X187615954Y-78236335D01*
X187623609Y-78250353D01*
X187626443Y-78276711D01*
X187626443Y-78303085D01*
X187627263Y-78309313D01*
X187616498Y-78378348D01*
X187570119Y-78430605D01*
X187504324Y-78449500D01*
X187001636Y-78449500D01*
X186934597Y-78429815D01*
X186930847Y-78427308D01*
X186860433Y-78378348D01*
X186254921Y-77957327D01*
X186215901Y-77913121D01*
X185087627Y-75762096D01*
X185073920Y-75693586D01*
X185099428Y-75628539D01*
X185156054Y-75587609D01*
X185197434Y-75580499D01*
X185821518Y-75580499D01*
X185915304Y-75565646D01*
X186028342Y-75508050D01*
X186118050Y-75418342D01*
X186175646Y-75305304D01*
X186175646Y-75305302D01*
X186175647Y-75305301D01*
X186190500Y-75211524D01*
X186190500Y-74973856D01*
X187449500Y-74973856D01*
X187449500Y-75066144D01*
X187465822Y-75127060D01*
X187473387Y-75155290D01*
X187473388Y-75155293D01*
X187519526Y-75235205D01*
X187519529Y-75235209D01*
X187519531Y-75235212D01*
X187584788Y-75300469D01*
X187584791Y-75300470D01*
X187584794Y-75300473D01*
X187664706Y-75346611D01*
X187664707Y-75346611D01*
X187664712Y-75346614D01*
X187753856Y-75370500D01*
X187753858Y-75370500D01*
X187846142Y-75370500D01*
X187846144Y-75370500D01*
X187935288Y-75346614D01*
X188006660Y-75305406D01*
X188074558Y-75288933D01*
X188130659Y-75305406D01*
X188174165Y-75330524D01*
X188184708Y-75336612D01*
X188184712Y-75336614D01*
X188273856Y-75360500D01*
X188273858Y-75360500D01*
X188366142Y-75360500D01*
X188366144Y-75360500D01*
X188455288Y-75336614D01*
X188535212Y-75290469D01*
X188600469Y-75225212D01*
X188646614Y-75145288D01*
X188670500Y-75056144D01*
X188670500Y-74963856D01*
X188646614Y-74874712D01*
X188646611Y-74874706D01*
X188600473Y-74794794D01*
X188600470Y-74794791D01*
X188600469Y-74794788D01*
X188535212Y-74729531D01*
X188535209Y-74729529D01*
X188535205Y-74729526D01*
X188455293Y-74683388D01*
X188455290Y-74683387D01*
X188455289Y-74683386D01*
X188455288Y-74683386D01*
X188366144Y-74659500D01*
X188273856Y-74659500D01*
X188184712Y-74683386D01*
X188184711Y-74683386D01*
X188184709Y-74683387D01*
X188184708Y-74683387D01*
X188113339Y-74724593D01*
X188045439Y-74741066D01*
X187989337Y-74724592D01*
X187935290Y-74693386D01*
X187875858Y-74677462D01*
X187846144Y-74669500D01*
X187753856Y-74669500D01*
X187664712Y-74693386D01*
X187664711Y-74693386D01*
X187664709Y-74693387D01*
X187664706Y-74693388D01*
X187584794Y-74739526D01*
X187584785Y-74739533D01*
X187519533Y-74804785D01*
X187519526Y-74804794D01*
X187473388Y-74884706D01*
X187473387Y-74884709D01*
X187473386Y-74884711D01*
X187473386Y-74884712D01*
X187449500Y-74973856D01*
X186190500Y-74973856D01*
X186190500Y-74965729D01*
X186190499Y-73848482D01*
X186190498Y-73848475D01*
X186175646Y-73754696D01*
X186118050Y-73641658D01*
X186118046Y-73641654D01*
X186118045Y-73641652D01*
X186028347Y-73551954D01*
X186028344Y-73551952D01*
X186028342Y-73551950D01*
X185951517Y-73512805D01*
X185915301Y-73494352D01*
X185821524Y-73479500D01*
X185058481Y-73479500D01*
X185020166Y-73485569D01*
X184950873Y-73476613D01*
X184897421Y-73431616D01*
X184876783Y-73364864D01*
X184876774Y-73362207D01*
X184877365Y-73292136D01*
X193400000Y-73200000D01*
X193393821Y-72940500D01*
X194945500Y-72940500D01*
X195012539Y-72960185D01*
G37*
%TD.AperFunction*%
%TD*%
%TA.AperFunction,Conductor*%
%TO.N,GND*%
G36*
X176213287Y-78329862D02*
G01*
X176259208Y-78382522D01*
X176270575Y-78433811D01*
X176276381Y-79682062D01*
X176257008Y-79749193D01*
X176240063Y-79770320D01*
X175592019Y-80418364D01*
X175530696Y-80451849D01*
X175503489Y-80454680D01*
X174820000Y-80449999D01*
X174820000Y-81566000D01*
X174800315Y-81633039D01*
X174747511Y-81678794D01*
X174696000Y-81690000D01*
X173874500Y-81690000D01*
X173807461Y-81670315D01*
X173761706Y-81617511D01*
X173750500Y-81566000D01*
X173750500Y-81530010D01*
X173750499Y-81530007D01*
X173735200Y-81493071D01*
X173706928Y-81464799D01*
X173669992Y-81449500D01*
X173669991Y-81449500D01*
X172142990Y-81449500D01*
X172075951Y-81429815D01*
X172055309Y-81413181D01*
X171706819Y-81064691D01*
X171673334Y-81003368D01*
X171670500Y-80977010D01*
X171670500Y-79842990D01*
X171690185Y-79775951D01*
X171706819Y-79755309D01*
X172055309Y-79406819D01*
X172116632Y-79373334D01*
X172142990Y-79370500D01*
X173669989Y-79370500D01*
X173669991Y-79370500D01*
X173706929Y-79355200D01*
X173735200Y-79326929D01*
X173735201Y-79326926D01*
X173736417Y-79325108D01*
X173740093Y-79322035D01*
X173743836Y-79318293D01*
X173744171Y-79318628D01*
X173790030Y-79280304D01*
X173839518Y-79270000D01*
X173859999Y-79270000D01*
X173860000Y-79270000D01*
X173857896Y-78441503D01*
X173877411Y-78374417D01*
X173930098Y-78328528D01*
X173981503Y-78317192D01*
X176146186Y-78310389D01*
X176213287Y-78329862D01*
G37*
%TD.AperFunction*%
%TD*%
%TA.AperFunction,Conductor*%
%TO.N,Net-(IC3-FB)*%
G36*
X189057073Y-86510707D02*
G01*
X189257595Y-86530759D01*
X189322340Y-86557016D01*
X189362614Y-86614110D01*
X189369219Y-86651218D01*
X189394425Y-87719532D01*
X189394426Y-87719532D01*
X189397677Y-87857331D01*
X189397676Y-87857334D01*
X189417118Y-88681328D01*
X189420812Y-88711547D01*
X189431339Y-88758687D01*
X189431340Y-88758692D01*
X189440854Y-88787617D01*
X189440856Y-88787624D01*
X189454433Y-88818372D01*
X189464999Y-88868458D01*
X189464999Y-89277880D01*
X189461499Y-89307133D01*
X189459616Y-89314889D01*
X189458675Y-89317021D01*
X189448407Y-89349526D01*
X189437875Y-89402531D01*
X189437617Y-89405505D01*
X189435799Y-89412997D01*
X189421209Y-89438258D01*
X189409130Y-89464811D01*
X189403942Y-89468155D01*
X189400855Y-89473501D01*
X189374922Y-89486864D01*
X189350407Y-89502670D01*
X189341974Y-89503843D01*
X189338747Y-89505507D01*
X189333576Y-89505012D01*
X189314001Y-89507737D01*
X187684834Y-89490678D01*
X187618004Y-89470293D01*
X187583564Y-89436369D01*
X186830199Y-88327484D01*
X186819332Y-88307885D01*
X186817548Y-88303844D01*
X186785599Y-88231486D01*
X186703514Y-88149401D01*
X186677788Y-88138042D01*
X186597321Y-88102512D01*
X186571357Y-88099500D01*
X186083651Y-88099500D01*
X186083627Y-88099502D01*
X186057685Y-88102510D01*
X186057678Y-88102512D01*
X185969172Y-88141591D01*
X185914843Y-88152083D01*
X185504869Y-88138042D01*
X185459029Y-88127550D01*
X185402324Y-88102513D01*
X185402320Y-88102512D01*
X185395829Y-88101759D01*
X185376360Y-88099500D01*
X185376357Y-88099500D01*
X185196090Y-88099500D01*
X185157673Y-88093399D01*
X184914668Y-88014217D01*
X184903308Y-88007249D01*
X184893658Y-88005150D01*
X184865404Y-87983999D01*
X184831110Y-87949705D01*
X184813670Y-87932264D01*
X184750236Y-87868830D01*
X184750235Y-87868829D01*
X184725957Y-87858772D01*
X184725957Y-87858771D01*
X184667358Y-87834500D01*
X184667356Y-87834499D01*
X184667355Y-87834499D01*
X184577645Y-87834499D01*
X184563211Y-87834499D01*
X184563203Y-87834500D01*
X184534767Y-87834500D01*
X184467728Y-87814815D01*
X184447086Y-87798181D01*
X184426819Y-87777914D01*
X184393334Y-87716591D01*
X184390500Y-87690233D01*
X184390500Y-87074000D01*
X184410185Y-87006961D01*
X184462989Y-86961206D01*
X184514500Y-86950000D01*
X184804734Y-86950000D01*
X184834808Y-86953702D01*
X186180000Y-87290000D01*
X187040000Y-87330000D01*
X187048588Y-87103856D01*
X187739500Y-87103856D01*
X187739500Y-87196144D01*
X187760629Y-87275000D01*
X187763387Y-87285290D01*
X187763388Y-87285293D01*
X187809526Y-87365205D01*
X187809533Y-87365214D01*
X187816018Y-87371699D01*
X187849503Y-87433022D01*
X187844519Y-87502714D01*
X187835724Y-87521380D01*
X187793387Y-87594708D01*
X187793387Y-87594709D01*
X187793386Y-87594711D01*
X187793386Y-87594712D01*
X187769500Y-87683856D01*
X187769500Y-87776144D01*
X187789319Y-87850111D01*
X187793387Y-87865290D01*
X187793388Y-87865293D01*
X187839526Y-87945205D01*
X187844478Y-87951658D01*
X187843435Y-87952458D01*
X187872900Y-88006419D01*
X187867916Y-88076111D01*
X187859122Y-88094775D01*
X187853388Y-88104706D01*
X187853387Y-88104709D01*
X187853386Y-88104711D01*
X187853386Y-88104712D01*
X187829500Y-88193856D01*
X187829500Y-88286144D01*
X187835325Y-88307885D01*
X187853387Y-88375290D01*
X187853388Y-88375293D01*
X187899526Y-88455205D01*
X187899529Y-88455209D01*
X187899531Y-88455212D01*
X187964788Y-88520469D01*
X187964791Y-88520470D01*
X187964794Y-88520473D01*
X188044706Y-88566611D01*
X188044707Y-88566611D01*
X188044712Y-88566614D01*
X188133856Y-88590500D01*
X188133858Y-88590500D01*
X188226142Y-88590500D01*
X188226144Y-88590500D01*
X188315288Y-88566614D01*
X188395212Y-88520469D01*
X188460469Y-88455212D01*
X188506614Y-88375288D01*
X188530500Y-88286144D01*
X188530500Y-88252251D01*
X188550185Y-88185212D01*
X188602989Y-88139457D01*
X188672147Y-88129513D01*
X188686574Y-88132471D01*
X188753856Y-88150500D01*
X188753859Y-88150500D01*
X188846142Y-88150500D01*
X188846144Y-88150500D01*
X188935288Y-88126614D01*
X189015212Y-88080469D01*
X189080469Y-88015212D01*
X189126614Y-87935288D01*
X189150500Y-87846144D01*
X189150500Y-87753856D01*
X189126614Y-87664712D01*
X189086199Y-87594712D01*
X189080473Y-87584794D01*
X189080470Y-87584791D01*
X189080469Y-87584788D01*
X189015212Y-87519531D01*
X189015209Y-87519529D01*
X189015205Y-87519526D01*
X188935293Y-87473388D01*
X188935290Y-87473387D01*
X188935289Y-87473386D01*
X188935288Y-87473386D01*
X188846144Y-87449500D01*
X188753856Y-87449500D01*
X188664712Y-87473386D01*
X188664711Y-87473386D01*
X188664709Y-87473387D01*
X188664706Y-87473388D01*
X188584794Y-87519526D01*
X188584786Y-87519532D01*
X188582530Y-87521789D01*
X188580160Y-87523082D01*
X188578342Y-87524478D01*
X188578124Y-87524194D01*
X188573990Y-87526451D01*
X188568077Y-87534174D01*
X188543831Y-87542916D01*
X188521205Y-87555270D01*
X188511500Y-87554575D01*
X188502350Y-87557875D01*
X188477225Y-87552121D01*
X188451513Y-87550281D01*
X188441909Y-87544034D01*
X188434243Y-87542279D01*
X188419247Y-87529294D01*
X188406222Y-87520822D01*
X188400686Y-87515163D01*
X188400469Y-87514788D01*
X188393483Y-87507802D01*
X188393030Y-87507339D01*
X188376909Y-87477035D01*
X188360496Y-87446977D01*
X188360546Y-87446276D01*
X188360215Y-87445654D01*
X188363034Y-87411474D01*
X188365480Y-87377285D01*
X188365935Y-87376318D01*
X188365960Y-87376021D01*
X188366260Y-87375628D01*
X188374272Y-87358623D01*
X188409060Y-87298372D01*
X188416613Y-87285290D01*
X188416614Y-87285288D01*
X188440500Y-87196144D01*
X188440500Y-87103856D01*
X188416614Y-87014712D01*
X188385722Y-86961206D01*
X188370473Y-86934794D01*
X188370470Y-86934791D01*
X188370469Y-86934788D01*
X188305212Y-86869531D01*
X188305209Y-86869529D01*
X188305205Y-86869526D01*
X188225293Y-86823388D01*
X188225290Y-86823387D01*
X188225289Y-86823386D01*
X188225288Y-86823386D01*
X188136144Y-86799500D01*
X188043856Y-86799500D01*
X187954712Y-86823386D01*
X187954711Y-86823386D01*
X187954709Y-86823387D01*
X187954706Y-86823388D01*
X187874794Y-86869526D01*
X187874785Y-86869533D01*
X187809533Y-86934785D01*
X187809526Y-86934794D01*
X187763388Y-87014706D01*
X187763387Y-87014709D01*
X187763386Y-87014711D01*
X187763386Y-87014712D01*
X187739500Y-87103856D01*
X187048588Y-87103856D01*
X187065538Y-86657495D01*
X187087752Y-86591254D01*
X187142254Y-86547536D01*
X187187565Y-86538218D01*
X189042889Y-86510107D01*
X189057073Y-86510707D01*
G37*
%TD.AperFunction*%
%TD*%
%TA.AperFunction,Conductor*%
%TO.N,VIN*%
G36*
X176462810Y-84650640D02*
G01*
X176509438Y-84702674D01*
X176521509Y-84754555D01*
X176560000Y-87929996D01*
X176560000Y-87930001D01*
X176670000Y-88389999D01*
X176670000Y-88390000D01*
X176861704Y-88388398D01*
X176901059Y-88394464D01*
X176904694Y-88395645D01*
X176904696Y-88395646D01*
X176904697Y-88395646D01*
X176904700Y-88395647D01*
X176998475Y-88410499D01*
X176998481Y-88410500D01*
X178706846Y-88410499D01*
X178773885Y-88430184D01*
X178819640Y-88482987D01*
X178826944Y-88508415D01*
X178827397Y-88508294D01*
X178853387Y-88605290D01*
X178853388Y-88605293D01*
X178899526Y-88685205D01*
X178899529Y-88685209D01*
X178899531Y-88685212D01*
X178964788Y-88750469D01*
X178964791Y-88750470D01*
X178964794Y-88750473D01*
X179044706Y-88796611D01*
X179044707Y-88796611D01*
X179044712Y-88796614D01*
X179133856Y-88820500D01*
X179133858Y-88820500D01*
X179226142Y-88820500D01*
X179226144Y-88820500D01*
X179315288Y-88796614D01*
X179395212Y-88750469D01*
X179460469Y-88685212D01*
X179506614Y-88605288D01*
X179529651Y-88519311D01*
X179531384Y-88516468D01*
X179531478Y-88513134D01*
X179549444Y-88486836D01*
X179566013Y-88459654D01*
X179569571Y-88457377D01*
X179570893Y-88455444D01*
X179579475Y-88451043D01*
X179601110Y-88437206D01*
X179609013Y-88433862D01*
X179676479Y-88415785D01*
X179744297Y-88376629D01*
X179751342Y-88373649D01*
X179770956Y-88371390D01*
X179798614Y-88363855D01*
X180260000Y-88360000D01*
X181630000Y-87880000D01*
X182827298Y-87003927D01*
X182893025Y-86980227D01*
X182900521Y-86980000D01*
X183165500Y-86980000D01*
X183232539Y-86999685D01*
X183278294Y-87052489D01*
X183289500Y-87104000D01*
X183289500Y-87824820D01*
X183289500Y-87824822D01*
X183289499Y-87824822D01*
X183298231Y-87868717D01*
X183298233Y-87868723D01*
X183330080Y-87916386D01*
X183350957Y-87983063D01*
X183350970Y-87983920D01*
X183358636Y-88685205D01*
X183360000Y-88810000D01*
X183399359Y-88950567D01*
X183495651Y-89294469D01*
X183500230Y-89326132D01*
X183518203Y-90584229D01*
X183499478Y-90651543D01*
X183447333Y-90698047D01*
X183394216Y-90710000D01*
X180691793Y-90710000D01*
X180677248Y-90706270D01*
X180665170Y-90707108D01*
X180632128Y-90694702D01*
X180623864Y-90690166D01*
X180574567Y-90640652D01*
X180563756Y-90613562D01*
X180551784Y-90568880D01*
X180543886Y-90555200D01*
X180505643Y-90488962D01*
X180505640Y-90488959D01*
X180505639Y-90488956D01*
X180505329Y-90488646D01*
X180505152Y-90488323D01*
X180500692Y-90482510D01*
X180501598Y-90481814D01*
X180471844Y-90427323D01*
X180476828Y-90357631D01*
X180485624Y-90338963D01*
X180516613Y-90285290D01*
X180516614Y-90285288D01*
X180540500Y-90196144D01*
X180540500Y-90103856D01*
X180516614Y-90014712D01*
X180516611Y-90014706D01*
X180470473Y-89934794D01*
X180470470Y-89934791D01*
X180470469Y-89934788D01*
X180405212Y-89869531D01*
X180405209Y-89869529D01*
X180405205Y-89869526D01*
X180325293Y-89823388D01*
X180325290Y-89823387D01*
X180325289Y-89823386D01*
X180325288Y-89823386D01*
X180236144Y-89799500D01*
X180143856Y-89799500D01*
X180054712Y-89823386D01*
X180054711Y-89823386D01*
X180054709Y-89823387D01*
X180054704Y-89823388D01*
X180044017Y-89829559D01*
X179976116Y-89846029D01*
X179910090Y-89823175D01*
X179906536Y-89820547D01*
X179905208Y-89819528D01*
X179825293Y-89773388D01*
X179825290Y-89773387D01*
X179825289Y-89773386D01*
X179825288Y-89773386D01*
X179736144Y-89749500D01*
X179643856Y-89749500D01*
X179554712Y-89773386D01*
X179554711Y-89773386D01*
X179554709Y-89773387D01*
X179554706Y-89773388D01*
X179474794Y-89819526D01*
X179474785Y-89819533D01*
X179409533Y-89884785D01*
X179409526Y-89884794D01*
X179391188Y-89916556D01*
X179340620Y-89964770D01*
X179280074Y-89978497D01*
X173860771Y-89815438D01*
X173794354Y-89793746D01*
X173750207Y-89739590D01*
X173740500Y-89691494D01*
X173740500Y-88975181D01*
X173740500Y-88975180D01*
X173735603Y-88950563D01*
X173741829Y-88880976D01*
X173742633Y-88878983D01*
X173750500Y-88859991D01*
X173750500Y-88710009D01*
X173750500Y-87810009D01*
X173735200Y-87773071D01*
X173706929Y-87744800D01*
X173706928Y-87744799D01*
X173669992Y-87729500D01*
X173669991Y-87729500D01*
X172142990Y-87729500D01*
X172075951Y-87709815D01*
X172055309Y-87693181D01*
X171696819Y-87334691D01*
X171663334Y-87273368D01*
X171660500Y-87247010D01*
X171660500Y-86112990D01*
X171680185Y-86045951D01*
X171696819Y-86025309D01*
X172005309Y-85716819D01*
X172066632Y-85683334D01*
X172092990Y-85680500D01*
X173669989Y-85680500D01*
X173669991Y-85680500D01*
X173706929Y-85665200D01*
X173735200Y-85636929D01*
X173736793Y-85633084D01*
X173780632Y-85578680D01*
X173846926Y-85556613D01*
X173853067Y-85556546D01*
X174100000Y-85560000D01*
X174117321Y-84789208D01*
X174138507Y-84722629D01*
X174192326Y-84678072D01*
X174239219Y-84668013D01*
X176395454Y-84632075D01*
X176462810Y-84650640D01*
G37*
%TD.AperFunction*%
%TD*%
%TA.AperFunction,Conductor*%
%TO.N,3.3VEN*%
G36*
X190891664Y-92010590D02*
G01*
X190937859Y-92063009D01*
X190949500Y-92115463D01*
X190949500Y-93391671D01*
X190929815Y-93458710D01*
X190877011Y-93504465D01*
X190807853Y-93514409D01*
X190793410Y-93511447D01*
X190786144Y-93509500D01*
X190693856Y-93509500D01*
X190604712Y-93533386D01*
X190604711Y-93533386D01*
X190604709Y-93533387D01*
X190604706Y-93533388D01*
X190524794Y-93579526D01*
X190524785Y-93579533D01*
X190459533Y-93644785D01*
X190459526Y-93644794D01*
X190413388Y-93724706D01*
X190413387Y-93724709D01*
X190389500Y-93813856D01*
X190389500Y-93914271D01*
X190387707Y-93914271D01*
X190378493Y-93973351D01*
X190332112Y-94025606D01*
X190266320Y-94044500D01*
X190124428Y-94044500D01*
X190091372Y-94048054D01*
X190091363Y-94048055D01*
X190039859Y-94059260D01*
X190039853Y-94059262D01*
X189971076Y-94093691D01*
X189952338Y-94109930D01*
X189888783Y-94138956D01*
X189870906Y-94140219D01*
X188733773Y-94138139D01*
X188666770Y-94118332D01*
X188621112Y-94065444D01*
X188610000Y-94014139D01*
X188610000Y-92132966D01*
X188629685Y-92065927D01*
X188682489Y-92020172D01*
X188732957Y-92008971D01*
X190824466Y-91991468D01*
X190891664Y-92010590D01*
G37*
%TD.AperFunction*%
%TD*%
%TA.AperFunction,Conductor*%
%TO.N,ADC1_IN3_VBAT*%
G36*
X174821866Y-82149685D02*
G01*
X174856959Y-82183679D01*
X175217721Y-82707642D01*
X175239526Y-82774022D01*
X175239582Y-82779282D01*
X175230373Y-83644875D01*
X175211259Y-83709710D01*
X174856116Y-84272742D01*
X174803701Y-84318942D01*
X174752306Y-84330583D01*
X173875569Y-84338140D01*
X173808362Y-84319034D01*
X173762154Y-84266627D01*
X173750500Y-84214145D01*
X173750500Y-82254000D01*
X173770185Y-82186961D01*
X173822989Y-82141206D01*
X173874500Y-82130000D01*
X174754827Y-82130000D01*
X174821866Y-82149685D01*
G37*
%TD.AperFunction*%
%TD*%
%TA.AperFunction,Conductor*%
%TO.N,Net-(D2-K)*%
G36*
X182001562Y-80195185D02*
G01*
X182022204Y-80211819D01*
X182401265Y-80590880D01*
X182434750Y-80652203D01*
X182436552Y-80662596D01*
X182643272Y-82254779D01*
X182632383Y-82323794D01*
X182585909Y-82375967D01*
X182518607Y-82394732D01*
X182488616Y-82388706D01*
X182488139Y-82390490D01*
X182480289Y-82388386D01*
X182480288Y-82388386D01*
X182391144Y-82364500D01*
X182298856Y-82364500D01*
X182209712Y-82388386D01*
X182209711Y-82388386D01*
X182209709Y-82388387D01*
X182209706Y-82388388D01*
X182129794Y-82434526D01*
X182129785Y-82434533D01*
X182064533Y-82499785D01*
X182064528Y-82499791D01*
X182046844Y-82530420D01*
X181996275Y-82578634D01*
X181927667Y-82591854D01*
X181862804Y-82565884D01*
X181851778Y-82556097D01*
X181815214Y-82519533D01*
X181815212Y-82519531D01*
X181815209Y-82519529D01*
X181815205Y-82519526D01*
X181735293Y-82473388D01*
X181735290Y-82473387D01*
X181735289Y-82473386D01*
X181735288Y-82473386D01*
X181646144Y-82449500D01*
X181553856Y-82449500D01*
X181464712Y-82473386D01*
X181464711Y-82473386D01*
X181464709Y-82473387D01*
X181464706Y-82473388D01*
X181384794Y-82519526D01*
X181384785Y-82519533D01*
X181319533Y-82584785D01*
X181319526Y-82584794D01*
X181273388Y-82664706D01*
X181273387Y-82664709D01*
X181249500Y-82753855D01*
X181248469Y-82761689D01*
X181220200Y-82825584D01*
X181161875Y-82864054D01*
X181125530Y-82869500D01*
X181043856Y-82869500D01*
X180954712Y-82893386D01*
X180954711Y-82893386D01*
X180954709Y-82893387D01*
X180954706Y-82893388D01*
X180874794Y-82939526D01*
X180874785Y-82939533D01*
X180809533Y-83004785D01*
X180809526Y-83004794D01*
X180763388Y-83084706D01*
X180763387Y-83084709D01*
X180763386Y-83084711D01*
X180763386Y-83084712D01*
X180739500Y-83173856D01*
X180739500Y-83266144D01*
X180759092Y-83339264D01*
X180763387Y-83355290D01*
X180763388Y-83355293D01*
X180809526Y-83435205D01*
X180809529Y-83435209D01*
X180809531Y-83435212D01*
X180874788Y-83500469D01*
X180874791Y-83500470D01*
X180874794Y-83500473D01*
X180954706Y-83546611D01*
X180954707Y-83546611D01*
X180954712Y-83546614D01*
X181043856Y-83570500D01*
X181043858Y-83570500D01*
X181136142Y-83570500D01*
X181136144Y-83570500D01*
X181225288Y-83546614D01*
X181305212Y-83500469D01*
X181370469Y-83435212D01*
X181416614Y-83355288D01*
X181440500Y-83266144D01*
X181440500Y-83266136D01*
X181441531Y-83258311D01*
X181469800Y-83194416D01*
X181528125Y-83155946D01*
X181564470Y-83150500D01*
X181646142Y-83150500D01*
X181646144Y-83150500D01*
X181735288Y-83126614D01*
X181815212Y-83080469D01*
X181880469Y-83015212D01*
X181898154Y-82984580D01*
X181948721Y-82936367D01*
X182017328Y-82923145D01*
X182082192Y-82949113D01*
X182093221Y-82958902D01*
X182129788Y-82995469D01*
X182129791Y-82995470D01*
X182129794Y-82995473D01*
X182209706Y-83041611D01*
X182209707Y-83041611D01*
X182209712Y-83041614D01*
X182298856Y-83065500D01*
X182298858Y-83065500D01*
X182391142Y-83065500D01*
X182391144Y-83065500D01*
X182480288Y-83041614D01*
X182480292Y-83041612D01*
X182498613Y-83031034D01*
X182560212Y-82995469D01*
X182560213Y-82995467D01*
X182565911Y-82992178D01*
X182633811Y-82975704D01*
X182699838Y-82998555D01*
X182743030Y-83053476D01*
X182750881Y-83083599D01*
X182839999Y-83769999D01*
X182839999Y-83770000D01*
X183062443Y-83894785D01*
X183133606Y-83934706D01*
X183188447Y-83965470D01*
X183237284Y-84015437D01*
X183251742Y-84070555D01*
X183266739Y-84677939D01*
X183264008Y-84688166D01*
X183265515Y-84698647D01*
X183255149Y-84721343D01*
X183248715Y-84745444D01*
X183240888Y-84752571D01*
X183236490Y-84762203D01*
X183215502Y-84775690D01*
X183197057Y-84792489D01*
X183185061Y-84795253D01*
X183177712Y-84799977D01*
X183142777Y-84805000D01*
X182952710Y-84805000D01*
X182928519Y-84802617D01*
X182919539Y-84800830D01*
X182919510Y-84800825D01*
X182904651Y-84798611D01*
X182880836Y-84796233D01*
X182880826Y-84796232D01*
X182865809Y-84795463D01*
X182865811Y-84795463D01*
X182685688Y-84794960D01*
X182582765Y-84794674D01*
X182582764Y-84794674D01*
X182582761Y-84794674D01*
X182554876Y-84797115D01*
X182511130Y-84804962D01*
X182511124Y-84804964D01*
X182445317Y-84833594D01*
X182445314Y-84833596D01*
X182389409Y-84875500D01*
X182358133Y-84906817D01*
X180894277Y-86864961D01*
X180878515Y-86891030D01*
X180857669Y-86934665D01*
X180857669Y-86934667D01*
X180842583Y-87007305D01*
X180842583Y-87007315D01*
X180844832Y-87069532D01*
X180827582Y-87137239D01*
X180821737Y-87146195D01*
X180116515Y-88131223D01*
X180061484Y-88174274D01*
X179991914Y-88180738D01*
X179929893Y-88148564D01*
X179895112Y-88087966D01*
X179891691Y-88059039D01*
X179891691Y-88043029D01*
X179891691Y-88043027D01*
X179867805Y-87953883D01*
X179867802Y-87953877D01*
X179821664Y-87873965D01*
X179821661Y-87873962D01*
X179821660Y-87873959D01*
X179756403Y-87808702D01*
X179756400Y-87808700D01*
X179756396Y-87808697D01*
X179676484Y-87762559D01*
X179676481Y-87762558D01*
X179676480Y-87762557D01*
X179676479Y-87762557D01*
X179587335Y-87738671D01*
X179495047Y-87738671D01*
X179405903Y-87762557D01*
X179405902Y-87762557D01*
X179405900Y-87762558D01*
X179405897Y-87762559D01*
X179325985Y-87808697D01*
X179325976Y-87808704D01*
X179260724Y-87873956D01*
X179260717Y-87873965D01*
X179214579Y-87953877D01*
X179214578Y-87953880D01*
X179214577Y-87953882D01*
X179214577Y-87953883D01*
X179198255Y-88014800D01*
X179191541Y-88039856D01*
X179155176Y-88099517D01*
X179103860Y-88127537D01*
X179044712Y-88143386D01*
X179044711Y-88143386D01*
X179044709Y-88143387D01*
X179044706Y-88143388D01*
X178964794Y-88189526D01*
X178964788Y-88189531D01*
X178935319Y-88218999D01*
X178873995Y-88252482D01*
X178845010Y-88255287D01*
X176882938Y-88213668D01*
X176856056Y-88205151D01*
X176828388Y-88199725D01*
X176823194Y-88194740D01*
X176816331Y-88192566D01*
X176798319Y-88170866D01*
X176777979Y-88151344D01*
X176774194Y-88141800D01*
X176771707Y-88138804D01*
X176764970Y-88118542D01*
X176721730Y-87937722D01*
X176718335Y-87909597D01*
X176700006Y-84601137D01*
X176700014Y-84598918D01*
X176707838Y-84023856D01*
X177779500Y-84023856D01*
X177779500Y-84116144D01*
X177790217Y-84156142D01*
X177803387Y-84205290D01*
X177803388Y-84205293D01*
X177849526Y-84285205D01*
X177849529Y-84285209D01*
X177849531Y-84285212D01*
X177914788Y-84350469D01*
X177914791Y-84350470D01*
X177914794Y-84350473D01*
X177994706Y-84396611D01*
X177994707Y-84396611D01*
X177994712Y-84396614D01*
X178083856Y-84420500D01*
X178083858Y-84420500D01*
X178176142Y-84420500D01*
X178176144Y-84420500D01*
X178265288Y-84396614D01*
X178345212Y-84350469D01*
X178410469Y-84285212D01*
X178456614Y-84205288D01*
X178480500Y-84116144D01*
X178480500Y-84063856D01*
X178989500Y-84063856D01*
X178989500Y-84156144D01*
X179002669Y-84205293D01*
X179013387Y-84245290D01*
X179013388Y-84245293D01*
X179059526Y-84325205D01*
X179059529Y-84325209D01*
X179059531Y-84325212D01*
X179124788Y-84390469D01*
X179124791Y-84390470D01*
X179124794Y-84390473D01*
X179204706Y-84436611D01*
X179204707Y-84436611D01*
X179204712Y-84436614D01*
X179293856Y-84460500D01*
X179293858Y-84460500D01*
X179386142Y-84460500D01*
X179386144Y-84460500D01*
X179475288Y-84436614D01*
X179555212Y-84390469D01*
X179620469Y-84325212D01*
X179666614Y-84245288D01*
X179690500Y-84156144D01*
X179690500Y-84063856D01*
X179666614Y-83974712D01*
X179666611Y-83974706D01*
X179620473Y-83894794D01*
X179620470Y-83894791D01*
X179620469Y-83894788D01*
X179555212Y-83829531D01*
X179555209Y-83829529D01*
X179555205Y-83829526D01*
X179475293Y-83783388D01*
X179475290Y-83783387D01*
X179475289Y-83783386D01*
X179475288Y-83783386D01*
X179386144Y-83759500D01*
X179293856Y-83759500D01*
X179204712Y-83783386D01*
X179204711Y-83783386D01*
X179204709Y-83783387D01*
X179204706Y-83783388D01*
X179124794Y-83829526D01*
X179124785Y-83829533D01*
X179059533Y-83894785D01*
X179059526Y-83894794D01*
X179013388Y-83974706D01*
X179013387Y-83974709D01*
X179013386Y-83974711D01*
X179013386Y-83974712D01*
X178989500Y-84063856D01*
X178480500Y-84063856D01*
X178480500Y-84023856D01*
X178456614Y-83934712D01*
X178433567Y-83894794D01*
X178410473Y-83854794D01*
X178410470Y-83854791D01*
X178410469Y-83854788D01*
X178345212Y-83789531D01*
X178345209Y-83789529D01*
X178345205Y-83789526D01*
X178265293Y-83743388D01*
X178265290Y-83743387D01*
X178265289Y-83743386D01*
X178265288Y-83743386D01*
X178176144Y-83719500D01*
X178083856Y-83719500D01*
X177994712Y-83743386D01*
X177994711Y-83743386D01*
X177994709Y-83743387D01*
X177994706Y-83743388D01*
X177914794Y-83789526D01*
X177914785Y-83789533D01*
X177849533Y-83854785D01*
X177849526Y-83854794D01*
X177803388Y-83934706D01*
X177803387Y-83934709D01*
X177803386Y-83934711D01*
X177803386Y-83934712D01*
X177779500Y-84023856D01*
X176707838Y-84023856D01*
X176719403Y-83173856D01*
X179789500Y-83173856D01*
X179789500Y-83266144D01*
X179809092Y-83339264D01*
X179813387Y-83355290D01*
X179813388Y-83355293D01*
X179859526Y-83435205D01*
X179859529Y-83435209D01*
X179859531Y-83435212D01*
X179924788Y-83500469D01*
X179924791Y-83500470D01*
X179924794Y-83500473D01*
X180004706Y-83546611D01*
X180004707Y-83546611D01*
X180004712Y-83546614D01*
X180093856Y-83570500D01*
X180093858Y-83570500D01*
X180186142Y-83570500D01*
X180186144Y-83570500D01*
X180275288Y-83546614D01*
X180355212Y-83500469D01*
X180420469Y-83435212D01*
X180466614Y-83355288D01*
X180490500Y-83266144D01*
X180490500Y-83173856D01*
X180466614Y-83084712D01*
X180466611Y-83084706D01*
X180420473Y-83004794D01*
X180420470Y-83004791D01*
X180420469Y-83004788D01*
X180355212Y-82939531D01*
X180355209Y-82939529D01*
X180355205Y-82939526D01*
X180275293Y-82893388D01*
X180275290Y-82893387D01*
X180275289Y-82893386D01*
X180275288Y-82893386D01*
X180186144Y-82869500D01*
X180093856Y-82869500D01*
X180004712Y-82893386D01*
X180004711Y-82893386D01*
X180004709Y-82893387D01*
X180004706Y-82893388D01*
X179924794Y-82939526D01*
X179924785Y-82939533D01*
X179859533Y-83004785D01*
X179859526Y-83004794D01*
X179813388Y-83084706D01*
X179813387Y-83084709D01*
X179813386Y-83084711D01*
X179813386Y-83084712D01*
X179789500Y-83173856D01*
X176719403Y-83173856D01*
X176758347Y-80311441D01*
X176778942Y-80244679D01*
X176832364Y-80199646D01*
X176881451Y-80189134D01*
X178793204Y-80175502D01*
X178794088Y-80175500D01*
X181934523Y-80175500D01*
X182001562Y-80195185D01*
G37*
%TD.AperFunction*%
%TD*%
%TA.AperFunction,Conductor*%
%TO.N,GND*%
G36*
X182865371Y-84950962D02*
G01*
X182889200Y-84953342D01*
X182925180Y-84960500D01*
X182925181Y-84960500D01*
X183254823Y-84960500D01*
X183270766Y-84957328D01*
X183284579Y-84954580D01*
X183309104Y-84952198D01*
X183372469Y-84952374D01*
X183396306Y-84954756D01*
X183425180Y-84960500D01*
X183754823Y-84960500D01*
X183775316Y-84956422D01*
X183777668Y-84955954D01*
X183802202Y-84953571D01*
X183879573Y-84953787D01*
X183903411Y-84956169D01*
X183906572Y-84956798D01*
X183925177Y-84960500D01*
X183925180Y-84960500D01*
X184254819Y-84960500D01*
X184254820Y-84960500D01*
X184270769Y-84957327D01*
X184295293Y-84954945D01*
X184386672Y-84955199D01*
X184410516Y-84957583D01*
X184425177Y-84960500D01*
X184425180Y-84960500D01*
X184474746Y-84960500D01*
X184491942Y-84961697D01*
X184515528Y-84965001D01*
X185945046Y-84959745D01*
X186012155Y-84979183D01*
X186058104Y-85031818D01*
X186069500Y-85083744D01*
X186069500Y-85545619D01*
X186072463Y-85571155D01*
X186072464Y-85571160D01*
X186090074Y-85611044D01*
X186100628Y-85662781D01*
X186097284Y-85913617D01*
X186081495Y-85964852D01*
X186084041Y-85965976D01*
X186032513Y-86082675D01*
X186032512Y-86082678D01*
X186029500Y-86108639D01*
X186029500Y-86596348D01*
X186029502Y-86596372D01*
X186032510Y-86622314D01*
X186032513Y-86622324D01*
X186075298Y-86719222D01*
X186077458Y-86729811D01*
X186081296Y-86735962D01*
X186085853Y-86770961D01*
X186083487Y-86948424D01*
X186062910Y-87015195D01*
X186009501Y-87060242D01*
X185940216Y-87069263D01*
X185929424Y-87067069D01*
X185099143Y-86859500D01*
X184872522Y-86802845D01*
X184872517Y-86802844D01*
X184853805Y-86799366D01*
X184823742Y-86795666D01*
X184823736Y-86795665D01*
X184823732Y-86795665D01*
X184823724Y-86795664D01*
X184823718Y-86795664D01*
X184804743Y-86794500D01*
X184804734Y-86794500D01*
X184514500Y-86794500D01*
X184514491Y-86794500D01*
X184481444Y-86798054D01*
X184429933Y-86809260D01*
X184354221Y-86847159D01*
X184353647Y-86846013D01*
X184294547Y-86864514D01*
X184268151Y-86862151D01*
X184254824Y-86859500D01*
X184254820Y-86859500D01*
X183925180Y-86859500D01*
X183925178Y-86859500D01*
X183881282Y-86868231D01*
X183881278Y-86868233D01*
X183865010Y-86879102D01*
X183798334Y-86899980D01*
X183796121Y-86900000D01*
X183750000Y-86900000D01*
X183769999Y-87769998D01*
X183770000Y-87770000D01*
X183779372Y-87790501D01*
X183779850Y-87793819D01*
X183781912Y-87796464D01*
X183787373Y-87819031D01*
X183788311Y-87818845D01*
X183798231Y-87868717D01*
X183798232Y-87868720D01*
X183798232Y-87868721D01*
X183798233Y-87868722D01*
X183829288Y-87915200D01*
X183838282Y-87928660D01*
X183836795Y-87929652D01*
X183852560Y-87950601D01*
X183930000Y-88120000D01*
X184079733Y-88120000D01*
X184109173Y-88128644D01*
X184139160Y-88135168D01*
X184144175Y-88138922D01*
X184146772Y-88139685D01*
X184167414Y-88156319D01*
X184191759Y-88180664D01*
X184191762Y-88180668D01*
X184191763Y-88180668D01*
X184198829Y-88187734D01*
X184198830Y-88187736D01*
X184262264Y-88251170D01*
X184271508Y-88254998D01*
X184271510Y-88255000D01*
X184271511Y-88255000D01*
X184345145Y-88285501D01*
X184345146Y-88285501D01*
X184402547Y-88285501D01*
X184469586Y-88305186D01*
X184515341Y-88357990D01*
X184526515Y-88406683D01*
X184539999Y-88999999D01*
X184540000Y-89000000D01*
X184765778Y-89005054D01*
X184813077Y-89015586D01*
X184862680Y-89037488D01*
X184888643Y-89040500D01*
X185376356Y-89040499D01*
X185402320Y-89037488D01*
X185416253Y-89031335D01*
X185469110Y-89020800D01*
X185880000Y-89030000D01*
X185851474Y-88430961D01*
X185858151Y-88403441D01*
X185861735Y-88375354D01*
X185866280Y-88369936D01*
X185867948Y-88363063D01*
X185888442Y-88343522D01*
X185906644Y-88321829D01*
X185914626Y-88318557D01*
X185918516Y-88314849D01*
X185938511Y-88306659D01*
X185945074Y-88304617D01*
X185998657Y-88294270D01*
X186031981Y-88283842D01*
X186079861Y-88262700D01*
X186086636Y-88260594D01*
X186097782Y-88260416D01*
X186123459Y-88255000D01*
X186531540Y-88255000D01*
X186581627Y-88265566D01*
X186592910Y-88270548D01*
X186630504Y-88296301D01*
X186638697Y-88304494D01*
X186664449Y-88342087D01*
X186677080Y-88370692D01*
X186683336Y-88383285D01*
X186683350Y-88383310D01*
X186694203Y-88402884D01*
X186694213Y-88402902D01*
X186701579Y-88414876D01*
X186993424Y-88844446D01*
X187005943Y-88867969D01*
X187459998Y-89999999D01*
X187459999Y-89999998D01*
X187460000Y-90000000D01*
X188345071Y-89991236D01*
X188412299Y-90010256D01*
X188458575Y-90062604D01*
X188470296Y-90114936D01*
X188474817Y-92023289D01*
X188469795Y-92058515D01*
X188460800Y-92089150D01*
X188460797Y-92089162D01*
X188454500Y-92132964D01*
X188454500Y-92925423D01*
X188434815Y-92992462D01*
X188422382Y-93007890D01*
X188419690Y-93011595D01*
X188363889Y-93121111D01*
X188349500Y-93211966D01*
X188349500Y-93748037D01*
X188363889Y-93838888D01*
X188363890Y-93838892D01*
X188424108Y-93957076D01*
X188437004Y-94025745D01*
X188410727Y-94090485D01*
X188353621Y-94130742D01*
X188313397Y-94137370D01*
X187986454Y-94136773D01*
X187919450Y-94116966D01*
X187873792Y-94064078D01*
X187863975Y-93994902D01*
X187876195Y-93956478D01*
X187880307Y-93948406D01*
X187880311Y-93948403D01*
X187936109Y-93838893D01*
X187950500Y-93748033D01*
X187950499Y-93211968D01*
X187950499Y-93211966D01*
X187950499Y-93211962D01*
X187936110Y-93121111D01*
X187936110Y-93121110D01*
X187936109Y-93121108D01*
X187936109Y-93121107D01*
X187880311Y-93011597D01*
X187880309Y-93011595D01*
X187880306Y-93011591D01*
X187793408Y-92924693D01*
X187793404Y-92924690D01*
X187793403Y-92924689D01*
X187683893Y-92868891D01*
X187683891Y-92868890D01*
X187683888Y-92868889D01*
X187593033Y-92854500D01*
X186956962Y-92854500D01*
X186956962Y-92854501D01*
X186866111Y-92868889D01*
X186866110Y-92868889D01*
X186756595Y-92924690D01*
X186756591Y-92924693D01*
X186669693Y-93011591D01*
X186669690Y-93011595D01*
X186613890Y-93121108D01*
X186613890Y-93121111D01*
X186609330Y-93149898D01*
X186594733Y-93180692D01*
X186580571Y-93211703D01*
X186579796Y-93212200D01*
X186579403Y-93213031D01*
X186550477Y-93231042D01*
X186521793Y-93249477D01*
X186520597Y-93249648D01*
X186520093Y-93249963D01*
X186486858Y-93254500D01*
X186397475Y-93254500D01*
X186330436Y-93234815D01*
X186309794Y-93218181D01*
X186298514Y-93206901D01*
X186192321Y-93160012D01*
X186166357Y-93157000D01*
X185753651Y-93157000D01*
X185753627Y-93157002D01*
X185727685Y-93160010D01*
X185727675Y-93160013D01*
X185621486Y-93206900D01*
X185539401Y-93288985D01*
X185492512Y-93395178D01*
X185489500Y-93421139D01*
X185489500Y-93908848D01*
X185489502Y-93908872D01*
X185492510Y-93934814D01*
X185492513Y-93934824D01*
X185502720Y-93957941D01*
X185511790Y-94027219D01*
X185481966Y-94090404D01*
X185422716Y-94127433D01*
X185389058Y-94132025D01*
X178032013Y-94118575D01*
X178032013Y-94118574D01*
X178020078Y-94118553D01*
X178019991Y-94118518D01*
X177999893Y-94118518D01*
X177999888Y-94118518D01*
X177996305Y-94118511D01*
X177980193Y-94118482D01*
X177980192Y-94118482D01*
X177980184Y-94118482D01*
X177980013Y-94118516D01*
X177979871Y-94118575D01*
X177961517Y-94126177D01*
X177955079Y-94128830D01*
X177943221Y-94133716D01*
X177943077Y-94133812D01*
X177929219Y-94147669D01*
X177929064Y-94147824D01*
X177914902Y-94161933D01*
X177914802Y-94162081D01*
X177907202Y-94180428D01*
X177907159Y-94180531D01*
X177899537Y-94198843D01*
X177899536Y-94198938D01*
X177899500Y-94199027D01*
X177899500Y-94200000D01*
X175500493Y-94200000D01*
X175500502Y-94195519D01*
X175500467Y-94195434D01*
X175500467Y-94195342D01*
X175492897Y-94177068D01*
X175485267Y-94158555D01*
X175485201Y-94158488D01*
X175485166Y-94158404D01*
X175471030Y-94144268D01*
X175457046Y-94130234D01*
X175456960Y-94130198D01*
X175456895Y-94130133D01*
X175438852Y-94122659D01*
X175438678Y-94122519D01*
X175438654Y-94122577D01*
X175420133Y-94114868D01*
X175419967Y-94114834D01*
X175419957Y-94114834D01*
X175400187Y-94114834D01*
X175399924Y-94114833D01*
X175274281Y-94114612D01*
X175207277Y-94094809D01*
X175161615Y-94041924D01*
X175150500Y-93990612D01*
X175150500Y-93223856D01*
X179649500Y-93223856D01*
X179649500Y-93316144D01*
X179669737Y-93391671D01*
X179673387Y-93405290D01*
X179673388Y-93405293D01*
X179719526Y-93485205D01*
X179719529Y-93485209D01*
X179719531Y-93485212D01*
X179784788Y-93550469D01*
X179784791Y-93550470D01*
X179784794Y-93550473D01*
X179864706Y-93596611D01*
X179864707Y-93596611D01*
X179864712Y-93596614D01*
X179953856Y-93620500D01*
X179953858Y-93620500D01*
X180046142Y-93620500D01*
X180046144Y-93620500D01*
X180135288Y-93596614D01*
X180215212Y-93550469D01*
X180280469Y-93485212D01*
X180326614Y-93405288D01*
X180350500Y-93316144D01*
X180350500Y-93223856D01*
X180326614Y-93134712D01*
X180326611Y-93134706D01*
X180280473Y-93054794D01*
X180280470Y-93054791D01*
X180280469Y-93054788D01*
X180215212Y-92989531D01*
X180215209Y-92989529D01*
X180215205Y-92989526D01*
X180135293Y-92943388D01*
X180135290Y-92943387D01*
X180135289Y-92943386D01*
X180135288Y-92943386D01*
X180046144Y-92919500D01*
X179953856Y-92919500D01*
X179864712Y-92943386D01*
X179864711Y-92943386D01*
X179864709Y-92943387D01*
X179864706Y-92943388D01*
X179784794Y-92989526D01*
X179784785Y-92989533D01*
X179719533Y-93054785D01*
X179719526Y-93054794D01*
X179673388Y-93134706D01*
X179673387Y-93134709D01*
X179673386Y-93134711D01*
X179673386Y-93134712D01*
X179649500Y-93223856D01*
X175150500Y-93223856D01*
X175150500Y-93015177D01*
X175141768Y-92971282D01*
X175141767Y-92971281D01*
X175141767Y-92971278D01*
X175108504Y-92921496D01*
X175105517Y-92919500D01*
X175058724Y-92888234D01*
X175058717Y-92888231D01*
X175014822Y-92879500D01*
X175014820Y-92879500D01*
X173985180Y-92879500D01*
X173985178Y-92879500D01*
X173941282Y-92888231D01*
X173941276Y-92888233D01*
X173913389Y-92906867D01*
X173846711Y-92927744D01*
X173779332Y-92909258D01*
X173732642Y-92857279D01*
X173720500Y-92803764D01*
X173720500Y-92013856D01*
X179669500Y-92013856D01*
X179669500Y-92106144D01*
X179679780Y-92144511D01*
X179693387Y-92195290D01*
X179693388Y-92195293D01*
X179739526Y-92275205D01*
X179739529Y-92275209D01*
X179739531Y-92275212D01*
X179804788Y-92340469D01*
X179804791Y-92340470D01*
X179804794Y-92340473D01*
X179884706Y-92386611D01*
X179884707Y-92386611D01*
X179884712Y-92386614D01*
X179973856Y-92410500D01*
X179973858Y-92410500D01*
X180066142Y-92410500D01*
X180066144Y-92410500D01*
X180155288Y-92386614D01*
X180235212Y-92340469D01*
X180300469Y-92275212D01*
X180346614Y-92195288D01*
X180370500Y-92106144D01*
X180370500Y-92013856D01*
X180346614Y-91924712D01*
X180333878Y-91902653D01*
X180300473Y-91844794D01*
X180300470Y-91844791D01*
X180300469Y-91844788D01*
X180235212Y-91779531D01*
X180235209Y-91779529D01*
X180235205Y-91779526D01*
X180155293Y-91733388D01*
X180155290Y-91733387D01*
X180155289Y-91733386D01*
X180155288Y-91733386D01*
X180066144Y-91709500D01*
X179973856Y-91709500D01*
X179884712Y-91733386D01*
X179884711Y-91733386D01*
X179884709Y-91733387D01*
X179884706Y-91733388D01*
X179804794Y-91779526D01*
X179804785Y-91779533D01*
X179739533Y-91844785D01*
X179739526Y-91844794D01*
X179693388Y-91924706D01*
X179693387Y-91924709D01*
X179693386Y-91924711D01*
X179693386Y-91924712D01*
X179669500Y-92013856D01*
X173720500Y-92013856D01*
X173720500Y-91785177D01*
X173711768Y-91741282D01*
X173711767Y-91741278D01*
X173706494Y-91733386D01*
X173694904Y-91716041D01*
X173689297Y-91698133D01*
X173679112Y-91682367D01*
X173674516Y-91650929D01*
X173674027Y-91649366D01*
X173674008Y-91647509D01*
X173673787Y-91553464D01*
X173693313Y-91486384D01*
X173694647Y-91484343D01*
X173711767Y-91458722D01*
X173713595Y-91449531D01*
X173720500Y-91414822D01*
X173720500Y-90753856D01*
X174149500Y-90753856D01*
X174149500Y-90846144D01*
X174171843Y-90929531D01*
X174173387Y-90935290D01*
X174173388Y-90935293D01*
X174219526Y-91015205D01*
X174219529Y-91015209D01*
X174219531Y-91015212D01*
X174284788Y-91080469D01*
X174284791Y-91080470D01*
X174284794Y-91080473D01*
X174364706Y-91126611D01*
X174364707Y-91126611D01*
X174364712Y-91126614D01*
X174453856Y-91150500D01*
X174453858Y-91150500D01*
X174546142Y-91150500D01*
X174546144Y-91150500D01*
X174635288Y-91126614D01*
X174715212Y-91080469D01*
X174780469Y-91015212D01*
X174826614Y-90935288D01*
X174850500Y-90846144D01*
X174850500Y-90753856D01*
X174826614Y-90664712D01*
X174826611Y-90664706D01*
X174780473Y-90584794D01*
X174780470Y-90584791D01*
X174780469Y-90584788D01*
X174715212Y-90519531D01*
X174715209Y-90519529D01*
X174715205Y-90519526D01*
X174635293Y-90473388D01*
X174635290Y-90473387D01*
X174635289Y-90473386D01*
X174635288Y-90473386D01*
X174546144Y-90449500D01*
X174453856Y-90449500D01*
X174364712Y-90473386D01*
X174364711Y-90473386D01*
X174364709Y-90473387D01*
X174364706Y-90473388D01*
X174284794Y-90519526D01*
X174284785Y-90519533D01*
X174219533Y-90584785D01*
X174219526Y-90584794D01*
X174173388Y-90664706D01*
X174173387Y-90664709D01*
X174173386Y-90664711D01*
X174173386Y-90664712D01*
X174149500Y-90753856D01*
X173720500Y-90753856D01*
X173720500Y-90385177D01*
X173711768Y-90341282D01*
X173711767Y-90341279D01*
X173711767Y-90341278D01*
X173691606Y-90311105D01*
X173685998Y-90293195D01*
X173675816Y-90277433D01*
X173671219Y-90245992D01*
X173670730Y-90244430D01*
X173670710Y-90242510D01*
X173670558Y-90178101D01*
X173690085Y-90111019D01*
X173691891Y-90108776D01*
X173691718Y-90108660D01*
X173705086Y-90088653D01*
X173731767Y-90048722D01*
X173731767Y-90048717D01*
X173732425Y-90047132D01*
X173734789Y-90044197D01*
X173738551Y-90038568D01*
X173739054Y-90038904D01*
X173776264Y-89992728D01*
X173842558Y-89970661D01*
X173851660Y-89970961D01*
X173851667Y-89970735D01*
X174533029Y-89991236D01*
X179141372Y-90129894D01*
X179169021Y-90138924D01*
X179197427Y-90145203D01*
X179204447Y-90150494D01*
X179207785Y-90151585D01*
X179225608Y-90166446D01*
X179359396Y-90301125D01*
X179392677Y-90362559D01*
X179387461Y-90432233D01*
X179345404Y-90488027D01*
X179303520Y-90508288D01*
X179244712Y-90524046D01*
X179244710Y-90524046D01*
X179244706Y-90524048D01*
X179164794Y-90570186D01*
X179164785Y-90570193D01*
X179099533Y-90635445D01*
X179099526Y-90635454D01*
X179053388Y-90715366D01*
X179053387Y-90715369D01*
X179053386Y-90715371D01*
X179053386Y-90715372D01*
X179029500Y-90804516D01*
X179029500Y-90896804D01*
X179051658Y-90979500D01*
X179053387Y-90985950D01*
X179053388Y-90985953D01*
X179099526Y-91065865D01*
X179099529Y-91065869D01*
X179099531Y-91065872D01*
X179164788Y-91131129D01*
X179164791Y-91131130D01*
X179164794Y-91131133D01*
X179244706Y-91177271D01*
X179244707Y-91177271D01*
X179244712Y-91177274D01*
X179333856Y-91201160D01*
X179333858Y-91201160D01*
X179426142Y-91201160D01*
X179426144Y-91201160D01*
X179515288Y-91177274D01*
X179595212Y-91131129D01*
X179660469Y-91065872D01*
X179706614Y-90985948D01*
X179716787Y-90947981D01*
X179753150Y-90888323D01*
X179815997Y-90857793D01*
X179885373Y-90866087D01*
X179917859Y-90886445D01*
X179933553Y-90900072D01*
X179944701Y-90919380D01*
X180009958Y-90984637D01*
X180072601Y-91020804D01*
X180081586Y-91028606D01*
X180082983Y-91030784D01*
X180088258Y-91034846D01*
X180179415Y-91126611D01*
X180599999Y-91550000D01*
X180605840Y-91550019D01*
X181404711Y-91552690D01*
X181433856Y-91560500D01*
X181526144Y-91560500D01*
X181553431Y-91553188D01*
X181938138Y-91554475D01*
X181969813Y-91558698D01*
X182013856Y-91570500D01*
X182013858Y-91570500D01*
X182106142Y-91570500D01*
X182106144Y-91570500D01*
X182147177Y-91559505D01*
X182179667Y-91555283D01*
X182465414Y-91556238D01*
X182506849Y-91564552D01*
X182506861Y-91564510D01*
X182507518Y-91564686D01*
X182512447Y-91565675D01*
X182514704Y-91566609D01*
X182514712Y-91566614D01*
X182603856Y-91590500D01*
X182603858Y-91590500D01*
X182696142Y-91590500D01*
X182696144Y-91590500D01*
X182785288Y-91566614D01*
X182785288Y-91566613D01*
X182793140Y-91564510D01*
X182793320Y-91565183D01*
X182832452Y-91557466D01*
X183085135Y-91558311D01*
X183116809Y-91562534D01*
X183183856Y-91580500D01*
X183183858Y-91580500D01*
X183276143Y-91580500D01*
X183276144Y-91580500D01*
X183339613Y-91563493D01*
X183372103Y-91559271D01*
X183590000Y-91560000D01*
X183590000Y-91559999D01*
X183599513Y-91560031D01*
X183590316Y-91535372D01*
X183590000Y-91526525D01*
X183590000Y-90827548D01*
X183607208Y-90764529D01*
X183645944Y-90698887D01*
X183659440Y-90686260D01*
X183669005Y-90670445D01*
X183684425Y-90662887D01*
X183696967Y-90651155D01*
X183715149Y-90647829D01*
X183731745Y-90639696D01*
X183748802Y-90641674D01*
X183765697Y-90638585D01*
X183782792Y-90645618D01*
X183801149Y-90647748D01*
X183814428Y-90658634D01*
X183830312Y-90665169D01*
X183840889Y-90680326D01*
X183855183Y-90692044D01*
X183869612Y-90721485D01*
X183870297Y-90722467D01*
X183870500Y-90723299D01*
X183870715Y-90723736D01*
X183874500Y-90735438D01*
X183874501Y-90738032D01*
X183888891Y-90828893D01*
X183932298Y-90914084D01*
X183935325Y-90923440D01*
X183937232Y-90993284D01*
X183912296Y-91036668D01*
X183914478Y-91038342D01*
X183909526Y-91044794D01*
X183863388Y-91124706D01*
X183863387Y-91124709D01*
X183863386Y-91124711D01*
X183863386Y-91124712D01*
X183839500Y-91213856D01*
X183839500Y-91306144D01*
X183862792Y-91393072D01*
X183863387Y-91395290D01*
X183863387Y-91395291D01*
X183873355Y-91412556D01*
X183889828Y-91480456D01*
X183866975Y-91546483D01*
X183853650Y-91562236D01*
X183801682Y-91614205D01*
X183740359Y-91647691D01*
X183737827Y-91647509D01*
X183745500Y-91702168D01*
X183736260Y-91734189D01*
X183732512Y-91742677D01*
X183732512Y-91742678D01*
X183729500Y-91768639D01*
X183729500Y-92256348D01*
X183729502Y-92256372D01*
X183732510Y-92282314D01*
X183732513Y-92282324D01*
X183779400Y-92388513D01*
X183779401Y-92388514D01*
X183861486Y-92470599D01*
X183967680Y-92517488D01*
X183993643Y-92520500D01*
X184406356Y-92520499D01*
X184414726Y-92519528D01*
X184432314Y-92517489D01*
X184432315Y-92517488D01*
X184432320Y-92517488D01*
X184523712Y-92477134D01*
X184592986Y-92468063D01*
X184656171Y-92497886D01*
X184689200Y-92550730D01*
X184690278Y-92550284D01*
X184692943Y-92556719D01*
X184693203Y-92557135D01*
X184693373Y-92557758D01*
X184693388Y-92557793D01*
X184739526Y-92637705D01*
X184739529Y-92637709D01*
X184739531Y-92637712D01*
X184804788Y-92702969D01*
X184804791Y-92702970D01*
X184804794Y-92702973D01*
X184884706Y-92749111D01*
X184884707Y-92749111D01*
X184884712Y-92749114D01*
X184973856Y-92773000D01*
X184973858Y-92773000D01*
X185066142Y-92773000D01*
X185066144Y-92773000D01*
X185155288Y-92749114D01*
X185235212Y-92702969D01*
X185300469Y-92637712D01*
X185346614Y-92557788D01*
X185370500Y-92468644D01*
X185370500Y-92376356D01*
X185346614Y-92287212D01*
X185343790Y-92282320D01*
X185300473Y-92207294D01*
X185300470Y-92207291D01*
X185300469Y-92207288D01*
X185299015Y-92205834D01*
X185298181Y-92204308D01*
X185295522Y-92200842D01*
X185296062Y-92200427D01*
X185265530Y-92144511D01*
X185270514Y-92074819D01*
X185312386Y-92018886D01*
X185324684Y-92010773D01*
X185325212Y-92010469D01*
X185390469Y-91945212D01*
X185436614Y-91865288D01*
X185460500Y-91776144D01*
X185460500Y-91776142D01*
X185461501Y-91772407D01*
X185473551Y-91752636D01*
X185481489Y-91730890D01*
X185491392Y-91723367D01*
X185497866Y-91712746D01*
X185518691Y-91702629D01*
X185537126Y-91688626D01*
X185553859Y-91685546D01*
X185560713Y-91682217D01*
X185571560Y-91680881D01*
X185576408Y-91680500D01*
X185666144Y-91680500D01*
X185703391Y-91670519D01*
X185714749Y-91669627D01*
X185738232Y-91674562D01*
X185762219Y-91675133D01*
X185771800Y-91681617D01*
X185783125Y-91683998D01*
X185800210Y-91700845D01*
X185820082Y-91714294D01*
X185826526Y-91726793D01*
X185832876Y-91733055D01*
X185835291Y-91743796D01*
X185844239Y-91761151D01*
X185849423Y-91780499D01*
X185853387Y-91795290D01*
X185853388Y-91795293D01*
X185899526Y-91875205D01*
X185899529Y-91875209D01*
X185899531Y-91875212D01*
X185964788Y-91940469D01*
X185964791Y-91940470D01*
X185964794Y-91940473D01*
X186044706Y-91986611D01*
X186044707Y-91986611D01*
X186044712Y-91986614D01*
X186133856Y-92010500D01*
X186133858Y-92010500D01*
X186226142Y-92010500D01*
X186226144Y-92010500D01*
X186315288Y-91986614D01*
X186395212Y-91940469D01*
X186460469Y-91875212D01*
X186506614Y-91795288D01*
X186527736Y-91716457D01*
X186564100Y-91656800D01*
X186626946Y-91626270D01*
X186696322Y-91634564D01*
X186735191Y-91660872D01*
X186784788Y-91710469D01*
X186784791Y-91710470D01*
X186784794Y-91710473D01*
X186864706Y-91756611D01*
X186864707Y-91756611D01*
X186864712Y-91756614D01*
X186953856Y-91780500D01*
X186953858Y-91780500D01*
X187046142Y-91780500D01*
X187046144Y-91780500D01*
X187135288Y-91756614D01*
X187215212Y-91710469D01*
X187280469Y-91645212D01*
X187326614Y-91565288D01*
X187350500Y-91476144D01*
X187350500Y-91383856D01*
X187326614Y-91294712D01*
X187290672Y-91232460D01*
X187274199Y-91164563D01*
X187297050Y-91098536D01*
X187336057Y-91063075D01*
X187375212Y-91040469D01*
X187440469Y-90975212D01*
X187486614Y-90895288D01*
X187510500Y-90806144D01*
X187510500Y-90713856D01*
X187486614Y-90624712D01*
X187463567Y-90584794D01*
X187440473Y-90544794D01*
X187440470Y-90544791D01*
X187440469Y-90544788D01*
X187375212Y-90479531D01*
X187375209Y-90479529D01*
X187375205Y-90479526D01*
X187295293Y-90433388D01*
X187295290Y-90433387D01*
X187295289Y-90433386D01*
X187295288Y-90433386D01*
X187206144Y-90409500D01*
X187113856Y-90409500D01*
X187105729Y-90409500D01*
X187105729Y-90407707D01*
X187046646Y-90398492D01*
X186994391Y-90352110D01*
X186975499Y-90286320D01*
X186975499Y-90201962D01*
X186961110Y-90111111D01*
X186961110Y-90111110D01*
X186961109Y-90111108D01*
X186961109Y-90111107D01*
X186905311Y-90001597D01*
X186905309Y-90001595D01*
X186905306Y-90001591D01*
X186818408Y-89914693D01*
X186818404Y-89914690D01*
X186818403Y-89914689D01*
X186708893Y-89858891D01*
X186708891Y-89858890D01*
X186708888Y-89858889D01*
X186618033Y-89844500D01*
X185981962Y-89844500D01*
X185981962Y-89844501D01*
X185891111Y-89858889D01*
X185891110Y-89858889D01*
X185781595Y-89914690D01*
X185781591Y-89914693D01*
X185694693Y-90001591D01*
X185694690Y-90001595D01*
X185638889Y-90111111D01*
X185624500Y-90201966D01*
X185624500Y-90738037D01*
X185640417Y-90838532D01*
X185638653Y-90838811D01*
X185640313Y-90896980D01*
X185604230Y-90956812D01*
X185552483Y-90985226D01*
X185484712Y-91003386D01*
X185484710Y-91003386D01*
X185484706Y-91003388D01*
X185404794Y-91049526D01*
X185404785Y-91049533D01*
X185339533Y-91114785D01*
X185339526Y-91114794D01*
X185293388Y-91194706D01*
X185293387Y-91194709D01*
X185293386Y-91194711D01*
X185293386Y-91194712D01*
X185271567Y-91276144D01*
X185268499Y-91287593D01*
X185232134Y-91347254D01*
X185169327Y-91377776D01*
X185157283Y-91379805D01*
X185156144Y-91379500D01*
X185063856Y-91379500D01*
X184974712Y-91403386D01*
X184957146Y-91413527D01*
X184935103Y-91417242D01*
X184921707Y-91415644D01*
X184908598Y-91418825D01*
X184887691Y-91411589D01*
X184865725Y-91408970D01*
X184855320Y-91400385D01*
X184842572Y-91395973D01*
X184828896Y-91378583D01*
X184811832Y-91364503D01*
X184807719Y-91351653D01*
X184799382Y-91341051D01*
X184791895Y-91302205D01*
X184790536Y-91297958D01*
X184790850Y-91296783D01*
X184790500Y-91294966D01*
X184790500Y-91213685D01*
X184810185Y-91146646D01*
X184862989Y-91100891D01*
X184895100Y-91091212D01*
X184958893Y-91081109D01*
X185068403Y-91025311D01*
X185155311Y-90938403D01*
X185211109Y-90828893D01*
X185225500Y-90738033D01*
X185225499Y-90201968D01*
X185225499Y-90201966D01*
X185225499Y-90201962D01*
X185211110Y-90111111D01*
X185211110Y-90111110D01*
X185211109Y-90111108D01*
X185211109Y-90111107D01*
X185155311Y-90001597D01*
X185155309Y-90001595D01*
X185155306Y-90001591D01*
X185068408Y-89914693D01*
X185068404Y-89914690D01*
X185068403Y-89914689D01*
X184958893Y-89858891D01*
X184958891Y-89858890D01*
X184958888Y-89858889D01*
X184868033Y-89844500D01*
X184231962Y-89844500D01*
X184231962Y-89844501D01*
X184141111Y-89858889D01*
X184141110Y-89858889D01*
X184031595Y-89914690D01*
X184031591Y-89914693D01*
X183944693Y-90001591D01*
X183944688Y-90001598D01*
X183900331Y-90088653D01*
X183852357Y-90139448D01*
X183784536Y-90156243D01*
X183718401Y-90133705D01*
X183674950Y-90078990D01*
X183665860Y-90034128D01*
X183665395Y-90001591D01*
X183655714Y-89323911D01*
X183654129Y-89303876D01*
X183649550Y-89272213D01*
X183645392Y-89252542D01*
X183607501Y-89117218D01*
X183594592Y-89071111D01*
X183590000Y-89037678D01*
X183590000Y-88859975D01*
X183580000Y-88230001D01*
X183580000Y-88230000D01*
X183519810Y-88106754D01*
X183516997Y-88094882D01*
X183512421Y-88087833D01*
X183512362Y-88075315D01*
X183507242Y-88053702D01*
X183506461Y-87982220D01*
X183506452Y-87981561D01*
X183506439Y-87980704D01*
X183499353Y-87936599D01*
X183478476Y-87869922D01*
X183459374Y-87829996D01*
X183459373Y-87829995D01*
X183457463Y-87826002D01*
X183459089Y-87825223D01*
X183458778Y-87824047D01*
X183453685Y-87817513D01*
X183451913Y-87798075D01*
X183445000Y-87771922D01*
X183445000Y-87104008D01*
X183444999Y-87103991D01*
X183443430Y-87089401D01*
X183441446Y-87070945D01*
X183430240Y-87019434D01*
X183399521Y-86958065D01*
X183395813Y-86950657D01*
X183390783Y-86944853D01*
X183390782Y-86944852D01*
X183351030Y-86898976D01*
X183350000Y-86850000D01*
X183271067Y-86848932D01*
X183235851Y-86838592D01*
X183235850Y-86838591D01*
X183209316Y-86830800D01*
X183209302Y-86830797D01*
X183165503Y-86824500D01*
X183165500Y-86824500D01*
X182900521Y-86824500D01*
X182900519Y-86824500D01*
X182895804Y-86824570D01*
X182888326Y-86824797D01*
X182888314Y-86824798D01*
X182840281Y-86833945D01*
X182840266Y-86833949D01*
X182836964Y-86835140D01*
X182793244Y-86842475D01*
X182610000Y-86840000D01*
X182609999Y-86840000D01*
X182194267Y-87272143D01*
X182178128Y-87286247D01*
X181782279Y-87575892D01*
X181716552Y-87599593D01*
X181685067Y-87597477D01*
X181210821Y-87503964D01*
X181148856Y-87471682D01*
X181117173Y-87421519D01*
X181067381Y-87272143D01*
X181000505Y-87071517D01*
X180997981Y-87001695D01*
X181018824Y-86958065D01*
X182482677Y-84999925D01*
X182538582Y-84958020D01*
X182582332Y-84950173D01*
X182865371Y-84950962D01*
G37*
%TD.AperFunction*%
%TD*%
%TA.AperFunction,Conductor*%
%TO.N,+5V*%
G36*
X193786772Y-92979685D02*
G01*
X193807411Y-92996317D01*
X193971427Y-93160333D01*
X194004912Y-93221655D01*
X194007742Y-93248982D01*
X194001687Y-94023963D01*
X193981479Y-94090846D01*
X193928320Y-94136187D01*
X193877449Y-94146994D01*
X193038522Y-94145356D01*
X192971521Y-94125540D01*
X192925869Y-94072647D01*
X192914799Y-94018408D01*
X192923801Y-93640319D01*
X192939420Y-93590969D01*
X192937093Y-93590005D01*
X192941764Y-93578725D01*
X192941767Y-93578722D01*
X192950500Y-93534820D01*
X192950500Y-93084000D01*
X192970185Y-93016961D01*
X193022989Y-92971206D01*
X193074500Y-92960000D01*
X193719733Y-92960000D01*
X193786772Y-92979685D01*
G37*
%TD.AperFunction*%
%TD*%
%TA.AperFunction,Conductor*%
%TO.N,+5V*%
G36*
X194903039Y-88079685D02*
G01*
X194948794Y-88132489D01*
X194960000Y-88184000D01*
X194960000Y-89149998D01*
X194960000Y-89150000D01*
X195576401Y-89141670D01*
X195643700Y-89160447D01*
X195690164Y-89212628D01*
X195702059Y-89263593D01*
X195717866Y-90211979D01*
X195699301Y-90279337D01*
X195647267Y-90325965D01*
X195591975Y-90338030D01*
X195190309Y-90331850D01*
X195123581Y-90311137D01*
X195078644Y-90257635D01*
X195068230Y-90209691D01*
X195060000Y-89650000D01*
X195059999Y-89650000D01*
X194906004Y-89650000D01*
X194855918Y-89639435D01*
X194855637Y-89639311D01*
X194806156Y-89617463D01*
X194799771Y-89616722D01*
X194780619Y-89614500D01*
X194780616Y-89614500D01*
X194379384Y-89614500D01*
X194379380Y-89614500D01*
X194353844Y-89617463D01*
X194304082Y-89639435D01*
X194253996Y-89650000D01*
X193425951Y-89650000D01*
X193363951Y-89633387D01*
X193355291Y-89628387D01*
X193355288Y-89628386D01*
X193266144Y-89604500D01*
X193173856Y-89604500D01*
X193173854Y-89604500D01*
X193165800Y-89605561D01*
X193165548Y-89603652D01*
X193151089Y-89603306D01*
X193126353Y-89606863D01*
X193116763Y-89602483D01*
X193106224Y-89602231D01*
X193085529Y-89588219D01*
X193062797Y-89577838D01*
X193057097Y-89568969D01*
X193048368Y-89563059D01*
X193038533Y-89540082D01*
X193025023Y-89519060D01*
X193022740Y-89503187D01*
X193020874Y-89498826D01*
X193020000Y-89484125D01*
X193020000Y-89337172D01*
X193039685Y-89270133D01*
X193065635Y-89241074D01*
X193071701Y-89236127D01*
X193077324Y-89231314D01*
X193121250Y-89163864D01*
X193142926Y-89097442D01*
X193150529Y-89053840D01*
X193153544Y-88952840D01*
X193152622Y-88930673D01*
X193148644Y-88895604D01*
X193141531Y-88874647D01*
X193141883Y-88874577D01*
X193139386Y-88862211D01*
X193132674Y-88848548D01*
X193127396Y-88832996D01*
X193122720Y-88825220D01*
X193117201Y-88816042D01*
X193117197Y-88816037D01*
X193114493Y-88811541D01*
X193104480Y-88791157D01*
X193097159Y-88782708D01*
X193091397Y-88773125D01*
X193087436Y-88766877D01*
X193077166Y-88757868D01*
X193066183Y-88746947D01*
X193065707Y-88746410D01*
X193058725Y-88738353D01*
X193053752Y-88732882D01*
X193053646Y-88732817D01*
X193051246Y-88730112D01*
X193036659Y-88699139D01*
X193021715Y-88668367D01*
X193021617Y-88667196D01*
X193021478Y-88666901D01*
X193021548Y-88666368D01*
X193020000Y-88647815D01*
X193020000Y-88504049D01*
X193039685Y-88437010D01*
X193092489Y-88391255D01*
X193110559Y-88384643D01*
X194253600Y-88064592D01*
X194287034Y-88060000D01*
X194836000Y-88060000D01*
X194903039Y-88079685D01*
G37*
%TD.AperFunction*%
%TD*%
%TA.AperFunction,Conductor*%
%TO.N,+5V*%
G36*
X174679841Y-72960185D02*
G01*
X174725596Y-73012989D01*
X174735957Y-73066735D01*
X174736521Y-73066722D01*
X174736600Y-73070073D01*
X174736662Y-73070391D01*
X174736626Y-73071143D01*
X174737706Y-73116537D01*
X174739813Y-73138597D01*
X174739818Y-73138635D01*
X174745667Y-73173412D01*
X174745670Y-73173422D01*
X174753654Y-73193363D01*
X174756380Y-73200172D01*
X174756296Y-73200196D01*
X174760424Y-73214767D01*
X174761046Y-73216903D01*
X174766848Y-73226320D01*
X174770236Y-73234784D01*
X174788961Y-73262449D01*
X174790443Y-73264619D01*
X174803267Y-73285433D01*
X174806728Y-73288701D01*
X174809399Y-73292648D01*
X174813693Y-73298678D01*
X174830778Y-73312113D01*
X174839269Y-73319435D01*
X174844059Y-73323958D01*
X174844059Y-73323959D01*
X174854062Y-73333406D01*
X174885341Y-73355456D01*
X174890233Y-73358904D01*
X174890237Y-73358907D01*
X174908361Y-73368141D01*
X174939750Y-73390946D01*
X175027376Y-73478572D01*
X175030543Y-73481883D01*
X175030548Y-73481880D01*
X175031159Y-73482527D01*
X175031198Y-73482568D01*
X175031213Y-73482585D01*
X175034598Y-73486170D01*
X175034599Y-73486171D01*
X175103779Y-73527320D01*
X175171027Y-73546279D01*
X175214903Y-73552104D01*
X177182443Y-73530832D01*
X177249690Y-73549791D01*
X177271463Y-73567144D01*
X177284788Y-73580469D01*
X177284791Y-73580470D01*
X177284794Y-73580473D01*
X177364706Y-73626611D01*
X177364707Y-73626611D01*
X177364712Y-73626614D01*
X177453856Y-73650500D01*
X177453858Y-73650500D01*
X177546142Y-73650500D01*
X177546144Y-73650500D01*
X177635288Y-73626614D01*
X177715212Y-73580469D01*
X177735449Y-73560231D01*
X177796769Y-73526747D01*
X177821786Y-73523920D01*
X178864263Y-73512650D01*
X178931508Y-73531609D01*
X178953281Y-73548962D01*
X178984788Y-73580469D01*
X178984791Y-73580470D01*
X178984794Y-73580473D01*
X179064706Y-73626611D01*
X179064707Y-73626611D01*
X179064712Y-73626614D01*
X179153856Y-73650500D01*
X179153858Y-73650500D01*
X179246142Y-73650500D01*
X179246144Y-73650500D01*
X179335288Y-73626614D01*
X179415212Y-73580469D01*
X179454028Y-73541653D01*
X179515351Y-73508168D01*
X179540364Y-73505341D01*
X180546077Y-73494468D01*
X180613325Y-73513427D01*
X180635097Y-73530779D01*
X180664552Y-73560233D01*
X180684788Y-73580469D01*
X180684790Y-73580470D01*
X180684794Y-73580473D01*
X180764706Y-73626611D01*
X180764707Y-73626611D01*
X180764712Y-73626614D01*
X180853856Y-73650500D01*
X180853858Y-73650500D01*
X180946142Y-73650500D01*
X180946144Y-73650500D01*
X181035288Y-73626614D01*
X181115212Y-73580469D01*
X181172610Y-73523070D01*
X181233929Y-73489588D01*
X181258938Y-73486762D01*
X182227896Y-73476287D01*
X182295144Y-73495246D01*
X182316917Y-73512598D01*
X182319530Y-73515211D01*
X182319531Y-73515212D01*
X182384788Y-73580469D01*
X182384790Y-73580470D01*
X182384794Y-73580473D01*
X182464706Y-73626611D01*
X182464707Y-73626611D01*
X182464712Y-73626614D01*
X182553856Y-73650500D01*
X182553858Y-73650500D01*
X182646142Y-73650500D01*
X182646144Y-73650500D01*
X182735288Y-73626614D01*
X182815212Y-73580469D01*
X182880469Y-73515212D01*
X182880469Y-73515211D01*
X182886216Y-73509465D01*
X182887491Y-73510740D01*
X182935747Y-73475501D01*
X182976359Y-73468195D01*
X183913601Y-73458062D01*
X183980848Y-73477021D01*
X184012778Y-73510147D01*
X184014583Y-73508763D01*
X184019529Y-73515209D01*
X184019531Y-73515212D01*
X184084788Y-73580469D01*
X184084791Y-73580470D01*
X184084794Y-73580473D01*
X184164706Y-73626611D01*
X184164707Y-73626611D01*
X184164712Y-73626614D01*
X184253856Y-73650500D01*
X184253858Y-73650500D01*
X184283689Y-73650500D01*
X184350728Y-73670185D01*
X184396483Y-73722989D01*
X184407684Y-73773409D01*
X184423949Y-75622274D01*
X184404855Y-75689484D01*
X184361956Y-75730750D01*
X184294788Y-75769531D01*
X184294785Y-75769533D01*
X184229533Y-75834785D01*
X184229526Y-75834794D01*
X184183388Y-75914706D01*
X184183387Y-75914709D01*
X184183386Y-75914711D01*
X184183386Y-75914712D01*
X184159500Y-76003856D01*
X184159500Y-76096144D01*
X184166805Y-76123408D01*
X184183387Y-76185290D01*
X184183388Y-76185293D01*
X184229526Y-76265205D01*
X184229529Y-76265209D01*
X184229531Y-76265212D01*
X184294788Y-76330469D01*
X184294791Y-76330470D01*
X184294794Y-76330473D01*
X184374706Y-76376611D01*
X184374708Y-76376612D01*
X184374709Y-76376612D01*
X184374712Y-76376614D01*
X184463856Y-76400500D01*
X184463860Y-76400500D01*
X184469171Y-76401923D01*
X184528831Y-76438287D01*
X184535114Y-76445773D01*
X185331769Y-77474785D01*
X185865904Y-78164710D01*
X185870000Y-78170000D01*
X185890995Y-78189135D01*
X185927283Y-78248841D01*
X185925530Y-78318689D01*
X185886294Y-78376501D01*
X185869471Y-78388166D01*
X185849791Y-78399528D01*
X185849785Y-78399533D01*
X185784533Y-78464785D01*
X185784526Y-78464794D01*
X185738388Y-78544706D01*
X185738387Y-78544709D01*
X185738386Y-78544711D01*
X185738386Y-78544712D01*
X185731003Y-78572265D01*
X185714500Y-78633856D01*
X185714500Y-78726143D01*
X185738387Y-78815290D01*
X185738388Y-78815293D01*
X185784526Y-78895205D01*
X185784529Y-78895209D01*
X185784531Y-78895212D01*
X185849788Y-78960469D01*
X185849791Y-78960470D01*
X185849794Y-78960473D01*
X185929706Y-79006611D01*
X185929707Y-79006611D01*
X185929712Y-79006614D01*
X186018856Y-79030500D01*
X186018858Y-79030500D01*
X186111142Y-79030500D01*
X186111144Y-79030500D01*
X186200288Y-79006614D01*
X186280212Y-78960469D01*
X186303862Y-78936819D01*
X186330789Y-78922115D01*
X186356608Y-78905523D01*
X186362808Y-78904631D01*
X186365185Y-78903334D01*
X186391543Y-78900500D01*
X186537964Y-78900500D01*
X186605003Y-78920185D01*
X186650758Y-78972989D01*
X186661951Y-79022677D01*
X186700000Y-81609999D01*
X186699999Y-81609999D01*
X186700000Y-81610000D01*
X187611511Y-81650640D01*
X187662273Y-81664030D01*
X187704696Y-81685646D01*
X187704697Y-81685646D01*
X187704699Y-81685647D01*
X187704698Y-81685647D01*
X187798475Y-81700499D01*
X187798481Y-81700500D01*
X188146001Y-81700499D01*
X188154686Y-81703049D01*
X188163647Y-81701761D01*
X188187683Y-81712738D01*
X188213039Y-81720183D01*
X188218967Y-81727025D01*
X188227203Y-81730786D01*
X188241489Y-81753017D01*
X188258794Y-81772987D01*
X188261081Y-81783502D01*
X188264977Y-81789564D01*
X188270000Y-81824499D01*
X188270000Y-81903876D01*
X188268738Y-81921522D01*
X188264500Y-81950997D01*
X188264500Y-82568041D01*
X188264519Y-82570516D01*
X188264577Y-82574301D01*
X188264633Y-82576686D01*
X188269940Y-82746515D01*
X188270000Y-82750388D01*
X188270000Y-82751269D01*
X188250315Y-82818308D01*
X188197511Y-82864063D01*
X188178094Y-82871044D01*
X188094710Y-82893386D01*
X188094705Y-82893389D01*
X188071768Y-82906631D01*
X188011322Y-82923232D01*
X187811111Y-82925735D01*
X187747561Y-82909132D01*
X187720290Y-82893387D01*
X187720289Y-82893386D01*
X187720288Y-82893386D01*
X187631144Y-82869500D01*
X187538856Y-82869500D01*
X187449712Y-82893386D01*
X187449709Y-82893387D01*
X187412495Y-82914872D01*
X187352048Y-82931473D01*
X186576050Y-82941173D01*
X186508770Y-82922328D01*
X186462358Y-82870100D01*
X186450500Y-82817183D01*
X186450500Y-82753858D01*
X186450500Y-82753856D01*
X186426614Y-82664712D01*
X186420888Y-82654794D01*
X186380473Y-82584794D01*
X186380470Y-82584791D01*
X186380469Y-82584788D01*
X186315212Y-82519531D01*
X186315209Y-82519529D01*
X186315205Y-82519526D01*
X186235293Y-82473388D01*
X186235290Y-82473387D01*
X186235289Y-82473386D01*
X186235288Y-82473386D01*
X186146144Y-82449500D01*
X186146143Y-82449500D01*
X186119767Y-82449500D01*
X186090326Y-82440855D01*
X186060340Y-82434332D01*
X186055324Y-82430577D01*
X186052728Y-82429815D01*
X186032086Y-82413181D01*
X186008610Y-82389705D01*
X185991170Y-82372264D01*
X185927736Y-82308830D01*
X185927735Y-82308829D01*
X185903457Y-82298772D01*
X185903457Y-82298771D01*
X185844858Y-82274500D01*
X185844856Y-82274499D01*
X185844855Y-82274499D01*
X185755145Y-82274499D01*
X185740711Y-82274499D01*
X185740703Y-82274500D01*
X185478007Y-82274500D01*
X185472668Y-82274385D01*
X185450787Y-82273442D01*
X185438855Y-82268499D01*
X185349145Y-82268499D01*
X185349143Y-82268500D01*
X185336119Y-82268500D01*
X185333427Y-82268384D01*
X185302782Y-82257932D01*
X185271727Y-82248814D01*
X185268559Y-82246261D01*
X185267297Y-82245831D01*
X185266004Y-82244202D01*
X185251085Y-82232180D01*
X183257194Y-80238289D01*
X183223709Y-80176966D01*
X183227643Y-80121944D01*
X183175925Y-80126883D01*
X183113822Y-80094868D01*
X183111710Y-80092805D01*
X182736133Y-79717228D01*
X182728831Y-79703856D01*
X183249500Y-79703856D01*
X183249500Y-79796143D01*
X183273387Y-79885290D01*
X183273388Y-79885293D01*
X183306777Y-79943123D01*
X183323251Y-80011023D01*
X183315037Y-80034753D01*
X183336029Y-80026924D01*
X183404302Y-80041776D01*
X183406856Y-80043210D01*
X183424732Y-80053531D01*
X183464709Y-80076613D01*
X183464711Y-80076613D01*
X183464712Y-80076614D01*
X183553856Y-80100500D01*
X183553858Y-80100500D01*
X183646142Y-80100500D01*
X183646144Y-80100500D01*
X183735288Y-80076614D01*
X183815212Y-80030469D01*
X183880469Y-79965212D01*
X183926614Y-79885288D01*
X183950500Y-79796144D01*
X183950500Y-79703856D01*
X183926614Y-79614712D01*
X183895192Y-79560288D01*
X183880473Y-79534794D01*
X183880470Y-79534791D01*
X183880469Y-79534788D01*
X183815212Y-79469531D01*
X183815209Y-79469529D01*
X183815205Y-79469526D01*
X183735293Y-79423388D01*
X183735290Y-79423387D01*
X183735289Y-79423386D01*
X183735288Y-79423386D01*
X183646144Y-79399500D01*
X183553856Y-79399500D01*
X183464712Y-79423386D01*
X183464711Y-79423386D01*
X183464709Y-79423387D01*
X183464706Y-79423388D01*
X183384794Y-79469526D01*
X183384785Y-79469533D01*
X183319533Y-79534785D01*
X183319526Y-79534794D01*
X183273388Y-79614706D01*
X183273387Y-79614709D01*
X183273386Y-79614711D01*
X183273386Y-79614712D01*
X183259965Y-79664799D01*
X183249500Y-79703856D01*
X182728831Y-79703856D01*
X182702648Y-79655905D01*
X182700166Y-79638879D01*
X182654309Y-79030499D01*
X182624502Y-78635049D01*
X182624412Y-78633856D01*
X183329500Y-78633856D01*
X183329500Y-78726143D01*
X183353387Y-78815290D01*
X183353388Y-78815293D01*
X183399526Y-78895205D01*
X183399529Y-78895209D01*
X183399531Y-78895212D01*
X183464788Y-78960469D01*
X183464791Y-78960470D01*
X183464794Y-78960473D01*
X183544706Y-79006611D01*
X183544707Y-79006611D01*
X183544712Y-79006614D01*
X183633856Y-79030500D01*
X183633858Y-79030500D01*
X183726142Y-79030500D01*
X183726144Y-79030500D01*
X183815288Y-79006614D01*
X183895212Y-78960469D01*
X183960469Y-78895212D01*
X184006614Y-78815288D01*
X184030500Y-78726144D01*
X184030500Y-78633856D01*
X184006614Y-78544712D01*
X183989582Y-78515212D01*
X183960473Y-78464794D01*
X183960470Y-78464791D01*
X183960469Y-78464788D01*
X183895212Y-78399531D01*
X183895209Y-78399529D01*
X183895205Y-78399526D01*
X183815293Y-78353388D01*
X183815290Y-78353387D01*
X183815289Y-78353386D01*
X183815288Y-78353386D01*
X183726144Y-78329500D01*
X183633856Y-78329500D01*
X183544712Y-78353386D01*
X183544711Y-78353386D01*
X183544709Y-78353387D01*
X183544706Y-78353388D01*
X183464794Y-78399526D01*
X183464785Y-78399533D01*
X183399533Y-78464785D01*
X183399526Y-78464794D01*
X183353388Y-78544706D01*
X183353387Y-78544709D01*
X183353386Y-78544711D01*
X183353386Y-78544712D01*
X183346003Y-78572265D01*
X183329500Y-78633856D01*
X182624412Y-78633856D01*
X182600000Y-78310000D01*
X178154655Y-78285081D01*
X178125580Y-78276366D01*
X178095923Y-78269915D01*
X178090492Y-78265850D01*
X178087727Y-78265021D01*
X178067669Y-78248764D01*
X178008610Y-78189705D01*
X177991170Y-78172264D01*
X177927736Y-78108830D01*
X177927735Y-78108829D01*
X177903457Y-78098772D01*
X177903457Y-78098771D01*
X177844858Y-78074500D01*
X177844856Y-78074499D01*
X177844855Y-78074499D01*
X177755145Y-78074499D01*
X177740711Y-78074499D01*
X177740703Y-78074500D01*
X177321543Y-78074500D01*
X177254504Y-78054815D01*
X177233862Y-78038181D01*
X177215214Y-78019533D01*
X177215212Y-78019531D01*
X177215209Y-78019529D01*
X177215205Y-78019526D01*
X177135293Y-77973388D01*
X177135290Y-77973387D01*
X177135289Y-77973386D01*
X177135288Y-77973386D01*
X177046144Y-77949500D01*
X176953856Y-77949500D01*
X176864712Y-77973386D01*
X176864711Y-77973386D01*
X176864709Y-77973387D01*
X176864706Y-77973388D01*
X176784794Y-78019526D01*
X176784785Y-78019533D01*
X176719533Y-78084785D01*
X176719526Y-78084794D01*
X176673388Y-78164706D01*
X176673386Y-78164710D01*
X176668171Y-78184173D01*
X176653505Y-78208231D01*
X176641653Y-78233804D01*
X176635558Y-78237672D01*
X176631804Y-78243832D01*
X176606456Y-78256144D01*
X176582663Y-78271247D01*
X176572466Y-78272654D01*
X176568956Y-78274360D01*
X176547701Y-78276074D01*
X176427814Y-78275401D01*
X176360886Y-78255340D01*
X176335055Y-78232902D01*
X176330481Y-78227657D01*
X176325490Y-78222200D01*
X176256626Y-78180523D01*
X176256622Y-78180521D01*
X176189523Y-78161049D01*
X176189516Y-78161048D01*
X176145697Y-78154890D01*
X176145695Y-78154889D01*
X174900059Y-78158804D01*
X174832958Y-78139331D01*
X174787037Y-78086671D01*
X174776876Y-78017544D01*
X174805701Y-77953897D01*
X174810321Y-77948919D01*
X174810595Y-77948517D01*
X174810599Y-77948514D01*
X174857488Y-77842320D01*
X174860500Y-77816357D01*
X174860499Y-77643856D01*
X183319500Y-77643856D01*
X183319500Y-77736144D01*
X183340992Y-77816354D01*
X183343387Y-77825290D01*
X183343388Y-77825293D01*
X183389526Y-77905205D01*
X183389529Y-77905209D01*
X183389531Y-77905212D01*
X183454788Y-77970469D01*
X183454791Y-77970470D01*
X183454794Y-77970473D01*
X183534706Y-78016611D01*
X183534707Y-78016611D01*
X183534712Y-78016614D01*
X183623856Y-78040500D01*
X183623858Y-78040500D01*
X183716142Y-78040500D01*
X183716144Y-78040500D01*
X183805288Y-78016614D01*
X183885212Y-77970469D01*
X183950469Y-77905212D01*
X183996614Y-77825288D01*
X184020500Y-77736144D01*
X184020500Y-77643856D01*
X183996614Y-77554712D01*
X183996611Y-77554706D01*
X183950473Y-77474794D01*
X183950470Y-77474791D01*
X183950469Y-77474788D01*
X183885212Y-77409531D01*
X183885209Y-77409529D01*
X183885205Y-77409526D01*
X183805293Y-77363388D01*
X183805290Y-77363387D01*
X183805289Y-77363386D01*
X183805288Y-77363386D01*
X183716144Y-77339500D01*
X183623856Y-77339500D01*
X183534712Y-77363386D01*
X183534711Y-77363386D01*
X183534709Y-77363387D01*
X183534706Y-77363388D01*
X183454794Y-77409526D01*
X183454785Y-77409533D01*
X183389533Y-77474785D01*
X183389526Y-77474794D01*
X183343388Y-77554706D01*
X183343387Y-77554709D01*
X183343386Y-77554711D01*
X183343386Y-77554712D01*
X183319500Y-77643856D01*
X174860499Y-77643856D01*
X174860499Y-77554712D01*
X174860499Y-77328651D01*
X174860499Y-77328644D01*
X174857488Y-77302680D01*
X174810599Y-77196486D01*
X174804105Y-77187006D01*
X174805466Y-77186073D01*
X174778334Y-77136383D01*
X174775500Y-77110025D01*
X174775500Y-76393142D01*
X174795185Y-76326103D01*
X174847989Y-76280348D01*
X174880101Y-76270668D01*
X174908893Y-76266109D01*
X175018403Y-76210311D01*
X175105311Y-76123403D01*
X175161109Y-76013893D01*
X175175500Y-75923033D01*
X175175499Y-75713856D01*
X182379500Y-75713856D01*
X182379500Y-75806144D01*
X182387174Y-75834785D01*
X182403387Y-75895290D01*
X182403388Y-75895293D01*
X182449526Y-75975205D01*
X182449529Y-75975209D01*
X182449531Y-75975212D01*
X182514788Y-76040469D01*
X182514791Y-76040470D01*
X182514794Y-76040473D01*
X182594706Y-76086611D01*
X182594707Y-76086611D01*
X182594712Y-76086614D01*
X182683856Y-76110500D01*
X182683858Y-76110500D01*
X182776142Y-76110500D01*
X182776144Y-76110500D01*
X182865288Y-76086614D01*
X182945212Y-76040469D01*
X183010469Y-75975212D01*
X183056614Y-75895288D01*
X183080500Y-75806144D01*
X183080500Y-75713856D01*
X183056614Y-75624712D01*
X183056613Y-75624711D01*
X183056613Y-75624709D01*
X183050605Y-75614304D01*
X183034131Y-75546404D01*
X183056982Y-75480377D01*
X183111903Y-75437185D01*
X183125890Y-75432529D01*
X183185288Y-75416614D01*
X183265212Y-75370469D01*
X183330469Y-75305212D01*
X183376614Y-75225288D01*
X183400500Y-75136144D01*
X183400500Y-75043856D01*
X183376614Y-74954712D01*
X183376611Y-74954706D01*
X183330473Y-74874794D01*
X183330470Y-74874791D01*
X183330469Y-74874788D01*
X183265212Y-74809531D01*
X183265209Y-74809529D01*
X183265205Y-74809526D01*
X183185293Y-74763388D01*
X183185290Y-74763387D01*
X183185289Y-74763386D01*
X183185288Y-74763386D01*
X183096144Y-74739500D01*
X183003856Y-74739500D01*
X182914712Y-74763386D01*
X182914711Y-74763386D01*
X182914709Y-74763387D01*
X182914706Y-74763388D01*
X182834794Y-74809526D01*
X182834785Y-74809533D01*
X182769533Y-74874785D01*
X182769526Y-74874794D01*
X182723388Y-74954706D01*
X182723387Y-74954709D01*
X182723386Y-74954711D01*
X182723386Y-74954712D01*
X182699500Y-75043856D01*
X182699500Y-75136144D01*
X182719696Y-75211518D01*
X182723387Y-75225290D01*
X182723387Y-75225291D01*
X182729395Y-75235697D01*
X182745868Y-75303597D01*
X182723015Y-75369624D01*
X182668094Y-75412815D01*
X182654103Y-75417471D01*
X182594713Y-75433385D01*
X182594706Y-75433388D01*
X182514794Y-75479526D01*
X182514785Y-75479533D01*
X182449533Y-75544785D01*
X182449526Y-75544794D01*
X182403388Y-75624706D01*
X182403387Y-75624709D01*
X182403386Y-75624711D01*
X182403386Y-75624712D01*
X182379500Y-75713856D01*
X175175499Y-75713856D01*
X175175499Y-75599531D01*
X175175499Y-75286962D01*
X175161110Y-75196111D01*
X175161110Y-75196110D01*
X175161109Y-75196108D01*
X175161109Y-75196107D01*
X175105311Y-75086597D01*
X175105309Y-75086595D01*
X175105306Y-75086591D01*
X175018408Y-74999693D01*
X175018404Y-74999690D01*
X175018403Y-74999689D01*
X174908893Y-74943891D01*
X174908891Y-74943890D01*
X174908888Y-74943889D01*
X174818033Y-74929500D01*
X174281962Y-74929500D01*
X174281962Y-74929501D01*
X174191111Y-74943889D01*
X174191110Y-74943889D01*
X174081595Y-74999690D01*
X174081591Y-74999693D01*
X173994693Y-75086591D01*
X173994690Y-75086595D01*
X173994689Y-75086597D01*
X173964983Y-75144897D01*
X173917011Y-75195692D01*
X173849190Y-75212487D01*
X173783055Y-75189950D01*
X173739603Y-75135235D01*
X173730500Y-75088601D01*
X173730500Y-74205177D01*
X173721768Y-74161282D01*
X173721766Y-74161276D01*
X173693128Y-74118415D01*
X173672251Y-74051737D01*
X173672232Y-74049878D01*
X173670414Y-73064726D01*
X173689975Y-72997653D01*
X173742695Y-72951801D01*
X173794414Y-72940500D01*
X174612802Y-72940500D01*
X174679841Y-72960185D01*
G37*
%TD.AperFunction*%
%TD*%
M02*
