%TF.GenerationSoftware,KiCad,Pcbnew,9.0.0*%
%TF.CreationDate,2025-03-28T18:18:21+01:00*%
%TF.ProjectId,cansatperso,63616e73-6174-4706-9572-736f2e6b6963,rev?*%
%TF.SameCoordinates,Original*%
%TF.FileFunction,Copper,L3,Inr*%
%TF.FilePolarity,Positive*%
%FSLAX46Y46*%
G04 Gerber Fmt 4.6, Leading zero omitted, Abs format (unit mm)*
G04 Created by KiCad (PCBNEW 9.0.0) date 2025-03-28 18:18:21*
%MOMM*%
%LPD*%
G01*
G04 APERTURE LIST*
G04 Aperture macros list*
%AMOutline5P*
0 Free polygon, 5 corners , with rotation*
0 The origin of the aperture is its center*
0 number of corners: always 5*
0 $1 to $10 corner X, Y*
0 $11 Rotation angle, in degrees counterclockwise*
0 create outline with 5 corners*
4,1,5,$1,$2,$3,$4,$5,$6,$7,$8,$9,$10,$1,$2,$11*%
%AMOutline6P*
0 Free polygon, 6 corners , with rotation*
0 The origin of the aperture is its center*
0 number of corners: always 6*
0 $1 to $12 corner X, Y*
0 $13 Rotation angle, in degrees counterclockwise*
0 create outline with 6 corners*
4,1,6,$1,$2,$3,$4,$5,$6,$7,$8,$9,$10,$11,$12,$1,$2,$13*%
%AMOutline7P*
0 Free polygon, 7 corners , with rotation*
0 The origin of the aperture is its center*
0 number of corners: always 7*
0 $1 to $14 corner X, Y*
0 $15 Rotation angle, in degrees counterclockwise*
0 create outline with 7 corners*
4,1,7,$1,$2,$3,$4,$5,$6,$7,$8,$9,$10,$11,$12,$13,$14,$1,$2,$15*%
%AMOutline8P*
0 Free polygon, 8 corners , with rotation*
0 The origin of the aperture is its center*
0 number of corners: always 8*
0 $1 to $16 corner X, Y*
0 $17 Rotation angle, in degrees counterclockwise*
0 create outline with 8 corners*
4,1,8,$1,$2,$3,$4,$5,$6,$7,$8,$9,$10,$11,$12,$13,$14,$15,$16,$1,$2,$17*%
%AMFreePoly0*
4,1,7,1.000000,0.600000,1.000000,-1.000000,-1.000000,-1.000000,-1.000000,0.600000,-0.600000,1.000000,0.600000,1.000000,1.000000,0.600000,1.000000,0.600000,$1*%
G04 Aperture macros list end*
%TA.AperFunction,ComponentPad*%
%ADD10C,2.200000*%
%TD*%
%TA.AperFunction,ComponentPad*%
%ADD11Outline6P,-0.600000X0.360000X-0.360000X0.600000X0.360000X0.600000X0.600000X0.360000X0.600000X-0.600000X-0.600000X-0.600000X270.000000*%
%TD*%
%TA.AperFunction,ComponentPad*%
%ADD12FreePoly0,90.000000*%
%TD*%
%TA.AperFunction,ViaPad*%
%ADD13C,0.400000*%
%TD*%
%TA.AperFunction,Conductor*%
%ADD14C,0.150000*%
%TD*%
%TA.AperFunction,Conductor*%
%ADD15C,0.250000*%
%TD*%
%TA.AperFunction,Conductor*%
%ADD16C,0.200000*%
%TD*%
G04 APERTURE END LIST*
D10*
%TO.N,GND*%
%TO.C,*%
X176700000Y-71600000D03*
%TD*%
%TO.N,GND*%
%TO.C,*%
X191200000Y-95400000D03*
%TD*%
D11*
%TO.N,TIM3_CHI_PWM4*%
%TO.C,REF\u002A\u002A2*%
X195660000Y-87340000D03*
%TD*%
D12*
%TO.N,GND*%
%TO.C,*%
X172680000Y-80400000D03*
%TD*%
D11*
%TO.N,+5V*%
%TO.C,REF\u002A\u002A1*%
X195660000Y-89740000D03*
%TD*%
D10*
%TO.N,GND*%
%TO.C,*%
X176700000Y-95400000D03*
%TD*%
%TO.N,GND*%
%TO.C,*%
X191200000Y-71600000D03*
%TD*%
D11*
%TO.N,GND*%
%TO.C,REF\u002A\u002A*%
X195660000Y-92190000D03*
%TD*%
D12*
%TO.N,VIN*%
%TO.C,REF\u002A\u002A*%
X172675000Y-86705000D03*
%TD*%
D13*
%TO.N,+3.3V*%
X190420521Y-89010521D03*
%TO.N,ADC1_IN2_CURR*%
X174500000Y-90800000D03*
%TO.N,+3.3V*%
X179000000Y-79425000D03*
%TO.N,GND*%
X176000000Y-79425000D03*
%TO.N,I2C1_SDA*%
X178000000Y-79425000D03*
X181600000Y-82800000D03*
%TO.N,GND*%
X176360000Y-93120000D03*
X184730000Y-85210000D03*
X176140000Y-82470000D03*
X194760000Y-76690000D03*
X195710000Y-81720000D03*
X192250000Y-88020000D03*
X182160000Y-85940000D03*
X188060000Y-80840000D03*
X191100000Y-73300000D03*
X174140000Y-76740000D03*
X186860000Y-77390000D03*
X182600000Y-73300000D03*
X189650000Y-79120000D03*
X190880000Y-79060000D03*
X175390000Y-93170000D03*
X194680000Y-91940000D03*
X180900000Y-73300000D03*
X185500000Y-89530000D03*
X183680000Y-78680000D03*
X178400000Y-90820000D03*
X173080000Y-74720000D03*
X186880000Y-77930000D03*
X186810000Y-92670000D03*
X182750000Y-85180000D03*
X194760000Y-85190000D03*
X186380000Y-89540000D03*
X183870000Y-86560000D03*
X185770000Y-86240000D03*
X175330000Y-93790000D03*
X182730000Y-75760000D03*
X179340000Y-84110000D03*
X191820000Y-87500000D03*
X192290000Y-91270000D03*
X177500000Y-73300000D03*
X188800000Y-87800000D03*
X174340000Y-78550000D03*
X183840000Y-85180000D03*
X176300000Y-92500000D03*
X183670000Y-77690000D03*
X187970000Y-90257500D03*
X178860000Y-92680000D03*
X187700000Y-73300000D03*
X184670000Y-89530000D03*
X184040000Y-93547500D03*
X182700000Y-93770000D03*
X194580000Y-91267500D03*
X189400000Y-73300000D03*
X174340000Y-80170000D03*
X178930000Y-93810000D03*
X189690000Y-80400000D03*
X182750000Y-86610000D03*
X179200000Y-73300000D03*
X181370000Y-87230000D03*
X192770000Y-77880000D03*
X178130000Y-84070000D03*
X181100000Y-79200000D03*
X192420000Y-91820000D03*
X189020000Y-78290000D03*
X174000000Y-90300000D03*
X183600000Y-79750000D03*
X191330000Y-77620000D03*
X185670000Y-85170000D03*
X181840000Y-86720000D03*
X194760000Y-80090000D03*
X181000000Y-93770000D03*
X177480000Y-92630000D03*
X184300000Y-73300000D03*
X177600000Y-93770000D03*
X186000000Y-73300000D03*
X188010000Y-79360000D03*
X192600000Y-87500000D03*
%TO.N,+3.3V*%
X193380000Y-84040000D03*
X190050000Y-89495521D03*
X189750000Y-81710000D03*
X193800000Y-86700000D03*
X189950000Y-84530000D03*
X187800000Y-75020000D03*
X190070000Y-85070000D03*
X193830000Y-84270000D03*
X195710000Y-80320000D03*
X173070000Y-76130000D03*
X186180000Y-91660000D03*
X188320000Y-75010000D03*
X185110000Y-91730000D03*
X181090000Y-83220000D03*
X192570000Y-76830000D03*
X183050000Y-75090000D03*
X193816587Y-87131306D03*
X187000000Y-91430000D03*
X193150000Y-82610000D03*
X185020000Y-92422500D03*
X180140000Y-83220000D03*
%TO.N,NRST*%
X173080000Y-93590000D03*
X179380000Y-90850660D03*
%TO.N,USART3_RX*%
X180000000Y-93270000D03*
%TO.N,SDDETECT*%
X193396250Y-81483750D03*
X184190000Y-91260000D03*
%TO.N,+5V*%
X189147500Y-91280000D03*
X193490000Y-93810000D03*
X181560000Y-74390000D03*
X173070000Y-73460000D03*
X181541494Y-73890340D03*
X175170000Y-73890000D03*
X175170000Y-74330000D03*
X194280000Y-88840000D03*
X194280000Y-89310000D03*
X195710000Y-78920000D03*
%TO.N,ADC1_IN3_VBAT*%
X174770000Y-83300000D03*
X179180000Y-88470000D03*
%TO.N,ADC1_IN2_CURR*%
X179541191Y-88089171D03*
%TO.N,I2C3_SDA_ACCEL*%
X185110000Y-82870000D03*
X195710000Y-83120000D03*
X189860000Y-83705000D03*
%TO.N,I2C1_SCL*%
X177000000Y-78300000D03*
%TO.N,I2C3_SCL_ACCEL*%
X188090000Y-87150000D03*
X191937000Y-83410000D03*
X195710000Y-84520000D03*
%TO.N,3.3VEN*%
X189655249Y-93721215D03*
X189160000Y-93790000D03*
X189740000Y-77920000D03*
X190530166Y-83559834D03*
X189610000Y-93200000D03*
%TO.N,SPI1_CS_SD*%
X182650000Y-91240000D03*
X190330000Y-76010000D03*
%TO.N,SPI1_MISO_SD*%
X181480000Y-91210000D03*
X184510000Y-76050000D03*
%TO.N,SPI1_SCK_SD*%
X180225170Y-90704168D03*
X187020000Y-75880000D03*
%TO.N,SPI1_MOSI_SD*%
X189220000Y-75840000D03*
X182060000Y-91220000D03*
%TO.N,USART1_RX_GPS*%
X189730000Y-83060000D03*
X183132230Y-82772331D03*
%TO.N,USART1_TX_GPS*%
X183185000Y-83269541D03*
X189760000Y-82490000D03*
%TO.N,LPUART1_RX_RADIO*%
X186065000Y-78680000D03*
X179690000Y-90100000D03*
%TO.N,LPUART1_TX_RADIO*%
X187160000Y-90760000D03*
X187976943Y-78256943D03*
%TO.N,GPIO_EXTI1*%
X173070000Y-77580000D03*
X183230000Y-91230000D03*
%TO.N,SWO*%
X183310000Y-82305000D03*
X173090000Y-89490000D03*
%TO.N,SWDIO*%
X188230000Y-83220000D03*
X173070000Y-92300000D03*
%TO.N,I2C1_SCL*%
X186100000Y-82800000D03*
%TO.N,SWCLK{slash}I2C1_SDA*%
X173070000Y-90900000D03*
X187585000Y-83220000D03*
%TO.N,TIM3_CHI_PWM4*%
X188120000Y-87730000D03*
%TO.N,USART3_TX*%
X185620000Y-91330000D03*
X180020000Y-92060000D03*
%TO.N,D+*%
X193220000Y-89955000D03*
X188120000Y-85490000D03*
%TO.N,D-*%
X190860000Y-90540000D03*
X188150000Y-86110000D03*
%TO.N,PWEN*%
X188180000Y-88240000D03*
X194690000Y-93860000D03*
%TO.N,USBD+*%
X192060000Y-93870000D03*
%TO.N,USBD-*%
X190740000Y-93860000D03*
%TO.N,ADC2_IN17*%
X180190000Y-90150000D03*
X174500000Y-93530000D03*
%TO.N,USART3_RX*%
X182345000Y-82715000D03*
%TD*%
D14*
%TO.N,I2C1_SDA*%
X180500000Y-82800000D02*
X181600000Y-82800000D01*
X178000000Y-80300000D02*
X180500000Y-82800000D01*
X178000000Y-79425000D02*
X178000000Y-79300000D01*
X178000000Y-79425000D02*
X178000000Y-80300000D01*
%TO.N,ADC1_IN2_CURR*%
X179029084Y-88089171D02*
X179541191Y-88089171D01*
X174500000Y-90800000D02*
X174500000Y-90600000D01*
X174500000Y-90600000D02*
X174621669Y-90478331D01*
X178675032Y-88443223D02*
X179029084Y-88089171D01*
X178675032Y-89175032D02*
X178675032Y-88443223D01*
X177371733Y-90478331D02*
X178675032Y-89175032D01*
X174621669Y-90478331D02*
X177371733Y-90478331D01*
%TO.N,SWCLK{slash}I2C1_SDA*%
X187480000Y-83220000D02*
X187585000Y-83220000D01*
X185865873Y-84834127D02*
X187480000Y-83220000D01*
X185825745Y-84794000D02*
X185865873Y-84834127D01*
X185514255Y-84794000D02*
X185825745Y-84794000D01*
X185294000Y-85014255D02*
X185514255Y-84794000D01*
X185294000Y-85220331D02*
X185294000Y-85014255D01*
X185250000Y-85220331D02*
X185294000Y-85220331D01*
X184885331Y-85585000D02*
X185250000Y-85220331D01*
X183244669Y-85585000D02*
X184885331Y-85585000D01*
X182484669Y-86345000D02*
X183244669Y-85585000D01*
X181684669Y-86345000D02*
X182484669Y-86345000D01*
X180836446Y-87193223D02*
X181684669Y-86345000D01*
X180836032Y-87369000D02*
X180836446Y-87369000D01*
X180836446Y-87369000D02*
X180836446Y-87193223D01*
X177475701Y-90729331D02*
X180689000Y-87516032D01*
X175440083Y-90729331D02*
X177475701Y-90729331D01*
X175232147Y-90729331D02*
X175440083Y-90729331D01*
X175085115Y-90876363D02*
X175232147Y-90729331D01*
X174661478Y-91300000D02*
X175085115Y-90876363D01*
X173470000Y-91300000D02*
X174661478Y-91300000D01*
X173070000Y-90900000D02*
X173470000Y-91300000D01*
X180689000Y-87516032D02*
X180836032Y-87369000D01*
%TO.N,SWO*%
X183069230Y-82305000D02*
X183310000Y-82305000D01*
X182720000Y-82870331D02*
X182720000Y-82654230D01*
X178210000Y-87380331D02*
X182720000Y-82870331D01*
X173100000Y-89500000D02*
X176900000Y-89500000D01*
X176900000Y-89500000D02*
X178210000Y-88190000D01*
X178210000Y-88190000D02*
X178210000Y-87380331D01*
X182720000Y-82654230D02*
X183069230Y-82305000D01*
X173090000Y-89490000D02*
X173100000Y-89500000D01*
D15*
%TO.N,+3.3V*%
X194270000Y-77730000D02*
X193370000Y-76830000D01*
X195710000Y-80320000D02*
X194270000Y-78880000D01*
X193370000Y-76830000D02*
X192570000Y-76830000D01*
X194270000Y-78880000D02*
X194270000Y-77730000D01*
D14*
%TO.N,NRST*%
X175439669Y-91230331D02*
X173080000Y-93590000D01*
X179000329Y-91230331D02*
X175439669Y-91230331D01*
X179380000Y-90850660D02*
X179000329Y-91230331D01*
%TO.N,SDDETECT*%
X188999669Y-84080000D02*
X190540331Y-84080000D01*
X193136581Y-81483750D02*
X193396250Y-81483750D01*
X184190000Y-88889669D02*
X188999669Y-84080000D01*
X190540331Y-84080000D02*
X193136581Y-81483750D01*
X184190000Y-91260000D02*
X184190000Y-88889669D01*
%TO.N,I2C3_SDA_ACCEL*%
X187102000Y-82402000D02*
X185398000Y-82402000D01*
X185110000Y-82690000D02*
X185110000Y-82870000D01*
X187450000Y-82750000D02*
X187102000Y-82402000D01*
X185398000Y-82402000D02*
X185110000Y-82690000D01*
X189844669Y-83705000D02*
X188889669Y-82750000D01*
X189860000Y-83705000D02*
X189844669Y-83705000D01*
X188889669Y-82750000D02*
X187450000Y-82750000D01*
%TO.N,USART1_RX_GPS*%
X184174115Y-82772331D02*
X185046446Y-81900000D01*
X190140000Y-82339669D02*
X190140000Y-82650000D01*
X183132230Y-82772331D02*
X184174115Y-82772331D01*
X185046446Y-81900000D02*
X189408255Y-81900000D01*
X189886331Y-82086000D02*
X190140000Y-82339669D01*
X189408255Y-81900000D02*
X189594255Y-82086000D01*
X189594255Y-82086000D02*
X189886331Y-82086000D01*
X190140000Y-82650000D02*
X189730000Y-83060000D01*
%TO.N,USART1_TX_GPS*%
X184276669Y-83023331D02*
X184278083Y-83023331D01*
X184210000Y-83090000D02*
X184276669Y-83023331D01*
X189607000Y-82337000D02*
X189760000Y-82490000D01*
X183364541Y-83090000D02*
X184210000Y-83090000D01*
X189490287Y-82337000D02*
X189607000Y-82337000D01*
X184425115Y-82876299D02*
X185150414Y-82151000D01*
X185150414Y-82151000D02*
X189304287Y-82151000D01*
X189343255Y-82189968D02*
X189490287Y-82337000D01*
X184278083Y-83023331D02*
X184425115Y-82876299D01*
X189304287Y-82151000D02*
X189343255Y-82189968D01*
X183185000Y-83269541D02*
X183364541Y-83090000D01*
%TO.N,SWDIO*%
X177579669Y-90980331D02*
X180940000Y-87620000D01*
X175336115Y-90980331D02*
X177579669Y-90980331D01*
X180940000Y-87620000D02*
X183830000Y-87620000D01*
X173070000Y-92300000D02*
X174016446Y-92300000D01*
X183830000Y-87620000D02*
X188230000Y-83220000D01*
X174016446Y-92300000D02*
X175336115Y-90980331D01*
D16*
%TO.N,D+*%
X188670000Y-86040000D02*
X188120000Y-85490000D01*
X193220000Y-89955000D02*
X193220000Y-89660000D01*
X189600000Y-86040000D02*
X188670000Y-86040000D01*
X193220000Y-89660000D02*
X189600000Y-86040000D01*
%TO.N,D-*%
X188150000Y-86174314D02*
X190860000Y-88884314D01*
X190860000Y-88884314D02*
X190860000Y-90540000D01*
X188150000Y-86110000D02*
X188150000Y-86174314D01*
D14*
%TO.N,ADC2_IN17*%
X174500000Y-92620000D02*
X175570000Y-91550000D01*
X179270000Y-91550000D02*
X179850170Y-90969830D01*
X179850170Y-90969830D02*
X179850170Y-90489830D01*
X175570000Y-91550000D02*
X179270000Y-91550000D01*
X174500000Y-93530000D02*
X174500000Y-92620000D01*
X179850170Y-90489830D02*
X180190000Y-90150000D01*
%TD*%
%TA.AperFunction,Conductor*%
%TO.N,GND*%
G36*
X177899500Y-94219107D02*
G01*
X177899464Y-94238825D01*
X177899500Y-94238912D01*
X177899500Y-96575500D01*
X177879815Y-96642539D01*
X177827011Y-96688294D01*
X177775500Y-96699500D01*
X175624493Y-96699500D01*
X175557454Y-96679815D01*
X175511699Y-96627011D01*
X175500493Y-96575501D01*
X175500467Y-94215606D01*
X175500467Y-94215387D01*
X175500494Y-94200000D01*
X177899500Y-94200000D01*
X177899500Y-94219107D01*
G37*
%TD.AperFunction*%
%TA.AperFunction,Conductor*%
G36*
X190693856Y-94210500D02*
G01*
X190693858Y-94210500D01*
X190786142Y-94210500D01*
X190786144Y-94210500D01*
X190825331Y-94200000D01*
X191937349Y-94200000D01*
X192013856Y-94220500D01*
X192013858Y-94220500D01*
X192106142Y-94220500D01*
X192106144Y-94220500D01*
X192182651Y-94200000D01*
X192353340Y-94200000D01*
X192390616Y-94247397D01*
X192399500Y-94293486D01*
X192399500Y-96575500D01*
X192379815Y-96642539D01*
X192327011Y-96688294D01*
X192275500Y-96699500D01*
X190124494Y-96699500D01*
X190057455Y-96679815D01*
X190011700Y-96627011D01*
X190000494Y-96575504D01*
X190000426Y-94241145D01*
X190000426Y-94240911D01*
X190000463Y-94220965D01*
X190000426Y-94220875D01*
X190000426Y-94220778D01*
X189998193Y-94215387D01*
X189992855Y-94202500D01*
X189992767Y-94202288D01*
X189991824Y-94200000D01*
X190654669Y-94200000D01*
X190693856Y-94210500D01*
G37*
%TD.AperFunction*%
%TD*%
%TA.AperFunction,Conductor*%
%TO.N,GND*%
G36*
X177842539Y-70220185D02*
G01*
X177888294Y-70272989D01*
X177899500Y-70324500D01*
X177899500Y-72859992D01*
X177914799Y-72896928D01*
X177914800Y-72896929D01*
X177943071Y-72925200D01*
X177980009Y-72940500D01*
X177980011Y-72940500D01*
X189919989Y-72940500D01*
X189919991Y-72940500D01*
X189956929Y-72925200D01*
X189985200Y-72896929D01*
X190000500Y-72859991D01*
X190000500Y-70424500D01*
X190020185Y-70357461D01*
X190072989Y-70311706D01*
X190124500Y-70300500D01*
X192275500Y-70300500D01*
X192342539Y-70320185D01*
X192388294Y-70372989D01*
X192399500Y-70424500D01*
X192399500Y-72859992D01*
X192414799Y-72896928D01*
X192414800Y-72896929D01*
X192443071Y-72925200D01*
X192480009Y-72940500D01*
X192519991Y-72940500D01*
X193393822Y-72940500D01*
X193400000Y-73200000D01*
X174900000Y-73400000D01*
X174889060Y-72940500D01*
X175419989Y-72940500D01*
X175419991Y-72940500D01*
X175456929Y-72925200D01*
X175485200Y-72896929D01*
X175500500Y-72859991D01*
X175500500Y-70324500D01*
X175520185Y-70257461D01*
X175572989Y-70211706D01*
X175624500Y-70200500D01*
X177775500Y-70200500D01*
X177842539Y-70220185D01*
G37*
%TD.AperFunction*%
%TD*%
%TA.AperFunction,Conductor*%
%TO.N,GND*%
G36*
X174900000Y-73400000D02*
G01*
X193400000Y-73200000D01*
X193393821Y-72940500D01*
X194945500Y-72940500D01*
X195012539Y-72960185D01*
X195058294Y-73012989D01*
X195069500Y-73064500D01*
X195069500Y-78249992D01*
X195084799Y-78286928D01*
X195108511Y-78310640D01*
X195141996Y-78371963D01*
X195144830Y-78398437D01*
X195144205Y-79065343D01*
X195124458Y-79132364D01*
X195071611Y-79178070D01*
X195002443Y-79187948D01*
X194938914Y-79158864D01*
X194932524Y-79152908D01*
X194581819Y-78802203D01*
X194548334Y-78740880D01*
X194545500Y-78714522D01*
X194545500Y-77675201D01*
X194545500Y-77675200D01*
X194503557Y-77573942D01*
X194503557Y-77573941D01*
X194035116Y-77105500D01*
X193526059Y-76596443D01*
X193509393Y-76589540D01*
X193424800Y-76554500D01*
X192827045Y-76554500D01*
X192765044Y-76537887D01*
X192705288Y-76503386D01*
X192616144Y-76479500D01*
X192523856Y-76479500D01*
X192434712Y-76503386D01*
X192434711Y-76503386D01*
X192434709Y-76503387D01*
X192434706Y-76503388D01*
X192354794Y-76549526D01*
X192354785Y-76549533D01*
X192289533Y-76614785D01*
X192289526Y-76614794D01*
X192243388Y-76694706D01*
X192243387Y-76694709D01*
X192219500Y-76783856D01*
X192219500Y-76876143D01*
X192243387Y-76965290D01*
X192243388Y-76965293D01*
X192289526Y-77045205D01*
X192289529Y-77045209D01*
X192289531Y-77045212D01*
X192354788Y-77110469D01*
X192354791Y-77110470D01*
X192354794Y-77110473D01*
X192434706Y-77156611D01*
X192434707Y-77156611D01*
X192434712Y-77156614D01*
X192523856Y-77180500D01*
X192523858Y-77180500D01*
X192616142Y-77180500D01*
X192616144Y-77180500D01*
X192705288Y-77156614D01*
X192765044Y-77122112D01*
X192827045Y-77105500D01*
X193204523Y-77105500D01*
X193271562Y-77125185D01*
X193292204Y-77141819D01*
X193958181Y-77807796D01*
X193991666Y-77869119D01*
X193994500Y-77895477D01*
X193994500Y-78934800D01*
X194005132Y-78960466D01*
X194005133Y-78960469D01*
X194036443Y-79036058D01*
X194036444Y-79036059D01*
X195106828Y-80106444D01*
X195140313Y-80167767D01*
X195143147Y-80194241D01*
X195138675Y-84967948D01*
X195118928Y-85034969D01*
X195102359Y-85055511D01*
X195074799Y-85083072D01*
X195059500Y-85120007D01*
X195059500Y-86493051D01*
X195039815Y-86560090D01*
X195004391Y-86596153D01*
X194951495Y-86631496D01*
X194918234Y-86681275D01*
X194918231Y-86681282D01*
X194909500Y-86725177D01*
X194909500Y-86725180D01*
X194909500Y-87954820D01*
X194909500Y-87954822D01*
X194909499Y-87954822D01*
X194918231Y-87998717D01*
X194918234Y-87998724D01*
X194951494Y-88048502D01*
X194951495Y-88048502D01*
X194951496Y-88048504D01*
X195001278Y-88081767D01*
X195001280Y-88081767D01*
X195004390Y-88083845D01*
X195049195Y-88137457D01*
X195059500Y-88186948D01*
X195059500Y-88893051D01*
X195039815Y-88960090D01*
X195004391Y-88996153D01*
X194951495Y-89031496D01*
X194918234Y-89081275D01*
X194918231Y-89081282D01*
X194909500Y-89125177D01*
X194909500Y-89125180D01*
X194909500Y-90354820D01*
X194909500Y-90354822D01*
X194909499Y-90354822D01*
X194918231Y-90398717D01*
X194918234Y-90398724D01*
X194951494Y-90448502D01*
X194951495Y-90448502D01*
X194951496Y-90448504D01*
X195001278Y-90481767D01*
X195001280Y-90481767D01*
X195004390Y-90483845D01*
X195049195Y-90537457D01*
X195059500Y-90586948D01*
X195059500Y-91469992D01*
X195074799Y-91506928D01*
X195096128Y-91528257D01*
X195129613Y-91589580D01*
X195132447Y-91616054D01*
X195131362Y-92775261D01*
X195111615Y-92842282D01*
X195095046Y-92862823D01*
X195074800Y-92883069D01*
X195074799Y-92883071D01*
X195059500Y-92920007D01*
X195059500Y-93453834D01*
X195039815Y-93520873D01*
X194987011Y-93566628D01*
X194917853Y-93576572D01*
X194873499Y-93561221D01*
X194825289Y-93533386D01*
X194778589Y-93520873D01*
X194736144Y-93509500D01*
X194643856Y-93509500D01*
X194554712Y-93533386D01*
X194554711Y-93533386D01*
X194554709Y-93533387D01*
X194554706Y-93533388D01*
X194474794Y-93579526D01*
X194474785Y-93579533D01*
X194409533Y-93644785D01*
X194409526Y-93644794D01*
X194363388Y-93724706D01*
X194363387Y-93724709D01*
X194363386Y-93724711D01*
X194363386Y-93724712D01*
X194352897Y-93763858D01*
X194339500Y-93813856D01*
X194339500Y-93906145D01*
X194362401Y-93991615D01*
X194360738Y-94061465D01*
X194321575Y-94119327D01*
X194257346Y-94146830D01*
X194242384Y-94147707D01*
X193914648Y-94147067D01*
X193847647Y-94127251D01*
X193801995Y-94074358D01*
X193792187Y-94005180D01*
X193807504Y-93961066D01*
X193816614Y-93945288D01*
X193840500Y-93856144D01*
X193840500Y-93763856D01*
X193816614Y-93674712D01*
X193811176Y-93665293D01*
X193770473Y-93594794D01*
X193770470Y-93594791D01*
X193770469Y-93594788D01*
X193705212Y-93529531D01*
X193705209Y-93529529D01*
X193705205Y-93529526D01*
X193625293Y-93483388D01*
X193625290Y-93483387D01*
X193625289Y-93483386D01*
X193625288Y-93483386D01*
X193536144Y-93459500D01*
X193443856Y-93459500D01*
X193354712Y-93483386D01*
X193354711Y-93483386D01*
X193354709Y-93483387D01*
X193354706Y-93483388D01*
X193274794Y-93529526D01*
X193274785Y-93529533D01*
X193209533Y-93594785D01*
X193209526Y-93594794D01*
X193163388Y-93674706D01*
X193163387Y-93674709D01*
X193163386Y-93674711D01*
X193163386Y-93674712D01*
X193139500Y-93763856D01*
X193139500Y-93856144D01*
X193143339Y-93870470D01*
X193163386Y-93945289D01*
X193171536Y-93959404D01*
X193188010Y-94027304D01*
X193165159Y-94093331D01*
X193110239Y-94136523D01*
X193063908Y-94145406D01*
X192532125Y-94144368D01*
X192532014Y-94144367D01*
X192520054Y-94144332D01*
X192519991Y-94144307D01*
X192510962Y-94144307D01*
X192510611Y-94144306D01*
X192477303Y-94134423D01*
X192443925Y-94124622D01*
X192443805Y-94124483D01*
X192443628Y-94124431D01*
X192420795Y-94097928D01*
X192398170Y-94071818D01*
X192398144Y-94071637D01*
X192398023Y-94071497D01*
X192393155Y-94036937D01*
X192388226Y-94002660D01*
X192388285Y-94002370D01*
X192388277Y-94002310D01*
X192388314Y-94002228D01*
X192391189Y-93988214D01*
X192396241Y-93969358D01*
X192410500Y-93916144D01*
X192410500Y-93823856D01*
X192386614Y-93734712D01*
X192381176Y-93725293D01*
X192340473Y-93654794D01*
X192340470Y-93654791D01*
X192340469Y-93654788D01*
X192275212Y-93589531D01*
X192275209Y-93589529D01*
X192275205Y-93589526D01*
X192195293Y-93543388D01*
X192195290Y-93543387D01*
X192195289Y-93543386D01*
X192195288Y-93543386D01*
X192106144Y-93519500D01*
X192013856Y-93519500D01*
X191924712Y-93543386D01*
X191924711Y-93543386D01*
X191924709Y-93543387D01*
X191924706Y-93543388D01*
X191844794Y-93589526D01*
X191844785Y-93589533D01*
X191779533Y-93654785D01*
X191779526Y-93654794D01*
X191733388Y-93734706D01*
X191733387Y-93734709D01*
X191733386Y-93734711D01*
X191733386Y-93734712D01*
X191709500Y-93823856D01*
X191709500Y-93916144D01*
X191733357Y-94005180D01*
X191733387Y-94005290D01*
X191733388Y-94005293D01*
X191779526Y-94085205D01*
X191779529Y-94085209D01*
X191779531Y-94085212D01*
X191844788Y-94150469D01*
X191844791Y-94150470D01*
X191844794Y-94150473D01*
X191924706Y-94196611D01*
X191924707Y-94196611D01*
X191924712Y-94196614D01*
X191937349Y-94200000D01*
X190825331Y-94200000D01*
X190875288Y-94186614D01*
X190955212Y-94140469D01*
X191020469Y-94075212D01*
X191066614Y-93995288D01*
X191090500Y-93906144D01*
X191090500Y-93813856D01*
X191066614Y-93724712D01*
X191066611Y-93724706D01*
X191020473Y-93644794D01*
X191020470Y-93644791D01*
X191020469Y-93644788D01*
X190955212Y-93579531D01*
X190955209Y-93579529D01*
X190955205Y-93579526D01*
X190875293Y-93533388D01*
X190875290Y-93533387D01*
X190875289Y-93533386D01*
X190875288Y-93533386D01*
X190786144Y-93509500D01*
X190693856Y-93509500D01*
X190604712Y-93533386D01*
X190604711Y-93533386D01*
X190604709Y-93533387D01*
X190604706Y-93533388D01*
X190524794Y-93579526D01*
X190524785Y-93579533D01*
X190459533Y-93644785D01*
X190459526Y-93644794D01*
X190413388Y-93724706D01*
X190413387Y-93724709D01*
X190413386Y-93724711D01*
X190413386Y-93724712D01*
X190389500Y-93813856D01*
X190389500Y-93906144D01*
X190408853Y-93978372D01*
X190413387Y-93995290D01*
X190413388Y-93995293D01*
X190459526Y-94075205D01*
X190459529Y-94075209D01*
X190459531Y-94075212D01*
X190524788Y-94140469D01*
X190524791Y-94140470D01*
X190524794Y-94140473D01*
X190604706Y-94186611D01*
X190604707Y-94186611D01*
X190604712Y-94186614D01*
X190654669Y-94200000D01*
X189991824Y-94200000D01*
X189985231Y-94183999D01*
X189985161Y-94183929D01*
X189985125Y-94183841D01*
X189971121Y-94169837D01*
X189957012Y-94155676D01*
X189957010Y-94155675D01*
X189957006Y-94155671D01*
X189947213Y-94149128D01*
X189946714Y-94148795D01*
X189946812Y-94148648D01*
X189942262Y-94143204D01*
X189903997Y-94112366D01*
X189881935Y-94046071D01*
X189899217Y-93978372D01*
X189918173Y-93953971D01*
X189935718Y-93936427D01*
X189981863Y-93856503D01*
X190005749Y-93767359D01*
X190005749Y-93675071D01*
X189981863Y-93585927D01*
X189981860Y-93585921D01*
X189935722Y-93506009D01*
X189935719Y-93506006D01*
X189935718Y-93506003D01*
X189935715Y-93506000D01*
X189930771Y-93499557D01*
X189933492Y-93497468D01*
X189907595Y-93450042D01*
X189912579Y-93380350D01*
X189921375Y-93361682D01*
X189936613Y-93335289D01*
X189936614Y-93335288D01*
X189960500Y-93246144D01*
X189960500Y-93153856D01*
X189936614Y-93064712D01*
X189930888Y-93054794D01*
X189890473Y-92984794D01*
X189890470Y-92984791D01*
X189890469Y-92984788D01*
X189825212Y-92919531D01*
X189825209Y-92919529D01*
X189825205Y-92919526D01*
X189745293Y-92873388D01*
X189745290Y-92873387D01*
X189745289Y-92873386D01*
X189745288Y-92873386D01*
X189656144Y-92849500D01*
X189563856Y-92849500D01*
X189474712Y-92873386D01*
X189474711Y-92873386D01*
X189474709Y-92873387D01*
X189474706Y-92873388D01*
X189394794Y-92919526D01*
X189394785Y-92919533D01*
X189329533Y-92984785D01*
X189329526Y-92984794D01*
X189283388Y-93064706D01*
X189283387Y-93064709D01*
X189283386Y-93064711D01*
X189283386Y-93064712D01*
X189259500Y-93153856D01*
X189259500Y-93246144D01*
X189269484Y-93283408D01*
X189267822Y-93353256D01*
X189228660Y-93411119D01*
X189164431Y-93438623D01*
X189149710Y-93439500D01*
X189113856Y-93439500D01*
X189024712Y-93463386D01*
X189024711Y-93463386D01*
X189024709Y-93463387D01*
X189024706Y-93463388D01*
X188944794Y-93509526D01*
X188944785Y-93509533D01*
X188879533Y-93574785D01*
X188879526Y-93574794D01*
X188833388Y-93654706D01*
X188833387Y-93654709D01*
X188833386Y-93654711D01*
X188833386Y-93654712D01*
X188809500Y-93743856D01*
X188809500Y-93836144D01*
X188830935Y-93916142D01*
X188833387Y-93925290D01*
X188833387Y-93925291D01*
X188848896Y-93952153D01*
X188865369Y-94020053D01*
X188842517Y-94086080D01*
X188787595Y-94129271D01*
X188741282Y-94138153D01*
X178032013Y-94118575D01*
X178032013Y-94118574D01*
X178020078Y-94118553D01*
X178019991Y-94118518D01*
X177999893Y-94118518D01*
X177999888Y-94118518D01*
X177996305Y-94118511D01*
X177980193Y-94118482D01*
X177980192Y-94118482D01*
X177980184Y-94118482D01*
X177980013Y-94118516D01*
X177970559Y-94122431D01*
X177961517Y-94126177D01*
X177954009Y-94129271D01*
X177943221Y-94133716D01*
X177943077Y-94133812D01*
X177929219Y-94147669D01*
X177929064Y-94147824D01*
X177914902Y-94161933D01*
X177914802Y-94162081D01*
X177907202Y-94180428D01*
X177907159Y-94180531D01*
X177899537Y-94198843D01*
X177899536Y-94198938D01*
X177899500Y-94199027D01*
X177899500Y-94200000D01*
X175500494Y-94200000D01*
X175500502Y-94195519D01*
X175500467Y-94195434D01*
X175500467Y-94195342D01*
X175492897Y-94177068D01*
X175485267Y-94158555D01*
X175485201Y-94158488D01*
X175485166Y-94158404D01*
X175471030Y-94144268D01*
X175457046Y-94130234D01*
X175456960Y-94130198D01*
X175456895Y-94130133D01*
X175438852Y-94122659D01*
X175438678Y-94122519D01*
X175438654Y-94122577D01*
X175420133Y-94114868D01*
X175419967Y-94114834D01*
X175419957Y-94114834D01*
X175400187Y-94114834D01*
X174618371Y-94113462D01*
X174379629Y-94113043D01*
X173340774Y-94111220D01*
X173273770Y-94091418D01*
X173228107Y-94038533D01*
X173218285Y-93969358D01*
X173247422Y-93905853D01*
X173278991Y-93879834D01*
X173295212Y-93870469D01*
X173360469Y-93805212D01*
X173406614Y-93725288D01*
X173430500Y-93636144D01*
X173430500Y-93609767D01*
X173450185Y-93542728D01*
X173466819Y-93522086D01*
X174062819Y-92926086D01*
X174124142Y-92892601D01*
X174193834Y-92897585D01*
X174249767Y-92939457D01*
X174274184Y-93004921D01*
X174274500Y-93013767D01*
X174274500Y-93208457D01*
X174254815Y-93275496D01*
X174238181Y-93296138D01*
X174219533Y-93314785D01*
X174219526Y-93314794D01*
X174173388Y-93394706D01*
X174173387Y-93394709D01*
X174173386Y-93394711D01*
X174173386Y-93394712D01*
X174149500Y-93483856D01*
X174149500Y-93576144D01*
X174170574Y-93654794D01*
X174173387Y-93665290D01*
X174173388Y-93665293D01*
X174219526Y-93745205D01*
X174219529Y-93745209D01*
X174219531Y-93745212D01*
X174284788Y-93810469D01*
X174284791Y-93810470D01*
X174284794Y-93810473D01*
X174364706Y-93856611D01*
X174364708Y-93856612D01*
X174364709Y-93856612D01*
X174364712Y-93856614D01*
X174453856Y-93880500D01*
X174546144Y-93880500D01*
X174635288Y-93856614D01*
X174715212Y-93810469D01*
X174780469Y-93745212D01*
X174826614Y-93665288D01*
X174850500Y-93576144D01*
X174850500Y-93483856D01*
X174826614Y-93394712D01*
X174826611Y-93394706D01*
X174780473Y-93314794D01*
X174780470Y-93314791D01*
X174780469Y-93314788D01*
X174761819Y-93296138D01*
X174728334Y-93234815D01*
X174727156Y-93223856D01*
X179649500Y-93223856D01*
X179649500Y-93316144D01*
X179670552Y-93394712D01*
X179673387Y-93405290D01*
X179673388Y-93405293D01*
X179719526Y-93485205D01*
X179719529Y-93485209D01*
X179719531Y-93485212D01*
X179784788Y-93550469D01*
X179784791Y-93550470D01*
X179784794Y-93550473D01*
X179864706Y-93596611D01*
X179864707Y-93596611D01*
X179864712Y-93596614D01*
X179953856Y-93620500D01*
X179953858Y-93620500D01*
X180046142Y-93620500D01*
X180046144Y-93620500D01*
X180135288Y-93596614D01*
X180215212Y-93550469D01*
X180280469Y-93485212D01*
X180326614Y-93405288D01*
X180350500Y-93316144D01*
X180350500Y-93223856D01*
X180326614Y-93134712D01*
X180286199Y-93064712D01*
X180280473Y-93054794D01*
X180280470Y-93054791D01*
X180280469Y-93054788D01*
X180215212Y-92989531D01*
X180215209Y-92989529D01*
X180215205Y-92989526D01*
X180135293Y-92943388D01*
X180135290Y-92943387D01*
X180135289Y-92943386D01*
X180135288Y-92943386D01*
X180046144Y-92919500D01*
X179953856Y-92919500D01*
X179864712Y-92943386D01*
X179864711Y-92943386D01*
X179864709Y-92943387D01*
X179864706Y-92943388D01*
X179784794Y-92989526D01*
X179784785Y-92989533D01*
X179719533Y-93054785D01*
X179719526Y-93054794D01*
X179673388Y-93134706D01*
X179673387Y-93134709D01*
X179673386Y-93134711D01*
X179673386Y-93134712D01*
X179649500Y-93223856D01*
X174727156Y-93223856D01*
X174725500Y-93208457D01*
X174725500Y-92764767D01*
X174745185Y-92697728D01*
X174761819Y-92677086D01*
X175425049Y-92013856D01*
X179669500Y-92013856D01*
X179669500Y-92106144D01*
X179685193Y-92164712D01*
X179693387Y-92195290D01*
X179693388Y-92195293D01*
X179739526Y-92275205D01*
X179739529Y-92275209D01*
X179739531Y-92275212D01*
X179804788Y-92340469D01*
X179804791Y-92340470D01*
X179804794Y-92340473D01*
X179884706Y-92386611D01*
X179884707Y-92386611D01*
X179884712Y-92386614D01*
X179973856Y-92410500D01*
X179973858Y-92410500D01*
X180066142Y-92410500D01*
X180066144Y-92410500D01*
X180155288Y-92386614D01*
X180173055Y-92376356D01*
X184669500Y-92376356D01*
X184669500Y-92468644D01*
X184690526Y-92547115D01*
X184693387Y-92557790D01*
X184693388Y-92557793D01*
X184739526Y-92637705D01*
X184739529Y-92637709D01*
X184739531Y-92637712D01*
X184804788Y-92702969D01*
X184804791Y-92702970D01*
X184804794Y-92702973D01*
X184884706Y-92749111D01*
X184884707Y-92749111D01*
X184884712Y-92749114D01*
X184973856Y-92773000D01*
X184973858Y-92773000D01*
X185066142Y-92773000D01*
X185066144Y-92773000D01*
X185155288Y-92749114D01*
X185235212Y-92702969D01*
X185300469Y-92637712D01*
X185346614Y-92557788D01*
X185370500Y-92468644D01*
X185370500Y-92376356D01*
X185346614Y-92287212D01*
X185346611Y-92287206D01*
X185300473Y-92207294D01*
X185300470Y-92207291D01*
X185300469Y-92207288D01*
X185299015Y-92205834D01*
X185298181Y-92204308D01*
X185295522Y-92200842D01*
X185296062Y-92200427D01*
X185265530Y-92144511D01*
X185270514Y-92074819D01*
X185312386Y-92018886D01*
X185324684Y-92010773D01*
X185325212Y-92010469D01*
X185390469Y-91945212D01*
X185436614Y-91865288D01*
X185460500Y-91776144D01*
X185460500Y-91776142D01*
X185461501Y-91772407D01*
X185473551Y-91752636D01*
X185481489Y-91730890D01*
X185491392Y-91723367D01*
X185497866Y-91712746D01*
X185518691Y-91702629D01*
X185537126Y-91688626D01*
X185553859Y-91685546D01*
X185560713Y-91682217D01*
X185571560Y-91680881D01*
X185576408Y-91680500D01*
X185666144Y-91680500D01*
X185703391Y-91670519D01*
X185714749Y-91669627D01*
X185738232Y-91674562D01*
X185762219Y-91675133D01*
X185771800Y-91681617D01*
X185783125Y-91683998D01*
X185800210Y-91700845D01*
X185820082Y-91714294D01*
X185826526Y-91726793D01*
X185832876Y-91733055D01*
X185835291Y-91743796D01*
X185844239Y-91761151D01*
X185849423Y-91780499D01*
X185853387Y-91795290D01*
X185853388Y-91795293D01*
X185899526Y-91875205D01*
X185899529Y-91875209D01*
X185899531Y-91875212D01*
X185964788Y-91940469D01*
X185964791Y-91940470D01*
X185964794Y-91940473D01*
X186044706Y-91986611D01*
X186044707Y-91986611D01*
X186044712Y-91986614D01*
X186133856Y-92010500D01*
X186133858Y-92010500D01*
X186226142Y-92010500D01*
X186226144Y-92010500D01*
X186315288Y-91986614D01*
X186395212Y-91940469D01*
X186460469Y-91875212D01*
X186506614Y-91795288D01*
X186527736Y-91716457D01*
X186564100Y-91656800D01*
X186626946Y-91626270D01*
X186696322Y-91634564D01*
X186735191Y-91660872D01*
X186784788Y-91710469D01*
X186784791Y-91710470D01*
X186784794Y-91710473D01*
X186864706Y-91756611D01*
X186864707Y-91756611D01*
X186864712Y-91756614D01*
X186953856Y-91780500D01*
X186953858Y-91780500D01*
X187046142Y-91780500D01*
X187046144Y-91780500D01*
X187135288Y-91756614D01*
X187215212Y-91710469D01*
X187280469Y-91645212D01*
X187326614Y-91565288D01*
X187350500Y-91476144D01*
X187350500Y-91383856D01*
X187326614Y-91294712D01*
X187326611Y-91294706D01*
X187322583Y-91287729D01*
X187322583Y-91287728D01*
X187291478Y-91233856D01*
X188797000Y-91233856D01*
X188797000Y-91326144D01*
X188817697Y-91403388D01*
X188820887Y-91415290D01*
X188820888Y-91415293D01*
X188867026Y-91495205D01*
X188867029Y-91495209D01*
X188867031Y-91495212D01*
X188932288Y-91560469D01*
X188932291Y-91560470D01*
X188932294Y-91560473D01*
X189012206Y-91606611D01*
X189012207Y-91606611D01*
X189012212Y-91606614D01*
X189101356Y-91630500D01*
X189101358Y-91630500D01*
X189193642Y-91630500D01*
X189193644Y-91630500D01*
X189282788Y-91606614D01*
X189362712Y-91560469D01*
X189427969Y-91495212D01*
X189474114Y-91415288D01*
X189498000Y-91326144D01*
X189498000Y-91233856D01*
X189474114Y-91144712D01*
X189462567Y-91124712D01*
X189427973Y-91064794D01*
X189427970Y-91064791D01*
X189427969Y-91064788D01*
X189362712Y-90999531D01*
X189362709Y-90999529D01*
X189362705Y-90999526D01*
X189282793Y-90953388D01*
X189282790Y-90953387D01*
X189282789Y-90953386D01*
X189282788Y-90953386D01*
X189193644Y-90929500D01*
X189101356Y-90929500D01*
X189012212Y-90953386D01*
X189012211Y-90953386D01*
X189012209Y-90953387D01*
X189012206Y-90953388D01*
X188932294Y-90999526D01*
X188932285Y-90999533D01*
X188867033Y-91064785D01*
X188867026Y-91064794D01*
X188820888Y-91144706D01*
X188820887Y-91144709D01*
X188820886Y-91144711D01*
X188820886Y-91144712D01*
X188797000Y-91233856D01*
X187291478Y-91233856D01*
X187290674Y-91232464D01*
X187274199Y-91164564D01*
X187297050Y-91098537D01*
X187336057Y-91063075D01*
X187375212Y-91040469D01*
X187440469Y-90975212D01*
X187486614Y-90895288D01*
X187510500Y-90806144D01*
X187510500Y-90713856D01*
X187486614Y-90624712D01*
X187483620Y-90619526D01*
X187440473Y-90544794D01*
X187440470Y-90544791D01*
X187440469Y-90544788D01*
X187375212Y-90479531D01*
X187375209Y-90479529D01*
X187375205Y-90479526D01*
X187295293Y-90433388D01*
X187295290Y-90433387D01*
X187295289Y-90433386D01*
X187295288Y-90433386D01*
X187206144Y-90409500D01*
X187113856Y-90409500D01*
X187024712Y-90433386D01*
X187024711Y-90433386D01*
X187024709Y-90433387D01*
X187024706Y-90433388D01*
X186944794Y-90479526D01*
X186944785Y-90479533D01*
X186879533Y-90544785D01*
X186879526Y-90544794D01*
X186833388Y-90624706D01*
X186833387Y-90624709D01*
X186833386Y-90624711D01*
X186833386Y-90624712D01*
X186809500Y-90713856D01*
X186809500Y-90806144D01*
X186817462Y-90835858D01*
X186833386Y-90895290D01*
X186855782Y-90934078D01*
X186868823Y-90956666D01*
X186869326Y-90957536D01*
X186885800Y-91025436D01*
X186862949Y-91091463D01*
X186823943Y-91126924D01*
X186784788Y-91149531D01*
X186784785Y-91149533D01*
X186719533Y-91214785D01*
X186719526Y-91214794D01*
X186673388Y-91294706D01*
X186673387Y-91294707D01*
X186652264Y-91373540D01*
X186615898Y-91433201D01*
X186553051Y-91463729D01*
X186483676Y-91455434D01*
X186444808Y-91429127D01*
X186395214Y-91379533D01*
X186395212Y-91379531D01*
X186395209Y-91379529D01*
X186395205Y-91379526D01*
X186315293Y-91333388D01*
X186315290Y-91333387D01*
X186315289Y-91333386D01*
X186315288Y-91333386D01*
X186226144Y-91309500D01*
X186133856Y-91309500D01*
X186133854Y-91309500D01*
X186107626Y-91316528D01*
X186037776Y-91314865D01*
X185979914Y-91275701D01*
X185955760Y-91228846D01*
X185946614Y-91194712D01*
X185946614Y-91194711D01*
X185946611Y-91194706D01*
X185900473Y-91114794D01*
X185900470Y-91114791D01*
X185900469Y-91114788D01*
X185835212Y-91049531D01*
X185835209Y-91049529D01*
X185835205Y-91049526D01*
X185755293Y-91003388D01*
X185755290Y-91003387D01*
X185755289Y-91003386D01*
X185755288Y-91003386D01*
X185666144Y-90979500D01*
X185573856Y-90979500D01*
X185484712Y-91003386D01*
X185484711Y-91003386D01*
X185484709Y-91003387D01*
X185484706Y-91003388D01*
X185404794Y-91049526D01*
X185404785Y-91049533D01*
X185339533Y-91114785D01*
X185339526Y-91114794D01*
X185293388Y-91194706D01*
X185293387Y-91194709D01*
X185293386Y-91194711D01*
X185293386Y-91194712D01*
X185271567Y-91276144D01*
X185268499Y-91287593D01*
X185232134Y-91347254D01*
X185169287Y-91377783D01*
X185148724Y-91379500D01*
X185063856Y-91379500D01*
X184974712Y-91403386D01*
X184974711Y-91403386D01*
X184974709Y-91403387D01*
X184974706Y-91403388D01*
X184894794Y-91449526D01*
X184894785Y-91449533D01*
X184829533Y-91514785D01*
X184829526Y-91514794D01*
X184783388Y-91594706D01*
X184783387Y-91594709D01*
X184783386Y-91594711D01*
X184783386Y-91594712D01*
X184759500Y-91683856D01*
X184759500Y-91776144D01*
X184777892Y-91844785D01*
X184783387Y-91865290D01*
X184783388Y-91865293D01*
X184829526Y-91945205D01*
X184829533Y-91945214D01*
X184830984Y-91946665D01*
X184831816Y-91948189D01*
X184834478Y-91951658D01*
X184833937Y-91952073D01*
X184864469Y-92007988D01*
X184859485Y-92077680D01*
X184817613Y-92133613D01*
X184805310Y-92141729D01*
X184804794Y-92142026D01*
X184804785Y-92142033D01*
X184739533Y-92207285D01*
X184739526Y-92207294D01*
X184693388Y-92287206D01*
X184693387Y-92287209D01*
X184693386Y-92287211D01*
X184693386Y-92287212D01*
X184669500Y-92376356D01*
X180173055Y-92376356D01*
X180235212Y-92340469D01*
X180300469Y-92275212D01*
X180346614Y-92195288D01*
X180370500Y-92106144D01*
X180370500Y-92013856D01*
X180346614Y-91924712D01*
X180312308Y-91865293D01*
X180300473Y-91844794D01*
X180300470Y-91844791D01*
X180300469Y-91844788D01*
X180235212Y-91779531D01*
X180235209Y-91779529D01*
X180235205Y-91779526D01*
X180155293Y-91733388D01*
X180155290Y-91733387D01*
X180155289Y-91733386D01*
X180155288Y-91733386D01*
X180066144Y-91709500D01*
X179973856Y-91709500D01*
X179884712Y-91733386D01*
X179884711Y-91733386D01*
X179884709Y-91733387D01*
X179884706Y-91733388D01*
X179804794Y-91779526D01*
X179804785Y-91779533D01*
X179739533Y-91844785D01*
X179739526Y-91844794D01*
X179693388Y-91924706D01*
X179693387Y-91924709D01*
X179693386Y-91924711D01*
X179693386Y-91924712D01*
X179669500Y-92013856D01*
X175425049Y-92013856D01*
X175627086Y-91811819D01*
X175688409Y-91778334D01*
X175714767Y-91775500D01*
X179210703Y-91775500D01*
X179210711Y-91775501D01*
X179225145Y-91775501D01*
X179314854Y-91775501D01*
X179314855Y-91775501D01*
X179376396Y-91750009D01*
X179397736Y-91741170D01*
X179461170Y-91677736D01*
X179461170Y-91677735D01*
X179478608Y-91660297D01*
X179478609Y-91660294D01*
X179975050Y-91163856D01*
X181129500Y-91163856D01*
X181129500Y-91256144D01*
X181150197Y-91333388D01*
X181153387Y-91345290D01*
X181153388Y-91345293D01*
X181199526Y-91425205D01*
X181199529Y-91425209D01*
X181199531Y-91425212D01*
X181264788Y-91490469D01*
X181264791Y-91490470D01*
X181264794Y-91490473D01*
X181344706Y-91536611D01*
X181344707Y-91536611D01*
X181344712Y-91536614D01*
X181433856Y-91560500D01*
X181433858Y-91560500D01*
X181526142Y-91560500D01*
X181526144Y-91560500D01*
X181615288Y-91536614D01*
X181615292Y-91536612D01*
X181635902Y-91524712D01*
X181695212Y-91490469D01*
X181695213Y-91490467D01*
X181701373Y-91486911D01*
X181769273Y-91470437D01*
X181835300Y-91493288D01*
X181838862Y-91495922D01*
X181844789Y-91500470D01*
X181924706Y-91546611D01*
X181924707Y-91546611D01*
X181924712Y-91546614D01*
X182013856Y-91570500D01*
X182013858Y-91570500D01*
X182106142Y-91570500D01*
X182106144Y-91570500D01*
X182195288Y-91546614D01*
X182275212Y-91500469D01*
X182275215Y-91500465D01*
X182281296Y-91496955D01*
X182349195Y-91480481D01*
X182415223Y-91503332D01*
X182430979Y-91516660D01*
X182434788Y-91520469D01*
X182434791Y-91520470D01*
X182434794Y-91520473D01*
X182514706Y-91566611D01*
X182514707Y-91566611D01*
X182514712Y-91566614D01*
X182603856Y-91590500D01*
X182603858Y-91590500D01*
X182696142Y-91590500D01*
X182696144Y-91590500D01*
X182785288Y-91566614D01*
X182865212Y-91520469D01*
X182865216Y-91520464D01*
X182871133Y-91515925D01*
X182936301Y-91490727D01*
X183004747Y-91504763D01*
X183008625Y-91506911D01*
X183094706Y-91556611D01*
X183094707Y-91556611D01*
X183094712Y-91556614D01*
X183183856Y-91580500D01*
X183183858Y-91580500D01*
X183276142Y-91580500D01*
X183276144Y-91580500D01*
X183365288Y-91556614D01*
X183445212Y-91510469D01*
X183510469Y-91445212D01*
X183556614Y-91365288D01*
X183580500Y-91276144D01*
X183580500Y-91183856D01*
X183556614Y-91094712D01*
X183556611Y-91094706D01*
X183510473Y-91014794D01*
X183510470Y-91014791D01*
X183510469Y-91014788D01*
X183445212Y-90949531D01*
X183445209Y-90949529D01*
X183445205Y-90949526D01*
X183365293Y-90903388D01*
X183365290Y-90903387D01*
X183365289Y-90903386D01*
X183365288Y-90903386D01*
X183276144Y-90879500D01*
X183183856Y-90879500D01*
X183094712Y-90903386D01*
X183094711Y-90903386D01*
X183094709Y-90903387D01*
X183094706Y-90903388D01*
X183014787Y-90949530D01*
X183008857Y-90954081D01*
X182943687Y-90979273D01*
X182875242Y-90965231D01*
X182871374Y-90963089D01*
X182861756Y-90957536D01*
X182785288Y-90913386D01*
X182696144Y-90889500D01*
X182603856Y-90889500D01*
X182514711Y-90913386D01*
X182452117Y-90949526D01*
X182438244Y-90957536D01*
X182428702Y-90963045D01*
X182360802Y-90979518D01*
X182294775Y-90956666D01*
X182279020Y-90943339D01*
X182275214Y-90939533D01*
X182275212Y-90939531D01*
X182275209Y-90939529D01*
X182275205Y-90939526D01*
X182195293Y-90893388D01*
X182195290Y-90893387D01*
X182195289Y-90893386D01*
X182195288Y-90893386D01*
X182106144Y-90869500D01*
X182013856Y-90869500D01*
X181924710Y-90893386D01*
X181838625Y-90943089D01*
X181770725Y-90959562D01*
X181704697Y-90936710D01*
X181701138Y-90934078D01*
X181695209Y-90929529D01*
X181615293Y-90883388D01*
X181615290Y-90883387D01*
X181615289Y-90883386D01*
X181615288Y-90883386D01*
X181526144Y-90859500D01*
X181433856Y-90859500D01*
X181344712Y-90883386D01*
X181344711Y-90883386D01*
X181344709Y-90883387D01*
X181344706Y-90883388D01*
X181264794Y-90929526D01*
X181264785Y-90929533D01*
X181199533Y-90994785D01*
X181199526Y-90994794D01*
X181153388Y-91074706D01*
X181153387Y-91074709D01*
X181153386Y-91074711D01*
X181153386Y-91074712D01*
X181129500Y-91163856D01*
X179975050Y-91163856D01*
X180041340Y-91097566D01*
X180041340Y-91097565D01*
X180049976Y-91088930D01*
X180052243Y-91091197D01*
X180090785Y-91058976D01*
X180131304Y-91048989D01*
X180152170Y-91047472D01*
X180179026Y-91054668D01*
X180271314Y-91054668D01*
X180360458Y-91030782D01*
X180440382Y-90984637D01*
X180505639Y-90919380D01*
X180551784Y-90839456D01*
X180575670Y-90750312D01*
X180575670Y-90658024D01*
X180551784Y-90568880D01*
X180537878Y-90544794D01*
X180505643Y-90488962D01*
X180505640Y-90488959D01*
X180505639Y-90488956D01*
X180505329Y-90488646D01*
X180505152Y-90488323D01*
X180500692Y-90482510D01*
X180501598Y-90481814D01*
X180471844Y-90427323D01*
X180476828Y-90357631D01*
X180485624Y-90338963D01*
X180516613Y-90285290D01*
X180517598Y-90281614D01*
X180540500Y-90196144D01*
X180540500Y-90103856D01*
X180516614Y-90014712D01*
X180516611Y-90014706D01*
X180470473Y-89934794D01*
X180470470Y-89934791D01*
X180470469Y-89934788D01*
X180405212Y-89869531D01*
X180405209Y-89869529D01*
X180405205Y-89869526D01*
X180325293Y-89823388D01*
X180325290Y-89823387D01*
X180325289Y-89823386D01*
X180325288Y-89823386D01*
X180236144Y-89799500D01*
X180143856Y-89799500D01*
X180054712Y-89823386D01*
X180054711Y-89823386D01*
X180054709Y-89823387D01*
X180054704Y-89823388D01*
X180044017Y-89829559D01*
X179976116Y-89846029D01*
X179910090Y-89823175D01*
X179906536Y-89820547D01*
X179905208Y-89819528D01*
X179825293Y-89773388D01*
X179825290Y-89773387D01*
X179825289Y-89773386D01*
X179825288Y-89773386D01*
X179736144Y-89749500D01*
X179643856Y-89749500D01*
X179554712Y-89773386D01*
X179554711Y-89773386D01*
X179554709Y-89773387D01*
X179554706Y-89773388D01*
X179474794Y-89819526D01*
X179474785Y-89819533D01*
X179409533Y-89884785D01*
X179409526Y-89884794D01*
X179363388Y-89964706D01*
X179363387Y-89964709D01*
X179363386Y-89964711D01*
X179363386Y-89964712D01*
X179339500Y-90053856D01*
X179339500Y-90146144D01*
X179352897Y-90196144D01*
X179363387Y-90235290D01*
X179363388Y-90235293D01*
X179411065Y-90317870D01*
X179427539Y-90385770D01*
X179404687Y-90451797D01*
X179349766Y-90494988D01*
X179335774Y-90499646D01*
X179333856Y-90500160D01*
X179244712Y-90524046D01*
X179244710Y-90524046D01*
X179244706Y-90524048D01*
X179164794Y-90570186D01*
X179164785Y-90570193D01*
X179099533Y-90635445D01*
X179099526Y-90635454D01*
X179053388Y-90715366D01*
X179053387Y-90715369D01*
X179053386Y-90715371D01*
X179053386Y-90715372D01*
X179032834Y-90792073D01*
X179029500Y-90804516D01*
X179029500Y-90830893D01*
X179020855Y-90860333D01*
X179014332Y-90890320D01*
X179010577Y-90895335D01*
X179009815Y-90897932D01*
X178993181Y-90918574D01*
X178943243Y-90968512D01*
X178881920Y-91001997D01*
X178855562Y-91004831D01*
X178173436Y-91004831D01*
X178106397Y-90985146D01*
X178060642Y-90932342D01*
X178050698Y-90863184D01*
X178079723Y-90799628D01*
X178085755Y-90793150D01*
X180997086Y-87881819D01*
X181058409Y-87848334D01*
X181084767Y-87845500D01*
X183785143Y-87845500D01*
X183785145Y-87845501D01*
X183874855Y-87845501D01*
X183933460Y-87821225D01*
X183957736Y-87811170D01*
X184021170Y-87747736D01*
X184021170Y-87747735D01*
X184038608Y-87730297D01*
X184038609Y-87730294D01*
X188162086Y-83606819D01*
X188223409Y-83573334D01*
X188249767Y-83570500D01*
X188276142Y-83570500D01*
X188276144Y-83570500D01*
X188365288Y-83546614D01*
X188445212Y-83500469D01*
X188510469Y-83435212D01*
X188556614Y-83355288D01*
X188580500Y-83266144D01*
X188580500Y-83173856D01*
X188569175Y-83131590D01*
X188569770Y-83106598D01*
X188566212Y-83081853D01*
X188570587Y-83072272D01*
X188570838Y-83061744D01*
X188584850Y-83041040D01*
X188595237Y-83018297D01*
X188604097Y-83012602D01*
X188610000Y-83003882D01*
X188632980Y-82994040D01*
X188654015Y-82980523D01*
X188669869Y-82978243D01*
X188674228Y-82976377D01*
X188688950Y-82975500D01*
X188744902Y-82975500D01*
X188811941Y-82995185D01*
X188832583Y-83011819D01*
X189463583Y-83642819D01*
X189497068Y-83704142D01*
X189492084Y-83773834D01*
X189450212Y-83829767D01*
X189384748Y-83854184D01*
X189375902Y-83854500D01*
X189058966Y-83854500D01*
X189058958Y-83854499D01*
X189044524Y-83854499D01*
X188954814Y-83854499D01*
X188954812Y-83854499D01*
X188920482Y-83868719D01*
X188896208Y-83878774D01*
X188896206Y-83878774D01*
X188871933Y-83888829D01*
X183998829Y-88761933D01*
X183988774Y-88786206D01*
X183988774Y-88786208D01*
X183978719Y-88810482D01*
X183964499Y-88844812D01*
X183964499Y-88948957D01*
X183964500Y-88948966D01*
X183964500Y-90938457D01*
X183944815Y-91005496D01*
X183928181Y-91026138D01*
X183909533Y-91044785D01*
X183909526Y-91044794D01*
X183863388Y-91124706D01*
X183863387Y-91124709D01*
X183863386Y-91124711D01*
X183863386Y-91124712D01*
X183839500Y-91213856D01*
X183839500Y-91306144D01*
X183862792Y-91393072D01*
X183863387Y-91395290D01*
X183863388Y-91395293D01*
X183909526Y-91475205D01*
X183909529Y-91475209D01*
X183909531Y-91475212D01*
X183974788Y-91540469D01*
X183974791Y-91540470D01*
X183974794Y-91540473D01*
X184054706Y-91586611D01*
X184054707Y-91586611D01*
X184054712Y-91586614D01*
X184143856Y-91610500D01*
X184143858Y-91610500D01*
X184236142Y-91610500D01*
X184236144Y-91610500D01*
X184325288Y-91586614D01*
X184405212Y-91540469D01*
X184470469Y-91475212D01*
X184516614Y-91395288D01*
X184540500Y-91306144D01*
X184540500Y-91213856D01*
X184516614Y-91124712D01*
X184516611Y-91124706D01*
X184470473Y-91044794D01*
X184470470Y-91044791D01*
X184470469Y-91044788D01*
X184451819Y-91026138D01*
X184418334Y-90964815D01*
X184415500Y-90938457D01*
X184415500Y-89034435D01*
X184435185Y-88967396D01*
X184451814Y-88946759D01*
X187678765Y-85719807D01*
X187686710Y-85715469D01*
X187692136Y-85708222D01*
X187716895Y-85698987D01*
X187740088Y-85686323D01*
X187749117Y-85686968D01*
X187757600Y-85683805D01*
X187783420Y-85689421D01*
X187809780Y-85691307D01*
X187818833Y-85697125D01*
X187825873Y-85698657D01*
X187854127Y-85719808D01*
X187861920Y-85727601D01*
X187895405Y-85788924D01*
X187890421Y-85858616D01*
X187872618Y-85890765D01*
X187869528Y-85894792D01*
X187823388Y-85974706D01*
X187823387Y-85974709D01*
X187799500Y-86063856D01*
X187799500Y-86156143D01*
X187823387Y-86245290D01*
X187823388Y-86245293D01*
X187869526Y-86325205D01*
X187869529Y-86325209D01*
X187869531Y-86325212D01*
X187934788Y-86390469D01*
X187934791Y-86390470D01*
X187934794Y-86390473D01*
X188014711Y-86436614D01*
X188041802Y-86443873D01*
X188055688Y-86451890D01*
X188069138Y-86454816D01*
X188097392Y-86475967D01*
X188209244Y-86587819D01*
X188242729Y-86649142D01*
X188237745Y-86718834D01*
X188195873Y-86774767D01*
X188130409Y-86799184D01*
X188121563Y-86799500D01*
X188043856Y-86799500D01*
X187954712Y-86823386D01*
X187954711Y-86823386D01*
X187954709Y-86823387D01*
X187954706Y-86823388D01*
X187874794Y-86869526D01*
X187874785Y-86869533D01*
X187809533Y-86934785D01*
X187809526Y-86934794D01*
X187763388Y-87014706D01*
X187763387Y-87014709D01*
X187763386Y-87014711D01*
X187763386Y-87014712D01*
X187739500Y-87103856D01*
X187739500Y-87196144D01*
X187762839Y-87283247D01*
X187763387Y-87285290D01*
X187763388Y-87285293D01*
X187809526Y-87365205D01*
X187809533Y-87365214D01*
X187816018Y-87371699D01*
X187849503Y-87433022D01*
X187844519Y-87502714D01*
X187835724Y-87521380D01*
X187793387Y-87594708D01*
X187793387Y-87594709D01*
X187793386Y-87594711D01*
X187793386Y-87594712D01*
X187769500Y-87683856D01*
X187769500Y-87776144D01*
X187792193Y-87860837D01*
X187793387Y-87865290D01*
X187793388Y-87865293D01*
X187839526Y-87945205D01*
X187844478Y-87951658D01*
X187843435Y-87952458D01*
X187872900Y-88006419D01*
X187867916Y-88076111D01*
X187859122Y-88094775D01*
X187853388Y-88104706D01*
X187853387Y-88104709D01*
X187853386Y-88104711D01*
X187853386Y-88104712D01*
X187829500Y-88193856D01*
X187829500Y-88286144D01*
X187837362Y-88315487D01*
X187853387Y-88375290D01*
X187853388Y-88375293D01*
X187899526Y-88455205D01*
X187899529Y-88455209D01*
X187899531Y-88455212D01*
X187964788Y-88520469D01*
X187964791Y-88520470D01*
X187964794Y-88520473D01*
X188044706Y-88566611D01*
X188044707Y-88566611D01*
X188044712Y-88566614D01*
X188133856Y-88590500D01*
X188133858Y-88590500D01*
X188226142Y-88590500D01*
X188226144Y-88590500D01*
X188315288Y-88566614D01*
X188395212Y-88520469D01*
X188460469Y-88455212D01*
X188506614Y-88375288D01*
X188530500Y-88286144D01*
X188530500Y-88193856D01*
X188506614Y-88104712D01*
X188498409Y-88090500D01*
X188460473Y-88024794D01*
X188460470Y-88024791D01*
X188460469Y-88024788D01*
X188460466Y-88024785D01*
X188455522Y-88018342D01*
X188456564Y-88017541D01*
X188427099Y-87963580D01*
X188432083Y-87893888D01*
X188440876Y-87875225D01*
X188446614Y-87865288D01*
X188470500Y-87776144D01*
X188470500Y-87683856D01*
X188446614Y-87594712D01*
X188446611Y-87594706D01*
X188400473Y-87514794D01*
X188400470Y-87514791D01*
X188400469Y-87514788D01*
X188393981Y-87508300D01*
X188360496Y-87446977D01*
X188365480Y-87377285D01*
X188374272Y-87358623D01*
X188416614Y-87285288D01*
X188440500Y-87196144D01*
X188440500Y-87118436D01*
X188460185Y-87051397D01*
X188512989Y-87005642D01*
X188582147Y-86995698D01*
X188645703Y-87024723D01*
X188652170Y-87030744D01*
X189216132Y-87594706D01*
X190190712Y-88569286D01*
X190224197Y-88630609D01*
X190219213Y-88700301D01*
X190190713Y-88744647D01*
X190140055Y-88795305D01*
X190140047Y-88795315D01*
X190093909Y-88875227D01*
X190093908Y-88875230D01*
X190093907Y-88875232D01*
X190093907Y-88875233D01*
X190078122Y-88934142D01*
X190070021Y-88964377D01*
X190070021Y-89032143D01*
X190050336Y-89099182D01*
X189997532Y-89144937D01*
X189978116Y-89151917D01*
X189914713Y-89168906D01*
X189914706Y-89168909D01*
X189834794Y-89215047D01*
X189834785Y-89215054D01*
X189769533Y-89280306D01*
X189769526Y-89280315D01*
X189723388Y-89360227D01*
X189723387Y-89360230D01*
X189723386Y-89360232D01*
X189723386Y-89360233D01*
X189699500Y-89449377D01*
X189699500Y-89541665D01*
X189722690Y-89628212D01*
X189723387Y-89630811D01*
X189723388Y-89630814D01*
X189769526Y-89710726D01*
X189769529Y-89710730D01*
X189769531Y-89710733D01*
X189834788Y-89775990D01*
X189834791Y-89775991D01*
X189834794Y-89775994D01*
X189914706Y-89822132D01*
X189914707Y-89822132D01*
X189914712Y-89822135D01*
X190003856Y-89846021D01*
X190003858Y-89846021D01*
X190096142Y-89846021D01*
X190096144Y-89846021D01*
X190185288Y-89822135D01*
X190265212Y-89775990D01*
X190330469Y-89710733D01*
X190376614Y-89630809D01*
X190376614Y-89630807D01*
X190378113Y-89628212D01*
X190428681Y-89579997D01*
X190497288Y-89566775D01*
X190562153Y-89592743D01*
X190602680Y-89649658D01*
X190609500Y-89690213D01*
X190609500Y-90243639D01*
X190589815Y-90310678D01*
X190583877Y-90319124D01*
X190579528Y-90324790D01*
X190533388Y-90404706D01*
X190533387Y-90404709D01*
X190533386Y-90404711D01*
X190533386Y-90404712D01*
X190509500Y-90493856D01*
X190509500Y-90586144D01*
X190530552Y-90664712D01*
X190533387Y-90675290D01*
X190533388Y-90675293D01*
X190579526Y-90755205D01*
X190579529Y-90755209D01*
X190579531Y-90755212D01*
X190644788Y-90820469D01*
X190644791Y-90820470D01*
X190644794Y-90820473D01*
X190724706Y-90866611D01*
X190724707Y-90866611D01*
X190724712Y-90866614D01*
X190813856Y-90890500D01*
X190813858Y-90890500D01*
X190906142Y-90890500D01*
X190906144Y-90890500D01*
X190995288Y-90866614D01*
X191075212Y-90820469D01*
X191140469Y-90755212D01*
X191186614Y-90675288D01*
X191210500Y-90586144D01*
X191210500Y-90493856D01*
X191186614Y-90404712D01*
X191175678Y-90385770D01*
X191140471Y-90324790D01*
X191136123Y-90319124D01*
X191110930Y-90253954D01*
X191110500Y-90243639D01*
X191110500Y-88959662D01*
X191110500Y-88934144D01*
X191110501Y-88934142D01*
X191110501Y-88834486D01*
X191075699Y-88750469D01*
X191072364Y-88742417D01*
X191001897Y-88671950D01*
X191001895Y-88671949D01*
X190994829Y-88664882D01*
X190994825Y-88664879D01*
X188832128Y-86502181D01*
X188798643Y-86440858D01*
X188803627Y-86371166D01*
X188845499Y-86315233D01*
X188910963Y-86290816D01*
X188919809Y-86290500D01*
X189444877Y-86290500D01*
X189511916Y-86310185D01*
X189532558Y-86326819D01*
X192874444Y-89668705D01*
X192907929Y-89730028D01*
X192902945Y-89799720D01*
X192894155Y-89818377D01*
X192893389Y-89819702D01*
X192893387Y-89819709D01*
X192893386Y-89819711D01*
X192893386Y-89819712D01*
X192880037Y-89869531D01*
X192869500Y-89908856D01*
X192869500Y-90001143D01*
X192893387Y-90090290D01*
X192893388Y-90090293D01*
X192939526Y-90170205D01*
X192939529Y-90170209D01*
X192939531Y-90170212D01*
X193004788Y-90235469D01*
X193004791Y-90235470D01*
X193004794Y-90235473D01*
X193084706Y-90281611D01*
X193084707Y-90281611D01*
X193084712Y-90281614D01*
X193173856Y-90305500D01*
X193173858Y-90305500D01*
X193266142Y-90305500D01*
X193266144Y-90305500D01*
X193355288Y-90281614D01*
X193435212Y-90235469D01*
X193500469Y-90170212D01*
X193546614Y-90090288D01*
X193570500Y-90001144D01*
X193570500Y-89908856D01*
X193546614Y-89819712D01*
X193546611Y-89819706D01*
X193500471Y-89739790D01*
X193496123Y-89734124D01*
X193470930Y-89668954D01*
X193470500Y-89658639D01*
X193470500Y-89610173D01*
X193470499Y-89610170D01*
X193432364Y-89518103D01*
X193361897Y-89447636D01*
X192708117Y-88793856D01*
X193929500Y-88793856D01*
X193929500Y-88886144D01*
X193953386Y-88975288D01*
X193961591Y-88989500D01*
X193975159Y-89012999D01*
X193991632Y-89080899D01*
X193975159Y-89137001D01*
X193953386Y-89174711D01*
X193929500Y-89263856D01*
X193929500Y-89356144D01*
X193953002Y-89443856D01*
X193953387Y-89445290D01*
X193953388Y-89445293D01*
X193999526Y-89525205D01*
X193999529Y-89525209D01*
X193999531Y-89525212D01*
X194064788Y-89590469D01*
X194064791Y-89590470D01*
X194064794Y-89590473D01*
X194144706Y-89636611D01*
X194144707Y-89636611D01*
X194144712Y-89636614D01*
X194233856Y-89660500D01*
X194233858Y-89660500D01*
X194326142Y-89660500D01*
X194326144Y-89660500D01*
X194415288Y-89636614D01*
X194495212Y-89590469D01*
X194560469Y-89525212D01*
X194606614Y-89445288D01*
X194630500Y-89356144D01*
X194630500Y-89263856D01*
X194606614Y-89174712D01*
X194584840Y-89136999D01*
X194568367Y-89069103D01*
X194584839Y-89013001D01*
X194606614Y-88975288D01*
X194630500Y-88886144D01*
X194630500Y-88793856D01*
X194606614Y-88704712D01*
X194606611Y-88704706D01*
X194560473Y-88624794D01*
X194560470Y-88624791D01*
X194560469Y-88624788D01*
X194495212Y-88559531D01*
X194495209Y-88559529D01*
X194495205Y-88559526D01*
X194415293Y-88513388D01*
X194415290Y-88513387D01*
X194415289Y-88513386D01*
X194415288Y-88513386D01*
X194326144Y-88489500D01*
X194233856Y-88489500D01*
X194144712Y-88513386D01*
X194144711Y-88513386D01*
X194144709Y-88513387D01*
X194144706Y-88513388D01*
X194064794Y-88559526D01*
X194064785Y-88559533D01*
X193999533Y-88624785D01*
X193999526Y-88624794D01*
X193953388Y-88704706D01*
X193953387Y-88704709D01*
X193953386Y-88704711D01*
X193953386Y-88704712D01*
X193929500Y-88793856D01*
X192708117Y-88793856D01*
X190568117Y-86653856D01*
X193449500Y-86653856D01*
X193449500Y-86746144D01*
X193463712Y-86799184D01*
X193473386Y-86835288D01*
X193492282Y-86868016D01*
X193508755Y-86935916D01*
X193492286Y-86992010D01*
X193489976Y-86996011D01*
X193489973Y-86996018D01*
X193466087Y-87085162D01*
X193466087Y-87177450D01*
X193486400Y-87253260D01*
X193489974Y-87266596D01*
X193489975Y-87266599D01*
X193536113Y-87346511D01*
X193536116Y-87346515D01*
X193536118Y-87346518D01*
X193601375Y-87411775D01*
X193601378Y-87411776D01*
X193601381Y-87411779D01*
X193681293Y-87457917D01*
X193681294Y-87457917D01*
X193681299Y-87457920D01*
X193770443Y-87481806D01*
X193770445Y-87481806D01*
X193862729Y-87481806D01*
X193862731Y-87481806D01*
X193951875Y-87457920D01*
X194031799Y-87411775D01*
X194097056Y-87346518D01*
X194143201Y-87266594D01*
X194167087Y-87177450D01*
X194167087Y-87085162D01*
X194143201Y-86996018D01*
X194143200Y-86996017D01*
X194143200Y-86996015D01*
X194124305Y-86963290D01*
X194107831Y-86895390D01*
X194124305Y-86839285D01*
X194126614Y-86835288D01*
X194150500Y-86746144D01*
X194150500Y-86653856D01*
X194126614Y-86564712D01*
X194126611Y-86564706D01*
X194080473Y-86484794D01*
X194080470Y-86484791D01*
X194080469Y-86484788D01*
X194015212Y-86419531D01*
X194015209Y-86419529D01*
X194015205Y-86419526D01*
X193935293Y-86373388D01*
X193935290Y-86373387D01*
X193935289Y-86373386D01*
X193935288Y-86373386D01*
X193846144Y-86349500D01*
X193753856Y-86349500D01*
X193664712Y-86373386D01*
X193664711Y-86373386D01*
X193664709Y-86373387D01*
X193664706Y-86373388D01*
X193584794Y-86419526D01*
X193584785Y-86419533D01*
X193519533Y-86484785D01*
X193519526Y-86484794D01*
X193473388Y-86564706D01*
X193473387Y-86564709D01*
X193473386Y-86564711D01*
X193473386Y-86564712D01*
X193449500Y-86653856D01*
X190568117Y-86653856D01*
X189741897Y-85827636D01*
X189707369Y-85813334D01*
X189649829Y-85789500D01*
X189649828Y-85789500D01*
X188825123Y-85789500D01*
X188758084Y-85769815D01*
X188737442Y-85753181D01*
X188506689Y-85522428D01*
X188473204Y-85461105D01*
X188471430Y-85450929D01*
X188470500Y-85443866D01*
X188470500Y-85443856D01*
X188446614Y-85354712D01*
X188444167Y-85350473D01*
X188400473Y-85274794D01*
X188400470Y-85274791D01*
X188400469Y-85274788D01*
X188349808Y-85224127D01*
X188316323Y-85162804D01*
X188321307Y-85093112D01*
X188349808Y-85048765D01*
X189056755Y-84341819D01*
X189118078Y-84308334D01*
X189144436Y-84305500D01*
X189485691Y-84305500D01*
X189552730Y-84325185D01*
X189598485Y-84377989D01*
X189608429Y-84447147D01*
X189605469Y-84461579D01*
X189599500Y-84483856D01*
X189599500Y-84576144D01*
X189606650Y-84602830D01*
X189623387Y-84665290D01*
X189623388Y-84665293D01*
X189669526Y-84745205D01*
X189669533Y-84745214D01*
X189718670Y-84794351D01*
X189752155Y-84855674D01*
X189747171Y-84925366D01*
X189745555Y-84929474D01*
X189743387Y-84934709D01*
X189743386Y-84934711D01*
X189743386Y-84934712D01*
X189719500Y-85023856D01*
X189719500Y-85116144D01*
X189741146Y-85196929D01*
X189743387Y-85205290D01*
X189743388Y-85205293D01*
X189789526Y-85285205D01*
X189789529Y-85285209D01*
X189789531Y-85285212D01*
X189854788Y-85350469D01*
X189854791Y-85350470D01*
X189854794Y-85350473D01*
X189934706Y-85396611D01*
X189934707Y-85396611D01*
X189934712Y-85396614D01*
X190023856Y-85420500D01*
X190023858Y-85420500D01*
X190116142Y-85420500D01*
X190116144Y-85420500D01*
X190205288Y-85396614D01*
X190285212Y-85350469D01*
X190350469Y-85285212D01*
X190396614Y-85205288D01*
X190420500Y-85116144D01*
X190420500Y-85023856D01*
X190396614Y-84934712D01*
X190368790Y-84886520D01*
X190350473Y-84854794D01*
X190350470Y-84854791D01*
X190350469Y-84854788D01*
X190301329Y-84805648D01*
X190267844Y-84744325D01*
X190272828Y-84674633D01*
X190274449Y-84670514D01*
X190276611Y-84665293D01*
X190276614Y-84665288D01*
X190300500Y-84576144D01*
X190300500Y-84483856D01*
X190294534Y-84461590D01*
X190295129Y-84436598D01*
X190291571Y-84411853D01*
X190295946Y-84402272D01*
X190296197Y-84391745D01*
X190310208Y-84371042D01*
X190320596Y-84348297D01*
X190329456Y-84342602D01*
X190335359Y-84333882D01*
X190358339Y-84324040D01*
X190379374Y-84310523D01*
X190395228Y-84308243D01*
X190399587Y-84306377D01*
X190414309Y-84305500D01*
X190481034Y-84305500D01*
X190481042Y-84305501D01*
X190495476Y-84305501D01*
X190585185Y-84305501D01*
X190585186Y-84305501D01*
X190645639Y-84280460D01*
X190668067Y-84271170D01*
X190731501Y-84207736D01*
X190731501Y-84207734D01*
X190945379Y-83993856D01*
X193029500Y-83993856D01*
X193029500Y-84086143D01*
X193053387Y-84175290D01*
X193053388Y-84175293D01*
X193099526Y-84255205D01*
X193099529Y-84255209D01*
X193099531Y-84255212D01*
X193164788Y-84320469D01*
X193164791Y-84320470D01*
X193164794Y-84320473D01*
X193244706Y-84366611D01*
X193244707Y-84366611D01*
X193244712Y-84366614D01*
X193333856Y-84390500D01*
X193333858Y-84390500D01*
X193423257Y-84390500D01*
X193490296Y-84410185D01*
X193530643Y-84452498D01*
X193549531Y-84485212D01*
X193614788Y-84550469D01*
X193614791Y-84550470D01*
X193614794Y-84550473D01*
X193694706Y-84596611D01*
X193694707Y-84596611D01*
X193694712Y-84596614D01*
X193783856Y-84620500D01*
X193783858Y-84620500D01*
X193876142Y-84620500D01*
X193876144Y-84620500D01*
X193965288Y-84596614D01*
X194045212Y-84550469D01*
X194110469Y-84485212D01*
X194156614Y-84405288D01*
X194180500Y-84316144D01*
X194180500Y-84223856D01*
X194156614Y-84134712D01*
X194128573Y-84086144D01*
X194110473Y-84054794D01*
X194110470Y-84054791D01*
X194110469Y-84054788D01*
X194045212Y-83989531D01*
X194045209Y-83989529D01*
X194045205Y-83989526D01*
X193965293Y-83943388D01*
X193965290Y-83943387D01*
X193965289Y-83943386D01*
X193965288Y-83943386D01*
X193876144Y-83919500D01*
X193786743Y-83919500D01*
X193719704Y-83899815D01*
X193679357Y-83857502D01*
X193675108Y-83850143D01*
X193660469Y-83824788D01*
X193595212Y-83759531D01*
X193595209Y-83759529D01*
X193595205Y-83759526D01*
X193515293Y-83713388D01*
X193515290Y-83713387D01*
X193515289Y-83713386D01*
X193515288Y-83713386D01*
X193426144Y-83689500D01*
X193333856Y-83689500D01*
X193244712Y-83713386D01*
X193244711Y-83713386D01*
X193244709Y-83713387D01*
X193244706Y-83713388D01*
X193164794Y-83759526D01*
X193164785Y-83759533D01*
X193099533Y-83824785D01*
X193099526Y-83824794D01*
X193053388Y-83904706D01*
X193053387Y-83904709D01*
X193029500Y-83993856D01*
X190945379Y-83993856D01*
X191416897Y-83522337D01*
X191478218Y-83488854D01*
X191547910Y-83493838D01*
X191603843Y-83535710D01*
X191611962Y-83548019D01*
X191653545Y-83620040D01*
X191656531Y-83625212D01*
X191721788Y-83690469D01*
X191721791Y-83690470D01*
X191721794Y-83690473D01*
X191801706Y-83736611D01*
X191801707Y-83736611D01*
X191801712Y-83736614D01*
X191890856Y-83760500D01*
X191890858Y-83760500D01*
X191983142Y-83760500D01*
X191983144Y-83760500D01*
X192072288Y-83736614D01*
X192152212Y-83690469D01*
X192217469Y-83625212D01*
X192263614Y-83545288D01*
X192287500Y-83456144D01*
X192287500Y-83363856D01*
X192263614Y-83274712D01*
X192263611Y-83274706D01*
X192217473Y-83194794D01*
X192217470Y-83194791D01*
X192217469Y-83194788D01*
X192152212Y-83129531D01*
X192139414Y-83122142D01*
X192075019Y-83084962D01*
X192026804Y-83034395D01*
X192013582Y-82965788D01*
X192039550Y-82900923D01*
X192049331Y-82889903D01*
X192647600Y-82291634D01*
X192708921Y-82258151D01*
X192778613Y-82263135D01*
X192834546Y-82305007D01*
X192858963Y-82370471D01*
X192844111Y-82438744D01*
X192842666Y-82441317D01*
X192823387Y-82474708D01*
X192823387Y-82474709D01*
X192823386Y-82474711D01*
X192823386Y-82474712D01*
X192799500Y-82563856D01*
X192799500Y-82656144D01*
X192820552Y-82734712D01*
X192823387Y-82745290D01*
X192823388Y-82745293D01*
X192869526Y-82825205D01*
X192869529Y-82825209D01*
X192869531Y-82825212D01*
X192934788Y-82890469D01*
X192934791Y-82890470D01*
X192934794Y-82890473D01*
X193014706Y-82936611D01*
X193014707Y-82936611D01*
X193014712Y-82936614D01*
X193103856Y-82960500D01*
X193103858Y-82960500D01*
X193196142Y-82960500D01*
X193196144Y-82960500D01*
X193285288Y-82936614D01*
X193365212Y-82890469D01*
X193430469Y-82825212D01*
X193476614Y-82745288D01*
X193500500Y-82656144D01*
X193500500Y-82563856D01*
X193476614Y-82474712D01*
X193476611Y-82474706D01*
X193430473Y-82394794D01*
X193430470Y-82394791D01*
X193430469Y-82394788D01*
X193365212Y-82329531D01*
X193365209Y-82329529D01*
X193365205Y-82329526D01*
X193285293Y-82283388D01*
X193285290Y-82283387D01*
X193285289Y-82283386D01*
X193285288Y-82283386D01*
X193196144Y-82259500D01*
X193103856Y-82259500D01*
X193014712Y-82283386D01*
X193014711Y-82283386D01*
X193014709Y-82283387D01*
X193014708Y-82283387D01*
X192981317Y-82302666D01*
X192913417Y-82319139D01*
X192847390Y-82296286D01*
X192804199Y-82241365D01*
X192797558Y-82171812D01*
X192829574Y-82109709D01*
X192831593Y-82107641D01*
X193109941Y-81829293D01*
X193171262Y-81795810D01*
X193240954Y-81800794D01*
X193259620Y-81809589D01*
X193260962Y-81810364D01*
X193350106Y-81834250D01*
X193350108Y-81834250D01*
X193442392Y-81834250D01*
X193442394Y-81834250D01*
X193531538Y-81810364D01*
X193611462Y-81764219D01*
X193676719Y-81698962D01*
X193722864Y-81619038D01*
X193746750Y-81529894D01*
X193746750Y-81437606D01*
X193722864Y-81348462D01*
X193722861Y-81348456D01*
X193676723Y-81268544D01*
X193676720Y-81268541D01*
X193676719Y-81268538D01*
X193611462Y-81203281D01*
X193611459Y-81203279D01*
X193611455Y-81203276D01*
X193531543Y-81157138D01*
X193531540Y-81157137D01*
X193531539Y-81157136D01*
X193531538Y-81157136D01*
X193442394Y-81133250D01*
X193350106Y-81133250D01*
X193260962Y-81157136D01*
X193260961Y-81157136D01*
X193260959Y-81157137D01*
X193260956Y-81157138D01*
X193181044Y-81203276D01*
X193181038Y-81203281D01*
X193161194Y-81223125D01*
X193099870Y-81256609D01*
X193097706Y-81257059D01*
X193091728Y-81258248D01*
X193091726Y-81258249D01*
X193033120Y-81282524D01*
X193033118Y-81282524D01*
X193008845Y-81292579D01*
X190971400Y-83330025D01*
X190910077Y-83363510D01*
X190840385Y-83358526D01*
X190796038Y-83330025D01*
X190745380Y-83279367D01*
X190745378Y-83279365D01*
X190745375Y-83279363D01*
X190745371Y-83279360D01*
X190665459Y-83233222D01*
X190665456Y-83233221D01*
X190665455Y-83233220D01*
X190665454Y-83233220D01*
X190576310Y-83209334D01*
X190484022Y-83209334D01*
X190394878Y-83233220D01*
X190394877Y-83233220D01*
X190394875Y-83233221D01*
X190394872Y-83233222D01*
X190314960Y-83279360D01*
X190314955Y-83279364D01*
X190254868Y-83339451D01*
X190193544Y-83372935D01*
X190123853Y-83367950D01*
X190067919Y-83326079D01*
X190043503Y-83260614D01*
X190046006Y-83225481D01*
X190050113Y-83206547D01*
X190056614Y-83195288D01*
X190080500Y-83106144D01*
X190080500Y-83066472D01*
X190083319Y-83053478D01*
X190093936Y-83034005D01*
X190100185Y-83012727D01*
X190116747Y-82992172D01*
X190116765Y-82992139D01*
X190116772Y-82992132D01*
X190116785Y-82992125D01*
X190116809Y-82992095D01*
X190250296Y-82858607D01*
X190250299Y-82858606D01*
X190267735Y-82841170D01*
X190267736Y-82841170D01*
X190331170Y-82777736D01*
X190352604Y-82725989D01*
X190365501Y-82694854D01*
X190365501Y-82605145D01*
X190365500Y-82605142D01*
X190365500Y-82294814D01*
X190357721Y-82276034D01*
X190331172Y-82211935D01*
X190260671Y-82141434D01*
X190260664Y-82141428D01*
X190102370Y-81983134D01*
X190068885Y-81921811D01*
X190073869Y-81852119D01*
X190075491Y-81847997D01*
X190076608Y-81845298D01*
X190076614Y-81845288D01*
X190100500Y-81756144D01*
X190100500Y-81663856D01*
X190076614Y-81574712D01*
X190050805Y-81530010D01*
X190030473Y-81494794D01*
X190030470Y-81494791D01*
X190030469Y-81494788D01*
X189965212Y-81429531D01*
X189965209Y-81429529D01*
X189965205Y-81429526D01*
X189885293Y-81383388D01*
X189885290Y-81383387D01*
X189885289Y-81383386D01*
X189885288Y-81383386D01*
X189796144Y-81359500D01*
X189703856Y-81359500D01*
X189614712Y-81383386D01*
X189614711Y-81383386D01*
X189614709Y-81383387D01*
X189614706Y-81383388D01*
X189534794Y-81429526D01*
X189534785Y-81429533D01*
X189469533Y-81494785D01*
X189469526Y-81494794D01*
X189423388Y-81574705D01*
X189423386Y-81574711D01*
X189423386Y-81574712D01*
X189421273Y-81582594D01*
X189384912Y-81642252D01*
X189322066Y-81672783D01*
X189301500Y-81674500D01*
X185091300Y-81674500D01*
X185001591Y-81674500D01*
X185001589Y-81674500D01*
X185001587Y-81674501D01*
X184918712Y-81708827D01*
X184918710Y-81708829D01*
X184117029Y-82510512D01*
X184055706Y-82543997D01*
X184029348Y-82546831D01*
X183769665Y-82546831D01*
X183702626Y-82527146D01*
X183656871Y-82474342D01*
X183646927Y-82405184D01*
X183649885Y-82390758D01*
X183660500Y-82351144D01*
X183660500Y-82258856D01*
X183636614Y-82169712D01*
X183636611Y-82169706D01*
X183590473Y-82089794D01*
X183590470Y-82089791D01*
X183590469Y-82089788D01*
X183525212Y-82024531D01*
X183525209Y-82024529D01*
X183525205Y-82024526D01*
X183445293Y-81978388D01*
X183445290Y-81978387D01*
X183445289Y-81978386D01*
X183445288Y-81978386D01*
X183356144Y-81954500D01*
X183263856Y-81954500D01*
X183174712Y-81978386D01*
X183174711Y-81978386D01*
X183174709Y-81978387D01*
X183174706Y-81978388D01*
X183094794Y-82024526D01*
X183094788Y-82024531D01*
X183068181Y-82051138D01*
X183049050Y-82066784D01*
X183029884Y-82079499D01*
X183024376Y-82079499D01*
X182975825Y-82099609D01*
X182941494Y-82113830D01*
X182878060Y-82177264D01*
X182878059Y-82177265D01*
X182869280Y-82186043D01*
X182869278Y-82186045D01*
X182665899Y-82389424D01*
X182604576Y-82422909D01*
X182534884Y-82417925D01*
X182516217Y-82409130D01*
X182480288Y-82388386D01*
X182391144Y-82364500D01*
X182298856Y-82364500D01*
X182209712Y-82388386D01*
X182209711Y-82388386D01*
X182209709Y-82388387D01*
X182209706Y-82388388D01*
X182129794Y-82434526D01*
X182129785Y-82434533D01*
X182064533Y-82499785D01*
X182064528Y-82499791D01*
X182046844Y-82530420D01*
X181996275Y-82578634D01*
X181927667Y-82591854D01*
X181862804Y-82565884D01*
X181851778Y-82556097D01*
X181815214Y-82519533D01*
X181815212Y-82519531D01*
X181815209Y-82519529D01*
X181815205Y-82519526D01*
X181735293Y-82473388D01*
X181735290Y-82473387D01*
X181735289Y-82473386D01*
X181735288Y-82473386D01*
X181646144Y-82449500D01*
X181553856Y-82449500D01*
X181464712Y-82473386D01*
X181464711Y-82473386D01*
X181464709Y-82473387D01*
X181464706Y-82473388D01*
X181384794Y-82519526D01*
X181384785Y-82519533D01*
X181366138Y-82538181D01*
X181304815Y-82571666D01*
X181278457Y-82574500D01*
X180644767Y-82574500D01*
X180577728Y-82554815D01*
X180557086Y-82538181D01*
X178261819Y-80242914D01*
X178228334Y-80181591D01*
X178225500Y-80155233D01*
X178225500Y-79746543D01*
X178245185Y-79679504D01*
X178261819Y-79658862D01*
X178280469Y-79640212D01*
X178326614Y-79560288D01*
X178350500Y-79471144D01*
X178350500Y-79378856D01*
X178649500Y-79378856D01*
X178649500Y-79471144D01*
X178655773Y-79494557D01*
X178673387Y-79560290D01*
X178673388Y-79560293D01*
X178719526Y-79640205D01*
X178719529Y-79640209D01*
X178719531Y-79640212D01*
X178784788Y-79705469D01*
X178784791Y-79705470D01*
X178784794Y-79705473D01*
X178864706Y-79751611D01*
X178864707Y-79751611D01*
X178864712Y-79751614D01*
X178953856Y-79775500D01*
X178953858Y-79775500D01*
X179046142Y-79775500D01*
X179046144Y-79775500D01*
X179135288Y-79751614D01*
X179215212Y-79705469D01*
X179280469Y-79640212D01*
X179326614Y-79560288D01*
X179350500Y-79471144D01*
X179350500Y-79378856D01*
X179326614Y-79289712D01*
X179326611Y-79289706D01*
X179280473Y-79209794D01*
X179280470Y-79209791D01*
X179280469Y-79209788D01*
X179215212Y-79144531D01*
X179215209Y-79144529D01*
X179215205Y-79144526D01*
X179135293Y-79098388D01*
X179135290Y-79098387D01*
X179135289Y-79098386D01*
X179135288Y-79098386D01*
X179046144Y-79074500D01*
X178953856Y-79074500D01*
X178864712Y-79098386D01*
X178864711Y-79098386D01*
X178864709Y-79098387D01*
X178864706Y-79098388D01*
X178784794Y-79144526D01*
X178784785Y-79144533D01*
X178719533Y-79209785D01*
X178719526Y-79209794D01*
X178673388Y-79289706D01*
X178673387Y-79289709D01*
X178673386Y-79289711D01*
X178673386Y-79289712D01*
X178649500Y-79378856D01*
X178350500Y-79378856D01*
X178326614Y-79289712D01*
X178326611Y-79289706D01*
X178280473Y-79209794D01*
X178280470Y-79209791D01*
X178280469Y-79209788D01*
X178215212Y-79144531D01*
X178215209Y-79144529D01*
X178215205Y-79144526D01*
X178135293Y-79098388D01*
X178135290Y-79098387D01*
X178135289Y-79098386D01*
X178135288Y-79098386D01*
X178046144Y-79074500D01*
X177953856Y-79074500D01*
X177864712Y-79098386D01*
X177864711Y-79098386D01*
X177864709Y-79098387D01*
X177864706Y-79098388D01*
X177784794Y-79144526D01*
X177784785Y-79144533D01*
X177719533Y-79209785D01*
X177719526Y-79209794D01*
X177673388Y-79289706D01*
X177673387Y-79289709D01*
X177673386Y-79289711D01*
X177673386Y-79289712D01*
X177649500Y-79378856D01*
X177649500Y-79471144D01*
X177655773Y-79494557D01*
X177673387Y-79560290D01*
X177673388Y-79560293D01*
X177719526Y-79640205D01*
X177719533Y-79640214D01*
X177738181Y-79658862D01*
X177771666Y-79720185D01*
X177774500Y-79746543D01*
X177774500Y-80245142D01*
X177774499Y-80245156D01*
X177774499Y-80344854D01*
X177786904Y-80374803D01*
X177786903Y-80374803D01*
X177808828Y-80427733D01*
X177808831Y-80427737D01*
X177889700Y-80508606D01*
X177889706Y-80508611D01*
X180065604Y-82684509D01*
X180099089Y-82745832D01*
X180094105Y-82815524D01*
X180052233Y-82871457D01*
X180010021Y-82891963D01*
X180004712Y-82893386D01*
X180004710Y-82893386D01*
X180004706Y-82893388D01*
X179924794Y-82939526D01*
X179924785Y-82939533D01*
X179859533Y-83004785D01*
X179859526Y-83004794D01*
X179813388Y-83084706D01*
X179813387Y-83084709D01*
X179813386Y-83084711D01*
X179813386Y-83084712D01*
X179789500Y-83173856D01*
X179789500Y-83266144D01*
X179811611Y-83348665D01*
X179813387Y-83355290D01*
X179813388Y-83355293D01*
X179859526Y-83435205D01*
X179859529Y-83435209D01*
X179859531Y-83435212D01*
X179924788Y-83500469D01*
X179924791Y-83500470D01*
X179924794Y-83500473D01*
X180004706Y-83546611D01*
X180004707Y-83546611D01*
X180004712Y-83546614D01*
X180093856Y-83570500D01*
X180093858Y-83570500D01*
X180186142Y-83570500D01*
X180186144Y-83570500D01*
X180275288Y-83546614D01*
X180355212Y-83500469D01*
X180420469Y-83435212D01*
X180466614Y-83355288D01*
X180490500Y-83266144D01*
X180490500Y-83173856D01*
X180490499Y-83173854D01*
X180489439Y-83165800D01*
X180492916Y-83165342D01*
X180493148Y-83156463D01*
X180489610Y-83131853D01*
X180494044Y-83122142D01*
X180494323Y-83111472D01*
X180508306Y-83090913D01*
X180518635Y-83068297D01*
X180527614Y-83062526D01*
X180533618Y-83053700D01*
X180556497Y-83043964D01*
X180577413Y-83030523D01*
X180593533Y-83028205D01*
X180597910Y-83026343D01*
X180612348Y-83025500D01*
X180617652Y-83025500D01*
X180684691Y-83045185D01*
X180730446Y-83097989D01*
X180740189Y-83165751D01*
X180740561Y-83165800D01*
X180740386Y-83167123D01*
X180740390Y-83167147D01*
X180740372Y-83167235D01*
X180739500Y-83173854D01*
X180739500Y-83173856D01*
X180739500Y-83266144D01*
X180761611Y-83348665D01*
X180763387Y-83355290D01*
X180763388Y-83355293D01*
X180809526Y-83435205D01*
X180809529Y-83435209D01*
X180809531Y-83435212D01*
X180874788Y-83500469D01*
X180874791Y-83500470D01*
X180874794Y-83500473D01*
X180954706Y-83546611D01*
X180954707Y-83546611D01*
X180954712Y-83546614D01*
X181043856Y-83570500D01*
X181043858Y-83570500D01*
X181136142Y-83570500D01*
X181136144Y-83570500D01*
X181225288Y-83546614D01*
X181305212Y-83500469D01*
X181370469Y-83435212D01*
X181416614Y-83355288D01*
X181440500Y-83266144D01*
X181440500Y-83266136D01*
X181441531Y-83258311D01*
X181469800Y-83194416D01*
X181528125Y-83155946D01*
X181564470Y-83150500D01*
X181646142Y-83150500D01*
X181646144Y-83150500D01*
X181735288Y-83126614D01*
X181815212Y-83080469D01*
X181880469Y-83015212D01*
X181898154Y-82984580D01*
X181948721Y-82936367D01*
X182017328Y-82923145D01*
X182082192Y-82949113D01*
X182093221Y-82958902D01*
X182115191Y-82980872D01*
X182148676Y-83042195D01*
X182143692Y-83111887D01*
X182115191Y-83156234D01*
X178018829Y-87252595D01*
X178008774Y-87276868D01*
X178008774Y-87276870D01*
X178002980Y-87290859D01*
X177984499Y-87335474D01*
X177984499Y-87439619D01*
X177984500Y-87439628D01*
X177984500Y-88045233D01*
X177964815Y-88112272D01*
X177948181Y-88132914D01*
X176842914Y-89238181D01*
X176781591Y-89271666D01*
X176755233Y-89274500D01*
X173421543Y-89274500D01*
X173354504Y-89254815D01*
X173349123Y-89251155D01*
X173340970Y-89245289D01*
X173305212Y-89209531D01*
X173234634Y-89168782D01*
X173229593Y-89165155D01*
X173211792Y-89142290D01*
X173191797Y-89121319D01*
X173190589Y-89115055D01*
X173186672Y-89110023D01*
X173184058Y-89081163D01*
X173178575Y-89052711D01*
X173180945Y-89046790D01*
X173180370Y-89040438D01*
X173193775Y-89014744D01*
X173204544Y-88987847D01*
X173209738Y-88984147D01*
X173212689Y-88978493D01*
X173237852Y-88964128D01*
X173261458Y-88947319D01*
X173269736Y-88945927D01*
X173273368Y-88943854D01*
X173279995Y-88944202D01*
X173302013Y-88940500D01*
X173669989Y-88940500D01*
X173669991Y-88940500D01*
X173706929Y-88925200D01*
X173735200Y-88896929D01*
X173750500Y-88859991D01*
X173750500Y-88710009D01*
X173750500Y-87893280D01*
X173770185Y-87826241D01*
X173786819Y-87805599D01*
X173809666Y-87782751D01*
X173809667Y-87782750D01*
X173830500Y-87705000D01*
X173830500Y-85705000D01*
X173809667Y-85627250D01*
X173809666Y-85627249D01*
X173809666Y-85627248D01*
X173786819Y-85604401D01*
X173753334Y-85543078D01*
X173750500Y-85516720D01*
X173750500Y-83253856D01*
X174419500Y-83253856D01*
X174419500Y-83346144D01*
X174443366Y-83435214D01*
X174443387Y-83435290D01*
X174443388Y-83435293D01*
X174489526Y-83515205D01*
X174489529Y-83515209D01*
X174489531Y-83515212D01*
X174554788Y-83580469D01*
X174554791Y-83580470D01*
X174554794Y-83580473D01*
X174634706Y-83626611D01*
X174634707Y-83626611D01*
X174634712Y-83626614D01*
X174723856Y-83650500D01*
X174723858Y-83650500D01*
X174816142Y-83650500D01*
X174816144Y-83650500D01*
X174905288Y-83626614D01*
X174985212Y-83580469D01*
X175050469Y-83515212D01*
X175096614Y-83435288D01*
X175120500Y-83346144D01*
X175120500Y-83253856D01*
X175096614Y-83164712D01*
X175093956Y-83160108D01*
X175050473Y-83084794D01*
X175050470Y-83084791D01*
X175050469Y-83084788D01*
X174985212Y-83019531D01*
X174985209Y-83019529D01*
X174985205Y-83019526D01*
X174905293Y-82973388D01*
X174905290Y-82973387D01*
X174905289Y-82973386D01*
X174905288Y-82973386D01*
X174816144Y-82949500D01*
X174723856Y-82949500D01*
X174634712Y-82973386D01*
X174634711Y-82973386D01*
X174634709Y-82973387D01*
X174634706Y-82973388D01*
X174554794Y-83019526D01*
X174554785Y-83019533D01*
X174489533Y-83084785D01*
X174489526Y-83084794D01*
X174443388Y-83164706D01*
X174443387Y-83164709D01*
X174443386Y-83164711D01*
X174443386Y-83164712D01*
X174419500Y-83253856D01*
X173750500Y-83253856D01*
X173750500Y-81530010D01*
X173750499Y-81530007D01*
X173750451Y-81529892D01*
X173735200Y-81493071D01*
X173706929Y-81464800D01*
X173706928Y-81464799D01*
X173669992Y-81449500D01*
X173669991Y-81449500D01*
X172627607Y-81449500D01*
X172560568Y-81429815D01*
X172514813Y-81377011D01*
X172503607Y-81325558D01*
X172503186Y-80427733D01*
X172502749Y-79494557D01*
X172522402Y-79427509D01*
X172575185Y-79381730D01*
X172626749Y-79370500D01*
X173669989Y-79370500D01*
X173669991Y-79370500D01*
X173706929Y-79355200D01*
X173735200Y-79326929D01*
X173750500Y-79289991D01*
X173750500Y-79180009D01*
X173750500Y-78253856D01*
X176649500Y-78253856D01*
X176649500Y-78346144D01*
X176661850Y-78392236D01*
X176673387Y-78435290D01*
X176673388Y-78435293D01*
X176719526Y-78515205D01*
X176719529Y-78515209D01*
X176719531Y-78515212D01*
X176784788Y-78580469D01*
X176784791Y-78580470D01*
X176784794Y-78580473D01*
X176864706Y-78626611D01*
X176864707Y-78626611D01*
X176864712Y-78626614D01*
X176953856Y-78650500D01*
X176953858Y-78650500D01*
X177046142Y-78650500D01*
X177046144Y-78650500D01*
X177108260Y-78633856D01*
X185714500Y-78633856D01*
X185714500Y-78726144D01*
X185725148Y-78765884D01*
X185738387Y-78815290D01*
X185738388Y-78815293D01*
X185784526Y-78895205D01*
X185784529Y-78895209D01*
X185784531Y-78895212D01*
X185849788Y-78960469D01*
X185849791Y-78960470D01*
X185849794Y-78960473D01*
X185929706Y-79006611D01*
X185929707Y-79006611D01*
X185929712Y-79006614D01*
X186018856Y-79030500D01*
X186018858Y-79030500D01*
X186111142Y-79030500D01*
X186111144Y-79030500D01*
X186200288Y-79006614D01*
X186280212Y-78960469D01*
X186345469Y-78895212D01*
X186391614Y-78815288D01*
X186415500Y-78726144D01*
X186415500Y-78633856D01*
X186391614Y-78544712D01*
X186391611Y-78544706D01*
X186345473Y-78464794D01*
X186345470Y-78464791D01*
X186345469Y-78464788D01*
X186280212Y-78399531D01*
X186280209Y-78399529D01*
X186280205Y-78399526D01*
X186200293Y-78353388D01*
X186200290Y-78353387D01*
X186200289Y-78353386D01*
X186200288Y-78353386D01*
X186111144Y-78329500D01*
X186018856Y-78329500D01*
X185929712Y-78353386D01*
X185929711Y-78353386D01*
X185929709Y-78353387D01*
X185929706Y-78353388D01*
X185849794Y-78399526D01*
X185849785Y-78399533D01*
X185784533Y-78464785D01*
X185784526Y-78464794D01*
X185738388Y-78544706D01*
X185738387Y-78544709D01*
X185738386Y-78544711D01*
X185738386Y-78544712D01*
X185714500Y-78633856D01*
X177108260Y-78633856D01*
X177135288Y-78626614D01*
X177215212Y-78580469D01*
X177280469Y-78515212D01*
X177326614Y-78435288D01*
X177350500Y-78346144D01*
X177350500Y-78253856D01*
X177338963Y-78210799D01*
X187626443Y-78210799D01*
X187626443Y-78303087D01*
X187644898Y-78371963D01*
X187650330Y-78392233D01*
X187650331Y-78392236D01*
X187696469Y-78472148D01*
X187696472Y-78472152D01*
X187696474Y-78472155D01*
X187761731Y-78537412D01*
X187761734Y-78537413D01*
X187761737Y-78537416D01*
X187841649Y-78583554D01*
X187841650Y-78583554D01*
X187841655Y-78583557D01*
X187930799Y-78607443D01*
X187930801Y-78607443D01*
X188023085Y-78607443D01*
X188023087Y-78607443D01*
X188112231Y-78583557D01*
X188192155Y-78537412D01*
X188257412Y-78472155D01*
X188303557Y-78392231D01*
X188327443Y-78303087D01*
X188327443Y-78210799D01*
X188303557Y-78121655D01*
X188288052Y-78094800D01*
X188257416Y-78041737D01*
X188257413Y-78041734D01*
X188257412Y-78041731D01*
X188192155Y-77976474D01*
X188186336Y-77973114D01*
X188186335Y-77973113D01*
X188112236Y-77930331D01*
X188112233Y-77930330D01*
X188112232Y-77930329D01*
X188112231Y-77930329D01*
X188023087Y-77906443D01*
X187930799Y-77906443D01*
X187841655Y-77930329D01*
X187841654Y-77930329D01*
X187841652Y-77930330D01*
X187841649Y-77930331D01*
X187761737Y-77976469D01*
X187761728Y-77976476D01*
X187696476Y-78041728D01*
X187696469Y-78041737D01*
X187650331Y-78121649D01*
X187650330Y-78121652D01*
X187650329Y-78121654D01*
X187650329Y-78121655D01*
X187626443Y-78210799D01*
X177338963Y-78210799D01*
X177326614Y-78164712D01*
X177326611Y-78164706D01*
X177280473Y-78084794D01*
X177280470Y-78084791D01*
X177280469Y-78084788D01*
X177215212Y-78019531D01*
X177215209Y-78019529D01*
X177215205Y-78019526D01*
X177135293Y-77973388D01*
X177135290Y-77973387D01*
X177135289Y-77973386D01*
X177135288Y-77973386D01*
X177046144Y-77949500D01*
X176953856Y-77949500D01*
X176864712Y-77973386D01*
X176864711Y-77973386D01*
X176864709Y-77973387D01*
X176864706Y-77973388D01*
X176784794Y-78019526D01*
X176784785Y-78019533D01*
X176719533Y-78084785D01*
X176719526Y-78084794D01*
X176673388Y-78164706D01*
X176673387Y-78164709D01*
X176673386Y-78164711D01*
X176673386Y-78164712D01*
X176649500Y-78253856D01*
X173750500Y-78253856D01*
X173750500Y-78160009D01*
X173735200Y-78123071D01*
X173706929Y-78094800D01*
X173706928Y-78094799D01*
X173669992Y-78079500D01*
X173669991Y-78079500D01*
X173365057Y-78079500D01*
X173298018Y-78059815D01*
X173252263Y-78007011D01*
X173242319Y-77937853D01*
X173271344Y-77874297D01*
X173271812Y-77873856D01*
X189389500Y-77873856D01*
X189389500Y-77966144D01*
X189409753Y-78041731D01*
X189413387Y-78055290D01*
X189413388Y-78055293D01*
X189459526Y-78135205D01*
X189459529Y-78135209D01*
X189459531Y-78135212D01*
X189524788Y-78200469D01*
X189524791Y-78200470D01*
X189524794Y-78200473D01*
X189604706Y-78246611D01*
X189604707Y-78246611D01*
X189604712Y-78246614D01*
X189693856Y-78270500D01*
X189693858Y-78270500D01*
X189786142Y-78270500D01*
X189786144Y-78270500D01*
X189875288Y-78246614D01*
X189955212Y-78200469D01*
X190020469Y-78135212D01*
X190066614Y-78055288D01*
X190090500Y-77966144D01*
X190090500Y-77873856D01*
X190066614Y-77784712D01*
X190066611Y-77784706D01*
X190020473Y-77704794D01*
X190020470Y-77704791D01*
X190020469Y-77704788D01*
X189955212Y-77639531D01*
X189955209Y-77639529D01*
X189955205Y-77639526D01*
X189875293Y-77593388D01*
X189875290Y-77593387D01*
X189875289Y-77593386D01*
X189875288Y-77593386D01*
X189786144Y-77569500D01*
X189693856Y-77569500D01*
X189604712Y-77593386D01*
X189604711Y-77593386D01*
X189604709Y-77593387D01*
X189604706Y-77593388D01*
X189524794Y-77639526D01*
X189524785Y-77639533D01*
X189459533Y-77704785D01*
X189459526Y-77704794D01*
X189413388Y-77784706D01*
X189413387Y-77784709D01*
X189413386Y-77784711D01*
X189413386Y-77784712D01*
X189389500Y-77873856D01*
X173271812Y-77873856D01*
X173279685Y-77866436D01*
X173279465Y-77866216D01*
X173301566Y-77844115D01*
X173350469Y-77795212D01*
X173396614Y-77715288D01*
X173420500Y-77626144D01*
X173420500Y-77533856D01*
X173396614Y-77444712D01*
X173396611Y-77444706D01*
X173350473Y-77364794D01*
X173350470Y-77364791D01*
X173350469Y-77364788D01*
X173285212Y-77299531D01*
X173285209Y-77299529D01*
X173285205Y-77299526D01*
X173205293Y-77253388D01*
X173205290Y-77253387D01*
X173205289Y-77253386D01*
X173205288Y-77253386D01*
X173116144Y-77229500D01*
X173023856Y-77229500D01*
X172934712Y-77253386D01*
X172934711Y-77253386D01*
X172934709Y-77253387D01*
X172934706Y-77253388D01*
X172854794Y-77299526D01*
X172854785Y-77299533D01*
X172783784Y-77370535D01*
X172781780Y-77368531D01*
X172736446Y-77401633D01*
X172666700Y-77405787D01*
X172605780Y-77371573D01*
X172573028Y-77309855D01*
X172570500Y-77284943D01*
X172570500Y-76425056D01*
X172590185Y-76358017D01*
X172642989Y-76312262D01*
X172712147Y-76302318D01*
X172775703Y-76331343D01*
X172783562Y-76339686D01*
X172783784Y-76339465D01*
X172789531Y-76345212D01*
X172854788Y-76410469D01*
X172854791Y-76410470D01*
X172854794Y-76410473D01*
X172934706Y-76456611D01*
X172934707Y-76456611D01*
X172934712Y-76456614D01*
X173023856Y-76480500D01*
X173023858Y-76480500D01*
X173116142Y-76480500D01*
X173116144Y-76480500D01*
X173205288Y-76456614D01*
X173285212Y-76410469D01*
X173350469Y-76345212D01*
X173396614Y-76265288D01*
X173420500Y-76176144D01*
X173420500Y-76083856D01*
X173399064Y-76003856D01*
X184159500Y-76003856D01*
X184159500Y-76096144D01*
X184180935Y-76176142D01*
X184183387Y-76185290D01*
X184183388Y-76185293D01*
X184229526Y-76265205D01*
X184229529Y-76265209D01*
X184229531Y-76265212D01*
X184294788Y-76330469D01*
X184294791Y-76330470D01*
X184294794Y-76330473D01*
X184374706Y-76376611D01*
X184374707Y-76376611D01*
X184374712Y-76376614D01*
X184463856Y-76400500D01*
X184463858Y-76400500D01*
X184556142Y-76400500D01*
X184556144Y-76400500D01*
X184645288Y-76376614D01*
X184725212Y-76330469D01*
X184790469Y-76265212D01*
X184836614Y-76185288D01*
X184860500Y-76096144D01*
X184860500Y-76003856D01*
X184836614Y-75914712D01*
X184790469Y-75834788D01*
X184789537Y-75833856D01*
X186669500Y-75833856D01*
X186669500Y-75926144D01*
X186690323Y-76003858D01*
X186693387Y-76015290D01*
X186693388Y-76015293D01*
X186739526Y-76095205D01*
X186739529Y-76095209D01*
X186739531Y-76095212D01*
X186804788Y-76160469D01*
X186804791Y-76160470D01*
X186804794Y-76160473D01*
X186884706Y-76206611D01*
X186884707Y-76206611D01*
X186884712Y-76206614D01*
X186973856Y-76230500D01*
X186973858Y-76230500D01*
X187066142Y-76230500D01*
X187066144Y-76230500D01*
X187155288Y-76206614D01*
X187235212Y-76160469D01*
X187300469Y-76095212D01*
X187346614Y-76015288D01*
X187370500Y-75926144D01*
X187370500Y-75833856D01*
X187359782Y-75793856D01*
X188869500Y-75793856D01*
X188869500Y-75886144D01*
X188890323Y-75963858D01*
X188893387Y-75975290D01*
X188893388Y-75975293D01*
X188939526Y-76055205D01*
X188939529Y-76055209D01*
X188939531Y-76055212D01*
X189004788Y-76120469D01*
X189004791Y-76120470D01*
X189004794Y-76120473D01*
X189084706Y-76166611D01*
X189084707Y-76166611D01*
X189084712Y-76166614D01*
X189173856Y-76190500D01*
X189173858Y-76190500D01*
X189266142Y-76190500D01*
X189266144Y-76190500D01*
X189355288Y-76166614D01*
X189435212Y-76120469D01*
X189500469Y-76055212D01*
X189546614Y-75975288D01*
X189549677Y-75963856D01*
X189979500Y-75963856D01*
X189979500Y-76056144D01*
X189990217Y-76096142D01*
X190003387Y-76145290D01*
X190003388Y-76145293D01*
X190049526Y-76225205D01*
X190049529Y-76225209D01*
X190049531Y-76225212D01*
X190114788Y-76290469D01*
X190114791Y-76290470D01*
X190114794Y-76290473D01*
X190194706Y-76336611D01*
X190194707Y-76336611D01*
X190194712Y-76336614D01*
X190283856Y-76360500D01*
X190283858Y-76360500D01*
X190376142Y-76360500D01*
X190376144Y-76360500D01*
X190465288Y-76336614D01*
X190545212Y-76290469D01*
X190610469Y-76225212D01*
X190656614Y-76145288D01*
X190680500Y-76056144D01*
X190680500Y-75963856D01*
X190656614Y-75874712D01*
X190656611Y-75874706D01*
X190610473Y-75794794D01*
X190610470Y-75794791D01*
X190610469Y-75794788D01*
X190545212Y-75729531D01*
X190545209Y-75729529D01*
X190545205Y-75729526D01*
X190465293Y-75683388D01*
X190465290Y-75683387D01*
X190465289Y-75683386D01*
X190465288Y-75683386D01*
X190376144Y-75659500D01*
X190283856Y-75659500D01*
X190194712Y-75683386D01*
X190194711Y-75683386D01*
X190194709Y-75683387D01*
X190194706Y-75683388D01*
X190114794Y-75729526D01*
X190114785Y-75729533D01*
X190049533Y-75794785D01*
X190049526Y-75794794D01*
X190003388Y-75874706D01*
X190003387Y-75874709D01*
X190003386Y-75874711D01*
X190003386Y-75874712D01*
X189979500Y-75963856D01*
X189549677Y-75963856D01*
X189570500Y-75886144D01*
X189570500Y-75793856D01*
X189546614Y-75704712D01*
X189543605Y-75699500D01*
X189500473Y-75624794D01*
X189500470Y-75624791D01*
X189500469Y-75624788D01*
X189435212Y-75559531D01*
X189435209Y-75559529D01*
X189435205Y-75559526D01*
X189355293Y-75513388D01*
X189355290Y-75513387D01*
X189355289Y-75513386D01*
X189355288Y-75513386D01*
X189266144Y-75489500D01*
X189173856Y-75489500D01*
X189084712Y-75513386D01*
X189084711Y-75513386D01*
X189084709Y-75513387D01*
X189084706Y-75513388D01*
X189004794Y-75559526D01*
X189004785Y-75559533D01*
X188939533Y-75624785D01*
X188939526Y-75624794D01*
X188893388Y-75704706D01*
X188893387Y-75704709D01*
X188893386Y-75704711D01*
X188893386Y-75704712D01*
X188869500Y-75793856D01*
X187359782Y-75793856D01*
X187346614Y-75744712D01*
X187346611Y-75744706D01*
X187300473Y-75664794D01*
X187300470Y-75664791D01*
X187300469Y-75664788D01*
X187235212Y-75599531D01*
X187235209Y-75599529D01*
X187235205Y-75599526D01*
X187155293Y-75553388D01*
X187155290Y-75553387D01*
X187155289Y-75553386D01*
X187155288Y-75553386D01*
X187066144Y-75529500D01*
X186973856Y-75529500D01*
X186884712Y-75553386D01*
X186884711Y-75553386D01*
X186884709Y-75553387D01*
X186884706Y-75553388D01*
X186804794Y-75599526D01*
X186804785Y-75599533D01*
X186739533Y-75664785D01*
X186739526Y-75664794D01*
X186693388Y-75744706D01*
X186693387Y-75744709D01*
X186693386Y-75744711D01*
X186693386Y-75744712D01*
X186669500Y-75833856D01*
X184789537Y-75833856D01*
X184725212Y-75769531D01*
X184725209Y-75769529D01*
X184725205Y-75769526D01*
X184645293Y-75723388D01*
X184645290Y-75723387D01*
X184645289Y-75723386D01*
X184645288Y-75723386D01*
X184556144Y-75699500D01*
X184463856Y-75699500D01*
X184374712Y-75723386D01*
X184374711Y-75723386D01*
X184374709Y-75723387D01*
X184374706Y-75723388D01*
X184294794Y-75769526D01*
X184294785Y-75769533D01*
X184229533Y-75834785D01*
X184229526Y-75834794D01*
X184183388Y-75914706D01*
X184183387Y-75914709D01*
X184183387Y-75914710D01*
X184183386Y-75914712D01*
X184159500Y-76003856D01*
X173399064Y-76003856D01*
X173396614Y-75994712D01*
X173396611Y-75994706D01*
X173350473Y-75914794D01*
X173350470Y-75914791D01*
X173350469Y-75914788D01*
X173285212Y-75849531D01*
X173285209Y-75849529D01*
X173285205Y-75849526D01*
X173205293Y-75803388D01*
X173205290Y-75803387D01*
X173205289Y-75803386D01*
X173205288Y-75803386D01*
X173116144Y-75779500D01*
X173023856Y-75779500D01*
X172934712Y-75803386D01*
X172934711Y-75803386D01*
X172934709Y-75803387D01*
X172934706Y-75803388D01*
X172854794Y-75849526D01*
X172854785Y-75849533D01*
X172783784Y-75920535D01*
X172781780Y-75918531D01*
X172736446Y-75951633D01*
X172666700Y-75955787D01*
X172605780Y-75921573D01*
X172573028Y-75859855D01*
X172570500Y-75834943D01*
X172570500Y-75043856D01*
X182699500Y-75043856D01*
X182699500Y-75136144D01*
X182723366Y-75225214D01*
X182723387Y-75225290D01*
X182723388Y-75225293D01*
X182769526Y-75305205D01*
X182769529Y-75305209D01*
X182769531Y-75305212D01*
X182834788Y-75370469D01*
X182834791Y-75370470D01*
X182834794Y-75370473D01*
X182914706Y-75416611D01*
X182914707Y-75416611D01*
X182914712Y-75416614D01*
X183003856Y-75440500D01*
X183003858Y-75440500D01*
X183096142Y-75440500D01*
X183096144Y-75440500D01*
X183185288Y-75416614D01*
X183265212Y-75370469D01*
X183330469Y-75305212D01*
X183376614Y-75225288D01*
X183400500Y-75136144D01*
X183400500Y-75043856D01*
X183381744Y-74973856D01*
X187449500Y-74973856D01*
X187449500Y-75066144D01*
X187468256Y-75136144D01*
X187473387Y-75155290D01*
X187473388Y-75155293D01*
X187519526Y-75235205D01*
X187519529Y-75235209D01*
X187519531Y-75235212D01*
X187584788Y-75300469D01*
X187584791Y-75300470D01*
X187584794Y-75300473D01*
X187664706Y-75346611D01*
X187664707Y-75346611D01*
X187664712Y-75346614D01*
X187753856Y-75370500D01*
X187753858Y-75370500D01*
X187846142Y-75370500D01*
X187846144Y-75370500D01*
X187935288Y-75346614D01*
X188006660Y-75305406D01*
X188074558Y-75288933D01*
X188130659Y-75305406D01*
X188174165Y-75330524D01*
X188184708Y-75336612D01*
X188184712Y-75336614D01*
X188273856Y-75360500D01*
X188273858Y-75360500D01*
X188366142Y-75360500D01*
X188366144Y-75360500D01*
X188455288Y-75336614D01*
X188535212Y-75290469D01*
X188600469Y-75225212D01*
X188646614Y-75145288D01*
X188670500Y-75056144D01*
X188670500Y-74963856D01*
X188646614Y-74874712D01*
X188646611Y-74874706D01*
X188600473Y-74794794D01*
X188600470Y-74794791D01*
X188600469Y-74794788D01*
X188535212Y-74729531D01*
X188535209Y-74729529D01*
X188535205Y-74729526D01*
X188455293Y-74683388D01*
X188455290Y-74683387D01*
X188455289Y-74683386D01*
X188455288Y-74683386D01*
X188366144Y-74659500D01*
X188273856Y-74659500D01*
X188184712Y-74683386D01*
X188184711Y-74683386D01*
X188184709Y-74683387D01*
X188184708Y-74683387D01*
X188113339Y-74724593D01*
X188045439Y-74741066D01*
X187989337Y-74724592D01*
X187935290Y-74693386D01*
X187875858Y-74677462D01*
X187846144Y-74669500D01*
X187753856Y-74669500D01*
X187664712Y-74693386D01*
X187664711Y-74693386D01*
X187664709Y-74693387D01*
X187664706Y-74693388D01*
X187584794Y-74739526D01*
X187584785Y-74739533D01*
X187519533Y-74804785D01*
X187519526Y-74804794D01*
X187473388Y-74884706D01*
X187473387Y-74884709D01*
X187473386Y-74884711D01*
X187473386Y-74884712D01*
X187449500Y-74973856D01*
X183381744Y-74973856D01*
X183376614Y-74954712D01*
X183376612Y-74954709D01*
X183376612Y-74954707D01*
X183376611Y-74954706D01*
X183330473Y-74874794D01*
X183330470Y-74874791D01*
X183330469Y-74874788D01*
X183265212Y-74809531D01*
X183265209Y-74809529D01*
X183265205Y-74809526D01*
X183185293Y-74763388D01*
X183185290Y-74763387D01*
X183185289Y-74763386D01*
X183185288Y-74763386D01*
X183096144Y-74739500D01*
X183003856Y-74739500D01*
X182914712Y-74763386D01*
X182914711Y-74763386D01*
X182914709Y-74763387D01*
X182914706Y-74763388D01*
X182834794Y-74809526D01*
X182834785Y-74809533D01*
X182769533Y-74874785D01*
X182769526Y-74874794D01*
X182723388Y-74954706D01*
X182723387Y-74954709D01*
X182723386Y-74954711D01*
X182723386Y-74954712D01*
X182699500Y-75043856D01*
X172570500Y-75043856D01*
X172570500Y-73843856D01*
X174819500Y-73843856D01*
X174819500Y-73936143D01*
X174843387Y-74025290D01*
X174843387Y-74025291D01*
X174856498Y-74048000D01*
X174872971Y-74115901D01*
X174856498Y-74172000D01*
X174843387Y-74194708D01*
X174843387Y-74194709D01*
X174843387Y-74194710D01*
X174843386Y-74194712D01*
X174819500Y-74283856D01*
X174819500Y-74376144D01*
X174835576Y-74436142D01*
X174843387Y-74465290D01*
X174843388Y-74465293D01*
X174889526Y-74545205D01*
X174889529Y-74545209D01*
X174889531Y-74545212D01*
X174954788Y-74610469D01*
X174954791Y-74610470D01*
X174954794Y-74610473D01*
X175034706Y-74656611D01*
X175034707Y-74656611D01*
X175034712Y-74656614D01*
X175123856Y-74680500D01*
X175123858Y-74680500D01*
X175216142Y-74680500D01*
X175216144Y-74680500D01*
X175305288Y-74656614D01*
X175385212Y-74610469D01*
X175450469Y-74545212D01*
X175496614Y-74465288D01*
X175520500Y-74376144D01*
X175520500Y-74283856D01*
X175496614Y-74194712D01*
X175483501Y-74172001D01*
X175467028Y-74104102D01*
X175483502Y-74047998D01*
X175496416Y-74025631D01*
X175496614Y-74025288D01*
X175520500Y-73936144D01*
X175520500Y-73844196D01*
X181190994Y-73844196D01*
X181190994Y-73936483D01*
X181214880Y-74025628D01*
X181254468Y-74094195D01*
X181270941Y-74162095D01*
X181254468Y-74218196D01*
X181233387Y-74254708D01*
X181233387Y-74254709D01*
X181233386Y-74254711D01*
X181233386Y-74254712D01*
X181209500Y-74343856D01*
X181209500Y-74436144D01*
X181217310Y-74465293D01*
X181233387Y-74525290D01*
X181233388Y-74525293D01*
X181279526Y-74605205D01*
X181279529Y-74605209D01*
X181279531Y-74605212D01*
X181344788Y-74670469D01*
X181344791Y-74670470D01*
X181344794Y-74670473D01*
X181424706Y-74716611D01*
X181424707Y-74716611D01*
X181424712Y-74716614D01*
X181513856Y-74740500D01*
X181513858Y-74740500D01*
X181606142Y-74740500D01*
X181606144Y-74740500D01*
X181695288Y-74716614D01*
X181775212Y-74670469D01*
X181840469Y-74605212D01*
X181886614Y-74525288D01*
X181910500Y-74436144D01*
X181910500Y-74343856D01*
X181886614Y-74254712D01*
X181886611Y-74254706D01*
X181847026Y-74186144D01*
X181830552Y-74118244D01*
X181847027Y-74062140D01*
X181868106Y-74025631D01*
X181868108Y-74025628D01*
X181891994Y-73936484D01*
X181891994Y-73844196D01*
X181868108Y-73755052D01*
X181867910Y-73754709D01*
X181821967Y-73675134D01*
X181821964Y-73675131D01*
X181821963Y-73675128D01*
X181756706Y-73609871D01*
X181756703Y-73609869D01*
X181756699Y-73609866D01*
X181676787Y-73563728D01*
X181676784Y-73563727D01*
X181676783Y-73563726D01*
X181676782Y-73563726D01*
X181587638Y-73539840D01*
X181495350Y-73539840D01*
X181406206Y-73563726D01*
X181406205Y-73563726D01*
X181406203Y-73563727D01*
X181406200Y-73563728D01*
X181326288Y-73609866D01*
X181326279Y-73609873D01*
X181261027Y-73675125D01*
X181261020Y-73675134D01*
X181214882Y-73755046D01*
X181214881Y-73755049D01*
X181190994Y-73844196D01*
X175520500Y-73844196D01*
X175520500Y-73843856D01*
X175496614Y-73754712D01*
X175488393Y-73740473D01*
X175450473Y-73674794D01*
X175450470Y-73674791D01*
X175450469Y-73674788D01*
X175385212Y-73609531D01*
X175385209Y-73609529D01*
X175385205Y-73609526D01*
X175305293Y-73563388D01*
X175305290Y-73563387D01*
X175305289Y-73563386D01*
X175305288Y-73563386D01*
X175216144Y-73539500D01*
X175123856Y-73539500D01*
X175034712Y-73563386D01*
X175034711Y-73563386D01*
X175034709Y-73563387D01*
X175034706Y-73563388D01*
X174954794Y-73609526D01*
X174954785Y-73609533D01*
X174889533Y-73674785D01*
X174889526Y-73674794D01*
X174843388Y-73754706D01*
X174843387Y-73754709D01*
X174843386Y-73754711D01*
X174843386Y-73754712D01*
X174834838Y-73786614D01*
X174819500Y-73843856D01*
X172570500Y-73843856D01*
X172570500Y-73755056D01*
X172590185Y-73688017D01*
X172642989Y-73642262D01*
X172712147Y-73632318D01*
X172775703Y-73661343D01*
X172783562Y-73669686D01*
X172783784Y-73669465D01*
X172789531Y-73675212D01*
X172854788Y-73740469D01*
X172854791Y-73740470D01*
X172854794Y-73740473D01*
X172934706Y-73786611D01*
X172934707Y-73786611D01*
X172934712Y-73786614D01*
X173023856Y-73810500D01*
X173023858Y-73810500D01*
X173116142Y-73810500D01*
X173116144Y-73810500D01*
X173205288Y-73786614D01*
X173285212Y-73740469D01*
X173350469Y-73675212D01*
X173396614Y-73595288D01*
X173420500Y-73506144D01*
X173420500Y-73413856D01*
X173396614Y-73324712D01*
X173396611Y-73324706D01*
X173350473Y-73244794D01*
X173350470Y-73244791D01*
X173350469Y-73244788D01*
X173285212Y-73179531D01*
X173271971Y-73171886D01*
X173223756Y-73121318D01*
X173210535Y-73052711D01*
X173236504Y-72987847D01*
X173293419Y-72947319D01*
X173333973Y-72940500D01*
X174889060Y-72940500D01*
X174900000Y-73400000D01*
G37*
%TD.AperFunction*%
%TA.AperFunction,Conductor*%
G36*
X192347424Y-94192477D02*
G01*
X192353341Y-94200000D01*
X192182651Y-94200000D01*
X192195288Y-94196614D01*
X192210544Y-94187806D01*
X192213497Y-94186101D01*
X192281397Y-94169626D01*
X192347424Y-94192477D01*
G37*
%TD.AperFunction*%
%TA.AperFunction,Conductor*%
G36*
X178368866Y-88452552D02*
G01*
X178424799Y-88494424D01*
X178449216Y-88559888D01*
X178449532Y-88568734D01*
X178449532Y-89030265D01*
X178429847Y-89097304D01*
X178413213Y-89117946D01*
X177314647Y-90216512D01*
X177253324Y-90249997D01*
X177226966Y-90252831D01*
X174680966Y-90252831D01*
X174680958Y-90252830D01*
X174666524Y-90252830D01*
X174576814Y-90252830D01*
X174576812Y-90252830D01*
X174542482Y-90267050D01*
X174518208Y-90277105D01*
X174518206Y-90277105D01*
X174493933Y-90287160D01*
X174308831Y-90472262D01*
X174308829Y-90472265D01*
X174301843Y-90489130D01*
X174274966Y-90529353D01*
X174219530Y-90584789D01*
X174219526Y-90584794D01*
X174173388Y-90664706D01*
X174173387Y-90664709D01*
X174173386Y-90664711D01*
X174173386Y-90664712D01*
X174149500Y-90753856D01*
X174149500Y-90846144D01*
X174168863Y-90918407D01*
X174167200Y-90988257D01*
X174128037Y-91046119D01*
X174063809Y-91073623D01*
X174049088Y-91074500D01*
X173614768Y-91074500D01*
X173585327Y-91065855D01*
X173555341Y-91059332D01*
X173550325Y-91055577D01*
X173547729Y-91054815D01*
X173527087Y-91038181D01*
X173456819Y-90967913D01*
X173423334Y-90906590D01*
X173420500Y-90880232D01*
X173420500Y-90853858D01*
X173420500Y-90853856D01*
X173396614Y-90764712D01*
X173396611Y-90764706D01*
X173350473Y-90684794D01*
X173350470Y-90684791D01*
X173350469Y-90684788D01*
X173285212Y-90619531D01*
X173285209Y-90619529D01*
X173285205Y-90619526D01*
X173205293Y-90573388D01*
X173205290Y-90573387D01*
X173205289Y-90573386D01*
X173205288Y-90573386D01*
X173116144Y-90549500D01*
X173023856Y-90549500D01*
X172934712Y-90573386D01*
X172934711Y-90573386D01*
X172934709Y-90573387D01*
X172934706Y-90573388D01*
X172854794Y-90619526D01*
X172854785Y-90619533D01*
X172783784Y-90690535D01*
X172781780Y-90688531D01*
X172736446Y-90721633D01*
X172666700Y-90725787D01*
X172605780Y-90691573D01*
X172573028Y-90629855D01*
X172570500Y-90604943D01*
X172570500Y-89753972D01*
X172590185Y-89686933D01*
X172642989Y-89641178D01*
X172712147Y-89631234D01*
X172775703Y-89660259D01*
X172801886Y-89691970D01*
X172809531Y-89705212D01*
X172874788Y-89770469D01*
X172874791Y-89770470D01*
X172874794Y-89770473D01*
X172954706Y-89816611D01*
X172954707Y-89816611D01*
X172954712Y-89816614D01*
X173043856Y-89840500D01*
X173043858Y-89840500D01*
X173136142Y-89840500D01*
X173136144Y-89840500D01*
X173225288Y-89816614D01*
X173305212Y-89770469D01*
X173313862Y-89761819D01*
X173375185Y-89728334D01*
X173401543Y-89725500D01*
X176855143Y-89725500D01*
X176855145Y-89725501D01*
X176944855Y-89725501D01*
X177003460Y-89701225D01*
X177027736Y-89691170D01*
X177091170Y-89627736D01*
X177091170Y-89627735D01*
X177108608Y-89610297D01*
X177108610Y-89610294D01*
X178237851Y-88481053D01*
X178299174Y-88447568D01*
X178368866Y-88452552D01*
G37*
%TD.AperFunction*%
%TA.AperFunction,Conductor*%
G36*
X185634185Y-82630050D02*
G01*
X185643147Y-82628762D01*
X185667187Y-82639740D01*
X185692539Y-82647185D01*
X185698466Y-82654025D01*
X185706703Y-82657787D01*
X185720992Y-82680021D01*
X185738294Y-82699989D01*
X185740581Y-82710503D01*
X185744477Y-82716565D01*
X185749500Y-82751500D01*
X185749500Y-82753856D01*
X185749500Y-82846144D01*
X185770552Y-82924712D01*
X185773387Y-82935290D01*
X185773388Y-82935293D01*
X185819526Y-83015205D01*
X185819529Y-83015209D01*
X185819531Y-83015212D01*
X185884788Y-83080469D01*
X185884791Y-83080470D01*
X185884794Y-83080473D01*
X185964706Y-83126611D01*
X185964707Y-83126611D01*
X185964712Y-83126614D01*
X186053856Y-83150500D01*
X186053858Y-83150500D01*
X186146142Y-83150500D01*
X186146144Y-83150500D01*
X186235288Y-83126614D01*
X186315212Y-83080469D01*
X186380469Y-83015212D01*
X186426614Y-82935288D01*
X186450500Y-82846144D01*
X186450500Y-82753856D01*
X186450500Y-82751500D01*
X186470185Y-82684461D01*
X186522989Y-82638706D01*
X186574500Y-82627500D01*
X186957233Y-82627500D01*
X187024272Y-82647185D01*
X187044913Y-82663818D01*
X187158829Y-82777735D01*
X187258829Y-82877735D01*
X187267027Y-82885933D01*
X187277859Y-82905770D01*
X187292531Y-82922967D01*
X187294282Y-82935847D01*
X187300512Y-82947256D01*
X187298899Y-82969802D01*
X187301945Y-82992199D01*
X187296106Y-83008862D01*
X187295528Y-83016948D01*
X187291743Y-83025987D01*
X187289448Y-83030910D01*
X187258386Y-83084712D01*
X187250274Y-83114981D01*
X187245700Y-83124800D01*
X187233107Y-83139109D01*
X187220984Y-83160108D01*
X185848913Y-84532181D01*
X185787590Y-84565666D01*
X185761232Y-84568500D01*
X185573552Y-84568500D01*
X185573544Y-84568499D01*
X185559110Y-84568499D01*
X185469401Y-84568499D01*
X185469399Y-84568499D01*
X185469397Y-84568500D01*
X185420849Y-84588609D01*
X185386520Y-84602828D01*
X185368850Y-84620499D01*
X185323085Y-84666264D01*
X185102830Y-84886518D01*
X185102830Y-84886520D01*
X185068499Y-84969399D01*
X185068499Y-85031564D01*
X185048814Y-85098603D01*
X185032179Y-85119245D01*
X184926226Y-85225200D01*
X184828245Y-85323181D01*
X184766922Y-85356666D01*
X184740564Y-85359500D01*
X183289523Y-85359500D01*
X183199814Y-85359500D01*
X183199812Y-85359500D01*
X183199810Y-85359501D01*
X183116935Y-85393827D01*
X183116933Y-85393829D01*
X182427583Y-86083181D01*
X182366260Y-86116666D01*
X182339902Y-86119500D01*
X181729523Y-86119500D01*
X181639814Y-86119500D01*
X181639812Y-86119500D01*
X181639810Y-86119501D01*
X181556935Y-86153827D01*
X180645275Y-87065487D01*
X180635220Y-87089760D01*
X180635220Y-87089762D01*
X180629382Y-87103856D01*
X180610945Y-87148366D01*
X180610945Y-87223820D01*
X180602300Y-87253260D01*
X180595777Y-87283247D01*
X180592022Y-87288262D01*
X180591260Y-87290859D01*
X180574626Y-87311501D01*
X180561265Y-87324862D01*
X180004354Y-87881771D01*
X179943031Y-87915256D01*
X179873339Y-87910272D01*
X179829355Y-87877757D01*
X179827407Y-87879706D01*
X179756405Y-87808704D01*
X179756403Y-87808702D01*
X179756400Y-87808700D01*
X179756396Y-87808697D01*
X179676484Y-87762559D01*
X179676481Y-87762558D01*
X179676480Y-87762557D01*
X179676479Y-87762557D01*
X179587335Y-87738671D01*
X179495047Y-87738671D01*
X179405903Y-87762557D01*
X179405902Y-87762557D01*
X179405900Y-87762558D01*
X179405897Y-87762559D01*
X179325985Y-87808697D01*
X179325976Y-87808704D01*
X179307329Y-87827352D01*
X179246006Y-87860837D01*
X179219648Y-87863671D01*
X178984229Y-87863671D01*
X178984227Y-87863671D01*
X178984225Y-87863672D01*
X178901350Y-87897998D01*
X178901348Y-87898000D01*
X178647181Y-88152168D01*
X178585858Y-88185653D01*
X178516166Y-88180669D01*
X178460233Y-88138797D01*
X178435816Y-88073333D01*
X178435500Y-88064487D01*
X178435500Y-87525097D01*
X178455185Y-87458058D01*
X178471814Y-87437421D01*
X182631715Y-83277519D01*
X182693036Y-83244036D01*
X182762728Y-83249020D01*
X182818661Y-83290892D01*
X182839167Y-83333105D01*
X182849840Y-83372935D01*
X182858387Y-83404833D01*
X182858388Y-83404834D01*
X182904526Y-83484746D01*
X182904529Y-83484750D01*
X182904531Y-83484753D01*
X182969788Y-83550010D01*
X182969791Y-83550011D01*
X182969794Y-83550014D01*
X183049706Y-83596152D01*
X183049707Y-83596152D01*
X183049712Y-83596155D01*
X183138856Y-83620041D01*
X183138858Y-83620041D01*
X183231142Y-83620041D01*
X183231144Y-83620041D01*
X183320288Y-83596155D01*
X183400212Y-83550010D01*
X183465469Y-83484753D01*
X183511614Y-83404829D01*
X183511615Y-83404822D01*
X183514722Y-83397325D01*
X183516594Y-83398100D01*
X183547290Y-83347744D01*
X183610137Y-83317216D01*
X183630698Y-83315500D01*
X184165143Y-83315500D01*
X184165145Y-83315501D01*
X184254855Y-83315501D01*
X184313460Y-83291225D01*
X184337736Y-83281170D01*
X184393138Y-83225768D01*
X184393584Y-83225326D01*
X184403672Y-83215389D01*
X184405819Y-83214501D01*
X184469253Y-83151067D01*
X184469253Y-83151065D01*
X184607497Y-83012821D01*
X184668818Y-82979338D01*
X184738510Y-82984322D01*
X184794443Y-83026194D01*
X184802562Y-83038502D01*
X184805716Y-83043964D01*
X184829531Y-83085212D01*
X184894788Y-83150469D01*
X184894791Y-83150470D01*
X184894794Y-83150473D01*
X184974706Y-83196611D01*
X184974707Y-83196611D01*
X184974712Y-83196614D01*
X185063856Y-83220500D01*
X185063858Y-83220500D01*
X185156142Y-83220500D01*
X185156144Y-83220500D01*
X185245288Y-83196614D01*
X185325212Y-83150469D01*
X185390469Y-83085212D01*
X185436614Y-83005288D01*
X185460500Y-82916144D01*
X185460500Y-82823856D01*
X185449711Y-82783591D01*
X185451374Y-82713744D01*
X185490536Y-82655881D01*
X185554764Y-82628377D01*
X185569486Y-82627500D01*
X185625500Y-82627500D01*
X185634185Y-82630050D01*
G37*
%TD.AperFunction*%
%TA.AperFunction,Conductor*%
G36*
X185152667Y-85796807D02*
G01*
X185188319Y-85856896D01*
X185185825Y-85926721D01*
X185155852Y-85975242D01*
X183772914Y-87358181D01*
X183711591Y-87391666D01*
X183685233Y-87394500D01*
X181253436Y-87394500D01*
X181186397Y-87374815D01*
X181140642Y-87322011D01*
X181130698Y-87252853D01*
X181159723Y-87189297D01*
X181165755Y-87182819D01*
X181422525Y-86926050D01*
X181741756Y-86606819D01*
X181803079Y-86573334D01*
X181829437Y-86570500D01*
X182439812Y-86570500D01*
X182439814Y-86570501D01*
X182529524Y-86570501D01*
X182588129Y-86546225D01*
X182612405Y-86536170D01*
X182675839Y-86472736D01*
X182675839Y-86472735D01*
X182693277Y-86455297D01*
X182693278Y-86455294D01*
X183301756Y-85846819D01*
X183363079Y-85813334D01*
X183389437Y-85810500D01*
X184840474Y-85810500D01*
X184840476Y-85810501D01*
X184930186Y-85810501D01*
X184995646Y-85783386D01*
X185013067Y-85776170D01*
X185013068Y-85776168D01*
X185020719Y-85773000D01*
X185090188Y-85765531D01*
X185152667Y-85796807D01*
G37*
%TD.AperFunction*%
%TD*%
M02*
