%TF.GenerationSoftware,KiCad,Pcbnew,9.0.0*%
%TF.CreationDate,2025-03-28T18:18:21+01:00*%
%TF.ProjectId,cansatperso,63616e73-6174-4706-9572-736f2e6b6963,rev?*%
%TF.SameCoordinates,Original*%
%TF.FileFunction,Copper,L1,Top*%
%TF.FilePolarity,Positive*%
%FSLAX46Y46*%
G04 Gerber Fmt 4.6, Leading zero omitted, Abs format (unit mm)*
G04 Created by KiCad (PCBNEW 9.0.0) date 2025-03-28 18:18:21*
%MOMM*%
%LPD*%
G01*
G04 APERTURE LIST*
G04 Aperture macros list*
%AMRoundRect*
0 Rectangle with rounded corners*
0 $1 Rounding radius*
0 $2 $3 $4 $5 $6 $7 $8 $9 X,Y pos of 4 corners*
0 Add a 4 corners polygon primitive as box body*
4,1,4,$2,$3,$4,$5,$6,$7,$8,$9,$2,$3,0*
0 Add four circle primitives for the rounded corners*
1,1,$1+$1,$2,$3*
1,1,$1+$1,$4,$5*
1,1,$1+$1,$6,$7*
1,1,$1+$1,$8,$9*
0 Add four rect primitives between the rounded corners*
20,1,$1+$1,$2,$3,$4,$5,0*
20,1,$1+$1,$4,$5,$6,$7,0*
20,1,$1+$1,$6,$7,$8,$9,0*
20,1,$1+$1,$8,$9,$2,$3,0*%
%AMOutline5P*
0 Free polygon, 5 corners , with rotation*
0 The origin of the aperture is its center*
0 number of corners: always 5*
0 $1 to $10 corner X, Y*
0 $11 Rotation angle, in degrees counterclockwise*
0 create outline with 5 corners*
4,1,5,$1,$2,$3,$4,$5,$6,$7,$8,$9,$10,$1,$2,$11*%
%AMOutline6P*
0 Free polygon, 6 corners , with rotation*
0 The origin of the aperture is its center*
0 number of corners: always 6*
0 $1 to $12 corner X, Y*
0 $13 Rotation angle, in degrees counterclockwise*
0 create outline with 6 corners*
4,1,6,$1,$2,$3,$4,$5,$6,$7,$8,$9,$10,$11,$12,$1,$2,$13*%
%AMOutline7P*
0 Free polygon, 7 corners , with rotation*
0 The origin of the aperture is its center*
0 number of corners: always 7*
0 $1 to $14 corner X, Y*
0 $15 Rotation angle, in degrees counterclockwise*
0 create outline with 7 corners*
4,1,7,$1,$2,$3,$4,$5,$6,$7,$8,$9,$10,$11,$12,$13,$14,$1,$2,$15*%
%AMOutline8P*
0 Free polygon, 8 corners , with rotation*
0 The origin of the aperture is its center*
0 number of corners: always 8*
0 $1 to $16 corner X, Y*
0 $17 Rotation angle, in degrees counterclockwise*
0 create outline with 8 corners*
4,1,8,$1,$2,$3,$4,$5,$6,$7,$8,$9,$10,$11,$12,$13,$14,$15,$16,$1,$2,$17*%
%AMFreePoly0*
4,1,7,1.000000,0.600000,1.000000,-1.000000,-1.000000,-1.000000,-1.000000,0.600000,-0.600000,1.000000,0.600000,1.000000,1.000000,0.600000,1.000000,0.600000,$1*%
G04 Aperture macros list end*
%TA.AperFunction,Conductor*%
%ADD10C,0.200000*%
%TD*%
%TA.AperFunction,SMDPad,CuDef*%
%ADD11R,1.000000X1.000000*%
%TD*%
%TA.AperFunction,SMDPad,CuDef*%
%ADD12RoundRect,0.150000X-0.150000X-0.625000X0.150000X-0.625000X0.150000X0.625000X-0.150000X0.625000X0*%
%TD*%
%TA.AperFunction,SMDPad,CuDef*%
%ADD13RoundRect,0.250000X-0.350000X-0.650000X0.350000X-0.650000X0.350000X0.650000X-0.350000X0.650000X0*%
%TD*%
%TA.AperFunction,SMDPad,CuDef*%
%ADD14RoundRect,0.160000X-0.197500X-0.160000X0.197500X-0.160000X0.197500X0.160000X-0.197500X0.160000X0*%
%TD*%
%TA.AperFunction,ComponentPad*%
%ADD15C,2.200000*%
%TD*%
%TA.AperFunction,SMDPad,CuDef*%
%ADD16R,0.550000X1.500000*%
%TD*%
%TA.AperFunction,SMDPad,CuDef*%
%ADD17RoundRect,0.155000X0.155000X-0.212500X0.155000X0.212500X-0.155000X0.212500X-0.155000X-0.212500X0*%
%TD*%
%TA.AperFunction,SMDPad,CuDef*%
%ADD18R,1.200000X1.400000*%
%TD*%
%TA.AperFunction,SMDPad,CuDef*%
%ADD19RoundRect,0.155000X-0.212500X-0.155000X0.212500X-0.155000X0.212500X0.155000X-0.212500X0.155000X0*%
%TD*%
%TA.AperFunction,ComponentPad*%
%ADD20Outline6P,-0.600000X0.360000X-0.360000X0.600000X0.360000X0.600000X0.600000X0.360000X0.600000X-0.600000X-0.600000X-0.600000X270.000000*%
%TD*%
%TA.AperFunction,SMDPad,CuDef*%
%ADD21RoundRect,0.155000X0.212500X0.155000X-0.212500X0.155000X-0.212500X-0.155000X0.212500X-0.155000X0*%
%TD*%
%TA.AperFunction,ComponentPad*%
%ADD22FreePoly0,90.000000*%
%TD*%
%TA.AperFunction,SMDPad,CuDef*%
%ADD23RoundRect,0.160000X0.197500X0.160000X-0.197500X0.160000X-0.197500X-0.160000X0.197500X-0.160000X0*%
%TD*%
%TA.AperFunction,SMDPad,CuDef*%
%ADD24RoundRect,0.237500X0.237500X-0.287500X0.237500X0.287500X-0.237500X0.287500X-0.237500X-0.287500X0*%
%TD*%
%TA.AperFunction,SMDPad,CuDef*%
%ADD25RoundRect,0.160000X-0.160000X0.197500X-0.160000X-0.197500X0.160000X-0.197500X0.160000X0.197500X0*%
%TD*%
%TA.AperFunction,SMDPad,CuDef*%
%ADD26R,0.600000X1.250000*%
%TD*%
%TA.AperFunction,SMDPad,CuDef*%
%ADD27R,1.200000X3.790000*%
%TD*%
%TA.AperFunction,SMDPad,CuDef*%
%ADD28R,1.450000X1.400000*%
%TD*%
%TA.AperFunction,SMDPad,CuDef*%
%ADD29R,1.000000X0.600000*%
%TD*%
%TA.AperFunction,SMDPad,CuDef*%
%ADD30R,0.950000X0.850000*%
%TD*%
%TA.AperFunction,SMDPad,CuDef*%
%ADD31RoundRect,0.150000X0.150000X-0.512500X0.150000X0.512500X-0.150000X0.512500X-0.150000X-0.512500X0*%
%TD*%
%TA.AperFunction,SMDPad,CuDef*%
%ADD32RoundRect,0.062500X-0.375000X-0.062500X0.375000X-0.062500X0.375000X0.062500X-0.375000X0.062500X0*%
%TD*%
%TA.AperFunction,SMDPad,CuDef*%
%ADD33RoundRect,0.062500X-0.062500X-0.375000X0.062500X-0.375000X0.062500X0.375000X-0.062500X0.375000X0*%
%TD*%
%TA.AperFunction,HeatsinkPad*%
%ADD34R,5.600000X5.600000*%
%TD*%
%TA.AperFunction,SMDPad,CuDef*%
%ADD35RoundRect,0.160000X0.160000X-0.197500X0.160000X0.197500X-0.160000X0.197500X-0.160000X-0.197500X0*%
%TD*%
%TA.AperFunction,SMDPad,CuDef*%
%ADD36R,0.575000X0.350000*%
%TD*%
%TA.AperFunction,SMDPad,CuDef*%
%ADD37R,0.350000X0.575000*%
%TD*%
%TA.AperFunction,ViaPad*%
%ADD38C,0.400000*%
%TD*%
%TA.AperFunction,Conductor*%
%ADD39C,0.150000*%
%TD*%
%TA.AperFunction,Conductor*%
%ADD40C,0.250000*%
%TD*%
G04 APERTURE END LIST*
D10*
%TO.N,I2C1_SCL*%
X177000000Y-78300000D02*
X177000000Y-79100000D01*
%TD*%
D11*
%TO.P,,1*%
%TO.N,ADC1_IN2_CURR*%
X174500000Y-91300000D03*
%TD*%
D12*
%TO.P,J5,1,Pin_1*%
%TO.N,GND*%
X176000000Y-79425000D03*
%TO.P,J5,2,Pin_2*%
%TO.N,I2C1_SCL*%
X177000000Y-79425000D03*
%TO.P,J5,3,Pin_3*%
%TO.N,I2C1_SDA*%
X178000000Y-79425000D03*
%TO.P,J5,4,Pin_4*%
%TO.N,+3.3V*%
X179000000Y-79425000D03*
D13*
%TO.P,J5,MP*%
%TO.N,GND*%
X174700000Y-76900000D03*
X180300000Y-76900000D03*
%TD*%
D14*
%TO.P,R8,1*%
%TO.N,+3.3V*%
X183732500Y-74100000D03*
%TO.P,R8,2*%
%TO.N,SPI1_MISO_SD*%
X184927500Y-74100000D03*
%TD*%
D15*
%TO.P,,1,1*%
%TO.N,GND*%
X176700000Y-71600000D03*
%TD*%
D16*
%TO.P,SW1,1,1*%
%TO.N,GND*%
X175770000Y-91295000D03*
%TO.P,SW1,2,2*%
%TO.N,NRST*%
X179020000Y-91295000D03*
%TD*%
D11*
%TO.P,1,1*%
%TO.N,GND*%
X173080000Y-74720000D03*
%TD*%
D17*
%TO.P,C7,1*%
%TO.N,GND*%
X185020000Y-93557500D03*
%TO.P,C7,2*%
%TO.N,+3.3V*%
X185020000Y-92422500D03*
%TD*%
D15*
%TO.P,,1,1*%
%TO.N,GND*%
X191200000Y-95400000D03*
%TD*%
D18*
%TO.P,Y1,1,1*%
%TO.N,Net-(U1-PF0)*%
X176110000Y-85390000D03*
%TO.P,Y1,2,2*%
%TO.N,GND*%
X176110000Y-87590000D03*
%TO.P,Y1,3,3*%
%TO.N,Net-(U1-PF1)*%
X177810000Y-87590000D03*
%TO.P,Y1,4,4*%
%TO.N,GND*%
X177810000Y-85390000D03*
%TD*%
D19*
%TO.P,C2,1*%
%TO.N,GND*%
X177652500Y-89920000D03*
%TO.P,C2,2*%
%TO.N,NRST*%
X178787500Y-89920000D03*
%TD*%
D20*
%TO.P,REF\u002A\u002A2,1*%
%TO.N,TIM3_CHI_PWM4*%
X195660000Y-87340000D03*
%TD*%
D21*
%TO.P,C6,1*%
%TO.N,GND*%
X182035000Y-81870000D03*
%TO.P,C6,2*%
%TO.N,+3.3V*%
X180900000Y-81870000D03*
%TD*%
%TO.P,C12,1*%
%TO.N,Net-(U1-PF1)*%
X176507500Y-89920000D03*
%TO.P,C12,2*%
%TO.N,GND*%
X175372500Y-89920000D03*
%TD*%
D19*
%TO.P,C10,1*%
%TO.N,GND*%
X181862500Y-93140000D03*
%TO.P,C10,2*%
%TO.N,+3.3V*%
X182997500Y-93140000D03*
%TD*%
D22*
%TO.P,,1*%
%TO.N,GND*%
X172680000Y-80400000D03*
%TD*%
D11*
%TO.P,7,1*%
%TO.N,+3.3V*%
X195700000Y-80300000D03*
%TD*%
D23*
%TO.P,R2,1*%
%TO.N,USART3_RX*%
X186237500Y-81030000D03*
%TO.P,R2,2*%
%TO.N,GND*%
X185042500Y-81030000D03*
%TD*%
D11*
%TO.P,2,1*%
%TO.N,+3.3V*%
X173070000Y-76130000D03*
%TD*%
D19*
%TO.P,C1,1*%
%TO.N,+3.3V*%
X190569500Y-88132000D03*
%TO.P,C1,2*%
%TO.N,GND*%
X191704500Y-88132000D03*
%TD*%
D11*
%TO.P,8,1*%
%TO.N,+5V*%
X195700000Y-78900000D03*
%TD*%
%TO.P,4,1*%
%TO.N,I2C3_SCL_ACCEL*%
X195700000Y-84500000D03*
%TD*%
D21*
%TO.P,C16,1*%
%TO.N,+3.3V*%
X187467500Y-74010000D03*
%TO.P,C16,2*%
%TO.N,GND*%
X186332500Y-74010000D03*
%TD*%
D24*
%TO.P,D3,1,K*%
%TO.N,Net-(D3-K)*%
X189300000Y-90355000D03*
%TO.P,D3,2,A*%
%TO.N,Net-(D3-A)*%
X189300000Y-88605000D03*
%TD*%
D17*
%TO.P,C8,1*%
%TO.N,GND*%
X184040000Y-93547500D03*
%TO.P,C8,2*%
%TO.N,+3.3V*%
X184040000Y-92412500D03*
%TD*%
D25*
%TO.P,R5,1*%
%TO.N,+3.3V*%
X194100000Y-78592500D03*
%TO.P,R5,2*%
%TO.N,Net-(J2-G3)*%
X194100000Y-79787500D03*
%TD*%
D11*
%TO.P,REF\u002A\u002A,1*%
%TO.N,USART3_RX*%
X180000000Y-93000000D03*
%TD*%
D23*
%TO.P,R9,1*%
%TO.N,+3.3V*%
X192914500Y-82522000D03*
%TO.P,R9,2*%
%TO.N,I2C3_SCL_ACCEL*%
X191719500Y-82522000D03*
%TD*%
D11*
%TO.P,3,1*%
%TO.N,GPIO_EXTI1*%
X173070000Y-77580000D03*
%TD*%
D17*
%TO.P,C15,1*%
%TO.N,+3.3V*%
X194150000Y-77457500D03*
%TO.P,C15,2*%
%TO.N,GND*%
X194150000Y-76322500D03*
%TD*%
D20*
%TO.P,REF\u002A\u002A1,5v*%
%TO.N,+5V*%
X195660000Y-89740000D03*
%TD*%
D11*
%TO.P,,1*%
%TO.N,+5V*%
X173070000Y-73460000D03*
%TD*%
%TO.P,2,1*%
%TO.N,SWDIO*%
X173070000Y-92300000D03*
%TD*%
%TO.P,5,1*%
%TO.N,I2C3_SDA_ACCEL*%
X195700000Y-83100000D03*
%TD*%
%TO.P,1,1*%
%TO.N,SWCLK{slash}I2C1_SDA*%
X173070000Y-90900000D03*
%TD*%
D19*
%TO.P,C11,1*%
%TO.N,+3.3V*%
X186022500Y-93260000D03*
%TO.P,C11,2*%
%TO.N,GND*%
X187157500Y-93260000D03*
%TD*%
D26*
%TO.P,J2,1,1*%
%TO.N,unconnected-(J2-Pad1)*%
X191110000Y-76155000D03*
%TO.P,J2,2,2*%
%TO.N,SPI1_CS_SD*%
X190010000Y-76155000D03*
%TO.P,J2,3,3*%
%TO.N,SPI1_MOSI_SD*%
X188910000Y-76155000D03*
%TO.P,J2,4,4*%
%TO.N,+3.3V*%
X187810000Y-76155000D03*
%TO.P,J2,5,5*%
%TO.N,SPI1_SCK_SD*%
X186710000Y-76155000D03*
%TO.P,J2,6,6*%
%TO.N,GND*%
X185610000Y-76155000D03*
%TO.P,J2,7,7*%
%TO.N,SPI1_MISO_SD*%
X184510000Y-76155000D03*
%TO.P,J2,8,8*%
%TO.N,unconnected-(J2-Pad8)*%
X183410000Y-76155000D03*
D27*
%TO.P,J2,9,G1*%
%TO.N,GND*%
X182260000Y-78635000D03*
D28*
%TO.P,J2,10,G2*%
X192735000Y-77880000D03*
D29*
%TO.P,J2,11,G3*%
%TO.N,Net-(J2-G3)*%
X192960000Y-79130000D03*
D30*
%TO.P,J2,12,G4*%
%TO.N,GND*%
X192035000Y-80105000D03*
%TD*%
D31*
%TO.P,U2,1,I/O1*%
%TO.N,USBD-*%
X191320000Y-92230000D03*
%TO.P,U2,2,GND*%
%TO.N,GND*%
X192270000Y-92230000D03*
%TO.P,U2,3,I/O2*%
%TO.N,USBD+*%
X193220000Y-92230000D03*
%TO.P,U2,4,I/O2*%
%TO.N,D+*%
X193220000Y-89955000D03*
%TO.P,U2,5,VBUS*%
%TO.N,+5V*%
X192270000Y-89955000D03*
%TO.P,U2,6,I/O1*%
%TO.N,D-*%
X191320000Y-89955000D03*
%TD*%
D15*
%TO.P,,1,1*%
%TO.N,GND*%
X176700000Y-95400000D03*
%TD*%
D11*
%TO.P,6,1*%
%TO.N,GND*%
X195700000Y-81700000D03*
%TD*%
D15*
%TO.P,,1,1*%
%TO.N,GND*%
X191200000Y-71600000D03*
%TD*%
D20*
%TO.P,REF\u002A\u002A,1*%
%TO.N,GND*%
X195660000Y-92190000D03*
%TD*%
D16*
%TO.P,SW2,1,1*%
%TO.N,USART3_RX*%
X187200000Y-81795000D03*
%TO.P,SW2,2,2*%
%TO.N,+3.3V*%
X190450000Y-81795000D03*
%TD*%
D25*
%TO.P,R6,1*%
%TO.N,Net-(J2-G3)*%
X193960000Y-80852500D03*
%TO.P,R6,2*%
%TO.N,SDDETECT*%
X193960000Y-82047500D03*
%TD*%
D17*
%TO.P,C4,1*%
%TO.N,GND*%
X188800000Y-87137500D03*
%TO.P,C4,2*%
%TO.N,+3.3V*%
X188800000Y-86002500D03*
%TD*%
D11*
%TO.P,,1*%
%TO.N,SWO*%
X173090000Y-89490000D03*
%TD*%
D21*
%TO.P,C17,1*%
%TO.N,+3.3V*%
X193907500Y-88120000D03*
%TO.P,C17,2*%
%TO.N,GND*%
X192772500Y-88120000D03*
%TD*%
D19*
%TO.P,C9,1*%
%TO.N,GND*%
X181872500Y-92090000D03*
%TO.P,C9,2*%
%TO.N,+3.3V*%
X183007500Y-92090000D03*
%TD*%
D32*
%TO.P,U1,1,VBAT*%
%TO.N,+3.3V*%
X180422500Y-84287500D03*
%TO.P,U1,2,PC13*%
%TO.N,unconnected-(U1-PC13-Pad2)*%
X180422500Y-84787500D03*
%TO.P,U1,3,PC14*%
%TO.N,unconnected-(U1-PC14-Pad3)*%
X180422500Y-85287500D03*
%TO.P,U1,4,PC15*%
%TO.N,unconnected-(U1-PC15-Pad4)*%
X180422500Y-85787500D03*
%TO.P,U1,5,PF0*%
%TO.N,Net-(U1-PF0)*%
X180422500Y-86287500D03*
%TO.P,U1,6,PF1*%
%TO.N,Net-(U1-PF1)*%
X180422500Y-86787500D03*
%TO.P,U1,7,PG10*%
%TO.N,NRST*%
X180422500Y-87287500D03*
%TO.P,U1,8,PA0*%
%TO.N,ADC1_IN1*%
X180422500Y-87787500D03*
%TO.P,U1,9,PA1*%
%TO.N,ADC1_IN2_CURR*%
X180422500Y-88287500D03*
%TO.P,U1,10,PA2*%
%TO.N,ADC1_IN3_VBAT*%
X180422500Y-88787500D03*
%TO.P,U1,11,PA3*%
%TO.N,LPUART1_RX_RADIO*%
X180422500Y-89287500D03*
%TO.P,U1,12,PA4*%
%TO.N,ADC2_IN17*%
X180422500Y-89787500D03*
D33*
%TO.P,U1,13,PA5*%
%TO.N,SPI1_SCK_SD*%
X181110000Y-90475000D03*
%TO.P,U1,14,PA6*%
%TO.N,SPI1_MISO_SD*%
X181610000Y-90475000D03*
%TO.P,U1,15,PA7*%
%TO.N,SPI1_MOSI_SD*%
X182110000Y-90475000D03*
%TO.P,U1,16,PC4*%
%TO.N,SPI1_CS_SD*%
X182610000Y-90475000D03*
%TO.P,U1,17,PB0*%
%TO.N,unconnected-(U1-PB0-Pad17)*%
X183110000Y-90475000D03*
%TO.P,U1,18,PB1*%
%TO.N,GPIO_EXTI1*%
X183610000Y-90475000D03*
%TO.P,U1,19,PB2*%
%TO.N,SDDETECT*%
X184110000Y-90475000D03*
%TO.P,U1,20,VREF+*%
%TO.N,+3.3V*%
X184610000Y-90475000D03*
%TO.P,U1,21,VDDA*%
X185110000Y-90475000D03*
%TO.P,U1,22,PB10*%
%TO.N,USART3_TX*%
X185610000Y-90475000D03*
%TO.P,U1,23,VDD*%
%TO.N,+3.3V*%
X186110000Y-90475000D03*
%TO.P,U1,24,PB11*%
%TO.N,LPUART1_TX_RADIO*%
X186610000Y-90475000D03*
D32*
%TO.P,U1,25,PB12*%
%TO.N,unconnected-(U1-PB12-Pad25)*%
X187297500Y-89787500D03*
%TO.P,U1,26,PB13*%
%TO.N,unconnected-(U1-PB13-Pad26)*%
X187297500Y-89287500D03*
%TO.P,U1,27,PB14*%
%TO.N,Net-(D3-A)*%
X187297500Y-88787500D03*
%TO.P,U1,28,PB15*%
%TO.N,PWEN*%
X187297500Y-88287500D03*
%TO.P,U1,29,PC6*%
%TO.N,TIM3_CHI_PWM4*%
X187297500Y-87787500D03*
%TO.P,U1,30,PA8*%
%TO.N,I2C3_SCL_ACCEL*%
X187297500Y-87287500D03*
%TO.P,U1,31,PA9*%
%TO.N,unconnected-(U1-PA9-Pad31)*%
X187297500Y-86787500D03*
%TO.P,U1,32,PA10*%
%TO.N,unconnected-(U1-PA10-Pad32)*%
X187297500Y-86287500D03*
%TO.P,U1,33,PA11*%
%TO.N,D-*%
X187297500Y-85787500D03*
%TO.P,U1,34,PA12*%
%TO.N,D+*%
X187297500Y-85287500D03*
%TO.P,U1,35,VDD*%
%TO.N,+3.3V*%
X187297500Y-84787500D03*
%TO.P,U1,36,PA13*%
%TO.N,SWDIO*%
X187297500Y-84287500D03*
D33*
%TO.P,U1,37,PA14*%
%TO.N,SWCLK{slash}I2C1_SDA*%
X186610000Y-83600000D03*
%TO.P,U1,38,PA15*%
%TO.N,I2C1_SCL*%
X186110000Y-83600000D03*
%TO.P,U1,39,PC10*%
%TO.N,unconnected-(U1-PC10-Pad39)*%
X185610000Y-83600000D03*
%TO.P,U1,40,PC11*%
%TO.N,I2C3_SDA_ACCEL*%
X185110000Y-83600000D03*
%TO.P,U1,41,PB3*%
%TO.N,SWO*%
X184610000Y-83600000D03*
%TO.P,U1,42,PB4*%
%TO.N,unconnected-(U1-PB4-Pad42)*%
X184110000Y-83600000D03*
%TO.P,U1,43,PB5*%
%TO.N,unconnected-(U1-PB5-Pad43)*%
X183610000Y-83600000D03*
%TO.P,U1,44,PB6*%
%TO.N,USART1_TX_GPS*%
X183110000Y-83600000D03*
%TO.P,U1,45,PB7*%
%TO.N,USART1_RX_GPS*%
X182610000Y-83600000D03*
%TO.P,U1,46,PB8*%
%TO.N,USART3_RX*%
X182110000Y-83600000D03*
%TO.P,U1,47,PB9*%
%TO.N,I2C1_SDA*%
X181610000Y-83600000D03*
%TO.P,U1,48,VDD*%
%TO.N,+3.3V*%
X181110000Y-83600000D03*
D34*
%TO.P,U1,49,VSS*%
%TO.N,GND*%
X183860000Y-87037500D03*
%TD*%
D21*
%TO.P,C30,1*%
%TO.N,GND*%
X176647500Y-83080000D03*
%TO.P,C30,2*%
%TO.N,ADC1_IN3_VBAT*%
X175512500Y-83080000D03*
%TD*%
%TO.P,C13,1*%
%TO.N,GND*%
X178917500Y-83080000D03*
%TO.P,C13,2*%
%TO.N,Net-(U1-PF0)*%
X177782500Y-83080000D03*
%TD*%
D11*
%TO.P,3,1*%
%TO.N,NRST*%
X173080000Y-93590000D03*
%TD*%
D22*
%TO.P,REF\u002A\u002A,1*%
%TO.N,VIN*%
X172675000Y-86705000D03*
%TD*%
D35*
%TO.P,R20,1*%
%TO.N,GND*%
X188270000Y-93055000D03*
%TO.P,R20,2*%
%TO.N,Net-(D3-K)*%
X188270000Y-91860000D03*
%TD*%
D21*
%TO.P,C5,1*%
%TO.N,GND*%
X187187500Y-92250000D03*
%TO.P,C5,2*%
%TO.N,+3.3V*%
X186052500Y-92250000D03*
%TD*%
%TO.P,C14,1*%
%TO.N,SDDETECT*%
X192897500Y-81470000D03*
%TO.P,C14,2*%
%TO.N,GND*%
X191762500Y-81470000D03*
%TD*%
D25*
%TO.P,R10,1*%
%TO.N,I2C3_SDA_ACCEL*%
X188897000Y-83564500D03*
%TO.P,R10,2*%
%TO.N,+3.3V*%
X188897000Y-84759500D03*
%TD*%
D11*
%TO.P,,1*%
%TO.N,USART3_TX*%
X180020000Y-91900000D03*
%TD*%
D19*
%TO.P,C3,1*%
%TO.N,GND*%
X185072500Y-82000000D03*
%TO.P,C3,2*%
%TO.N,USART3_RX*%
X186207500Y-82000000D03*
%TD*%
D36*
%TO.P,IC1,1,SAO*%
%TO.N,unconnected-(IC1-SAO-Pad1)*%
X190774000Y-84580000D03*
%TO.P,IC1,2,RSVD_1*%
%TO.N,+3.3V*%
X190774000Y-85080000D03*
%TO.P,IC1,3,RSVD_2*%
X190774000Y-85580000D03*
%TO.P,IC1,4,INT_0*%
%TO.N,unconnected-(IC1-INT_0-Pad4)*%
X190774000Y-86080000D03*
D37*
%TO.P,IC1,5,VDD_IO*%
%TO.N,+3.3V*%
X191437000Y-86242000D03*
%TO.P,IC1,6,GND_1*%
%TO.N,GND*%
X191937000Y-86242000D03*
%TO.P,IC1,7,GND_2*%
X192437000Y-86242000D03*
D36*
%TO.P,IC1,8,VDD*%
%TO.N,+3.3V*%
X193100000Y-86080000D03*
%TO.P,IC1,9,INT_1*%
%TO.N,unconnected-(IC1-INT_1-Pad9)*%
X193100000Y-85580000D03*
%TO.P,IC1,10,RSVD_3*%
%TO.N,unconnected-(IC1-RSVD_3-Pad10)*%
X193100000Y-85080000D03*
%TO.P,IC1,11,RSVD_4*%
%TO.N,+3.3V*%
X193100000Y-84580000D03*
D37*
%TO.P,IC1,12,CS*%
X192437000Y-84418000D03*
%TO.P,IC1,13,SCL*%
%TO.N,I2C3_SCL_ACCEL*%
X191937000Y-84418000D03*
%TO.P,IC1,14,SDA*%
%TO.N,I2C3_SDA_ACCEL*%
X191437000Y-84418000D03*
%TD*%
D14*
%TO.P,R7,1*%
%TO.N,+3.3V*%
X188582500Y-74030000D03*
%TO.P,R7,2*%
%TO.N,SPI1_MOSI_SD*%
X189777500Y-74030000D03*
%TD*%
D11*
%TO.P,,1*%
%TO.N,ADC2_IN17*%
X174500000Y-93520000D03*
%TD*%
D38*
%TO.N,+3.3V*%
X190420521Y-89010521D03*
%TO.N,ADC1_IN2_CURR*%
X174500000Y-90800000D03*
%TO.N,+3.3V*%
X179000000Y-79425000D03*
%TO.N,GND*%
X176000000Y-79425000D03*
%TO.N,I2C1_SDA*%
X178000000Y-79425000D03*
X181600000Y-82800000D03*
%TO.N,GND*%
X176360000Y-93120000D03*
X184730000Y-85210000D03*
X176140000Y-82470000D03*
X194760000Y-76690000D03*
X195710000Y-81720000D03*
X192250000Y-88020000D03*
X182160000Y-85940000D03*
X188060000Y-80840000D03*
X191100000Y-73300000D03*
X174140000Y-76740000D03*
X186860000Y-77390000D03*
X182600000Y-73300000D03*
X189650000Y-79120000D03*
X190880000Y-79060000D03*
X175390000Y-93170000D03*
X194680000Y-91940000D03*
X180900000Y-73300000D03*
X185500000Y-89530000D03*
X183680000Y-78680000D03*
X178400000Y-90820000D03*
X173080000Y-74720000D03*
X186880000Y-77930000D03*
X186810000Y-92670000D03*
X182750000Y-85180000D03*
X194760000Y-85190000D03*
X186380000Y-89540000D03*
X183870000Y-86560000D03*
X185770000Y-86240000D03*
X175330000Y-93790000D03*
X182730000Y-75760000D03*
X179340000Y-84110000D03*
X191820000Y-87500000D03*
X192290000Y-91270000D03*
X177500000Y-73300000D03*
X188800000Y-87800000D03*
X174340000Y-78550000D03*
X183840000Y-85180000D03*
X176300000Y-92500000D03*
X183670000Y-77690000D03*
X187970000Y-90257500D03*
X178860000Y-92680000D03*
X187700000Y-73300000D03*
X184670000Y-89530000D03*
X184040000Y-93547500D03*
X182700000Y-93770000D03*
X194580000Y-91267500D03*
X189400000Y-73300000D03*
X174340000Y-80170000D03*
X178930000Y-93810000D03*
X189690000Y-80400000D03*
X182750000Y-86610000D03*
X179200000Y-73300000D03*
X181370000Y-87230000D03*
X192770000Y-77880000D03*
X178130000Y-84070000D03*
X181100000Y-79200000D03*
X192420000Y-91820000D03*
X189020000Y-78290000D03*
X174000000Y-90300000D03*
X183600000Y-79750000D03*
X191330000Y-77620000D03*
X185670000Y-85170000D03*
X181840000Y-86720000D03*
X194760000Y-80090000D03*
X181000000Y-93770000D03*
X177480000Y-92630000D03*
X184300000Y-73300000D03*
X177600000Y-93770000D03*
X186000000Y-73300000D03*
X188010000Y-79360000D03*
X192600000Y-87500000D03*
%TO.N,+3.3V*%
X193380000Y-84040000D03*
X190050000Y-89495521D03*
X189750000Y-81710000D03*
X193800000Y-86700000D03*
X189950000Y-84530000D03*
X187800000Y-75020000D03*
X190070000Y-85070000D03*
X193830000Y-84270000D03*
X195710000Y-80320000D03*
X173070000Y-76130000D03*
X186180000Y-91660000D03*
X188320000Y-75010000D03*
X185110000Y-91730000D03*
X181090000Y-83220000D03*
X192570000Y-76830000D03*
X183050000Y-75090000D03*
X193816587Y-87131306D03*
X187000000Y-91430000D03*
X193150000Y-82610000D03*
X185020000Y-92422500D03*
X180140000Y-83220000D03*
%TO.N,NRST*%
X173080000Y-93590000D03*
X179380000Y-90850660D03*
%TO.N,USART3_RX*%
X180000000Y-93270000D03*
%TO.N,SDDETECT*%
X193396250Y-81483750D03*
X184190000Y-91260000D03*
%TO.N,+5V*%
X189147500Y-91280000D03*
X193490000Y-93810000D03*
X181560000Y-74390000D03*
X173070000Y-73460000D03*
X181541494Y-73890340D03*
X175170000Y-73890000D03*
X175170000Y-74330000D03*
X194280000Y-88840000D03*
X194280000Y-89310000D03*
X195710000Y-78920000D03*
%TO.N,ADC1_IN3_VBAT*%
X174770000Y-83300000D03*
X179180000Y-88470000D03*
%TO.N,ADC1_IN2_CURR*%
X179541191Y-88089171D03*
%TO.N,I2C3_SDA_ACCEL*%
X185110000Y-82870000D03*
X195710000Y-83120000D03*
X189860000Y-83705000D03*
%TO.N,I2C1_SCL*%
X177000000Y-78300000D03*
%TO.N,I2C3_SCL_ACCEL*%
X188090000Y-87150000D03*
X191937000Y-83410000D03*
X195710000Y-84520000D03*
%TO.N,3.3VEN*%
X189655249Y-93721215D03*
X189160000Y-93790000D03*
X189740000Y-77920000D03*
X190530166Y-83559834D03*
X189610000Y-93200000D03*
%TO.N,SPI1_CS_SD*%
X182650000Y-91240000D03*
X190330000Y-76010000D03*
%TO.N,SPI1_MISO_SD*%
X181480000Y-91210000D03*
X184510000Y-76050000D03*
%TO.N,SPI1_SCK_SD*%
X180225170Y-90704168D03*
X187020000Y-75880000D03*
%TO.N,SPI1_MOSI_SD*%
X189220000Y-75840000D03*
X182060000Y-91220000D03*
%TO.N,USART1_RX_GPS*%
X189730000Y-83060000D03*
X183132230Y-82772331D03*
%TO.N,USART1_TX_GPS*%
X183185000Y-83269541D03*
X189760000Y-82490000D03*
%TO.N,LPUART1_RX_RADIO*%
X186065000Y-78680000D03*
X179690000Y-90100000D03*
%TO.N,LPUART1_TX_RADIO*%
X187160000Y-90760000D03*
X187976943Y-78256943D03*
%TO.N,GPIO_EXTI1*%
X173070000Y-77580000D03*
X183230000Y-91230000D03*
%TO.N,SWO*%
X183310000Y-82305000D03*
X173090000Y-89490000D03*
%TO.N,SWDIO*%
X188230000Y-83220000D03*
X173070000Y-92300000D03*
%TO.N,I2C1_SCL*%
X186100000Y-82800000D03*
%TO.N,SWCLK{slash}I2C1_SDA*%
X173070000Y-90900000D03*
X187585000Y-83220000D03*
%TO.N,TIM3_CHI_PWM4*%
X188120000Y-87730000D03*
%TO.N,USART3_TX*%
X185620000Y-91330000D03*
X180020000Y-92060000D03*
%TO.N,D+*%
X193220000Y-89955000D03*
X188120000Y-85490000D03*
%TO.N,D-*%
X190860000Y-90540000D03*
X188150000Y-86110000D03*
%TO.N,PWEN*%
X188180000Y-88240000D03*
X194690000Y-93860000D03*
%TO.N,USBD+*%
X192060000Y-93870000D03*
%TO.N,USBD-*%
X190740000Y-93860000D03*
%TO.N,ADC2_IN17*%
X180190000Y-90150000D03*
X174500000Y-93530000D03*
%TO.N,USART3_RX*%
X182345000Y-82715000D03*
%TD*%
D39*
%TO.N,I2C1_SDA*%
X181610000Y-82810000D02*
X181600000Y-82800000D01*
X181610000Y-83600000D02*
X181610000Y-82810000D01*
%TO.N,GND*%
X188800000Y-87137500D02*
X188800000Y-87800000D01*
D40*
%TO.N,+3.3V*%
X190774000Y-85080000D02*
X190774000Y-85580000D01*
X188800000Y-84856500D02*
X188897000Y-84759500D01*
X189835000Y-81795000D02*
X190450000Y-81795000D01*
X189750000Y-81710000D02*
X189835000Y-81795000D01*
X194100000Y-77507500D02*
X194150000Y-77457500D01*
X193522500Y-76830000D02*
X194150000Y-77457500D01*
X194100000Y-78592500D02*
X194100000Y-77507500D01*
X183050000Y-74782500D02*
X183732500Y-74100000D01*
D39*
X182997500Y-92100000D02*
X183007500Y-92090000D01*
D40*
X192570000Y-76830000D02*
X193522500Y-76830000D01*
X188869000Y-84787500D02*
X188897000Y-84759500D01*
X183050000Y-75090000D02*
X183050000Y-74782500D01*
D39*
%TO.N,NRST*%
X179380000Y-90935000D02*
X179020000Y-91295000D01*
X180420000Y-87290000D02*
X180422500Y-87287500D01*
X179020000Y-90152500D02*
X178787500Y-89920000D01*
X178787500Y-89920000D02*
X178787500Y-87962500D01*
X178787500Y-87962500D02*
X179460000Y-87290000D01*
X179380000Y-90850660D02*
X179380000Y-90935000D01*
X179020000Y-91295000D02*
X179020000Y-90152500D01*
X179460000Y-87290000D02*
X180420000Y-87290000D01*
%TO.N,USART3_RX*%
X185722500Y-82485000D02*
X184719014Y-82485000D01*
X183130000Y-81930000D02*
X182345000Y-82715000D01*
X186237500Y-81970000D02*
X186207500Y-82000000D01*
X186412500Y-81795000D02*
X186207500Y-82000000D01*
X184719014Y-82485000D02*
X184164014Y-81930000D01*
X182345000Y-82715000D02*
X182110000Y-82950000D01*
X187200000Y-81795000D02*
X186412500Y-81795000D01*
X182110000Y-82950000D02*
X182110000Y-83600000D01*
X186237500Y-81030000D02*
X186237500Y-81970000D01*
X184164014Y-81930000D02*
X183130000Y-81930000D01*
X186207500Y-82000000D02*
X185722500Y-82485000D01*
%TO.N,Net-(U1-PF1)*%
X176507500Y-88892500D02*
X177810000Y-87590000D01*
X176507500Y-89920000D02*
X176507500Y-88892500D01*
X180422500Y-86787500D02*
X178612500Y-86787500D01*
X178612500Y-86787500D02*
X177810000Y-87590000D01*
%TO.N,Net-(U1-PF0)*%
X177782500Y-83717500D02*
X176110000Y-85390000D01*
X176110000Y-85390000D02*
X177007500Y-86287500D01*
X177782500Y-83080000D02*
X177782500Y-83717500D01*
X177007500Y-86287500D02*
X180422500Y-86287500D01*
%TO.N,SDDETECT*%
X184190000Y-91260000D02*
X184110000Y-91180000D01*
X193396250Y-81483750D02*
X193960000Y-82047500D01*
X184110000Y-91180000D02*
X184110000Y-90475000D01*
X192897500Y-81470000D02*
X193382500Y-81470000D01*
X193382500Y-81470000D02*
X193396250Y-81483750D01*
D40*
%TO.N,+5V*%
X194280000Y-88840000D02*
X192722501Y-88840000D01*
X192270000Y-89292501D02*
X192270000Y-89955000D01*
X192722501Y-88840000D02*
X192270000Y-89292501D01*
X194280000Y-89310000D02*
X194280000Y-88840000D01*
D39*
%TO.N,ADC1_IN3_VBAT*%
X179985001Y-88787500D02*
X180422500Y-88787500D01*
X174770000Y-83300000D02*
X175292500Y-83300000D01*
X175292500Y-83300000D02*
X175512500Y-83080000D01*
X179704278Y-88537500D02*
X179735001Y-88537500D01*
X179180000Y-88470000D02*
X179636778Y-88470000D01*
X179735001Y-88537500D02*
X179985001Y-88787500D01*
X179636778Y-88470000D02*
X179704278Y-88537500D01*
%TO.N,ADC1_IN2_CURR*%
X179807832Y-88287500D02*
X180422500Y-88287500D01*
X179541191Y-88089171D02*
X179672020Y-88220000D01*
X179672020Y-88220000D02*
X179740332Y-88220000D01*
X179740332Y-88220000D02*
X179807832Y-88287500D01*
%TO.N,Net-(D3-K)*%
X189300000Y-90355000D02*
X188270000Y-91385000D01*
X188270000Y-91385000D02*
X188270000Y-91860000D01*
%TO.N,Net-(D3-A)*%
X187297500Y-88787500D02*
X189117500Y-88787500D01*
X189117500Y-88787500D02*
X189300000Y-88605000D01*
%TO.N,I2C3_SDA_ACCEL*%
X188897000Y-83564500D02*
X189719500Y-83564500D01*
X191149000Y-84130000D02*
X191437000Y-84418000D01*
X189860000Y-83705000D02*
X190145000Y-83705000D01*
X185110000Y-82870000D02*
X185110000Y-83600000D01*
X190145000Y-83705000D02*
X190570000Y-84130000D01*
X190570000Y-84130000D02*
X191149000Y-84130000D01*
X189719500Y-83564500D02*
X189860000Y-83705000D01*
%TO.N,I2C3_SCL_ACCEL*%
X191937000Y-83410000D02*
X191937000Y-84418000D01*
X191719500Y-82522000D02*
X191937000Y-82739500D01*
X187952500Y-87287500D02*
X188090000Y-87150000D01*
X187297500Y-87287500D02*
X187952500Y-87287500D01*
X191937000Y-82739500D02*
X191937000Y-83410000D01*
%TO.N,SPI1_CS_SD*%
X182610000Y-91200000D02*
X182650000Y-91240000D01*
X182610000Y-90475000D02*
X182610000Y-91200000D01*
%TO.N,SPI1_MISO_SD*%
X184927500Y-74100000D02*
X184887500Y-74100000D01*
X181610000Y-90475000D02*
X181610000Y-91080000D01*
X184510000Y-74477500D02*
X184510000Y-76050000D01*
X181610000Y-91080000D02*
X181480000Y-91210000D01*
X184510000Y-76050000D02*
X184510000Y-76155000D01*
X184887500Y-74100000D02*
X184510000Y-74477500D01*
%TO.N,Net-(J2-G3)*%
X193442500Y-79130000D02*
X194100000Y-79787500D01*
X193960000Y-80852500D02*
X193960000Y-79927500D01*
X192960000Y-79130000D02*
X193442500Y-79130000D01*
X193960000Y-79927500D02*
X194100000Y-79787500D01*
%TO.N,SPI1_SCK_SD*%
X180225170Y-90704168D02*
X180880832Y-90704168D01*
X180880832Y-90704168D02*
X181110000Y-90475000D01*
%TO.N,SPI1_MOSI_SD*%
X189220000Y-75840000D02*
X189220000Y-74587500D01*
X182110000Y-91170000D02*
X182060000Y-91220000D01*
X182110000Y-90475000D02*
X182110000Y-91170000D01*
X189220000Y-74587500D02*
X189777500Y-74030000D01*
X189220000Y-75840000D02*
X188910000Y-76150000D01*
X188910000Y-76150000D02*
X188910000Y-76155000D01*
%TO.N,USART1_RX_GPS*%
X182610000Y-83294561D02*
X182610000Y-83600000D01*
X183132230Y-82772331D02*
X182610000Y-83294561D01*
%TO.N,USART1_TX_GPS*%
X183165351Y-83269541D02*
X183110000Y-83324892D01*
X183110000Y-83324892D02*
X183110000Y-83600000D01*
X183185000Y-83269541D02*
X183165351Y-83269541D01*
%TO.N,LPUART1_RX_RADIO*%
X179690000Y-90100000D02*
X179690000Y-89744892D01*
X179690000Y-89744892D02*
X180147392Y-89287500D01*
X180147392Y-89287500D02*
X180422500Y-89287500D01*
%TO.N,LPUART1_TX_RADIO*%
X186875000Y-90475000D02*
X187160000Y-90760000D01*
X186610000Y-90475000D02*
X186875000Y-90475000D01*
%TO.N,GPIO_EXTI1*%
X183610000Y-90475000D02*
X183610000Y-90850000D01*
X183610000Y-90850000D02*
X183230000Y-91230000D01*
%TO.N,SWO*%
X184610000Y-82799669D02*
X184610000Y-83600000D01*
X183310000Y-82305000D02*
X184115331Y-82305000D01*
X184115331Y-82305000D02*
X184610000Y-82799669D01*
%TO.N,SWDIO*%
X188230000Y-83355000D02*
X187297500Y-84287500D01*
X188230000Y-83220000D02*
X188230000Y-83355000D01*
%TO.N,I2C1_SCL*%
X186100000Y-82800000D02*
X186100000Y-83590000D01*
X186100000Y-83590000D02*
X186110000Y-83600000D01*
%TO.N,SWCLK{slash}I2C1_SDA*%
X187205000Y-83600000D02*
X186610000Y-83600000D01*
X187585000Y-83220000D02*
X187205000Y-83600000D01*
%TO.N,TIM3_CHI_PWM4*%
X188062500Y-87787500D02*
X188120000Y-87730000D01*
X187297500Y-87787500D02*
X188062500Y-87787500D01*
%TO.N,USART3_TX*%
X185610000Y-91320000D02*
X185610000Y-90475000D01*
X185620000Y-91330000D02*
X185610000Y-91320000D01*
D10*
%TO.N,D+*%
X188120000Y-85490000D02*
X187937499Y-85490000D01*
X187734999Y-85287500D02*
X187297500Y-85287500D01*
X187937499Y-85490000D02*
X187734999Y-85287500D01*
%TO.N,D-*%
X190860000Y-90540000D02*
X190860000Y-90415000D01*
X187827500Y-85787500D02*
X187297500Y-85787500D01*
X188150000Y-86110000D02*
X187827500Y-85787500D01*
X190860000Y-90415000D02*
X191320000Y-89955000D01*
D39*
%TO.N,PWEN*%
X188132500Y-88287500D02*
X188180000Y-88240000D01*
X187297500Y-88287500D02*
X188132500Y-88287500D01*
D10*
%TO.N,USBD+*%
X193220000Y-92710000D02*
X193220000Y-92230000D01*
X192060000Y-93870000D02*
X193220000Y-92710000D01*
%TO.N,USBD-*%
X191320000Y-93280000D02*
X190740000Y-93860000D01*
X191320000Y-92230000D02*
X191320000Y-93280000D01*
D39*
%TO.N,ADC2_IN17*%
X180422500Y-89917500D02*
X180190000Y-90150000D01*
X180422500Y-89787500D02*
X180422500Y-89917500D01*
%TD*%
%TA.AperFunction,Conductor*%
%TO.N,+3.3V*%
G36*
X185244785Y-90009685D02*
G01*
X185290540Y-90062489D01*
X185301734Y-90112241D01*
X185316034Y-91120478D01*
X185299437Y-91184231D01*
X185293387Y-91194710D01*
X185293386Y-91194711D01*
X185293386Y-91194712D01*
X185269500Y-91283856D01*
X185269500Y-91376144D01*
X185284802Y-91433250D01*
X185293386Y-91465287D01*
X185293388Y-91465292D01*
X185305476Y-91486230D01*
X185322076Y-91546469D01*
X185337861Y-92659241D01*
X185319129Y-92726553D01*
X185266979Y-92773052D01*
X185213873Y-92785000D01*
X184824624Y-92785000D01*
X184817469Y-92784793D01*
X184816874Y-92784759D01*
X184816870Y-92784758D01*
X184816838Y-92784757D01*
X184807919Y-92784500D01*
X184807902Y-92784500D01*
X183896636Y-92784500D01*
X183855834Y-92790000D01*
X183852674Y-92790426D01*
X183834589Y-92791528D01*
X183710001Y-92790000D01*
X183710000Y-92790000D01*
X183709999Y-92790000D01*
X183709999Y-92790001D01*
X183642040Y-92947761D01*
X183639066Y-92954157D01*
X183437435Y-93357420D01*
X183434593Y-93360474D01*
X183433589Y-93364524D01*
X183410998Y-93385840D01*
X183389848Y-93408579D01*
X183384941Y-93410429D01*
X183382772Y-93412476D01*
X183367698Y-93416930D01*
X183349359Y-93423846D01*
X183344405Y-93424773D01*
X183314937Y-93427848D01*
X183264852Y-93438413D01*
X183255483Y-93441433D01*
X183247760Y-93442880D01*
X183242064Y-93442306D01*
X183224927Y-93445000D01*
X182857637Y-93445000D01*
X182825544Y-93440775D01*
X182777299Y-93427848D01*
X182746144Y-93419500D01*
X182746143Y-93419500D01*
X182738294Y-93417397D01*
X182739115Y-93414330D01*
X182688871Y-93392088D01*
X182650415Y-93333754D01*
X182645032Y-93301088D01*
X182635641Y-92981822D01*
X182637911Y-92970221D01*
X182636636Y-92962082D01*
X182646149Y-92928104D01*
X182662276Y-92891579D01*
X182664582Y-92886948D01*
X182666160Y-92883524D01*
X182666164Y-92883519D01*
X182685804Y-92840920D01*
X182699393Y-92793764D01*
X182705149Y-92773791D01*
X182705152Y-92773777D01*
X182708147Y-92752172D01*
X182711229Y-92729943D01*
X182710425Y-92570006D01*
X182710087Y-92502650D01*
X182710086Y-92502648D01*
X182709977Y-92480822D01*
X182709957Y-92478995D01*
X182709907Y-92476014D01*
X182706169Y-92453693D01*
X182707507Y-92453494D01*
X182703086Y-92423797D01*
X182688471Y-92385206D01*
X182686447Y-92374205D01*
X182686538Y-92373324D01*
X182685866Y-92370776D01*
X182685488Y-92368339D01*
X182666001Y-92324206D01*
X182655585Y-92268057D01*
X182674949Y-91873027D01*
X182697891Y-91807036D01*
X182752872Y-91763922D01*
X182782220Y-91756217D01*
X184025182Y-91588627D01*
X184073842Y-91591740D01*
X184078183Y-91592903D01*
X184143856Y-91610500D01*
X184143858Y-91610500D01*
X184236142Y-91610500D01*
X184236144Y-91610500D01*
X184325288Y-91586614D01*
X184327218Y-91585500D01*
X184347383Y-91573857D01*
X184405212Y-91540469D01*
X184408774Y-91536906D01*
X184460000Y-91530000D01*
X184459153Y-91486527D01*
X184470469Y-91475212D01*
X184516614Y-91395288D01*
X184540500Y-91306144D01*
X184540500Y-91213856D01*
X184516614Y-91124712D01*
X184516611Y-91124706D01*
X184466406Y-91037750D01*
X184469276Y-91036092D01*
X184449642Y-90985323D01*
X184449235Y-90977407D01*
X184432463Y-90116415D01*
X184450838Y-90049005D01*
X184502741Y-90002230D01*
X184556439Y-89990000D01*
X185177746Y-89990000D01*
X185244785Y-90009685D01*
G37*
%TD.AperFunction*%
%TD*%
%TA.AperFunction,Conductor*%
%TO.N,+5V*%
G36*
X193576403Y-93193591D02*
G01*
X193622783Y-93245847D01*
X193634603Y-93297392D01*
X193641978Y-93997923D01*
X193623000Y-94065166D01*
X193570681Y-94111474D01*
X193517985Y-94123228D01*
X192925985Y-94123228D01*
X192858946Y-94103543D01*
X192813191Y-94050739D01*
X192801992Y-94000547D01*
X192801441Y-93948836D01*
X192797090Y-93539853D01*
X192816060Y-93472612D01*
X192833396Y-93450864D01*
X193069035Y-93215225D01*
X193130353Y-93181743D01*
X193155223Y-93178919D01*
X193509134Y-93174706D01*
X193576403Y-93193591D01*
G37*
%TD.AperFunction*%
%TD*%
%TA.AperFunction,Conductor*%
%TO.N,+3.3V*%
G36*
X194245426Y-83789685D02*
G01*
X194291181Y-83842489D01*
X194302360Y-83896592D01*
X194221623Y-87758853D01*
X194221624Y-87758868D01*
X194224609Y-87792604D01*
X194224611Y-87792612D01*
X194235148Y-87845286D01*
X194244687Y-87875411D01*
X194245378Y-87877595D01*
X194249499Y-87886929D01*
X194259434Y-87909427D01*
X194270000Y-87959514D01*
X194270000Y-88282587D01*
X194269768Y-88284097D01*
X194269979Y-88284866D01*
X194267698Y-88297613D01*
X194264315Y-88319703D01*
X194263729Y-88321570D01*
X194256733Y-88341624D01*
X194253220Y-88355067D01*
X194252315Y-88357956D01*
X194234489Y-88384602D01*
X194217978Y-88412074D01*
X194215193Y-88413448D01*
X194213467Y-88416029D01*
X194184073Y-88428804D01*
X194155322Y-88442993D01*
X194150258Y-88443502D01*
X194149388Y-88443881D01*
X194148282Y-88443701D01*
X194137443Y-88444792D01*
X193715839Y-88456504D01*
X193648279Y-88438689D01*
X193601076Y-88387176D01*
X193588406Y-88334124D01*
X193579824Y-87656177D01*
X193575859Y-86989931D01*
X193573443Y-86963536D01*
X193570874Y-86949144D01*
X193570000Y-86880000D01*
X193529655Y-86845572D01*
X193509105Y-86817557D01*
X193497025Y-86801087D01*
X193497021Y-86801083D01*
X193466039Y-86769492D01*
X193466038Y-86769491D01*
X193466032Y-86769485D01*
X193408383Y-86725448D01*
X193370877Y-86696797D01*
X193225019Y-86585378D01*
X193219807Y-86581169D01*
X192861009Y-86274994D01*
X192860980Y-86274950D01*
X192860931Y-86274928D01*
X192841613Y-86245310D01*
X192822791Y-86216504D01*
X192822780Y-86216436D01*
X192822761Y-86216406D01*
X192822184Y-86212490D01*
X192817503Y-86181506D01*
X192817500Y-86181061D01*
X192817500Y-86045572D01*
X192816526Y-86036727D01*
X192816483Y-86030337D01*
X192824412Y-86002641D01*
X192829458Y-85974272D01*
X192833911Y-85969464D01*
X192835715Y-85963166D01*
X192857357Y-85944155D01*
X192876941Y-85923016D01*
X192883474Y-85921214D01*
X192888209Y-85917056D01*
X192911039Y-85913616D01*
X192940480Y-85905500D01*
X193402320Y-85905500D01*
X193417991Y-85902382D01*
X193442182Y-85900000D01*
X193580000Y-85900000D01*
X193550000Y-84750000D01*
X193549999Y-84750000D01*
X193549998Y-84749999D01*
X193217814Y-84754489D01*
X193216138Y-84754500D01*
X192805141Y-84754500D01*
X192773585Y-84750417D01*
X192715990Y-84735260D01*
X192620001Y-84710000D01*
X192620000Y-84710000D01*
X192386500Y-84710000D01*
X192319461Y-84690315D01*
X192273706Y-84637511D01*
X192262500Y-84586000D01*
X192262500Y-84206179D01*
X192282185Y-84139140D01*
X192334989Y-84093385D01*
X192344385Y-84089551D01*
X193209599Y-83777360D01*
X193251685Y-83770000D01*
X194178387Y-83770000D01*
X194245426Y-83789685D01*
G37*
%TD.AperFunction*%
%TD*%
%TA.AperFunction,Conductor*%
%TO.N,+3.3V*%
G36*
X186277539Y-90007685D02*
G01*
X186323294Y-90060489D01*
X186334500Y-90112000D01*
X186334500Y-90870984D01*
X186346857Y-90933109D01*
X186393935Y-91003565D01*
X186402571Y-91012201D01*
X186399972Y-91014799D01*
X186431147Y-91052091D01*
X186441415Y-91099163D01*
X186441435Y-91099183D01*
X186441873Y-91099183D01*
X187057629Y-91099769D01*
X187068665Y-91100273D01*
X187079273Y-91101233D01*
X187113856Y-91110500D01*
X187181606Y-91110500D01*
X187187183Y-91111005D01*
X187214685Y-91121859D01*
X187243039Y-91130185D01*
X187246811Y-91134538D01*
X187252174Y-91136655D01*
X187269441Y-91160655D01*
X187288794Y-91182989D01*
X187290217Y-91189530D01*
X187292980Y-91193371D01*
X187293593Y-91205052D01*
X187300000Y-91234500D01*
X187300000Y-91458638D01*
X187280315Y-91525677D01*
X187227511Y-91571432D01*
X187189738Y-91581874D01*
X187171746Y-91583880D01*
X187171744Y-91583880D01*
X187171739Y-91583881D01*
X187106461Y-91600450D01*
X187106448Y-91600454D01*
X187092658Y-91606060D01*
X187078060Y-91610962D01*
X187041445Y-91620774D01*
X187009348Y-91625000D01*
X186990656Y-91625000D01*
X186958559Y-91620774D01*
X186939334Y-91615622D01*
X186918479Y-91607973D01*
X186894150Y-91596483D01*
X186894123Y-91596472D01*
X186856040Y-91582188D01*
X186787218Y-91572936D01*
X186787207Y-91572935D01*
X186717638Y-91579324D01*
X186710289Y-91580176D01*
X186636175Y-91611594D01*
X186581096Y-91654584D01*
X186575381Y-91659269D01*
X186574952Y-91659739D01*
X186574407Y-91660067D01*
X186568523Y-91664892D01*
X186567829Y-91664045D01*
X186515161Y-91695889D01*
X186483498Y-91700000D01*
X186448961Y-91700000D01*
X186465090Y-92478207D01*
X186464954Y-92487127D01*
X186416857Y-93425017D01*
X186411463Y-93440419D01*
X186411032Y-93456733D01*
X186400154Y-93472714D01*
X186393765Y-93490960D01*
X186380512Y-93501571D01*
X186371718Y-93514492D01*
X186348787Y-93526973D01*
X186341533Y-93532782D01*
X186336216Y-93535042D01*
X186329976Y-93537035D01*
X186289800Y-93554774D01*
X186288997Y-93555116D01*
X186285275Y-93555551D01*
X186240484Y-93565000D01*
X185804513Y-93565000D01*
X185754421Y-93554431D01*
X185750885Y-93552870D01*
X185744957Y-93550252D01*
X185707369Y-93524502D01*
X185700497Y-93517630D01*
X185674742Y-93480032D01*
X185670564Y-93470569D01*
X185660000Y-93420486D01*
X185660000Y-93064008D01*
X185659999Y-93063991D01*
X185656446Y-93030945D01*
X185645240Y-92979434D01*
X185610813Y-92910658D01*
X185610811Y-92910656D01*
X185606504Y-92904210D01*
X185609095Y-92902478D01*
X185586062Y-92852010D01*
X185584806Y-92833679D01*
X185589741Y-91975017D01*
X185609811Y-91908092D01*
X185619073Y-91895640D01*
X185920000Y-91540000D01*
X185919999Y-91539996D01*
X185926075Y-91523086D01*
X185936680Y-91482493D01*
X185946614Y-91465288D01*
X185970500Y-91376144D01*
X185970500Y-91283856D01*
X185946614Y-91194712D01*
X185945840Y-91193371D01*
X185931197Y-91168008D01*
X185914594Y-91107558D01*
X185914489Y-91099183D01*
X185902169Y-90113548D01*
X185904820Y-90104084D01*
X185903421Y-90094353D01*
X185914089Y-90070993D01*
X185921014Y-90046270D01*
X185928361Y-90039740D01*
X185932446Y-90030797D01*
X185954048Y-90016913D01*
X185973242Y-89999858D01*
X185984521Y-89997330D01*
X185991224Y-89993023D01*
X186026159Y-89988000D01*
X186210500Y-89988000D01*
X186277539Y-90007685D01*
G37*
%TD.AperFunction*%
%TD*%
%TA.AperFunction,Conductor*%
%TO.N,USBD-*%
G36*
X191083106Y-93220363D02*
G01*
X191129486Y-93272619D01*
X191141306Y-93324164D01*
X191147570Y-93919195D01*
X191128592Y-93986438D01*
X191076273Y-94032746D01*
X191023577Y-94044500D01*
X190841655Y-94044500D01*
X190821363Y-94045830D01*
X190814677Y-94046710D01*
X190789271Y-94050053D01*
X190776380Y-94052618D01*
X190752190Y-94055000D01*
X190727808Y-94055000D01*
X190703622Y-94052618D01*
X190690739Y-94050056D01*
X190690718Y-94050052D01*
X190672012Y-94047590D01*
X190658638Y-94045830D01*
X190638345Y-94044500D01*
X190431566Y-94044500D01*
X190364527Y-94024815D01*
X190318772Y-93972011D01*
X190307573Y-93921819D01*
X190301317Y-93333835D01*
X190320287Y-93266590D01*
X190372601Y-93220276D01*
X190423830Y-93208525D01*
X191015837Y-93201478D01*
X191083106Y-93220363D01*
G37*
%TD.AperFunction*%
%TD*%
%TA.AperFunction,Conductor*%
%TO.N,+3.3V*%
G36*
X188834597Y-73699322D02*
G01*
X188901529Y-73719368D01*
X188946998Y-73772419D01*
X188957910Y-73825387D01*
X188950431Y-74274099D01*
X188939233Y-74323563D01*
X188420000Y-75459997D01*
X188392582Y-76748638D01*
X188371476Y-76815243D01*
X188317710Y-76859865D01*
X188268610Y-76870000D01*
X187504644Y-76870000D01*
X187437605Y-76850315D01*
X187391850Y-76797511D01*
X187380646Y-76745358D01*
X187390000Y-74940002D01*
X187389999Y-74940001D01*
X187390000Y-74940000D01*
X187102952Y-74337199D01*
X187090971Y-74279889D01*
X187091158Y-74274099D01*
X187106108Y-73810648D01*
X187127943Y-73744282D01*
X187182195Y-73700254D01*
X187230710Y-73690652D01*
X188834597Y-73699322D01*
G37*
%TD.AperFunction*%
%TD*%
%TA.AperFunction,Conductor*%
%TO.N,+3.3V*%
G36*
X179403384Y-78619685D02*
G01*
X179437103Y-78651725D01*
X180516681Y-80156753D01*
X181406758Y-81397598D01*
X181429838Y-81463545D01*
X181430000Y-81469873D01*
X181430000Y-82220000D01*
X181481354Y-82248011D01*
X181530782Y-82297394D01*
X181545665Y-82365660D01*
X181521278Y-82431135D01*
X181469433Y-82471430D01*
X181464708Y-82473387D01*
X181384794Y-82519526D01*
X181384785Y-82519533D01*
X181319533Y-82584785D01*
X181319526Y-82584794D01*
X181273388Y-82664706D01*
X181273387Y-82664709D01*
X181249500Y-82753856D01*
X181249500Y-82846143D01*
X181273387Y-82935290D01*
X181273388Y-82935293D01*
X181319526Y-83015205D01*
X181324478Y-83021658D01*
X181322780Y-83022960D01*
X181350855Y-83074374D01*
X181346916Y-83129450D01*
X181349240Y-83129913D01*
X181334500Y-83204015D01*
X181334500Y-83910280D01*
X181314815Y-83977319D01*
X181262011Y-84023074D01*
X181212931Y-84034256D01*
X180920000Y-84039999D01*
X180920000Y-84040000D01*
X180899759Y-84269396D01*
X180874258Y-84334446D01*
X180817637Y-84375382D01*
X180778994Y-84382466D01*
X180121576Y-84397076D01*
X180054116Y-84378886D01*
X180007199Y-84327112D01*
X179994907Y-84268483D01*
X180040000Y-83060000D01*
X180050000Y-81900000D01*
X178726894Y-80233866D01*
X178700619Y-80169126D01*
X178700000Y-80156753D01*
X178700000Y-78724000D01*
X178719685Y-78656961D01*
X178772489Y-78611206D01*
X178824000Y-78600000D01*
X179336345Y-78600000D01*
X179403384Y-78619685D01*
G37*
%TD.AperFunction*%
%TD*%
%TA.AperFunction,Conductor*%
%TO.N,GND*%
G36*
X192603960Y-85940571D02*
G01*
X192650257Y-85992900D01*
X192662000Y-86045572D01*
X192662000Y-86269820D01*
X192662000Y-86269822D01*
X192661999Y-86269822D01*
X192670731Y-86313718D01*
X192670734Y-86313724D01*
X192679681Y-86327115D01*
X192691925Y-86364529D01*
X192699998Y-86379999D01*
X193371637Y-86893056D01*
X193412962Y-86949394D01*
X193420362Y-86990857D01*
X193425136Y-87792945D01*
X193414573Y-87843768D01*
X193392463Y-87893842D01*
X193392463Y-87893844D01*
X193389500Y-87919380D01*
X193389500Y-88320619D01*
X193392463Y-88346155D01*
X193392463Y-88346157D01*
X193412005Y-88390415D01*
X193421076Y-88459693D01*
X193391252Y-88522878D01*
X193332002Y-88559908D01*
X193298570Y-88564500D01*
X192667699Y-88564500D01*
X192596100Y-88594158D01*
X192596099Y-88594157D01*
X192566442Y-88606442D01*
X192556287Y-88613228D01*
X192553934Y-88609707D01*
X192512911Y-88632073D01*
X192489908Y-88634847D01*
X191287276Y-88666635D01*
X191219740Y-88648728D01*
X191172606Y-88597152D01*
X191160000Y-88542678D01*
X191160000Y-87547740D01*
X191179685Y-87480701D01*
X191181000Y-87478697D01*
X191690000Y-86720000D01*
X191690187Y-86715069D01*
X191712398Y-86648828D01*
X191716713Y-86643676D01*
X191720501Y-86638005D01*
X191720504Y-86638004D01*
X191753767Y-86588222D01*
X191760759Y-86553072D01*
X191762500Y-86544322D01*
X191762500Y-86052289D01*
X191782185Y-85985250D01*
X191834989Y-85939495D01*
X191885218Y-85928296D01*
X192536725Y-85921580D01*
X192603960Y-85940571D01*
G37*
%TD.AperFunction*%
%TD*%
%TA.AperFunction,Conductor*%
%TO.N,GND*%
G36*
X176828272Y-86608487D02*
G01*
X176895060Y-86629002D01*
X176940156Y-86682371D01*
X176950728Y-86731735D01*
X176958743Y-88070244D01*
X176939460Y-88137400D01*
X176922426Y-88158667D01*
X176379765Y-88701329D01*
X176316330Y-88764763D01*
X176316330Y-88764765D01*
X176281999Y-88847644D01*
X176281999Y-88951788D01*
X176282000Y-88951797D01*
X176282000Y-89135565D01*
X176262315Y-89202604D01*
X176256928Y-89210327D01*
X176104384Y-89412179D01*
X175970000Y-89590000D01*
X175970000Y-90230000D01*
X176086106Y-90298149D01*
X176119360Y-90331403D01*
X176213814Y-90373108D01*
X176430000Y-90500000D01*
X177190000Y-90480000D01*
X177182150Y-90056110D01*
X177172339Y-89526296D01*
X177190779Y-89458903D01*
X177242727Y-89412179D01*
X177296318Y-89400000D01*
X178177746Y-89400000D01*
X178185582Y-89402301D01*
X178193651Y-89401024D01*
X178218621Y-89412002D01*
X178244785Y-89419685D01*
X178250132Y-89425856D01*
X178257612Y-89429145D01*
X178272683Y-89451881D01*
X178290540Y-89472489D01*
X178292696Y-89482071D01*
X178296216Y-89487382D01*
X178301734Y-89522242D01*
X178302797Y-89597200D01*
X178292244Y-89649043D01*
X178272463Y-89693842D01*
X178272463Y-89693844D01*
X178269500Y-89719380D01*
X178269500Y-90120619D01*
X178272463Y-90146155D01*
X178301653Y-90212265D01*
X178312206Y-90260592D01*
X178321142Y-90890500D01*
X178340000Y-92220000D01*
X178340001Y-92220000D01*
X179245500Y-92220000D01*
X179254185Y-92222550D01*
X179263147Y-92221262D01*
X179287187Y-92232240D01*
X179312539Y-92239685D01*
X179318466Y-92246525D01*
X179326703Y-92250287D01*
X179340992Y-92272521D01*
X179358294Y-92292489D01*
X179360581Y-92303003D01*
X179364477Y-92309065D01*
X179369500Y-92344000D01*
X179369500Y-92389411D01*
X179360062Y-92436862D01*
X179358232Y-92441279D01*
X179349500Y-92485177D01*
X179349500Y-92485180D01*
X179349500Y-93514820D01*
X179349500Y-93514822D01*
X179349499Y-93514822D01*
X179358231Y-93558717D01*
X179358234Y-93558724D01*
X179384167Y-93597536D01*
X179391496Y-93608504D01*
X179441278Y-93641767D01*
X179441281Y-93641767D01*
X179441282Y-93641768D01*
X179485177Y-93650500D01*
X179485180Y-93650500D01*
X180514822Y-93650500D01*
X180558717Y-93641768D01*
X180558717Y-93641767D01*
X180558722Y-93641767D01*
X180608504Y-93608504D01*
X180641767Y-93558722D01*
X180650500Y-93514820D01*
X180650500Y-92510587D01*
X180651384Y-92495806D01*
X180654537Y-92469541D01*
X180661767Y-92458722D01*
X180670500Y-92414820D01*
X180670500Y-92336582D01*
X180671384Y-92329219D01*
X180682348Y-92303650D01*
X180690185Y-92276961D01*
X180695925Y-92271986D01*
X180698920Y-92265004D01*
X180721967Y-92249421D01*
X180742989Y-92231206D01*
X180751717Y-92229307D01*
X180756801Y-92225870D01*
X180768803Y-92225590D01*
X180794500Y-92220000D01*
X181170000Y-92220000D01*
X181571377Y-91608811D01*
X181624631Y-91563581D01*
X181680295Y-91552991D01*
X181999147Y-91566558D01*
X182013856Y-91570500D01*
X182091764Y-91570500D01*
X182430641Y-91584920D01*
X182496781Y-91607437D01*
X182540249Y-91662138D01*
X182547244Y-91731657D01*
X182538802Y-91758893D01*
X182492463Y-91863841D01*
X182492463Y-91863843D01*
X182489500Y-91889380D01*
X182489500Y-92290619D01*
X182492463Y-92316156D01*
X182492463Y-92316158D01*
X182543238Y-92431150D01*
X182540085Y-92432542D01*
X182549281Y-92446694D01*
X182553702Y-92476391D01*
X182554429Y-92478622D01*
X182554479Y-92481603D01*
X182555731Y-92730724D01*
X182536384Y-92797861D01*
X182534033Y-92801423D01*
X182528598Y-92809356D01*
X182482463Y-92913844D01*
X182479500Y-92939380D01*
X182479500Y-93340619D01*
X182482463Y-93366156D01*
X182482463Y-93366158D01*
X182528597Y-93470640D01*
X182535091Y-93480120D01*
X182532463Y-93481920D01*
X182557030Y-93526911D01*
X182559862Y-93552645D01*
X182560000Y-93580000D01*
X182647968Y-93580000D01*
X182698053Y-93590565D01*
X182710115Y-93595890D01*
X182713844Y-93597537D01*
X182739384Y-93600500D01*
X182739386Y-93600500D01*
X183255614Y-93600500D01*
X183255616Y-93600500D01*
X183281156Y-93597537D01*
X183290568Y-93593381D01*
X183296947Y-93590565D01*
X183347032Y-93580000D01*
X183499999Y-93580000D01*
X183500000Y-93580000D01*
X183526545Y-93526911D01*
X183535234Y-93509533D01*
X183558307Y-93463387D01*
X183666930Y-93246141D01*
X183785727Y-93008546D01*
X183833314Y-92957387D01*
X183896636Y-92940000D01*
X184807902Y-92940000D01*
X184815792Y-92940456D01*
X184815802Y-92940293D01*
X184819382Y-92940499D01*
X184819384Y-92940500D01*
X184819386Y-92940500D01*
X185220614Y-92940500D01*
X185220616Y-92940500D01*
X185220617Y-92940499D01*
X185224198Y-92940293D01*
X185224207Y-92940456D01*
X185232098Y-92940000D01*
X185380500Y-92940000D01*
X185447539Y-92959685D01*
X185493294Y-93012489D01*
X185504500Y-93064000D01*
X185504500Y-93460619D01*
X185507463Y-93486156D01*
X185507463Y-93486158D01*
X185546596Y-93574785D01*
X185553597Y-93590640D01*
X185634360Y-93671403D01*
X185738844Y-93717537D01*
X185764384Y-93720500D01*
X185764386Y-93720500D01*
X186280614Y-93720500D01*
X186280616Y-93720500D01*
X186306156Y-93717537D01*
X186392787Y-93679285D01*
X186444231Y-93668727D01*
X186560000Y-93670000D01*
X186653686Y-91843104D01*
X186676778Y-91777164D01*
X186731856Y-91734174D01*
X186801433Y-91727785D01*
X186839525Y-91742072D01*
X186864709Y-91756613D01*
X186864711Y-91756613D01*
X186864712Y-91756614D01*
X186953856Y-91780500D01*
X186953858Y-91780500D01*
X187046142Y-91780500D01*
X187046144Y-91780500D01*
X187135288Y-91756614D01*
X187144711Y-91751173D01*
X187210002Y-91734601D01*
X187673685Y-91746911D01*
X187678500Y-91748465D01*
X187683483Y-91747560D01*
X187711415Y-91759086D01*
X187740175Y-91768367D01*
X187743388Y-91772281D01*
X187748070Y-91774213D01*
X187765336Y-91799011D01*
X187784513Y-91822367D01*
X187785886Y-91828526D01*
X187787994Y-91831553D01*
X187794306Y-91866278D01*
X187799415Y-92004226D01*
X187799500Y-92008814D01*
X187799500Y-92103858D01*
X187803586Y-92139080D01*
X187803083Y-92139138D01*
X187804838Y-92150655D01*
X187810000Y-92290000D01*
X187852069Y-92290000D01*
X187919108Y-92309685D01*
X187922146Y-92311700D01*
X187931481Y-92318094D01*
X187931486Y-92318099D01*
X188037680Y-92364988D01*
X188063643Y-92368000D01*
X188476356Y-92367999D01*
X188484726Y-92367028D01*
X188502314Y-92364989D01*
X188502315Y-92364988D01*
X188502320Y-92364988D01*
X188608514Y-92318099D01*
X188608521Y-92318091D01*
X188617854Y-92311700D01*
X188684286Y-92290054D01*
X188687931Y-92290000D01*
X188779999Y-92290000D01*
X188780000Y-92290000D01*
X190589797Y-90878168D01*
X190654761Y-90852454D01*
X190716723Y-90864647D01*
X190717198Y-90863502D01*
X190722897Y-90865862D01*
X190723316Y-90865945D01*
X190723992Y-90866316D01*
X190724707Y-90866611D01*
X190724712Y-90866614D01*
X190813856Y-90890500D01*
X190813858Y-90890500D01*
X190906142Y-90890500D01*
X190906144Y-90890500D01*
X190995288Y-90866614D01*
X190995292Y-90866612D01*
X191019813Y-90852454D01*
X191075212Y-90820469D01*
X191075216Y-90820464D01*
X191076611Y-90819395D01*
X191078004Y-90818856D01*
X191082250Y-90816405D01*
X191082632Y-90817066D01*
X191141779Y-90794197D01*
X191150398Y-90793778D01*
X193057360Y-90768008D01*
X193058680Y-90767999D01*
X193414864Y-90767999D01*
X193439991Y-90765085D01*
X193439991Y-90765084D01*
X193449260Y-90764010D01*
X193449331Y-90764625D01*
X193464390Y-90762508D01*
X194314611Y-90751018D01*
X194300418Y-91430000D01*
X193488990Y-91430000D01*
X193449200Y-91421606D01*
X193448994Y-91422364D01*
X193439994Y-91419915D01*
X193414865Y-91417000D01*
X193025143Y-91417000D01*
X193025117Y-91417002D01*
X193000012Y-91419913D01*
X192991011Y-91422363D01*
X192990804Y-91421605D01*
X192951012Y-91430000D01*
X192650000Y-91430000D01*
X192613326Y-92759419D01*
X192591800Y-92825891D01*
X192537754Y-92870172D01*
X192489373Y-92880000D01*
X192095710Y-92880000D01*
X192028671Y-92860315D01*
X191982916Y-92807511D01*
X191971722Y-92754302D01*
X191990000Y-91420000D01*
X191989999Y-91419999D01*
X191612200Y-91437571D01*
X191556354Y-91427140D01*
X191539991Y-91419915D01*
X191514865Y-91417000D01*
X191125143Y-91417000D01*
X191125117Y-91417002D01*
X191100012Y-91419913D01*
X191100010Y-91419914D01*
X191016192Y-91456923D01*
X190971868Y-91467354D01*
X190700000Y-91479999D01*
X189852626Y-92812285D01*
X189800038Y-92858288D01*
X189730927Y-92868557D01*
X189715904Y-92865512D01*
X189656145Y-92849500D01*
X189656144Y-92849500D01*
X189563856Y-92849500D01*
X189474712Y-92873386D01*
X189474711Y-92873386D01*
X189474709Y-92873387D01*
X189474706Y-92873388D01*
X189394794Y-92919526D01*
X189394785Y-92919533D01*
X189329533Y-92984785D01*
X189329526Y-92984794D01*
X189283388Y-93064706D01*
X189283387Y-93064709D01*
X189283386Y-93064711D01*
X189283386Y-93064712D01*
X189259500Y-93153856D01*
X189259500Y-93246144D01*
X189269484Y-93283408D01*
X189267822Y-93353256D01*
X189228660Y-93411119D01*
X189164431Y-93438623D01*
X189149710Y-93439500D01*
X189113856Y-93439500D01*
X189024712Y-93463386D01*
X189024711Y-93463386D01*
X189024709Y-93463387D01*
X189024706Y-93463388D01*
X188944794Y-93509526D01*
X188944785Y-93509533D01*
X188879533Y-93574785D01*
X188879526Y-93574794D01*
X188833388Y-93654706D01*
X188833387Y-93654709D01*
X188833386Y-93654711D01*
X188833386Y-93654712D01*
X188815758Y-93720500D01*
X188809500Y-93743856D01*
X188809500Y-93836143D01*
X188833386Y-93925290D01*
X188848895Y-93952150D01*
X188865369Y-94020050D01*
X188842517Y-94086078D01*
X188787597Y-94129269D01*
X188741282Y-94138152D01*
X178032013Y-94118575D01*
X178032013Y-94118574D01*
X178020078Y-94118553D01*
X178019991Y-94118518D01*
X177999893Y-94118518D01*
X177999888Y-94118518D01*
X177996305Y-94118511D01*
X177980193Y-94118482D01*
X177980192Y-94118482D01*
X177980184Y-94118482D01*
X177980013Y-94118516D01*
X177979871Y-94118575D01*
X177961517Y-94126177D01*
X177954014Y-94129269D01*
X177943221Y-94133716D01*
X177943077Y-94133812D01*
X177929219Y-94147669D01*
X177929064Y-94147824D01*
X177914902Y-94161933D01*
X177914802Y-94162081D01*
X177907202Y-94180428D01*
X177907159Y-94180531D01*
X177899537Y-94198843D01*
X177899536Y-94198938D01*
X177899500Y-94199027D01*
X177899500Y-94199185D01*
X177899500Y-94200000D01*
X175500494Y-94200000D01*
X175500502Y-94195519D01*
X175500467Y-94195434D01*
X175500467Y-94195342D01*
X175492897Y-94177068D01*
X175485267Y-94158555D01*
X175485201Y-94158488D01*
X175485166Y-94158404D01*
X175471030Y-94144268D01*
X175457046Y-94130234D01*
X175456960Y-94130198D01*
X175456895Y-94130133D01*
X175438852Y-94122659D01*
X175438678Y-94122519D01*
X175438654Y-94122577D01*
X175420133Y-94114868D01*
X175419967Y-94114834D01*
X175419957Y-94114834D01*
X175400187Y-94114834D01*
X175399879Y-94114833D01*
X175274281Y-94114612D01*
X175207277Y-94094809D01*
X175161615Y-94041924D01*
X175150500Y-93990612D01*
X175150500Y-93005177D01*
X175141768Y-92961282D01*
X175141767Y-92961281D01*
X175141767Y-92961278D01*
X175108504Y-92911496D01*
X175108503Y-92911495D01*
X175058724Y-92878234D01*
X175058717Y-92878231D01*
X175014822Y-92869500D01*
X175014820Y-92869500D01*
X173985180Y-92869500D01*
X173985178Y-92869500D01*
X173941282Y-92878231D01*
X173941276Y-92878233D01*
X173913389Y-92896867D01*
X173846711Y-92917744D01*
X173779332Y-92899258D01*
X173732642Y-92847279D01*
X173720500Y-92793764D01*
X173720500Y-92026235D01*
X173740185Y-91959196D01*
X173792989Y-91913441D01*
X173862147Y-91903497D01*
X173913388Y-91923132D01*
X173941275Y-91941765D01*
X173941278Y-91941767D01*
X173941282Y-91941768D01*
X173985177Y-91950500D01*
X173985180Y-91950500D01*
X175014822Y-91950500D01*
X175058717Y-91941768D01*
X175058717Y-91941767D01*
X175058722Y-91941767D01*
X175108504Y-91908504D01*
X175141767Y-91858722D01*
X175145770Y-91838597D01*
X175150500Y-91814822D01*
X175150500Y-90785177D01*
X175141768Y-90741282D01*
X175141767Y-90741281D01*
X175141767Y-90741278D01*
X175108504Y-90691496D01*
X175108503Y-90691495D01*
X175058724Y-90658234D01*
X175058717Y-90658231D01*
X175014822Y-90649500D01*
X175014820Y-90649500D01*
X174889422Y-90649500D01*
X174822383Y-90629815D01*
X174785521Y-90591157D01*
X174785417Y-90591237D01*
X174784673Y-90590267D01*
X174782036Y-90587502D01*
X174781252Y-90586144D01*
X174780469Y-90584788D01*
X174715212Y-90519531D01*
X174715209Y-90519529D01*
X174715205Y-90519526D01*
X174635293Y-90473388D01*
X174635290Y-90473387D01*
X174635289Y-90473386D01*
X174635288Y-90473386D01*
X174546144Y-90449500D01*
X174453856Y-90449500D01*
X174364712Y-90473386D01*
X174364711Y-90473386D01*
X174364709Y-90473387D01*
X174364706Y-90473388D01*
X174284794Y-90519526D01*
X174284785Y-90519533D01*
X174219533Y-90584785D01*
X174219529Y-90584791D01*
X174217964Y-90587502D01*
X174216045Y-90589331D01*
X174214583Y-90591237D01*
X174214285Y-90591008D01*
X174167396Y-90635717D01*
X174110578Y-90649500D01*
X173985178Y-90649500D01*
X173941282Y-90658231D01*
X173941276Y-90658233D01*
X173913389Y-90676867D01*
X173846711Y-90697744D01*
X173779332Y-90679258D01*
X173732642Y-90627279D01*
X173720500Y-90573764D01*
X173720500Y-90385180D01*
X173719563Y-90380469D01*
X173711767Y-90341278D01*
X173711765Y-90341275D01*
X173710815Y-90336498D01*
X173710344Y-90335754D01*
X173709627Y-90330524D01*
X173709384Y-90329302D01*
X173709457Y-90329287D01*
X173705551Y-90300792D01*
X173706716Y-90123016D01*
X173726839Y-90056110D01*
X173727509Y-90055093D01*
X173731767Y-90048722D01*
X173740500Y-90004820D01*
X173740500Y-88975180D01*
X173735603Y-88950563D01*
X173741829Y-88880976D01*
X173742633Y-88878983D01*
X173750500Y-88859991D01*
X173750500Y-88710009D01*
X173750500Y-87893280D01*
X173770185Y-87826241D01*
X173786819Y-87805599D01*
X173809666Y-87782751D01*
X173809667Y-87782750D01*
X173830500Y-87705000D01*
X173830500Y-86696797D01*
X173850185Y-86629758D01*
X173902989Y-86584003D01*
X173956035Y-86572807D01*
X176828272Y-86608487D01*
G37*
%TD.AperFunction*%
%TD*%
%TA.AperFunction,Conductor*%
%TO.N,USBD+*%
G36*
X192396403Y-93210363D02*
G01*
X192442783Y-93262619D01*
X192454603Y-93314164D01*
X192461051Y-93926770D01*
X192442073Y-93994013D01*
X192389754Y-94040321D01*
X192320704Y-94050992D01*
X192319413Y-94050813D01*
X192275503Y-94044500D01*
X192275500Y-94044500D01*
X192198977Y-94044500D01*
X192178681Y-94045830D01*
X192178677Y-94045830D01*
X192178670Y-94045831D01*
X192146587Y-94050055D01*
X192146576Y-94050057D01*
X192126660Y-94054018D01*
X192126636Y-94054023D01*
X192101439Y-94060775D01*
X192069346Y-94065000D01*
X192050653Y-94065000D01*
X192018561Y-94060775D01*
X191993355Y-94054021D01*
X191993351Y-94054020D01*
X191973412Y-94050055D01*
X191941330Y-94045831D01*
X191941323Y-94045830D01*
X191941319Y-94045830D01*
X191921023Y-94044500D01*
X191744969Y-94044500D01*
X191677930Y-94024815D01*
X191632175Y-93972011D01*
X191620976Y-93921819D01*
X191614614Y-93323835D01*
X191633584Y-93256590D01*
X191685898Y-93210276D01*
X191737127Y-93198525D01*
X192329134Y-93191478D01*
X192396403Y-93210363D01*
G37*
%TD.AperFunction*%
%TD*%
%TA.AperFunction,Conductor*%
%TO.N,+3.3V*%
G36*
X190070130Y-84419685D02*
G01*
X190097106Y-84443147D01*
X190306015Y-84686065D01*
X190334803Y-84749726D01*
X190336000Y-84766916D01*
X190336000Y-84769820D01*
X190336000Y-84769822D01*
X190335999Y-84769822D01*
X190344731Y-84813717D01*
X190344732Y-84813721D01*
X190344733Y-84813722D01*
X190377996Y-84863504D01*
X190427778Y-84896767D01*
X190427781Y-84896767D01*
X190427782Y-84896768D01*
X190471677Y-84905500D01*
X190956000Y-84905500D01*
X191023039Y-84925185D01*
X191068794Y-84977989D01*
X191080000Y-85029500D01*
X191080000Y-85630500D01*
X191060315Y-85697539D01*
X191007511Y-85743294D01*
X190956000Y-85754500D01*
X190471678Y-85754500D01*
X190446797Y-85759449D01*
X190446795Y-85759449D01*
X190427778Y-85763233D01*
X190417650Y-85770000D01*
X190360000Y-85770000D01*
X190360000Y-85823429D01*
X190344733Y-85846278D01*
X190342827Y-85855858D01*
X190342826Y-85855860D01*
X190336000Y-85890177D01*
X190336000Y-86269820D01*
X190341569Y-86297819D01*
X190344733Y-86313722D01*
X190360000Y-86336570D01*
X190360000Y-86390000D01*
X190417650Y-86390000D01*
X190427778Y-86396767D01*
X190446798Y-86400550D01*
X190446799Y-86400551D01*
X190471677Y-86405500D01*
X190471680Y-86405500D01*
X191076322Y-86405500D01*
X191112943Y-86398215D01*
X191112943Y-86398214D01*
X191120222Y-86396767D01*
X191130350Y-86390000D01*
X191140000Y-86390000D01*
X191147349Y-86378641D01*
X191170004Y-86363504D01*
X191203267Y-86313722D01*
X191204815Y-86305939D01*
X191222322Y-86262773D01*
X191250000Y-86220000D01*
X191255612Y-86062848D01*
X191258300Y-86054773D01*
X191257317Y-86046320D01*
X191269167Y-86022122D01*
X191277677Y-85996556D01*
X191284304Y-85991215D01*
X191288048Y-85983571D01*
X191311099Y-85969621D01*
X191332080Y-85952715D01*
X191342102Y-85950861D01*
X191347825Y-85947399D01*
X191382881Y-85943321D01*
X191486351Y-85946117D01*
X191552833Y-85967606D01*
X191597145Y-86021626D01*
X191607000Y-86070072D01*
X191607000Y-86490365D01*
X191587315Y-86557404D01*
X191586122Y-86559226D01*
X191584293Y-86561965D01*
X191584274Y-86561994D01*
X191572962Y-86578923D01*
X191572556Y-86583490D01*
X191565351Y-86598702D01*
X191565055Y-86599231D01*
X191564962Y-86599398D01*
X191551585Y-86639293D01*
X191536992Y-86668953D01*
X191062407Y-87376353D01*
X191054595Y-87386771D01*
X190960000Y-87499999D01*
X190959999Y-87500000D01*
X190885103Y-89322468D01*
X190874644Y-89367458D01*
X190872416Y-89372503D01*
X190872415Y-89372506D01*
X190869500Y-89397631D01*
X190869500Y-89570880D01*
X190849815Y-89637919D01*
X190797011Y-89683674D01*
X190750456Y-89694781D01*
X189998956Y-89724841D01*
X189931183Y-89707852D01*
X189883355Y-89656918D01*
X189870000Y-89600940D01*
X189870000Y-89124344D01*
X189883515Y-89068049D01*
X189884967Y-89065200D01*
X189911109Y-89013893D01*
X189911109Y-89013891D01*
X189911110Y-89013890D01*
X189911110Y-89013889D01*
X189922733Y-88940500D01*
X189925500Y-88923033D01*
X189925499Y-88286968D01*
X189925499Y-88286967D01*
X189925499Y-88286962D01*
X189911109Y-88196108D01*
X189911109Y-88196107D01*
X189883515Y-88141950D01*
X189870000Y-88085655D01*
X189870000Y-86760001D01*
X189869999Y-86759999D01*
X189010003Y-86390000D01*
X189009999Y-86389999D01*
X188619141Y-86374672D01*
X188612885Y-86372565D01*
X188606353Y-86373505D01*
X188580184Y-86361554D01*
X188552924Y-86352375D01*
X188548801Y-86347221D01*
X188542797Y-86344480D01*
X188527243Y-86320278D01*
X188509274Y-86297819D01*
X188507709Y-86289882D01*
X188505023Y-86285702D01*
X188500000Y-86250767D01*
X188500000Y-86168068D01*
X188500500Y-86160438D01*
X188500500Y-86059563D01*
X188500000Y-86051933D01*
X188500000Y-85510000D01*
X188487245Y-85484096D01*
X188488413Y-85483520D01*
X188476369Y-85466982D01*
X188472669Y-85451688D01*
X188472603Y-85451706D01*
X188467620Y-85433109D01*
X188446614Y-85354712D01*
X188446611Y-85354706D01*
X188400473Y-85274794D01*
X188400470Y-85274791D01*
X188400469Y-85274788D01*
X188335212Y-85209531D01*
X188335209Y-85209529D01*
X188335205Y-85209526D01*
X188255293Y-85163388D01*
X188255290Y-85163387D01*
X188255289Y-85163386D01*
X188255288Y-85163386D01*
X188166144Y-85139500D01*
X188073856Y-85139500D01*
X188065729Y-85139500D01*
X188065729Y-85137197D01*
X188008409Y-85128245D01*
X187985681Y-85114369D01*
X187720002Y-84910000D01*
X187719997Y-84909999D01*
X187549293Y-84907991D01*
X187482490Y-84887520D01*
X187437360Y-84834181D01*
X187428230Y-84764910D01*
X187458001Y-84701701D01*
X187517219Y-84664620D01*
X187550752Y-84660000D01*
X187709997Y-84660000D01*
X187710000Y-84660000D01*
X188664226Y-84404227D01*
X188696330Y-84400000D01*
X190003091Y-84400000D01*
X190070130Y-84419685D01*
G37*
%TD.AperFunction*%
%TD*%
%TA.AperFunction,Conductor*%
%TO.N,GND*%
G36*
X174900000Y-73400000D02*
G01*
X193400000Y-73200000D01*
X193393821Y-72940500D01*
X194945500Y-72940500D01*
X195012539Y-72960185D01*
X195058294Y-73012989D01*
X195069500Y-73064500D01*
X195069500Y-78249989D01*
X195070888Y-78256968D01*
X195064659Y-78326559D01*
X195062869Y-78329981D01*
X195062906Y-78329997D01*
X195058231Y-78341281D01*
X195049500Y-78385177D01*
X195049500Y-78385180D01*
X195049500Y-79414820D01*
X195049500Y-79414822D01*
X195049499Y-79414822D01*
X195058231Y-79458717D01*
X195058234Y-79458724D01*
X195091495Y-79508503D01*
X195095311Y-79512319D01*
X195128796Y-79573642D01*
X195123812Y-79643334D01*
X195095311Y-79687681D01*
X195091495Y-79691496D01*
X195058234Y-79741275D01*
X195058231Y-79741282D01*
X195049500Y-79785177D01*
X195049500Y-79785180D01*
X195049500Y-80814820D01*
X195049500Y-80814822D01*
X195049499Y-80814822D01*
X195058231Y-80858717D01*
X195058234Y-80858724D01*
X195091495Y-80908503D01*
X195104698Y-80917325D01*
X195149503Y-80970937D01*
X195159807Y-81020277D01*
X195159999Y-81179999D01*
X195160000Y-81180000D01*
X196085500Y-81180000D01*
X196152539Y-81199685D01*
X196198294Y-81252489D01*
X196209500Y-81304000D01*
X196209500Y-82107177D01*
X196189815Y-82174216D01*
X196137011Y-82219971D01*
X196086679Y-82231171D01*
X195158212Y-82239999D01*
X195158210Y-82240000D01*
X195157719Y-82381398D01*
X195137802Y-82448369D01*
X195102612Y-82484068D01*
X195091496Y-82491495D01*
X195091495Y-82491496D01*
X195058234Y-82541275D01*
X195058231Y-82541282D01*
X195049500Y-82585177D01*
X195049500Y-82585180D01*
X195049500Y-83614820D01*
X195049500Y-83614822D01*
X195049499Y-83614822D01*
X195058231Y-83658717D01*
X195058234Y-83658724D01*
X195091495Y-83708503D01*
X195095311Y-83712319D01*
X195128796Y-83773642D01*
X195123812Y-83843334D01*
X195095311Y-83887681D01*
X195091495Y-83891496D01*
X195058234Y-83941275D01*
X195058231Y-83941282D01*
X195049500Y-83985177D01*
X195049500Y-83985180D01*
X195049500Y-85014820D01*
X195049500Y-85014822D01*
X195049499Y-85014822D01*
X195060149Y-85068357D01*
X195060151Y-85116732D01*
X195059500Y-85120005D01*
X195059500Y-86493051D01*
X195039815Y-86560090D01*
X195004391Y-86596153D01*
X194951495Y-86631496D01*
X194918234Y-86681275D01*
X194918231Y-86681282D01*
X194909500Y-86725177D01*
X194909500Y-86725180D01*
X194909500Y-87954820D01*
X194909500Y-87954822D01*
X194909499Y-87954822D01*
X194918231Y-87998717D01*
X194918234Y-87998724D01*
X194951494Y-88048502D01*
X194951495Y-88048502D01*
X194951496Y-88048504D01*
X195001278Y-88081767D01*
X195001280Y-88081767D01*
X195004390Y-88083845D01*
X195049195Y-88137457D01*
X195059500Y-88186948D01*
X195059500Y-88893051D01*
X195039815Y-88960090D01*
X195004391Y-88996153D01*
X194951495Y-89031496D01*
X194918234Y-89081275D01*
X194918231Y-89081282D01*
X194909500Y-89125177D01*
X194909500Y-89125180D01*
X194909500Y-90354820D01*
X194909500Y-90354822D01*
X194909499Y-90354822D01*
X194918231Y-90398717D01*
X194918234Y-90398724D01*
X194951494Y-90448502D01*
X194951495Y-90448502D01*
X194951496Y-90448504D01*
X195001278Y-90481767D01*
X195001280Y-90481767D01*
X195004390Y-90483845D01*
X195049195Y-90537457D01*
X195059500Y-90586948D01*
X195059500Y-91310650D01*
X195039815Y-91377689D01*
X194987011Y-91423444D01*
X194938487Y-91434614D01*
X194373417Y-91448230D01*
X194358773Y-91447717D01*
X194300163Y-91442182D01*
X194335537Y-89749918D01*
X194356618Y-89683308D01*
X194410367Y-89638667D01*
X194412063Y-89637949D01*
X194415279Y-89636616D01*
X194415288Y-89636614D01*
X194425343Y-89630809D01*
X194495205Y-89590473D01*
X194495204Y-89590473D01*
X194495212Y-89590469D01*
X194560469Y-89525212D01*
X194606614Y-89445288D01*
X194630500Y-89356144D01*
X194630500Y-89263856D01*
X194606614Y-89174712D01*
X194584840Y-89136999D01*
X194568367Y-89069103D01*
X194584839Y-89013001D01*
X194606614Y-88975288D01*
X194630500Y-88886144D01*
X194630500Y-88793856D01*
X194606614Y-88704712D01*
X194606611Y-88704706D01*
X194560473Y-88624794D01*
X194560470Y-88624791D01*
X194560469Y-88624788D01*
X194495212Y-88559531D01*
X194467278Y-88543403D01*
X194458615Y-88538401D01*
X194410401Y-88487833D01*
X194397179Y-88419226D01*
X194407184Y-88380927D01*
X194411576Y-88370980D01*
X194422537Y-88346156D01*
X194425500Y-88320616D01*
X194425500Y-87919384D01*
X194422537Y-87893844D01*
X194387628Y-87814784D01*
X194377090Y-87762108D01*
X194490000Y-82360700D01*
X194489998Y-82360699D01*
X194489999Y-82360699D01*
X194465727Y-82335811D01*
X194433012Y-82274074D01*
X194430499Y-82249244D01*
X194430499Y-81803644D01*
X194427488Y-81777680D01*
X194406483Y-81730109D01*
X194380599Y-81671486D01*
X194298514Y-81589401D01*
X194239703Y-81563433D01*
X194186327Y-81518346D01*
X194165800Y-81451560D01*
X194184639Y-81384278D01*
X194236863Y-81337862D01*
X194239600Y-81336611D01*
X194298514Y-81310599D01*
X194380599Y-81228514D01*
X194427488Y-81122320D01*
X194430500Y-81096357D01*
X194430499Y-80608644D01*
X194427488Y-80582680D01*
X194418583Y-80562513D01*
X194380599Y-80476486D01*
X194366170Y-80462057D01*
X194332685Y-80400734D01*
X194337669Y-80331042D01*
X194379541Y-80275109D01*
X194403757Y-80260945D01*
X194438514Y-80245599D01*
X194520599Y-80163514D01*
X194567488Y-80057320D01*
X194570500Y-80031357D01*
X194570499Y-79543644D01*
X194567488Y-79517680D01*
X194563436Y-79508504D01*
X194520599Y-79411486D01*
X194438514Y-79329401D01*
X194379703Y-79303433D01*
X194326327Y-79258346D01*
X194305800Y-79191560D01*
X194324639Y-79124278D01*
X194376863Y-79077862D01*
X194379600Y-79076611D01*
X194438514Y-79050599D01*
X194520599Y-78968514D01*
X194567488Y-78862320D01*
X194570500Y-78836357D01*
X194570499Y-78348644D01*
X194567488Y-78322680D01*
X194558836Y-78303086D01*
X194535392Y-78249989D01*
X194520599Y-78216486D01*
X194438514Y-78134401D01*
X194438513Y-78134400D01*
X194435126Y-78131013D01*
X194401642Y-78069689D01*
X194406626Y-77999998D01*
X194448498Y-77944064D01*
X194472717Y-77929901D01*
X194480640Y-77926403D01*
X194561403Y-77845640D01*
X194607537Y-77741156D01*
X194610500Y-77715616D01*
X194610500Y-77199384D01*
X194607537Y-77173844D01*
X194599928Y-77156612D01*
X194577360Y-77105500D01*
X194561403Y-77069360D01*
X194480640Y-76988597D01*
X194441910Y-76971496D01*
X194376157Y-76942463D01*
X194350619Y-76939500D01*
X194350616Y-76939500D01*
X194072977Y-76939500D01*
X194005938Y-76919815D01*
X193985296Y-76903181D01*
X193678559Y-76596443D01*
X193661893Y-76589540D01*
X193577300Y-76554500D01*
X192827045Y-76554500D01*
X192765044Y-76537887D01*
X192705288Y-76503386D01*
X192616144Y-76479500D01*
X192523856Y-76479500D01*
X192434712Y-76503386D01*
X192434711Y-76503386D01*
X192434709Y-76503387D01*
X192434706Y-76503388D01*
X192354794Y-76549526D01*
X192354785Y-76549533D01*
X192289533Y-76614785D01*
X192289526Y-76614794D01*
X192243388Y-76694706D01*
X192243387Y-76694709D01*
X192243386Y-76694711D01*
X192243386Y-76694712D01*
X192219500Y-76783856D01*
X192219500Y-76876144D01*
X192242708Y-76962758D01*
X192243387Y-76965290D01*
X192243388Y-76965293D01*
X192289526Y-77045205D01*
X192289529Y-77045209D01*
X192289531Y-77045212D01*
X192354788Y-77110469D01*
X192354791Y-77110470D01*
X192354794Y-77110473D01*
X192434706Y-77156611D01*
X192434707Y-77156611D01*
X192434712Y-77156614D01*
X192523856Y-77180500D01*
X192523858Y-77180500D01*
X192616142Y-77180500D01*
X192616144Y-77180500D01*
X192705288Y-77156614D01*
X192765044Y-77122112D01*
X192827045Y-77105500D01*
X193357023Y-77105500D01*
X193424062Y-77125185D01*
X193444704Y-77141819D01*
X193653181Y-77350296D01*
X193686666Y-77411619D01*
X193689500Y-77437977D01*
X193689500Y-77715619D01*
X193692463Y-77741156D01*
X193692463Y-77741158D01*
X193738597Y-77845640D01*
X193788181Y-77895224D01*
X193802884Y-77922151D01*
X193819477Y-77947970D01*
X193820368Y-77954170D01*
X193821666Y-77956547D01*
X193824500Y-77982905D01*
X193824500Y-78025873D01*
X193804815Y-78092912D01*
X193770579Y-78128171D01*
X193761489Y-78134398D01*
X193679400Y-78216487D01*
X193632512Y-78322678D01*
X193629500Y-78348639D01*
X193629500Y-78559173D01*
X193609815Y-78626212D01*
X193557011Y-78671967D01*
X193487853Y-78681911D01*
X193481309Y-78680790D01*
X193474824Y-78679500D01*
X193474820Y-78679500D01*
X192445180Y-78679500D01*
X192445178Y-78679500D01*
X192401282Y-78688231D01*
X192401275Y-78688234D01*
X192351496Y-78721495D01*
X192351495Y-78721496D01*
X192318234Y-78771275D01*
X192318231Y-78771282D01*
X192309500Y-78815177D01*
X192309500Y-78815180D01*
X192309500Y-79444820D01*
X192309500Y-79444822D01*
X192309499Y-79444822D01*
X192318231Y-79488717D01*
X192318234Y-79488724D01*
X192337582Y-79517680D01*
X192351496Y-79538504D01*
X192401278Y-79571767D01*
X192401281Y-79571767D01*
X192401282Y-79571768D01*
X192445177Y-79580500D01*
X192445180Y-79580500D01*
X193474817Y-79580500D01*
X193474820Y-79580500D01*
X193481303Y-79579210D01*
X193550892Y-79585433D01*
X193606072Y-79628292D01*
X193629322Y-79694180D01*
X193629500Y-79700826D01*
X193629500Y-80031348D01*
X193629502Y-80031372D01*
X193632510Y-80057314D01*
X193632513Y-80057324D01*
X193679400Y-80163513D01*
X193693829Y-80177942D01*
X193727314Y-80239265D01*
X193722330Y-80308957D01*
X193680458Y-80364890D01*
X193656237Y-80379056D01*
X193621486Y-80394400D01*
X193539401Y-80476485D01*
X193492512Y-80582678D01*
X193489500Y-80608639D01*
X193489500Y-80963095D01*
X193469815Y-81030134D01*
X193417011Y-81075889D01*
X193347853Y-81085833D01*
X193296862Y-81062546D01*
X193295120Y-81065091D01*
X193285640Y-81058597D01*
X193181157Y-81012463D01*
X193155619Y-81009500D01*
X193155616Y-81009500D01*
X192639384Y-81009500D01*
X192639380Y-81009500D01*
X192613843Y-81012463D01*
X192613841Y-81012463D01*
X192509359Y-81058597D01*
X192428597Y-81139359D01*
X192382463Y-81243841D01*
X192382463Y-81243843D01*
X192379500Y-81269380D01*
X192379500Y-81670619D01*
X192382463Y-81696156D01*
X192382463Y-81696158D01*
X192408950Y-81756144D01*
X192428597Y-81800640D01*
X192509360Y-81881403D01*
X192518702Y-81885528D01*
X192572076Y-81930612D01*
X192592604Y-81997398D01*
X192573766Y-82064680D01*
X192566172Y-82075501D01*
X192549755Y-82096424D01*
X192538486Y-82101401D01*
X192456401Y-82183486D01*
X192424156Y-82256513D01*
X192414557Y-82268749D01*
X192398263Y-82280379D01*
X192385346Y-82295672D01*
X192370409Y-82300262D01*
X192357689Y-82309343D01*
X192337693Y-82310318D01*
X192318560Y-82316199D01*
X192303512Y-82311985D01*
X192287903Y-82312747D01*
X192270555Y-82302757D01*
X192251278Y-82297360D01*
X192240895Y-82285678D01*
X192227354Y-82277881D01*
X192218161Y-82260099D01*
X192204862Y-82245136D01*
X192203598Y-82242369D01*
X192177599Y-82183486D01*
X192095514Y-82101401D01*
X192025530Y-82070500D01*
X191989321Y-82054512D01*
X191963357Y-82051500D01*
X191475651Y-82051500D01*
X191475627Y-82051502D01*
X191449685Y-82054510D01*
X191449675Y-82054513D01*
X191343486Y-82101400D01*
X191261402Y-82183484D01*
X191221967Y-82272794D01*
X191209807Y-82287188D01*
X191201909Y-82304296D01*
X191187727Y-82313326D01*
X191176880Y-82326169D01*
X191158870Y-82331704D01*
X191142975Y-82341827D01*
X191111765Y-82346182D01*
X191110094Y-82346696D01*
X191108020Y-82346705D01*
X190998987Y-82346254D01*
X190932030Y-82326292D01*
X190886494Y-82273299D01*
X190875500Y-82222255D01*
X190875500Y-81030177D01*
X190866768Y-80986282D01*
X190866767Y-80986281D01*
X190866767Y-80986278D01*
X190833504Y-80936496D01*
X190833503Y-80936495D01*
X190783724Y-80903234D01*
X190783717Y-80903231D01*
X190739822Y-80894500D01*
X190739820Y-80894500D01*
X190160180Y-80894500D01*
X190160178Y-80894500D01*
X190116282Y-80903231D01*
X190116275Y-80903234D01*
X190066496Y-80936495D01*
X190066495Y-80936496D01*
X190033234Y-80986275D01*
X190033231Y-80986282D01*
X190024500Y-81030177D01*
X190024500Y-81259088D01*
X190004815Y-81326127D01*
X189952011Y-81371882D01*
X189882853Y-81381826D01*
X189868410Y-81378863D01*
X189796144Y-81359500D01*
X189703856Y-81359500D01*
X189614712Y-81383386D01*
X189614711Y-81383386D01*
X189614709Y-81383387D01*
X189614706Y-81383388D01*
X189534794Y-81429526D01*
X189534785Y-81429533D01*
X189469533Y-81494785D01*
X189469526Y-81494794D01*
X189423388Y-81574706D01*
X189423387Y-81574709D01*
X189423386Y-81574711D01*
X189423386Y-81574712D01*
X189399500Y-81663856D01*
X189399500Y-81756144D01*
X189420428Y-81834250D01*
X189423387Y-81845290D01*
X189423388Y-81845293D01*
X189469526Y-81925205D01*
X189469529Y-81925209D01*
X189469531Y-81925212D01*
X189534788Y-81990469D01*
X189543499Y-81995498D01*
X189591715Y-82046064D01*
X189604940Y-82114670D01*
X189578973Y-82179536D01*
X189569845Y-82189900D01*
X189558052Y-82201872D01*
X189544788Y-82209531D01*
X189479531Y-82274788D01*
X189470034Y-82291236D01*
X189458912Y-82302529D01*
X189441660Y-82312119D01*
X189427379Y-82325735D01*
X189409392Y-82330058D01*
X189397845Y-82336478D01*
X189385869Y-82335712D01*
X189370055Y-82339514D01*
X187748987Y-82332806D01*
X187682029Y-82312844D01*
X187636493Y-82259851D01*
X187625500Y-82208807D01*
X187625500Y-81030177D01*
X187616768Y-80986282D01*
X187616767Y-80986281D01*
X187616767Y-80986278D01*
X187583504Y-80936496D01*
X187583503Y-80936495D01*
X187533724Y-80903234D01*
X187533717Y-80903231D01*
X187489822Y-80894500D01*
X187489820Y-80894500D01*
X186910180Y-80894500D01*
X186910179Y-80894500D01*
X186889118Y-80898689D01*
X186819527Y-80892460D01*
X186764350Y-80849596D01*
X186747437Y-80806002D01*
X186744937Y-80806683D01*
X186742488Y-80797684D01*
X186742488Y-80797680D01*
X186695599Y-80691486D01*
X186613514Y-80609401D01*
X186553008Y-80582685D01*
X186507321Y-80562512D01*
X186481357Y-80559500D01*
X185993651Y-80559500D01*
X185993627Y-80559502D01*
X185967685Y-80562510D01*
X185967675Y-80562513D01*
X185861486Y-80609400D01*
X185779401Y-80691485D01*
X185732512Y-80797678D01*
X185729500Y-80823639D01*
X185729500Y-81236348D01*
X185729502Y-81236372D01*
X185732510Y-81262314D01*
X185732513Y-81262324D01*
X185779400Y-81368513D01*
X185821741Y-81410854D01*
X185855226Y-81472177D01*
X185850242Y-81541869D01*
X185821741Y-81586216D01*
X185738597Y-81669359D01*
X185692463Y-81773841D01*
X185692463Y-81773843D01*
X185689500Y-81799380D01*
X185689500Y-82135500D01*
X185669815Y-82202539D01*
X185617011Y-82248294D01*
X185565500Y-82259500D01*
X184863781Y-82259500D01*
X184796742Y-82239815D01*
X184776100Y-82223181D01*
X184377958Y-81825039D01*
X184355184Y-81802265D01*
X184355184Y-81802264D01*
X184291750Y-81738830D01*
X184256454Y-81724210D01*
X184240820Y-81717734D01*
X184240819Y-81717733D01*
X184208869Y-81704499D01*
X184119159Y-81704499D01*
X184104725Y-81704499D01*
X184104717Y-81704500D01*
X183174857Y-81704500D01*
X183174855Y-81704499D01*
X183085146Y-81704499D01*
X183037560Y-81724210D01*
X183023319Y-81730108D01*
X183023317Y-81730109D01*
X183002263Y-81738830D01*
X183002262Y-81738831D01*
X182938829Y-81802265D01*
X182466825Y-82274268D01*
X182405502Y-82307753D01*
X182378631Y-82310586D01*
X181781503Y-82308115D01*
X181775539Y-82306337D01*
X181769420Y-82307475D01*
X181742452Y-82296472D01*
X181714545Y-82288153D01*
X181709029Y-82282837D01*
X181704727Y-82281082D01*
X181692617Y-82267020D01*
X181680539Y-82255380D01*
X181677398Y-82250907D01*
X181640687Y-82187389D01*
X181614224Y-82160950D01*
X181608023Y-82152120D01*
X181600133Y-82128833D01*
X181588346Y-82107268D01*
X181586255Y-82087866D01*
X181585604Y-82085944D01*
X181585914Y-82084700D01*
X181585500Y-82080856D01*
X181585500Y-81469875D01*
X181585500Y-81469873D01*
X181585449Y-81465893D01*
X181585287Y-81459565D01*
X181576609Y-81412178D01*
X181553529Y-81346231D01*
X181533112Y-81306962D01*
X181533108Y-81306956D01*
X181533100Y-81306944D01*
X179661669Y-78698004D01*
X179615655Y-78633856D01*
X185714500Y-78633856D01*
X185714500Y-78726144D01*
X185738357Y-78815180D01*
X185738387Y-78815290D01*
X185738388Y-78815293D01*
X185784526Y-78895205D01*
X185784529Y-78895209D01*
X185784531Y-78895212D01*
X185849788Y-78960469D01*
X185849791Y-78960470D01*
X185849794Y-78960473D01*
X185929706Y-79006611D01*
X185929707Y-79006611D01*
X185929712Y-79006614D01*
X186018856Y-79030500D01*
X186018858Y-79030500D01*
X186111142Y-79030500D01*
X186111144Y-79030500D01*
X186200288Y-79006614D01*
X186280212Y-78960469D01*
X186345469Y-78895212D01*
X186391614Y-78815288D01*
X186415500Y-78726144D01*
X186415500Y-78633856D01*
X186391614Y-78544712D01*
X186391447Y-78544422D01*
X186345473Y-78464794D01*
X186345470Y-78464791D01*
X186345469Y-78464788D01*
X186280212Y-78399531D01*
X186280209Y-78399529D01*
X186280205Y-78399526D01*
X186200293Y-78353388D01*
X186200290Y-78353387D01*
X186200289Y-78353386D01*
X186200288Y-78353386D01*
X186111144Y-78329500D01*
X186018856Y-78329500D01*
X185929712Y-78353386D01*
X185929711Y-78353386D01*
X185929709Y-78353387D01*
X185929706Y-78353388D01*
X185849794Y-78399526D01*
X185849785Y-78399533D01*
X185784533Y-78464785D01*
X185784526Y-78464794D01*
X185738388Y-78544706D01*
X185738387Y-78544709D01*
X185738386Y-78544711D01*
X185738386Y-78544712D01*
X185714500Y-78633856D01*
X179615655Y-78633856D01*
X179563466Y-78561100D01*
X179563465Y-78561099D01*
X179563460Y-78561093D01*
X179563457Y-78561089D01*
X179544216Y-78538999D01*
X179510497Y-78506959D01*
X179510492Y-78506956D01*
X179510489Y-78506954D01*
X179447199Y-78470486D01*
X179447197Y-78470485D01*
X179447195Y-78470484D01*
X179380156Y-78450799D01*
X179380154Y-78450798D01*
X179380152Y-78450798D01*
X179380147Y-78450797D01*
X179336348Y-78444500D01*
X179336345Y-78444500D01*
X178824000Y-78444500D01*
X178823991Y-78444500D01*
X178790944Y-78448054D01*
X178739433Y-78459260D01*
X178670657Y-78493686D01*
X178617860Y-78539436D01*
X178612376Y-78544422D01*
X178583487Y-78591816D01*
X178531786Y-78638813D01*
X178462883Y-78650398D01*
X178398656Y-78622892D01*
X178389927Y-78614956D01*
X178322765Y-78547794D01*
X178219992Y-78502415D01*
X178194865Y-78499500D01*
X177805143Y-78499500D01*
X177805117Y-78499502D01*
X177780012Y-78502413D01*
X177780008Y-78502415D01*
X177677235Y-78547793D01*
X177677234Y-78547794D01*
X177589669Y-78635360D01*
X177587251Y-78632942D01*
X177548171Y-78664842D01*
X177478750Y-78672747D01*
X177416076Y-78641865D01*
X177411671Y-78637610D01*
X177402820Y-78628627D01*
X177402206Y-78627235D01*
X177350740Y-78575769D01*
X177350473Y-78575498D01*
X177334151Y-78545073D01*
X177317636Y-78514827D01*
X177317670Y-78514349D01*
X177317444Y-78513928D01*
X177320156Y-78479584D01*
X177322620Y-78445135D01*
X177322941Y-78444317D01*
X177322945Y-78444275D01*
X177322972Y-78444238D01*
X177324241Y-78441016D01*
X177326609Y-78435296D01*
X177326614Y-78435288D01*
X177350500Y-78346144D01*
X177350500Y-78253856D01*
X177338963Y-78210799D01*
X187626443Y-78210799D01*
X187626443Y-78303087D01*
X187638645Y-78348627D01*
X187650330Y-78392233D01*
X187650331Y-78392236D01*
X187696469Y-78472148D01*
X187696472Y-78472152D01*
X187696474Y-78472155D01*
X187761731Y-78537412D01*
X187761734Y-78537413D01*
X187761737Y-78537416D01*
X187841649Y-78583554D01*
X187841650Y-78583554D01*
X187841655Y-78583557D01*
X187930799Y-78607443D01*
X187930801Y-78607443D01*
X188023085Y-78607443D01*
X188023087Y-78607443D01*
X188112231Y-78583557D01*
X188192155Y-78537412D01*
X188257412Y-78472155D01*
X188303557Y-78392231D01*
X188327443Y-78303087D01*
X188327443Y-78210799D01*
X188303557Y-78121655D01*
X188297859Y-78111786D01*
X188257416Y-78041737D01*
X188257413Y-78041734D01*
X188257412Y-78041731D01*
X188192155Y-77976474D01*
X188186336Y-77973114D01*
X188186335Y-77973113D01*
X188112236Y-77930331D01*
X188112233Y-77930330D01*
X188112232Y-77930329D01*
X188112231Y-77930329D01*
X188023087Y-77906443D01*
X187930799Y-77906443D01*
X187841655Y-77930329D01*
X187841654Y-77930329D01*
X187841652Y-77930330D01*
X187841649Y-77930331D01*
X187761737Y-77976469D01*
X187761728Y-77976476D01*
X187696476Y-78041728D01*
X187696469Y-78041737D01*
X187650331Y-78121649D01*
X187650330Y-78121652D01*
X187650329Y-78121654D01*
X187650329Y-78121655D01*
X187626443Y-78210799D01*
X177338963Y-78210799D01*
X177326614Y-78164712D01*
X177326611Y-78164706D01*
X177280473Y-78084794D01*
X177280470Y-78084791D01*
X177280469Y-78084788D01*
X177215212Y-78019531D01*
X177215209Y-78019529D01*
X177215205Y-78019526D01*
X177135293Y-77973388D01*
X177135290Y-77973387D01*
X177135289Y-77973386D01*
X177135288Y-77973386D01*
X177046144Y-77949500D01*
X176953856Y-77949500D01*
X176864712Y-77973386D01*
X176864711Y-77973386D01*
X176864709Y-77973387D01*
X176864706Y-77973388D01*
X176784794Y-78019526D01*
X176784785Y-78019533D01*
X176719533Y-78084785D01*
X176719526Y-78084794D01*
X176673388Y-78164706D01*
X176673387Y-78164709D01*
X176673386Y-78164711D01*
X176673386Y-78164712D01*
X176649500Y-78253856D01*
X176649500Y-78346144D01*
X176663804Y-78399526D01*
X176673387Y-78435291D01*
X176675761Y-78441023D01*
X176683225Y-78510493D01*
X176651947Y-78572970D01*
X176648879Y-78576150D01*
X176597793Y-78627235D01*
X176552415Y-78730006D01*
X176552415Y-78730008D01*
X176549500Y-78755131D01*
X176549500Y-80094856D01*
X176549502Y-80094882D01*
X176552413Y-80119987D01*
X176552415Y-80119991D01*
X176597793Y-80222764D01*
X176597794Y-80222765D01*
X176677235Y-80302206D01*
X176780009Y-80347585D01*
X176805135Y-80350500D01*
X177194864Y-80350499D01*
X177194879Y-80350497D01*
X177194882Y-80350497D01*
X177219987Y-80347586D01*
X177219988Y-80347585D01*
X177219991Y-80347585D01*
X177322765Y-80302206D01*
X177402206Y-80222765D01*
X177402206Y-80222764D01*
X177410331Y-80214640D01*
X177412749Y-80217058D01*
X177451810Y-80185165D01*
X177521230Y-80177249D01*
X177583910Y-80208121D01*
X177589609Y-80214699D01*
X177589669Y-80214640D01*
X177597794Y-80222765D01*
X177677235Y-80302206D01*
X177780009Y-80347585D01*
X177805135Y-80350500D01*
X178194864Y-80350499D01*
X178194879Y-80350497D01*
X178194882Y-80350497D01*
X178219987Y-80347586D01*
X178219988Y-80347585D01*
X178219991Y-80347585D01*
X178322765Y-80302206D01*
X178378341Y-80246629D01*
X178439660Y-80213147D01*
X178509352Y-80218131D01*
X178565286Y-80260002D01*
X178580915Y-80287678D01*
X178582805Y-80292336D01*
X178582812Y-80292350D01*
X178605119Y-80330568D01*
X179866764Y-81919306D01*
X179875930Y-81941891D01*
X179888932Y-81962511D01*
X179891240Y-81979614D01*
X179893039Y-81984046D01*
X179893653Y-81997488D01*
X179892098Y-82177841D01*
X179871837Y-82244708D01*
X179855490Y-82264747D01*
X179820000Y-82299999D01*
X179818037Y-83051352D01*
X179813812Y-83083121D01*
X179807991Y-83104845D01*
X179789500Y-83173856D01*
X179789500Y-83266144D01*
X179812939Y-83353622D01*
X179817164Y-83386035D01*
X179815600Y-83985177D01*
X179810500Y-85938325D01*
X179790641Y-86005312D01*
X179737718Y-86050928D01*
X179686501Y-86062000D01*
X177152267Y-86062000D01*
X177122826Y-86053355D01*
X177092840Y-86046832D01*
X177087824Y-86043077D01*
X177085228Y-86042315D01*
X177064586Y-86025681D01*
X176896819Y-85857914D01*
X176863334Y-85796591D01*
X176860500Y-85770233D01*
X176860500Y-85009766D01*
X176880185Y-84942727D01*
X176896814Y-84922089D01*
X177892794Y-83926109D01*
X177892797Y-83926108D01*
X177910235Y-83908670D01*
X177910236Y-83908670D01*
X177973670Y-83845236D01*
X177973670Y-83845234D01*
X177973672Y-83845233D01*
X177992598Y-83799540D01*
X178008000Y-83762355D01*
X178008000Y-83644013D01*
X178027685Y-83576974D01*
X178080489Y-83531219D01*
X178081770Y-83530642D01*
X178170640Y-83491403D01*
X178251403Y-83410640D01*
X178297537Y-83306156D01*
X178300500Y-83280616D01*
X178300500Y-82879384D01*
X178297537Y-82853844D01*
X178293538Y-82844788D01*
X178275496Y-82803926D01*
X178251403Y-82749360D01*
X178170640Y-82668597D01*
X178140636Y-82655349D01*
X178066157Y-82622463D01*
X178040619Y-82619500D01*
X178040616Y-82619500D01*
X177524384Y-82619500D01*
X177524380Y-82619500D01*
X177498843Y-82622463D01*
X177498841Y-82622463D01*
X177394359Y-82668597D01*
X177313597Y-82749359D01*
X177267463Y-82853841D01*
X177267463Y-82853843D01*
X177264500Y-82879380D01*
X177264500Y-83280619D01*
X177267463Y-83306156D01*
X177267463Y-83306158D01*
X177313597Y-83410640D01*
X177394360Y-83491403D01*
X177433638Y-83508746D01*
X177487014Y-83553832D01*
X177507542Y-83620618D01*
X177488704Y-83687900D01*
X177471233Y-83709861D01*
X176677914Y-84503181D01*
X176616591Y-84536666D01*
X176590233Y-84539500D01*
X175495178Y-84539500D01*
X175451282Y-84548231D01*
X175451275Y-84548234D01*
X175401496Y-84581495D01*
X175401495Y-84581496D01*
X175368234Y-84631275D01*
X175368231Y-84631282D01*
X175359500Y-84675177D01*
X175359500Y-86036000D01*
X175339815Y-86103039D01*
X175287011Y-86148794D01*
X175235500Y-86160000D01*
X173954500Y-86160000D01*
X173887461Y-86140315D01*
X173841706Y-86087511D01*
X173830500Y-86036000D01*
X173830500Y-85705002D01*
X173830500Y-85705000D01*
X173809667Y-85627250D01*
X173809666Y-85627249D01*
X173809666Y-85627248D01*
X173786819Y-85604401D01*
X173753334Y-85543078D01*
X173750500Y-85516720D01*
X173750500Y-83253856D01*
X174419500Y-83253856D01*
X174419500Y-83346144D01*
X174428139Y-83378386D01*
X174443387Y-83435290D01*
X174443388Y-83435293D01*
X174489526Y-83515205D01*
X174489529Y-83515209D01*
X174489531Y-83515212D01*
X174554788Y-83580469D01*
X174554791Y-83580470D01*
X174554794Y-83580473D01*
X174634706Y-83626611D01*
X174634707Y-83626611D01*
X174634712Y-83626614D01*
X174723856Y-83650500D01*
X174723858Y-83650500D01*
X174816142Y-83650500D01*
X174816144Y-83650500D01*
X174905288Y-83626614D01*
X174985212Y-83580469D01*
X175003862Y-83561819D01*
X175030789Y-83547115D01*
X175056608Y-83530523D01*
X175062808Y-83529631D01*
X175065185Y-83528334D01*
X175091543Y-83525500D01*
X175175425Y-83525500D01*
X175225512Y-83536066D01*
X175227729Y-83537044D01*
X175228844Y-83537537D01*
X175254384Y-83540500D01*
X175254386Y-83540500D01*
X175770614Y-83540500D01*
X175770616Y-83540500D01*
X175796156Y-83537537D01*
X175900640Y-83491403D01*
X175981403Y-83410640D01*
X176027537Y-83306156D01*
X176030500Y-83280616D01*
X176030500Y-82879384D01*
X176027537Y-82853844D01*
X176023538Y-82844788D01*
X176005496Y-82803926D01*
X175981403Y-82749360D01*
X175900640Y-82668597D01*
X175870636Y-82655349D01*
X175796157Y-82622463D01*
X175770619Y-82619500D01*
X175770616Y-82619500D01*
X175254384Y-82619500D01*
X175254380Y-82619500D01*
X175228843Y-82622463D01*
X175228841Y-82622463D01*
X175124359Y-82668597D01*
X175043597Y-82749359D01*
X174997463Y-82853841D01*
X174995015Y-82862842D01*
X174993026Y-82862301D01*
X174970496Y-82915415D01*
X174912767Y-82954774D01*
X174842923Y-82956674D01*
X174842518Y-82956566D01*
X174816148Y-82949500D01*
X174816144Y-82949500D01*
X174723856Y-82949500D01*
X174634712Y-82973386D01*
X174634711Y-82973386D01*
X174634709Y-82973387D01*
X174634706Y-82973388D01*
X174554794Y-83019526D01*
X174554785Y-83019533D01*
X174489533Y-83084785D01*
X174489526Y-83084794D01*
X174443388Y-83164706D01*
X174443387Y-83164709D01*
X174443386Y-83164711D01*
X174443386Y-83164712D01*
X174419500Y-83253856D01*
X173750500Y-83253856D01*
X173750500Y-81530010D01*
X173750499Y-81530007D01*
X173735200Y-81493071D01*
X173698293Y-81456164D01*
X173700359Y-81454097D01*
X173667500Y-81414775D01*
X173657199Y-81365106D01*
X173660071Y-79452598D01*
X173679855Y-79385592D01*
X173699792Y-79365335D01*
X173698293Y-79363836D01*
X173706929Y-79355200D01*
X173735200Y-79326929D01*
X173750500Y-79289991D01*
X173750500Y-79180009D01*
X173750500Y-78160009D01*
X173737863Y-78129500D01*
X173730526Y-78111786D01*
X173734451Y-78110160D01*
X173720520Y-78065669D01*
X173720500Y-78063455D01*
X173720500Y-77873856D01*
X189389500Y-77873856D01*
X189389500Y-77966144D01*
X189409753Y-78041731D01*
X189413387Y-78055290D01*
X189413388Y-78055293D01*
X189459526Y-78135205D01*
X189459529Y-78135209D01*
X189459531Y-78135212D01*
X189524788Y-78200469D01*
X189524791Y-78200470D01*
X189524794Y-78200473D01*
X189604706Y-78246611D01*
X189604707Y-78246611D01*
X189604712Y-78246614D01*
X189693856Y-78270500D01*
X189693858Y-78270500D01*
X189786142Y-78270500D01*
X189786144Y-78270500D01*
X189875288Y-78246614D01*
X189955212Y-78200469D01*
X190020469Y-78135212D01*
X190066614Y-78055288D01*
X190090500Y-77966144D01*
X190090500Y-77873856D01*
X190066614Y-77784712D01*
X190041468Y-77741158D01*
X190020473Y-77704794D01*
X190020470Y-77704791D01*
X190020469Y-77704788D01*
X189955212Y-77639531D01*
X189955209Y-77639529D01*
X189955205Y-77639526D01*
X189875293Y-77593388D01*
X189875290Y-77593387D01*
X189875289Y-77593386D01*
X189875288Y-77593386D01*
X189786144Y-77569500D01*
X189693856Y-77569500D01*
X189604712Y-77593386D01*
X189604711Y-77593386D01*
X189604709Y-77593387D01*
X189604706Y-77593388D01*
X189524794Y-77639526D01*
X189524785Y-77639533D01*
X189459533Y-77704785D01*
X189459526Y-77704794D01*
X189413388Y-77784706D01*
X189413387Y-77784709D01*
X189413386Y-77784711D01*
X189413386Y-77784712D01*
X189389500Y-77873856D01*
X173720500Y-77873856D01*
X173720500Y-77065177D01*
X173711768Y-77021282D01*
X173711767Y-77021279D01*
X173711767Y-77021278D01*
X173684781Y-76980891D01*
X173679104Y-76962758D01*
X173668856Y-76946759D01*
X173664493Y-76916093D01*
X173663905Y-76914214D01*
X173663885Y-76911918D01*
X173664057Y-76797548D01*
X173683841Y-76730544D01*
X173684850Y-76729005D01*
X173711767Y-76688722D01*
X173720500Y-76644820D01*
X173720500Y-75615180D01*
X173720500Y-75615177D01*
X173711768Y-75571282D01*
X173711766Y-75571276D01*
X173686955Y-75534143D01*
X173666078Y-75467466D01*
X173666058Y-75465068D01*
X173666070Y-75457243D01*
X173666171Y-75389994D01*
X173666170Y-75389994D01*
X172704001Y-75389999D01*
X172695314Y-75387448D01*
X172686353Y-75388737D01*
X172662315Y-75377759D01*
X172636961Y-75370315D01*
X172631032Y-75363472D01*
X172622797Y-75359712D01*
X172608510Y-75337480D01*
X172591206Y-75317511D01*
X172588918Y-75306995D01*
X172585023Y-75300934D01*
X172580000Y-75265999D01*
X172580000Y-75043856D01*
X182699500Y-75043856D01*
X182699500Y-75136143D01*
X182723387Y-75225290D01*
X182723388Y-75225293D01*
X182769526Y-75305205D01*
X182769529Y-75305209D01*
X182769531Y-75305212D01*
X182834788Y-75370469D01*
X182897500Y-75406677D01*
X182945716Y-75457243D01*
X182959500Y-75514063D01*
X182959500Y-75515180D01*
X182959500Y-76794820D01*
X182959500Y-76794822D01*
X182959499Y-76794822D01*
X182968231Y-76838717D01*
X182968234Y-76838724D01*
X183001495Y-76888503D01*
X183001496Y-76888504D01*
X183051278Y-76921767D01*
X183051281Y-76921767D01*
X183051282Y-76921768D01*
X183095177Y-76930500D01*
X183095180Y-76930500D01*
X183724822Y-76930500D01*
X183768717Y-76921768D01*
X183768717Y-76921767D01*
X183768722Y-76921767D01*
X183818504Y-76888504D01*
X183851767Y-76838722D01*
X183851767Y-76838719D01*
X183856897Y-76831043D01*
X183910509Y-76786237D01*
X183979834Y-76777530D01*
X184042862Y-76807684D01*
X184063103Y-76831043D01*
X184068232Y-76838720D01*
X184068233Y-76838722D01*
X184101496Y-76888504D01*
X184101497Y-76888505D01*
X184117716Y-76899342D01*
X184151278Y-76921767D01*
X184151281Y-76921767D01*
X184151282Y-76921768D01*
X184195177Y-76930500D01*
X184195180Y-76930500D01*
X184824822Y-76930500D01*
X184868717Y-76921768D01*
X184868717Y-76921767D01*
X184868722Y-76921767D01*
X184918504Y-76888504D01*
X184951767Y-76838722D01*
X184957941Y-76807684D01*
X184960500Y-76794822D01*
X186259499Y-76794822D01*
X186268231Y-76838717D01*
X186268234Y-76838724D01*
X186301495Y-76888503D01*
X186301496Y-76888504D01*
X186351278Y-76921767D01*
X186351281Y-76921767D01*
X186351282Y-76921768D01*
X186395177Y-76930500D01*
X186395180Y-76930500D01*
X187024822Y-76930500D01*
X187068717Y-76921768D01*
X187068717Y-76921767D01*
X187068722Y-76921767D01*
X187118504Y-76888504D01*
X187118505Y-76888502D01*
X187120282Y-76887315D01*
X187186959Y-76866437D01*
X187254339Y-76884921D01*
X187282886Y-76909215D01*
X187320065Y-76952123D01*
X187325066Y-76957623D01*
X187375881Y-76988597D01*
X187393794Y-76999516D01*
X187460833Y-77019201D01*
X187504644Y-77025500D01*
X187504647Y-77025500D01*
X188268600Y-77025500D01*
X188268610Y-77025500D01*
X188300045Y-77022290D01*
X188349145Y-77012155D01*
X188398145Y-76988597D01*
X188417013Y-76979526D01*
X188417016Y-76979523D01*
X188417018Y-76979523D01*
X188453660Y-76949112D01*
X188517817Y-76921446D01*
X188557044Y-76922914D01*
X188595179Y-76930500D01*
X188595180Y-76930500D01*
X189224822Y-76930500D01*
X189268717Y-76921768D01*
X189268717Y-76921767D01*
X189268722Y-76921767D01*
X189318504Y-76888504D01*
X189351767Y-76838722D01*
X189351767Y-76838719D01*
X189356897Y-76831043D01*
X189410509Y-76786237D01*
X189479834Y-76777530D01*
X189542862Y-76807684D01*
X189563103Y-76831043D01*
X189568232Y-76838720D01*
X189568233Y-76838722D01*
X189601496Y-76888504D01*
X189601497Y-76888505D01*
X189617716Y-76899342D01*
X189651278Y-76921767D01*
X189651281Y-76921767D01*
X189651282Y-76921768D01*
X189695177Y-76930500D01*
X189695180Y-76930500D01*
X190324822Y-76930500D01*
X190368717Y-76921768D01*
X190368717Y-76921767D01*
X190368722Y-76921767D01*
X190418504Y-76888504D01*
X190451767Y-76838722D01*
X190451767Y-76838719D01*
X190456897Y-76831043D01*
X190510509Y-76786237D01*
X190579834Y-76777530D01*
X190642862Y-76807684D01*
X190663103Y-76831043D01*
X190668232Y-76838720D01*
X190668233Y-76838722D01*
X190701496Y-76888504D01*
X190701497Y-76888505D01*
X190717716Y-76899342D01*
X190751278Y-76921767D01*
X190751281Y-76921767D01*
X190751282Y-76921768D01*
X190795177Y-76930500D01*
X190795180Y-76930500D01*
X191424822Y-76930500D01*
X191468717Y-76921768D01*
X191468717Y-76921767D01*
X191468722Y-76921767D01*
X191518504Y-76888504D01*
X191551767Y-76838722D01*
X191557941Y-76807684D01*
X191560500Y-76794822D01*
X191560500Y-75515177D01*
X191551768Y-75471282D01*
X191551767Y-75471281D01*
X191551767Y-75471278D01*
X191518504Y-75421496D01*
X191511198Y-75416614D01*
X191468724Y-75388234D01*
X191468717Y-75388231D01*
X191424822Y-75379500D01*
X191424820Y-75379500D01*
X190795180Y-75379500D01*
X190795178Y-75379500D01*
X190751282Y-75388231D01*
X190751275Y-75388234D01*
X190701496Y-75421495D01*
X190663102Y-75478957D01*
X190609490Y-75523762D01*
X190540165Y-75532469D01*
X190477137Y-75502315D01*
X190456898Y-75478957D01*
X190418503Y-75421495D01*
X190368724Y-75388234D01*
X190368717Y-75388231D01*
X190324822Y-75379500D01*
X190324820Y-75379500D01*
X189695180Y-75379500D01*
X189695178Y-75379500D01*
X189651282Y-75388231D01*
X189651279Y-75388232D01*
X189648642Y-75389994D01*
X189638388Y-75396845D01*
X189571713Y-75417722D01*
X189504333Y-75399237D01*
X189457643Y-75347258D01*
X189445500Y-75293742D01*
X189445500Y-74732266D01*
X189454144Y-74702825D01*
X189460668Y-74672839D01*
X189464422Y-74667823D01*
X189465185Y-74665227D01*
X189481815Y-74644589D01*
X189589586Y-74536817D01*
X189650909Y-74503333D01*
X189677267Y-74500499D01*
X190021348Y-74500499D01*
X190021356Y-74500499D01*
X190029726Y-74499528D01*
X190047314Y-74497489D01*
X190047315Y-74497488D01*
X190047320Y-74497488D01*
X190153514Y-74450599D01*
X190235599Y-74368514D01*
X190282488Y-74262320D01*
X190285500Y-74236357D01*
X190285499Y-73823644D01*
X190285111Y-73820294D01*
X190282489Y-73797685D01*
X190282488Y-73797682D01*
X190282488Y-73797680D01*
X190266506Y-73761485D01*
X190235599Y-73691486D01*
X190153514Y-73609401D01*
X190047321Y-73562512D01*
X190021357Y-73559500D01*
X189533651Y-73559500D01*
X189533627Y-73559502D01*
X189507685Y-73562510D01*
X189507675Y-73562513D01*
X189401486Y-73609400D01*
X189319400Y-73691486D01*
X189311145Y-73710183D01*
X189266058Y-73763558D01*
X189199272Y-73784084D01*
X189131990Y-73765244D01*
X189086375Y-73714684D01*
X189065065Y-73671222D01*
X189019610Y-73618188D01*
X189014646Y-73612669D01*
X189014645Y-73612668D01*
X188946141Y-73570404D01*
X188879211Y-73550359D01*
X188879208Y-73550358D01*
X188844753Y-73545214D01*
X188835438Y-73543824D01*
X188826950Y-73543778D01*
X187231554Y-73535153D01*
X187200517Y-73538110D01*
X187152009Y-73547711D01*
X187152004Y-73547713D01*
X187084205Y-73579512D01*
X187029969Y-73623527D01*
X187024322Y-73628338D01*
X187024321Y-73628339D01*
X187009624Y-73650787D01*
X186980230Y-73695686D01*
X186965308Y-73741043D01*
X186958397Y-73762050D01*
X186955932Y-73775987D01*
X186952463Y-73783844D01*
X186949500Y-73809384D01*
X186949500Y-73842492D01*
X186949285Y-73849156D01*
X186949284Y-73849166D01*
X186935552Y-74274877D01*
X186938762Y-74311710D01*
X186950742Y-74369016D01*
X186950743Y-74369021D01*
X186959952Y-74396329D01*
X186962557Y-74404054D01*
X187186716Y-74874788D01*
X187222127Y-74949152D01*
X187234170Y-75003107D01*
X187232780Y-75271252D01*
X187212749Y-75338188D01*
X187159708Y-75383669D01*
X187090499Y-75393254D01*
X187080714Y-75390542D01*
X187080700Y-75390615D01*
X187024822Y-75379500D01*
X187024820Y-75379500D01*
X186395180Y-75379500D01*
X186395178Y-75379500D01*
X186351282Y-75388231D01*
X186351275Y-75388234D01*
X186301496Y-75421495D01*
X186301495Y-75421496D01*
X186268234Y-75471275D01*
X186268231Y-75471282D01*
X186259500Y-75515177D01*
X186259500Y-75515180D01*
X186259500Y-76794820D01*
X186259500Y-76794822D01*
X186259499Y-76794822D01*
X184960500Y-76794822D01*
X184960500Y-75515177D01*
X184951768Y-75471282D01*
X184951767Y-75471281D01*
X184951767Y-75471278D01*
X184918504Y-75421496D01*
X184911198Y-75416614D01*
X184868724Y-75388234D01*
X184868718Y-75388231D01*
X184835306Y-75381585D01*
X184773396Y-75349199D01*
X184738823Y-75288482D01*
X184735500Y-75259968D01*
X184735500Y-74694499D01*
X184755185Y-74627460D01*
X184807989Y-74581705D01*
X184859500Y-74570499D01*
X185171348Y-74570499D01*
X185171356Y-74570499D01*
X185179726Y-74569528D01*
X185197314Y-74567489D01*
X185197315Y-74567488D01*
X185197320Y-74567488D01*
X185303514Y-74520599D01*
X185385599Y-74438514D01*
X185432488Y-74332320D01*
X185435500Y-74306357D01*
X185435499Y-73893644D01*
X185432488Y-73867680D01*
X185421366Y-73842492D01*
X185385599Y-73761486D01*
X185303514Y-73679401D01*
X185197321Y-73632512D01*
X185171357Y-73629500D01*
X184683651Y-73629500D01*
X184683627Y-73629502D01*
X184657685Y-73632510D01*
X184657675Y-73632513D01*
X184551486Y-73679400D01*
X184469402Y-73761484D01*
X184443433Y-73820297D01*
X184398346Y-73873672D01*
X184331560Y-73894199D01*
X184264278Y-73875360D01*
X184217862Y-73823136D01*
X184216598Y-73820369D01*
X184190599Y-73761486D01*
X184108514Y-73679401D01*
X184098080Y-73674794D01*
X184002321Y-73632512D01*
X183976357Y-73629500D01*
X183488651Y-73629500D01*
X183488627Y-73629502D01*
X183462685Y-73632510D01*
X183462675Y-73632513D01*
X183356486Y-73679400D01*
X183274401Y-73761485D01*
X183227512Y-73867678D01*
X183224500Y-73893639D01*
X183224500Y-74167020D01*
X183204815Y-74234059D01*
X183188182Y-74254701D01*
X182893942Y-74548943D01*
X182816443Y-74626442D01*
X182774500Y-74727699D01*
X182774500Y-74832955D01*
X182757887Y-74894956D01*
X182723386Y-74954711D01*
X182699500Y-75043856D01*
X172580000Y-75043856D01*
X172580000Y-74234500D01*
X172599685Y-74167461D01*
X172652489Y-74121706D01*
X172704000Y-74110500D01*
X173584822Y-74110500D01*
X173628717Y-74101768D01*
X173628717Y-74101767D01*
X173628722Y-74101767D01*
X173678504Y-74068504D01*
X173711767Y-74018722D01*
X173720500Y-73974820D01*
X173720500Y-73843856D01*
X174819500Y-73843856D01*
X174819500Y-73936144D01*
X174841627Y-74018724D01*
X174843387Y-74025290D01*
X174843387Y-74025291D01*
X174856498Y-74048000D01*
X174872971Y-74115901D01*
X174856498Y-74172000D01*
X174843387Y-74194708D01*
X174843387Y-74194709D01*
X174843387Y-74194710D01*
X174843386Y-74194712D01*
X174819500Y-74283856D01*
X174819500Y-74376144D01*
X174839450Y-74450599D01*
X174843387Y-74465290D01*
X174843388Y-74465293D01*
X174889526Y-74545205D01*
X174889529Y-74545209D01*
X174889531Y-74545212D01*
X174954788Y-74610469D01*
X174954791Y-74610470D01*
X174954794Y-74610473D01*
X175034706Y-74656611D01*
X175034707Y-74656611D01*
X175034712Y-74656614D01*
X175123856Y-74680500D01*
X175123858Y-74680500D01*
X175216142Y-74680500D01*
X175216144Y-74680500D01*
X175305288Y-74656614D01*
X175385212Y-74610469D01*
X175450469Y-74545212D01*
X175496614Y-74465288D01*
X175520500Y-74376144D01*
X175520500Y-74283856D01*
X175496614Y-74194712D01*
X175483501Y-74172001D01*
X175467028Y-74104102D01*
X175483502Y-74047998D01*
X175496416Y-74025631D01*
X175496614Y-74025288D01*
X175520500Y-73936144D01*
X175520500Y-73844196D01*
X181190994Y-73844196D01*
X181190994Y-73936483D01*
X181214880Y-74025628D01*
X181254468Y-74094195D01*
X181270941Y-74162095D01*
X181254468Y-74218196D01*
X181233387Y-74254708D01*
X181233387Y-74254709D01*
X181233386Y-74254711D01*
X181233386Y-74254712D01*
X181209500Y-74343856D01*
X181209500Y-74436144D01*
X181232600Y-74522355D01*
X181233387Y-74525290D01*
X181233388Y-74525293D01*
X181279526Y-74605205D01*
X181279529Y-74605209D01*
X181279531Y-74605212D01*
X181344788Y-74670469D01*
X181344791Y-74670470D01*
X181344794Y-74670473D01*
X181424706Y-74716611D01*
X181424707Y-74716611D01*
X181424712Y-74716614D01*
X181513856Y-74740500D01*
X181513858Y-74740500D01*
X181606142Y-74740500D01*
X181606144Y-74740500D01*
X181695288Y-74716614D01*
X181775212Y-74670469D01*
X181840469Y-74605212D01*
X181886614Y-74525288D01*
X181910500Y-74436144D01*
X181910500Y-74343856D01*
X181886614Y-74254712D01*
X181886608Y-74254701D01*
X181847026Y-74186144D01*
X181830552Y-74118244D01*
X181847027Y-74062140D01*
X181868106Y-74025631D01*
X181868108Y-74025628D01*
X181891994Y-73936484D01*
X181891994Y-73844196D01*
X181868108Y-73755052D01*
X181867910Y-73754709D01*
X181821967Y-73675134D01*
X181821964Y-73675131D01*
X181821963Y-73675128D01*
X181756706Y-73609871D01*
X181756703Y-73609869D01*
X181756699Y-73609866D01*
X181676787Y-73563728D01*
X181676784Y-73563727D01*
X181676783Y-73563726D01*
X181676782Y-73563726D01*
X181587638Y-73539840D01*
X181495350Y-73539840D01*
X181406206Y-73563726D01*
X181406205Y-73563726D01*
X181406203Y-73563727D01*
X181406200Y-73563728D01*
X181326288Y-73609866D01*
X181326279Y-73609873D01*
X181261027Y-73675125D01*
X181261020Y-73675134D01*
X181214882Y-73755046D01*
X181214881Y-73755049D01*
X181214880Y-73755051D01*
X181214880Y-73755052D01*
X181207165Y-73783844D01*
X181190994Y-73844196D01*
X175520500Y-73844196D01*
X175520500Y-73843856D01*
X175496614Y-73754712D01*
X175496611Y-73754706D01*
X175450473Y-73674794D01*
X175450470Y-73674791D01*
X175450469Y-73674788D01*
X175385212Y-73609531D01*
X175385209Y-73609529D01*
X175385205Y-73609526D01*
X175305293Y-73563388D01*
X175305290Y-73563387D01*
X175305289Y-73563386D01*
X175305288Y-73563386D01*
X175216144Y-73539500D01*
X175123856Y-73539500D01*
X175034712Y-73563386D01*
X175034711Y-73563386D01*
X175034709Y-73563387D01*
X175034706Y-73563388D01*
X174954794Y-73609526D01*
X174954785Y-73609533D01*
X174889533Y-73674785D01*
X174889526Y-73674794D01*
X174843388Y-73754706D01*
X174843387Y-73754709D01*
X174843386Y-73754711D01*
X174843386Y-73754712D01*
X174819500Y-73843856D01*
X173720500Y-73843856D01*
X173720500Y-73064500D01*
X173740185Y-72997461D01*
X173792989Y-72951706D01*
X173844500Y-72940500D01*
X174889060Y-72940500D01*
X174900000Y-73400000D01*
G37*
%TD.AperFunction*%
%TD*%
%TA.AperFunction,Conductor*%
%TO.N,GND*%
G36*
X177899500Y-94219107D02*
G01*
X177899464Y-94238825D01*
X177899500Y-94238912D01*
X177899500Y-96575500D01*
X177879815Y-96642539D01*
X177827011Y-96688294D01*
X177775500Y-96699500D01*
X175624493Y-96699500D01*
X175557454Y-96679815D01*
X175511699Y-96627011D01*
X175500493Y-96575501D01*
X175500467Y-94215606D01*
X175500467Y-94215387D01*
X175500494Y-94200000D01*
X177899500Y-94200000D01*
X177899500Y-94219107D01*
G37*
%TD.AperFunction*%
%TA.AperFunction,Conductor*%
G36*
X190670436Y-94204224D02*
G01*
X190693856Y-94210500D01*
X190693858Y-94210500D01*
X190786142Y-94210500D01*
X190786144Y-94210500D01*
X190809563Y-94204224D01*
X190841655Y-94200000D01*
X191921023Y-94200000D01*
X191953116Y-94204225D01*
X191960405Y-94206178D01*
X192013856Y-94220500D01*
X192013858Y-94220500D01*
X192106142Y-94220500D01*
X192106144Y-94220500D01*
X192159595Y-94206178D01*
X192166884Y-94204225D01*
X192198977Y-94200000D01*
X192275500Y-94200000D01*
X192342539Y-94219685D01*
X192388294Y-94272489D01*
X192399500Y-94324000D01*
X192399500Y-96575500D01*
X192379815Y-96642539D01*
X192327011Y-96688294D01*
X192275500Y-96699500D01*
X190124494Y-96699500D01*
X190057455Y-96679815D01*
X190011700Y-96627011D01*
X190000494Y-96575504D01*
X190000429Y-94341088D01*
X190000428Y-94324002D01*
X190020111Y-94256964D01*
X190072913Y-94211207D01*
X190124428Y-94200000D01*
X190638345Y-94200000D01*
X190670436Y-94204224D01*
G37*
%TD.AperFunction*%
%TD*%
%TA.AperFunction,Conductor*%
%TO.N,GND*%
G36*
X177842539Y-70220185D02*
G01*
X177888294Y-70272989D01*
X177899500Y-70324500D01*
X177899500Y-72859992D01*
X177914799Y-72896928D01*
X177914800Y-72896929D01*
X177943071Y-72925200D01*
X177980009Y-72940500D01*
X177980011Y-72940500D01*
X189919989Y-72940500D01*
X189919991Y-72940500D01*
X189956929Y-72925200D01*
X189985200Y-72896929D01*
X190000500Y-72859991D01*
X190000500Y-70424500D01*
X190020185Y-70357461D01*
X190072989Y-70311706D01*
X190124500Y-70300500D01*
X192275500Y-70300500D01*
X192342539Y-70320185D01*
X192388294Y-70372989D01*
X192399500Y-70424500D01*
X192399500Y-72859992D01*
X192414799Y-72896928D01*
X192414800Y-72896929D01*
X192443071Y-72925200D01*
X192480009Y-72940500D01*
X192519991Y-72940500D01*
X193393822Y-72940500D01*
X193400000Y-73200000D01*
X174900000Y-73400000D01*
X174889060Y-72940500D01*
X175419989Y-72940500D01*
X175419991Y-72940500D01*
X175456929Y-72925200D01*
X175485200Y-72896929D01*
X175500500Y-72859991D01*
X175500500Y-70324500D01*
X175520185Y-70257461D01*
X175572989Y-70211706D01*
X175624500Y-70200500D01*
X177775500Y-70200500D01*
X177842539Y-70220185D01*
G37*
%TD.AperFunction*%
%TD*%
%TA.AperFunction,Conductor*%
%TO.N,LPUART1_TX_RADIO*%
G36*
X186940427Y-90430551D02*
G01*
X187259211Y-90587833D01*
X187265114Y-90594566D01*
X187264526Y-90603502D01*
X187263794Y-90604777D01*
X187162023Y-90758715D01*
X187158715Y-90762023D01*
X187004777Y-90863794D01*
X186995986Y-90865498D01*
X186988565Y-90860486D01*
X186987833Y-90859211D01*
X186939882Y-90762023D01*
X186830551Y-90540427D01*
X186829964Y-90531492D01*
X186832769Y-90526980D01*
X186926979Y-90432770D01*
X186935251Y-90429344D01*
X186940427Y-90430551D01*
G37*
%TD.AperFunction*%
%TD*%
M02*
