%TF.GenerationSoftware,KiCad,Pcbnew,9.0.0*%
%TF.CreationDate,2025-03-28T18:18:21+01:00*%
%TF.ProjectId,cansatperso,63616e73-6174-4706-9572-736f2e6b6963,rev?*%
%TF.SameCoordinates,Original*%
%TF.FileFunction,Legend,Bot*%
%TF.FilePolarity,Positive*%
%FSLAX46Y46*%
G04 Gerber Fmt 4.6, Leading zero omitted, Abs format (unit mm)*
G04 Created by KiCad (PCBNEW 9.0.0) date 2025-03-28 18:18:21*
%MOMM*%
%LPD*%
G01*
G04 APERTURE LIST*
%ADD10C,0.100000*%
%ADD11C,0.254000*%
%ADD12C,0.120000*%
%ADD13C,0.200000*%
%ADD14C,0.250000*%
%ADD15C,0.000000*%
G04 APERTURE END LIST*
D10*
X192834836Y-77133609D02*
X192834836Y-76800276D01*
X192834836Y-76895514D02*
X192858646Y-76847895D01*
X192858646Y-76847895D02*
X192882455Y-76824085D01*
X192882455Y-76824085D02*
X192930074Y-76800276D01*
X192930074Y-76800276D02*
X192977693Y-76800276D01*
X193358646Y-77133609D02*
X193358646Y-76871704D01*
X193358646Y-76871704D02*
X193334836Y-76824085D01*
X193334836Y-76824085D02*
X193287217Y-76800276D01*
X193287217Y-76800276D02*
X193191979Y-76800276D01*
X193191979Y-76800276D02*
X193144360Y-76824085D01*
X193358646Y-77109800D02*
X193311027Y-77133609D01*
X193311027Y-77133609D02*
X193191979Y-77133609D01*
X193191979Y-77133609D02*
X193144360Y-77109800D01*
X193144360Y-77109800D02*
X193120551Y-77062180D01*
X193120551Y-77062180D02*
X193120551Y-77014561D01*
X193120551Y-77014561D02*
X193144360Y-76966942D01*
X193144360Y-76966942D02*
X193191979Y-76943133D01*
X193191979Y-76943133D02*
X193311027Y-76943133D01*
X193311027Y-76943133D02*
X193358646Y-76919323D01*
X193811027Y-77133609D02*
X193811027Y-76633609D01*
X193811027Y-77109800D02*
X193763408Y-77133609D01*
X193763408Y-77133609D02*
X193668170Y-77133609D01*
X193668170Y-77133609D02*
X193620551Y-77109800D01*
X193620551Y-77109800D02*
X193596741Y-77085990D01*
X193596741Y-77085990D02*
X193572932Y-77038371D01*
X193572932Y-77038371D02*
X193572932Y-76895514D01*
X193572932Y-76895514D02*
X193596741Y-76847895D01*
X193596741Y-76847895D02*
X193620551Y-76824085D01*
X193620551Y-76824085D02*
X193668170Y-76800276D01*
X193668170Y-76800276D02*
X193763408Y-76800276D01*
X193763408Y-76800276D02*
X193811027Y-76824085D01*
X194049122Y-77133609D02*
X194049122Y-76800276D01*
X194049122Y-76633609D02*
X194025313Y-76657419D01*
X194025313Y-76657419D02*
X194049122Y-76681228D01*
X194049122Y-76681228D02*
X194072932Y-76657419D01*
X194072932Y-76657419D02*
X194049122Y-76633609D01*
X194049122Y-76633609D02*
X194049122Y-76681228D01*
X194358646Y-77133609D02*
X194311027Y-77109800D01*
X194311027Y-77109800D02*
X194287217Y-77085990D01*
X194287217Y-77085990D02*
X194263408Y-77038371D01*
X194263408Y-77038371D02*
X194263408Y-76895514D01*
X194263408Y-76895514D02*
X194287217Y-76847895D01*
X194287217Y-76847895D02*
X194311027Y-76824085D01*
X194311027Y-76824085D02*
X194358646Y-76800276D01*
X194358646Y-76800276D02*
X194430074Y-76800276D01*
X194430074Y-76800276D02*
X194477693Y-76824085D01*
X194477693Y-76824085D02*
X194501503Y-76847895D01*
X194501503Y-76847895D02*
X194525312Y-76895514D01*
X194525312Y-76895514D02*
X194525312Y-77038371D01*
X194525312Y-77038371D02*
X194501503Y-77085990D01*
X194501503Y-77085990D02*
X194477693Y-77109800D01*
X194477693Y-77109800D02*
X194430074Y-77133609D01*
X194430074Y-77133609D02*
X194358646Y-77133609D01*
X193229122Y-77450276D02*
X193229122Y-77855038D01*
X193229122Y-77855038D02*
X193205312Y-77902657D01*
X193205312Y-77902657D02*
X193181503Y-77926466D01*
X193181503Y-77926466D02*
X193133884Y-77950276D01*
X193133884Y-77950276D02*
X193062455Y-77950276D01*
X193062455Y-77950276D02*
X193014836Y-77926466D01*
X193229122Y-77759800D02*
X193181503Y-77783609D01*
X193181503Y-77783609D02*
X193086265Y-77783609D01*
X193086265Y-77783609D02*
X193038646Y-77759800D01*
X193038646Y-77759800D02*
X193014836Y-77735990D01*
X193014836Y-77735990D02*
X192991027Y-77688371D01*
X192991027Y-77688371D02*
X192991027Y-77545514D01*
X192991027Y-77545514D02*
X193014836Y-77497895D01*
X193014836Y-77497895D02*
X193038646Y-77474085D01*
X193038646Y-77474085D02*
X193086265Y-77450276D01*
X193086265Y-77450276D02*
X193181503Y-77450276D01*
X193181503Y-77450276D02*
X193229122Y-77474085D01*
X193467217Y-77450276D02*
X193467217Y-77950276D01*
X193467217Y-77474085D02*
X193514836Y-77450276D01*
X193514836Y-77450276D02*
X193610074Y-77450276D01*
X193610074Y-77450276D02*
X193657693Y-77474085D01*
X193657693Y-77474085D02*
X193681503Y-77497895D01*
X193681503Y-77497895D02*
X193705312Y-77545514D01*
X193705312Y-77545514D02*
X193705312Y-77688371D01*
X193705312Y-77688371D02*
X193681503Y-77735990D01*
X193681503Y-77735990D02*
X193657693Y-77759800D01*
X193657693Y-77759800D02*
X193610074Y-77783609D01*
X193610074Y-77783609D02*
X193514836Y-77783609D01*
X193514836Y-77783609D02*
X193467217Y-77759800D01*
X193895789Y-77759800D02*
X193943408Y-77783609D01*
X193943408Y-77783609D02*
X194038646Y-77783609D01*
X194038646Y-77783609D02*
X194086265Y-77759800D01*
X194086265Y-77759800D02*
X194110074Y-77712180D01*
X194110074Y-77712180D02*
X194110074Y-77688371D01*
X194110074Y-77688371D02*
X194086265Y-77640752D01*
X194086265Y-77640752D02*
X194038646Y-77616942D01*
X194038646Y-77616942D02*
X193967217Y-77616942D01*
X193967217Y-77616942D02*
X193919598Y-77593133D01*
X193919598Y-77593133D02*
X193895789Y-77545514D01*
X193895789Y-77545514D02*
X193895789Y-77521704D01*
X193895789Y-77521704D02*
X193919598Y-77474085D01*
X193919598Y-77474085D02*
X193967217Y-77450276D01*
X193967217Y-77450276D02*
X194038646Y-77450276D01*
X194038646Y-77450276D02*
X194086265Y-77474085D01*
D11*
X180634318Y-78408333D02*
X180634318Y-77803571D01*
X180634318Y-77803571D02*
X179364318Y-77803571D01*
X179485270Y-78771190D02*
X179424794Y-78831666D01*
X179424794Y-78831666D02*
X179364318Y-78952619D01*
X179364318Y-78952619D02*
X179364318Y-79255000D01*
X179364318Y-79255000D02*
X179424794Y-79375952D01*
X179424794Y-79375952D02*
X179485270Y-79436428D01*
X179485270Y-79436428D02*
X179606222Y-79496905D01*
X179606222Y-79496905D02*
X179727175Y-79496905D01*
X179727175Y-79496905D02*
X179908603Y-79436428D01*
X179908603Y-79436428D02*
X180634318Y-78710714D01*
X180634318Y-78710714D02*
X180634318Y-79496905D01*
D12*
%TO.C,C19*%
X194270000Y-87754165D02*
X194270000Y-87985835D01*
X194990000Y-87754165D02*
X194990000Y-87985835D01*
%TO.C,C21*%
X188461665Y-91890000D02*
X188693335Y-91890000D01*
X188461665Y-92610000D02*
X188693335Y-92610000D01*
%TO.C,R16*%
X186120000Y-87117621D02*
X186120000Y-86782379D01*
X186880000Y-87117621D02*
X186880000Y-86782379D01*
%TO.C,C27*%
X187120000Y-86525835D02*
X187120000Y-86294165D01*
X187840000Y-86525835D02*
X187840000Y-86294165D01*
%TO.C,J3*%
X190230000Y-84470000D02*
X191220000Y-84470000D01*
X191220000Y-79300000D02*
X192370000Y-79300000D01*
X191220000Y-80350000D02*
X191220000Y-79300000D01*
X191220000Y-84470000D02*
X191220000Y-85520000D01*
X191220000Y-85520000D02*
X192370000Y-85520000D01*
X194340000Y-80470000D02*
X194340000Y-84350000D01*
%TO.C,R15*%
X185897621Y-88190000D02*
X185562379Y-88190000D01*
X185897621Y-88950000D02*
X185562379Y-88950000D01*
D13*
%TO.C,L2*%
X176410000Y-74970000D02*
X176410000Y-82270000D01*
X183710000Y-82270000D02*
X183710000Y-74970000D01*
D12*
%TO.C,C29*%
X187391252Y-78840000D02*
X185968748Y-78840000D01*
X187391252Y-81560000D02*
X185968748Y-81560000D01*
%TO.C,C28*%
X188405835Y-82020000D02*
X188174165Y-82020000D01*
X188405835Y-82740000D02*
X188174165Y-82740000D01*
%TO.C,R11*%
X183820000Y-92442379D02*
X183820000Y-92777621D01*
X184580000Y-92442379D02*
X184580000Y-92777621D01*
%TO.C,J4*%
X185130000Y-76840000D02*
X185130000Y-75690000D01*
X186180000Y-76840000D02*
X185130000Y-76840000D01*
X186300000Y-73720000D02*
X190180000Y-73720000D01*
X190300000Y-76840000D02*
X191350000Y-76840000D01*
X190300000Y-77830000D02*
X190300000Y-76840000D01*
X191350000Y-76840000D02*
X191350000Y-75690000D01*
%TO.C,C25*%
X183615835Y-88170000D02*
X183384165Y-88170000D01*
X183615835Y-88890000D02*
X183384165Y-88890000D01*
D14*
%TO.C,IC5*%
X193950000Y-90670000D02*
G75*
G02*
X193700000Y-90670000I-125000J0D01*
G01*
X193700000Y-90670000D02*
G75*
G02*
X193950000Y-90670000I125000J0D01*
G01*
D12*
%TO.C,R22*%
X174050000Y-82077621D02*
X174050000Y-81742379D01*
X174810000Y-82077621D02*
X174810000Y-81742379D01*
%TO.C,R4*%
X185580000Y-93235121D02*
X185580000Y-92899879D01*
X186340000Y-93235121D02*
X186340000Y-92899879D01*
%TO.C,D1*%
X173815000Y-73930000D02*
X173815000Y-76390000D01*
X173815000Y-76390000D02*
X175285000Y-76390000D01*
X175285000Y-76390000D02*
X175285000Y-73930000D01*
D15*
%TO.C,G\u002A\u002A\u002A*%
G36*
X192260981Y-76190424D02*
G01*
X192329351Y-76231145D01*
X192317737Y-76264231D01*
X192235265Y-76279618D01*
X192152789Y-76267274D01*
X192111221Y-76231145D01*
X192128106Y-76203522D01*
X192205307Y-76182671D01*
X192260981Y-76190424D01*
G37*
G36*
X192256641Y-76010154D02*
G01*
X192250708Y-76046269D01*
X192208168Y-76085725D01*
X192196667Y-76084419D01*
X192159694Y-76040112D01*
X192161543Y-76026513D01*
X192208168Y-75964542D01*
X192233142Y-75959981D01*
X192256641Y-76010154D01*
G37*
G36*
X193978934Y-75988786D02*
G01*
X193995006Y-76032010D01*
X194001679Y-76134198D01*
X194000577Y-76173604D01*
X193975220Y-76257302D01*
X193903488Y-76279618D01*
X193898994Y-76279612D01*
X193838981Y-76272068D01*
X193834204Y-76232380D01*
X193880496Y-76134198D01*
X193887560Y-76120729D01*
X193943354Y-76027105D01*
X193978687Y-75988778D01*
X193978934Y-75988786D01*
G37*
G36*
X192705447Y-73177735D02*
G01*
X192902178Y-73181819D01*
X193039609Y-73193678D01*
X193140697Y-73217365D01*
X193228401Y-73256936D01*
X193325681Y-73316446D01*
X193461078Y-73411448D01*
X193665628Y-73591170D01*
X193811809Y-73770705D01*
X193883678Y-73932453D01*
X193893666Y-73999068D01*
X193873756Y-74080263D01*
X193785395Y-74137132D01*
X193592178Y-74190432D01*
X193348087Y-74167591D01*
X193088172Y-74049847D01*
X192986328Y-73989404D01*
X192864755Y-73926760D01*
X192807508Y-73911629D01*
X192820846Y-73944812D01*
X192911030Y-74027113D01*
X192959945Y-74070375D01*
X193000999Y-74129554D01*
X192962915Y-74145461D01*
X192851059Y-74117682D01*
X192670797Y-74045797D01*
X192584525Y-74010187D01*
X192472107Y-73973418D01*
X192417689Y-73969587D01*
X192414451Y-73977036D01*
X192452777Y-74024937D01*
X192557375Y-74095650D01*
X192709432Y-74178676D01*
X192890140Y-74263515D01*
X193080687Y-74339667D01*
X193244595Y-74400530D01*
X193385542Y-74462390D01*
X193469048Y-74520311D01*
X193514599Y-74588774D01*
X193541679Y-74682260D01*
X193553388Y-74853723D01*
X193490673Y-74997417D01*
X193344176Y-75096448D01*
X193077770Y-75158260D01*
X192771014Y-75140698D01*
X192441412Y-75043630D01*
X192290128Y-74986097D01*
X192174369Y-74949649D01*
X192122445Y-74943458D01*
X192111968Y-74960501D01*
X192137645Y-75023584D01*
X192234857Y-75099339D01*
X192386779Y-75179670D01*
X192576586Y-75256476D01*
X192787452Y-75321658D01*
X193002554Y-75367117D01*
X193013505Y-75368801D01*
X193288216Y-75393264D01*
X193491691Y-75368234D01*
X193637916Y-75289665D01*
X193740880Y-75153509D01*
X193780288Y-75027358D01*
X193786568Y-74853347D01*
X193752727Y-74690868D01*
X193682814Y-74579908D01*
X193623740Y-74513310D01*
X193634631Y-74457726D01*
X193735076Y-74437633D01*
X193756622Y-74436637D01*
X193898951Y-74381970D01*
X194007166Y-74266197D01*
X194050152Y-74120626D01*
X194030296Y-73976982D01*
X193922927Y-73750403D01*
X193726376Y-73524544D01*
X193445102Y-73305413D01*
X193252075Y-73177328D01*
X194087373Y-73177328D01*
X194922671Y-73177328D01*
X194922671Y-74728473D01*
X194922671Y-76279618D01*
X194777252Y-76279618D01*
X194775028Y-76279618D01*
X194692856Y-76274867D01*
X194650276Y-76244757D01*
X194634274Y-76165427D01*
X194631832Y-76013015D01*
X194631832Y-75746412D01*
X194462175Y-75746412D01*
X194439910Y-75746830D01*
X194335131Y-75762846D01*
X194292519Y-75794885D01*
X194322606Y-75826765D01*
X194413702Y-75843358D01*
X194493403Y-75855393D01*
X194534885Y-75891832D01*
X194504798Y-75923712D01*
X194413702Y-75940305D01*
X194334001Y-75952340D01*
X194292519Y-75988778D01*
X194322606Y-76020658D01*
X194413702Y-76037251D01*
X194492747Y-76051482D01*
X194534885Y-76109961D01*
X194511167Y-76157389D01*
X194413702Y-76182671D01*
X194334001Y-76194706D01*
X194292519Y-76231145D01*
X194285206Y-76252625D01*
X194222342Y-76279618D01*
X194190349Y-76266660D01*
X194155993Y-76187697D01*
X194137514Y-76025587D01*
X194136333Y-76007228D01*
X194107824Y-75839420D01*
X194055141Y-75760362D01*
X193982413Y-75772547D01*
X193893769Y-75878467D01*
X193810366Y-76013015D01*
X193809076Y-75875674D01*
X193796072Y-75772449D01*
X193765050Y-75745171D01*
X193726829Y-75786867D01*
X193692200Y-75885478D01*
X193671951Y-76028943D01*
X193669225Y-76071309D01*
X193652592Y-76202161D01*
X193620897Y-76264035D01*
X193564408Y-76279618D01*
X193507572Y-76267129D01*
X193499345Y-76207097D01*
X193506814Y-76177390D01*
X193478165Y-76152332D01*
X193376640Y-76164683D01*
X193286980Y-76174736D01*
X193231497Y-76155190D01*
X193259458Y-76109432D01*
X193371526Y-76052089D01*
X193484342Y-75981858D01*
X193512172Y-75892227D01*
X193446904Y-75797099D01*
X193418389Y-75778823D01*
X193311258Y-75754881D01*
X193204311Y-75771625D01*
X193143154Y-75824885D01*
X193158166Y-75857203D01*
X193248422Y-75855589D01*
X193330924Y-75852426D01*
X193371526Y-75886181D01*
X193366352Y-75907531D01*
X193308081Y-75940305D01*
X193249421Y-75955000D01*
X193150543Y-76010063D01*
X193125262Y-76029824D01*
X193083365Y-76093994D01*
X193117452Y-76179719D01*
X193144250Y-76227623D01*
X193140940Y-76270959D01*
X193056861Y-76279618D01*
X192995920Y-76275237D01*
X192955009Y-76245192D01*
X192938399Y-76165694D01*
X192935267Y-76013015D01*
X192935267Y-75746412D01*
X192765610Y-75746412D01*
X192743345Y-75746830D01*
X192638566Y-75762846D01*
X192595954Y-75794885D01*
X192612839Y-75822508D01*
X192690040Y-75843358D01*
X192745714Y-75851111D01*
X192814084Y-75891832D01*
X192802470Y-75924918D01*
X192719998Y-75940305D01*
X192684016Y-75942049D01*
X192606621Y-75970079D01*
X192612436Y-76013096D01*
X192705019Y-76045998D01*
X192772856Y-76066220D01*
X192814084Y-76109961D01*
X192790263Y-76143494D01*
X192705019Y-76173924D01*
X192637169Y-76193415D01*
X192595954Y-76234516D01*
X192591091Y-76251889D01*
X192533282Y-76279618D01*
X192496865Y-76252703D01*
X192438194Y-76155240D01*
X192379339Y-76011102D01*
X192345703Y-75920815D01*
X192274311Y-75793288D01*
X192203847Y-75762304D01*
X192131506Y-75827673D01*
X192054488Y-75989207D01*
X192041957Y-76021437D01*
X192021214Y-76068111D01*
X192004936Y-76086101D01*
X191992555Y-76066874D01*
X191983507Y-76001897D01*
X191977225Y-75882637D01*
X191973143Y-75700563D01*
X191970695Y-75447140D01*
X191969315Y-75113836D01*
X191968437Y-74692118D01*
X191965801Y-73177328D01*
X192537991Y-73177328D01*
X192705447Y-73177735D01*
G37*
D12*
%TO.C,C24*%
X180720000Y-92241252D02*
X180720000Y-90818748D01*
X183440000Y-92241252D02*
X183440000Y-90818748D01*
%TO.C,R3*%
X174010000Y-78002379D02*
X174010000Y-78337621D01*
X174770000Y-78002379D02*
X174770000Y-78337621D01*
%TO.C,C20*%
X194220000Y-90815835D02*
X194220000Y-90584165D01*
X194940000Y-90815835D02*
X194940000Y-90584165D01*
%TO.C,R19*%
X187590000Y-89827621D02*
X187590000Y-89492379D01*
X188350000Y-89827621D02*
X188350000Y-89492379D01*
%TO.C,R21*%
X174100000Y-84717621D02*
X174100000Y-84382379D01*
X174860000Y-84717621D02*
X174860000Y-84382379D01*
D14*
%TO.C,IC2*%
X193860000Y-86920000D02*
G75*
G02*
X193610000Y-86920000I-125000J0D01*
G01*
X193610000Y-86920000D02*
G75*
G02*
X193860000Y-86920000I125000J0D01*
G01*
D12*
%TO.C,C26*%
X186170000Y-84835835D02*
X186170000Y-84604165D01*
X186890000Y-84835835D02*
X186890000Y-84604165D01*
%TO.C,C18*%
X188464165Y-90920000D02*
X188695835Y-90920000D01*
X188464165Y-91640000D02*
X188695835Y-91640000D01*
%TO.C,D5*%
X183765000Y-89735000D02*
X183765000Y-91205000D01*
X183765000Y-91205000D02*
X186225000Y-91205000D01*
X186225000Y-89735000D02*
X183765000Y-89735000D01*
%TO.C,R17*%
X188510000Y-86587621D02*
X188510000Y-86252379D01*
X189270000Y-86587621D02*
X189270000Y-86252379D01*
%TO.C,D2*%
X175780000Y-91910000D02*
X175780000Y-84500000D01*
X180080000Y-84500000D02*
X175780000Y-84500000D01*
X180080000Y-91910000D02*
X180080000Y-84500000D01*
%TO.C,R1*%
X194200000Y-92772379D02*
X194200000Y-93107621D01*
X194960000Y-92772379D02*
X194960000Y-93107621D01*
%TO.C,R18*%
X188770000Y-89502379D02*
X188770000Y-89837621D01*
X189530000Y-89502379D02*
X189530000Y-89837621D01*
D14*
%TO.C,IC3*%
X182565000Y-84010000D02*
G75*
G02*
X182315000Y-84010000I-125000J0D01*
G01*
X182315000Y-84010000D02*
G75*
G02*
X182565000Y-84010000I125000J0D01*
G01*
%TD*%
M02*
