%TF.GenerationSoftware,KiCad,Pcbnew,8.0.5*%
%TF.CreationDate,2025-02-13T02:53:00+01:00*%
%TF.ProjectId,cansatperso,63616e73-6174-4706-9572-736f2e6b6963,rev?*%
%TF.SameCoordinates,Original*%
%TF.FileFunction,Copper,L2,Inr*%
%TF.FilePolarity,Positive*%
%FSLAX46Y46*%
G04 Gerber Fmt 4.6, Leading zero omitted, Abs format (unit mm)*
G04 Created by KiCad (PCBNEW 8.0.5) date 2025-02-13 02:53:00*
%MOMM*%
%LPD*%
G01*
G04 APERTURE LIST*
G04 Aperture macros list*
%AMRoundRect*
0 Rectangle with rounded corners*
0 $1 Rounding radius*
0 $2 $3 $4 $5 $6 $7 $8 $9 X,Y pos of 4 corners*
0 Add a 4 corners polygon primitive as box body*
4,1,4,$2,$3,$4,$5,$6,$7,$8,$9,$2,$3,0*
0 Add four circle primitives for the rounded corners*
1,1,$1+$1,$2,$3*
1,1,$1+$1,$4,$5*
1,1,$1+$1,$6,$7*
1,1,$1+$1,$8,$9*
0 Add four rect primitives between the rounded corners*
20,1,$1+$1,$2,$3,$4,$5,0*
20,1,$1+$1,$4,$5,$6,$7,0*
20,1,$1+$1,$6,$7,$8,$9,0*
20,1,$1+$1,$8,$9,$2,$3,0*%
G04 Aperture macros list end*
%TA.AperFunction,ComponentPad*%
%ADD10C,1.000000*%
%TD*%
%TA.AperFunction,ComponentPad*%
%ADD11C,2.200000*%
%TD*%
%TA.AperFunction,ComponentPad*%
%ADD12RoundRect,0.250000X-0.725000X0.600000X-0.725000X-0.600000X0.725000X-0.600000X0.725000X0.600000X0*%
%TD*%
%TA.AperFunction,ComponentPad*%
%ADD13O,1.950000X1.700000*%
%TD*%
%TA.AperFunction,ComponentPad*%
%ADD14R,1.700000X1.700000*%
%TD*%
%TA.AperFunction,ComponentPad*%
%ADD15O,1.700000X1.700000*%
%TD*%
%TA.AperFunction,ComponentPad*%
%ADD16O,1.800000X1.000000*%
%TD*%
%TA.AperFunction,ComponentPad*%
%ADD17O,2.100000X1.000000*%
%TD*%
%TA.AperFunction,ViaPad*%
%ADD18C,0.400000*%
%TD*%
%TA.AperFunction,Conductor*%
%ADD19C,0.150000*%
%TD*%
G04 APERTURE END LIST*
D10*
%TO.N,GND*%
%TO.C,TP1*%
X165290000Y-74530000D03*
%TD*%
D11*
%TO.N,GND*%
%TO.C,H1*%
X176440000Y-95500000D03*
%TD*%
D12*
%TO.N,GND*%
%TO.C,J1*%
X172420000Y-80450000D03*
D13*
%TO.N,unconnected-(J1-Pin_2-Pad2)*%
X172420000Y-82950000D03*
%TO.N,VIN*%
X172420000Y-85450000D03*
%TD*%
D10*
%TO.N,BAT+*%
%TO.C,TP2*%
X165250000Y-76550000D03*
%TD*%
D11*
%TO.N,GND*%
%TO.C,H2*%
X191170000Y-95590000D03*
%TD*%
%TO.N,GND*%
%TO.C,H4*%
X191140000Y-71470000D03*
%TD*%
%TO.N,GND*%
%TO.C,H3*%
X176450000Y-71450000D03*
%TD*%
D14*
%TO.N,GND*%
%TO.C,J3*%
X143770000Y-90515000D03*
D15*
%TO.N,+3.3V*%
X146310000Y-90515000D03*
%TO.N,OLED_SCL*%
X148850000Y-90515000D03*
%TO.N,OLED_SDA*%
X151390000Y-90515000D03*
%TD*%
D16*
%TO.N,GND*%
%TO.C,J4*%
X141095000Y-87130000D03*
D17*
X145275000Y-87130000D03*
D16*
X141095000Y-78490000D03*
D17*
X145275000Y-78490000D03*
%TD*%
D18*
%TO.N,GND*%
X190070000Y-77100000D03*
X175430000Y-80550000D03*
X185140000Y-77380000D03*
X188140000Y-93790000D03*
X142010000Y-81170000D03*
X160740000Y-86350000D03*
X162230000Y-80510000D03*
X184730000Y-85210000D03*
X153660000Y-84100000D03*
X172020000Y-93430000D03*
X171990000Y-92250000D03*
X172040000Y-89180000D03*
X141180000Y-80280000D03*
X144630000Y-84990000D03*
X170070000Y-80860000D03*
X194780000Y-75070000D03*
X162990000Y-88570000D03*
X192860000Y-73320000D03*
X161120000Y-87030000D03*
X156190000Y-82980000D03*
X156200000Y-84070000D03*
X192250000Y-88020000D03*
X154975000Y-81590000D03*
X141930000Y-86100000D03*
X145040000Y-76960000D03*
X196400000Y-93870000D03*
X152820000Y-91930000D03*
X182160000Y-85940000D03*
X178270000Y-92510000D03*
X164630000Y-90100000D03*
X195420000Y-89400000D03*
X162040000Y-87440000D03*
X154630000Y-85660000D03*
X176720000Y-74800000D03*
X163220000Y-81520000D03*
X188060000Y-80840000D03*
X164560000Y-73880000D03*
X158450000Y-79700000D03*
X147830166Y-85660166D03*
X195910000Y-81690000D03*
X173830000Y-76800000D03*
X186860000Y-77390000D03*
X145550000Y-76960000D03*
X147740000Y-82470000D03*
X169990000Y-82430000D03*
X150010000Y-80820000D03*
X146570000Y-76960000D03*
X161590000Y-91240000D03*
X192520000Y-77840000D03*
X148100000Y-76960000D03*
X148380000Y-88610000D03*
X195310000Y-81420000D03*
X163080000Y-91890000D03*
X147590000Y-76960000D03*
X143000000Y-76960000D03*
X160280000Y-80080000D03*
X181190000Y-88140000D03*
X148610000Y-76960000D03*
X157910000Y-89880000D03*
X161060000Y-75970000D03*
X141350000Y-89120000D03*
X153270000Y-74310000D03*
X185500000Y-89530000D03*
X157930000Y-89220000D03*
X195290000Y-81980000D03*
X195500000Y-91260000D03*
X170000000Y-85670000D03*
X185310000Y-75010000D03*
X178270000Y-93060000D03*
X161570000Y-91930000D03*
X163310000Y-79290000D03*
X165990000Y-73820000D03*
X191840000Y-80450000D03*
X152650000Y-89990000D03*
X141980000Y-76960000D03*
X156200000Y-83510000D03*
X162320000Y-91920000D03*
X186600000Y-74990000D03*
X186610000Y-77940000D03*
X193090000Y-80070000D03*
X179510000Y-87540000D03*
X186810000Y-92670000D03*
X182750000Y-85180000D03*
X196230000Y-90710000D03*
X142420000Y-90710000D03*
X163260000Y-82530000D03*
X196240000Y-91320000D03*
X146060000Y-76960000D03*
X151160000Y-76960000D03*
X174150000Y-89130000D03*
X144660000Y-80610000D03*
X196250000Y-89330000D03*
X186380000Y-89540000D03*
X156920000Y-80860000D03*
X155730000Y-75730000D03*
X183870000Y-86560000D03*
X185770000Y-86240000D03*
X177950000Y-80400000D03*
X144020000Y-76960000D03*
X192510000Y-77075000D03*
X194690000Y-73340000D03*
X174290000Y-93820000D03*
X182730000Y-75760000D03*
X148950000Y-81920000D03*
X149120000Y-76960000D03*
X179230000Y-84430000D03*
X151670000Y-76960000D03*
X159040000Y-81100000D03*
X153270000Y-75270000D03*
X158490000Y-90670000D03*
X153270000Y-76370000D03*
X191820000Y-87500000D03*
X149630000Y-76960000D03*
X162810000Y-86290000D03*
X158980000Y-84200000D03*
X190030000Y-78010000D03*
X142530000Y-79050000D03*
X151920000Y-91940000D03*
X176870000Y-73300000D03*
X143510000Y-76960000D03*
X162590000Y-84570000D03*
X189230000Y-87920000D03*
X150160000Y-88200000D03*
X146690000Y-86900000D03*
X174340000Y-78550000D03*
X174710000Y-93030000D03*
X183840000Y-85180000D03*
X140920000Y-85150000D03*
X147660000Y-91890000D03*
X153270000Y-75860000D03*
X187970000Y-90257500D03*
X140590000Y-79650000D03*
X162120000Y-82560000D03*
X158950000Y-79220000D03*
X141910000Y-85200000D03*
X143700000Y-91990000D03*
X187680000Y-73220000D03*
X184670000Y-89530000D03*
X190520000Y-80280000D03*
X158130000Y-77820000D03*
X169990000Y-87150000D03*
X162040000Y-85260000D03*
X184020004Y-93800000D03*
X153270000Y-73840000D03*
X148900000Y-80740000D03*
X159880000Y-82560000D03*
X196260000Y-90010000D03*
X161190000Y-81660000D03*
X154910000Y-86580000D03*
X182700000Y-93770000D03*
X143760000Y-88920000D03*
X147610000Y-83730000D03*
X163940000Y-74790000D03*
X164040000Y-75630000D03*
X154980000Y-89970000D03*
X189380000Y-73200000D03*
X174340000Y-80170000D03*
X185010000Y-93780000D03*
X182750000Y-86610000D03*
X166020000Y-75460000D03*
X181370000Y-87230000D03*
X140700000Y-81170000D03*
X189740000Y-75000000D03*
X177790000Y-84460000D03*
X142410000Y-88090000D03*
X140960000Y-76960000D03*
X181450000Y-79430000D03*
X158970000Y-77290000D03*
X162140000Y-81560000D03*
X151720000Y-82800000D03*
X147080000Y-76960000D03*
X143210000Y-81200000D03*
X143550000Y-87740000D03*
X145080000Y-91980000D03*
X141470000Y-76960000D03*
X182260000Y-78635000D03*
X156530000Y-75980000D03*
X145280000Y-89320000D03*
X142490000Y-76960000D03*
X185670000Y-85170000D03*
X185740000Y-77990000D03*
X181825000Y-86735000D03*
X143250000Y-77940000D03*
X159460000Y-86320000D03*
X169990000Y-84030000D03*
X153270000Y-74800000D03*
X181000000Y-93770000D03*
X142410000Y-80220000D03*
X150650000Y-76960000D03*
X159000000Y-77810000D03*
X147610000Y-89440000D03*
X175340000Y-93810000D03*
X140450000Y-76960000D03*
X161240000Y-80060000D03*
X161180000Y-84630000D03*
X162010000Y-78220000D03*
X150140000Y-76960000D03*
X151100000Y-81520000D03*
X159500000Y-83150000D03*
X144030000Y-81490000D03*
X162260000Y-79290000D03*
X144530000Y-76960000D03*
X153070000Y-76920000D03*
X184300000Y-73230000D03*
X151150000Y-82410000D03*
X186010000Y-73210000D03*
X187650000Y-78890000D03*
X172180000Y-73260000D03*
X140900000Y-86120000D03*
X178890000Y-93060000D03*
X192600000Y-87500000D03*
X163210000Y-80470000D03*
%TO.N,+3.3V*%
X174080000Y-90160000D03*
X192500000Y-83785000D03*
X174630000Y-79100000D03*
X165280000Y-87660000D03*
X155250000Y-77590000D03*
X190080000Y-88950000D03*
X155325000Y-77080000D03*
X155760000Y-77540000D03*
X180500000Y-79960000D03*
X157150000Y-87340000D03*
X152720000Y-88960000D03*
X157890000Y-83220000D03*
X152982503Y-80229917D03*
X193340000Y-86580000D03*
X148400000Y-79110000D03*
X189950000Y-84530000D03*
X187800000Y-75020000D03*
X149520000Y-85790000D03*
X156830000Y-87830000D03*
X190540000Y-88950000D03*
X148410000Y-78490000D03*
X190070000Y-85070000D03*
X154745000Y-77655000D03*
X192930000Y-83785000D03*
X165800000Y-87660000D03*
X195710000Y-80320000D03*
X186180000Y-91660000D03*
X159125835Y-89272933D03*
X188320000Y-75010000D03*
X185110000Y-91730000D03*
X150581344Y-79625174D03*
X176410000Y-80320000D03*
X181118130Y-83193167D03*
X158380000Y-83210000D03*
X149520000Y-86340000D03*
X191836225Y-76543443D03*
X181420000Y-81330000D03*
X183050000Y-75090000D03*
X193360000Y-87119998D03*
X166073755Y-91215931D03*
X192914500Y-82522000D03*
X174670000Y-77590000D03*
X165660000Y-86700000D03*
X185020000Y-92422500D03*
X180320000Y-83320000D03*
%TO.N,NRST*%
X173200000Y-93250000D03*
X179380000Y-90850660D03*
%TO.N,SDDETECT*%
X192897500Y-81470000D03*
X184190000Y-91260000D03*
%TO.N,VIN*%
X182930000Y-81890000D03*
X175581212Y-83307499D03*
%TO.N,+5V*%
X189450000Y-91620000D03*
X193990000Y-89040000D03*
X193800000Y-93860000D03*
X193270000Y-93860000D03*
X181560000Y-74390000D03*
X193290000Y-89920000D03*
X180440000Y-73890000D03*
X179340000Y-73840000D03*
X193410000Y-89040000D03*
X181541494Y-73890340D03*
X175050000Y-73880000D03*
X175020000Y-74320000D03*
X195710000Y-78920000D03*
%TO.N,ADC1_IN3_VBAT*%
X175780000Y-82050000D03*
X179200000Y-88440000D03*
%TO.N,I2C3_SDA_ACCEL*%
X185110000Y-82870000D03*
X195710000Y-83120000D03*
X190085990Y-83570661D03*
%TO.N,I2C3_SCL_ACCEL*%
X188130000Y-86280000D03*
X191937000Y-83410000D03*
X195710000Y-84520000D03*
%TO.N,3.3VEN*%
X189655249Y-93721215D03*
X189160000Y-93790000D03*
X191900000Y-78910000D03*
X189610000Y-93200000D03*
%TO.N,SPI1_CS_SD*%
X182700000Y-91230000D03*
X190010000Y-76155000D03*
%TO.N,SPI1_MISO_SD*%
X180690000Y-91260000D03*
X185009998Y-76500000D03*
%TO.N,SPI1_SCK_SD*%
X180225170Y-90704168D03*
X186710000Y-76155000D03*
%TO.N,SPI1_MOSI_SD*%
X188910000Y-76155000D03*
X181690000Y-91280000D03*
%TO.N,USART1_RX_GPS*%
X189520000Y-77030000D03*
X183132230Y-82772331D03*
%TO.N,USART1_TX_GPS*%
X183185000Y-83269541D03*
X189580000Y-77630000D03*
%TO.N,LPUART1_RX_RADIO*%
X185620000Y-91330000D03*
X191670000Y-77370000D03*
%TO.N,LPUART1_TX_RADIO*%
X187160000Y-90760000D03*
X191709998Y-77868400D03*
%TO.N,SWO*%
X153804834Y-89104834D03*
X183979670Y-81772588D03*
X173200000Y-89320000D03*
X158560000Y-91980000D03*
%TO.N,SWDIO*%
X153680000Y-90410000D03*
X188230000Y-83220000D03*
X153080000Y-89460000D03*
X173216256Y-91960000D03*
%TO.N,I2C1_SCL*%
X175730000Y-79127500D03*
X183220000Y-80840000D03*
%TO.N,SWCLK{slash}I2C1_SDA*%
X173200000Y-90610000D03*
X187585000Y-83220000D03*
%TO.N,TIM3_CHI_PWM4*%
X192290000Y-90420000D03*
X188170000Y-87710000D03*
%TO.N,PWEN*%
X188160000Y-88240000D03*
X194690000Y-93860000D03*
%TO.N,I2C1_SDA*%
X182510000Y-81220000D03*
X177897500Y-79650000D03*
%TO.N,BAROEXTI*%
X149475917Y-83724486D03*
%TO.N,GPIO_EXTI1*%
X176480000Y-92252500D03*
X183690431Y-91239185D03*
%TO.N,EXTI3{slash}PWMONTIM4*%
X175470000Y-91570000D03*
X179596371Y-90083297D03*
%TO.N,EXTI0*%
X176160000Y-90330000D03*
X179542862Y-88065000D03*
%TO.N,unconnected-(U1-PB8-Pad46)*%
X180000000Y-93270000D03*
X182528901Y-82315000D03*
%TO.N,Net-(BT1-+)*%
X165390000Y-79750000D03*
%TO.N,GNDGPS*%
X164240000Y-83540000D03*
X165350000Y-81240000D03*
X165880000Y-81240000D03*
X163770000Y-83540000D03*
%TO.N,vusb*%
X160080000Y-74330000D03*
X147425000Y-78085000D03*
X147040000Y-78470000D03*
X140690000Y-83150000D03*
X160060000Y-73910000D03*
%TO.N,B2*%
X157820000Y-86620000D03*
%TO.N,B1*%
X157830000Y-86050000D03*
%TO.N,Net-(U1-NRST)*%
X157800001Y-83812785D03*
X159590000Y-81900000D03*
%TO.N,SPI_MOSi*%
X155210000Y-88300000D03*
X165940000Y-90110000D03*
%TO.N,SPI_SCK*%
X157728198Y-82118683D03*
X165100000Y-89150000D03*
%TO.N,SPI_MISO*%
X155770000Y-79860000D03*
X159580000Y-87670000D03*
%TO.N,SPI_CS*%
X155705000Y-88615000D03*
X160074977Y-87599289D03*
%TO.N,COMPASSDA*%
X157760000Y-84327327D03*
X149440000Y-78670000D03*
%TO.N,COMPASSCL*%
X157713996Y-84873334D03*
X150399749Y-78715042D03*
%TO.N,USART_RX*%
X149440000Y-88310000D03*
X151380000Y-79480760D03*
%TO.N,USART_TX*%
X153436013Y-79731151D03*
%TO.N,OLED_SCL*%
X155254834Y-79844834D03*
%TO.N,Net-(J4-CC2)*%
X143580000Y-80380000D03*
%TO.N,Net-(J4-D--PadA7)*%
X145070000Y-83650000D03*
%TO.N,Net-(J4-D+-PadA6)*%
X145100000Y-82080000D03*
%TO.N,Net-(J4-CC1)*%
X143590000Y-85240000D03*
%TO.N,Net-(PA1010D1-RX)*%
X156410000Y-78250000D03*
%TO.N,Net-(PA1010D1-TX)*%
X156614694Y-79898205D03*
%TO.N,ALIMGPS*%
X157774584Y-82616529D03*
X164350000Y-77450000D03*
%TO.N,Net-(U1-PA4)*%
X156970000Y-80250000D03*
X163120000Y-74797502D03*
%TO.N,BAT+*%
X162200000Y-75870000D03*
X162210000Y-76420000D03*
%TO.N,SWCLK*%
X155370000Y-91140000D03*
X153257998Y-88992754D03*
%TO.N,D+*%
X141745000Y-82170000D03*
X151393046Y-88353046D03*
%TO.N,D-*%
X150780000Y-88350000D03*
X141745000Y-84070000D03*
%TO.N,Net-(U1-PB0)*%
X141320000Y-88300000D03*
X148941416Y-83031084D03*
%TO.N,Net-(U1-PB1)*%
X147270000Y-87530000D03*
X149475336Y-83224484D03*
%TO.N,Net-(IC3-EN)*%
X158000000Y-75910000D03*
X158457500Y-75912500D03*
X153769587Y-74289609D03*
X153790000Y-73790000D03*
X153770000Y-74770000D03*
X159012500Y-75912500D03*
%TD*%
D19*
%TO.N,ADC1_IN3_VBAT*%
X178500000Y-84410000D02*
X176140000Y-82050000D01*
X178500000Y-87740000D02*
X178500000Y-84410000D01*
X179200000Y-88440000D02*
X178500000Y-87740000D01*
X176140000Y-82050000D02*
X175780000Y-82050000D01*
%TO.N,I2C3_SDA_ACCEL*%
X190085990Y-83570661D02*
X190085990Y-83473679D01*
X195625000Y-83035000D02*
X195710000Y-83120000D01*
X190524669Y-83035000D02*
X195625000Y-83035000D01*
X190085990Y-83473679D02*
X190524669Y-83035000D01*
%TO.N,I2C3_SCL_ACCEL*%
X191937000Y-83410000D02*
X193550000Y-83410000D01*
X189780331Y-86190000D02*
X191937000Y-84033331D01*
X191937000Y-84033331D02*
X191937000Y-83410000D01*
X188130000Y-86280000D02*
X188220000Y-86190000D01*
X188220000Y-86190000D02*
X189780331Y-86190000D01*
X193550000Y-83410000D02*
X194660000Y-84520000D01*
X194660000Y-84520000D02*
X195710000Y-84520000D01*
%TO.N,SPI1_CS_SD*%
X182700000Y-91230000D02*
X182700000Y-90960000D01*
X187210000Y-86450000D02*
X187210000Y-78493554D01*
X187210000Y-78493554D02*
X189548554Y-76155000D01*
X189548554Y-76155000D02*
X190010000Y-76155000D01*
X182700000Y-90960000D02*
X187210000Y-86450000D01*
%TO.N,SPI1_MISO_SD*%
X185009998Y-76500000D02*
X186115000Y-77605002D01*
X181300000Y-90200000D02*
X180690000Y-90810000D01*
X181300000Y-90159669D02*
X181300000Y-90200000D01*
X180690000Y-90810000D02*
X180690000Y-91260000D01*
X186115000Y-85344669D02*
X181300000Y-90159669D01*
X186115000Y-77605002D02*
X186115000Y-85344669D01*
%TO.N,SPI1_SCK_SD*%
X183125000Y-86765000D02*
X183125000Y-87345000D01*
X180565000Y-90364338D02*
X180225170Y-90704168D01*
X186675000Y-76120000D02*
X184659669Y-76120000D01*
X184659669Y-76120000D02*
X184354669Y-76425000D01*
X180565000Y-89905000D02*
X180565000Y-90364338D01*
X184354669Y-76425000D02*
X184354669Y-85535331D01*
X184354669Y-85535331D02*
X183125000Y-86765000D01*
X186710000Y-76155000D02*
X186675000Y-76120000D01*
X183125000Y-87345000D02*
X180565000Y-89905000D01*
%TO.N,SPI1_MOSI_SD*%
X186960000Y-85570000D02*
X186960000Y-78390000D01*
X181690000Y-91280000D02*
X181690000Y-90850331D01*
X181690000Y-90850331D02*
X186840000Y-85700331D01*
X186840000Y-85690000D02*
X186960000Y-85570000D01*
X188910000Y-76440000D02*
X188910000Y-76155000D01*
X186840000Y-85700331D02*
X186840000Y-85690000D01*
X186960000Y-78390000D02*
X188910000Y-76440000D01*
%TO.N,LPUART1_RX_RADIO*%
X187500000Y-89590000D02*
X185760000Y-91330000D01*
X187500000Y-84810000D02*
X187500000Y-89590000D01*
X191670000Y-77370000D02*
X191030000Y-78010000D01*
X191030000Y-78010000D02*
X191030000Y-81280000D01*
X191030000Y-81280000D02*
X187500000Y-84810000D01*
X185760000Y-91330000D02*
X185620000Y-91330000D01*
%TO.N,LPUART1_TX_RADIO*%
X187750000Y-85010000D02*
X187750000Y-89947169D01*
X191340000Y-81420000D02*
X187750000Y-85010000D01*
X191709998Y-77868400D02*
X191340000Y-78238398D01*
X187595000Y-90102169D02*
X187595000Y-90325000D01*
X187750000Y-89947169D02*
X187595000Y-90102169D01*
X187595000Y-90325000D02*
X187160000Y-90760000D01*
X191340000Y-78238398D02*
X191340000Y-81420000D01*
%TO.N,I2C1_SCL*%
X177957500Y-79127500D02*
X175730000Y-79127500D01*
X183220000Y-80840000D02*
X183060000Y-80680000D01*
X183060000Y-80680000D02*
X179510000Y-80680000D01*
X179510000Y-80680000D02*
X177957500Y-79127500D01*
%TO.N,TIM3_CHI_PWM4*%
X188385000Y-87545000D02*
X188220000Y-87710000D01*
X190455000Y-87545000D02*
X188385000Y-87545000D01*
X188220000Y-87710000D02*
X188170000Y-87710000D01*
X192290000Y-90420000D02*
X192290000Y-89380000D01*
X192290000Y-89380000D02*
X190455000Y-87545000D01*
%TO.N,PWEN*%
X194230000Y-93400000D02*
X194690000Y-93860000D01*
X188160000Y-89380000D02*
X192175000Y-93395000D01*
X192175000Y-93395000D02*
X193835331Y-93395000D01*
X193840331Y-93400000D02*
X194230000Y-93400000D01*
X188160000Y-88240000D02*
X188160000Y-89380000D01*
X193835331Y-93395000D02*
X193840331Y-93400000D01*
%TO.N,I2C1_SDA*%
X182510000Y-81220000D02*
X182245000Y-80955000D01*
X179202500Y-80955000D02*
X177897500Y-79650000D01*
X182245000Y-80955000D02*
X179202500Y-80955000D01*
%TO.N,unconnected-(U1-PB8-Pad46)*%
X181580000Y-84110000D02*
X180995000Y-84695000D01*
X179895000Y-88345000D02*
X179395000Y-88845000D01*
X181580000Y-83263901D02*
X181580000Y-84110000D01*
X179395000Y-88845000D02*
X178875000Y-88845000D01*
X180995000Y-87418554D02*
X180068554Y-88345000D01*
X178875000Y-88845000D02*
X177950000Y-89770000D01*
X180068554Y-88345000D02*
X179895000Y-88345000D01*
X180995000Y-84695000D02*
X180995000Y-87418554D01*
X177950000Y-89770000D02*
X177950000Y-91220000D01*
X177950000Y-91220000D02*
X180000000Y-93270000D01*
X182528901Y-82315000D02*
X181580000Y-83263901D01*
%TD*%
%TA.AperFunction,Conductor*%
%TO.N,GND*%
G36*
X153404052Y-73530185D02*
G01*
X153449807Y-73582989D01*
X153459751Y-73652147D01*
X153454943Y-73672823D01*
X153452498Y-73680346D01*
X153435131Y-73789997D01*
X153435131Y-73790002D01*
X153452498Y-73899658D01*
X153485016Y-73963478D01*
X153497912Y-74032147D01*
X153485017Y-74076065D01*
X153432085Y-74179951D01*
X153414718Y-74289606D01*
X153414718Y-74289611D01*
X153432085Y-74399267D01*
X153470120Y-74473915D01*
X153483016Y-74542584D01*
X153470121Y-74586502D01*
X153432498Y-74660342D01*
X153415131Y-74769997D01*
X153415131Y-74770002D01*
X153432498Y-74879658D01*
X153482904Y-74978585D01*
X153482909Y-74978592D01*
X153561407Y-75057090D01*
X153561410Y-75057092D01*
X153561413Y-75057095D01*
X153660339Y-75107500D01*
X153660341Y-75107501D01*
X153769998Y-75124869D01*
X153770000Y-75124869D01*
X153770002Y-75124869D01*
X153879658Y-75107501D01*
X153879659Y-75107500D01*
X153879661Y-75107500D01*
X153978587Y-75057095D01*
X154052239Y-74983443D01*
X157494500Y-74983443D01*
X157494500Y-75141556D01*
X157535423Y-75294283D01*
X157535426Y-75294290D01*
X157614475Y-75431209D01*
X157614481Y-75431217D01*
X157711109Y-75527845D01*
X157744594Y-75589168D01*
X157739610Y-75658860D01*
X157717756Y-75692868D01*
X157718644Y-75693514D01*
X157712904Y-75701414D01*
X157662498Y-75800341D01*
X157645131Y-75909997D01*
X157645131Y-75910002D01*
X157662498Y-76019658D01*
X157712904Y-76118585D01*
X157712909Y-76118592D01*
X157791407Y-76197090D01*
X157791410Y-76197092D01*
X157791413Y-76197095D01*
X157886365Y-76245475D01*
X157890341Y-76247501D01*
X157999998Y-76264869D01*
X158000000Y-76264869D01*
X158000002Y-76264869D01*
X158109656Y-76247501D01*
X158109656Y-76247500D01*
X158109661Y-76247500D01*
X158170005Y-76216753D01*
X158238670Y-76203858D01*
X158282589Y-76216753D01*
X158342934Y-76247501D01*
X158347841Y-76250001D01*
X158457498Y-76267369D01*
X158457500Y-76267369D01*
X158457502Y-76267369D01*
X158567158Y-76250001D01*
X158567159Y-76250000D01*
X158567161Y-76250000D01*
X158666087Y-76199595D01*
X158666087Y-76199594D01*
X158674783Y-76195164D01*
X158675989Y-76197531D01*
X158727905Y-76179001D01*
X158795961Y-76194818D01*
X158801408Y-76198318D01*
X158803911Y-76199593D01*
X158803913Y-76199595D01*
X158902839Y-76250000D01*
X158902841Y-76250001D01*
X159012498Y-76267369D01*
X159012500Y-76267369D01*
X159012502Y-76267369D01*
X159122158Y-76250001D01*
X159122159Y-76250000D01*
X159122161Y-76250000D01*
X159221087Y-76199595D01*
X159299595Y-76121087D01*
X159350000Y-76022161D01*
X159350000Y-76022159D01*
X159350001Y-76022158D01*
X159367369Y-75912502D01*
X159367369Y-75912497D01*
X159360638Y-75869997D01*
X161845131Y-75869997D01*
X161845131Y-75870002D01*
X161862498Y-75979658D01*
X161912903Y-76078584D01*
X161913899Y-76079954D01*
X161914593Y-76081900D01*
X161917336Y-76087283D01*
X161916640Y-76087637D01*
X161937379Y-76145761D01*
X161924066Y-76209134D01*
X161872498Y-76310341D01*
X161855131Y-76419997D01*
X161855131Y-76420002D01*
X161872498Y-76529658D01*
X161922904Y-76628585D01*
X161922909Y-76628592D01*
X162001407Y-76707090D01*
X162001410Y-76707092D01*
X162001413Y-76707095D01*
X162070896Y-76742498D01*
X162100341Y-76757501D01*
X162209998Y-76774869D01*
X162210000Y-76774869D01*
X162210002Y-76774869D01*
X162319658Y-76757501D01*
X162319659Y-76757500D01*
X162319661Y-76757500D01*
X162418587Y-76707095D01*
X162497095Y-76628587D01*
X162537137Y-76549999D01*
X164594722Y-76549999D01*
X164594722Y-76550000D01*
X164613762Y-76706818D01*
X164632984Y-76757501D01*
X164669780Y-76854523D01*
X164759517Y-76984530D01*
X164877760Y-77089283D01*
X164877762Y-77089284D01*
X165017634Y-77162696D01*
X165171014Y-77200500D01*
X165171015Y-77200500D01*
X165328985Y-77200500D01*
X165482365Y-77162696D01*
X165578004Y-77112500D01*
X165622240Y-77089283D01*
X165740483Y-76984530D01*
X165830220Y-76854523D01*
X165886237Y-76706818D01*
X165905278Y-76550000D01*
X165902809Y-76529661D01*
X165886237Y-76393181D01*
X165864992Y-76337164D01*
X165830220Y-76245477D01*
X165740483Y-76115470D01*
X165622240Y-76010717D01*
X165622238Y-76010716D01*
X165622237Y-76010715D01*
X165482365Y-75937303D01*
X165328986Y-75899500D01*
X165328985Y-75899500D01*
X165171015Y-75899500D01*
X165171014Y-75899500D01*
X165017634Y-75937303D01*
X164877762Y-76010715D01*
X164759516Y-76115471D01*
X164669781Y-76245475D01*
X164669780Y-76245476D01*
X164613762Y-76393181D01*
X164594722Y-76549999D01*
X162537137Y-76549999D01*
X162547500Y-76529661D01*
X162547500Y-76529659D01*
X162547501Y-76529658D01*
X162564869Y-76420002D01*
X162564869Y-76419997D01*
X162547501Y-76310341D01*
X162516756Y-76250000D01*
X162497095Y-76211413D01*
X162497089Y-76211407D01*
X162496101Y-76210047D01*
X162495405Y-76208096D01*
X162492664Y-76202717D01*
X162493359Y-76202362D01*
X162472620Y-76144241D01*
X162485933Y-76080864D01*
X162487091Y-76078590D01*
X162487095Y-76078587D01*
X162537500Y-75979661D01*
X162548533Y-75910002D01*
X162554869Y-75870002D01*
X162554869Y-75869997D01*
X162537501Y-75760341D01*
X162508750Y-75703914D01*
X162487095Y-75661413D01*
X162487092Y-75661410D01*
X162487090Y-75661407D01*
X162408592Y-75582909D01*
X162408588Y-75582906D01*
X162408587Y-75582905D01*
X162404743Y-75580946D01*
X162309658Y-75532498D01*
X162200002Y-75515131D01*
X162199998Y-75515131D01*
X162090341Y-75532498D01*
X161991414Y-75582904D01*
X161991407Y-75582909D01*
X161912909Y-75661407D01*
X161912904Y-75661414D01*
X161862498Y-75760341D01*
X161845131Y-75869997D01*
X159360638Y-75869997D01*
X159350001Y-75802841D01*
X159328345Y-75760339D01*
X159299595Y-75703913D01*
X159299592Y-75703910D01*
X159299590Y-75703907D01*
X159221092Y-75625409D01*
X159221088Y-75625406D01*
X159221087Y-75625405D01*
X159214548Y-75622073D01*
X159122158Y-75574998D01*
X159012502Y-75557631D01*
X159012498Y-75557631D01*
X158902841Y-75574998D01*
X158813013Y-75620768D01*
X158810453Y-75622073D01*
X158795217Y-75629836D01*
X158794011Y-75627470D01*
X158742074Y-75645999D01*
X158674021Y-75630171D01*
X158668586Y-75626678D01*
X158625901Y-75604929D01*
X158575106Y-75556955D01*
X158558311Y-75489134D01*
X158574810Y-75432445D01*
X158575524Y-75431209D01*
X158654577Y-75294284D01*
X158695500Y-75141557D01*
X158695500Y-74983443D01*
X160494500Y-74983443D01*
X160494500Y-75141556D01*
X160535423Y-75294283D01*
X160535426Y-75294290D01*
X160614475Y-75431209D01*
X160614479Y-75431214D01*
X160614480Y-75431216D01*
X160726284Y-75543020D01*
X160726286Y-75543021D01*
X160726290Y-75543024D01*
X160863209Y-75622073D01*
X160863216Y-75622077D01*
X161015943Y-75663000D01*
X161015945Y-75663000D01*
X161174055Y-75663000D01*
X161174057Y-75663000D01*
X161326784Y-75622077D01*
X161463716Y-75543020D01*
X161575520Y-75431216D01*
X161654577Y-75294284D01*
X161695500Y-75141557D01*
X161695500Y-74983443D01*
X161654577Y-74830716D01*
X161635399Y-74797499D01*
X162765131Y-74797499D01*
X162765131Y-74797504D01*
X162782498Y-74907160D01*
X162832904Y-75006087D01*
X162832909Y-75006094D01*
X162911407Y-75084592D01*
X162911410Y-75084594D01*
X162911413Y-75084597D01*
X162956365Y-75107501D01*
X163010341Y-75135003D01*
X163119998Y-75152371D01*
X163120000Y-75152371D01*
X163120002Y-75152371D01*
X163229658Y-75135003D01*
X163229659Y-75135002D01*
X163229661Y-75135002D01*
X163328587Y-75084597D01*
X163407095Y-75006089D01*
X163457500Y-74907163D01*
X163457500Y-74907161D01*
X163457501Y-74907160D01*
X163474869Y-74797504D01*
X163474869Y-74797499D01*
X163457501Y-74687843D01*
X163447136Y-74667500D01*
X163407095Y-74588915D01*
X163407092Y-74588912D01*
X163407090Y-74588909D01*
X163328592Y-74510411D01*
X163328588Y-74510408D01*
X163328587Y-74510407D01*
X163313899Y-74502923D01*
X163229658Y-74460000D01*
X163120002Y-74442633D01*
X163119998Y-74442633D01*
X163010341Y-74460000D01*
X162911414Y-74510406D01*
X162911407Y-74510411D01*
X162832909Y-74588909D01*
X162832904Y-74588916D01*
X162782498Y-74687843D01*
X162765131Y-74797499D01*
X161635399Y-74797499D01*
X161619521Y-74769997D01*
X161575524Y-74693790D01*
X161575518Y-74693782D01*
X161463717Y-74581981D01*
X161463709Y-74581975D01*
X161326790Y-74502926D01*
X161326786Y-74502924D01*
X161326784Y-74502923D01*
X161174057Y-74462000D01*
X161015943Y-74462000D01*
X160863216Y-74502923D01*
X160863209Y-74502926D01*
X160726290Y-74581975D01*
X160726282Y-74581981D01*
X160614481Y-74693782D01*
X160614475Y-74693790D01*
X160535426Y-74830709D01*
X160535423Y-74830716D01*
X160494500Y-74983443D01*
X158695500Y-74983443D01*
X158654577Y-74830716D01*
X158619521Y-74769997D01*
X158575524Y-74693790D01*
X158575518Y-74693782D01*
X158463717Y-74581981D01*
X158463709Y-74581975D01*
X158326790Y-74502926D01*
X158326786Y-74502924D01*
X158326784Y-74502923D01*
X158174057Y-74462000D01*
X158015943Y-74462000D01*
X157863216Y-74502923D01*
X157863209Y-74502926D01*
X157726290Y-74581975D01*
X157726282Y-74581981D01*
X157614481Y-74693782D01*
X157614475Y-74693790D01*
X157535426Y-74830709D01*
X157535423Y-74830716D01*
X157494500Y-74983443D01*
X154052239Y-74983443D01*
X154057095Y-74978587D01*
X154107500Y-74879661D01*
X154107500Y-74879659D01*
X154107501Y-74879658D01*
X154124869Y-74770002D01*
X154124869Y-74769997D01*
X154107501Y-74660341D01*
X154069466Y-74585693D01*
X154056570Y-74517024D01*
X154069464Y-74473108D01*
X154107087Y-74399270D01*
X154107088Y-74399265D01*
X154124456Y-74289611D01*
X154124456Y-74289606D01*
X154107088Y-74179952D01*
X154107087Y-74179950D01*
X154107087Y-74179948D01*
X154074569Y-74116128D01*
X154061674Y-74047461D01*
X154074570Y-74003541D01*
X154077093Y-73998588D01*
X154077095Y-73998587D01*
X154127500Y-73899661D01*
X154143231Y-73800341D01*
X154144869Y-73790002D01*
X154144869Y-73789997D01*
X154130734Y-73700762D01*
X154127500Y-73680339D01*
X154127496Y-73680332D01*
X154125057Y-73672823D01*
X154123060Y-73602981D01*
X154159138Y-73543147D01*
X154221838Y-73512317D01*
X154242987Y-73510500D01*
X159668248Y-73510500D01*
X159735287Y-73530185D01*
X159781042Y-73582989D01*
X159790986Y-73652147D01*
X159775003Y-73691528D01*
X159777336Y-73692717D01*
X159722498Y-73800341D01*
X159705131Y-73909997D01*
X159705131Y-73910002D01*
X159722498Y-74019658D01*
X159754942Y-74083332D01*
X159767838Y-74152001D01*
X159754942Y-74195920D01*
X159742498Y-74220341D01*
X159725131Y-74329997D01*
X159725131Y-74330002D01*
X159742498Y-74439658D01*
X159792904Y-74538585D01*
X159792909Y-74538592D01*
X159871407Y-74617090D01*
X159871410Y-74617092D01*
X159871413Y-74617095D01*
X159956285Y-74660339D01*
X159970341Y-74667501D01*
X160079998Y-74684869D01*
X160080000Y-74684869D01*
X160080002Y-74684869D01*
X160189658Y-74667501D01*
X160189659Y-74667500D01*
X160189661Y-74667500D01*
X160288587Y-74617095D01*
X160367095Y-74538587D01*
X160417500Y-74439661D01*
X160417500Y-74439659D01*
X160417501Y-74439658D01*
X160434869Y-74330002D01*
X160434869Y-74329997D01*
X160417501Y-74220343D01*
X160417500Y-74220341D01*
X160417500Y-74220339D01*
X160385056Y-74156664D01*
X160372161Y-74087999D01*
X160385056Y-74044081D01*
X160397500Y-74019661D01*
X160414869Y-73910000D01*
X160414869Y-73909997D01*
X160397501Y-73800341D01*
X160392232Y-73790000D01*
X160347095Y-73701413D01*
X160347094Y-73701412D01*
X160342664Y-73692717D01*
X160345655Y-73691192D01*
X160327954Y-73641573D01*
X160343782Y-73573520D01*
X160393891Y-73524828D01*
X160451752Y-73510500D01*
X166165500Y-73510500D01*
X166232539Y-73530185D01*
X166278294Y-73582989D01*
X166289500Y-73634500D01*
X166289500Y-80855512D01*
X166269815Y-80922551D01*
X166217011Y-80968306D01*
X166147853Y-80978250D01*
X166092623Y-80955836D01*
X166088591Y-80952907D01*
X165989658Y-80902498D01*
X165880002Y-80885131D01*
X165879998Y-80885131D01*
X165770341Y-80902498D01*
X165671294Y-80952965D01*
X165602624Y-80965861D01*
X165558706Y-80952965D01*
X165459658Y-80902498D01*
X165350002Y-80885131D01*
X165349998Y-80885131D01*
X165240341Y-80902498D01*
X165141414Y-80952904D01*
X165141407Y-80952909D01*
X165062909Y-81031407D01*
X165062904Y-81031414D01*
X165012498Y-81130341D01*
X164995131Y-81239997D01*
X164995131Y-81240002D01*
X165012498Y-81349658D01*
X165062904Y-81448585D01*
X165062909Y-81448592D01*
X165141407Y-81527090D01*
X165141410Y-81527092D01*
X165141413Y-81527095D01*
X165210896Y-81562498D01*
X165240341Y-81577501D01*
X165349998Y-81594869D01*
X165350000Y-81594869D01*
X165350002Y-81594869D01*
X165459656Y-81577501D01*
X165459656Y-81577500D01*
X165459661Y-81577500D01*
X165558587Y-81527095D01*
X165558588Y-81527093D01*
X165558705Y-81527034D01*
X165627375Y-81514138D01*
X165671295Y-81527034D01*
X165671411Y-81527093D01*
X165671413Y-81527095D01*
X165770339Y-81577500D01*
X165770341Y-81577500D01*
X165770343Y-81577501D01*
X165879998Y-81594869D01*
X165880000Y-81594869D01*
X165880002Y-81594869D01*
X165989658Y-81577501D01*
X165989659Y-81577500D01*
X165989661Y-81577500D01*
X166088587Y-81527095D01*
X166088587Y-81527094D01*
X166088590Y-81527093D01*
X166092618Y-81524167D01*
X166158425Y-81500689D01*
X166226478Y-81516516D01*
X166275171Y-81566624D01*
X166289500Y-81624487D01*
X166289500Y-87354455D01*
X166269815Y-87421494D01*
X166217011Y-87467249D01*
X166147853Y-87477193D01*
X166084297Y-87448168D01*
X166077819Y-87442136D01*
X166008592Y-87372909D01*
X166008588Y-87372906D01*
X166008587Y-87372905D01*
X166003706Y-87370418D01*
X165909658Y-87322498D01*
X165800002Y-87305131D01*
X165799998Y-87305131D01*
X165690341Y-87322498D01*
X165596294Y-87370418D01*
X165527625Y-87383314D01*
X165483706Y-87370418D01*
X165389658Y-87322498D01*
X165280002Y-87305131D01*
X165279998Y-87305131D01*
X165170341Y-87322498D01*
X165071414Y-87372904D01*
X165071407Y-87372909D01*
X164992909Y-87451407D01*
X164992904Y-87451414D01*
X164942498Y-87550341D01*
X164925131Y-87659997D01*
X164925131Y-87660002D01*
X164942498Y-87769658D01*
X164992904Y-87868585D01*
X164992909Y-87868592D01*
X165071407Y-87947090D01*
X165071410Y-87947092D01*
X165071413Y-87947095D01*
X165165690Y-87995131D01*
X165170341Y-87997501D01*
X165279998Y-88014869D01*
X165280000Y-88014869D01*
X165280002Y-88014869D01*
X165389656Y-87997501D01*
X165389656Y-87997500D01*
X165389661Y-87997500D01*
X165483709Y-87949580D01*
X165552374Y-87936685D01*
X165596288Y-87949578D01*
X165690339Y-87997500D01*
X165690341Y-87997500D01*
X165690343Y-87997501D01*
X165799998Y-88014869D01*
X165800000Y-88014869D01*
X165800002Y-88014869D01*
X165909658Y-87997501D01*
X165909659Y-87997500D01*
X165909661Y-87997500D01*
X166008587Y-87947095D01*
X166041472Y-87914210D01*
X166077819Y-87877864D01*
X166139142Y-87844379D01*
X166208834Y-87849363D01*
X166264767Y-87891235D01*
X166289184Y-87956699D01*
X166289500Y-87965545D01*
X166289500Y-89692354D01*
X166269815Y-89759393D01*
X166217011Y-89805148D01*
X166147853Y-89815092D01*
X166109206Y-89802839D01*
X166049658Y-89772498D01*
X165940002Y-89755131D01*
X165939998Y-89755131D01*
X165830341Y-89772498D01*
X165731414Y-89822904D01*
X165731407Y-89822909D01*
X165652909Y-89901407D01*
X165652904Y-89901414D01*
X165602498Y-90000341D01*
X165585131Y-90109997D01*
X165585131Y-90110002D01*
X165602498Y-90219658D01*
X165652904Y-90318585D01*
X165652909Y-90318592D01*
X165731407Y-90397090D01*
X165731410Y-90397092D01*
X165731413Y-90397095D01*
X165797053Y-90430540D01*
X165830341Y-90447501D01*
X165939998Y-90464869D01*
X165940000Y-90464869D01*
X165940002Y-90464869D01*
X166049656Y-90447501D01*
X166049656Y-90447500D01*
X166049661Y-90447500D01*
X166109208Y-90417159D01*
X166177874Y-90404264D01*
X166242615Y-90430540D01*
X166282872Y-90487647D01*
X166289500Y-90527645D01*
X166289500Y-90750047D01*
X166269815Y-90817086D01*
X166217011Y-90862841D01*
X166147853Y-90872785D01*
X166146103Y-90872520D01*
X166073758Y-90861062D01*
X166073753Y-90861062D01*
X165964096Y-90878429D01*
X165865169Y-90928835D01*
X165865162Y-90928840D01*
X165786664Y-91007338D01*
X165786659Y-91007345D01*
X165736253Y-91106272D01*
X165718886Y-91215928D01*
X165718886Y-91215933D01*
X165736253Y-91325589D01*
X165786659Y-91424516D01*
X165786664Y-91424523D01*
X165865162Y-91503021D01*
X165865165Y-91503023D01*
X165865168Y-91503026D01*
X165899151Y-91520341D01*
X165964096Y-91553432D01*
X166073753Y-91570800D01*
X166073755Y-91570800D01*
X166073756Y-91570800D01*
X166101621Y-91566386D01*
X166146101Y-91559341D01*
X166215395Y-91568295D01*
X166268847Y-91613291D01*
X166289487Y-91680042D01*
X166289500Y-91681814D01*
X166289500Y-92185500D01*
X166269815Y-92252539D01*
X166217011Y-92298294D01*
X166165500Y-92309500D01*
X158987836Y-92309500D01*
X158920797Y-92289815D01*
X158875042Y-92237011D01*
X158865098Y-92167853D01*
X158877351Y-92129206D01*
X158879347Y-92125287D01*
X158897500Y-92089661D01*
X158897500Y-92089659D01*
X158897501Y-92089658D01*
X158914869Y-91980002D01*
X158914869Y-91979997D01*
X158897501Y-91870341D01*
X158897500Y-91870339D01*
X158847095Y-91771413D01*
X158847092Y-91771410D01*
X158847090Y-91771407D01*
X158768592Y-91692909D01*
X158768588Y-91692906D01*
X158768587Y-91692905D01*
X158743342Y-91680042D01*
X158669658Y-91642498D01*
X158560002Y-91625131D01*
X158559998Y-91625131D01*
X158450341Y-91642498D01*
X158351414Y-91692904D01*
X158351407Y-91692909D01*
X158272909Y-91771407D01*
X158272904Y-91771414D01*
X158222498Y-91870341D01*
X158205131Y-91979997D01*
X158205131Y-91980002D01*
X158222498Y-92089658D01*
X158242649Y-92129206D01*
X158255545Y-92197875D01*
X158229268Y-92262616D01*
X158172161Y-92302872D01*
X158132164Y-92309500D01*
X140214500Y-92309500D01*
X140147461Y-92289815D01*
X140101706Y-92237011D01*
X140090500Y-92185500D01*
X140090500Y-90515000D01*
X145304659Y-90515000D01*
X145323975Y-90711129D01*
X145381188Y-90899733D01*
X145474086Y-91073532D01*
X145474090Y-91073539D01*
X145599116Y-91225883D01*
X145751460Y-91350909D01*
X145751467Y-91350913D01*
X145925266Y-91443811D01*
X145925269Y-91443811D01*
X145925273Y-91443814D01*
X146113868Y-91501024D01*
X146310000Y-91520341D01*
X146506132Y-91501024D01*
X146694727Y-91443814D01*
X146726016Y-91427090D01*
X146868532Y-91350913D01*
X146868538Y-91350910D01*
X147020883Y-91225883D01*
X147145910Y-91073538D01*
X147221877Y-90931414D01*
X147238811Y-90899733D01*
X147238811Y-90899732D01*
X147238814Y-90899727D01*
X147296024Y-90711132D01*
X147315341Y-90515000D01*
X147844659Y-90515000D01*
X147863975Y-90711129D01*
X147921188Y-90899733D01*
X148014086Y-91073532D01*
X148014090Y-91073539D01*
X148139116Y-91225883D01*
X148291460Y-91350909D01*
X148291467Y-91350913D01*
X148465266Y-91443811D01*
X148465269Y-91443811D01*
X148465273Y-91443814D01*
X148653868Y-91501024D01*
X148850000Y-91520341D01*
X149046132Y-91501024D01*
X149234727Y-91443814D01*
X149266016Y-91427090D01*
X149408532Y-91350913D01*
X149408538Y-91350910D01*
X149560883Y-91225883D01*
X149685910Y-91073538D01*
X149761877Y-90931414D01*
X149778811Y-90899733D01*
X149778811Y-90899732D01*
X149778814Y-90899727D01*
X149836024Y-90711132D01*
X149855341Y-90515000D01*
X150384659Y-90515000D01*
X150403975Y-90711129D01*
X150461188Y-90899733D01*
X150554086Y-91073532D01*
X150554090Y-91073539D01*
X150679116Y-91225883D01*
X150831460Y-91350909D01*
X150831467Y-91350913D01*
X151005266Y-91443811D01*
X151005269Y-91443811D01*
X151005273Y-91443814D01*
X151193868Y-91501024D01*
X151390000Y-91520341D01*
X151586132Y-91501024D01*
X151774727Y-91443814D01*
X151806016Y-91427090D01*
X151948532Y-91350913D01*
X151948538Y-91350910D01*
X152100883Y-91225883D01*
X152171368Y-91139997D01*
X155015131Y-91139997D01*
X155015131Y-91140002D01*
X155032498Y-91249658D01*
X155082904Y-91348585D01*
X155082909Y-91348592D01*
X155161407Y-91427090D01*
X155161410Y-91427092D01*
X155161413Y-91427095D01*
X155260339Y-91477500D01*
X155260341Y-91477501D01*
X155369998Y-91494869D01*
X155370000Y-91494869D01*
X155370002Y-91494869D01*
X155479658Y-91477501D01*
X155479659Y-91477500D01*
X155479661Y-91477500D01*
X155578587Y-91427095D01*
X155657095Y-91348587D01*
X155707500Y-91249661D01*
X155707500Y-91249659D01*
X155707501Y-91249658D01*
X155724869Y-91140002D01*
X155724869Y-91139997D01*
X155707501Y-91030341D01*
X155695784Y-91007345D01*
X155657095Y-90931413D01*
X155657092Y-90931410D01*
X155657090Y-90931407D01*
X155578592Y-90852909D01*
X155578588Y-90852906D01*
X155578587Y-90852905D01*
X155508288Y-90817086D01*
X155479658Y-90802498D01*
X155370002Y-90785131D01*
X155369998Y-90785131D01*
X155260341Y-90802498D01*
X155161414Y-90852904D01*
X155161407Y-90852909D01*
X155082909Y-90931407D01*
X155082904Y-90931414D01*
X155032498Y-91030341D01*
X155015131Y-91139997D01*
X152171368Y-91139997D01*
X152225910Y-91073538D01*
X152301877Y-90931414D01*
X152318811Y-90899733D01*
X152318811Y-90899732D01*
X152318814Y-90899727D01*
X152376024Y-90711132D01*
X152395341Y-90515000D01*
X152384999Y-90409997D01*
X153325131Y-90409997D01*
X153325131Y-90410002D01*
X153342498Y-90519658D01*
X153392904Y-90618585D01*
X153392909Y-90618592D01*
X153471407Y-90697090D01*
X153471410Y-90697092D01*
X153471413Y-90697095D01*
X153570339Y-90747500D01*
X153570341Y-90747501D01*
X153679998Y-90764869D01*
X153680000Y-90764869D01*
X153680002Y-90764869D01*
X153789658Y-90747501D01*
X153789659Y-90747500D01*
X153789661Y-90747500D01*
X153888587Y-90697095D01*
X153967095Y-90618587D01*
X154017500Y-90519661D01*
X154017500Y-90519659D01*
X154017501Y-90519658D01*
X154034869Y-90410002D01*
X154034869Y-90409997D01*
X154017501Y-90300341D01*
X154017500Y-90300339D01*
X153967095Y-90201413D01*
X153967092Y-90201410D01*
X153967090Y-90201407D01*
X153888592Y-90122909D01*
X153888588Y-90122906D01*
X153888587Y-90122905D01*
X153863263Y-90110002D01*
X153789658Y-90072498D01*
X153680002Y-90055131D01*
X153679998Y-90055131D01*
X153570341Y-90072498D01*
X153471414Y-90122904D01*
X153471407Y-90122909D01*
X153392909Y-90201407D01*
X153392904Y-90201414D01*
X153342498Y-90300341D01*
X153325131Y-90409997D01*
X152384999Y-90409997D01*
X152376024Y-90318868D01*
X152318814Y-90130273D01*
X152318811Y-90130269D01*
X152318811Y-90130266D01*
X152225913Y-89956467D01*
X152225909Y-89956460D01*
X152100883Y-89804116D01*
X151948539Y-89679090D01*
X151948532Y-89679086D01*
X151774733Y-89586188D01*
X151774727Y-89586186D01*
X151586132Y-89528976D01*
X151586129Y-89528975D01*
X151390000Y-89509659D01*
X151193870Y-89528975D01*
X151005266Y-89586188D01*
X150831467Y-89679086D01*
X150831460Y-89679090D01*
X150679116Y-89804116D01*
X150554090Y-89956460D01*
X150554086Y-89956467D01*
X150461188Y-90130266D01*
X150403975Y-90318870D01*
X150384659Y-90515000D01*
X149855341Y-90515000D01*
X149836024Y-90318868D01*
X149778814Y-90130273D01*
X149778811Y-90130269D01*
X149778811Y-90130266D01*
X149685913Y-89956467D01*
X149685909Y-89956460D01*
X149560883Y-89804116D01*
X149408539Y-89679090D01*
X149408532Y-89679086D01*
X149234733Y-89586188D01*
X149234727Y-89586186D01*
X149046132Y-89528976D01*
X149046129Y-89528975D01*
X148850000Y-89509659D01*
X148653870Y-89528975D01*
X148465266Y-89586188D01*
X148291467Y-89679086D01*
X148291460Y-89679090D01*
X148139116Y-89804116D01*
X148014090Y-89956460D01*
X148014086Y-89956467D01*
X147921188Y-90130266D01*
X147863975Y-90318870D01*
X147844659Y-90515000D01*
X147315341Y-90515000D01*
X147296024Y-90318868D01*
X147238814Y-90130273D01*
X147238811Y-90130269D01*
X147238811Y-90130266D01*
X147145913Y-89956467D01*
X147145909Y-89956460D01*
X147020883Y-89804116D01*
X146868539Y-89679090D01*
X146868532Y-89679086D01*
X146694733Y-89586188D01*
X146694727Y-89586186D01*
X146506132Y-89528976D01*
X146506129Y-89528975D01*
X146310000Y-89509659D01*
X146113870Y-89528975D01*
X145925266Y-89586188D01*
X145751467Y-89679086D01*
X145751460Y-89679090D01*
X145599116Y-89804116D01*
X145474090Y-89956460D01*
X145474086Y-89956467D01*
X145381188Y-90130266D01*
X145323975Y-90318870D01*
X145304659Y-90515000D01*
X140090500Y-90515000D01*
X140090500Y-88959997D01*
X152365131Y-88959997D01*
X152365131Y-88960002D01*
X152382498Y-89069658D01*
X152432904Y-89168585D01*
X152432909Y-89168592D01*
X152511407Y-89247090D01*
X152511410Y-89247092D01*
X152511413Y-89247095D01*
X152610339Y-89297500D01*
X152624953Y-89299814D01*
X152688088Y-89329742D01*
X152725021Y-89389052D01*
X152728032Y-89441685D01*
X152725131Y-89460002D01*
X152742498Y-89569658D01*
X152792904Y-89668585D01*
X152792909Y-89668592D01*
X152871407Y-89747090D01*
X152871410Y-89747092D01*
X152871413Y-89747095D01*
X152970339Y-89797500D01*
X152970341Y-89797501D01*
X153079998Y-89814869D01*
X153080000Y-89814869D01*
X153080002Y-89814869D01*
X153189658Y-89797501D01*
X153189659Y-89797500D01*
X153189661Y-89797500D01*
X153288587Y-89747095D01*
X153367095Y-89668587D01*
X153417500Y-89569661D01*
X153430197Y-89489492D01*
X153460125Y-89426361D01*
X153519437Y-89389429D01*
X153589299Y-89390427D01*
X153608954Y-89398403D01*
X153695173Y-89442334D01*
X153695175Y-89442334D01*
X153695177Y-89442335D01*
X153804832Y-89459703D01*
X153804834Y-89459703D01*
X153804836Y-89459703D01*
X153914492Y-89442335D01*
X153914493Y-89442334D01*
X153914495Y-89442334D01*
X154013421Y-89391929D01*
X154091929Y-89313421D01*
X154112560Y-89272930D01*
X158770966Y-89272930D01*
X158770966Y-89272935D01*
X158788333Y-89382591D01*
X158838739Y-89481518D01*
X158838744Y-89481525D01*
X158917242Y-89560023D01*
X158917245Y-89560025D01*
X158917248Y-89560028D01*
X159016174Y-89610433D01*
X159016176Y-89610434D01*
X159125833Y-89627802D01*
X159125835Y-89627802D01*
X159125837Y-89627802D01*
X159235493Y-89610434D01*
X159235494Y-89610433D01*
X159235496Y-89610433D01*
X159334422Y-89560028D01*
X159412930Y-89481520D01*
X159463335Y-89382594D01*
X159463335Y-89382592D01*
X159463336Y-89382591D01*
X159480704Y-89272935D01*
X159480704Y-89272930D01*
X159463336Y-89163274D01*
X159456571Y-89149997D01*
X164745131Y-89149997D01*
X164745131Y-89150002D01*
X164762498Y-89259658D01*
X164812904Y-89358585D01*
X164812909Y-89358592D01*
X164891407Y-89437090D01*
X164891410Y-89437092D01*
X164891413Y-89437095D01*
X164936367Y-89460000D01*
X164990341Y-89487501D01*
X165099998Y-89504869D01*
X165100000Y-89504869D01*
X165100002Y-89504869D01*
X165209658Y-89487501D01*
X165209659Y-89487500D01*
X165209661Y-89487500D01*
X165308587Y-89437095D01*
X165387095Y-89358587D01*
X165437500Y-89259661D01*
X165437500Y-89259659D01*
X165437501Y-89259658D01*
X165454869Y-89150002D01*
X165454869Y-89149997D01*
X165437501Y-89040341D01*
X165414487Y-88995173D01*
X165387095Y-88941413D01*
X165387092Y-88941410D01*
X165387090Y-88941407D01*
X165308592Y-88862909D01*
X165308588Y-88862906D01*
X165308587Y-88862905D01*
X165283925Y-88850339D01*
X165209658Y-88812498D01*
X165100002Y-88795131D01*
X165099998Y-88795131D01*
X164990341Y-88812498D01*
X164891414Y-88862904D01*
X164891407Y-88862909D01*
X164812909Y-88941407D01*
X164812904Y-88941414D01*
X164762498Y-89040341D01*
X164745131Y-89149997D01*
X159456571Y-89149997D01*
X159412930Y-89064346D01*
X159412927Y-89064343D01*
X159412925Y-89064340D01*
X159334427Y-88985842D01*
X159334423Y-88985839D01*
X159334422Y-88985838D01*
X159283706Y-88959997D01*
X159235493Y-88935431D01*
X159125837Y-88918064D01*
X159125833Y-88918064D01*
X159016176Y-88935431D01*
X158917249Y-88985837D01*
X158917242Y-88985842D01*
X158838744Y-89064340D01*
X158838739Y-89064347D01*
X158788333Y-89163274D01*
X158770966Y-89272930D01*
X154112560Y-89272930D01*
X154142334Y-89214495D01*
X154142334Y-89214493D01*
X154142335Y-89214492D01*
X154159703Y-89104836D01*
X154159703Y-89104831D01*
X154142335Y-88995175D01*
X154129441Y-88969869D01*
X154091929Y-88896247D01*
X154091926Y-88896244D01*
X154091924Y-88896241D01*
X154013426Y-88817743D01*
X154013422Y-88817740D01*
X154013421Y-88817739D01*
X153947532Y-88784167D01*
X153914492Y-88767332D01*
X153804836Y-88749965D01*
X153804832Y-88749965D01*
X153695176Y-88767332D01*
X153664870Y-88782774D01*
X153596200Y-88795669D01*
X153531460Y-88769391D01*
X153520896Y-88759969D01*
X153466590Y-88705663D01*
X153466586Y-88705660D01*
X153466585Y-88705659D01*
X153418391Y-88681103D01*
X153367656Y-88655252D01*
X153258000Y-88637885D01*
X153257996Y-88637885D01*
X153148340Y-88655252D01*
X153071338Y-88694486D01*
X153002669Y-88707381D01*
X152937929Y-88681103D01*
X152929396Y-88673493D01*
X152928588Y-88672906D01*
X152928587Y-88672905D01*
X152893189Y-88654869D01*
X152829658Y-88622498D01*
X152720002Y-88605131D01*
X152719998Y-88605131D01*
X152610341Y-88622498D01*
X152511414Y-88672904D01*
X152511407Y-88672909D01*
X152432909Y-88751407D01*
X152432904Y-88751414D01*
X152382498Y-88850341D01*
X152365131Y-88959997D01*
X140090500Y-88959997D01*
X140090500Y-88299997D01*
X140965131Y-88299997D01*
X140965131Y-88300002D01*
X140982498Y-88409658D01*
X141032904Y-88508585D01*
X141032909Y-88508592D01*
X141111407Y-88587090D01*
X141111410Y-88587092D01*
X141111413Y-88587095D01*
X141209534Y-88637090D01*
X141210341Y-88637501D01*
X141319998Y-88654869D01*
X141320000Y-88654869D01*
X141320002Y-88654869D01*
X141429658Y-88637501D01*
X141429659Y-88637500D01*
X141429661Y-88637500D01*
X141528587Y-88587095D01*
X141607095Y-88508587D01*
X141657500Y-88409661D01*
X141657500Y-88409659D01*
X141657501Y-88409658D01*
X141673286Y-88309997D01*
X149085131Y-88309997D01*
X149085131Y-88310002D01*
X149102498Y-88419658D01*
X149152904Y-88518585D01*
X149152909Y-88518592D01*
X149231407Y-88597090D01*
X149231410Y-88597092D01*
X149231413Y-88597095D01*
X149315886Y-88640136D01*
X149330341Y-88647501D01*
X149439998Y-88664869D01*
X149440000Y-88664869D01*
X149440002Y-88664869D01*
X149549658Y-88647501D01*
X149549659Y-88647500D01*
X149549661Y-88647500D01*
X149648587Y-88597095D01*
X149727095Y-88518587D01*
X149777500Y-88419661D01*
X149777500Y-88419659D01*
X149777501Y-88419658D01*
X149788534Y-88349997D01*
X150425131Y-88349997D01*
X150425131Y-88350002D01*
X150442498Y-88459658D01*
X150492904Y-88558585D01*
X150492909Y-88558592D01*
X150571407Y-88637090D01*
X150571410Y-88637092D01*
X150571413Y-88637095D01*
X150642849Y-88673493D01*
X150670341Y-88687501D01*
X150779998Y-88704869D01*
X150780000Y-88704869D01*
X150780002Y-88704869D01*
X150889658Y-88687501D01*
X150889659Y-88687500D01*
X150889661Y-88687500D01*
X150988587Y-88637095D01*
X150997316Y-88628365D01*
X151058633Y-88594879D01*
X151128325Y-88599859D01*
X151172680Y-88628363D01*
X151184453Y-88640136D01*
X151184456Y-88640138D01*
X151184459Y-88640141D01*
X151264852Y-88681103D01*
X151283387Y-88690547D01*
X151393044Y-88707915D01*
X151393046Y-88707915D01*
X151393048Y-88707915D01*
X151502704Y-88690547D01*
X151502705Y-88690546D01*
X151502707Y-88690546D01*
X151601633Y-88640141D01*
X151680141Y-88561633D01*
X151730546Y-88462707D01*
X151730546Y-88462705D01*
X151730547Y-88462704D01*
X151747915Y-88353048D01*
X151747915Y-88353043D01*
X151739513Y-88299997D01*
X154855131Y-88299997D01*
X154855131Y-88300002D01*
X154872498Y-88409658D01*
X154922904Y-88508585D01*
X154922909Y-88508592D01*
X155001407Y-88587090D01*
X155001410Y-88587092D01*
X155001413Y-88587095D01*
X155099534Y-88637090D01*
X155100341Y-88637501D01*
X155209998Y-88654869D01*
X155209999Y-88654869D01*
X155209999Y-88654868D01*
X155210000Y-88654869D01*
X155233851Y-88651091D01*
X155303142Y-88660045D01*
X155356595Y-88705040D01*
X155363734Y-88717269D01*
X155367499Y-88724659D01*
X155367500Y-88724661D01*
X155414927Y-88817743D01*
X155417906Y-88823588D01*
X155417909Y-88823592D01*
X155496407Y-88902090D01*
X155496410Y-88902092D01*
X155496413Y-88902095D01*
X155595339Y-88952500D01*
X155595341Y-88952501D01*
X155704998Y-88969869D01*
X155705000Y-88969869D01*
X155705002Y-88969869D01*
X155814658Y-88952501D01*
X155814659Y-88952500D01*
X155814661Y-88952500D01*
X155913587Y-88902095D01*
X155992095Y-88823587D01*
X156042500Y-88724661D01*
X156042500Y-88724659D01*
X156042501Y-88724658D01*
X156059869Y-88615002D01*
X156059869Y-88614997D01*
X156042501Y-88505341D01*
X156020778Y-88462707D01*
X155992095Y-88406413D01*
X155992092Y-88406410D01*
X155992090Y-88406407D01*
X155913592Y-88327909D01*
X155913588Y-88327906D01*
X155913587Y-88327905D01*
X155878450Y-88310002D01*
X155814658Y-88277498D01*
X155705002Y-88260131D01*
X155705001Y-88260131D01*
X155705000Y-88260131D01*
X155694164Y-88261847D01*
X155681146Y-88263909D01*
X155611853Y-88254953D01*
X155558402Y-88209956D01*
X155551265Y-88197729D01*
X155544713Y-88184869D01*
X155497095Y-88091413D01*
X155497092Y-88091410D01*
X155497090Y-88091407D01*
X155418592Y-88012909D01*
X155418588Y-88012906D01*
X155418587Y-88012905D01*
X155407979Y-88007500D01*
X155319658Y-87962498D01*
X155210002Y-87945131D01*
X155209998Y-87945131D01*
X155100341Y-87962498D01*
X155001414Y-88012904D01*
X155001407Y-88012909D01*
X154922909Y-88091407D01*
X154922904Y-88091414D01*
X154872498Y-88190341D01*
X154855131Y-88299997D01*
X151739513Y-88299997D01*
X151730547Y-88243387D01*
X151703518Y-88190339D01*
X151680141Y-88144459D01*
X151680138Y-88144456D01*
X151680136Y-88144453D01*
X151601638Y-88065955D01*
X151601634Y-88065952D01*
X151601633Y-88065951D01*
X151521005Y-88024869D01*
X151502704Y-88015544D01*
X151393048Y-87998177D01*
X151393044Y-87998177D01*
X151283387Y-88015544D01*
X151184460Y-88065950D01*
X151184453Y-88065955D01*
X151175727Y-88074682D01*
X151114404Y-88108167D01*
X151044712Y-88103183D01*
X151000365Y-88074682D01*
X150988592Y-88062909D01*
X150988588Y-88062906D01*
X150988587Y-88062905D01*
X150913937Y-88024869D01*
X150889658Y-88012498D01*
X150780002Y-87995131D01*
X150779998Y-87995131D01*
X150670341Y-88012498D01*
X150571414Y-88062904D01*
X150571407Y-88062909D01*
X150492909Y-88141407D01*
X150492904Y-88141414D01*
X150442498Y-88240341D01*
X150425131Y-88349997D01*
X149788534Y-88349997D01*
X149794869Y-88310002D01*
X149794869Y-88309997D01*
X149777501Y-88200341D01*
X149735085Y-88117095D01*
X149727095Y-88101413D01*
X149727092Y-88101410D01*
X149727090Y-88101407D01*
X149648592Y-88022909D01*
X149648588Y-88022906D01*
X149648587Y-88022905D01*
X149618353Y-88007500D01*
X149549658Y-87972498D01*
X149440002Y-87955131D01*
X149439998Y-87955131D01*
X149330341Y-87972498D01*
X149231414Y-88022904D01*
X149231407Y-88022909D01*
X149152909Y-88101407D01*
X149152904Y-88101414D01*
X149102498Y-88200341D01*
X149085131Y-88309997D01*
X141673286Y-88309997D01*
X141674869Y-88300002D01*
X141674869Y-88299997D01*
X141657501Y-88190341D01*
X141652775Y-88181065D01*
X141607095Y-88091413D01*
X141607092Y-88091410D01*
X141607090Y-88091407D01*
X141528592Y-88012909D01*
X141528588Y-88012906D01*
X141528587Y-88012905D01*
X141517979Y-88007500D01*
X141429658Y-87962498D01*
X141320002Y-87945131D01*
X141319998Y-87945131D01*
X141210341Y-87962498D01*
X141111414Y-88012904D01*
X141111407Y-88012909D01*
X141032909Y-88091407D01*
X141032904Y-88091414D01*
X140982498Y-88190341D01*
X140965131Y-88299997D01*
X140090500Y-88299997D01*
X140090500Y-87529997D01*
X146915131Y-87529997D01*
X146915131Y-87530002D01*
X146932498Y-87639658D01*
X146982904Y-87738585D01*
X146982909Y-87738592D01*
X147061407Y-87817090D01*
X147061410Y-87817092D01*
X147061413Y-87817095D01*
X147124743Y-87849363D01*
X147160341Y-87867501D01*
X147269998Y-87884869D01*
X147270000Y-87884869D01*
X147270002Y-87884869D01*
X147379658Y-87867501D01*
X147379659Y-87867500D01*
X147379661Y-87867500D01*
X147453265Y-87829997D01*
X156475131Y-87829997D01*
X156475131Y-87830002D01*
X156492498Y-87939658D01*
X156542904Y-88038585D01*
X156542909Y-88038592D01*
X156621407Y-88117090D01*
X156621410Y-88117092D01*
X156621413Y-88117095D01*
X156720339Y-88167500D01*
X156720341Y-88167501D01*
X156829998Y-88184869D01*
X156830000Y-88184869D01*
X156830002Y-88184869D01*
X156939658Y-88167501D01*
X156939659Y-88167500D01*
X156939661Y-88167500D01*
X157038587Y-88117095D01*
X157117095Y-88038587D01*
X157167500Y-87939661D01*
X157167500Y-87939659D01*
X157167501Y-87939658D01*
X157184869Y-87830002D01*
X157184869Y-87830000D01*
X157182125Y-87812677D01*
X157191078Y-87743386D01*
X157236073Y-87689933D01*
X157251299Y-87682584D01*
X157250966Y-87681930D01*
X157259659Y-87677500D01*
X157259661Y-87677500D01*
X157274387Y-87669997D01*
X159225131Y-87669997D01*
X159225131Y-87670002D01*
X159242498Y-87779658D01*
X159292904Y-87878585D01*
X159292909Y-87878592D01*
X159371407Y-87957090D01*
X159371410Y-87957092D01*
X159371413Y-87957095D01*
X159470339Y-88007500D01*
X159470341Y-88007501D01*
X159579998Y-88024869D01*
X159580000Y-88024869D01*
X159580002Y-88024869D01*
X159689658Y-88007501D01*
X159689659Y-88007500D01*
X159689661Y-88007500D01*
X159788587Y-87957095D01*
X159797987Y-87947694D01*
X159859307Y-87914210D01*
X159928999Y-87919192D01*
X159941963Y-87924890D01*
X159965318Y-87936790D01*
X160074975Y-87954158D01*
X160074977Y-87954158D01*
X160074979Y-87954158D01*
X160184635Y-87936790D01*
X160184636Y-87936789D01*
X160184638Y-87936789D01*
X160283564Y-87886384D01*
X160362072Y-87807876D01*
X160412477Y-87708950D01*
X160412477Y-87708948D01*
X160412478Y-87708947D01*
X160429846Y-87599291D01*
X160429846Y-87599286D01*
X160412478Y-87489630D01*
X160393006Y-87451414D01*
X160362072Y-87390702D01*
X160362069Y-87390699D01*
X160362067Y-87390696D01*
X160283569Y-87312198D01*
X160283565Y-87312195D01*
X160283564Y-87312194D01*
X160269702Y-87305131D01*
X160184635Y-87261787D01*
X160074979Y-87244420D01*
X160074975Y-87244420D01*
X159965318Y-87261787D01*
X159866391Y-87312193D01*
X159866386Y-87312196D01*
X159856986Y-87321597D01*
X159795661Y-87355080D01*
X159725970Y-87350093D01*
X159713014Y-87344399D01*
X159704386Y-87340003D01*
X159689661Y-87332500D01*
X159689660Y-87332499D01*
X159689657Y-87332498D01*
X159580002Y-87315131D01*
X159579998Y-87315131D01*
X159470341Y-87332498D01*
X159371414Y-87382904D01*
X159371407Y-87382909D01*
X159292909Y-87461407D01*
X159292904Y-87461414D01*
X159242498Y-87560341D01*
X159225131Y-87669997D01*
X157274387Y-87669997D01*
X157358587Y-87627095D01*
X157437095Y-87548587D01*
X157487500Y-87449661D01*
X157487500Y-87449659D01*
X157487501Y-87449658D01*
X157504869Y-87340002D01*
X157504869Y-87339997D01*
X157487501Y-87230341D01*
X157459370Y-87175131D01*
X157437095Y-87131413D01*
X157437092Y-87131410D01*
X157437090Y-87131407D01*
X157358592Y-87052909D01*
X157358588Y-87052906D01*
X157358587Y-87052905D01*
X157328353Y-87037500D01*
X157259658Y-87002498D01*
X157150002Y-86985131D01*
X157149998Y-86985131D01*
X157040341Y-87002498D01*
X156941414Y-87052904D01*
X156941407Y-87052909D01*
X156862909Y-87131407D01*
X156862904Y-87131414D01*
X156812498Y-87230341D01*
X156795131Y-87339997D01*
X156795131Y-87340003D01*
X156797874Y-87357323D01*
X156788919Y-87426616D01*
X156743922Y-87480068D01*
X156728701Y-87487417D01*
X156729034Y-87488070D01*
X156720339Y-87492499D01*
X156720339Y-87492500D01*
X156621413Y-87542905D01*
X156621412Y-87542906D01*
X156621407Y-87542909D01*
X156542909Y-87621407D01*
X156542904Y-87621414D01*
X156492498Y-87720341D01*
X156475131Y-87829997D01*
X147453265Y-87829997D01*
X147478587Y-87817095D01*
X147557095Y-87738587D01*
X147607500Y-87639661D01*
X147607500Y-87639659D01*
X147607501Y-87639658D01*
X147624869Y-87530002D01*
X147624869Y-87529997D01*
X147607501Y-87420341D01*
X147588635Y-87383314D01*
X147557095Y-87321413D01*
X147557092Y-87321410D01*
X147557090Y-87321407D01*
X147478592Y-87242909D01*
X147478588Y-87242906D01*
X147478587Y-87242905D01*
X147453925Y-87230339D01*
X147379658Y-87192498D01*
X147270002Y-87175131D01*
X147269998Y-87175131D01*
X147160341Y-87192498D01*
X147061414Y-87242904D01*
X147061407Y-87242909D01*
X146982909Y-87321407D01*
X146982904Y-87321414D01*
X146932498Y-87420341D01*
X146915131Y-87529997D01*
X140090500Y-87529997D01*
X140090500Y-85637399D01*
X144299500Y-85637399D01*
X144299500Y-85762601D01*
X144331905Y-85883536D01*
X144394505Y-85991964D01*
X144483036Y-86080495D01*
X144591464Y-86143095D01*
X144712399Y-86175500D01*
X144712401Y-86175500D01*
X144837599Y-86175500D01*
X144837601Y-86175500D01*
X144958536Y-86143095D01*
X145066964Y-86080495D01*
X145155495Y-85991964D01*
X145218095Y-85883536D01*
X145243159Y-85789997D01*
X149165131Y-85789997D01*
X149165131Y-85790002D01*
X149182498Y-85899658D01*
X149182500Y-85899661D01*
X149229530Y-85991964D01*
X149237336Y-86007283D01*
X149234192Y-86008884D01*
X149251685Y-86057971D01*
X149236679Y-86122382D01*
X149237336Y-86122717D01*
X149235981Y-86125374D01*
X149235832Y-86126018D01*
X149234973Y-86127354D01*
X149182498Y-86230341D01*
X149165131Y-86339997D01*
X149165131Y-86340002D01*
X149182498Y-86449658D01*
X149232904Y-86548585D01*
X149232909Y-86548592D01*
X149311407Y-86627090D01*
X149311410Y-86627092D01*
X149311413Y-86627095D01*
X149410339Y-86677500D01*
X149410341Y-86677501D01*
X149519998Y-86694869D01*
X149520000Y-86694869D01*
X149520002Y-86694869D01*
X149629658Y-86677501D01*
X149629659Y-86677500D01*
X149629661Y-86677500D01*
X149728587Y-86627095D01*
X149735685Y-86619997D01*
X157465131Y-86619997D01*
X157465131Y-86620002D01*
X157482498Y-86729658D01*
X157532904Y-86828585D01*
X157532909Y-86828592D01*
X157611407Y-86907090D01*
X157611410Y-86907092D01*
X157611413Y-86907095D01*
X157710339Y-86957500D01*
X157710341Y-86957501D01*
X157819998Y-86974869D01*
X157820000Y-86974869D01*
X157820002Y-86974869D01*
X157929658Y-86957501D01*
X157929659Y-86957500D01*
X157929661Y-86957500D01*
X158028587Y-86907095D01*
X158107095Y-86828587D01*
X158157500Y-86729661D01*
X158157500Y-86729659D01*
X158157501Y-86729658D01*
X158162199Y-86699997D01*
X165305131Y-86699997D01*
X165305131Y-86700002D01*
X165322498Y-86809658D01*
X165372904Y-86908585D01*
X165372909Y-86908592D01*
X165451407Y-86987090D01*
X165451410Y-86987092D01*
X165451413Y-86987095D01*
X165550339Y-87037500D01*
X165550341Y-87037501D01*
X165659998Y-87054869D01*
X165660000Y-87054869D01*
X165660002Y-87054869D01*
X165769658Y-87037501D01*
X165769659Y-87037500D01*
X165769661Y-87037500D01*
X165868587Y-86987095D01*
X165947095Y-86908587D01*
X165997500Y-86809661D01*
X165997500Y-86809659D01*
X165997501Y-86809658D01*
X166014869Y-86700002D01*
X166014869Y-86699997D01*
X165997501Y-86590341D01*
X165956738Y-86510339D01*
X165947095Y-86491413D01*
X165947092Y-86491410D01*
X165947090Y-86491407D01*
X165868592Y-86412909D01*
X165868588Y-86412906D01*
X165868587Y-86412905D01*
X165846541Y-86401672D01*
X165769658Y-86362498D01*
X165660002Y-86345131D01*
X165659998Y-86345131D01*
X165550341Y-86362498D01*
X165451414Y-86412904D01*
X165451407Y-86412909D01*
X165372909Y-86491407D01*
X165372904Y-86491414D01*
X165322498Y-86590341D01*
X165305131Y-86699997D01*
X158162199Y-86699997D01*
X158174869Y-86620002D01*
X158174869Y-86619997D01*
X158157501Y-86510341D01*
X158107855Y-86412904D01*
X158107095Y-86411413D01*
X158107094Y-86411412D01*
X158102664Y-86402717D01*
X158104713Y-86401672D01*
X158085763Y-86348573D01*
X158101583Y-86280518D01*
X158111929Y-86266902D01*
X158111356Y-86266486D01*
X158117089Y-86258592D01*
X158117095Y-86258587D01*
X158167500Y-86159661D01*
X158167500Y-86159659D01*
X158167501Y-86159658D01*
X158184869Y-86050002D01*
X158184869Y-86049997D01*
X158167501Y-85940341D01*
X158167500Y-85940339D01*
X158117095Y-85841413D01*
X158117092Y-85841410D01*
X158117090Y-85841407D01*
X158038592Y-85762909D01*
X158038588Y-85762906D01*
X158038587Y-85762905D01*
X158034743Y-85760946D01*
X157939658Y-85712498D01*
X157830002Y-85695131D01*
X157829998Y-85695131D01*
X157720341Y-85712498D01*
X157621414Y-85762904D01*
X157621407Y-85762909D01*
X157542909Y-85841407D01*
X157542904Y-85841414D01*
X157492498Y-85940341D01*
X157475131Y-86049997D01*
X157475131Y-86050002D01*
X157492498Y-86159658D01*
X157547336Y-86267283D01*
X157545286Y-86268327D01*
X157564236Y-86321431D01*
X157548414Y-86389485D01*
X157538073Y-86403099D01*
X157538644Y-86403514D01*
X157532904Y-86411414D01*
X157482498Y-86510341D01*
X157465131Y-86619997D01*
X149735685Y-86619997D01*
X149807095Y-86548587D01*
X149857500Y-86449661D01*
X149857500Y-86449659D01*
X149857501Y-86449658D01*
X149874869Y-86340002D01*
X149874869Y-86339997D01*
X149857501Y-86230341D01*
X149802664Y-86122717D01*
X149805813Y-86121112D01*
X149788318Y-86072086D01*
X149803307Y-86007610D01*
X149802664Y-86007283D01*
X149803986Y-86004686D01*
X149804139Y-86004032D01*
X149805015Y-86002668D01*
X149807093Y-85998588D01*
X149807095Y-85998587D01*
X149857500Y-85899661D01*
X149857500Y-85899659D01*
X149857501Y-85899658D01*
X149874869Y-85790002D01*
X149874869Y-85789997D01*
X149857501Y-85680341D01*
X149857500Y-85680339D01*
X149807095Y-85581413D01*
X149807092Y-85581410D01*
X149807090Y-85581407D01*
X149728592Y-85502909D01*
X149728588Y-85502906D01*
X149728587Y-85502905D01*
X149724743Y-85500946D01*
X149629658Y-85452498D01*
X149520002Y-85435131D01*
X149519998Y-85435131D01*
X149410341Y-85452498D01*
X149311414Y-85502904D01*
X149311407Y-85502909D01*
X149232909Y-85581407D01*
X149232904Y-85581414D01*
X149182498Y-85680341D01*
X149165131Y-85789997D01*
X145243159Y-85789997D01*
X145250500Y-85762601D01*
X145250500Y-85637399D01*
X145218095Y-85516464D01*
X145155495Y-85408036D01*
X145066964Y-85319505D01*
X144958536Y-85256905D01*
X144958537Y-85256905D01*
X144895454Y-85240002D01*
X144837601Y-85224500D01*
X144712399Y-85224500D01*
X144654546Y-85240002D01*
X144591463Y-85256905D01*
X144483037Y-85319504D01*
X144483034Y-85319506D01*
X144394506Y-85408034D01*
X144394504Y-85408037D01*
X144331905Y-85516463D01*
X144331905Y-85516464D01*
X144299500Y-85637399D01*
X140090500Y-85637399D01*
X140090500Y-85239997D01*
X143235131Y-85239997D01*
X143235131Y-85240002D01*
X143252498Y-85349658D01*
X143302904Y-85448585D01*
X143302909Y-85448592D01*
X143381407Y-85527090D01*
X143381410Y-85527092D01*
X143381413Y-85527095D01*
X143480339Y-85577500D01*
X143480341Y-85577501D01*
X143589998Y-85594869D01*
X143590000Y-85594869D01*
X143590002Y-85594869D01*
X143699658Y-85577501D01*
X143699659Y-85577500D01*
X143699661Y-85577500D01*
X143798587Y-85527095D01*
X143877095Y-85448587D01*
X143927500Y-85349661D01*
X143927500Y-85349659D01*
X143927501Y-85349658D01*
X143944869Y-85240002D01*
X143944869Y-85239997D01*
X143927501Y-85130341D01*
X143902829Y-85081919D01*
X143877095Y-85031413D01*
X143877092Y-85031410D01*
X143877090Y-85031407D01*
X143798592Y-84952909D01*
X143798588Y-84952906D01*
X143798587Y-84952905D01*
X143794743Y-84950946D01*
X143699658Y-84902498D01*
X143590002Y-84885131D01*
X143589998Y-84885131D01*
X143480341Y-84902498D01*
X143381414Y-84952904D01*
X143381407Y-84952909D01*
X143302909Y-85031407D01*
X143302904Y-85031414D01*
X143252498Y-85130341D01*
X143235131Y-85239997D01*
X140090500Y-85239997D01*
X140090500Y-84873331D01*
X157359127Y-84873331D01*
X157359127Y-84873336D01*
X157376494Y-84982992D01*
X157426900Y-85081919D01*
X157426905Y-85081926D01*
X157505403Y-85160424D01*
X157505406Y-85160426D01*
X157505409Y-85160429D01*
X157604335Y-85210834D01*
X157604337Y-85210835D01*
X157713994Y-85228203D01*
X157713996Y-85228203D01*
X157713998Y-85228203D01*
X157823654Y-85210835D01*
X157823655Y-85210834D01*
X157823657Y-85210834D01*
X157922583Y-85160429D01*
X158001091Y-85081921D01*
X158051496Y-84982995D01*
X158051496Y-84982993D01*
X158051497Y-84982992D01*
X158068865Y-84873336D01*
X158068865Y-84873331D01*
X158051497Y-84763675D01*
X158014033Y-84690147D01*
X158001137Y-84621478D01*
X158027414Y-84556738D01*
X158036830Y-84546178D01*
X158047095Y-84535914D01*
X158097500Y-84436988D01*
X158097500Y-84436986D01*
X158097501Y-84436985D01*
X158114869Y-84327329D01*
X158114869Y-84327324D01*
X158097501Y-84217670D01*
X158097500Y-84217668D01*
X158097500Y-84217666D01*
X158068630Y-84161005D01*
X158055735Y-84092340D01*
X158082011Y-84027599D01*
X158085031Y-84024213D01*
X158087090Y-84021377D01*
X158087096Y-84021372D01*
X158137501Y-83922446D01*
X158137501Y-83922444D01*
X158137502Y-83922443D01*
X158154870Y-83812787D01*
X158154870Y-83812782D01*
X158135975Y-83693485D01*
X158139048Y-83692998D01*
X158137520Y-83639478D01*
X158173602Y-83579646D01*
X158236303Y-83548819D01*
X158276842Y-83548530D01*
X158354127Y-83560771D01*
X158379999Y-83564869D01*
X158380000Y-83564869D01*
X158380002Y-83564869D01*
X158489658Y-83547501D01*
X158489659Y-83547500D01*
X158489661Y-83547500D01*
X158588587Y-83497095D01*
X158667095Y-83418587D01*
X158717500Y-83319661D01*
X158717500Y-83319659D01*
X158717501Y-83319658D01*
X158727524Y-83256379D01*
X159859500Y-83256379D01*
X159859500Y-83443620D01*
X159896025Y-83627243D01*
X159896027Y-83627251D01*
X159967676Y-83800228D01*
X159967681Y-83800237D01*
X160071697Y-83955907D01*
X160071700Y-83955911D01*
X160204088Y-84088299D01*
X160204092Y-84088302D01*
X160359762Y-84192318D01*
X160359768Y-84192321D01*
X160359769Y-84192322D01*
X160532749Y-84263973D01*
X160716379Y-84300499D01*
X160716383Y-84300500D01*
X160716384Y-84300500D01*
X160903617Y-84300500D01*
X160903618Y-84300499D01*
X161087251Y-84263973D01*
X161260231Y-84192322D01*
X161415908Y-84088302D01*
X161548302Y-83955908D01*
X161652322Y-83800231D01*
X161723973Y-83627251D01*
X161741329Y-83539997D01*
X163415131Y-83539997D01*
X163415131Y-83540002D01*
X163432498Y-83649658D01*
X163482904Y-83748585D01*
X163482909Y-83748592D01*
X163561407Y-83827090D01*
X163561410Y-83827092D01*
X163561413Y-83827095D01*
X163660339Y-83877500D01*
X163660341Y-83877501D01*
X163769998Y-83894869D01*
X163770000Y-83894869D01*
X163770002Y-83894869D01*
X163879656Y-83877501D01*
X163879656Y-83877500D01*
X163879661Y-83877500D01*
X163948709Y-83842318D01*
X164017374Y-83829423D01*
X164061287Y-83842316D01*
X164130339Y-83877500D01*
X164130341Y-83877500D01*
X164130343Y-83877501D01*
X164239998Y-83894869D01*
X164240000Y-83894869D01*
X164240002Y-83894869D01*
X164349658Y-83877501D01*
X164349659Y-83877500D01*
X164349661Y-83877500D01*
X164448587Y-83827095D01*
X164527095Y-83748587D01*
X164577500Y-83649661D01*
X164577500Y-83649659D01*
X164577501Y-83649658D01*
X164594869Y-83540002D01*
X164594869Y-83539997D01*
X164577501Y-83430341D01*
X164554884Y-83385953D01*
X164527095Y-83331413D01*
X164527092Y-83331410D01*
X164527090Y-83331407D01*
X164448592Y-83252909D01*
X164448588Y-83252906D01*
X164448587Y-83252905D01*
X164444016Y-83250576D01*
X164349658Y-83202498D01*
X164240002Y-83185131D01*
X164239998Y-83185131D01*
X164130341Y-83202498D01*
X164061294Y-83237680D01*
X163992625Y-83250576D01*
X163948706Y-83237680D01*
X163879658Y-83202498D01*
X163770002Y-83185131D01*
X163769998Y-83185131D01*
X163660341Y-83202498D01*
X163561414Y-83252904D01*
X163561407Y-83252909D01*
X163482909Y-83331407D01*
X163482904Y-83331414D01*
X163432498Y-83430341D01*
X163415131Y-83539997D01*
X161741329Y-83539997D01*
X161760500Y-83443616D01*
X161760500Y-83256384D01*
X161723973Y-83072749D01*
X161652322Y-82899769D01*
X161652321Y-82899768D01*
X161652318Y-82899762D01*
X161548302Y-82744092D01*
X161548299Y-82744088D01*
X161415911Y-82611700D01*
X161415907Y-82611697D01*
X161260237Y-82507681D01*
X161260228Y-82507676D01*
X161087251Y-82436027D01*
X161087243Y-82436025D01*
X160903620Y-82399500D01*
X160903616Y-82399500D01*
X160716384Y-82399500D01*
X160716379Y-82399500D01*
X160532756Y-82436025D01*
X160532748Y-82436027D01*
X160359771Y-82507676D01*
X160359762Y-82507681D01*
X160204092Y-82611697D01*
X160204088Y-82611700D01*
X160071700Y-82744088D01*
X160071697Y-82744092D01*
X159967681Y-82899762D01*
X159967676Y-82899771D01*
X159896027Y-83072748D01*
X159896025Y-83072756D01*
X159859500Y-83256379D01*
X158727524Y-83256379D01*
X158734869Y-83210002D01*
X158734869Y-83209997D01*
X158717501Y-83100341D01*
X158689163Y-83044725D01*
X158667095Y-83001413D01*
X158667092Y-83001410D01*
X158667090Y-83001407D01*
X158588592Y-82922909D01*
X158588588Y-82922906D01*
X158588587Y-82922905D01*
X158543166Y-82899762D01*
X158489658Y-82872498D01*
X158380002Y-82855131D01*
X158379998Y-82855131D01*
X158260700Y-82874026D01*
X158260447Y-82872434D01*
X158201670Y-82874113D01*
X158141838Y-82838031D01*
X158111011Y-82775330D01*
X158110722Y-82734788D01*
X158129453Y-82616529D01*
X158129453Y-82616526D01*
X158112085Y-82506870D01*
X158091005Y-82465498D01*
X158061679Y-82407942D01*
X158061676Y-82407939D01*
X158055940Y-82400043D01*
X158058828Y-82397944D01*
X158033939Y-82352363D01*
X158038923Y-82282671D01*
X158044613Y-82269725D01*
X158065698Y-82228344D01*
X158071825Y-82189661D01*
X158083067Y-82118685D01*
X158083067Y-82118680D01*
X158065699Y-82009024D01*
X158045988Y-81970339D01*
X158015293Y-81910096D01*
X158015290Y-81910093D01*
X158015288Y-81910090D01*
X158005195Y-81899997D01*
X159235131Y-81899997D01*
X159235131Y-81900002D01*
X159252498Y-82009658D01*
X159302904Y-82108585D01*
X159302909Y-82108592D01*
X159381407Y-82187090D01*
X159381410Y-82187092D01*
X159381413Y-82187095D01*
X159462369Y-82228344D01*
X159480341Y-82237501D01*
X159589998Y-82254869D01*
X159590000Y-82254869D01*
X159590002Y-82254869D01*
X159699658Y-82237501D01*
X159699659Y-82237500D01*
X159699661Y-82237500D01*
X159798587Y-82187095D01*
X159877095Y-82108587D01*
X159927500Y-82009661D01*
X159927500Y-82009659D01*
X159927501Y-82009658D01*
X159944869Y-81900002D01*
X159944869Y-81899997D01*
X159927501Y-81790341D01*
X159894275Y-81725131D01*
X159877095Y-81691413D01*
X159877092Y-81691410D01*
X159877090Y-81691407D01*
X159798592Y-81612909D01*
X159798588Y-81612906D01*
X159798587Y-81612905D01*
X159763189Y-81594869D01*
X159699658Y-81562498D01*
X159590002Y-81545131D01*
X159589998Y-81545131D01*
X159480341Y-81562498D01*
X159381414Y-81612904D01*
X159381407Y-81612909D01*
X159302909Y-81691407D01*
X159302904Y-81691414D01*
X159252498Y-81790341D01*
X159235131Y-81899997D01*
X158005195Y-81899997D01*
X157936790Y-81831592D01*
X157936786Y-81831589D01*
X157936785Y-81831588D01*
X157860873Y-81792909D01*
X157837856Y-81781181D01*
X157728200Y-81763814D01*
X157728196Y-81763814D01*
X157618539Y-81781181D01*
X157519612Y-81831587D01*
X157519605Y-81831592D01*
X157441107Y-81910090D01*
X157441102Y-81910097D01*
X157390696Y-82009024D01*
X157373329Y-82118680D01*
X157373329Y-82118685D01*
X157390696Y-82228341D01*
X157441102Y-82327268D01*
X157446842Y-82335169D01*
X157443953Y-82337267D01*
X157468842Y-82382848D01*
X157463858Y-82452540D01*
X157458162Y-82465498D01*
X157437082Y-82506870D01*
X157419715Y-82616526D01*
X157419715Y-82616531D01*
X157437082Y-82726187D01*
X157446152Y-82743988D01*
X157487489Y-82825116D01*
X157563126Y-82900753D01*
X157596610Y-82962074D01*
X157591626Y-83031766D01*
X157585930Y-83044725D01*
X157552499Y-83110341D01*
X157535131Y-83219997D01*
X157535131Y-83220002D01*
X157552498Y-83329656D01*
X157552499Y-83329659D01*
X157552500Y-83329661D01*
X157590902Y-83405030D01*
X157603798Y-83473698D01*
X157577521Y-83538438D01*
X157568099Y-83549004D01*
X157512907Y-83604195D01*
X157512905Y-83604199D01*
X157462499Y-83703126D01*
X157445132Y-83812782D01*
X157445132Y-83812787D01*
X157462499Y-83922442D01*
X157491370Y-83979105D01*
X157504265Y-84047774D01*
X157477988Y-84112514D01*
X157474965Y-84115903D01*
X157472903Y-84118740D01*
X157422498Y-84217668D01*
X157405131Y-84327324D01*
X157405131Y-84327329D01*
X157422498Y-84436985D01*
X157459962Y-84510513D01*
X157472858Y-84579183D01*
X157446581Y-84643923D01*
X157437161Y-84654486D01*
X157426903Y-84664743D01*
X157426900Y-84664748D01*
X157376494Y-84763675D01*
X157359127Y-84873331D01*
X140090500Y-84873331D01*
X140090500Y-84069997D01*
X141390131Y-84069997D01*
X141390131Y-84070002D01*
X141407498Y-84179658D01*
X141457904Y-84278585D01*
X141457909Y-84278592D01*
X141536407Y-84357090D01*
X141536410Y-84357092D01*
X141536413Y-84357095D01*
X141635339Y-84407500D01*
X141635341Y-84407501D01*
X141744998Y-84424869D01*
X141745000Y-84424869D01*
X141745002Y-84424869D01*
X141854658Y-84407501D01*
X141854659Y-84407500D01*
X141854661Y-84407500D01*
X141953587Y-84357095D01*
X142032095Y-84278587D01*
X142082500Y-84179661D01*
X142082500Y-84179659D01*
X142082501Y-84179658D01*
X142099869Y-84070002D01*
X142099869Y-84069997D01*
X142082501Y-83960341D01*
X142068606Y-83933071D01*
X142032095Y-83861413D01*
X142032092Y-83861410D01*
X142032090Y-83861407D01*
X141953592Y-83782909D01*
X141953588Y-83782906D01*
X141953587Y-83782905D01*
X141886230Y-83748585D01*
X141854658Y-83732498D01*
X141745002Y-83715131D01*
X141744998Y-83715131D01*
X141635341Y-83732498D01*
X141536414Y-83782904D01*
X141536407Y-83782909D01*
X141457909Y-83861407D01*
X141457904Y-83861414D01*
X141407498Y-83960341D01*
X141390131Y-84069997D01*
X140090500Y-84069997D01*
X140090500Y-83649997D01*
X144715131Y-83649997D01*
X144715131Y-83650002D01*
X144732498Y-83759658D01*
X144782904Y-83858585D01*
X144782909Y-83858592D01*
X144861407Y-83937090D01*
X144861410Y-83937092D01*
X144861413Y-83937095D01*
X144943863Y-83979105D01*
X144960341Y-83987501D01*
X145069998Y-84004869D01*
X145070000Y-84004869D01*
X145070002Y-84004869D01*
X145179658Y-83987501D01*
X145179659Y-83987500D01*
X145179661Y-83987500D01*
X145278587Y-83937095D01*
X145357095Y-83858587D01*
X145407500Y-83759661D01*
X145407500Y-83759659D01*
X145407501Y-83759658D01*
X145424869Y-83650002D01*
X145424869Y-83649997D01*
X145407501Y-83540341D01*
X145406531Y-83538438D01*
X145357095Y-83441413D01*
X145357092Y-83441410D01*
X145357090Y-83441407D01*
X145278592Y-83362909D01*
X145278588Y-83362906D01*
X145278587Y-83362905D01*
X145270112Y-83358587D01*
X145179658Y-83312498D01*
X145070002Y-83295131D01*
X145069998Y-83295131D01*
X144960341Y-83312498D01*
X144861414Y-83362904D01*
X144861407Y-83362909D01*
X144782909Y-83441407D01*
X144782904Y-83441414D01*
X144732498Y-83540341D01*
X144715131Y-83649997D01*
X140090500Y-83649997D01*
X140090500Y-83181029D01*
X140099036Y-83151957D01*
X140096393Y-83145944D01*
X140333381Y-83145944D01*
X140333477Y-83146094D01*
X140336973Y-83161631D01*
X140352498Y-83259658D01*
X140402904Y-83358585D01*
X140402909Y-83358592D01*
X140481407Y-83437090D01*
X140481410Y-83437092D01*
X140481413Y-83437095D01*
X140555365Y-83474775D01*
X140580341Y-83487501D01*
X140689998Y-83504869D01*
X140690000Y-83504869D01*
X140690002Y-83504869D01*
X140799658Y-83487501D01*
X140799659Y-83487500D01*
X140799661Y-83487500D01*
X140898587Y-83437095D01*
X140977095Y-83358587D01*
X141027500Y-83259661D01*
X141027500Y-83259659D01*
X141027501Y-83259658D01*
X141044869Y-83150002D01*
X141044869Y-83149997D01*
X141027501Y-83040341D01*
X141022783Y-83031081D01*
X148586547Y-83031081D01*
X148586547Y-83031086D01*
X148603914Y-83140742D01*
X148654320Y-83239669D01*
X148654325Y-83239676D01*
X148732823Y-83318174D01*
X148732826Y-83318176D01*
X148732829Y-83318179D01*
X148820607Y-83362904D01*
X148831757Y-83368585D01*
X148941414Y-83385953D01*
X148941416Y-83385953D01*
X148941418Y-83385953D01*
X149042196Y-83369991D01*
X149111489Y-83378945D01*
X149164941Y-83423941D01*
X149185581Y-83490693D01*
X149172079Y-83548757D01*
X149138416Y-83614825D01*
X149138416Y-83614826D01*
X149121048Y-83724483D01*
X149121048Y-83724488D01*
X149138415Y-83834144D01*
X149188821Y-83933071D01*
X149188826Y-83933078D01*
X149267324Y-84011576D01*
X149267327Y-84011578D01*
X149267330Y-84011581D01*
X149342840Y-84050055D01*
X149366258Y-84061987D01*
X149475915Y-84079355D01*
X149475917Y-84079355D01*
X149475919Y-84079355D01*
X149585575Y-84061987D01*
X149585576Y-84061986D01*
X149585578Y-84061986D01*
X149684504Y-84011581D01*
X149763012Y-83933073D01*
X149813417Y-83834147D01*
X149813417Y-83834145D01*
X149813418Y-83834144D01*
X149830786Y-83724488D01*
X149830786Y-83724483D01*
X149813418Y-83614829D01*
X149813417Y-83614827D01*
X149813417Y-83614825D01*
X149770301Y-83530205D01*
X149757406Y-83461540D01*
X149770300Y-83417625D01*
X149812836Y-83334145D01*
X149813547Y-83329661D01*
X149830205Y-83224486D01*
X149830205Y-83224481D01*
X149812837Y-83114825D01*
X149791398Y-83072748D01*
X149762431Y-83015897D01*
X149762428Y-83015894D01*
X149762426Y-83015891D01*
X149683928Y-82937393D01*
X149683924Y-82937390D01*
X149683923Y-82937389D01*
X149655504Y-82922909D01*
X149584994Y-82886982D01*
X149475338Y-82869615D01*
X149475332Y-82869615D01*
X149358138Y-82888176D01*
X149288845Y-82879221D01*
X149235393Y-82834225D01*
X149228700Y-82822758D01*
X149228512Y-82822499D01*
X149228511Y-82822497D01*
X149228508Y-82822494D01*
X149228506Y-82822491D01*
X149150008Y-82743993D01*
X149150004Y-82743990D01*
X149150003Y-82743989D01*
X149131945Y-82734788D01*
X149051074Y-82693582D01*
X148941418Y-82676215D01*
X148941414Y-82676215D01*
X148831757Y-82693582D01*
X148732830Y-82743988D01*
X148732823Y-82743993D01*
X148654325Y-82822491D01*
X148654320Y-82822498D01*
X148603914Y-82921425D01*
X148586547Y-83031081D01*
X141022783Y-83031081D01*
X141015043Y-83015891D01*
X140977095Y-82941413D01*
X140977092Y-82941410D01*
X140977090Y-82941407D01*
X140898592Y-82862909D01*
X140898588Y-82862906D01*
X140898587Y-82862905D01*
X140842299Y-82834225D01*
X140799658Y-82812498D01*
X140690002Y-82795131D01*
X140689998Y-82795131D01*
X140580341Y-82812498D01*
X140481414Y-82862904D01*
X140481407Y-82862909D01*
X140402909Y-82941407D01*
X140402904Y-82941414D01*
X140352498Y-83040341D01*
X140336973Y-83138368D01*
X140333381Y-83145944D01*
X140096393Y-83145944D01*
X140091523Y-83134863D01*
X140090500Y-83118970D01*
X140090500Y-82169997D01*
X141390131Y-82169997D01*
X141390131Y-82170002D01*
X141407498Y-82279658D01*
X141457904Y-82378585D01*
X141457909Y-82378592D01*
X141536407Y-82457090D01*
X141536410Y-82457092D01*
X141536413Y-82457095D01*
X141634099Y-82506868D01*
X141635341Y-82507501D01*
X141744998Y-82524869D01*
X141745000Y-82524869D01*
X141745002Y-82524869D01*
X141854658Y-82507501D01*
X141854659Y-82507500D01*
X141854661Y-82507500D01*
X141953587Y-82457095D01*
X142032095Y-82378587D01*
X142082500Y-82279661D01*
X142082500Y-82279659D01*
X142082501Y-82279658D01*
X142099869Y-82170002D01*
X142099869Y-82169997D01*
X142085614Y-82079997D01*
X144745131Y-82079997D01*
X144745131Y-82080002D01*
X144762498Y-82189658D01*
X144812904Y-82288585D01*
X144812909Y-82288592D01*
X144891407Y-82367090D01*
X144891410Y-82367092D01*
X144891413Y-82367095D01*
X144971580Y-82407942D01*
X144990341Y-82417501D01*
X145099998Y-82434869D01*
X145100000Y-82434869D01*
X145100002Y-82434869D01*
X145209658Y-82417501D01*
X145209659Y-82417500D01*
X145209661Y-82417500D01*
X145308587Y-82367095D01*
X145387095Y-82288587D01*
X145437500Y-82189661D01*
X145437500Y-82189659D01*
X145437501Y-82189658D01*
X145454869Y-82080002D01*
X145454869Y-82079997D01*
X145437501Y-81970341D01*
X145437500Y-81970339D01*
X145387095Y-81871413D01*
X145387092Y-81871410D01*
X145387090Y-81871407D01*
X145308592Y-81792909D01*
X145308588Y-81792906D01*
X145308587Y-81792905D01*
X145285577Y-81781181D01*
X145209658Y-81742498D01*
X145100002Y-81725131D01*
X145099998Y-81725131D01*
X144990341Y-81742498D01*
X144891414Y-81792904D01*
X144891407Y-81792909D01*
X144812909Y-81871407D01*
X144812904Y-81871414D01*
X144762498Y-81970341D01*
X144745131Y-82079997D01*
X142085614Y-82079997D01*
X142082501Y-82060341D01*
X142036643Y-81970339D01*
X142032095Y-81961413D01*
X142032092Y-81961410D01*
X142032090Y-81961407D01*
X141953592Y-81882909D01*
X141953588Y-81882906D01*
X141953587Y-81882905D01*
X141931021Y-81871407D01*
X141854658Y-81832498D01*
X141745002Y-81815131D01*
X141744998Y-81815131D01*
X141635341Y-81832498D01*
X141536414Y-81882904D01*
X141536407Y-81882909D01*
X141457909Y-81961407D01*
X141457904Y-81961414D01*
X141407498Y-82060341D01*
X141390131Y-82169997D01*
X140090500Y-82169997D01*
X140090500Y-80379997D01*
X143225131Y-80379997D01*
X143225131Y-80380002D01*
X143242498Y-80489658D01*
X143292904Y-80588585D01*
X143292909Y-80588592D01*
X143371407Y-80667090D01*
X143371410Y-80667092D01*
X143371413Y-80667095D01*
X143470339Y-80717500D01*
X143470341Y-80717501D01*
X143579998Y-80734869D01*
X143580000Y-80734869D01*
X143580002Y-80734869D01*
X143689658Y-80717501D01*
X143689659Y-80717500D01*
X143689661Y-80717500D01*
X143788587Y-80667095D01*
X143867095Y-80588587D01*
X143917500Y-80489661D01*
X143917500Y-80489659D01*
X143917501Y-80489658D01*
X143934869Y-80380002D01*
X143934869Y-80379997D01*
X143917501Y-80270341D01*
X143893890Y-80224002D01*
X143867095Y-80171413D01*
X143867092Y-80171410D01*
X143867090Y-80171407D01*
X143788592Y-80092909D01*
X143788588Y-80092906D01*
X143788587Y-80092905D01*
X143711105Y-80053426D01*
X143689658Y-80042498D01*
X143580002Y-80025131D01*
X143579998Y-80025131D01*
X143470341Y-80042498D01*
X143371414Y-80092904D01*
X143371407Y-80092909D01*
X143292909Y-80171407D01*
X143292904Y-80171414D01*
X143242498Y-80270341D01*
X143225131Y-80379997D01*
X140090500Y-80379997D01*
X140090500Y-79857399D01*
X144299500Y-79857399D01*
X144299500Y-79982601D01*
X144331905Y-80103536D01*
X144394505Y-80211964D01*
X144483036Y-80300495D01*
X144591464Y-80363095D01*
X144712399Y-80395500D01*
X144712401Y-80395500D01*
X144837599Y-80395500D01*
X144837601Y-80395500D01*
X144958536Y-80363095D01*
X145066964Y-80300495D01*
X145155495Y-80211964D01*
X145218095Y-80103536D01*
X145250500Y-79982601D01*
X145250500Y-79857399D01*
X145218095Y-79736464D01*
X145155495Y-79628036D01*
X145066964Y-79539505D01*
X144958536Y-79476905D01*
X144958537Y-79476905D01*
X144906284Y-79462904D01*
X144837601Y-79444500D01*
X144712399Y-79444500D01*
X144643716Y-79462904D01*
X144591463Y-79476905D01*
X144483037Y-79539504D01*
X144483034Y-79539506D01*
X144394506Y-79628034D01*
X144394504Y-79628037D01*
X144331905Y-79736463D01*
X144331905Y-79736464D01*
X144299500Y-79857399D01*
X140090500Y-79857399D01*
X140090500Y-79109997D01*
X148045131Y-79109997D01*
X148045131Y-79110002D01*
X148062498Y-79219658D01*
X148112904Y-79318585D01*
X148112909Y-79318592D01*
X148191407Y-79397090D01*
X148191410Y-79397092D01*
X148191413Y-79397095D01*
X148283578Y-79444055D01*
X148290341Y-79447501D01*
X148399998Y-79464869D01*
X148400000Y-79464869D01*
X148400002Y-79464869D01*
X148509658Y-79447501D01*
X148509659Y-79447500D01*
X148509661Y-79447500D01*
X148608587Y-79397095D01*
X148687095Y-79318587D01*
X148737500Y-79219661D01*
X148737500Y-79219659D01*
X148737501Y-79219658D01*
X148754869Y-79110002D01*
X148754869Y-79109997D01*
X148737501Y-79000341D01*
X148715466Y-78957095D01*
X148687095Y-78901413D01*
X148687092Y-78901410D01*
X148687090Y-78901407D01*
X148678363Y-78892680D01*
X148644878Y-78831357D01*
X148649862Y-78761665D01*
X148678362Y-78717319D01*
X148697095Y-78698587D01*
X148711662Y-78669997D01*
X149085131Y-78669997D01*
X149085131Y-78670002D01*
X149102498Y-78779658D01*
X149152904Y-78878585D01*
X149152909Y-78878592D01*
X149231407Y-78957090D01*
X149231410Y-78957092D01*
X149231413Y-78957095D01*
X149330339Y-79007500D01*
X149330341Y-79007501D01*
X149439998Y-79024869D01*
X149440000Y-79024869D01*
X149440002Y-79024869D01*
X149549658Y-79007501D01*
X149549659Y-79007500D01*
X149549661Y-79007500D01*
X149648587Y-78957095D01*
X149727095Y-78878587D01*
X149777500Y-78779661D01*
X149777500Y-78779659D01*
X149777501Y-78779658D01*
X149787736Y-78715039D01*
X150044880Y-78715039D01*
X150044880Y-78715044D01*
X150062247Y-78824700D01*
X150112653Y-78923627D01*
X150112658Y-78923634D01*
X150191156Y-79002132D01*
X150191159Y-79002134D01*
X150191162Y-79002137D01*
X150259028Y-79036716D01*
X150290090Y-79052543D01*
X150403727Y-79070541D01*
X150466861Y-79100470D01*
X150478181Y-79118650D01*
X150478297Y-79110570D01*
X150516907Y-79052338D01*
X150540464Y-79036719D01*
X150608336Y-79002137D01*
X150686844Y-78923629D01*
X150737249Y-78824703D01*
X150737249Y-78824701D01*
X150737250Y-78824700D01*
X150754618Y-78715044D01*
X150754618Y-78715039D01*
X150737250Y-78605383D01*
X150736988Y-78604869D01*
X150686844Y-78506455D01*
X150686841Y-78506452D01*
X150686839Y-78506449D01*
X150608341Y-78427951D01*
X150608337Y-78427948D01*
X150608336Y-78427947D01*
X150597644Y-78422499D01*
X150509407Y-78377540D01*
X150399751Y-78360173D01*
X150399747Y-78360173D01*
X150290090Y-78377540D01*
X150191163Y-78427946D01*
X150191156Y-78427951D01*
X150112658Y-78506449D01*
X150112653Y-78506456D01*
X150062247Y-78605383D01*
X150044880Y-78715039D01*
X149787736Y-78715039D01*
X149794869Y-78670002D01*
X149794869Y-78669997D01*
X149777501Y-78560341D01*
X149750042Y-78506449D01*
X149727095Y-78461413D01*
X149727092Y-78461410D01*
X149727090Y-78461407D01*
X149648592Y-78382909D01*
X149648588Y-78382906D01*
X149648587Y-78382905D01*
X149643551Y-78380339D01*
X149549658Y-78332498D01*
X149440002Y-78315131D01*
X149439998Y-78315131D01*
X149330341Y-78332498D01*
X149231414Y-78382904D01*
X149231407Y-78382909D01*
X149152909Y-78461407D01*
X149152904Y-78461414D01*
X149102498Y-78560341D01*
X149085131Y-78669997D01*
X148711662Y-78669997D01*
X148747500Y-78599661D01*
X148747500Y-78599659D01*
X148747501Y-78599658D01*
X148764869Y-78490002D01*
X148764869Y-78489997D01*
X148747501Y-78380341D01*
X148743297Y-78372090D01*
X148697095Y-78281413D01*
X148697092Y-78281410D01*
X148697090Y-78281407D01*
X148618592Y-78202909D01*
X148618588Y-78202906D01*
X148618587Y-78202905D01*
X148602401Y-78194658D01*
X148519658Y-78152498D01*
X148410002Y-78135131D01*
X148409998Y-78135131D01*
X148300341Y-78152498D01*
X148201414Y-78202904D01*
X148201407Y-78202909D01*
X148122909Y-78281407D01*
X148122904Y-78281414D01*
X148072498Y-78380341D01*
X148055131Y-78489997D01*
X148055131Y-78490002D01*
X148072498Y-78599658D01*
X148122904Y-78698585D01*
X148122909Y-78698592D01*
X148131636Y-78707319D01*
X148165121Y-78768642D01*
X148160137Y-78838334D01*
X148131636Y-78882681D01*
X148112909Y-78901407D01*
X148112904Y-78901414D01*
X148062498Y-79000341D01*
X148045131Y-79109997D01*
X140090500Y-79109997D01*
X140090500Y-78469997D01*
X146685131Y-78469997D01*
X146685131Y-78470002D01*
X146702498Y-78579658D01*
X146752904Y-78678585D01*
X146752909Y-78678592D01*
X146831407Y-78757090D01*
X146831410Y-78757092D01*
X146831413Y-78757095D01*
X146875696Y-78779658D01*
X146930341Y-78807501D01*
X147039998Y-78824869D01*
X147040000Y-78824869D01*
X147040002Y-78824869D01*
X147149658Y-78807501D01*
X147149659Y-78807500D01*
X147149661Y-78807500D01*
X147248587Y-78757095D01*
X147327095Y-78678587D01*
X147377500Y-78579661D01*
X147384895Y-78532968D01*
X147414823Y-78469837D01*
X147474134Y-78432905D01*
X147487955Y-78429897D01*
X147534661Y-78422500D01*
X147633587Y-78372095D01*
X147712095Y-78293587D01*
X147762500Y-78194661D01*
X147762500Y-78194659D01*
X147762501Y-78194658D01*
X147779869Y-78085002D01*
X147779869Y-78084997D01*
X147762501Y-77975341D01*
X147729356Y-77910290D01*
X147712095Y-77876413D01*
X147712092Y-77876410D01*
X147712090Y-77876407D01*
X147633592Y-77797909D01*
X147633588Y-77797906D01*
X147633587Y-77797905D01*
X147568336Y-77764658D01*
X147534658Y-77747498D01*
X147425002Y-77730131D01*
X147424998Y-77730131D01*
X147315341Y-77747498D01*
X147216414Y-77797904D01*
X147216407Y-77797909D01*
X147137909Y-77876407D01*
X147137904Y-77876414D01*
X147087499Y-77975341D01*
X147080104Y-78022030D01*
X147050174Y-78085164D01*
X146990863Y-78122095D01*
X146977030Y-78125104D01*
X146930341Y-78132499D01*
X146831414Y-78182904D01*
X146831407Y-78182909D01*
X146752909Y-78261407D01*
X146752904Y-78261414D01*
X146702498Y-78360341D01*
X146685131Y-78469997D01*
X140090500Y-78469997D01*
X140090500Y-76754000D01*
X140110185Y-76686961D01*
X140162989Y-76641206D01*
X140214500Y-76630000D01*
X147168638Y-76630000D01*
X147202694Y-76640000D01*
X147230000Y-76640000D01*
X151606000Y-76640000D01*
X151673039Y-76659685D01*
X151718794Y-76712489D01*
X151730000Y-76764000D01*
X151730000Y-79063369D01*
X151710315Y-79130408D01*
X151657511Y-79176163D01*
X151588353Y-79186107D01*
X151549706Y-79173854D01*
X151489658Y-79143258D01*
X151380002Y-79125891D01*
X151379998Y-79125891D01*
X151270341Y-79143258D01*
X151171414Y-79193664D01*
X151171407Y-79193669D01*
X151092909Y-79272167D01*
X151092906Y-79272171D01*
X151092905Y-79272173D01*
X151059323Y-79338083D01*
X151045877Y-79364472D01*
X150997902Y-79415268D01*
X150930081Y-79432063D01*
X150863947Y-79409526D01*
X150847711Y-79395858D01*
X150789936Y-79338083D01*
X150789932Y-79338080D01*
X150789931Y-79338079D01*
X150691005Y-79287674D01*
X150691004Y-79287673D01*
X150691001Y-79287672D01*
X150691002Y-79287672D01*
X150577365Y-79269674D01*
X150514230Y-79239745D01*
X150502910Y-79221565D01*
X150502795Y-79229644D01*
X150464186Y-79287877D01*
X150440625Y-79303498D01*
X150372758Y-79338078D01*
X150372751Y-79338083D01*
X150294253Y-79416581D01*
X150294248Y-79416588D01*
X150243842Y-79515515D01*
X150226475Y-79625171D01*
X150226475Y-79625176D01*
X150243842Y-79734832D01*
X150294248Y-79833759D01*
X150294253Y-79833766D01*
X150372751Y-79912264D01*
X150372754Y-79912266D01*
X150372757Y-79912269D01*
X150455625Y-79954492D01*
X150471685Y-79962675D01*
X150581342Y-79980043D01*
X150581344Y-79980043D01*
X150581346Y-79980043D01*
X150691002Y-79962675D01*
X150691003Y-79962674D01*
X150691005Y-79962674D01*
X150789931Y-79912269D01*
X150868439Y-79833761D01*
X150915467Y-79741460D01*
X150963439Y-79690666D01*
X151031260Y-79673870D01*
X151097395Y-79696407D01*
X151113632Y-79710075D01*
X151171407Y-79767850D01*
X151171410Y-79767852D01*
X151171413Y-79767855D01*
X151270339Y-79818260D01*
X151270341Y-79818261D01*
X151379998Y-79835629D01*
X151380000Y-79835629D01*
X151380002Y-79835629D01*
X151489656Y-79818261D01*
X151489656Y-79818260D01*
X151489661Y-79818260D01*
X151549708Y-79787664D01*
X151618374Y-79774769D01*
X151683115Y-79801045D01*
X151723372Y-79858152D01*
X151730000Y-79898150D01*
X151730000Y-80980000D01*
X151780000Y-81030000D01*
X153050000Y-81030000D01*
X153050000Y-80664887D01*
X153069685Y-80597848D01*
X153117704Y-80554403D01*
X153191090Y-80517012D01*
X153269598Y-80438504D01*
X153320003Y-80339578D01*
X153320003Y-80339576D01*
X153320004Y-80339575D01*
X153337372Y-80229919D01*
X153336951Y-80227262D01*
X153337372Y-80224002D01*
X153337372Y-80220158D01*
X153337869Y-80220158D01*
X153345902Y-80157968D01*
X153390895Y-80104513D01*
X153440024Y-80085384D01*
X153484960Y-80078267D01*
X153545671Y-80068652D01*
X153545672Y-80068651D01*
X153545674Y-80068651D01*
X153644600Y-80018246D01*
X153723108Y-79939738D01*
X153771465Y-79844831D01*
X154899965Y-79844831D01*
X154899965Y-79844836D01*
X154917332Y-79954492D01*
X154967738Y-80053419D01*
X154967743Y-80053426D01*
X155046241Y-80131924D01*
X155046244Y-80131926D01*
X155046247Y-80131929D01*
X155123739Y-80171413D01*
X155145175Y-80182335D01*
X155254832Y-80199703D01*
X155254834Y-80199703D01*
X155254836Y-80199703D01*
X155364490Y-80182335D01*
X155364490Y-80182334D01*
X155364495Y-80182334D01*
X155441242Y-80143229D01*
X155509908Y-80130334D01*
X155553829Y-80143230D01*
X155561411Y-80147093D01*
X155561413Y-80147095D01*
X155660339Y-80197500D01*
X155660341Y-80197500D01*
X155660343Y-80197501D01*
X155769998Y-80214869D01*
X155770000Y-80214869D01*
X155770002Y-80214869D01*
X155879658Y-80197501D01*
X155879659Y-80197500D01*
X155879661Y-80197500D01*
X155978587Y-80147095D01*
X156057095Y-80068587D01*
X156072130Y-80039078D01*
X156120099Y-79988285D01*
X156187920Y-79971488D01*
X156254055Y-79994023D01*
X156293097Y-80039078D01*
X156327599Y-80106792D01*
X156327601Y-80106794D01*
X156327603Y-80106797D01*
X156406101Y-80185295D01*
X156406104Y-80185297D01*
X156406107Y-80185300D01*
X156505033Y-80235705D01*
X156505034Y-80235705D01*
X156505036Y-80235706D01*
X156505034Y-80235706D01*
X156526659Y-80239131D01*
X156589794Y-80269060D01*
X156626725Y-80328372D01*
X156629734Y-80342203D01*
X156632499Y-80359658D01*
X156632499Y-80359659D01*
X156632500Y-80359661D01*
X156650761Y-80395500D01*
X156682904Y-80458585D01*
X156682909Y-80458592D01*
X156761407Y-80537090D01*
X156761410Y-80537092D01*
X156761413Y-80537095D01*
X156820924Y-80567417D01*
X156860341Y-80587501D01*
X156969998Y-80604869D01*
X156970000Y-80604869D01*
X156970002Y-80604869D01*
X157079658Y-80587501D01*
X157079659Y-80587500D01*
X157079661Y-80587500D01*
X157178587Y-80537095D01*
X157257095Y-80458587D01*
X157307500Y-80359661D01*
X157307500Y-80359659D01*
X157307501Y-80359658D01*
X157324869Y-80250002D01*
X157324869Y-80249997D01*
X157307501Y-80140341D01*
X157297267Y-80120256D01*
X157257095Y-80041413D01*
X157257092Y-80041410D01*
X157257090Y-80041407D01*
X157178592Y-79962909D01*
X157178588Y-79962906D01*
X157178587Y-79962905D01*
X157079661Y-79912500D01*
X157079660Y-79912499D01*
X157079657Y-79912498D01*
X157079658Y-79912498D01*
X157058034Y-79909074D01*
X156994899Y-79879145D01*
X156957967Y-79819834D01*
X156954959Y-79806007D01*
X156952194Y-79788544D01*
X156932553Y-79749997D01*
X165035131Y-79749997D01*
X165035131Y-79750002D01*
X165052498Y-79859658D01*
X165102904Y-79958585D01*
X165102909Y-79958592D01*
X165181407Y-80037090D01*
X165181410Y-80037092D01*
X165181413Y-80037095D01*
X165276186Y-80085384D01*
X165280341Y-80087501D01*
X165389998Y-80104869D01*
X165390000Y-80104869D01*
X165390002Y-80104869D01*
X165499658Y-80087501D01*
X165499659Y-80087500D01*
X165499661Y-80087500D01*
X165598587Y-80037095D01*
X165677095Y-79958587D01*
X165727500Y-79859661D01*
X165727500Y-79859659D01*
X165727501Y-79859658D01*
X165744869Y-79750002D01*
X165744869Y-79749997D01*
X165727501Y-79640341D01*
X165719773Y-79625174D01*
X165677095Y-79541413D01*
X165677092Y-79541410D01*
X165677090Y-79541407D01*
X165598592Y-79462909D01*
X165598588Y-79462906D01*
X165598587Y-79462905D01*
X165562465Y-79444500D01*
X165499658Y-79412498D01*
X165390002Y-79395131D01*
X165389998Y-79395131D01*
X165280341Y-79412498D01*
X165181414Y-79462904D01*
X165181407Y-79462909D01*
X165102909Y-79541407D01*
X165102904Y-79541414D01*
X165052498Y-79640341D01*
X165035131Y-79749997D01*
X156932553Y-79749997D01*
X156901789Y-79689618D01*
X156901786Y-79689615D01*
X156901784Y-79689612D01*
X156823286Y-79611114D01*
X156823282Y-79611111D01*
X156823281Y-79611110D01*
X156819437Y-79609151D01*
X156724352Y-79560703D01*
X156614696Y-79543336D01*
X156614692Y-79543336D01*
X156505035Y-79560703D01*
X156406108Y-79611109D01*
X156406101Y-79611114D01*
X156327603Y-79689612D01*
X156327600Y-79689617D01*
X156327599Y-79689618D01*
X156312565Y-79719125D01*
X156264590Y-79769921D01*
X156196769Y-79786716D01*
X156130634Y-79764178D01*
X156091595Y-79719124D01*
X156057095Y-79651413D01*
X156057092Y-79651410D01*
X156057090Y-79651407D01*
X155978592Y-79572909D01*
X155978588Y-79572906D01*
X155978587Y-79572905D01*
X155974743Y-79570946D01*
X155879658Y-79522498D01*
X155770002Y-79505131D01*
X155769998Y-79505131D01*
X155660342Y-79522498D01*
X155583592Y-79561604D01*
X155514923Y-79574499D01*
X155471005Y-79561603D01*
X155364492Y-79507332D01*
X155254836Y-79489965D01*
X155254832Y-79489965D01*
X155145175Y-79507332D01*
X155046248Y-79557738D01*
X155046241Y-79557743D01*
X154967743Y-79636241D01*
X154967738Y-79636248D01*
X154917332Y-79735175D01*
X154899965Y-79844831D01*
X153771465Y-79844831D01*
X153773513Y-79840812D01*
X153773513Y-79840810D01*
X153773514Y-79840809D01*
X153790882Y-79731153D01*
X153790882Y-79731148D01*
X153773514Y-79621492D01*
X153768224Y-79611109D01*
X153723108Y-79522564D01*
X153723105Y-79522561D01*
X153723103Y-79522558D01*
X153644605Y-79444060D01*
X153644601Y-79444057D01*
X153644600Y-79444056D01*
X153590677Y-79416581D01*
X153545671Y-79393649D01*
X153436015Y-79376282D01*
X153436011Y-79376282D01*
X153326354Y-79393649D01*
X153230294Y-79442594D01*
X153161624Y-79455490D01*
X153096884Y-79429213D01*
X153056628Y-79372106D01*
X153050000Y-79332109D01*
X153050000Y-78249997D01*
X156055131Y-78249997D01*
X156055131Y-78250002D01*
X156072498Y-78359658D01*
X156122904Y-78458585D01*
X156122909Y-78458592D01*
X156201407Y-78537090D01*
X156201410Y-78537092D01*
X156201413Y-78537095D01*
X156284948Y-78579658D01*
X156300341Y-78587501D01*
X156409998Y-78604869D01*
X156410000Y-78604869D01*
X156410002Y-78604869D01*
X156519658Y-78587501D01*
X156519659Y-78587500D01*
X156519661Y-78587500D01*
X156618587Y-78537095D01*
X156697095Y-78458587D01*
X156747500Y-78359661D01*
X156747500Y-78359659D01*
X156747501Y-78359658D01*
X156764869Y-78250002D01*
X156764869Y-78249997D01*
X156747501Y-78140341D01*
X156719387Y-78085164D01*
X156697095Y-78041413D01*
X156697092Y-78041410D01*
X156697090Y-78041407D01*
X156618592Y-77962909D01*
X156618588Y-77962906D01*
X156618587Y-77962905D01*
X156577735Y-77942090D01*
X156519658Y-77912498D01*
X156410002Y-77895131D01*
X156409998Y-77895131D01*
X156300341Y-77912498D01*
X156201414Y-77962904D01*
X156201407Y-77962909D01*
X156122909Y-78041407D01*
X156122904Y-78041414D01*
X156072498Y-78140341D01*
X156055131Y-78249997D01*
X153050000Y-78249997D01*
X153050000Y-77654997D01*
X154390131Y-77654997D01*
X154390131Y-77655002D01*
X154407498Y-77764658D01*
X154457904Y-77863585D01*
X154457909Y-77863592D01*
X154536407Y-77942090D01*
X154536410Y-77942092D01*
X154536413Y-77942095D01*
X154635339Y-77992500D01*
X154635341Y-77992501D01*
X154744998Y-78009869D01*
X154745000Y-78009869D01*
X154745002Y-78009869D01*
X154854658Y-77992501D01*
X154854659Y-77992500D01*
X154854661Y-77992500D01*
X154953587Y-77942095D01*
X154962585Y-77933097D01*
X155023907Y-77899610D01*
X155093599Y-77904592D01*
X155106551Y-77910284D01*
X155140339Y-77927500D01*
X155140341Y-77927500D01*
X155140343Y-77927501D01*
X155249998Y-77944869D01*
X155250000Y-77944869D01*
X155250002Y-77944869D01*
X155359658Y-77927501D01*
X155359659Y-77927500D01*
X155359661Y-77927500D01*
X155458587Y-77877095D01*
X155459335Y-77876346D01*
X155460467Y-77875728D01*
X155466486Y-77871356D01*
X155467050Y-77872133D01*
X155520654Y-77842860D01*
X155590346Y-77847839D01*
X155603297Y-77853531D01*
X155650339Y-77877500D01*
X155650341Y-77877500D01*
X155650343Y-77877501D01*
X155759998Y-77894869D01*
X155760000Y-77894869D01*
X155760002Y-77894869D01*
X155869658Y-77877501D01*
X155869659Y-77877500D01*
X155869661Y-77877500D01*
X155968587Y-77827095D01*
X156047095Y-77748587D01*
X156097500Y-77649661D01*
X156097500Y-77649659D01*
X156097501Y-77649658D01*
X156114869Y-77540002D01*
X156114869Y-77539997D01*
X156100614Y-77449997D01*
X163995131Y-77449997D01*
X163995131Y-77450002D01*
X164012498Y-77559658D01*
X164062904Y-77658585D01*
X164062909Y-77658592D01*
X164141407Y-77737090D01*
X164141410Y-77737092D01*
X164141413Y-77737095D01*
X164195509Y-77764658D01*
X164240341Y-77787501D01*
X164349998Y-77804869D01*
X164350000Y-77804869D01*
X164350002Y-77804869D01*
X164459658Y-77787501D01*
X164459659Y-77787500D01*
X164459661Y-77787500D01*
X164558587Y-77737095D01*
X164637095Y-77658587D01*
X164687500Y-77559661D01*
X164687500Y-77559659D01*
X164687501Y-77559658D01*
X164704869Y-77450002D01*
X164704869Y-77449997D01*
X164687501Y-77340341D01*
X164687500Y-77340339D01*
X164637095Y-77241413D01*
X164637092Y-77241410D01*
X164637090Y-77241407D01*
X164558592Y-77162909D01*
X164558588Y-77162906D01*
X164558587Y-77162905D01*
X164550884Y-77158980D01*
X164459658Y-77112498D01*
X164350002Y-77095131D01*
X164349998Y-77095131D01*
X164240341Y-77112498D01*
X164141414Y-77162904D01*
X164141407Y-77162909D01*
X164062909Y-77241407D01*
X164062904Y-77241414D01*
X164012498Y-77340341D01*
X163995131Y-77449997D01*
X156100614Y-77449997D01*
X156097501Y-77430341D01*
X156097500Y-77430339D01*
X156047095Y-77331413D01*
X156047092Y-77331410D01*
X156047090Y-77331407D01*
X155968592Y-77252909D01*
X155968588Y-77252906D01*
X155968587Y-77252905D01*
X155946021Y-77241407D01*
X155869658Y-77202498D01*
X155783867Y-77188910D01*
X155720732Y-77158980D01*
X155683802Y-77099668D01*
X155680793Y-77085834D01*
X155662501Y-76970342D01*
X155662500Y-76970340D01*
X155662500Y-76970339D01*
X155612095Y-76871413D01*
X155612092Y-76871410D01*
X155612090Y-76871407D01*
X155533592Y-76792909D01*
X155533588Y-76792906D01*
X155533587Y-76792905D01*
X155498189Y-76774869D01*
X155434658Y-76742498D01*
X155325002Y-76725131D01*
X155324998Y-76725131D01*
X155215341Y-76742498D01*
X155116414Y-76792904D01*
X155116407Y-76792909D01*
X155037909Y-76871407D01*
X155037904Y-76871414D01*
X154987498Y-76970341D01*
X154970131Y-77079997D01*
X154970131Y-77080002D01*
X154984987Y-77173799D01*
X154976032Y-77243093D01*
X154931036Y-77296544D01*
X154864285Y-77317184D01*
X154843117Y-77315670D01*
X154745004Y-77300131D01*
X154744998Y-77300131D01*
X154635341Y-77317498D01*
X154536414Y-77367904D01*
X154536407Y-77367909D01*
X154457909Y-77446407D01*
X154457904Y-77446414D01*
X154407498Y-77545341D01*
X154390131Y-77654997D01*
X153050000Y-77654997D01*
X153050000Y-76721362D01*
X153069685Y-76654323D01*
X153081398Y-76639787D01*
X153073341Y-76599390D01*
X153073289Y-76550000D01*
X153070235Y-73634629D01*
X153089849Y-73567570D01*
X153142605Y-73521760D01*
X153194235Y-73510500D01*
X153337013Y-73510500D01*
X153404052Y-73530185D01*
G37*
%TD.AperFunction*%
%TD*%
%TA.AperFunction,Conductor*%
%TO.N,GND*%
G36*
X192282539Y-70210185D02*
G01*
X192328294Y-70262989D01*
X192339500Y-70314500D01*
X192339500Y-72859992D01*
X192354799Y-72896928D01*
X192354800Y-72896929D01*
X192383071Y-72925200D01*
X192420009Y-72940500D01*
X192459991Y-72940500D01*
X192460000Y-72940500D01*
X192460000Y-73110000D01*
X189930000Y-73110000D01*
X189890000Y-73070000D01*
X189890000Y-72940500D01*
X189919989Y-72940500D01*
X189919991Y-72940500D01*
X189956929Y-72925200D01*
X189985200Y-72896929D01*
X190000500Y-72859991D01*
X190000500Y-70314500D01*
X190020185Y-70247461D01*
X190072989Y-70201706D01*
X190124500Y-70190500D01*
X192215500Y-70190500D01*
X192282539Y-70210185D01*
G37*
%TD.AperFunction*%
%TD*%
%TA.AperFunction,Conductor*%
%TO.N,GND*%
G36*
X177760000Y-93970000D02*
G01*
X177760000Y-94113603D01*
X177747611Y-94113612D01*
X177747486Y-94113612D01*
X177727906Y-94113606D01*
X177727853Y-94113628D01*
X177712479Y-94120009D01*
X177709197Y-94121371D01*
X177709088Y-94121416D01*
X177690995Y-94128904D01*
X177690943Y-94128939D01*
X177690926Y-94128955D01*
X177690926Y-94128956D01*
X177676955Y-94142948D01*
X177676955Y-94142949D01*
X177662723Y-94157170D01*
X177662684Y-94157229D01*
X177655190Y-94175360D01*
X177655142Y-94175475D01*
X177647404Y-94194138D01*
X177647420Y-94214023D01*
X177647420Y-94214157D01*
X177647410Y-94245924D01*
X177647444Y-94246271D01*
X177649330Y-96737147D01*
X177629696Y-96804201D01*
X177576927Y-96849996D01*
X177526295Y-96861237D01*
X175405465Y-96877742D01*
X175338274Y-96858580D01*
X175292110Y-96806134D01*
X175280500Y-96753746D01*
X175280500Y-94205304D01*
X175280500Y-94205246D01*
X175280529Y-94185311D01*
X175280526Y-94185304D01*
X175280499Y-94185163D01*
X175272904Y-94166827D01*
X175272836Y-94166662D01*
X175265282Y-94148352D01*
X175265282Y-94148351D01*
X175265280Y-94148349D01*
X175265238Y-94148285D01*
X175265199Y-94148226D01*
X175251169Y-94134197D01*
X175251167Y-94134195D01*
X175237052Y-94120039D01*
X175237050Y-94120038D01*
X175237047Y-94120035D01*
X175236931Y-94119957D01*
X175218595Y-94112362D01*
X175218438Y-94112297D01*
X175200115Y-94104677D01*
X175200013Y-94104657D01*
X175199991Y-94104657D01*
X175190000Y-94104657D01*
X175190000Y-93930000D01*
X177720000Y-93930000D01*
X177760000Y-93970000D01*
G37*
%TD.AperFunction*%
%TD*%
%TA.AperFunction,Conductor*%
%TO.N,GND*%
G36*
X177525689Y-70100266D02*
G01*
X177592697Y-70120052D01*
X177638372Y-70172925D01*
X177649500Y-70224266D01*
X177649500Y-72859992D01*
X177664799Y-72896928D01*
X177664800Y-72896929D01*
X177693071Y-72925200D01*
X177730009Y-72940500D01*
X177730011Y-72940500D01*
X177770000Y-72940500D01*
X177770000Y-73040000D01*
X175240000Y-73040000D01*
X175200000Y-73000000D01*
X175200000Y-72940543D01*
X175201152Y-72940546D01*
X175201158Y-72940543D01*
X175201255Y-72940525D01*
X175201380Y-72940500D01*
X175201386Y-72940500D01*
X175209734Y-72937041D01*
X175219811Y-72932868D01*
X175219825Y-72932901D01*
X175220081Y-72932756D01*
X175238126Y-72925332D01*
X175238128Y-72925330D01*
X175238321Y-72925201D01*
X175238324Y-72925200D01*
X175252402Y-72911121D01*
X175266462Y-72897127D01*
X175266464Y-72897121D01*
X175266577Y-72896954D01*
X175266591Y-72896932D01*
X175266595Y-72896929D01*
X175274235Y-72878481D01*
X175281848Y-72860225D01*
X175281848Y-72860219D01*
X175281885Y-72860036D01*
X175281893Y-72859995D01*
X175281895Y-72859991D01*
X175281895Y-72840013D01*
X175287984Y-70220772D01*
X175307825Y-70153782D01*
X175360735Y-70108150D01*
X175412168Y-70097064D01*
X177525689Y-70100266D01*
G37*
%TD.AperFunction*%
%TD*%
%TA.AperFunction,Conductor*%
%TO.N,GND*%
G36*
X184785372Y-76771503D02*
G01*
X184791850Y-76777535D01*
X184801405Y-76787090D01*
X184801408Y-76787092D01*
X184801411Y-76787095D01*
X184900337Y-76837500D01*
X184900338Y-76837500D01*
X184900340Y-76837501D01*
X184900339Y-76837501D01*
X184988849Y-76851519D01*
X185009998Y-76854869D01*
X185009998Y-76854868D01*
X185012935Y-76855334D01*
X185076070Y-76885263D01*
X185081219Y-76890126D01*
X185853181Y-77662088D01*
X185886666Y-77723411D01*
X185889500Y-77749769D01*
X185889500Y-85199901D01*
X185869815Y-85266940D01*
X185853181Y-85287582D01*
X181108831Y-90031931D01*
X181108830Y-90031932D01*
X181108830Y-90031933D01*
X181101206Y-90050339D01*
X181101205Y-90050341D01*
X181089747Y-90078000D01*
X181062869Y-90118224D01*
X181002180Y-90178913D01*
X180940859Y-90212398D01*
X180871167Y-90207414D01*
X180815233Y-90165543D01*
X180790816Y-90100079D01*
X180790500Y-90091232D01*
X180790500Y-90049766D01*
X180810185Y-89982727D01*
X180826814Y-89962090D01*
X183235294Y-87553609D01*
X183235297Y-87553608D01*
X183252735Y-87536170D01*
X183252736Y-87536170D01*
X183316170Y-87472736D01*
X183330390Y-87438405D01*
X183350501Y-87389854D01*
X183350501Y-87300145D01*
X183350501Y-87290156D01*
X183350500Y-87290142D01*
X183350500Y-86909766D01*
X183370185Y-86842727D01*
X183386814Y-86822089D01*
X184464963Y-85743940D01*
X184464966Y-85743939D01*
X184482404Y-85726501D01*
X184482405Y-85726501D01*
X184545839Y-85663067D01*
X184565809Y-85614854D01*
X184573064Y-85597341D01*
X184580169Y-85580187D01*
X184580170Y-85580184D01*
X184580170Y-85480487D01*
X184580169Y-85480473D01*
X184580169Y-83118686D01*
X184599854Y-83051647D01*
X184652658Y-83005892D01*
X184721816Y-82995948D01*
X184785372Y-83024973D01*
X184814651Y-83062388D01*
X184822904Y-83078585D01*
X184822906Y-83078588D01*
X184822909Y-83078592D01*
X184901407Y-83157090D01*
X184901410Y-83157092D01*
X184901413Y-83157095D01*
X184972209Y-83193167D01*
X185000341Y-83207501D01*
X185109998Y-83224869D01*
X185110000Y-83224869D01*
X185110002Y-83224869D01*
X185219658Y-83207501D01*
X185219659Y-83207500D01*
X185219661Y-83207500D01*
X185318587Y-83157095D01*
X185397095Y-83078587D01*
X185447500Y-82979661D01*
X185447500Y-82979659D01*
X185447501Y-82979658D01*
X185464869Y-82870002D01*
X185464869Y-82869997D01*
X185447501Y-82760341D01*
X185420415Y-82707181D01*
X185397095Y-82661413D01*
X185397092Y-82661410D01*
X185397090Y-82661407D01*
X185318592Y-82582909D01*
X185318588Y-82582906D01*
X185318587Y-82582905D01*
X185280983Y-82563745D01*
X185219658Y-82532498D01*
X185110002Y-82515131D01*
X185109998Y-82515131D01*
X185000341Y-82532498D01*
X184901414Y-82582904D01*
X184901407Y-82582909D01*
X184822909Y-82661407D01*
X184822906Y-82661411D01*
X184822905Y-82661413D01*
X184814652Y-82677609D01*
X184766680Y-82728404D01*
X184698859Y-82745199D01*
X184632724Y-82722662D01*
X184589272Y-82667947D01*
X184580169Y-82621313D01*
X184580169Y-76865216D01*
X184599854Y-76798177D01*
X184652658Y-76752422D01*
X184721816Y-76742478D01*
X184785372Y-76771503D01*
G37*
%TD.AperFunction*%
%TA.AperFunction,Conductor*%
G36*
X175200000Y-72940543D02*
G01*
X175200000Y-73000000D01*
X175240000Y-73040000D01*
X177770000Y-73040000D01*
X177770000Y-72940500D01*
X189890000Y-72940500D01*
X189890000Y-73070000D01*
X189930000Y-73110000D01*
X192460000Y-73110000D01*
X192460000Y-72940500D01*
X194945500Y-72940500D01*
X195012539Y-72960185D01*
X195058294Y-73012989D01*
X195069500Y-73064500D01*
X195069500Y-78249992D01*
X195084799Y-78286928D01*
X195108510Y-78310639D01*
X195141995Y-78371962D01*
X195144829Y-78398436D01*
X195142214Y-81190001D01*
X195142215Y-81190002D01*
X196047207Y-81198805D01*
X196114051Y-81219141D01*
X196159290Y-81272387D01*
X196170000Y-81322799D01*
X196170000Y-82107199D01*
X196150315Y-82174238D01*
X196097511Y-82219993D01*
X196047205Y-82231193D01*
X195141232Y-82240000D01*
X195141232Y-82240001D01*
X195140832Y-82667947D01*
X195140815Y-82685616D01*
X195121068Y-82752637D01*
X195068221Y-82798343D01*
X195016815Y-82809500D01*
X193363736Y-82809500D01*
X193296697Y-82789815D01*
X193250942Y-82737011D01*
X193240998Y-82667853D01*
X193249479Y-82641097D01*
X193248986Y-82640937D01*
X193251998Y-82631664D01*
X193252000Y-82631661D01*
X193269369Y-82522000D01*
X193269369Y-82521997D01*
X193252001Y-82412341D01*
X193213931Y-82337624D01*
X193201595Y-82313413D01*
X193201592Y-82313410D01*
X193201590Y-82313407D01*
X193123092Y-82234909D01*
X193123088Y-82234906D01*
X193123087Y-82234905D01*
X193108554Y-82227500D01*
X193024158Y-82184498D01*
X192914502Y-82167131D01*
X192914498Y-82167131D01*
X192804841Y-82184498D01*
X192705914Y-82234904D01*
X192705907Y-82234909D01*
X192627409Y-82313407D01*
X192627404Y-82313414D01*
X192576998Y-82412341D01*
X192559631Y-82521997D01*
X192559631Y-82522002D01*
X192576999Y-82631659D01*
X192580014Y-82640937D01*
X192578071Y-82641568D01*
X192588644Y-82697881D01*
X192562364Y-82762620D01*
X192505256Y-82802874D01*
X192465264Y-82809500D01*
X190583966Y-82809500D01*
X190583958Y-82809499D01*
X190569524Y-82809499D01*
X190568767Y-82809499D01*
X190557802Y-82806279D01*
X190553892Y-82805798D01*
X190553888Y-82805797D01*
X190554043Y-82805175D01*
X190501728Y-82789814D01*
X190455973Y-82737010D01*
X190446029Y-82667852D01*
X190475054Y-82604296D01*
X190481086Y-82597818D01*
X190952413Y-82126491D01*
X191450294Y-81628609D01*
X191450297Y-81628608D01*
X191467735Y-81611170D01*
X191467736Y-81611170D01*
X191531170Y-81547736D01*
X191545390Y-81513405D01*
X191563371Y-81469997D01*
X192542631Y-81469997D01*
X192542631Y-81470002D01*
X192559998Y-81579658D01*
X192610404Y-81678585D01*
X192610409Y-81678592D01*
X192688907Y-81757090D01*
X192688910Y-81757092D01*
X192688913Y-81757095D01*
X192782567Y-81804814D01*
X192787841Y-81807501D01*
X192897498Y-81824869D01*
X192897500Y-81824869D01*
X192897502Y-81824869D01*
X193007158Y-81807501D01*
X193007159Y-81807500D01*
X193007161Y-81807500D01*
X193106087Y-81757095D01*
X193184595Y-81678587D01*
X193235000Y-81579661D01*
X193235000Y-81579659D01*
X193235001Y-81579658D01*
X193252369Y-81470002D01*
X193252369Y-81469997D01*
X193235001Y-81360341D01*
X193232598Y-81355625D01*
X193184595Y-81261413D01*
X193184592Y-81261410D01*
X193184590Y-81261407D01*
X193106092Y-81182909D01*
X193106088Y-81182906D01*
X193106087Y-81182905D01*
X193095479Y-81177500D01*
X193007158Y-81132498D01*
X192897502Y-81115131D01*
X192897498Y-81115131D01*
X192787841Y-81132498D01*
X192688914Y-81182904D01*
X192688907Y-81182909D01*
X192610409Y-81261407D01*
X192610404Y-81261414D01*
X192559998Y-81360341D01*
X192542631Y-81469997D01*
X191563371Y-81469997D01*
X191565501Y-81464854D01*
X191565501Y-81375145D01*
X191565501Y-81365156D01*
X191565500Y-81365142D01*
X191565500Y-79335288D01*
X191585185Y-79268249D01*
X191637989Y-79222494D01*
X191707147Y-79212550D01*
X191745790Y-79224801D01*
X191790339Y-79247500D01*
X191790341Y-79247500D01*
X191790343Y-79247501D01*
X191899998Y-79264869D01*
X191900000Y-79264869D01*
X191900002Y-79264869D01*
X192009658Y-79247501D01*
X192009659Y-79247500D01*
X192009661Y-79247500D01*
X192108587Y-79197095D01*
X192187095Y-79118587D01*
X192237500Y-79019661D01*
X192237500Y-79019659D01*
X192237501Y-79019658D01*
X192254869Y-78910002D01*
X192254869Y-78909997D01*
X192237501Y-78800341D01*
X192232231Y-78789998D01*
X192187095Y-78701413D01*
X192187092Y-78701410D01*
X192187090Y-78701407D01*
X192108592Y-78622909D01*
X192108588Y-78622906D01*
X192108587Y-78622905D01*
X192038039Y-78586959D01*
X192009658Y-78572498D01*
X191900002Y-78555131D01*
X191899998Y-78555131D01*
X191790342Y-78572498D01*
X191745793Y-78595197D01*
X191677124Y-78608092D01*
X191612384Y-78581814D01*
X191572128Y-78524707D01*
X191565500Y-78484711D01*
X191565500Y-78383165D01*
X191585185Y-78316126D01*
X191601818Y-78295485D01*
X191638775Y-78258527D01*
X191700097Y-78225041D01*
X191707060Y-78223734D01*
X191709996Y-78223268D01*
X191709998Y-78223269D01*
X191761603Y-78215095D01*
X191819655Y-78205901D01*
X191819656Y-78205900D01*
X191819659Y-78205900D01*
X191918585Y-78155495D01*
X191997093Y-78076987D01*
X192047498Y-77978061D01*
X192047498Y-77978059D01*
X192047499Y-77978058D01*
X192064867Y-77868402D01*
X192064867Y-77868397D01*
X192047499Y-77758741D01*
X191997091Y-77659809D01*
X191993918Y-77655442D01*
X191970440Y-77589635D01*
X191983752Y-77526269D01*
X192007500Y-77479661D01*
X192007501Y-77479656D01*
X192024869Y-77370002D01*
X192024869Y-77369997D01*
X192007501Y-77260341D01*
X191994656Y-77235131D01*
X191957095Y-77161413D01*
X191957092Y-77161410D01*
X191957090Y-77161407D01*
X191885525Y-77089842D01*
X191852040Y-77028519D01*
X191857024Y-76958827D01*
X191898896Y-76902894D01*
X191937460Y-76886608D01*
X191936600Y-76883961D01*
X191945882Y-76880944D01*
X191945883Y-76880943D01*
X191945886Y-76880943D01*
X192044812Y-76830538D01*
X192123320Y-76752030D01*
X192173725Y-76653104D01*
X192173725Y-76653102D01*
X192173726Y-76653101D01*
X192191094Y-76543445D01*
X192191094Y-76543440D01*
X192173726Y-76433784D01*
X192149260Y-76385766D01*
X192123320Y-76334856D01*
X192123317Y-76334853D01*
X192123315Y-76334850D01*
X192044817Y-76256352D01*
X192044813Y-76256349D01*
X192044812Y-76256348D01*
X192000616Y-76233829D01*
X191945883Y-76205941D01*
X191836227Y-76188574D01*
X191836223Y-76188574D01*
X191726566Y-76205941D01*
X191627639Y-76256347D01*
X191627632Y-76256352D01*
X191549134Y-76334850D01*
X191549129Y-76334857D01*
X191498723Y-76433784D01*
X191481356Y-76543440D01*
X191481356Y-76543445D01*
X191498723Y-76653101D01*
X191549129Y-76752028D01*
X191549134Y-76752035D01*
X191620699Y-76823600D01*
X191654184Y-76884923D01*
X191649200Y-76954615D01*
X191607328Y-77010548D01*
X191568768Y-77026846D01*
X191569625Y-77029482D01*
X191560342Y-77032498D01*
X191461414Y-77082904D01*
X191461407Y-77082909D01*
X191382909Y-77161407D01*
X191382904Y-77161414D01*
X191332498Y-77260341D01*
X191314665Y-77372937D01*
X191284735Y-77436072D01*
X191279873Y-77441220D01*
X190902265Y-77818829D01*
X190838830Y-77882263D01*
X190838830Y-77882265D01*
X190804499Y-77965144D01*
X190804499Y-78069288D01*
X190804500Y-78069297D01*
X190804500Y-81135233D01*
X190784815Y-81202272D01*
X190768181Y-81222914D01*
X188782415Y-83208679D01*
X188721092Y-83242164D01*
X188651400Y-83237180D01*
X188595467Y-83195308D01*
X188572261Y-83140395D01*
X188567501Y-83110342D01*
X188567500Y-83110340D01*
X188567500Y-83110339D01*
X188517095Y-83011413D01*
X188517092Y-83011410D01*
X188517090Y-83011407D01*
X188438592Y-82932909D01*
X188438588Y-82932906D01*
X188438587Y-82932905D01*
X188410718Y-82918705D01*
X188339658Y-82882498D01*
X188230002Y-82865131D01*
X188229998Y-82865131D01*
X188120341Y-82882498D01*
X188021414Y-82932904D01*
X188021407Y-82932909D01*
X187995181Y-82959136D01*
X187933858Y-82992621D01*
X187864166Y-82987637D01*
X187819819Y-82959136D01*
X187793592Y-82932909D01*
X187793588Y-82932906D01*
X187793587Y-82932905D01*
X187765718Y-82918705D01*
X187694658Y-82882498D01*
X187585002Y-82865131D01*
X187585001Y-82865131D01*
X187585000Y-82865131D01*
X187578895Y-82866097D01*
X187509604Y-82857142D01*
X187456152Y-82812145D01*
X187435513Y-82745394D01*
X187435500Y-82743624D01*
X187435500Y-78638321D01*
X187455185Y-78571282D01*
X187471819Y-78550640D01*
X188203630Y-77818829D01*
X188969439Y-77053019D01*
X189030760Y-77019536D01*
X189100452Y-77024520D01*
X189156385Y-77066392D01*
X189179591Y-77121300D01*
X189182499Y-77139659D01*
X189232904Y-77238585D01*
X189232909Y-77238592D01*
X189270658Y-77276341D01*
X189304143Y-77337664D01*
X189299159Y-77407356D01*
X189293463Y-77420315D01*
X189242498Y-77520342D01*
X189225131Y-77629997D01*
X189225131Y-77630002D01*
X189242498Y-77739658D01*
X189292904Y-77838585D01*
X189292909Y-77838592D01*
X189371407Y-77917090D01*
X189371410Y-77917092D01*
X189371413Y-77917095D01*
X189425923Y-77944869D01*
X189470341Y-77967501D01*
X189579998Y-77984869D01*
X189580000Y-77984869D01*
X189580002Y-77984869D01*
X189689658Y-77967501D01*
X189689659Y-77967500D01*
X189689661Y-77967500D01*
X189788587Y-77917095D01*
X189867095Y-77838587D01*
X189917500Y-77739661D01*
X189917500Y-77739659D01*
X189917501Y-77739658D01*
X189934869Y-77630002D01*
X189934869Y-77629997D01*
X189917501Y-77520341D01*
X189899819Y-77485638D01*
X189867095Y-77421413D01*
X189867092Y-77421410D01*
X189867090Y-77421407D01*
X189829340Y-77383657D01*
X189795855Y-77322334D01*
X189800839Y-77252642D01*
X189806536Y-77239681D01*
X189807091Y-77238590D01*
X189807095Y-77238587D01*
X189857500Y-77139661D01*
X189866489Y-77082909D01*
X189874869Y-77030002D01*
X189874869Y-77029997D01*
X189857501Y-76920341D01*
X189839455Y-76884923D01*
X189807095Y-76821413D01*
X189807092Y-76821410D01*
X189807090Y-76821407D01*
X189728592Y-76742909D01*
X189728588Y-76742906D01*
X189728587Y-76742905D01*
X189629661Y-76692500D01*
X189629660Y-76692499D01*
X189629659Y-76692499D01*
X189611300Y-76689591D01*
X189548167Y-76659659D01*
X189511237Y-76600347D01*
X189512237Y-76530484D01*
X189543019Y-76479439D01*
X189603209Y-76419249D01*
X189664530Y-76385766D01*
X189734222Y-76390750D01*
X189778568Y-76419250D01*
X189801413Y-76442095D01*
X189884222Y-76484288D01*
X189900341Y-76492501D01*
X190009998Y-76509869D01*
X190010000Y-76509869D01*
X190010002Y-76509869D01*
X190119658Y-76492501D01*
X190119659Y-76492500D01*
X190119661Y-76492500D01*
X190218587Y-76442095D01*
X190297095Y-76363587D01*
X190347500Y-76264661D01*
X190347500Y-76264659D01*
X190347501Y-76264658D01*
X190364869Y-76155002D01*
X190364869Y-76154997D01*
X190347501Y-76045341D01*
X190297095Y-75946413D01*
X190297090Y-75946407D01*
X190218592Y-75867909D01*
X190218588Y-75867906D01*
X190218587Y-75867905D01*
X190214743Y-75865946D01*
X190119658Y-75817498D01*
X190010002Y-75800131D01*
X190009998Y-75800131D01*
X189900341Y-75817498D01*
X189801414Y-75867904D01*
X189801407Y-75867909D01*
X189776136Y-75893181D01*
X189714813Y-75926666D01*
X189688455Y-75929500D01*
X189607851Y-75929500D01*
X189607843Y-75929499D01*
X189593409Y-75929499D01*
X189503700Y-75929499D01*
X189503699Y-75929499D01*
X189462867Y-75946413D01*
X189462865Y-75946413D01*
X189420820Y-75963827D01*
X189420820Y-75963828D01*
X189399170Y-75985478D01*
X189337846Y-76018962D01*
X189268155Y-76013976D01*
X189212222Y-75972104D01*
X189201008Y-75954094D01*
X189197095Y-75946413D01*
X189197091Y-75946409D01*
X189197090Y-75946407D01*
X189118592Y-75867909D01*
X189118588Y-75867906D01*
X189118587Y-75867905D01*
X189114743Y-75865946D01*
X189019658Y-75817498D01*
X188910002Y-75800131D01*
X188909998Y-75800131D01*
X188800341Y-75817498D01*
X188701414Y-75867904D01*
X188701407Y-75867909D01*
X188622909Y-75946407D01*
X188622905Y-75946413D01*
X188572498Y-76045341D01*
X188555131Y-76154997D01*
X188555131Y-76155002D01*
X188572498Y-76264656D01*
X188572499Y-76264659D01*
X188572500Y-76264661D01*
X188597060Y-76312864D01*
X188609956Y-76381530D01*
X188583680Y-76446271D01*
X188574256Y-76456837D01*
X186832265Y-78198829D01*
X186768830Y-78262263D01*
X186768830Y-78262265D01*
X186734499Y-78345144D01*
X186734499Y-78449288D01*
X186734500Y-78449297D01*
X186734500Y-85425231D01*
X186714815Y-85492270D01*
X186698181Y-85512912D01*
X186648830Y-85562262D01*
X186642047Y-85572415D01*
X186641144Y-85571811D01*
X186624083Y-85597341D01*
X181562265Y-90659160D01*
X181498830Y-90722594D01*
X181498830Y-90722596D01*
X181464499Y-90805475D01*
X181464499Y-90909619D01*
X181464500Y-90909628D01*
X181464500Y-90958455D01*
X181444815Y-91025494D01*
X181428181Y-91046136D01*
X181402909Y-91071407D01*
X181402904Y-91071414D01*
X181352498Y-91170341D01*
X181335131Y-91279997D01*
X181335131Y-91280002D01*
X181352498Y-91389658D01*
X181402904Y-91488585D01*
X181402909Y-91488592D01*
X181481407Y-91567090D01*
X181481410Y-91567092D01*
X181481413Y-91567095D01*
X181575175Y-91614869D01*
X181580341Y-91617501D01*
X181689998Y-91634869D01*
X181690000Y-91634869D01*
X181690002Y-91634869D01*
X181799658Y-91617501D01*
X181799659Y-91617500D01*
X181799661Y-91617500D01*
X181898587Y-91567095D01*
X181977095Y-91488587D01*
X182027500Y-91389661D01*
X182027500Y-91389659D01*
X182027501Y-91389658D01*
X182044869Y-91280002D01*
X182044869Y-91279997D01*
X182027501Y-91170341D01*
X182023717Y-91162914D01*
X181977095Y-91071413D01*
X181977092Y-91071410D01*
X181977090Y-91071407D01*
X181970140Y-91064457D01*
X181936655Y-91003134D01*
X181941639Y-90933442D01*
X181970138Y-90889097D01*
X186772819Y-86086415D01*
X186834142Y-86052931D01*
X186903834Y-86057915D01*
X186959767Y-86099787D01*
X186984184Y-86165251D01*
X186984500Y-86174097D01*
X186984500Y-86305232D01*
X186964815Y-86372271D01*
X186948181Y-86392913D01*
X182508830Y-90832263D01*
X182508830Y-90832265D01*
X182474499Y-90915144D01*
X182472117Y-90927122D01*
X182469189Y-90926539D01*
X182454814Y-90975495D01*
X182438180Y-90996137D01*
X182412909Y-91021407D01*
X182412904Y-91021414D01*
X182362498Y-91120341D01*
X182345131Y-91229997D01*
X182345131Y-91230002D01*
X182362498Y-91339658D01*
X182412904Y-91438585D01*
X182412909Y-91438592D01*
X182491407Y-91517090D01*
X182491410Y-91517092D01*
X182491413Y-91517095D01*
X182563110Y-91553626D01*
X182590341Y-91567501D01*
X182699998Y-91584869D01*
X182700000Y-91584869D01*
X182700002Y-91584869D01*
X182809658Y-91567501D01*
X182809659Y-91567500D01*
X182809661Y-91567500D01*
X182908587Y-91517095D01*
X182987095Y-91438587D01*
X183037500Y-91339661D01*
X183037500Y-91339659D01*
X183037501Y-91339658D01*
X183053415Y-91239182D01*
X183335562Y-91239182D01*
X183335562Y-91239187D01*
X183352929Y-91348843D01*
X183403335Y-91447770D01*
X183403340Y-91447777D01*
X183481838Y-91526275D01*
X183481841Y-91526277D01*
X183481844Y-91526280D01*
X183562745Y-91567501D01*
X183580772Y-91576686D01*
X183690429Y-91594054D01*
X183690431Y-91594054D01*
X183690433Y-91594054D01*
X183800087Y-91576686D01*
X183800087Y-91576685D01*
X183800092Y-91576685D01*
X183863497Y-91544378D01*
X183932163Y-91531483D01*
X183976084Y-91544379D01*
X183981411Y-91547093D01*
X183981413Y-91547095D01*
X184080339Y-91597500D01*
X184080341Y-91597500D01*
X184080343Y-91597501D01*
X184189998Y-91614869D01*
X184190000Y-91614869D01*
X184190002Y-91614869D01*
X184299658Y-91597501D01*
X184299659Y-91597500D01*
X184299661Y-91597500D01*
X184398587Y-91547095D01*
X184477095Y-91468587D01*
X184527500Y-91369661D01*
X184527500Y-91369659D01*
X184527501Y-91369658D01*
X184544869Y-91260002D01*
X184544869Y-91259997D01*
X184527501Y-91150341D01*
X184512762Y-91121414D01*
X184477095Y-91051413D01*
X184477092Y-91051410D01*
X184477090Y-91051407D01*
X184398592Y-90972909D01*
X184398588Y-90972906D01*
X184398587Y-90972905D01*
X184390112Y-90968587D01*
X184299658Y-90922498D01*
X184190002Y-90905131D01*
X184189998Y-90905131D01*
X184080342Y-90922498D01*
X184016934Y-90954806D01*
X183948265Y-90967701D01*
X183904347Y-90954805D01*
X183800089Y-90901683D01*
X183690433Y-90884316D01*
X183690429Y-90884316D01*
X183580772Y-90901683D01*
X183481845Y-90952089D01*
X183481838Y-90952094D01*
X183403340Y-91030592D01*
X183403335Y-91030599D01*
X183352929Y-91129526D01*
X183335562Y-91239182D01*
X183053415Y-91239182D01*
X183054869Y-91230002D01*
X183054869Y-91229997D01*
X183037501Y-91120341D01*
X183027947Y-91101591D01*
X183018001Y-91082071D01*
X183005106Y-91013403D01*
X183031383Y-90948663D01*
X183040797Y-90938106D01*
X187062821Y-86916083D01*
X187124142Y-86882600D01*
X187193834Y-86887584D01*
X187249767Y-86929456D01*
X187274184Y-86994920D01*
X187274500Y-87003766D01*
X187274500Y-89445232D01*
X187254815Y-89512271D01*
X187238181Y-89532913D01*
X185816579Y-90954514D01*
X185755256Y-90987999D01*
X185709500Y-90989306D01*
X185620002Y-90975131D01*
X185619998Y-90975131D01*
X185510341Y-90992498D01*
X185411414Y-91042904D01*
X185411407Y-91042909D01*
X185332909Y-91121407D01*
X185332904Y-91121414D01*
X185282498Y-91220341D01*
X185273759Y-91275522D01*
X185243830Y-91338657D01*
X185184518Y-91375588D01*
X185131890Y-91378598D01*
X185112885Y-91375588D01*
X185110000Y-91375131D01*
X185109999Y-91375131D01*
X185109998Y-91375131D01*
X185000341Y-91392498D01*
X184901414Y-91442904D01*
X184901407Y-91442909D01*
X184822909Y-91521407D01*
X184822904Y-91521414D01*
X184772498Y-91620341D01*
X184755131Y-91729997D01*
X184755131Y-91730002D01*
X184772498Y-91839658D01*
X184822904Y-91938585D01*
X184822909Y-91938592D01*
X184829402Y-91945085D01*
X184862887Y-92006408D01*
X184857903Y-92076100D01*
X184816031Y-92132033D01*
X184814609Y-92133083D01*
X184811408Y-92135408D01*
X184732909Y-92213907D01*
X184732904Y-92213914D01*
X184682498Y-92312841D01*
X184665131Y-92422497D01*
X184665131Y-92422502D01*
X184682498Y-92532158D01*
X184732904Y-92631085D01*
X184732909Y-92631092D01*
X184811407Y-92709590D01*
X184811410Y-92709592D01*
X184811413Y-92709595D01*
X184910339Y-92760000D01*
X184910341Y-92760001D01*
X185019998Y-92777369D01*
X185020000Y-92777369D01*
X185020002Y-92777369D01*
X185129658Y-92760001D01*
X185129659Y-92760000D01*
X185129661Y-92760000D01*
X185228587Y-92709595D01*
X185307095Y-92631087D01*
X185357500Y-92532161D01*
X185357500Y-92532159D01*
X185357501Y-92532158D01*
X185374869Y-92422502D01*
X185374869Y-92422497D01*
X185357501Y-92312841D01*
X185323999Y-92247090D01*
X185307095Y-92213913D01*
X185307092Y-92213910D01*
X185307090Y-92213907D01*
X185300597Y-92207414D01*
X185267112Y-92146091D01*
X185272096Y-92076399D01*
X185313968Y-92020466D01*
X185315401Y-92019409D01*
X185318580Y-92017098D01*
X185318587Y-92017095D01*
X185397095Y-91938587D01*
X185447500Y-91839661D01*
X185456240Y-91784475D01*
X185486168Y-91721344D01*
X185545479Y-91684412D01*
X185598111Y-91681402D01*
X185620000Y-91684869D01*
X185620000Y-91684868D01*
X185620001Y-91684869D01*
X185620002Y-91684869D01*
X185701480Y-91671964D01*
X185770773Y-91680918D01*
X185824225Y-91725915D01*
X185837849Y-91760905D01*
X185839482Y-91760375D01*
X185842498Y-91769657D01*
X185892904Y-91868585D01*
X185892909Y-91868592D01*
X185971407Y-91947090D01*
X185971410Y-91947092D01*
X185971413Y-91947095D01*
X186025923Y-91974869D01*
X186070341Y-91997501D01*
X186179998Y-92014869D01*
X186180000Y-92014869D01*
X186180002Y-92014869D01*
X186289658Y-91997501D01*
X186289659Y-91997500D01*
X186289661Y-91997500D01*
X186388587Y-91947095D01*
X186467095Y-91868587D01*
X186517500Y-91769661D01*
X186517500Y-91769659D01*
X186517501Y-91769658D01*
X186534869Y-91660002D01*
X186534869Y-91659997D01*
X186517501Y-91550341D01*
X186503489Y-91522841D01*
X186467095Y-91451413D01*
X186467092Y-91451410D01*
X186467090Y-91451407D01*
X186388592Y-91372909D01*
X186388588Y-91372906D01*
X186388587Y-91372905D01*
X186307078Y-91331374D01*
X186256284Y-91283402D01*
X186239488Y-91215581D01*
X186262025Y-91149446D01*
X186275687Y-91133216D01*
X186611688Y-90797215D01*
X186673009Y-90763732D01*
X186742701Y-90768716D01*
X186798634Y-90810588D01*
X186821840Y-90865498D01*
X186822499Y-90869658D01*
X186822499Y-90869659D01*
X186822500Y-90869661D01*
X186865883Y-90954805D01*
X186872904Y-90968585D01*
X186872909Y-90968592D01*
X186951407Y-91047090D01*
X186951410Y-91047092D01*
X186951413Y-91047095D01*
X187013485Y-91078722D01*
X187050341Y-91097501D01*
X187159998Y-91114869D01*
X187160000Y-91114869D01*
X187160002Y-91114869D01*
X187269658Y-91097501D01*
X187269659Y-91097500D01*
X187269661Y-91097500D01*
X187368587Y-91047095D01*
X187447095Y-90968587D01*
X187469763Y-90924096D01*
X187481881Y-90904893D01*
X187487866Y-90897095D01*
X187489060Y-90895539D01*
X187621808Y-90626395D01*
X187645331Y-90593572D01*
X187705294Y-90533610D01*
X187705297Y-90533608D01*
X187722735Y-90516170D01*
X187722736Y-90516170D01*
X187786170Y-90452736D01*
X187798694Y-90422500D01*
X187820501Y-90369855D01*
X187820501Y-90280145D01*
X187820501Y-90270156D01*
X187820500Y-90270142D01*
X187820500Y-90246935D01*
X187840185Y-90179896D01*
X187856819Y-90159254D01*
X187860292Y-90155781D01*
X187860297Y-90155777D01*
X187877735Y-90138339D01*
X187877736Y-90138339D01*
X187941170Y-90074905D01*
X187958969Y-90031934D01*
X187958970Y-90031933D01*
X187975304Y-89992500D01*
X187975501Y-89992024D01*
X187975501Y-89902314D01*
X187975501Y-89892325D01*
X187975500Y-89892311D01*
X187975500Y-89813767D01*
X187995185Y-89746728D01*
X188047989Y-89700973D01*
X188117147Y-89691029D01*
X188180703Y-89720054D01*
X188187181Y-89726086D01*
X189516373Y-91055279D01*
X189549858Y-91116602D01*
X189544874Y-91186294D01*
X189503002Y-91242227D01*
X189448090Y-91265433D01*
X189340341Y-91282498D01*
X189241414Y-91332904D01*
X189241407Y-91332909D01*
X189162909Y-91411407D01*
X189162904Y-91411414D01*
X189112498Y-91510341D01*
X189095131Y-91619997D01*
X189095131Y-91620002D01*
X189112498Y-91729658D01*
X189162904Y-91828585D01*
X189162909Y-91828592D01*
X189241407Y-91907090D01*
X189241410Y-91907092D01*
X189241413Y-91907095D01*
X189256924Y-91914998D01*
X189340341Y-91957501D01*
X189449998Y-91974869D01*
X189450000Y-91974869D01*
X189450002Y-91974869D01*
X189559658Y-91957501D01*
X189559659Y-91957500D01*
X189559661Y-91957500D01*
X189658587Y-91907095D01*
X189737095Y-91828587D01*
X189787500Y-91729661D01*
X189804567Y-91621905D01*
X189834495Y-91558775D01*
X189893806Y-91521843D01*
X189963668Y-91522841D01*
X190014720Y-91553626D01*
X192047266Y-93586172D01*
X192098762Y-93607501D01*
X192130145Y-93620500D01*
X192807879Y-93620500D01*
X192874918Y-93640185D01*
X192920673Y-93692989D01*
X192930617Y-93762147D01*
X192930352Y-93763898D01*
X192915131Y-93859998D01*
X192915131Y-93860002D01*
X192933310Y-93974780D01*
X192924355Y-94044074D01*
X192879359Y-94097526D01*
X192812608Y-94118165D01*
X192810796Y-94118178D01*
X192481832Y-94118069D01*
X192481729Y-94118060D01*
X192469991Y-94118060D01*
X192451134Y-94118060D01*
X192430042Y-94118053D01*
X192430041Y-94118053D01*
X192430036Y-94118053D01*
X192430014Y-94118057D01*
X192412535Y-94125297D01*
X192412504Y-94125310D01*
X192393082Y-94133348D01*
X192383581Y-94142850D01*
X192379336Y-94147095D01*
X192365164Y-94161258D01*
X192364613Y-94161809D01*
X192363307Y-94163760D01*
X192361928Y-94165728D01*
X192360395Y-94168515D01*
X192359396Y-94170077D01*
X192306693Y-94215948D01*
X192254816Y-94227267D01*
X190094248Y-94225214D01*
X190027227Y-94205466D01*
X189991253Y-94170088D01*
X189985355Y-94161258D01*
X189985204Y-94161031D01*
X189971087Y-94146914D01*
X189956956Y-94132774D01*
X189956954Y-94132773D01*
X189956941Y-94132760D01*
X189956513Y-94132471D01*
X189951178Y-94128829D01*
X189906909Y-94074774D01*
X189898891Y-94005366D01*
X189929671Y-93942641D01*
X189933413Y-93938733D01*
X189935356Y-93936790D01*
X189942344Y-93929802D01*
X189992749Y-93830876D01*
X189992749Y-93830874D01*
X189992750Y-93830873D01*
X190010118Y-93721217D01*
X190010118Y-93721212D01*
X189992750Y-93611556D01*
X189977388Y-93581407D01*
X189942344Y-93512628D01*
X189942341Y-93512625D01*
X189942339Y-93512622D01*
X189940954Y-93511237D01*
X189939807Y-93509136D01*
X189936605Y-93504729D01*
X189937174Y-93504315D01*
X189907469Y-93449914D01*
X189912453Y-93380222D01*
X189918147Y-93367268D01*
X189947500Y-93309661D01*
X189958699Y-93238953D01*
X189964869Y-93200002D01*
X189964869Y-93199997D01*
X189947501Y-93090341D01*
X189932762Y-93061414D01*
X189897095Y-92991413D01*
X189897092Y-92991410D01*
X189897090Y-92991407D01*
X189818592Y-92912909D01*
X189818588Y-92912906D01*
X189818587Y-92912905D01*
X189814743Y-92910946D01*
X189719658Y-92862498D01*
X189610002Y-92845131D01*
X189609998Y-92845131D01*
X189500341Y-92862498D01*
X189401414Y-92912904D01*
X189401407Y-92912909D01*
X189322909Y-92991407D01*
X189322904Y-92991414D01*
X189272498Y-93090341D01*
X189255131Y-93199997D01*
X189255131Y-93200003D01*
X189269734Y-93292205D01*
X189260779Y-93361498D01*
X189215783Y-93414950D01*
X189166660Y-93434075D01*
X189050341Y-93452499D01*
X188951414Y-93502904D01*
X188951407Y-93502909D01*
X188872909Y-93581407D01*
X188872904Y-93581414D01*
X188822498Y-93680341D01*
X188805131Y-93789997D01*
X188805131Y-93790002D01*
X188822498Y-93899656D01*
X188822499Y-93899659D01*
X188822500Y-93899661D01*
X188841419Y-93936792D01*
X188854315Y-94005459D01*
X188828039Y-94070200D01*
X188770932Y-94110457D01*
X188730895Y-94117085D01*
X177779836Y-94113622D01*
X177779487Y-94113589D01*
X177760000Y-94113603D01*
X177760000Y-93970000D01*
X177720000Y-93930000D01*
X175190000Y-93930000D01*
X175190000Y-94104657D01*
X175180061Y-94104657D01*
X171833948Y-94099822D01*
X171766937Y-94080040D01*
X171721258Y-94027170D01*
X171710127Y-93976031D01*
X171708921Y-93249997D01*
X172845131Y-93249997D01*
X172845131Y-93250002D01*
X172862498Y-93359658D01*
X172912904Y-93458585D01*
X172912909Y-93458592D01*
X172991407Y-93537090D01*
X172991410Y-93537092D01*
X172991413Y-93537095D01*
X173087729Y-93586170D01*
X173090341Y-93587501D01*
X173199998Y-93604869D01*
X173200000Y-93604869D01*
X173200002Y-93604869D01*
X173309658Y-93587501D01*
X173309659Y-93587500D01*
X173309661Y-93587500D01*
X173408587Y-93537095D01*
X173487095Y-93458587D01*
X173537500Y-93359661D01*
X173537500Y-93359659D01*
X173537501Y-93359658D01*
X173554869Y-93250002D01*
X173554869Y-93249997D01*
X173537501Y-93140341D01*
X173497282Y-93061407D01*
X173487095Y-93041413D01*
X173487092Y-93041410D01*
X173487090Y-93041407D01*
X173408592Y-92962909D01*
X173408588Y-92962906D01*
X173408587Y-92962905D01*
X173404743Y-92960946D01*
X173309658Y-92912498D01*
X173200002Y-92895131D01*
X173199998Y-92895131D01*
X173090341Y-92912498D01*
X172991414Y-92962904D01*
X172991407Y-92962909D01*
X172912909Y-93041407D01*
X172912904Y-93041414D01*
X172862498Y-93140341D01*
X172845131Y-93249997D01*
X171708921Y-93249997D01*
X171706779Y-91959997D01*
X172861387Y-91959997D01*
X172861387Y-91960002D01*
X172878754Y-92069658D01*
X172929160Y-92168585D01*
X172929165Y-92168592D01*
X173007663Y-92247090D01*
X173007666Y-92247092D01*
X173007669Y-92247095D01*
X173106595Y-92297500D01*
X173106597Y-92297501D01*
X173216254Y-92314869D01*
X173216256Y-92314869D01*
X173216258Y-92314869D01*
X173325914Y-92297501D01*
X173325915Y-92297500D01*
X173325917Y-92297500D01*
X173414241Y-92252497D01*
X176125131Y-92252497D01*
X176125131Y-92252502D01*
X176142498Y-92362158D01*
X176192904Y-92461085D01*
X176192909Y-92461092D01*
X176271407Y-92539590D01*
X176271410Y-92539592D01*
X176271413Y-92539595D01*
X176370339Y-92590000D01*
X176370341Y-92590001D01*
X176479998Y-92607369D01*
X176480000Y-92607369D01*
X176480002Y-92607369D01*
X176589658Y-92590001D01*
X176589659Y-92590000D01*
X176589661Y-92590000D01*
X176688587Y-92539595D01*
X176767095Y-92461087D01*
X176817500Y-92362161D01*
X176817500Y-92362159D01*
X176817501Y-92362158D01*
X176834869Y-92252502D01*
X176834869Y-92252497D01*
X176817501Y-92142841D01*
X176811994Y-92132033D01*
X176767095Y-92043913D01*
X176767092Y-92043910D01*
X176767090Y-92043907D01*
X176688592Y-91965409D01*
X176688588Y-91965406D01*
X176688587Y-91965405D01*
X176677973Y-91959997D01*
X176589658Y-91914998D01*
X176480002Y-91897631D01*
X176479998Y-91897631D01*
X176370341Y-91914998D01*
X176271414Y-91965404D01*
X176271407Y-91965409D01*
X176192909Y-92043907D01*
X176192904Y-92043914D01*
X176142498Y-92142841D01*
X176125131Y-92252497D01*
X173414241Y-92252497D01*
X173424843Y-92247095D01*
X173503351Y-92168587D01*
X173553756Y-92069661D01*
X173553756Y-92069659D01*
X173553757Y-92069658D01*
X173571125Y-91960002D01*
X173571125Y-91959997D01*
X173553757Y-91850341D01*
X173517199Y-91778592D01*
X173503351Y-91751413D01*
X173503348Y-91751410D01*
X173503346Y-91751407D01*
X173424848Y-91672909D01*
X173424844Y-91672906D01*
X173424843Y-91672905D01*
X173399519Y-91660002D01*
X173325914Y-91622498D01*
X173216258Y-91605131D01*
X173216254Y-91605131D01*
X173106597Y-91622498D01*
X173007670Y-91672904D01*
X173007663Y-91672909D01*
X172929165Y-91751407D01*
X172929160Y-91751414D01*
X172878754Y-91850341D01*
X172861387Y-91959997D01*
X171706779Y-91959997D01*
X171706131Y-91569997D01*
X175115131Y-91569997D01*
X175115131Y-91570002D01*
X175132498Y-91679658D01*
X175182904Y-91778585D01*
X175182909Y-91778592D01*
X175261407Y-91857090D01*
X175261410Y-91857092D01*
X175261413Y-91857095D01*
X175340970Y-91897631D01*
X175360341Y-91907501D01*
X175469998Y-91924869D01*
X175470000Y-91924869D01*
X175470002Y-91924869D01*
X175579658Y-91907501D01*
X175579659Y-91907500D01*
X175579661Y-91907500D01*
X175678587Y-91857095D01*
X175757095Y-91778587D01*
X175807500Y-91679661D01*
X175807500Y-91679659D01*
X175807501Y-91679658D01*
X175824869Y-91570002D01*
X175824869Y-91569997D01*
X175807501Y-91460341D01*
X175807500Y-91460339D01*
X175757095Y-91361413D01*
X175757092Y-91361410D01*
X175757090Y-91361407D01*
X175678592Y-91282909D01*
X175678588Y-91282906D01*
X175678587Y-91282905D01*
X175644296Y-91265433D01*
X175579658Y-91232498D01*
X175470002Y-91215131D01*
X175469998Y-91215131D01*
X175360341Y-91232498D01*
X175261414Y-91282904D01*
X175261407Y-91282909D01*
X175182909Y-91361407D01*
X175182904Y-91361414D01*
X175132498Y-91460341D01*
X175115131Y-91569997D01*
X171706131Y-91569997D01*
X171704537Y-90609997D01*
X172845131Y-90609997D01*
X172845131Y-90610002D01*
X172862498Y-90719658D01*
X172912904Y-90818585D01*
X172912909Y-90818592D01*
X172991407Y-90897090D01*
X172991410Y-90897092D01*
X172991413Y-90897095D01*
X173082952Y-90943736D01*
X173090341Y-90947501D01*
X173199998Y-90964869D01*
X173200000Y-90964869D01*
X173200002Y-90964869D01*
X173309658Y-90947501D01*
X173309659Y-90947500D01*
X173309661Y-90947500D01*
X173408587Y-90897095D01*
X173487095Y-90818587D01*
X173537500Y-90719661D01*
X173537500Y-90719659D01*
X173537501Y-90719658D01*
X173554869Y-90610002D01*
X173554869Y-90609997D01*
X173537501Y-90500341D01*
X173506583Y-90439661D01*
X173487095Y-90401413D01*
X173487092Y-90401410D01*
X173487090Y-90401407D01*
X173408592Y-90322909D01*
X173408588Y-90322906D01*
X173408587Y-90322905D01*
X173375925Y-90306263D01*
X173309658Y-90272498D01*
X173200002Y-90255131D01*
X173199998Y-90255131D01*
X173090341Y-90272498D01*
X172991414Y-90322904D01*
X172991407Y-90322909D01*
X172912909Y-90401407D01*
X172912904Y-90401414D01*
X172862498Y-90500341D01*
X172845131Y-90609997D01*
X171704537Y-90609997D01*
X171703789Y-90159997D01*
X173725131Y-90159997D01*
X173725131Y-90160002D01*
X173742498Y-90269658D01*
X173792904Y-90368585D01*
X173792909Y-90368592D01*
X173871407Y-90447090D01*
X173871410Y-90447092D01*
X173871413Y-90447095D01*
X173961921Y-90493211D01*
X173970341Y-90497501D01*
X174079998Y-90514869D01*
X174080000Y-90514869D01*
X174080002Y-90514869D01*
X174189658Y-90497501D01*
X174189659Y-90497500D01*
X174189661Y-90497500D01*
X174288587Y-90447095D01*
X174367095Y-90368587D01*
X174386757Y-90329997D01*
X175805131Y-90329997D01*
X175805131Y-90330002D01*
X175822498Y-90439658D01*
X175872904Y-90538585D01*
X175872909Y-90538592D01*
X175951407Y-90617090D01*
X175951410Y-90617092D01*
X175951413Y-90617095D01*
X176033971Y-90659160D01*
X176050341Y-90667501D01*
X176159998Y-90684869D01*
X176160000Y-90684869D01*
X176160002Y-90684869D01*
X176269658Y-90667501D01*
X176269659Y-90667500D01*
X176269661Y-90667500D01*
X176368587Y-90617095D01*
X176447095Y-90538587D01*
X176497500Y-90439661D01*
X176497500Y-90439659D01*
X176497501Y-90439658D01*
X176514869Y-90330002D01*
X176514869Y-90329997D01*
X176497501Y-90220341D01*
X176493454Y-90212398D01*
X176447095Y-90121413D01*
X176447092Y-90121410D01*
X176447090Y-90121407D01*
X176368592Y-90042909D01*
X176368588Y-90042906D01*
X176368587Y-90042905D01*
X176336865Y-90026742D01*
X176269658Y-89992498D01*
X176160002Y-89975131D01*
X176159998Y-89975131D01*
X176050341Y-89992498D01*
X175951414Y-90042904D01*
X175951407Y-90042909D01*
X175872909Y-90121407D01*
X175872904Y-90121414D01*
X175822498Y-90220341D01*
X175805131Y-90329997D01*
X174386757Y-90329997D01*
X174417500Y-90269661D01*
X174417500Y-90269659D01*
X174417501Y-90269658D01*
X174434869Y-90160002D01*
X174434869Y-90159997D01*
X174417501Y-90050341D01*
X174406964Y-90029661D01*
X174367095Y-89951413D01*
X174367092Y-89951410D01*
X174367090Y-89951407D01*
X174288592Y-89872909D01*
X174288588Y-89872906D01*
X174288587Y-89872905D01*
X174239174Y-89847728D01*
X174189658Y-89822498D01*
X174080002Y-89805131D01*
X174079998Y-89805131D01*
X173970341Y-89822498D01*
X173871414Y-89872904D01*
X173871407Y-89872909D01*
X173792909Y-89951407D01*
X173792904Y-89951414D01*
X173742498Y-90050341D01*
X173725131Y-90159997D01*
X171703789Y-90159997D01*
X171702394Y-89319997D01*
X172845131Y-89319997D01*
X172845131Y-89320002D01*
X172862498Y-89429658D01*
X172912904Y-89528585D01*
X172912909Y-89528592D01*
X172991407Y-89607090D01*
X172991410Y-89607092D01*
X172991413Y-89607095D01*
X173090339Y-89657500D01*
X173090341Y-89657501D01*
X173199998Y-89674869D01*
X173200000Y-89674869D01*
X173200002Y-89674869D01*
X173309658Y-89657501D01*
X173309659Y-89657500D01*
X173309661Y-89657500D01*
X173408587Y-89607095D01*
X173487095Y-89528587D01*
X173537500Y-89429661D01*
X173537500Y-89429659D01*
X173537501Y-89429658D01*
X173554869Y-89320002D01*
X173554869Y-89319997D01*
X173537501Y-89210341D01*
X173522938Y-89181759D01*
X173487095Y-89111413D01*
X173487092Y-89111410D01*
X173487090Y-89111407D01*
X173408592Y-89032909D01*
X173408588Y-89032906D01*
X173408587Y-89032905D01*
X173404743Y-89030946D01*
X173309658Y-88982498D01*
X173200002Y-88965131D01*
X173199998Y-88965131D01*
X173090341Y-88982498D01*
X172991414Y-89032904D01*
X172991407Y-89032909D01*
X172912909Y-89111407D01*
X172912904Y-89111414D01*
X172862498Y-89210341D01*
X172845131Y-89319997D01*
X171702394Y-89319997D01*
X171700500Y-88179708D01*
X171700500Y-88160009D01*
X171700500Y-88160007D01*
X171700467Y-88159842D01*
X171692830Y-88141494D01*
X171692748Y-88141295D01*
X171685199Y-88123069D01*
X171685110Y-88122936D01*
X171685105Y-88122931D01*
X171685105Y-88122930D01*
X171671247Y-88109118D01*
X171656929Y-88094800D01*
X171656789Y-88094706D01*
X171638560Y-88087191D01*
X171638368Y-88087112D01*
X171619988Y-88079498D01*
X171619893Y-88079480D01*
X171619828Y-88079467D01*
X171619824Y-88079467D01*
X171603831Y-88079493D01*
X171599832Y-88079500D01*
X168604564Y-88079500D01*
X168537525Y-88059815D01*
X168491770Y-88007011D01*
X168480564Y-87955385D01*
X168480571Y-87948611D01*
X168482800Y-85548543D01*
X171294499Y-85548543D01*
X171332947Y-85741829D01*
X171332950Y-85741839D01*
X171408364Y-85923907D01*
X171408371Y-85923920D01*
X171517860Y-86087781D01*
X171517863Y-86087785D01*
X171657214Y-86227136D01*
X171657218Y-86227139D01*
X171821079Y-86336628D01*
X171821092Y-86336635D01*
X171956961Y-86392913D01*
X172003165Y-86412051D01*
X172003169Y-86412051D01*
X172003170Y-86412052D01*
X172196456Y-86450500D01*
X172196459Y-86450500D01*
X172643543Y-86450500D01*
X172773582Y-86424632D01*
X172836835Y-86412051D01*
X173018914Y-86336632D01*
X173182782Y-86227139D01*
X173322139Y-86087782D01*
X173431632Y-85923914D01*
X173507051Y-85741835D01*
X173522720Y-85663064D01*
X173545500Y-85548543D01*
X173545500Y-85351456D01*
X173507052Y-85158170D01*
X173507051Y-85158169D01*
X173507051Y-85158165D01*
X173505643Y-85154766D01*
X173431635Y-84976092D01*
X173431628Y-84976079D01*
X173322139Y-84812218D01*
X173322136Y-84812214D01*
X173182785Y-84672863D01*
X173182781Y-84672860D01*
X173018920Y-84563371D01*
X173018907Y-84563364D01*
X172836839Y-84487950D01*
X172836829Y-84487947D01*
X172643543Y-84449500D01*
X172643541Y-84449500D01*
X172196459Y-84449500D01*
X172196457Y-84449500D01*
X172003170Y-84487947D01*
X172003160Y-84487950D01*
X171821092Y-84563364D01*
X171821079Y-84563371D01*
X171657218Y-84672860D01*
X171657214Y-84672863D01*
X171517863Y-84812214D01*
X171517860Y-84812218D01*
X171408371Y-84976079D01*
X171408364Y-84976092D01*
X171332950Y-85158160D01*
X171332947Y-85158170D01*
X171294500Y-85351456D01*
X171294500Y-85351459D01*
X171294500Y-85548541D01*
X171294500Y-85548543D01*
X171294499Y-85548543D01*
X168482800Y-85548543D01*
X168485121Y-83048543D01*
X171294499Y-83048543D01*
X171332947Y-83241829D01*
X171332950Y-83241839D01*
X171408364Y-83423907D01*
X171408371Y-83423920D01*
X171517860Y-83587781D01*
X171517863Y-83587785D01*
X171657214Y-83727136D01*
X171657218Y-83727139D01*
X171821079Y-83836628D01*
X171821092Y-83836635D01*
X171993776Y-83908162D01*
X172003165Y-83912051D01*
X172003169Y-83912051D01*
X172003170Y-83912052D01*
X172196456Y-83950500D01*
X172196459Y-83950500D01*
X172643543Y-83950500D01*
X172773582Y-83924632D01*
X172836835Y-83912051D01*
X173018914Y-83836632D01*
X173182782Y-83727139D01*
X173322139Y-83587782D01*
X173431632Y-83423914D01*
X173437395Y-83410002D01*
X173469294Y-83332989D01*
X173479853Y-83307496D01*
X175226343Y-83307496D01*
X175226343Y-83307501D01*
X175243710Y-83417157D01*
X175294116Y-83516084D01*
X175294121Y-83516091D01*
X175372619Y-83594589D01*
X175372622Y-83594591D01*
X175372625Y-83594594D01*
X175452908Y-83635500D01*
X175471553Y-83645000D01*
X175581210Y-83662368D01*
X175581212Y-83662368D01*
X175581214Y-83662368D01*
X175690870Y-83645000D01*
X175690871Y-83644999D01*
X175690873Y-83644999D01*
X175789799Y-83594594D01*
X175868307Y-83516086D01*
X175918712Y-83417160D01*
X175918712Y-83417158D01*
X175918713Y-83417157D01*
X175936081Y-83307501D01*
X175936081Y-83307496D01*
X175918713Y-83197840D01*
X175916332Y-83193167D01*
X175868307Y-83098912D01*
X175868304Y-83098909D01*
X175868302Y-83098906D01*
X175789804Y-83020408D01*
X175789800Y-83020405D01*
X175789799Y-83020404D01*
X175770045Y-83010339D01*
X175690870Y-82969997D01*
X175581214Y-82952630D01*
X175581210Y-82952630D01*
X175471553Y-82969997D01*
X175372626Y-83020403D01*
X175372619Y-83020408D01*
X175294121Y-83098906D01*
X175294116Y-83098913D01*
X175243710Y-83197840D01*
X175226343Y-83307496D01*
X173479853Y-83307496D01*
X173507051Y-83241835D01*
X173533207Y-83110342D01*
X173545500Y-83048543D01*
X173545500Y-82851456D01*
X173507052Y-82658170D01*
X173507051Y-82658169D01*
X173507051Y-82658165D01*
X173505006Y-82653228D01*
X173431635Y-82476092D01*
X173431628Y-82476079D01*
X173322139Y-82312218D01*
X173322136Y-82312214D01*
X173182785Y-82172863D01*
X173182781Y-82172860D01*
X173018920Y-82063371D01*
X173018907Y-82063364D01*
X172836839Y-81987950D01*
X172836829Y-81987947D01*
X172643543Y-81949500D01*
X172643541Y-81949500D01*
X172196459Y-81949500D01*
X172196457Y-81949500D01*
X172003170Y-81987947D01*
X172003160Y-81987950D01*
X171821092Y-82063364D01*
X171821079Y-82063371D01*
X171657218Y-82172860D01*
X171657214Y-82172863D01*
X171517863Y-82312214D01*
X171517860Y-82312218D01*
X171408371Y-82476079D01*
X171408364Y-82476092D01*
X171332950Y-82658160D01*
X171332947Y-82658170D01*
X171294500Y-82851456D01*
X171294500Y-82851459D01*
X171294500Y-83048541D01*
X171294500Y-83048543D01*
X171294499Y-83048543D01*
X168485121Y-83048543D01*
X168487655Y-80319997D01*
X176055131Y-80319997D01*
X176055131Y-80320002D01*
X176072498Y-80429658D01*
X176122904Y-80528585D01*
X176122909Y-80528592D01*
X176201407Y-80607090D01*
X176201410Y-80607092D01*
X176201413Y-80607095D01*
X176300339Y-80657500D01*
X176300341Y-80657501D01*
X176409998Y-80674869D01*
X176410000Y-80674869D01*
X176410002Y-80674869D01*
X176519658Y-80657501D01*
X176519659Y-80657500D01*
X176519661Y-80657500D01*
X176618587Y-80607095D01*
X176697095Y-80528587D01*
X176747500Y-80429661D01*
X176747500Y-80429659D01*
X176747501Y-80429658D01*
X176764869Y-80320002D01*
X176764869Y-80319997D01*
X176747501Y-80210341D01*
X176726225Y-80168585D01*
X176697095Y-80111413D01*
X176697092Y-80111410D01*
X176697090Y-80111407D01*
X176618592Y-80032909D01*
X176618588Y-80032906D01*
X176618587Y-80032905D01*
X176553911Y-79999951D01*
X176519658Y-79982498D01*
X176410002Y-79965131D01*
X176409998Y-79965131D01*
X176300341Y-79982498D01*
X176201414Y-80032904D01*
X176201407Y-80032909D01*
X176122909Y-80111407D01*
X176122904Y-80111414D01*
X176072498Y-80210341D01*
X176055131Y-80319997D01*
X168487655Y-80319997D01*
X168488951Y-78923920D01*
X169669499Y-78923920D01*
X169698340Y-79068907D01*
X169698343Y-79068917D01*
X169754912Y-79205488D01*
X169754919Y-79205501D01*
X169837048Y-79328415D01*
X169837051Y-79328419D01*
X169941580Y-79432948D01*
X169941584Y-79432951D01*
X170064498Y-79515080D01*
X170064511Y-79515087D01*
X170201082Y-79571656D01*
X170201087Y-79571658D01*
X170201091Y-79571658D01*
X170201092Y-79571659D01*
X170346079Y-79600500D01*
X170346082Y-79600500D01*
X170493920Y-79600500D01*
X170591462Y-79581096D01*
X170638913Y-79571658D01*
X170775495Y-79515084D01*
X170898416Y-79432951D01*
X171002951Y-79328416D01*
X171085084Y-79205495D01*
X171088566Y-79197090D01*
X171117390Y-79127502D01*
X171128783Y-79099997D01*
X174275131Y-79099997D01*
X174275131Y-79100002D01*
X174292498Y-79209658D01*
X174342904Y-79308585D01*
X174342909Y-79308592D01*
X174421407Y-79387090D01*
X174421410Y-79387092D01*
X174421413Y-79387095D01*
X174496766Y-79425489D01*
X174520341Y-79437501D01*
X174629998Y-79454869D01*
X174630000Y-79454869D01*
X174630002Y-79454869D01*
X174739658Y-79437501D01*
X174739659Y-79437500D01*
X174739661Y-79437500D01*
X174838587Y-79387095D01*
X174917095Y-79308587D01*
X174967500Y-79209661D01*
X174967500Y-79209659D01*
X174967501Y-79209658D01*
X174980514Y-79127497D01*
X175375131Y-79127497D01*
X175375131Y-79127502D01*
X175392498Y-79237158D01*
X175442904Y-79336085D01*
X175442909Y-79336092D01*
X175521407Y-79414590D01*
X175521410Y-79414592D01*
X175521413Y-79414595D01*
X175566367Y-79437500D01*
X175620341Y-79465001D01*
X175729998Y-79482369D01*
X175730000Y-79482369D01*
X175730002Y-79482369D01*
X175839658Y-79465001D01*
X175839659Y-79465000D01*
X175839661Y-79465000D01*
X175938587Y-79414595D01*
X175938592Y-79414590D01*
X175963864Y-79389319D01*
X176025187Y-79355834D01*
X176051545Y-79353000D01*
X177453105Y-79353000D01*
X177520144Y-79372685D01*
X177565899Y-79425489D01*
X177575843Y-79494647D01*
X177563591Y-79533290D01*
X177560000Y-79540339D01*
X177559998Y-79540343D01*
X177542631Y-79649997D01*
X177542631Y-79650002D01*
X177559998Y-79759658D01*
X177610404Y-79858585D01*
X177610409Y-79858592D01*
X177688907Y-79937090D01*
X177688910Y-79937092D01*
X177688913Y-79937095D01*
X177787839Y-79987500D01*
X177787840Y-79987500D01*
X177787842Y-79987501D01*
X177787841Y-79987501D01*
X177876351Y-80001519D01*
X177897500Y-80004869D01*
X177897500Y-80004868D01*
X177900437Y-80005334D01*
X177963572Y-80035263D01*
X177968721Y-80040126D01*
X179004259Y-81075664D01*
X179004262Y-81075668D01*
X179011330Y-81082736D01*
X179074764Y-81146170D01*
X179089476Y-81152263D01*
X179089479Y-81152266D01*
X179089479Y-81152265D01*
X179157646Y-81180501D01*
X179157647Y-81180501D01*
X179261789Y-81180501D01*
X179261797Y-81180500D01*
X180943624Y-81180500D01*
X181010663Y-81200185D01*
X181056418Y-81252989D01*
X181066362Y-81322147D01*
X181066098Y-81323897D01*
X181065131Y-81330002D01*
X181082498Y-81439658D01*
X181132904Y-81538585D01*
X181132909Y-81538592D01*
X181211407Y-81617090D01*
X181211410Y-81617092D01*
X181211413Y-81617095D01*
X181234009Y-81628608D01*
X181310341Y-81667501D01*
X181419998Y-81684869D01*
X181420000Y-81684869D01*
X181420002Y-81684869D01*
X181529658Y-81667501D01*
X181529659Y-81667500D01*
X181529661Y-81667500D01*
X181628587Y-81617095D01*
X181707095Y-81538587D01*
X181757500Y-81439661D01*
X181757500Y-81439659D01*
X181757501Y-81439658D01*
X181774869Y-81330002D01*
X181773902Y-81323897D01*
X181782858Y-81254604D01*
X181827855Y-81201152D01*
X181894606Y-81180513D01*
X181896376Y-81180500D01*
X182042969Y-81180500D01*
X182110008Y-81200185D01*
X182155763Y-81252989D01*
X182165442Y-81285102D01*
X182172498Y-81329658D01*
X182222904Y-81428585D01*
X182222909Y-81428592D01*
X182301407Y-81507090D01*
X182301410Y-81507092D01*
X182301413Y-81507095D01*
X182400339Y-81557500D01*
X182400340Y-81557500D01*
X182400342Y-81557501D01*
X182400341Y-81557501D01*
X182472698Y-81568960D01*
X182510000Y-81574869D01*
X182510001Y-81574868D01*
X182514643Y-81575604D01*
X182577778Y-81605533D01*
X182614710Y-81664844D01*
X182613712Y-81734706D01*
X182605732Y-81754370D01*
X182592498Y-81780342D01*
X182579020Y-81865443D01*
X182549091Y-81928578D01*
X182489779Y-81965509D01*
X182475945Y-81968518D01*
X182419242Y-81977498D01*
X182320315Y-82027904D01*
X182320308Y-82027909D01*
X182241810Y-82106407D01*
X182241805Y-82106414D01*
X182191399Y-82205341D01*
X182173566Y-82317937D01*
X182143636Y-82381072D01*
X182138774Y-82386220D01*
X181560501Y-82964493D01*
X181499178Y-82997978D01*
X181429486Y-82992994D01*
X181385139Y-82964493D01*
X181326722Y-82906076D01*
X181326718Y-82906073D01*
X181326717Y-82906072D01*
X181280454Y-82882500D01*
X181227788Y-82855665D01*
X181118132Y-82838298D01*
X181118128Y-82838298D01*
X181008471Y-82855665D01*
X180909544Y-82906071D01*
X180909537Y-82906076D01*
X180831039Y-82984574D01*
X180831036Y-82984578D01*
X180831035Y-82984580D01*
X180790117Y-83064885D01*
X180742145Y-83115680D01*
X180674324Y-83132475D01*
X180608189Y-83109938D01*
X180591953Y-83096270D01*
X180528592Y-83032909D01*
X180528588Y-83032906D01*
X180528587Y-83032905D01*
X180524743Y-83030946D01*
X180429658Y-82982498D01*
X180320002Y-82965131D01*
X180319998Y-82965131D01*
X180210341Y-82982498D01*
X180111414Y-83032904D01*
X180111407Y-83032909D01*
X180032909Y-83111407D01*
X180032904Y-83111414D01*
X179982498Y-83210341D01*
X179965131Y-83319997D01*
X179965131Y-83320002D01*
X179982498Y-83429658D01*
X180032904Y-83528585D01*
X180032909Y-83528592D01*
X180111407Y-83607090D01*
X180111410Y-83607092D01*
X180111413Y-83607095D01*
X180206592Y-83655591D01*
X180210341Y-83657501D01*
X180319998Y-83674869D01*
X180320000Y-83674869D01*
X180320002Y-83674869D01*
X180429658Y-83657501D01*
X180429659Y-83657500D01*
X180429661Y-83657500D01*
X180528587Y-83607095D01*
X180607095Y-83528587D01*
X180648013Y-83448279D01*
X180695983Y-83397487D01*
X180763804Y-83380691D01*
X180829939Y-83403227D01*
X180846176Y-83416896D01*
X180909537Y-83480257D01*
X180909540Y-83480259D01*
X180909543Y-83480262D01*
X180991145Y-83521840D01*
X181008471Y-83530668D01*
X181118128Y-83548036D01*
X181118130Y-83548036D01*
X181211102Y-83533310D01*
X181280394Y-83542264D01*
X181333847Y-83587260D01*
X181354487Y-83654011D01*
X181354500Y-83655783D01*
X181354500Y-83965232D01*
X181334815Y-84032271D01*
X181318181Y-84052913D01*
X180803830Y-84567263D01*
X180803830Y-84567265D01*
X180769499Y-84650144D01*
X180769499Y-84754288D01*
X180769500Y-84754297D01*
X180769500Y-87273786D01*
X180749815Y-87340825D01*
X180733181Y-87361467D01*
X180086948Y-88007700D01*
X180025625Y-88041185D01*
X179955933Y-88036201D01*
X179900000Y-87994329D01*
X179881337Y-87958340D01*
X179880362Y-87955339D01*
X179860638Y-87916629D01*
X179829957Y-87856413D01*
X179829954Y-87856410D01*
X179829952Y-87856407D01*
X179751454Y-87777909D01*
X179751450Y-87777906D01*
X179751449Y-87777905D01*
X179736916Y-87770500D01*
X179652520Y-87727498D01*
X179542864Y-87710131D01*
X179542860Y-87710131D01*
X179433203Y-87727498D01*
X179334276Y-87777904D01*
X179334269Y-87777909D01*
X179255771Y-87856407D01*
X179255766Y-87856414D01*
X179225085Y-87916629D01*
X179177111Y-87967424D01*
X179109290Y-87984219D01*
X179043155Y-87961681D01*
X179026920Y-87948014D01*
X178761819Y-87682913D01*
X178728334Y-87621590D01*
X178725500Y-87595232D01*
X178725500Y-84469297D01*
X178725501Y-84469288D01*
X178725501Y-84365146D01*
X178725501Y-84365145D01*
X178691170Y-84282265D01*
X178691170Y-84282264D01*
X178627736Y-84218830D01*
X178620671Y-84211765D01*
X178620664Y-84211759D01*
X176348610Y-81939705D01*
X176331170Y-81922264D01*
X176267736Y-81858830D01*
X176267735Y-81858829D01*
X176243457Y-81848772D01*
X176243457Y-81848771D01*
X176184858Y-81824500D01*
X176184856Y-81824499D01*
X176184855Y-81824499D01*
X176101544Y-81824499D01*
X176034505Y-81804814D01*
X176013863Y-81788180D01*
X175988592Y-81762909D01*
X175988588Y-81762906D01*
X175988587Y-81762905D01*
X175971836Y-81754370D01*
X175889658Y-81712498D01*
X175780002Y-81695131D01*
X175779998Y-81695131D01*
X175670341Y-81712498D01*
X175571414Y-81762904D01*
X175571407Y-81762909D01*
X175492909Y-81841407D01*
X175492904Y-81841414D01*
X175442498Y-81940341D01*
X175425131Y-82049997D01*
X175425131Y-82050002D01*
X175442498Y-82159658D01*
X175492904Y-82258585D01*
X175492909Y-82258592D01*
X175571407Y-82337090D01*
X175571410Y-82337092D01*
X175571413Y-82337095D01*
X175617207Y-82360428D01*
X175670341Y-82387501D01*
X175779998Y-82404869D01*
X175780000Y-82404869D01*
X175780002Y-82404869D01*
X175889656Y-82387501D01*
X175889656Y-82387500D01*
X175889661Y-82387500D01*
X175987549Y-82337623D01*
X176056217Y-82324728D01*
X176120957Y-82351005D01*
X176131523Y-82360428D01*
X178238181Y-84467086D01*
X178271666Y-84528409D01*
X178274500Y-84554767D01*
X178274500Y-87685142D01*
X178274499Y-87685156D01*
X178274499Y-87695145D01*
X178274499Y-87784855D01*
X178281081Y-87800744D01*
X178308830Y-87867736D01*
X178308831Y-87867737D01*
X178389700Y-87948606D01*
X178389706Y-87948611D01*
X178809873Y-88368779D01*
X178843358Y-88430102D01*
X178844665Y-88437063D01*
X178855595Y-88506074D01*
X178846640Y-88575367D01*
X178801644Y-88628819D01*
X178780574Y-88640032D01*
X178747266Y-88653827D01*
X177758831Y-89642262D01*
X177758830Y-89642264D01*
X177752518Y-89657502D01*
X177724499Y-89725142D01*
X177724499Y-89829288D01*
X177724500Y-89829297D01*
X177724500Y-91165142D01*
X177724499Y-91165156D01*
X177724499Y-91175145D01*
X177724499Y-91264855D01*
X177728917Y-91275522D01*
X177747134Y-91319499D01*
X177747134Y-91319500D01*
X177758829Y-91347735D01*
X177758830Y-91347736D01*
X177822264Y-91411170D01*
X177822265Y-91411170D01*
X177839705Y-91428610D01*
X179609873Y-93198778D01*
X179643358Y-93260101D01*
X179644665Y-93267061D01*
X179662498Y-93379658D01*
X179712904Y-93478585D01*
X179712909Y-93478592D01*
X179791407Y-93557090D01*
X179791410Y-93557092D01*
X179791413Y-93557095D01*
X179851087Y-93587500D01*
X179890341Y-93607501D01*
X179999998Y-93624869D01*
X180000000Y-93624869D01*
X180000002Y-93624869D01*
X180109658Y-93607501D01*
X180109659Y-93607500D01*
X180109661Y-93607500D01*
X180208587Y-93557095D01*
X180287095Y-93478587D01*
X180337500Y-93379661D01*
X180337500Y-93379659D01*
X180337501Y-93379658D01*
X180354869Y-93270002D01*
X180354869Y-93269997D01*
X180337501Y-93160341D01*
X180332138Y-93149815D01*
X180287095Y-93061413D01*
X180287092Y-93061410D01*
X180287090Y-93061407D01*
X180208592Y-92982909D01*
X180208588Y-92982906D01*
X180208587Y-92982905D01*
X180204743Y-92980946D01*
X180109658Y-92932498D01*
X179997061Y-92914665D01*
X179933926Y-92884736D01*
X179928778Y-92879873D01*
X178211819Y-91162914D01*
X178178334Y-91101591D01*
X178175500Y-91075233D01*
X178175500Y-90850657D01*
X179025131Y-90850657D01*
X179025131Y-90850662D01*
X179042498Y-90960318D01*
X179092904Y-91059245D01*
X179092909Y-91059252D01*
X179171407Y-91137750D01*
X179171410Y-91137752D01*
X179171413Y-91137755D01*
X179266677Y-91186294D01*
X179270341Y-91188161D01*
X179379998Y-91205529D01*
X179380000Y-91205529D01*
X179380002Y-91205529D01*
X179489658Y-91188161D01*
X179489659Y-91188160D01*
X179489661Y-91188160D01*
X179588587Y-91137755D01*
X179667095Y-91059247D01*
X179717500Y-90960321D01*
X179717501Y-90960317D01*
X179720518Y-90951035D01*
X179723738Y-90952081D01*
X179746226Y-90904592D01*
X179805522Y-90867636D01*
X179875385Y-90868603D01*
X179933634Y-90907188D01*
X179937701Y-90912382D01*
X180016577Y-90991258D01*
X180016580Y-90991260D01*
X180016583Y-90991263D01*
X180075758Y-91021414D01*
X180115511Y-91041669D01*
X180234809Y-91060564D01*
X180234460Y-91062762D01*
X180288814Y-91078722D01*
X180334569Y-91131526D01*
X180344513Y-91200684D01*
X180344248Y-91202435D01*
X180335131Y-91259997D01*
X180335131Y-91260002D01*
X180352498Y-91369658D01*
X180402904Y-91468585D01*
X180402909Y-91468592D01*
X180481407Y-91547090D01*
X180481410Y-91547092D01*
X180481413Y-91547095D01*
X180526367Y-91570000D01*
X180580341Y-91597501D01*
X180689998Y-91614869D01*
X180690000Y-91614869D01*
X180690002Y-91614869D01*
X180799658Y-91597501D01*
X180799659Y-91597500D01*
X180799661Y-91597500D01*
X180898587Y-91547095D01*
X180977095Y-91468587D01*
X181027500Y-91369661D01*
X181027500Y-91369659D01*
X181027501Y-91369658D01*
X181044869Y-91260002D01*
X181044869Y-91259997D01*
X181027501Y-91150341D01*
X181012762Y-91121414D01*
X180977095Y-91051413D01*
X180977093Y-91051411D01*
X180977091Y-91051408D01*
X180959976Y-91034294D01*
X180926489Y-90972972D01*
X180931472Y-90903280D01*
X180959972Y-90858932D01*
X181410294Y-90408609D01*
X181410297Y-90408608D01*
X181427735Y-90391170D01*
X181427736Y-90391170D01*
X181491170Y-90327736D01*
X181510249Y-90281672D01*
X181537127Y-90241445D01*
X186306170Y-85472405D01*
X186306170Y-85472403D01*
X186306172Y-85472402D01*
X186333054Y-85407500D01*
X186340500Y-85389524D01*
X186340500Y-85299815D01*
X186340500Y-77664299D01*
X186340501Y-77664290D01*
X186340501Y-77560149D01*
X186340501Y-77560148D01*
X186309637Y-77485637D01*
X186306170Y-77477266D01*
X186242736Y-77413832D01*
X186242734Y-77413831D01*
X186235668Y-77406765D01*
X186235668Y-77406764D01*
X186235664Y-77406761D01*
X185400124Y-76571221D01*
X185366639Y-76509898D01*
X185365331Y-76502932D01*
X185363108Y-76488892D01*
X185372066Y-76419599D01*
X185417065Y-76366149D01*
X185483818Y-76345513D01*
X185485582Y-76345500D01*
X186353455Y-76345500D01*
X186420494Y-76365185D01*
X186441136Y-76381819D01*
X186501407Y-76442090D01*
X186501410Y-76442092D01*
X186501413Y-76442095D01*
X186584222Y-76484288D01*
X186600341Y-76492501D01*
X186709998Y-76509869D01*
X186710000Y-76509869D01*
X186710002Y-76509869D01*
X186819658Y-76492501D01*
X186819659Y-76492500D01*
X186819661Y-76492500D01*
X186918587Y-76442095D01*
X186997095Y-76363587D01*
X187047500Y-76264661D01*
X187047500Y-76264659D01*
X187047501Y-76264658D01*
X187064869Y-76155002D01*
X187064869Y-76154997D01*
X187047501Y-76045341D01*
X186997095Y-75946413D01*
X186997090Y-75946407D01*
X186918592Y-75867909D01*
X186918588Y-75867906D01*
X186918587Y-75867905D01*
X186914743Y-75865946D01*
X186819658Y-75817498D01*
X186710002Y-75800131D01*
X186709998Y-75800131D01*
X186600341Y-75817498D01*
X186501413Y-75867905D01*
X186497401Y-75870820D01*
X186431594Y-75894298D01*
X186424518Y-75894500D01*
X184614814Y-75894500D01*
X184614812Y-75894500D01*
X184614810Y-75894501D01*
X184531935Y-75928827D01*
X184163498Y-76297264D01*
X184153443Y-76321537D01*
X184153443Y-76321539D01*
X184147927Y-76334856D01*
X184129168Y-76380143D01*
X184129168Y-76484288D01*
X184129169Y-76484297D01*
X184129169Y-81296211D01*
X184109484Y-81363250D01*
X184056680Y-81409005D01*
X183987522Y-81418949D01*
X183985778Y-81418686D01*
X183979670Y-81417719D01*
X183979668Y-81417719D01*
X183870011Y-81435086D01*
X183771084Y-81485492D01*
X183771077Y-81485497D01*
X183692579Y-81563995D01*
X183692574Y-81564002D01*
X183642168Y-81662929D01*
X183624801Y-81772585D01*
X183624801Y-81772590D01*
X183642168Y-81882246D01*
X183692574Y-81981173D01*
X183692579Y-81981180D01*
X183771077Y-82059678D01*
X183771080Y-82059680D01*
X183771083Y-82059683D01*
X183830170Y-82089789D01*
X183870011Y-82110089D01*
X183979668Y-82127457D01*
X183979670Y-82127457D01*
X183979672Y-82127457D01*
X183985771Y-82126491D01*
X184055064Y-82135445D01*
X184108516Y-82180442D01*
X184129156Y-82247193D01*
X184129169Y-82248964D01*
X184129169Y-85390563D01*
X184109484Y-85457602D01*
X184092850Y-85478244D01*
X182933830Y-86637263D01*
X182933830Y-86637265D01*
X182899499Y-86720144D01*
X182899499Y-86824288D01*
X182899500Y-86824297D01*
X182899500Y-87200232D01*
X182879815Y-87267271D01*
X182863181Y-87287913D01*
X180373832Y-89777261D01*
X180373831Y-89777263D01*
X180373830Y-89777264D01*
X180365986Y-89796202D01*
X180344643Y-89847728D01*
X180339499Y-89860146D01*
X180339499Y-89964288D01*
X180339500Y-89964297D01*
X180339500Y-90219569D01*
X180319815Y-90286608D01*
X180303181Y-90307250D01*
X180296390Y-90314041D01*
X180235067Y-90347526D01*
X180228107Y-90348833D01*
X180115511Y-90366666D01*
X180090667Y-90379325D01*
X180021998Y-90392220D01*
X179957258Y-90365942D01*
X179917002Y-90308835D01*
X179914012Y-90239029D01*
X179923886Y-90212553D01*
X179933871Y-90192958D01*
X179939092Y-90159997D01*
X179951240Y-90083299D01*
X179951240Y-90083294D01*
X179933872Y-89973638D01*
X179929108Y-89964288D01*
X179883466Y-89874710D01*
X179883463Y-89874707D01*
X179883461Y-89874704D01*
X179804962Y-89796205D01*
X179804956Y-89796201D01*
X179706029Y-89745795D01*
X179596373Y-89728428D01*
X179596369Y-89728428D01*
X179486712Y-89745795D01*
X179387785Y-89796201D01*
X179387780Y-89796205D01*
X179309280Y-89874704D01*
X179309275Y-89874711D01*
X179258869Y-89973638D01*
X179241502Y-90083294D01*
X179241502Y-90083299D01*
X179258869Y-90192955D01*
X179309275Y-90291882D01*
X179309280Y-90291889D01*
X179323654Y-90306263D01*
X179357139Y-90367586D01*
X179352155Y-90437278D01*
X179310283Y-90493211D01*
X179274302Y-90511872D01*
X179270340Y-90513159D01*
X179171414Y-90563564D01*
X179171407Y-90563569D01*
X179092909Y-90642067D01*
X179092904Y-90642074D01*
X179042498Y-90741001D01*
X179025131Y-90850657D01*
X178175500Y-90850657D01*
X178175500Y-89914767D01*
X178195185Y-89847728D01*
X178211819Y-89827086D01*
X178932086Y-89106819D01*
X178993409Y-89073334D01*
X179019767Y-89070500D01*
X179335703Y-89070500D01*
X179335711Y-89070501D01*
X179350145Y-89070501D01*
X179439854Y-89070501D01*
X179439855Y-89070501D01*
X179513489Y-89040000D01*
X179522736Y-89036170D01*
X179586170Y-88972736D01*
X179586170Y-88972735D01*
X179603610Y-88955295D01*
X179603610Y-88955293D01*
X179952085Y-88606820D01*
X180013408Y-88573335D01*
X180039766Y-88570501D01*
X180113408Y-88570501D01*
X180113409Y-88570501D01*
X180185836Y-88540500D01*
X180196290Y-88536170D01*
X180259724Y-88472736D01*
X180259724Y-88472735D01*
X180277162Y-88455297D01*
X180277163Y-88455294D01*
X181186170Y-87546290D01*
X181186170Y-87546288D01*
X181186172Y-87546287D01*
X181203335Y-87504849D01*
X181220500Y-87463409D01*
X181220500Y-87373700D01*
X181220500Y-84839766D01*
X181240185Y-84772727D01*
X181256815Y-84752089D01*
X181690294Y-84318609D01*
X181690297Y-84318608D01*
X181707735Y-84301170D01*
X181707736Y-84301170D01*
X181771170Y-84237736D01*
X181793221Y-84184500D01*
X181805501Y-84154855D01*
X181805501Y-84065145D01*
X181805501Y-84055156D01*
X181805500Y-84055142D01*
X181805500Y-83408667D01*
X181825185Y-83341628D01*
X181841815Y-83320990D01*
X182457680Y-82705124D01*
X182519001Y-82671641D01*
X182525962Y-82670333D01*
X182528896Y-82669868D01*
X182528901Y-82669869D01*
X182633964Y-82653228D01*
X182703257Y-82662184D01*
X182756709Y-82707181D01*
X182773964Y-82762988D01*
X182775834Y-82762692D01*
X182794728Y-82881989D01*
X182845134Y-82980916D01*
X182850874Y-82988817D01*
X182849290Y-82989967D01*
X182876889Y-83040511D01*
X182871905Y-83110203D01*
X182866208Y-83123163D01*
X182847498Y-83159882D01*
X182830131Y-83269538D01*
X182830131Y-83269543D01*
X182847498Y-83379199D01*
X182897904Y-83478126D01*
X182897909Y-83478133D01*
X182976407Y-83556631D01*
X182976410Y-83556633D01*
X182976413Y-83556636D01*
X183075339Y-83607041D01*
X183075341Y-83607042D01*
X183184998Y-83624410D01*
X183185000Y-83624410D01*
X183185002Y-83624410D01*
X183294658Y-83607042D01*
X183294659Y-83607041D01*
X183294661Y-83607041D01*
X183393587Y-83556636D01*
X183472095Y-83478128D01*
X183522500Y-83379202D01*
X183522500Y-83379200D01*
X183522501Y-83379199D01*
X183539869Y-83269543D01*
X183539869Y-83269538D01*
X183522501Y-83159882D01*
X183512572Y-83140395D01*
X183472095Y-83060954D01*
X183472092Y-83060951D01*
X183466356Y-83053055D01*
X183467939Y-83051904D01*
X183440340Y-83001360D01*
X183445324Y-82931668D01*
X183451010Y-82918732D01*
X183469730Y-82881992D01*
X183471629Y-82870002D01*
X183487099Y-82772333D01*
X183487099Y-82772328D01*
X183469731Y-82662672D01*
X183469090Y-82661413D01*
X183419325Y-82563744D01*
X183419322Y-82563741D01*
X183419320Y-82563738D01*
X183340822Y-82485240D01*
X183340818Y-82485237D01*
X183340817Y-82485236D01*
X183241891Y-82434831D01*
X183241889Y-82434830D01*
X183241888Y-82434830D01*
X183154132Y-82420930D01*
X183090998Y-82391000D01*
X183054067Y-82331688D01*
X183055065Y-82261826D01*
X183093676Y-82203593D01*
X183117228Y-82187977D01*
X183138587Y-82177095D01*
X183217095Y-82098587D01*
X183267500Y-81999661D01*
X183267500Y-81999659D01*
X183267501Y-81999658D01*
X183284869Y-81890002D01*
X183284869Y-81889997D01*
X183267501Y-81780341D01*
X183244249Y-81734706D01*
X183217095Y-81681413D01*
X183217092Y-81681410D01*
X183217090Y-81681407D01*
X183138592Y-81602909D01*
X183138588Y-81602906D01*
X183138587Y-81602905D01*
X183092962Y-81579658D01*
X183039658Y-81552498D01*
X182925355Y-81534395D01*
X182862220Y-81504466D01*
X182825289Y-81445154D01*
X182826287Y-81375292D01*
X182834262Y-81355642D01*
X182847500Y-81329661D01*
X182862729Y-81233510D01*
X182892658Y-81170376D01*
X182951969Y-81133444D01*
X183021832Y-81134442D01*
X183041496Y-81142423D01*
X183110341Y-81177501D01*
X183219998Y-81194869D01*
X183220000Y-81194869D01*
X183220002Y-81194869D01*
X183329658Y-81177501D01*
X183329659Y-81177500D01*
X183329661Y-81177500D01*
X183428587Y-81127095D01*
X183507095Y-81048587D01*
X183557500Y-80949661D01*
X183557500Y-80949659D01*
X183557501Y-80949658D01*
X183574869Y-80840002D01*
X183574869Y-80839997D01*
X183557501Y-80730341D01*
X183520387Y-80657500D01*
X183507095Y-80631413D01*
X183507092Y-80631410D01*
X183507090Y-80631407D01*
X183428592Y-80552909D01*
X183428588Y-80552906D01*
X183428587Y-80552905D01*
X183380856Y-80528585D01*
X183329658Y-80502498D01*
X183220003Y-80485131D01*
X183210242Y-80485131D01*
X183210242Y-80482666D01*
X183157893Y-80476467D01*
X183104858Y-80454500D01*
X183104856Y-80454499D01*
X183104855Y-80454499D01*
X183015145Y-80454499D01*
X183000711Y-80454499D01*
X183000703Y-80454500D01*
X180800545Y-80454500D01*
X180733506Y-80434815D01*
X180687751Y-80382011D01*
X180677807Y-80312853D01*
X180706832Y-80249297D01*
X180712864Y-80242819D01*
X180787090Y-80168592D01*
X180787095Y-80168587D01*
X180837500Y-80069661D01*
X180837500Y-80069659D01*
X180837501Y-80069658D01*
X180854869Y-79960002D01*
X180854869Y-79959997D01*
X180837501Y-79850341D01*
X180837500Y-79850339D01*
X180787095Y-79751413D01*
X180787092Y-79751410D01*
X180787090Y-79751407D01*
X180708592Y-79672909D01*
X180708588Y-79672906D01*
X180708587Y-79672905D01*
X180663637Y-79650002D01*
X180609658Y-79622498D01*
X180500002Y-79605131D01*
X180499998Y-79605131D01*
X180390341Y-79622498D01*
X180291414Y-79672904D01*
X180291407Y-79672909D01*
X180212909Y-79751407D01*
X180212904Y-79751414D01*
X180162498Y-79850341D01*
X180145131Y-79959997D01*
X180145131Y-79960002D01*
X180162498Y-80069658D01*
X180212904Y-80168585D01*
X180212909Y-80168592D01*
X180287136Y-80242819D01*
X180320621Y-80304142D01*
X180315637Y-80373834D01*
X180273765Y-80429767D01*
X180208301Y-80454184D01*
X180199455Y-80454500D01*
X179654767Y-80454500D01*
X179587728Y-80434815D01*
X179567086Y-80418181D01*
X178166110Y-79017205D01*
X178148670Y-78999764D01*
X178085236Y-78936330D01*
X178085235Y-78936329D01*
X178060957Y-78926272D01*
X178060957Y-78926271D01*
X178002358Y-78902000D01*
X178002356Y-78901999D01*
X178002355Y-78901999D01*
X177912645Y-78901999D01*
X177898211Y-78901999D01*
X177898203Y-78902000D01*
X176051545Y-78902000D01*
X175984506Y-78882315D01*
X175963864Y-78865681D01*
X175938592Y-78840409D01*
X175938588Y-78840406D01*
X175938587Y-78840405D01*
X175879579Y-78810339D01*
X175839658Y-78789998D01*
X175730002Y-78772631D01*
X175729998Y-78772631D01*
X175620341Y-78789998D01*
X175521414Y-78840404D01*
X175521407Y-78840409D01*
X175442909Y-78918907D01*
X175442904Y-78918914D01*
X175392498Y-79017841D01*
X175375131Y-79127497D01*
X174980514Y-79127497D01*
X174984869Y-79100002D01*
X174984869Y-79099997D01*
X174967501Y-78990341D01*
X174939981Y-78936330D01*
X174917095Y-78891413D01*
X174917092Y-78891410D01*
X174917090Y-78891407D01*
X174838592Y-78812909D01*
X174838588Y-78812906D01*
X174838587Y-78812905D01*
X174802369Y-78794451D01*
X174739658Y-78762498D01*
X174630002Y-78745131D01*
X174629998Y-78745131D01*
X174520341Y-78762498D01*
X174421414Y-78812904D01*
X174421407Y-78812909D01*
X174342909Y-78891407D01*
X174342904Y-78891414D01*
X174292498Y-78990341D01*
X174275131Y-79099997D01*
X171128783Y-79099997D01*
X171141658Y-79068913D01*
X171151817Y-79017841D01*
X171170500Y-78923920D01*
X171170500Y-78776079D01*
X171141659Y-78631092D01*
X171141658Y-78631091D01*
X171141658Y-78631087D01*
X171138269Y-78622905D01*
X171085087Y-78494511D01*
X171085080Y-78494498D01*
X171002951Y-78371584D01*
X171002948Y-78371580D01*
X170898419Y-78267051D01*
X170898415Y-78267048D01*
X170775501Y-78184919D01*
X170775488Y-78184912D01*
X170638917Y-78128343D01*
X170638907Y-78128340D01*
X170493920Y-78099500D01*
X170493918Y-78099500D01*
X170346082Y-78099500D01*
X170346080Y-78099500D01*
X170201092Y-78128340D01*
X170201082Y-78128343D01*
X170064511Y-78184912D01*
X170064498Y-78184919D01*
X169941584Y-78267048D01*
X169941580Y-78267051D01*
X169837051Y-78371580D01*
X169837048Y-78371584D01*
X169754919Y-78494498D01*
X169754912Y-78494511D01*
X169698343Y-78631082D01*
X169698340Y-78631092D01*
X169669500Y-78776079D01*
X169669500Y-78776082D01*
X169669500Y-78923918D01*
X169669500Y-78923920D01*
X169669499Y-78923920D01*
X168488951Y-78923920D01*
X168489405Y-78434855D01*
X168490148Y-77634385D01*
X168503226Y-77589997D01*
X174315131Y-77589997D01*
X174315131Y-77590002D01*
X174332498Y-77699658D01*
X174382904Y-77798585D01*
X174382909Y-77798592D01*
X174461407Y-77877090D01*
X174461410Y-77877092D01*
X174461413Y-77877095D01*
X174539908Y-77917090D01*
X174560341Y-77927501D01*
X174669998Y-77944869D01*
X174670000Y-77944869D01*
X174670002Y-77944869D01*
X174779658Y-77927501D01*
X174779659Y-77927500D01*
X174779661Y-77927500D01*
X174878587Y-77877095D01*
X174957095Y-77798587D01*
X175007500Y-77699661D01*
X175007500Y-77699659D01*
X175007501Y-77699658D01*
X175024869Y-77590002D01*
X175024869Y-77589997D01*
X175007501Y-77480341D01*
X174981847Y-77429992D01*
X174957095Y-77381413D01*
X174957092Y-77381410D01*
X174957090Y-77381407D01*
X174878592Y-77302909D01*
X174878588Y-77302906D01*
X174878587Y-77302905D01*
X174826452Y-77276341D01*
X174779658Y-77252498D01*
X174670002Y-77235131D01*
X174669998Y-77235131D01*
X174560341Y-77252498D01*
X174461414Y-77302904D01*
X174461407Y-77302909D01*
X174382909Y-77381407D01*
X174382904Y-77381414D01*
X174332498Y-77480341D01*
X174315131Y-77589997D01*
X168503226Y-77589997D01*
X168509895Y-77567364D01*
X168562741Y-77521658D01*
X168614148Y-77510500D01*
X171619989Y-77510500D01*
X171619991Y-77510500D01*
X171656929Y-77495200D01*
X171685200Y-77466929D01*
X171700500Y-77429991D01*
X171700500Y-75089997D01*
X182695131Y-75089997D01*
X182695131Y-75090002D01*
X182712498Y-75199658D01*
X182762904Y-75298585D01*
X182762909Y-75298592D01*
X182841407Y-75377090D01*
X182841410Y-75377092D01*
X182841413Y-75377095D01*
X182940339Y-75427500D01*
X182940341Y-75427501D01*
X183049998Y-75444869D01*
X183050000Y-75444869D01*
X183050002Y-75444869D01*
X183159658Y-75427501D01*
X183159659Y-75427500D01*
X183159661Y-75427500D01*
X183258587Y-75377095D01*
X183337095Y-75298587D01*
X183387500Y-75199661D01*
X183387500Y-75199659D01*
X183387501Y-75199658D01*
X183404869Y-75090002D01*
X183404869Y-75089997D01*
X183393782Y-75019997D01*
X187445131Y-75019997D01*
X187445131Y-75020002D01*
X187462498Y-75129658D01*
X187512904Y-75228585D01*
X187512909Y-75228592D01*
X187591407Y-75307090D01*
X187591410Y-75307092D01*
X187591413Y-75307095D01*
X187670713Y-75347500D01*
X187690341Y-75357501D01*
X187799998Y-75374869D01*
X187800000Y-75374869D01*
X187800002Y-75374869D01*
X187909656Y-75357501D01*
X187909656Y-75357500D01*
X187909661Y-75357500D01*
X188008587Y-75307095D01*
X188008590Y-75307091D01*
X188013518Y-75304581D01*
X188082187Y-75291685D01*
X188126101Y-75304579D01*
X188210339Y-75347500D01*
X188210341Y-75347500D01*
X188210343Y-75347501D01*
X188319998Y-75364869D01*
X188320000Y-75364869D01*
X188320002Y-75364869D01*
X188429658Y-75347501D01*
X188429659Y-75347500D01*
X188429661Y-75347500D01*
X188528587Y-75297095D01*
X188607095Y-75218587D01*
X188657500Y-75119661D01*
X188657500Y-75119659D01*
X188657501Y-75119658D01*
X188674869Y-75010002D01*
X188674869Y-75009997D01*
X188657501Y-74900341D01*
X188647854Y-74881407D01*
X188607095Y-74801413D01*
X188607092Y-74801410D01*
X188607090Y-74801407D01*
X188528592Y-74722909D01*
X188528588Y-74722906D01*
X188528587Y-74722905D01*
X188524743Y-74720946D01*
X188429658Y-74672498D01*
X188320002Y-74655131D01*
X188319998Y-74655131D01*
X188210341Y-74672498D01*
X188106480Y-74725418D01*
X188037811Y-74738314D01*
X187993895Y-74725419D01*
X187909661Y-74682500D01*
X187909659Y-74682499D01*
X187909656Y-74682498D01*
X187800002Y-74665131D01*
X187799998Y-74665131D01*
X187690341Y-74682498D01*
X187591414Y-74732904D01*
X187591407Y-74732909D01*
X187512909Y-74811407D01*
X187512904Y-74811414D01*
X187462498Y-74910341D01*
X187445131Y-75019997D01*
X183393782Y-75019997D01*
X183387501Y-74980341D01*
X183346738Y-74900339D01*
X183337095Y-74881413D01*
X183337092Y-74881410D01*
X183337090Y-74881407D01*
X183258592Y-74802909D01*
X183258588Y-74802906D01*
X183258587Y-74802905D01*
X183212295Y-74779318D01*
X183159658Y-74752498D01*
X183050002Y-74735131D01*
X183049998Y-74735131D01*
X182940341Y-74752498D01*
X182841414Y-74802904D01*
X182841407Y-74802909D01*
X182762909Y-74881407D01*
X182762904Y-74881414D01*
X182712498Y-74980341D01*
X182695131Y-75089997D01*
X171700500Y-75089997D01*
X171700500Y-74319997D01*
X174665131Y-74319997D01*
X174665131Y-74320002D01*
X174682498Y-74429658D01*
X174732904Y-74528585D01*
X174732909Y-74528592D01*
X174811407Y-74607090D01*
X174811410Y-74607092D01*
X174811413Y-74607095D01*
X174905690Y-74655131D01*
X174910341Y-74657501D01*
X175019998Y-74674869D01*
X175020000Y-74674869D01*
X175020002Y-74674869D01*
X175129658Y-74657501D01*
X175129659Y-74657500D01*
X175129661Y-74657500D01*
X175228587Y-74607095D01*
X175307095Y-74528587D01*
X175357500Y-74429661D01*
X175357500Y-74429659D01*
X175357501Y-74429658D01*
X175374869Y-74320002D01*
X175374869Y-74319997D01*
X175357501Y-74210341D01*
X175357500Y-74210339D01*
X175344963Y-74185734D01*
X175332066Y-74117064D01*
X175344960Y-74073149D01*
X175387500Y-73989661D01*
X175403232Y-73890340D01*
X175404869Y-73880002D01*
X175404869Y-73879997D01*
X175398534Y-73839997D01*
X178985131Y-73839997D01*
X178985131Y-73840002D01*
X179002498Y-73949658D01*
X179052904Y-74048585D01*
X179052909Y-74048592D01*
X179131407Y-74127090D01*
X179131410Y-74127092D01*
X179131413Y-74127095D01*
X179217003Y-74170705D01*
X179230341Y-74177501D01*
X179339998Y-74194869D01*
X179340000Y-74194869D01*
X179340002Y-74194869D01*
X179449658Y-74177501D01*
X179449659Y-74177500D01*
X179449661Y-74177500D01*
X179548587Y-74127095D01*
X179627095Y-74048587D01*
X179677500Y-73949661D01*
X179677500Y-73949659D01*
X179677501Y-73949658D01*
X179686950Y-73889997D01*
X180085131Y-73889997D01*
X180085131Y-73890002D01*
X180102498Y-73999658D01*
X180152904Y-74098585D01*
X180152909Y-74098592D01*
X180231407Y-74177090D01*
X180231410Y-74177092D01*
X180231413Y-74177095D01*
X180330339Y-74227500D01*
X180330341Y-74227501D01*
X180439998Y-74244869D01*
X180440000Y-74244869D01*
X180440002Y-74244869D01*
X180549658Y-74227501D01*
X180549659Y-74227500D01*
X180549661Y-74227500D01*
X180648587Y-74177095D01*
X180727095Y-74098587D01*
X180777500Y-73999661D01*
X180777500Y-73999659D01*
X180777501Y-73999658D01*
X180794816Y-73890337D01*
X181186625Y-73890337D01*
X181186625Y-73890342D01*
X181203992Y-73999998D01*
X181255983Y-74102036D01*
X181268879Y-74170705D01*
X181255983Y-74214624D01*
X181222498Y-74280341D01*
X181205131Y-74389997D01*
X181205131Y-74390002D01*
X181222498Y-74499658D01*
X181272904Y-74598585D01*
X181272909Y-74598592D01*
X181351407Y-74677090D01*
X181351410Y-74677092D01*
X181351413Y-74677095D01*
X181441319Y-74722904D01*
X181450341Y-74727501D01*
X181559998Y-74744869D01*
X181560000Y-74744869D01*
X181560002Y-74744869D01*
X181669658Y-74727501D01*
X181669659Y-74727500D01*
X181669661Y-74727500D01*
X181768587Y-74677095D01*
X181847095Y-74598587D01*
X181897500Y-74499661D01*
X181897500Y-74499659D01*
X181897501Y-74499658D01*
X181914869Y-74390002D01*
X181914869Y-74389997D01*
X181897501Y-74280343D01*
X181897500Y-74280341D01*
X181897500Y-74280339D01*
X181847095Y-74181413D01*
X181847093Y-74181411D01*
X181845510Y-74178304D01*
X181832614Y-74109634D01*
X181845509Y-74065718D01*
X181878994Y-74000001D01*
X181879049Y-73999658D01*
X181896363Y-73890342D01*
X181896363Y-73890337D01*
X181878995Y-73780681D01*
X181878821Y-73780339D01*
X181828589Y-73681753D01*
X181828586Y-73681750D01*
X181828584Y-73681747D01*
X181750086Y-73603249D01*
X181750082Y-73603246D01*
X181750081Y-73603245D01*
X181729795Y-73592909D01*
X181651152Y-73552838D01*
X181541496Y-73535471D01*
X181541492Y-73535471D01*
X181431835Y-73552838D01*
X181332908Y-73603244D01*
X181332901Y-73603249D01*
X181254403Y-73681747D01*
X181254398Y-73681754D01*
X181203992Y-73780681D01*
X181186625Y-73890337D01*
X180794816Y-73890337D01*
X180794869Y-73890002D01*
X180794869Y-73889997D01*
X180777501Y-73780341D01*
X180752024Y-73730339D01*
X180727095Y-73681413D01*
X180727092Y-73681410D01*
X180727090Y-73681407D01*
X180648592Y-73602909D01*
X180648588Y-73602906D01*
X180648587Y-73602905D01*
X180628959Y-73592904D01*
X180549658Y-73552498D01*
X180440002Y-73535131D01*
X180439998Y-73535131D01*
X180330341Y-73552498D01*
X180231414Y-73602904D01*
X180231407Y-73602909D01*
X180152909Y-73681407D01*
X180152904Y-73681414D01*
X180102498Y-73780341D01*
X180085131Y-73889997D01*
X179686950Y-73889997D01*
X179694869Y-73840002D01*
X179694869Y-73839997D01*
X179677501Y-73730341D01*
X179652741Y-73681747D01*
X179627095Y-73631413D01*
X179627092Y-73631410D01*
X179627090Y-73631407D01*
X179548592Y-73552909D01*
X179548588Y-73552906D01*
X179548587Y-73552905D01*
X179514371Y-73535471D01*
X179449658Y-73502498D01*
X179340002Y-73485131D01*
X179339998Y-73485131D01*
X179230341Y-73502498D01*
X179131414Y-73552904D01*
X179131407Y-73552909D01*
X179052909Y-73631407D01*
X179052904Y-73631414D01*
X179002498Y-73730341D01*
X178985131Y-73839997D01*
X175398534Y-73839997D01*
X175387501Y-73770341D01*
X175342360Y-73681747D01*
X175337095Y-73671413D01*
X175337092Y-73671410D01*
X175337090Y-73671407D01*
X175258592Y-73592909D01*
X175258588Y-73592906D01*
X175258587Y-73592905D01*
X175254743Y-73590946D01*
X175159658Y-73542498D01*
X175050002Y-73525131D01*
X175049998Y-73525131D01*
X174940341Y-73542498D01*
X174841414Y-73592904D01*
X174841407Y-73592909D01*
X174762909Y-73671407D01*
X174762904Y-73671414D01*
X174712498Y-73770341D01*
X174695131Y-73879997D01*
X174695131Y-73880002D01*
X174712498Y-73989658D01*
X174725037Y-74014266D01*
X174737933Y-74082935D01*
X174725037Y-74126854D01*
X174682498Y-74210341D01*
X174665131Y-74319997D01*
X171700500Y-74319997D01*
X171700500Y-73064500D01*
X171720185Y-72997461D01*
X171772989Y-72951706D01*
X171824500Y-72940500D01*
X175181375Y-72940500D01*
X175181421Y-72940500D01*
X175200000Y-72940543D01*
G37*
%TD.AperFunction*%
%TA.AperFunction,Conductor*%
G36*
X193472127Y-83655591D02*
G01*
X193494271Y-83673176D01*
X194461759Y-84640664D01*
X194461762Y-84640668D01*
X194468830Y-84647736D01*
X194532264Y-84711170D01*
X194541824Y-84715130D01*
X194541826Y-84715131D01*
X194541827Y-84715131D01*
X194615145Y-84745501D01*
X194615146Y-84745501D01*
X194719289Y-84745501D01*
X194719297Y-84745500D01*
X195014769Y-84745500D01*
X195081808Y-84765185D01*
X195127563Y-84817989D01*
X195138768Y-84869614D01*
X195138715Y-84926852D01*
X195138676Y-84967948D01*
X195118928Y-85034969D01*
X195102360Y-85055510D01*
X195074799Y-85083072D01*
X195059500Y-85120007D01*
X195059500Y-88830000D01*
X194460000Y-88830000D01*
X194350000Y-88940000D01*
X194350000Y-93205624D01*
X194333457Y-93198772D01*
X194333457Y-93198771D01*
X194274858Y-93174500D01*
X194274856Y-93174499D01*
X194274855Y-93174499D01*
X194185145Y-93174499D01*
X194170711Y-93174499D01*
X194170703Y-93174500D01*
X193916924Y-93174500D01*
X193892605Y-93169660D01*
X193892164Y-93171882D01*
X193880186Y-93169499D01*
X193790476Y-93169499D01*
X193776042Y-93169499D01*
X193776034Y-93169500D01*
X192319768Y-93169500D01*
X192252729Y-93149815D01*
X192232087Y-93133181D01*
X188421819Y-89322913D01*
X188388334Y-89261590D01*
X188385500Y-89235232D01*
X188385500Y-88949997D01*
X189725131Y-88949997D01*
X189725131Y-88950002D01*
X189742498Y-89059658D01*
X189792904Y-89158585D01*
X189792909Y-89158592D01*
X189871407Y-89237090D01*
X189871410Y-89237092D01*
X189871413Y-89237095D01*
X189968561Y-89286594D01*
X189970341Y-89287501D01*
X190079998Y-89304869D01*
X190080000Y-89304869D01*
X190080002Y-89304869D01*
X190189656Y-89287501D01*
X190189656Y-89287500D01*
X190189661Y-89287500D01*
X190253708Y-89254866D01*
X190322374Y-89241971D01*
X190366289Y-89254865D01*
X190430339Y-89287500D01*
X190430341Y-89287500D01*
X190430343Y-89287501D01*
X190539998Y-89304869D01*
X190540000Y-89304869D01*
X190540002Y-89304869D01*
X190649658Y-89287501D01*
X190649659Y-89287500D01*
X190649661Y-89287500D01*
X190748587Y-89237095D01*
X190827095Y-89158587D01*
X190877500Y-89059661D01*
X190877500Y-89059659D01*
X190877501Y-89059658D01*
X190894869Y-88950002D01*
X190894869Y-88949997D01*
X190877501Y-88840341D01*
X190875857Y-88837114D01*
X190827095Y-88741413D01*
X190827092Y-88741410D01*
X190827090Y-88741407D01*
X190748592Y-88662909D01*
X190748588Y-88662906D01*
X190748587Y-88662905D01*
X190730770Y-88653827D01*
X190649658Y-88612498D01*
X190540002Y-88595131D01*
X190539998Y-88595131D01*
X190430341Y-88612498D01*
X190366294Y-88645132D01*
X190297624Y-88658028D01*
X190253706Y-88645132D01*
X190189658Y-88612498D01*
X190080002Y-88595131D01*
X190079998Y-88595131D01*
X189970341Y-88612498D01*
X189871414Y-88662904D01*
X189871407Y-88662909D01*
X189792909Y-88741407D01*
X189792904Y-88741414D01*
X189742498Y-88840341D01*
X189725131Y-88949997D01*
X188385500Y-88949997D01*
X188385500Y-88561544D01*
X188405185Y-88494505D01*
X188421815Y-88473866D01*
X188447095Y-88448587D01*
X188497500Y-88349661D01*
X188497500Y-88349659D01*
X188497501Y-88349658D01*
X188514869Y-88240002D01*
X188514869Y-88239997D01*
X188497501Y-88130343D01*
X188497500Y-88130341D01*
X188497500Y-88130339D01*
X188451922Y-88040887D01*
X188439027Y-87972222D01*
X188455595Y-87928775D01*
X188452664Y-87927282D01*
X188457093Y-87918588D01*
X188457095Y-87918587D01*
X188498051Y-87838204D01*
X188546026Y-87787409D01*
X188608536Y-87770500D01*
X190310233Y-87770500D01*
X190377272Y-87790185D01*
X190397914Y-87806819D01*
X192028181Y-89437086D01*
X192061666Y-89498409D01*
X192064500Y-89524767D01*
X192064500Y-90098455D01*
X192044815Y-90165494D01*
X192028181Y-90186136D01*
X192002909Y-90211407D01*
X192002904Y-90211414D01*
X191952498Y-90310341D01*
X191935131Y-90419997D01*
X191935131Y-90420002D01*
X191952498Y-90529658D01*
X192002904Y-90628585D01*
X192002909Y-90628592D01*
X192081407Y-90707090D01*
X192081410Y-90707092D01*
X192081413Y-90707095D01*
X192111832Y-90722594D01*
X192180341Y-90757501D01*
X192289998Y-90774869D01*
X192290000Y-90774869D01*
X192290002Y-90774869D01*
X192399658Y-90757501D01*
X192399659Y-90757500D01*
X192399661Y-90757500D01*
X192498587Y-90707095D01*
X192577095Y-90628587D01*
X192627500Y-90529661D01*
X192627500Y-90529659D01*
X192627501Y-90529658D01*
X192644869Y-90420002D01*
X192644869Y-90419997D01*
X192627501Y-90310341D01*
X192616696Y-90289135D01*
X192577095Y-90211413D01*
X192577092Y-90211410D01*
X192577090Y-90211407D01*
X192551819Y-90186136D01*
X192518334Y-90124813D01*
X192515500Y-90098455D01*
X192515500Y-89919997D01*
X192935131Y-89919997D01*
X192935131Y-89920002D01*
X192952498Y-90029658D01*
X193002904Y-90128585D01*
X193002909Y-90128592D01*
X193081407Y-90207090D01*
X193081410Y-90207092D01*
X193081413Y-90207095D01*
X193159604Y-90246935D01*
X193180341Y-90257501D01*
X193289998Y-90274869D01*
X193290000Y-90274869D01*
X193290002Y-90274869D01*
X193399658Y-90257501D01*
X193399659Y-90257500D01*
X193399661Y-90257500D01*
X193498587Y-90207095D01*
X193577095Y-90128587D01*
X193627500Y-90029661D01*
X193627500Y-90029659D01*
X193627501Y-90029658D01*
X193644869Y-89920002D01*
X193644869Y-89919997D01*
X193627501Y-89810341D01*
X193610648Y-89777265D01*
X193577095Y-89711413D01*
X193577092Y-89711410D01*
X193577090Y-89711407D01*
X193498592Y-89632909D01*
X193498589Y-89632907D01*
X193498587Y-89632905D01*
X193461225Y-89613868D01*
X193410430Y-89565894D01*
X193393635Y-89498073D01*
X193416173Y-89431938D01*
X193470888Y-89388487D01*
X193498120Y-89380911D01*
X193519661Y-89377500D01*
X193618587Y-89327095D01*
X193618592Y-89327089D01*
X193626486Y-89321356D01*
X193628708Y-89324414D01*
X193673642Y-89299879D01*
X193743334Y-89304863D01*
X193772076Y-89323335D01*
X193773514Y-89321356D01*
X193781410Y-89327092D01*
X193781413Y-89327095D01*
X193818772Y-89346130D01*
X193880341Y-89377501D01*
X193989998Y-89394869D01*
X193990000Y-89394869D01*
X193990002Y-89394869D01*
X194099658Y-89377501D01*
X194099659Y-89377500D01*
X194099661Y-89377500D01*
X194198587Y-89327095D01*
X194277095Y-89248587D01*
X194327500Y-89149661D01*
X194327500Y-89149659D01*
X194327501Y-89149658D01*
X194344869Y-89040000D01*
X194344869Y-89039997D01*
X194327501Y-88930341D01*
X194281466Y-88839992D01*
X194277095Y-88831413D01*
X194277092Y-88831410D01*
X194277090Y-88831407D01*
X194198592Y-88752909D01*
X194198588Y-88752906D01*
X194198587Y-88752905D01*
X194194743Y-88750946D01*
X194099658Y-88702498D01*
X193990002Y-88685131D01*
X193989998Y-88685131D01*
X193880341Y-88702498D01*
X193781414Y-88752904D01*
X193773514Y-88758644D01*
X193771291Y-88755585D01*
X193726358Y-88780121D01*
X193656666Y-88775137D01*
X193627923Y-88756664D01*
X193626486Y-88758644D01*
X193618588Y-88752906D01*
X193618587Y-88752905D01*
X193614743Y-88750946D01*
X193519658Y-88702498D01*
X193410002Y-88685131D01*
X193409998Y-88685131D01*
X193300341Y-88702498D01*
X193201414Y-88752904D01*
X193201407Y-88752909D01*
X193122909Y-88831407D01*
X193122904Y-88831414D01*
X193072498Y-88930341D01*
X193055131Y-89039997D01*
X193055131Y-89040000D01*
X193072498Y-89149658D01*
X193122904Y-89248585D01*
X193122909Y-89248592D01*
X193201407Y-89327090D01*
X193201410Y-89327092D01*
X193201413Y-89327095D01*
X193238772Y-89346130D01*
X193289569Y-89394104D01*
X193306364Y-89461925D01*
X193283827Y-89528060D01*
X193229112Y-89571512D01*
X193201877Y-89579088D01*
X193180341Y-89582499D01*
X193081414Y-89632904D01*
X193081407Y-89632909D01*
X193002909Y-89711407D01*
X193002904Y-89711414D01*
X192952498Y-89810341D01*
X192935131Y-89919997D01*
X192515500Y-89919997D01*
X192515500Y-89439297D01*
X192515501Y-89439288D01*
X192515501Y-89335146D01*
X192515501Y-89335145D01*
X192481170Y-89252265D01*
X192481170Y-89252264D01*
X192417736Y-89188830D01*
X192410671Y-89181765D01*
X192410664Y-89181759D01*
X190663610Y-87434705D01*
X190646170Y-87417264D01*
X190582736Y-87353830D01*
X190582735Y-87353829D01*
X190558457Y-87343772D01*
X190558457Y-87343771D01*
X190499858Y-87319500D01*
X190499856Y-87319499D01*
X190499855Y-87319499D01*
X190410145Y-87319499D01*
X190395711Y-87319499D01*
X190395703Y-87319500D01*
X190144000Y-87319500D01*
X190076961Y-87299815D01*
X190031206Y-87247011D01*
X190020000Y-87195500D01*
X190020000Y-86579997D01*
X192985131Y-86579997D01*
X192985131Y-86580002D01*
X193002498Y-86689658D01*
X193052906Y-86788589D01*
X193056784Y-86793927D01*
X193080261Y-86859734D01*
X193066948Y-86923102D01*
X193022498Y-87010339D01*
X193005131Y-87119995D01*
X193005131Y-87120000D01*
X193022498Y-87229656D01*
X193072904Y-87328583D01*
X193072909Y-87328590D01*
X193151407Y-87407088D01*
X193151410Y-87407090D01*
X193151413Y-87407093D01*
X193250339Y-87457498D01*
X193250341Y-87457499D01*
X193359998Y-87474867D01*
X193360000Y-87474867D01*
X193360002Y-87474867D01*
X193469658Y-87457499D01*
X193469659Y-87457498D01*
X193469661Y-87457498D01*
X193568587Y-87407093D01*
X193647095Y-87328585D01*
X193697500Y-87229659D01*
X193697500Y-87229657D01*
X193697501Y-87229656D01*
X193714869Y-87120000D01*
X193714869Y-87119995D01*
X193697501Y-87010339D01*
X193647093Y-86911407D01*
X193643216Y-86906071D01*
X193619738Y-86840264D01*
X193633051Y-86776896D01*
X193677500Y-86689661D01*
X193694869Y-86580000D01*
X193693892Y-86573829D01*
X193677501Y-86470341D01*
X193677500Y-86470339D01*
X193627095Y-86371413D01*
X193627092Y-86371410D01*
X193627090Y-86371407D01*
X193548592Y-86292909D01*
X193548588Y-86292906D01*
X193548587Y-86292905D01*
X193471364Y-86253558D01*
X193449658Y-86242498D01*
X193340002Y-86225131D01*
X193339998Y-86225131D01*
X193230341Y-86242498D01*
X193131414Y-86292904D01*
X193131407Y-86292909D01*
X193052909Y-86371407D01*
X193052904Y-86371414D01*
X193002498Y-86470341D01*
X192985131Y-86579997D01*
X190020000Y-86579997D01*
X190020000Y-86320597D01*
X190039685Y-86253558D01*
X190056314Y-86232921D01*
X192047294Y-84241940D01*
X192047297Y-84241939D01*
X192064735Y-84224501D01*
X192064736Y-84224501D01*
X192128170Y-84161067D01*
X192135715Y-84142849D01*
X192179554Y-84088447D01*
X192245848Y-84066381D01*
X192306566Y-84079815D01*
X192390339Y-84122500D01*
X192390341Y-84122500D01*
X192390343Y-84122501D01*
X192499998Y-84139869D01*
X192500000Y-84139869D01*
X192500002Y-84139869D01*
X192609656Y-84122501D01*
X192609656Y-84122500D01*
X192609661Y-84122500D01*
X192658708Y-84097509D01*
X192727374Y-84084614D01*
X192771290Y-84097508D01*
X192820339Y-84122500D01*
X192820341Y-84122500D01*
X192820343Y-84122501D01*
X192929998Y-84139869D01*
X192930000Y-84139869D01*
X192930002Y-84139869D01*
X193039658Y-84122501D01*
X193039659Y-84122500D01*
X193039661Y-84122500D01*
X193138587Y-84072095D01*
X193217095Y-83993587D01*
X193267500Y-83894661D01*
X193267500Y-83894659D01*
X193267501Y-83894658D01*
X193284869Y-83785002D01*
X193284869Y-83785001D01*
X193284869Y-83785000D01*
X193284118Y-83780260D01*
X193293069Y-83710968D01*
X193338062Y-83657513D01*
X193404813Y-83636870D01*
X193472127Y-83655591D01*
G37*
%TD.AperFunction*%
%TD*%
%TA.AperFunction,Conductor*%
%TO.N,GND*%
G36*
X195059500Y-88839992D02*
G01*
X195074799Y-88876928D01*
X195074800Y-88876929D01*
X195103071Y-88905200D01*
X195140009Y-88920500D01*
X195179991Y-88920500D01*
X196566464Y-88920500D01*
X196633503Y-88940185D01*
X196679258Y-88992989D01*
X196690464Y-89044495D01*
X196690666Y-93995419D01*
X196670984Y-94062459D01*
X196618182Y-94108216D01*
X196566625Y-94119424D01*
X195148998Y-94118954D01*
X195081965Y-94099247D01*
X195036228Y-94046428D01*
X195026307Y-93977266D01*
X195026566Y-93975555D01*
X195044869Y-93860000D01*
X195044869Y-93859997D01*
X195027501Y-93750341D01*
X195027500Y-93750339D01*
X194977095Y-93651413D01*
X194977092Y-93651410D01*
X194977090Y-93651407D01*
X194898592Y-93572909D01*
X194898588Y-93572906D01*
X194898587Y-93572905D01*
X194894743Y-93570946D01*
X194799658Y-93522498D01*
X194687061Y-93504665D01*
X194623926Y-93474736D01*
X194618778Y-93469873D01*
X194438610Y-93289705D01*
X194421170Y-93272264D01*
X194357736Y-93208830D01*
X194357735Y-93208829D01*
X194350000Y-93205624D01*
X194350000Y-88940000D01*
X194460000Y-88830000D01*
X195059500Y-88830000D01*
X195059500Y-88839992D01*
G37*
%TD.AperFunction*%
%TD*%
%TA.AperFunction,Conductor*%
%TO.N,LPUART1_TX_RADIO*%
G36*
X187395737Y-90430053D02*
G01*
X187489946Y-90524262D01*
X187493373Y-90532535D01*
X187492166Y-90537710D01*
X187349601Y-90826754D01*
X187342868Y-90832658D01*
X187334680Y-90832409D01*
X187163837Y-90762564D01*
X187157476Y-90756261D01*
X187157435Y-90756162D01*
X187087590Y-90585319D01*
X187087631Y-90576364D01*
X187093242Y-90570400D01*
X187382291Y-90427832D01*
X187391224Y-90427247D01*
X187395737Y-90430053D01*
G37*
%TD.AperFunction*%
%TD*%
M02*
