%TF.GenerationSoftware,KiCad,Pcbnew,8.0.5*%
%TF.CreationDate,2025-02-13T02:53:00+01:00*%
%TF.ProjectId,cansatperso,63616e73-6174-4706-9572-736f2e6b6963,rev?*%
%TF.SameCoordinates,Original*%
%TF.FileFunction,Copper,L4,Inr*%
%TF.FilePolarity,Positive*%
%FSLAX46Y46*%
G04 Gerber Fmt 4.6, Leading zero omitted, Abs format (unit mm)*
G04 Created by KiCad (PCBNEW 8.0.5) date 2025-02-13 02:53:00*
%MOMM*%
%LPD*%
G01*
G04 APERTURE LIST*
G04 Aperture macros list*
%AMRoundRect*
0 Rectangle with rounded corners*
0 $1 Rounding radius*
0 $2 $3 $4 $5 $6 $7 $8 $9 X,Y pos of 4 corners*
0 Add a 4 corners polygon primitive as box body*
4,1,4,$2,$3,$4,$5,$6,$7,$8,$9,$2,$3,0*
0 Add four circle primitives for the rounded corners*
1,1,$1+$1,$2,$3*
1,1,$1+$1,$4,$5*
1,1,$1+$1,$6,$7*
1,1,$1+$1,$8,$9*
0 Add four rect primitives between the rounded corners*
20,1,$1+$1,$2,$3,$4,$5,0*
20,1,$1+$1,$4,$5,$6,$7,0*
20,1,$1+$1,$6,$7,$8,$9,0*
20,1,$1+$1,$8,$9,$2,$3,0*%
G04 Aperture macros list end*
%TA.AperFunction,ComponentPad*%
%ADD10C,1.000000*%
%TD*%
%TA.AperFunction,ComponentPad*%
%ADD11C,2.200000*%
%TD*%
%TA.AperFunction,ComponentPad*%
%ADD12RoundRect,0.250000X-0.725000X0.600000X-0.725000X-0.600000X0.725000X-0.600000X0.725000X0.600000X0*%
%TD*%
%TA.AperFunction,ComponentPad*%
%ADD13O,1.950000X1.700000*%
%TD*%
%TA.AperFunction,ComponentPad*%
%ADD14R,1.700000X1.700000*%
%TD*%
%TA.AperFunction,ComponentPad*%
%ADD15O,1.700000X1.700000*%
%TD*%
%TA.AperFunction,ComponentPad*%
%ADD16O,1.800000X1.000000*%
%TD*%
%TA.AperFunction,ComponentPad*%
%ADD17O,2.100000X1.000000*%
%TD*%
%TA.AperFunction,ViaPad*%
%ADD18C,0.400000*%
%TD*%
%TA.AperFunction,Conductor*%
%ADD19C,0.250000*%
%TD*%
%TA.AperFunction,Conductor*%
%ADD20C,0.150000*%
%TD*%
G04 APERTURE END LIST*
D10*
%TO.N,GND*%
%TO.C,TP1*%
X165290000Y-74530000D03*
%TD*%
D11*
%TO.N,GND*%
%TO.C,H1*%
X176440000Y-95500000D03*
%TD*%
D12*
%TO.N,GND*%
%TO.C,J1*%
X172420000Y-80450000D03*
D13*
%TO.N,unconnected-(J1-Pin_2-Pad2)*%
X172420000Y-82950000D03*
%TO.N,VIN*%
X172420000Y-85450000D03*
%TD*%
D10*
%TO.N,BAT+*%
%TO.C,TP2*%
X165250000Y-76550000D03*
%TD*%
D11*
%TO.N,GND*%
%TO.C,H2*%
X191170000Y-95590000D03*
%TD*%
%TO.N,GND*%
%TO.C,H4*%
X191140000Y-71470000D03*
%TD*%
%TO.N,GND*%
%TO.C,H3*%
X176450000Y-71450000D03*
%TD*%
D14*
%TO.N,GND*%
%TO.C,J3*%
X143770000Y-90515000D03*
D15*
%TO.N,+3.3V*%
X146310000Y-90515000D03*
%TO.N,OLED_SCL*%
X148850000Y-90515000D03*
%TO.N,OLED_SDA*%
X151390000Y-90515000D03*
%TD*%
D16*
%TO.N,GND*%
%TO.C,J4*%
X141095000Y-87130000D03*
D17*
X145275000Y-87130000D03*
D16*
X141095000Y-78490000D03*
D17*
X145275000Y-78490000D03*
%TD*%
D18*
%TO.N,GND*%
X190070000Y-77100000D03*
X175430000Y-80550000D03*
X185140000Y-77380000D03*
X188140000Y-93790000D03*
X142010000Y-81170000D03*
X160740000Y-86350000D03*
X162230000Y-80510000D03*
X184730000Y-85210000D03*
X153660000Y-84100000D03*
X172020000Y-93430000D03*
X171990000Y-92250000D03*
X172040000Y-89180000D03*
X141180000Y-80280000D03*
X144630000Y-84990000D03*
X170070000Y-80860000D03*
X194780000Y-75070000D03*
X162990000Y-88570000D03*
X192860000Y-73320000D03*
X161120000Y-87030000D03*
X156190000Y-82980000D03*
X156200000Y-84070000D03*
X192250000Y-88020000D03*
X154975000Y-81590000D03*
X141930000Y-86100000D03*
X145040000Y-76960000D03*
X196400000Y-93870000D03*
X152820000Y-91930000D03*
X182160000Y-85940000D03*
X178270000Y-92510000D03*
X164630000Y-90100000D03*
X195420000Y-89400000D03*
X162040000Y-87440000D03*
X154630000Y-85660000D03*
X176720000Y-74800000D03*
X163220000Y-81520000D03*
X188060000Y-80840000D03*
X164560000Y-73880000D03*
X158450000Y-79700000D03*
X147830166Y-85660166D03*
X195910000Y-81690000D03*
X173830000Y-76800000D03*
X186860000Y-77390000D03*
X145550000Y-76960000D03*
X147740000Y-82470000D03*
X169990000Y-82430000D03*
X150010000Y-80820000D03*
X146570000Y-76960000D03*
X161590000Y-91240000D03*
X192520000Y-77840000D03*
X148100000Y-76960000D03*
X148380000Y-88610000D03*
X195310000Y-81420000D03*
X163080000Y-91890000D03*
X147590000Y-76960000D03*
X143000000Y-76960000D03*
X160280000Y-80080000D03*
X181190000Y-88140000D03*
X148610000Y-76960000D03*
X157910000Y-89880000D03*
X161060000Y-75970000D03*
X141350000Y-89120000D03*
X153270000Y-74310000D03*
X185500000Y-89530000D03*
X157930000Y-89220000D03*
X195290000Y-81980000D03*
X195500000Y-91260000D03*
X170000000Y-85670000D03*
X185310000Y-75010000D03*
X178270000Y-93060000D03*
X161570000Y-91930000D03*
X163310000Y-79290000D03*
X165990000Y-73820000D03*
X191840000Y-80450000D03*
X152650000Y-89990000D03*
X141980000Y-76960000D03*
X156200000Y-83510000D03*
X162320000Y-91920000D03*
X186600000Y-74990000D03*
X186610000Y-77940000D03*
X193090000Y-80070000D03*
X179510000Y-87540000D03*
X186810000Y-92670000D03*
X182750000Y-85180000D03*
X196230000Y-90710000D03*
X142420000Y-90710000D03*
X163260000Y-82530000D03*
X196240000Y-91320000D03*
X146060000Y-76960000D03*
X151160000Y-76960000D03*
X174150000Y-89130000D03*
X144660000Y-80610000D03*
X196250000Y-89330000D03*
X186380000Y-89540000D03*
X156920000Y-80860000D03*
X155730000Y-75730000D03*
X183870000Y-86560000D03*
X185770000Y-86240000D03*
X177950000Y-80400000D03*
X144020000Y-76960000D03*
X192510000Y-77075000D03*
X194690000Y-73340000D03*
X174290000Y-93820000D03*
X182730000Y-75760000D03*
X148950000Y-81920000D03*
X149120000Y-76960000D03*
X179230000Y-84430000D03*
X151670000Y-76960000D03*
X159040000Y-81100000D03*
X153270000Y-75270000D03*
X158490000Y-90670000D03*
X153270000Y-76370000D03*
X191820000Y-87500000D03*
X149630000Y-76960000D03*
X162810000Y-86290000D03*
X158980000Y-84200000D03*
X190030000Y-78010000D03*
X142530000Y-79050000D03*
X151920000Y-91940000D03*
X176870000Y-73300000D03*
X143510000Y-76960000D03*
X162590000Y-84570000D03*
X189230000Y-87920000D03*
X150160000Y-88200000D03*
X146690000Y-86900000D03*
X174340000Y-78550000D03*
X174710000Y-93030000D03*
X183840000Y-85180000D03*
X140920000Y-85150000D03*
X147660000Y-91890000D03*
X153270000Y-75860000D03*
X187970000Y-90257500D03*
X140590000Y-79650000D03*
X162120000Y-82560000D03*
X158950000Y-79220000D03*
X141910000Y-85200000D03*
X143700000Y-91990000D03*
X187680000Y-73220000D03*
X184670000Y-89530000D03*
X190520000Y-80280000D03*
X158130000Y-77820000D03*
X169990000Y-87150000D03*
X162040000Y-85260000D03*
X184020004Y-93800000D03*
X153270000Y-73840000D03*
X148900000Y-80740000D03*
X159880000Y-82560000D03*
X196260000Y-90010000D03*
X161190000Y-81660000D03*
X154910000Y-86580000D03*
X182700000Y-93770000D03*
X143760000Y-88920000D03*
X147610000Y-83730000D03*
X163940000Y-74790000D03*
X164040000Y-75630000D03*
X154980000Y-89970000D03*
X189380000Y-73200000D03*
X174340000Y-80170000D03*
X185010000Y-93780000D03*
X182750000Y-86610000D03*
X166020000Y-75460000D03*
X181370000Y-87230000D03*
X140700000Y-81170000D03*
X189740000Y-75000000D03*
X177790000Y-84460000D03*
X142410000Y-88090000D03*
X140960000Y-76960000D03*
X181450000Y-79430000D03*
X158970000Y-77290000D03*
X162140000Y-81560000D03*
X151720000Y-82800000D03*
X147080000Y-76960000D03*
X143210000Y-81200000D03*
X143550000Y-87740000D03*
X145080000Y-91980000D03*
X141470000Y-76960000D03*
X182260000Y-78635000D03*
X156530000Y-75980000D03*
X145280000Y-89320000D03*
X142490000Y-76960000D03*
X185670000Y-85170000D03*
X185740000Y-77990000D03*
X181825000Y-86735000D03*
X143250000Y-77940000D03*
X159460000Y-86320000D03*
X169990000Y-84030000D03*
X153270000Y-74800000D03*
X181000000Y-93770000D03*
X142410000Y-80220000D03*
X150650000Y-76960000D03*
X159000000Y-77810000D03*
X147610000Y-89440000D03*
X175340000Y-93810000D03*
X140450000Y-76960000D03*
X161240000Y-80060000D03*
X161180000Y-84630000D03*
X162010000Y-78220000D03*
X150140000Y-76960000D03*
X151100000Y-81520000D03*
X159500000Y-83150000D03*
X144030000Y-81490000D03*
X162260000Y-79290000D03*
X144530000Y-76960000D03*
X153070000Y-76920000D03*
X184300000Y-73230000D03*
X151150000Y-82410000D03*
X186010000Y-73210000D03*
X187650000Y-78890000D03*
X172180000Y-73260000D03*
X140900000Y-86120000D03*
X178890000Y-93060000D03*
X192600000Y-87500000D03*
X163210000Y-80470000D03*
%TO.N,+3.3V*%
X174080000Y-90160000D03*
X192500000Y-83785000D03*
X174630000Y-79100000D03*
X165280000Y-87660000D03*
X155250000Y-77590000D03*
X190080000Y-88950000D03*
X155325000Y-77080000D03*
X155760000Y-77540000D03*
X180500000Y-79960000D03*
X157150000Y-87340000D03*
X152720000Y-88960000D03*
X157890000Y-83220000D03*
X152982503Y-80229917D03*
X193340000Y-86580000D03*
X148400000Y-79110000D03*
X189950000Y-84530000D03*
X187800000Y-75020000D03*
X149520000Y-85790000D03*
X156830000Y-87830000D03*
X190540000Y-88950000D03*
X148410000Y-78490000D03*
X190070000Y-85070000D03*
X154745000Y-77655000D03*
X192930000Y-83785000D03*
X165800000Y-87660000D03*
X195710000Y-80320000D03*
X186180000Y-91660000D03*
X159125835Y-89272933D03*
X188320000Y-75010000D03*
X185110000Y-91730000D03*
X150581344Y-79625174D03*
X176410000Y-80320000D03*
X181118130Y-83193167D03*
X158380000Y-83210000D03*
X149520000Y-86340000D03*
X191836225Y-76543443D03*
X181420000Y-81330000D03*
X183050000Y-75090000D03*
X193360000Y-87119998D03*
X166073755Y-91215931D03*
X192914500Y-82522000D03*
X174670000Y-77590000D03*
X165660000Y-86700000D03*
X185020000Y-92422500D03*
X180320000Y-83320000D03*
%TO.N,NRST*%
X173200000Y-93250000D03*
X179380000Y-90850660D03*
%TO.N,SDDETECT*%
X192897500Y-81470000D03*
X184190000Y-91260000D03*
%TO.N,VIN*%
X182930000Y-81890000D03*
X175581212Y-83307499D03*
%TO.N,+5V*%
X189450000Y-91620000D03*
X193990000Y-89040000D03*
X193800000Y-93860000D03*
X193270000Y-93860000D03*
X181560000Y-74390000D03*
X193290000Y-89920000D03*
X180440000Y-73890000D03*
X179340000Y-73840000D03*
X193410000Y-89040000D03*
X181541494Y-73890340D03*
X175050000Y-73880000D03*
X175020000Y-74320000D03*
X195710000Y-78920000D03*
%TO.N,ADC1_IN3_VBAT*%
X175780000Y-82050000D03*
X179200000Y-88440000D03*
%TO.N,I2C3_SDA_ACCEL*%
X185110000Y-82870000D03*
X195710000Y-83120000D03*
X190085990Y-83570661D03*
%TO.N,I2C3_SCL_ACCEL*%
X188130000Y-86280000D03*
X191937000Y-83410000D03*
X195710000Y-84520000D03*
%TO.N,3.3VEN*%
X189655249Y-93721215D03*
X189160000Y-93790000D03*
X191900000Y-78910000D03*
X189610000Y-93200000D03*
%TO.N,SPI1_CS_SD*%
X182700000Y-91230000D03*
X190010000Y-76155000D03*
%TO.N,SPI1_MISO_SD*%
X180690000Y-91260000D03*
X185009998Y-76500000D03*
%TO.N,SPI1_SCK_SD*%
X180225170Y-90704168D03*
X186710000Y-76155000D03*
%TO.N,SPI1_MOSI_SD*%
X188910000Y-76155000D03*
X181690000Y-91280000D03*
%TO.N,USART1_RX_GPS*%
X189520000Y-77030000D03*
X183132230Y-82772331D03*
%TO.N,USART1_TX_GPS*%
X183185000Y-83269541D03*
X189580000Y-77630000D03*
%TO.N,LPUART1_RX_RADIO*%
X185620000Y-91330000D03*
X191670000Y-77370000D03*
%TO.N,LPUART1_TX_RADIO*%
X187160000Y-90760000D03*
X191709998Y-77868400D03*
%TO.N,SWO*%
X153804834Y-89104834D03*
X183979670Y-81772588D03*
X173200000Y-89320000D03*
X158560000Y-91980000D03*
%TO.N,SWDIO*%
X153680000Y-90410000D03*
X188230000Y-83220000D03*
X153080000Y-89460000D03*
X173216256Y-91960000D03*
%TO.N,I2C1_SCL*%
X175730000Y-79127500D03*
X183220000Y-80840000D03*
%TO.N,SWCLK{slash}I2C1_SDA*%
X173200000Y-90610000D03*
X187585000Y-83220000D03*
%TO.N,TIM3_CHI_PWM4*%
X192290000Y-90420000D03*
X188170000Y-87710000D03*
%TO.N,PWEN*%
X188160000Y-88240000D03*
X194690000Y-93860000D03*
%TO.N,I2C1_SDA*%
X182510000Y-81220000D03*
X177897500Y-79650000D03*
%TO.N,BAROEXTI*%
X149475917Y-83724486D03*
%TO.N,GPIO_EXTI1*%
X176480000Y-92252500D03*
X183690431Y-91239185D03*
%TO.N,EXTI3{slash}PWMONTIM4*%
X175470000Y-91570000D03*
X179596371Y-90083297D03*
%TO.N,EXTI0*%
X176160000Y-90330000D03*
X179542862Y-88065000D03*
%TO.N,unconnected-(U1-PB8-Pad46)*%
X180000000Y-93270000D03*
X182528901Y-82315000D03*
%TO.N,Net-(BT1-+)*%
X165390000Y-79750000D03*
%TO.N,GNDGPS*%
X164240000Y-83540000D03*
X165350000Y-81240000D03*
X165880000Y-81240000D03*
X163770000Y-83540000D03*
%TO.N,vusb*%
X160080000Y-74330000D03*
X147425000Y-78085000D03*
X147040000Y-78470000D03*
X140690000Y-83150000D03*
X160060000Y-73910000D03*
%TO.N,B2*%
X157820000Y-86620000D03*
%TO.N,B1*%
X157830000Y-86050000D03*
%TO.N,Net-(U1-NRST)*%
X157800001Y-83812785D03*
X159590000Y-81900000D03*
%TO.N,SPI_MOSi*%
X155210000Y-88300000D03*
X165940000Y-90110000D03*
%TO.N,SPI_SCK*%
X157728198Y-82118683D03*
X165100000Y-89150000D03*
%TO.N,SPI_MISO*%
X155770000Y-79860000D03*
X159580000Y-87670000D03*
%TO.N,SPI_CS*%
X155705000Y-88615000D03*
X160074977Y-87599289D03*
%TO.N,COMPASSDA*%
X157760000Y-84327327D03*
X149440000Y-78670000D03*
%TO.N,COMPASSCL*%
X157713996Y-84873334D03*
X150399749Y-78715042D03*
%TO.N,USART_RX*%
X149440000Y-88310000D03*
X151380000Y-79480760D03*
%TO.N,USART_TX*%
X153436013Y-79731151D03*
%TO.N,OLED_SCL*%
X155254834Y-79844834D03*
%TO.N,Net-(J4-CC2)*%
X143580000Y-80380000D03*
%TO.N,Net-(J4-D--PadA7)*%
X145070000Y-83650000D03*
%TO.N,Net-(J4-D+-PadA6)*%
X145100000Y-82080000D03*
%TO.N,Net-(J4-CC1)*%
X143590000Y-85240000D03*
%TO.N,Net-(PA1010D1-RX)*%
X156410000Y-78250000D03*
%TO.N,Net-(PA1010D1-TX)*%
X156614694Y-79898205D03*
%TO.N,ALIMGPS*%
X157774584Y-82616529D03*
X164350000Y-77450000D03*
%TO.N,Net-(U1-PA4)*%
X156970000Y-80250000D03*
X163120000Y-74797502D03*
%TO.N,BAT+*%
X162200000Y-75870000D03*
X162210000Y-76420000D03*
%TO.N,SWCLK*%
X155370000Y-91140000D03*
X153257998Y-88992754D03*
%TO.N,D+*%
X141745000Y-82170000D03*
X151393046Y-88353046D03*
%TO.N,D-*%
X150780000Y-88350000D03*
X141745000Y-84070000D03*
%TO.N,Net-(U1-PB0)*%
X141320000Y-88300000D03*
X148941416Y-83031084D03*
%TO.N,Net-(U1-PB1)*%
X147270000Y-87530000D03*
X149475336Y-83224484D03*
%TO.N,Net-(IC3-EN)*%
X158000000Y-75910000D03*
X158457500Y-75912500D03*
X153769587Y-74289609D03*
X153790000Y-73790000D03*
X153770000Y-74770000D03*
X159012500Y-75912500D03*
%TD*%
D19*
%TO.N,+3.3V*%
X175830000Y-88410000D02*
X176240000Y-88410000D01*
X174080000Y-90160000D02*
X175830000Y-88410000D01*
%TO.N,VIN*%
X176028027Y-82860684D02*
X180629316Y-82860684D01*
X180629316Y-82860684D02*
X181600000Y-81890000D01*
X175581212Y-83307499D02*
X176028027Y-82860684D01*
X181600000Y-81890000D02*
X182930000Y-81890000D01*
%TO.N,3.3VEN*%
X193515000Y-79635000D02*
X192790000Y-78910000D01*
X190070000Y-89540000D02*
X192450000Y-89540000D01*
X189610000Y-93200000D02*
X189655249Y-93245249D01*
X189655249Y-93721215D02*
X189228785Y-93721215D01*
X192860000Y-88830000D02*
X193610000Y-88080000D01*
X188930000Y-92520000D02*
X188930000Y-90680000D01*
X193785000Y-85485000D02*
X193515000Y-85215000D01*
X189610000Y-93200000D02*
X188930000Y-92520000D01*
X193515000Y-85215000D02*
X193515000Y-79635000D01*
X193785000Y-87995000D02*
X193785000Y-85485000D01*
X192450000Y-89540000D02*
X192460000Y-89550000D01*
X188930000Y-90680000D02*
X190070000Y-89540000D01*
X189228785Y-93721215D02*
X189160000Y-93790000D01*
X192460000Y-89550000D02*
X192860000Y-89150000D01*
X193610000Y-88080000D02*
X193700000Y-88080000D01*
X189655249Y-93245249D02*
X189655249Y-93721215D01*
X193700000Y-88080000D02*
X193785000Y-87995000D01*
X192860000Y-89150000D02*
X192860000Y-88830000D01*
X192790000Y-78910000D02*
X191900000Y-78910000D01*
D20*
%TO.N,Net-(U1-NRST)*%
X159590000Y-81900000D02*
X158840000Y-82650000D01*
X158840000Y-83530000D02*
X158557215Y-83812785D01*
X158840000Y-82650000D02*
X158840000Y-83530000D01*
X158557215Y-83812785D02*
X157800001Y-83812785D01*
%TO.N,SPI_CS*%
X156085000Y-88615000D02*
X155705000Y-88615000D01*
X160074977Y-87785023D02*
X159500000Y-88360000D01*
X159500000Y-88360000D02*
X156340000Y-88360000D01*
X160074977Y-87599289D02*
X160074977Y-87785023D01*
X156340000Y-88360000D02*
X156085000Y-88615000D01*
%TO.N,COMPASSDA*%
X151173596Y-78340042D02*
X149839958Y-78340042D01*
X149510000Y-78670000D02*
X149440000Y-78670000D01*
X157316666Y-84623334D02*
X156076888Y-84623334D01*
X157760000Y-84327327D02*
X157612673Y-84327327D01*
X157612673Y-84327327D02*
X157316666Y-84623334D01*
X157760000Y-84327327D02*
X157847327Y-84327327D01*
X156076888Y-84623334D02*
X152130000Y-80676446D01*
X149839958Y-78340042D02*
X149510000Y-78670000D01*
X152130000Y-79296446D02*
X151173596Y-78340042D01*
X152130000Y-80676446D02*
X152130000Y-79296446D01*
%TO.N,COMPASSCL*%
X157713996Y-84873334D02*
X155973334Y-84873334D01*
X151880000Y-79400000D02*
X151195042Y-78715042D01*
X151880000Y-80780000D02*
X151880000Y-79400000D01*
X151195042Y-78715042D02*
X150399749Y-78715042D01*
X155973334Y-84873334D02*
X151880000Y-80780000D01*
%TO.N,USART_RX*%
X150920000Y-79789669D02*
X150920000Y-80950000D01*
X150920000Y-80950000D02*
X150005000Y-81865000D01*
X151380000Y-79480760D02*
X151228909Y-79480760D01*
X150005000Y-87745000D02*
X149440000Y-88310000D01*
X150005000Y-81865000D02*
X150005000Y-87745000D01*
X151228909Y-79480760D02*
X150920000Y-79789669D01*
%TO.N,Net-(U1-PB0)*%
X148938916Y-83031084D02*
X147020000Y-84950000D01*
X148941416Y-83031084D02*
X148938916Y-83031084D01*
X147020000Y-84950000D02*
X147020000Y-85770000D01*
X143370000Y-86250000D02*
X141320000Y-88300000D01*
X147020000Y-85770000D02*
X146540000Y-86250000D01*
X146540000Y-86250000D02*
X143370000Y-86250000D01*
%TO.N,Net-(U1-PB1)*%
X149475336Y-83224484D02*
X149350334Y-83349486D01*
X149320586Y-83349486D02*
X147270000Y-85400072D01*
X149350334Y-83349486D02*
X149320586Y-83349486D01*
X147270000Y-85400072D02*
X147270000Y-87530000D01*
%TD*%
%TA.AperFunction,Conductor*%
%TO.N,GND*%
G36*
X153404052Y-73530185D02*
G01*
X153449807Y-73582989D01*
X153459751Y-73652147D01*
X153454943Y-73672823D01*
X153452498Y-73680346D01*
X153435131Y-73789997D01*
X153435131Y-73790002D01*
X153452498Y-73899658D01*
X153485016Y-73963478D01*
X153497912Y-74032147D01*
X153485017Y-74076065D01*
X153432085Y-74179951D01*
X153414718Y-74289606D01*
X153414718Y-74289611D01*
X153432085Y-74399267D01*
X153470120Y-74473915D01*
X153483016Y-74542584D01*
X153470121Y-74586502D01*
X153432498Y-74660342D01*
X153415131Y-74769997D01*
X153415131Y-74770002D01*
X153432498Y-74879658D01*
X153482904Y-74978585D01*
X153482909Y-74978592D01*
X153561407Y-75057090D01*
X153561410Y-75057092D01*
X153561413Y-75057095D01*
X153660339Y-75107500D01*
X153660341Y-75107501D01*
X153769998Y-75124869D01*
X153770000Y-75124869D01*
X153770002Y-75124869D01*
X153879658Y-75107501D01*
X153879659Y-75107500D01*
X153879661Y-75107500D01*
X153978587Y-75057095D01*
X154052239Y-74983443D01*
X157494500Y-74983443D01*
X157494500Y-75141556D01*
X157535423Y-75294283D01*
X157535426Y-75294290D01*
X157614475Y-75431209D01*
X157614481Y-75431217D01*
X157711109Y-75527845D01*
X157744594Y-75589168D01*
X157739610Y-75658860D01*
X157717756Y-75692868D01*
X157718644Y-75693514D01*
X157712904Y-75701414D01*
X157662498Y-75800341D01*
X157645131Y-75909997D01*
X157645131Y-75910002D01*
X157662498Y-76019658D01*
X157712904Y-76118585D01*
X157712909Y-76118592D01*
X157791407Y-76197090D01*
X157791410Y-76197092D01*
X157791413Y-76197095D01*
X157886365Y-76245475D01*
X157890341Y-76247501D01*
X157999998Y-76264869D01*
X158000000Y-76264869D01*
X158000002Y-76264869D01*
X158109656Y-76247501D01*
X158109656Y-76247500D01*
X158109661Y-76247500D01*
X158170005Y-76216753D01*
X158238670Y-76203858D01*
X158282589Y-76216753D01*
X158342934Y-76247501D01*
X158347841Y-76250001D01*
X158457498Y-76267369D01*
X158457500Y-76267369D01*
X158457502Y-76267369D01*
X158567158Y-76250001D01*
X158567159Y-76250000D01*
X158567161Y-76250000D01*
X158666087Y-76199595D01*
X158666087Y-76199594D01*
X158674783Y-76195164D01*
X158675989Y-76197531D01*
X158727905Y-76179001D01*
X158795961Y-76194818D01*
X158801408Y-76198318D01*
X158803911Y-76199593D01*
X158803913Y-76199595D01*
X158902839Y-76250000D01*
X158902841Y-76250001D01*
X159012498Y-76267369D01*
X159012500Y-76267369D01*
X159012502Y-76267369D01*
X159122158Y-76250001D01*
X159122159Y-76250000D01*
X159122161Y-76250000D01*
X159221087Y-76199595D01*
X159299595Y-76121087D01*
X159350000Y-76022161D01*
X159350000Y-76022159D01*
X159350001Y-76022158D01*
X159367369Y-75912502D01*
X159367369Y-75912497D01*
X159360638Y-75869997D01*
X161845131Y-75869997D01*
X161845131Y-75870002D01*
X161862498Y-75979658D01*
X161912903Y-76078584D01*
X161913899Y-76079954D01*
X161914593Y-76081900D01*
X161917336Y-76087283D01*
X161916640Y-76087637D01*
X161937379Y-76145761D01*
X161924066Y-76209134D01*
X161872498Y-76310341D01*
X161855131Y-76419997D01*
X161855131Y-76420002D01*
X161872498Y-76529658D01*
X161922904Y-76628585D01*
X161922909Y-76628592D01*
X162001407Y-76707090D01*
X162001410Y-76707092D01*
X162001413Y-76707095D01*
X162070896Y-76742498D01*
X162100341Y-76757501D01*
X162209998Y-76774869D01*
X162210000Y-76774869D01*
X162210002Y-76774869D01*
X162319658Y-76757501D01*
X162319659Y-76757500D01*
X162319661Y-76757500D01*
X162418587Y-76707095D01*
X162497095Y-76628587D01*
X162537137Y-76549999D01*
X164594722Y-76549999D01*
X164594722Y-76550000D01*
X164613762Y-76706818D01*
X164632984Y-76757501D01*
X164669780Y-76854523D01*
X164759517Y-76984530D01*
X164877760Y-77089283D01*
X164877762Y-77089284D01*
X165017634Y-77162696D01*
X165171014Y-77200500D01*
X165171015Y-77200500D01*
X165328985Y-77200500D01*
X165482365Y-77162696D01*
X165578004Y-77112500D01*
X165622240Y-77089283D01*
X165740483Y-76984530D01*
X165830220Y-76854523D01*
X165886237Y-76706818D01*
X165905278Y-76550000D01*
X165902809Y-76529661D01*
X165886237Y-76393181D01*
X165864992Y-76337164D01*
X165830220Y-76245477D01*
X165740483Y-76115470D01*
X165622240Y-76010717D01*
X165622238Y-76010716D01*
X165622237Y-76010715D01*
X165482365Y-75937303D01*
X165328986Y-75899500D01*
X165328985Y-75899500D01*
X165171015Y-75899500D01*
X165171014Y-75899500D01*
X165017634Y-75937303D01*
X164877762Y-76010715D01*
X164759516Y-76115471D01*
X164669781Y-76245475D01*
X164669780Y-76245476D01*
X164613762Y-76393181D01*
X164594722Y-76549999D01*
X162537137Y-76549999D01*
X162547500Y-76529661D01*
X162547500Y-76529659D01*
X162547501Y-76529658D01*
X162564869Y-76420002D01*
X162564869Y-76419997D01*
X162547501Y-76310341D01*
X162516756Y-76250000D01*
X162497095Y-76211413D01*
X162497089Y-76211407D01*
X162496101Y-76210047D01*
X162495405Y-76208096D01*
X162492664Y-76202717D01*
X162493359Y-76202362D01*
X162472620Y-76144241D01*
X162485933Y-76080864D01*
X162487091Y-76078590D01*
X162487095Y-76078587D01*
X162537500Y-75979661D01*
X162548533Y-75910002D01*
X162554869Y-75870002D01*
X162554869Y-75869997D01*
X162537501Y-75760341D01*
X162508750Y-75703914D01*
X162487095Y-75661413D01*
X162487092Y-75661410D01*
X162487090Y-75661407D01*
X162408592Y-75582909D01*
X162408588Y-75582906D01*
X162408587Y-75582905D01*
X162404743Y-75580946D01*
X162309658Y-75532498D01*
X162200002Y-75515131D01*
X162199998Y-75515131D01*
X162090341Y-75532498D01*
X161991414Y-75582904D01*
X161991407Y-75582909D01*
X161912909Y-75661407D01*
X161912904Y-75661414D01*
X161862498Y-75760341D01*
X161845131Y-75869997D01*
X159360638Y-75869997D01*
X159350001Y-75802841D01*
X159328345Y-75760339D01*
X159299595Y-75703913D01*
X159299592Y-75703910D01*
X159299590Y-75703907D01*
X159221092Y-75625409D01*
X159221088Y-75625406D01*
X159221087Y-75625405D01*
X159214548Y-75622073D01*
X159122158Y-75574998D01*
X159012502Y-75557631D01*
X159012498Y-75557631D01*
X158902841Y-75574998D01*
X158813013Y-75620768D01*
X158810453Y-75622073D01*
X158795217Y-75629836D01*
X158794011Y-75627470D01*
X158742074Y-75645999D01*
X158674021Y-75630171D01*
X158668586Y-75626678D01*
X158625901Y-75604929D01*
X158575106Y-75556955D01*
X158558311Y-75489134D01*
X158574810Y-75432445D01*
X158575524Y-75431209D01*
X158654577Y-75294284D01*
X158695500Y-75141557D01*
X158695500Y-74983443D01*
X160494500Y-74983443D01*
X160494500Y-75141556D01*
X160535423Y-75294283D01*
X160535426Y-75294290D01*
X160614475Y-75431209D01*
X160614479Y-75431214D01*
X160614480Y-75431216D01*
X160726284Y-75543020D01*
X160726286Y-75543021D01*
X160726290Y-75543024D01*
X160863209Y-75622073D01*
X160863216Y-75622077D01*
X161015943Y-75663000D01*
X161015945Y-75663000D01*
X161174055Y-75663000D01*
X161174057Y-75663000D01*
X161326784Y-75622077D01*
X161463716Y-75543020D01*
X161575520Y-75431216D01*
X161654577Y-75294284D01*
X161695500Y-75141557D01*
X161695500Y-74983443D01*
X161654577Y-74830716D01*
X161635399Y-74797499D01*
X162765131Y-74797499D01*
X162765131Y-74797504D01*
X162782498Y-74907160D01*
X162832904Y-75006087D01*
X162832909Y-75006094D01*
X162911407Y-75084592D01*
X162911410Y-75084594D01*
X162911413Y-75084597D01*
X162956365Y-75107501D01*
X163010341Y-75135003D01*
X163119998Y-75152371D01*
X163120000Y-75152371D01*
X163120002Y-75152371D01*
X163229658Y-75135003D01*
X163229659Y-75135002D01*
X163229661Y-75135002D01*
X163328587Y-75084597D01*
X163407095Y-75006089D01*
X163457500Y-74907163D01*
X163457500Y-74907161D01*
X163457501Y-74907160D01*
X163474869Y-74797504D01*
X163474869Y-74797499D01*
X163457501Y-74687843D01*
X163447136Y-74667500D01*
X163407095Y-74588915D01*
X163407092Y-74588912D01*
X163407090Y-74588909D01*
X163328592Y-74510411D01*
X163328588Y-74510408D01*
X163328587Y-74510407D01*
X163313899Y-74502923D01*
X163229658Y-74460000D01*
X163120002Y-74442633D01*
X163119998Y-74442633D01*
X163010341Y-74460000D01*
X162911414Y-74510406D01*
X162911407Y-74510411D01*
X162832909Y-74588909D01*
X162832904Y-74588916D01*
X162782498Y-74687843D01*
X162765131Y-74797499D01*
X161635399Y-74797499D01*
X161619521Y-74769997D01*
X161575524Y-74693790D01*
X161575518Y-74693782D01*
X161463717Y-74581981D01*
X161463709Y-74581975D01*
X161326790Y-74502926D01*
X161326786Y-74502924D01*
X161326784Y-74502923D01*
X161174057Y-74462000D01*
X161015943Y-74462000D01*
X160863216Y-74502923D01*
X160863209Y-74502926D01*
X160726290Y-74581975D01*
X160726282Y-74581981D01*
X160614481Y-74693782D01*
X160614475Y-74693790D01*
X160535426Y-74830709D01*
X160535423Y-74830716D01*
X160494500Y-74983443D01*
X158695500Y-74983443D01*
X158654577Y-74830716D01*
X158619521Y-74769997D01*
X158575524Y-74693790D01*
X158575518Y-74693782D01*
X158463717Y-74581981D01*
X158463709Y-74581975D01*
X158326790Y-74502926D01*
X158326786Y-74502924D01*
X158326784Y-74502923D01*
X158174057Y-74462000D01*
X158015943Y-74462000D01*
X157863216Y-74502923D01*
X157863209Y-74502926D01*
X157726290Y-74581975D01*
X157726282Y-74581981D01*
X157614481Y-74693782D01*
X157614475Y-74693790D01*
X157535426Y-74830709D01*
X157535423Y-74830716D01*
X157494500Y-74983443D01*
X154052239Y-74983443D01*
X154057095Y-74978587D01*
X154107500Y-74879661D01*
X154107500Y-74879659D01*
X154107501Y-74879658D01*
X154124869Y-74770002D01*
X154124869Y-74769997D01*
X154107501Y-74660341D01*
X154069466Y-74585693D01*
X154056570Y-74517024D01*
X154069464Y-74473108D01*
X154107087Y-74399270D01*
X154107088Y-74399265D01*
X154124456Y-74289611D01*
X154124456Y-74289606D01*
X154107088Y-74179952D01*
X154107087Y-74179950D01*
X154107087Y-74179948D01*
X154074569Y-74116128D01*
X154061674Y-74047461D01*
X154074570Y-74003541D01*
X154077093Y-73998588D01*
X154077095Y-73998587D01*
X154127500Y-73899661D01*
X154143231Y-73800341D01*
X154144869Y-73790002D01*
X154144869Y-73789997D01*
X154130734Y-73700762D01*
X154127500Y-73680339D01*
X154127496Y-73680332D01*
X154125057Y-73672823D01*
X154123060Y-73602981D01*
X154159138Y-73543147D01*
X154221838Y-73512317D01*
X154242987Y-73510500D01*
X159668248Y-73510500D01*
X159735287Y-73530185D01*
X159781042Y-73582989D01*
X159790986Y-73652147D01*
X159775003Y-73691528D01*
X159777336Y-73692717D01*
X159722498Y-73800341D01*
X159705131Y-73909997D01*
X159705131Y-73910002D01*
X159722498Y-74019658D01*
X159754942Y-74083332D01*
X159767838Y-74152001D01*
X159754942Y-74195920D01*
X159742498Y-74220341D01*
X159725131Y-74329997D01*
X159725131Y-74330002D01*
X159742498Y-74439658D01*
X159792904Y-74538585D01*
X159792909Y-74538592D01*
X159871407Y-74617090D01*
X159871410Y-74617092D01*
X159871413Y-74617095D01*
X159956285Y-74660339D01*
X159970341Y-74667501D01*
X160079998Y-74684869D01*
X160080000Y-74684869D01*
X160080002Y-74684869D01*
X160189658Y-74667501D01*
X160189659Y-74667500D01*
X160189661Y-74667500D01*
X160288587Y-74617095D01*
X160367095Y-74538587D01*
X160417500Y-74439661D01*
X160417500Y-74439659D01*
X160417501Y-74439658D01*
X160434869Y-74330002D01*
X160434869Y-74329997D01*
X160417501Y-74220343D01*
X160417500Y-74220341D01*
X160417500Y-74220339D01*
X160385056Y-74156664D01*
X160372161Y-74087999D01*
X160385056Y-74044081D01*
X160397500Y-74019661D01*
X160414869Y-73910000D01*
X160414869Y-73909997D01*
X160397501Y-73800341D01*
X160392232Y-73790000D01*
X160347095Y-73701413D01*
X160347094Y-73701412D01*
X160342664Y-73692717D01*
X160345655Y-73691192D01*
X160327954Y-73641573D01*
X160343782Y-73573520D01*
X160393891Y-73524828D01*
X160451752Y-73510500D01*
X166165500Y-73510500D01*
X166232539Y-73530185D01*
X166278294Y-73582989D01*
X166289500Y-73634500D01*
X166289500Y-80855512D01*
X166269815Y-80922551D01*
X166217011Y-80968306D01*
X166147853Y-80978250D01*
X166092623Y-80955836D01*
X166088591Y-80952907D01*
X165989658Y-80902498D01*
X165880002Y-80885131D01*
X165879998Y-80885131D01*
X165770341Y-80902498D01*
X165671294Y-80952965D01*
X165602624Y-80965861D01*
X165558706Y-80952965D01*
X165459658Y-80902498D01*
X165350002Y-80885131D01*
X165349998Y-80885131D01*
X165240341Y-80902498D01*
X165141414Y-80952904D01*
X165141407Y-80952909D01*
X165062909Y-81031407D01*
X165062904Y-81031414D01*
X165012498Y-81130341D01*
X164995131Y-81239997D01*
X164995131Y-81240002D01*
X165012498Y-81349658D01*
X165062904Y-81448585D01*
X165062909Y-81448592D01*
X165141407Y-81527090D01*
X165141410Y-81527092D01*
X165141413Y-81527095D01*
X165210896Y-81562498D01*
X165240341Y-81577501D01*
X165349998Y-81594869D01*
X165350000Y-81594869D01*
X165350002Y-81594869D01*
X165459656Y-81577501D01*
X165459656Y-81577500D01*
X165459661Y-81577500D01*
X165558587Y-81527095D01*
X165558588Y-81527093D01*
X165558705Y-81527034D01*
X165627375Y-81514138D01*
X165671295Y-81527034D01*
X165671411Y-81527093D01*
X165671413Y-81527095D01*
X165770339Y-81577500D01*
X165770341Y-81577500D01*
X165770343Y-81577501D01*
X165879998Y-81594869D01*
X165880000Y-81594869D01*
X165880002Y-81594869D01*
X165989658Y-81577501D01*
X165989659Y-81577500D01*
X165989661Y-81577500D01*
X166088587Y-81527095D01*
X166088587Y-81527094D01*
X166088590Y-81527093D01*
X166092618Y-81524167D01*
X166158425Y-81500689D01*
X166226478Y-81516516D01*
X166275171Y-81566624D01*
X166289500Y-81624487D01*
X166289500Y-87354455D01*
X166269815Y-87421494D01*
X166217011Y-87467249D01*
X166147853Y-87477193D01*
X166084297Y-87448168D01*
X166077819Y-87442136D01*
X166008592Y-87372909D01*
X166008588Y-87372906D01*
X166008587Y-87372905D01*
X166003706Y-87370418D01*
X165909658Y-87322498D01*
X165800002Y-87305131D01*
X165799998Y-87305131D01*
X165690341Y-87322498D01*
X165596294Y-87370418D01*
X165527625Y-87383314D01*
X165483706Y-87370418D01*
X165389658Y-87322498D01*
X165280002Y-87305131D01*
X165279998Y-87305131D01*
X165170341Y-87322498D01*
X165071414Y-87372904D01*
X165071407Y-87372909D01*
X164992909Y-87451407D01*
X164992904Y-87451414D01*
X164942498Y-87550341D01*
X164925131Y-87659997D01*
X164925131Y-87660002D01*
X164942498Y-87769658D01*
X164992904Y-87868585D01*
X164992909Y-87868592D01*
X165071407Y-87947090D01*
X165071410Y-87947092D01*
X165071413Y-87947095D01*
X165165690Y-87995131D01*
X165170341Y-87997501D01*
X165279998Y-88014869D01*
X165280000Y-88014869D01*
X165280002Y-88014869D01*
X165389656Y-87997501D01*
X165389656Y-87997500D01*
X165389661Y-87997500D01*
X165483709Y-87949580D01*
X165552374Y-87936685D01*
X165596288Y-87949578D01*
X165690339Y-87997500D01*
X165690341Y-87997500D01*
X165690343Y-87997501D01*
X165799998Y-88014869D01*
X165800000Y-88014869D01*
X165800002Y-88014869D01*
X165909658Y-87997501D01*
X165909659Y-87997500D01*
X165909661Y-87997500D01*
X166008587Y-87947095D01*
X166042925Y-87912757D01*
X166077819Y-87877864D01*
X166139142Y-87844379D01*
X166208834Y-87849363D01*
X166264767Y-87891235D01*
X166289184Y-87956699D01*
X166289500Y-87965545D01*
X166289500Y-89692354D01*
X166269815Y-89759393D01*
X166217011Y-89805148D01*
X166147853Y-89815092D01*
X166109206Y-89802839D01*
X166049658Y-89772498D01*
X165940002Y-89755131D01*
X165939998Y-89755131D01*
X165830341Y-89772498D01*
X165731414Y-89822904D01*
X165731407Y-89822909D01*
X165652909Y-89901407D01*
X165652904Y-89901414D01*
X165602498Y-90000341D01*
X165585131Y-90109997D01*
X165585131Y-90110002D01*
X165602498Y-90219658D01*
X165652904Y-90318585D01*
X165652909Y-90318592D01*
X165731407Y-90397090D01*
X165731410Y-90397092D01*
X165731413Y-90397095D01*
X165797053Y-90430540D01*
X165830341Y-90447501D01*
X165939998Y-90464869D01*
X165940000Y-90464869D01*
X165940002Y-90464869D01*
X166049656Y-90447501D01*
X166049656Y-90447500D01*
X166049661Y-90447500D01*
X166109208Y-90417159D01*
X166177874Y-90404264D01*
X166242615Y-90430540D01*
X166282872Y-90487647D01*
X166289500Y-90527645D01*
X166289500Y-90750047D01*
X166269815Y-90817086D01*
X166217011Y-90862841D01*
X166147853Y-90872785D01*
X166146103Y-90872520D01*
X166073758Y-90861062D01*
X166073753Y-90861062D01*
X165964096Y-90878429D01*
X165865169Y-90928835D01*
X165865162Y-90928840D01*
X165786664Y-91007338D01*
X165786659Y-91007345D01*
X165736253Y-91106272D01*
X165718886Y-91215928D01*
X165718886Y-91215933D01*
X165736253Y-91325589D01*
X165786659Y-91424516D01*
X165786664Y-91424523D01*
X165865162Y-91503021D01*
X165865165Y-91503023D01*
X165865168Y-91503026D01*
X165899151Y-91520341D01*
X165964096Y-91553432D01*
X166073753Y-91570800D01*
X166073755Y-91570800D01*
X166073756Y-91570800D01*
X166101621Y-91566386D01*
X166146101Y-91559341D01*
X166215395Y-91568295D01*
X166268847Y-91613291D01*
X166289487Y-91680042D01*
X166289500Y-91681814D01*
X166289500Y-92185500D01*
X166269815Y-92252539D01*
X166217011Y-92298294D01*
X166165500Y-92309500D01*
X158987836Y-92309500D01*
X158920797Y-92289815D01*
X158875042Y-92237011D01*
X158865098Y-92167853D01*
X158877351Y-92129206D01*
X158879347Y-92125287D01*
X158897500Y-92089661D01*
X158897500Y-92089659D01*
X158897501Y-92089658D01*
X158914869Y-91980002D01*
X158914869Y-91979997D01*
X158897501Y-91870341D01*
X158897500Y-91870339D01*
X158847095Y-91771413D01*
X158847092Y-91771410D01*
X158847090Y-91771407D01*
X158768592Y-91692909D01*
X158768588Y-91692906D01*
X158768587Y-91692905D01*
X158743342Y-91680042D01*
X158669658Y-91642498D01*
X158560002Y-91625131D01*
X158559998Y-91625131D01*
X158450341Y-91642498D01*
X158351414Y-91692904D01*
X158351407Y-91692909D01*
X158272909Y-91771407D01*
X158272904Y-91771414D01*
X158222498Y-91870341D01*
X158205131Y-91979997D01*
X158205131Y-91980002D01*
X158222498Y-92089658D01*
X158242649Y-92129206D01*
X158255545Y-92197875D01*
X158229268Y-92262616D01*
X158172161Y-92302872D01*
X158132164Y-92309500D01*
X140214500Y-92309500D01*
X140147461Y-92289815D01*
X140101706Y-92237011D01*
X140090500Y-92185500D01*
X140090500Y-90515000D01*
X145304659Y-90515000D01*
X145323975Y-90711129D01*
X145381188Y-90899733D01*
X145474086Y-91073532D01*
X145474090Y-91073539D01*
X145599116Y-91225883D01*
X145751460Y-91350909D01*
X145751467Y-91350913D01*
X145925266Y-91443811D01*
X145925269Y-91443811D01*
X145925273Y-91443814D01*
X146113868Y-91501024D01*
X146310000Y-91520341D01*
X146506132Y-91501024D01*
X146694727Y-91443814D01*
X146726016Y-91427090D01*
X146868532Y-91350913D01*
X146868538Y-91350910D01*
X147020883Y-91225883D01*
X147145910Y-91073538D01*
X147221877Y-90931414D01*
X147238811Y-90899733D01*
X147238811Y-90899732D01*
X147238814Y-90899727D01*
X147296024Y-90711132D01*
X147315341Y-90515000D01*
X147844659Y-90515000D01*
X147863975Y-90711129D01*
X147921188Y-90899733D01*
X148014086Y-91073532D01*
X148014090Y-91073539D01*
X148139116Y-91225883D01*
X148291460Y-91350909D01*
X148291467Y-91350913D01*
X148465266Y-91443811D01*
X148465269Y-91443811D01*
X148465273Y-91443814D01*
X148653868Y-91501024D01*
X148850000Y-91520341D01*
X149046132Y-91501024D01*
X149234727Y-91443814D01*
X149266016Y-91427090D01*
X149408532Y-91350913D01*
X149408538Y-91350910D01*
X149560883Y-91225883D01*
X149685910Y-91073538D01*
X149761877Y-90931414D01*
X149778811Y-90899733D01*
X149778811Y-90899732D01*
X149778814Y-90899727D01*
X149836024Y-90711132D01*
X149855341Y-90515000D01*
X150384659Y-90515000D01*
X150403975Y-90711129D01*
X150461188Y-90899733D01*
X150554086Y-91073532D01*
X150554090Y-91073539D01*
X150679116Y-91225883D01*
X150831460Y-91350909D01*
X150831467Y-91350913D01*
X151005266Y-91443811D01*
X151005269Y-91443811D01*
X151005273Y-91443814D01*
X151193868Y-91501024D01*
X151390000Y-91520341D01*
X151586132Y-91501024D01*
X151774727Y-91443814D01*
X151806016Y-91427090D01*
X151948532Y-91350913D01*
X151948538Y-91350910D01*
X152100883Y-91225883D01*
X152171368Y-91139997D01*
X155015131Y-91139997D01*
X155015131Y-91140002D01*
X155032498Y-91249658D01*
X155082904Y-91348585D01*
X155082909Y-91348592D01*
X155161407Y-91427090D01*
X155161410Y-91427092D01*
X155161413Y-91427095D01*
X155260339Y-91477500D01*
X155260341Y-91477501D01*
X155369998Y-91494869D01*
X155370000Y-91494869D01*
X155370002Y-91494869D01*
X155479658Y-91477501D01*
X155479659Y-91477500D01*
X155479661Y-91477500D01*
X155578587Y-91427095D01*
X155657095Y-91348587D01*
X155707500Y-91249661D01*
X155707500Y-91249659D01*
X155707501Y-91249658D01*
X155724869Y-91140002D01*
X155724869Y-91139997D01*
X155707501Y-91030341D01*
X155695784Y-91007345D01*
X155657095Y-90931413D01*
X155657092Y-90931410D01*
X155657090Y-90931407D01*
X155578592Y-90852909D01*
X155578588Y-90852906D01*
X155578587Y-90852905D01*
X155508288Y-90817086D01*
X155479658Y-90802498D01*
X155370002Y-90785131D01*
X155369998Y-90785131D01*
X155260341Y-90802498D01*
X155161414Y-90852904D01*
X155161407Y-90852909D01*
X155082909Y-90931407D01*
X155082904Y-90931414D01*
X155032498Y-91030341D01*
X155015131Y-91139997D01*
X152171368Y-91139997D01*
X152225910Y-91073538D01*
X152301877Y-90931414D01*
X152318811Y-90899733D01*
X152318811Y-90899732D01*
X152318814Y-90899727D01*
X152376024Y-90711132D01*
X152395341Y-90515000D01*
X152384999Y-90409997D01*
X153325131Y-90409997D01*
X153325131Y-90410002D01*
X153342498Y-90519658D01*
X153392904Y-90618585D01*
X153392909Y-90618592D01*
X153471407Y-90697090D01*
X153471410Y-90697092D01*
X153471413Y-90697095D01*
X153570339Y-90747500D01*
X153570341Y-90747501D01*
X153679998Y-90764869D01*
X153680000Y-90764869D01*
X153680002Y-90764869D01*
X153789658Y-90747501D01*
X153789659Y-90747500D01*
X153789661Y-90747500D01*
X153888587Y-90697095D01*
X153967095Y-90618587D01*
X154017500Y-90519661D01*
X154017500Y-90519659D01*
X154017501Y-90519658D01*
X154034869Y-90410002D01*
X154034869Y-90409997D01*
X154017501Y-90300341D01*
X154017500Y-90300339D01*
X153967095Y-90201413D01*
X153967092Y-90201410D01*
X153967090Y-90201407D01*
X153888592Y-90122909D01*
X153888588Y-90122906D01*
X153888587Y-90122905D01*
X153863263Y-90110002D01*
X153789658Y-90072498D01*
X153680002Y-90055131D01*
X153679998Y-90055131D01*
X153570341Y-90072498D01*
X153471414Y-90122904D01*
X153471407Y-90122909D01*
X153392909Y-90201407D01*
X153392904Y-90201414D01*
X153342498Y-90300341D01*
X153325131Y-90409997D01*
X152384999Y-90409997D01*
X152376024Y-90318868D01*
X152318814Y-90130273D01*
X152318811Y-90130269D01*
X152318811Y-90130266D01*
X152225913Y-89956467D01*
X152225909Y-89956460D01*
X152100883Y-89804116D01*
X151948539Y-89679090D01*
X151948532Y-89679086D01*
X151774733Y-89586188D01*
X151774727Y-89586186D01*
X151586132Y-89528976D01*
X151586129Y-89528975D01*
X151390000Y-89509659D01*
X151193870Y-89528975D01*
X151005266Y-89586188D01*
X150831467Y-89679086D01*
X150831460Y-89679090D01*
X150679116Y-89804116D01*
X150554090Y-89956460D01*
X150554086Y-89956467D01*
X150461188Y-90130266D01*
X150403975Y-90318870D01*
X150384659Y-90515000D01*
X149855341Y-90515000D01*
X149836024Y-90318868D01*
X149778814Y-90130273D01*
X149778811Y-90130269D01*
X149778811Y-90130266D01*
X149685913Y-89956467D01*
X149685909Y-89956460D01*
X149560883Y-89804116D01*
X149408539Y-89679090D01*
X149408532Y-89679086D01*
X149234733Y-89586188D01*
X149234727Y-89586186D01*
X149046132Y-89528976D01*
X149046129Y-89528975D01*
X148850000Y-89509659D01*
X148653870Y-89528975D01*
X148465266Y-89586188D01*
X148291467Y-89679086D01*
X148291460Y-89679090D01*
X148139116Y-89804116D01*
X148014090Y-89956460D01*
X148014086Y-89956467D01*
X147921188Y-90130266D01*
X147863975Y-90318870D01*
X147844659Y-90515000D01*
X147315341Y-90515000D01*
X147296024Y-90318868D01*
X147238814Y-90130273D01*
X147238811Y-90130269D01*
X147238811Y-90130266D01*
X147145913Y-89956467D01*
X147145909Y-89956460D01*
X147020883Y-89804116D01*
X146868539Y-89679090D01*
X146868532Y-89679086D01*
X146694733Y-89586188D01*
X146694727Y-89586186D01*
X146506132Y-89528976D01*
X146506129Y-89528975D01*
X146310000Y-89509659D01*
X146113870Y-89528975D01*
X145925266Y-89586188D01*
X145751467Y-89679086D01*
X145751460Y-89679090D01*
X145599116Y-89804116D01*
X145474090Y-89956460D01*
X145474086Y-89956467D01*
X145381188Y-90130266D01*
X145323975Y-90318870D01*
X145304659Y-90515000D01*
X140090500Y-90515000D01*
X140090500Y-88959997D01*
X152365131Y-88959997D01*
X152365131Y-88960002D01*
X152382498Y-89069658D01*
X152432904Y-89168585D01*
X152432909Y-89168592D01*
X152511407Y-89247090D01*
X152511410Y-89247092D01*
X152511413Y-89247095D01*
X152610339Y-89297500D01*
X152624953Y-89299814D01*
X152688088Y-89329742D01*
X152725021Y-89389052D01*
X152728032Y-89441685D01*
X152725131Y-89460002D01*
X152742498Y-89569658D01*
X152792904Y-89668585D01*
X152792909Y-89668592D01*
X152871407Y-89747090D01*
X152871410Y-89747092D01*
X152871413Y-89747095D01*
X152970339Y-89797500D01*
X152970341Y-89797501D01*
X153079998Y-89814869D01*
X153080000Y-89814869D01*
X153080002Y-89814869D01*
X153189658Y-89797501D01*
X153189659Y-89797500D01*
X153189661Y-89797500D01*
X153288587Y-89747095D01*
X153367095Y-89668587D01*
X153417500Y-89569661D01*
X153430197Y-89489492D01*
X153460125Y-89426361D01*
X153519437Y-89389429D01*
X153589299Y-89390427D01*
X153608954Y-89398403D01*
X153695173Y-89442334D01*
X153695175Y-89442334D01*
X153695177Y-89442335D01*
X153804832Y-89459703D01*
X153804834Y-89459703D01*
X153804836Y-89459703D01*
X153914492Y-89442335D01*
X153914493Y-89442334D01*
X153914495Y-89442334D01*
X154013421Y-89391929D01*
X154091929Y-89313421D01*
X154112560Y-89272930D01*
X158770966Y-89272930D01*
X158770966Y-89272935D01*
X158788333Y-89382591D01*
X158838739Y-89481518D01*
X158838744Y-89481525D01*
X158917242Y-89560023D01*
X158917245Y-89560025D01*
X158917248Y-89560028D01*
X159016174Y-89610433D01*
X159016176Y-89610434D01*
X159125833Y-89627802D01*
X159125835Y-89627802D01*
X159125837Y-89627802D01*
X159235493Y-89610434D01*
X159235494Y-89610433D01*
X159235496Y-89610433D01*
X159334422Y-89560028D01*
X159412930Y-89481520D01*
X159463335Y-89382594D01*
X159463335Y-89382592D01*
X159463336Y-89382591D01*
X159480704Y-89272935D01*
X159480704Y-89272930D01*
X159463336Y-89163274D01*
X159456571Y-89149997D01*
X164745131Y-89149997D01*
X164745131Y-89150002D01*
X164762498Y-89259658D01*
X164812904Y-89358585D01*
X164812909Y-89358592D01*
X164891407Y-89437090D01*
X164891410Y-89437092D01*
X164891413Y-89437095D01*
X164936367Y-89460000D01*
X164990341Y-89487501D01*
X165099998Y-89504869D01*
X165100000Y-89504869D01*
X165100002Y-89504869D01*
X165209658Y-89487501D01*
X165209659Y-89487500D01*
X165209661Y-89487500D01*
X165308587Y-89437095D01*
X165387095Y-89358587D01*
X165437500Y-89259661D01*
X165437500Y-89259659D01*
X165437501Y-89259658D01*
X165454869Y-89150002D01*
X165454869Y-89149997D01*
X165437501Y-89040341D01*
X165414487Y-88995173D01*
X165387095Y-88941413D01*
X165387092Y-88941410D01*
X165387090Y-88941407D01*
X165308592Y-88862909D01*
X165308588Y-88862906D01*
X165308587Y-88862905D01*
X165283925Y-88850339D01*
X165209658Y-88812498D01*
X165100002Y-88795131D01*
X165099998Y-88795131D01*
X164990341Y-88812498D01*
X164891414Y-88862904D01*
X164891407Y-88862909D01*
X164812909Y-88941407D01*
X164812904Y-88941414D01*
X164762498Y-89040341D01*
X164745131Y-89149997D01*
X159456571Y-89149997D01*
X159412930Y-89064346D01*
X159412927Y-89064343D01*
X159412925Y-89064340D01*
X159334427Y-88985842D01*
X159334423Y-88985839D01*
X159334422Y-88985838D01*
X159283706Y-88959997D01*
X159235493Y-88935431D01*
X159125837Y-88918064D01*
X159125833Y-88918064D01*
X159016176Y-88935431D01*
X158917249Y-88985837D01*
X158917242Y-88985842D01*
X158838744Y-89064340D01*
X158838739Y-89064347D01*
X158788333Y-89163274D01*
X158770966Y-89272930D01*
X154112560Y-89272930D01*
X154142334Y-89214495D01*
X154142334Y-89214493D01*
X154142335Y-89214492D01*
X154159703Y-89104836D01*
X154159703Y-89104831D01*
X154142335Y-88995175D01*
X154129441Y-88969869D01*
X154091929Y-88896247D01*
X154091926Y-88896244D01*
X154091924Y-88896241D01*
X154013426Y-88817743D01*
X154013422Y-88817740D01*
X154013421Y-88817739D01*
X154003135Y-88812498D01*
X153914492Y-88767332D01*
X153804836Y-88749965D01*
X153804832Y-88749965D01*
X153695176Y-88767332D01*
X153664870Y-88782774D01*
X153596200Y-88795669D01*
X153531460Y-88769391D01*
X153520896Y-88759969D01*
X153466590Y-88705663D01*
X153466586Y-88705660D01*
X153466585Y-88705659D01*
X153418391Y-88681103D01*
X153367656Y-88655252D01*
X153258000Y-88637885D01*
X153257996Y-88637885D01*
X153148340Y-88655252D01*
X153071338Y-88694486D01*
X153002669Y-88707381D01*
X152937929Y-88681103D01*
X152929396Y-88673493D01*
X152928588Y-88672906D01*
X152928587Y-88672905D01*
X152893189Y-88654869D01*
X152829658Y-88622498D01*
X152720002Y-88605131D01*
X152719998Y-88605131D01*
X152610341Y-88622498D01*
X152511414Y-88672904D01*
X152511407Y-88672909D01*
X152432909Y-88751407D01*
X152432904Y-88751414D01*
X152382498Y-88850341D01*
X152365131Y-88959997D01*
X140090500Y-88959997D01*
X140090500Y-88299997D01*
X140965131Y-88299997D01*
X140965131Y-88300002D01*
X140982498Y-88409658D01*
X141032904Y-88508585D01*
X141032909Y-88508592D01*
X141111407Y-88587090D01*
X141111410Y-88587092D01*
X141111413Y-88587095D01*
X141209534Y-88637090D01*
X141210341Y-88637501D01*
X141319998Y-88654869D01*
X141320000Y-88654869D01*
X141320002Y-88654869D01*
X141429658Y-88637501D01*
X141429659Y-88637500D01*
X141429661Y-88637500D01*
X141528587Y-88587095D01*
X141607095Y-88508587D01*
X141657500Y-88409661D01*
X141657500Y-88409659D01*
X141657501Y-88409658D01*
X141667702Y-88345249D01*
X141674869Y-88300000D01*
X141674869Y-88299997D01*
X141675334Y-88297061D01*
X141705263Y-88233926D01*
X141710108Y-88228795D01*
X143427086Y-86511819D01*
X143488409Y-86478334D01*
X143514767Y-86475500D01*
X146480703Y-86475500D01*
X146480711Y-86475501D01*
X146495145Y-86475501D01*
X146584853Y-86475501D01*
X146584855Y-86475501D01*
X146643460Y-86451225D01*
X146667736Y-86441170D01*
X146731170Y-86377736D01*
X146731170Y-86377735D01*
X146748606Y-86360299D01*
X146748607Y-86360296D01*
X146832821Y-86276082D01*
X146894143Y-86242600D01*
X146963834Y-86247584D01*
X147019768Y-86289456D01*
X147044184Y-86354921D01*
X147044500Y-86363766D01*
X147044500Y-87208455D01*
X147024815Y-87275494D01*
X147008181Y-87296136D01*
X146982909Y-87321407D01*
X146982904Y-87321414D01*
X146932498Y-87420341D01*
X146915131Y-87529997D01*
X146915131Y-87530002D01*
X146932498Y-87639658D01*
X146982904Y-87738585D01*
X146982909Y-87738592D01*
X147061407Y-87817090D01*
X147061410Y-87817092D01*
X147061413Y-87817095D01*
X147124743Y-87849363D01*
X147160341Y-87867501D01*
X147269998Y-87884869D01*
X147270000Y-87884869D01*
X147270002Y-87884869D01*
X147379658Y-87867501D01*
X147379659Y-87867500D01*
X147379661Y-87867500D01*
X147478587Y-87817095D01*
X147557095Y-87738587D01*
X147607500Y-87639661D01*
X147607500Y-87639659D01*
X147607501Y-87639658D01*
X147624869Y-87530002D01*
X147624869Y-87529997D01*
X147607501Y-87420341D01*
X147588635Y-87383314D01*
X147557095Y-87321413D01*
X147557092Y-87321410D01*
X147557090Y-87321407D01*
X147531819Y-87296136D01*
X147498334Y-87234813D01*
X147495500Y-87208455D01*
X147495500Y-85544839D01*
X147515185Y-85477800D01*
X147531819Y-85457158D01*
X147639319Y-85349658D01*
X147756809Y-85232167D01*
X147818130Y-85198684D01*
X147887821Y-85203668D01*
X147932169Y-85232169D01*
X148710000Y-86010000D01*
X149092419Y-86010000D01*
X149159458Y-86029685D01*
X149205213Y-86082489D01*
X149215157Y-86151647D01*
X149202904Y-86190294D01*
X149182498Y-86230341D01*
X149165131Y-86339997D01*
X149165131Y-86340002D01*
X149182498Y-86449658D01*
X149232904Y-86548585D01*
X149232909Y-86548592D01*
X149311407Y-86627090D01*
X149311410Y-86627092D01*
X149311413Y-86627095D01*
X149408337Y-86676480D01*
X149410341Y-86677501D01*
X149519998Y-86694869D01*
X149520000Y-86694869D01*
X149520002Y-86694869D01*
X149636102Y-86676480D01*
X149705395Y-86685434D01*
X149758847Y-86730430D01*
X149779487Y-86797182D01*
X149779500Y-86798953D01*
X149779500Y-87600232D01*
X149759815Y-87667271D01*
X149743181Y-87687913D01*
X149511220Y-87919873D01*
X149449897Y-87953358D01*
X149442937Y-87954665D01*
X149330341Y-87972498D01*
X149231414Y-88022904D01*
X149231407Y-88022909D01*
X149152909Y-88101407D01*
X149152904Y-88101414D01*
X149102498Y-88200341D01*
X149085131Y-88309997D01*
X149085131Y-88310002D01*
X149102498Y-88419658D01*
X149152904Y-88518585D01*
X149152909Y-88518592D01*
X149231407Y-88597090D01*
X149231410Y-88597092D01*
X149231413Y-88597095D01*
X149315886Y-88640136D01*
X149330341Y-88647501D01*
X149439998Y-88664869D01*
X149440000Y-88664869D01*
X149440002Y-88664869D01*
X149549658Y-88647501D01*
X149549659Y-88647500D01*
X149549661Y-88647500D01*
X149648587Y-88597095D01*
X149727095Y-88518587D01*
X149777500Y-88419661D01*
X149777500Y-88419659D01*
X149777501Y-88419658D01*
X149788051Y-88353046D01*
X149788534Y-88349997D01*
X150425131Y-88349997D01*
X150425131Y-88350002D01*
X150442498Y-88459658D01*
X150492904Y-88558585D01*
X150492909Y-88558592D01*
X150571407Y-88637090D01*
X150571410Y-88637092D01*
X150571413Y-88637095D01*
X150642849Y-88673493D01*
X150670341Y-88687501D01*
X150779998Y-88704869D01*
X150780000Y-88704869D01*
X150780002Y-88704869D01*
X150889658Y-88687501D01*
X150889659Y-88687500D01*
X150889661Y-88687500D01*
X150988587Y-88637095D01*
X150997316Y-88628365D01*
X151058633Y-88594879D01*
X151128325Y-88599859D01*
X151172680Y-88628363D01*
X151184453Y-88640136D01*
X151184456Y-88640138D01*
X151184459Y-88640141D01*
X151264852Y-88681103D01*
X151283387Y-88690547D01*
X151393044Y-88707915D01*
X151393046Y-88707915D01*
X151393048Y-88707915D01*
X151502704Y-88690547D01*
X151502705Y-88690546D01*
X151502707Y-88690546D01*
X151601633Y-88640141D01*
X151680141Y-88561633D01*
X151730546Y-88462707D01*
X151730546Y-88462705D01*
X151730547Y-88462704D01*
X151747915Y-88353048D01*
X151747915Y-88353043D01*
X151739513Y-88299997D01*
X154855131Y-88299997D01*
X154855131Y-88300002D01*
X154872498Y-88409658D01*
X154922904Y-88508585D01*
X154922909Y-88508592D01*
X155001407Y-88587090D01*
X155001410Y-88587092D01*
X155001413Y-88587095D01*
X155099534Y-88637090D01*
X155100341Y-88637501D01*
X155209998Y-88654869D01*
X155209999Y-88654869D01*
X155209999Y-88654868D01*
X155210000Y-88654869D01*
X155233851Y-88651091D01*
X155303142Y-88660045D01*
X155356595Y-88705040D01*
X155363734Y-88717269D01*
X155367499Y-88724659D01*
X155367500Y-88724661D01*
X155414927Y-88817743D01*
X155417906Y-88823588D01*
X155417909Y-88823592D01*
X155496407Y-88902090D01*
X155496410Y-88902092D01*
X155496413Y-88902095D01*
X155595339Y-88952500D01*
X155595341Y-88952501D01*
X155704998Y-88969869D01*
X155705000Y-88969869D01*
X155705002Y-88969869D01*
X155814658Y-88952501D01*
X155814659Y-88952500D01*
X155814661Y-88952500D01*
X155913587Y-88902095D01*
X155919441Y-88896241D01*
X155938863Y-88876820D01*
X156000186Y-88843335D01*
X156026544Y-88840501D01*
X156129853Y-88840501D01*
X156129855Y-88840501D01*
X156188460Y-88816225D01*
X156212736Y-88806170D01*
X156276170Y-88742736D01*
X156276170Y-88742735D01*
X156293599Y-88725306D01*
X156293604Y-88725300D01*
X156378769Y-88640136D01*
X156397089Y-88621817D01*
X156458413Y-88588333D01*
X156484769Y-88585500D01*
X159440703Y-88585500D01*
X159440711Y-88585501D01*
X159455145Y-88585501D01*
X159544853Y-88585501D01*
X159544855Y-88585501D01*
X159603460Y-88561225D01*
X159627736Y-88551170D01*
X159691170Y-88487736D01*
X159691170Y-88487735D01*
X159708608Y-88470297D01*
X159708610Y-88470294D01*
X160202711Y-87976193D01*
X160202713Y-87976193D01*
X160266147Y-87912759D01*
X160266148Y-87912757D01*
X160272930Y-87902607D01*
X160274247Y-87903487D01*
X160289918Y-87880029D01*
X160362072Y-87807876D01*
X160412477Y-87708950D01*
X160412477Y-87708948D01*
X160412478Y-87708947D01*
X160429846Y-87599291D01*
X160429846Y-87599286D01*
X160412478Y-87489630D01*
X160393006Y-87451414D01*
X160362072Y-87390702D01*
X160362069Y-87390699D01*
X160362067Y-87390696D01*
X160283569Y-87312198D01*
X160283565Y-87312195D01*
X160283564Y-87312194D01*
X160211536Y-87275494D01*
X160184635Y-87261787D01*
X160074979Y-87244420D01*
X160074975Y-87244420D01*
X159965318Y-87261787D01*
X159866391Y-87312193D01*
X159866386Y-87312196D01*
X159856986Y-87321597D01*
X159795661Y-87355080D01*
X159725970Y-87350093D01*
X159713014Y-87344399D01*
X159704386Y-87340003D01*
X159689661Y-87332500D01*
X159689660Y-87332499D01*
X159689657Y-87332498D01*
X159580002Y-87315131D01*
X159579998Y-87315131D01*
X159470341Y-87332498D01*
X159371414Y-87382904D01*
X159371407Y-87382909D01*
X159292909Y-87461407D01*
X159292904Y-87461414D01*
X159242498Y-87560341D01*
X159225131Y-87669997D01*
X159225131Y-87670002D01*
X159242498Y-87779658D01*
X159292904Y-87878585D01*
X159292909Y-87878592D01*
X159337136Y-87922819D01*
X159370621Y-87984142D01*
X159365637Y-88053834D01*
X159323765Y-88109767D01*
X159258301Y-88134184D01*
X159249455Y-88134500D01*
X157270574Y-88134500D01*
X157203535Y-88114815D01*
X157157780Y-88062011D01*
X157147836Y-87992853D01*
X157160088Y-87954207D01*
X157167500Y-87939661D01*
X157167972Y-87936685D01*
X157184869Y-87830002D01*
X157184869Y-87830000D01*
X157182125Y-87812677D01*
X157191078Y-87743386D01*
X157236073Y-87689933D01*
X157251299Y-87682584D01*
X157250966Y-87681930D01*
X157259659Y-87677500D01*
X157259661Y-87677500D01*
X157358587Y-87627095D01*
X157437095Y-87548587D01*
X157487500Y-87449661D01*
X157487500Y-87449659D01*
X157487501Y-87449658D01*
X157504869Y-87340002D01*
X157504869Y-87339997D01*
X157487501Y-87230341D01*
X157487500Y-87230339D01*
X157437095Y-87131413D01*
X157437092Y-87131410D01*
X157437090Y-87131407D01*
X157358592Y-87052909D01*
X157358588Y-87052906D01*
X157358587Y-87052905D01*
X157328353Y-87037500D01*
X157259658Y-87002498D01*
X157150002Y-86985131D01*
X157149998Y-86985131D01*
X157040341Y-87002498D01*
X156941414Y-87052904D01*
X156941407Y-87052909D01*
X156862909Y-87131407D01*
X156862904Y-87131414D01*
X156812498Y-87230341D01*
X156795131Y-87339997D01*
X156795131Y-87340003D01*
X156797874Y-87357323D01*
X156788919Y-87426616D01*
X156743922Y-87480068D01*
X156728701Y-87487417D01*
X156729034Y-87488070D01*
X156720339Y-87492499D01*
X156720339Y-87492500D01*
X156621413Y-87542905D01*
X156621412Y-87542906D01*
X156621407Y-87542909D01*
X156542909Y-87621407D01*
X156542904Y-87621414D01*
X156492498Y-87720341D01*
X156475131Y-87829997D01*
X156475131Y-87830002D01*
X156492498Y-87939657D01*
X156492499Y-87939660D01*
X156492500Y-87939661D01*
X156499608Y-87953612D01*
X156499912Y-87954207D01*
X156512807Y-88022876D01*
X156486530Y-88087616D01*
X156429423Y-88127872D01*
X156389426Y-88134500D01*
X156384854Y-88134500D01*
X156295145Y-88134500D01*
X156295143Y-88134500D01*
X156295141Y-88134501D01*
X156212266Y-88168827D01*
X156212264Y-88168829D01*
X156069330Y-88311764D01*
X156008007Y-88345249D01*
X155938315Y-88340265D01*
X155922554Y-88331804D01*
X155922283Y-88332336D01*
X155814658Y-88277498D01*
X155705002Y-88260131D01*
X155705001Y-88260131D01*
X155705000Y-88260131D01*
X155694164Y-88261847D01*
X155681146Y-88263909D01*
X155611853Y-88254953D01*
X155558402Y-88209956D01*
X155551265Y-88197729D01*
X155547500Y-88190339D01*
X155497095Y-88091413D01*
X155497092Y-88091410D01*
X155497090Y-88091407D01*
X155418592Y-88012909D01*
X155418588Y-88012906D01*
X155418587Y-88012905D01*
X155407979Y-88007500D01*
X155319658Y-87962498D01*
X155210002Y-87945131D01*
X155209998Y-87945131D01*
X155100341Y-87962498D01*
X155001414Y-88012904D01*
X155001407Y-88012909D01*
X154922909Y-88091407D01*
X154922904Y-88091414D01*
X154872498Y-88190341D01*
X154855131Y-88299997D01*
X151739513Y-88299997D01*
X151730547Y-88243387D01*
X151703518Y-88190339D01*
X151680141Y-88144459D01*
X151680138Y-88144456D01*
X151680136Y-88144453D01*
X151601638Y-88065955D01*
X151601634Y-88065952D01*
X151601633Y-88065951D01*
X151547928Y-88038587D01*
X151502704Y-88015544D01*
X151393048Y-87998177D01*
X151393044Y-87998177D01*
X151283387Y-88015544D01*
X151184460Y-88065950D01*
X151184453Y-88065955D01*
X151175727Y-88074682D01*
X151114404Y-88108167D01*
X151044712Y-88103183D01*
X151000365Y-88074682D01*
X150988592Y-88062909D01*
X150988588Y-88062906D01*
X150988587Y-88062905D01*
X150940860Y-88038587D01*
X150889658Y-88012498D01*
X150780002Y-87995131D01*
X150779998Y-87995131D01*
X150670341Y-88012498D01*
X150571414Y-88062904D01*
X150571407Y-88062909D01*
X150492909Y-88141407D01*
X150492904Y-88141414D01*
X150442498Y-88240341D01*
X150425131Y-88349997D01*
X149788534Y-88349997D01*
X149794869Y-88310000D01*
X149794869Y-88309997D01*
X149795334Y-88307061D01*
X149825263Y-88243926D01*
X149830108Y-88238795D01*
X150115294Y-87953610D01*
X150115297Y-87953608D01*
X150132735Y-87936170D01*
X150132736Y-87936170D01*
X150196170Y-87872736D01*
X150223036Y-87807876D01*
X150223037Y-87807875D01*
X150230499Y-87789858D01*
X150230501Y-87789854D01*
X150230501Y-87700145D01*
X150230501Y-87690156D01*
X150230500Y-87690142D01*
X150230500Y-86619997D01*
X157465131Y-86619997D01*
X157465131Y-86620002D01*
X157482498Y-86729658D01*
X157532904Y-86828585D01*
X157532909Y-86828592D01*
X157611407Y-86907090D01*
X157611410Y-86907092D01*
X157611413Y-86907095D01*
X157710339Y-86957500D01*
X157710341Y-86957501D01*
X157819998Y-86974869D01*
X157820000Y-86974869D01*
X157820002Y-86974869D01*
X157929658Y-86957501D01*
X157929659Y-86957500D01*
X157929661Y-86957500D01*
X158028587Y-86907095D01*
X158107095Y-86828587D01*
X158157500Y-86729661D01*
X158157500Y-86729659D01*
X158157501Y-86729658D01*
X158162199Y-86699997D01*
X165305131Y-86699997D01*
X165305131Y-86700002D01*
X165322498Y-86809658D01*
X165372904Y-86908585D01*
X165372909Y-86908592D01*
X165451407Y-86987090D01*
X165451410Y-86987092D01*
X165451413Y-86987095D01*
X165550339Y-87037500D01*
X165550341Y-87037501D01*
X165659998Y-87054869D01*
X165660000Y-87054869D01*
X165660002Y-87054869D01*
X165769658Y-87037501D01*
X165769659Y-87037500D01*
X165769661Y-87037500D01*
X165868587Y-86987095D01*
X165947095Y-86908587D01*
X165997500Y-86809661D01*
X165997500Y-86809659D01*
X165997501Y-86809658D01*
X166014869Y-86700002D01*
X166014869Y-86699997D01*
X165997501Y-86590341D01*
X165956738Y-86510339D01*
X165947095Y-86491413D01*
X165947092Y-86491410D01*
X165947090Y-86491407D01*
X165868592Y-86412909D01*
X165868588Y-86412906D01*
X165868587Y-86412905D01*
X165846541Y-86401672D01*
X165769658Y-86362498D01*
X165660002Y-86345131D01*
X165659998Y-86345131D01*
X165550341Y-86362498D01*
X165451414Y-86412904D01*
X165451407Y-86412909D01*
X165372909Y-86491407D01*
X165372904Y-86491414D01*
X165322498Y-86590341D01*
X165305131Y-86699997D01*
X158162199Y-86699997D01*
X158174869Y-86620002D01*
X158174869Y-86619997D01*
X158157501Y-86510341D01*
X158139749Y-86475500D01*
X158107095Y-86411413D01*
X158107094Y-86411412D01*
X158102664Y-86402717D01*
X158104713Y-86401672D01*
X158085763Y-86348573D01*
X158101583Y-86280518D01*
X158111929Y-86266902D01*
X158111356Y-86266486D01*
X158117089Y-86258592D01*
X158117095Y-86258587D01*
X158167500Y-86159661D01*
X158167500Y-86159659D01*
X158167501Y-86159658D01*
X158184869Y-86050002D01*
X158184869Y-86049997D01*
X158167501Y-85940341D01*
X158166439Y-85938256D01*
X158117095Y-85841413D01*
X158117092Y-85841410D01*
X158117090Y-85841407D01*
X158038592Y-85762909D01*
X158038588Y-85762906D01*
X158038587Y-85762905D01*
X157940474Y-85712914D01*
X157939658Y-85712498D01*
X157830002Y-85695131D01*
X157829998Y-85695131D01*
X157720341Y-85712498D01*
X157621414Y-85762904D01*
X157621407Y-85762909D01*
X157542909Y-85841407D01*
X157542904Y-85841414D01*
X157492498Y-85940341D01*
X157475131Y-86049997D01*
X157475131Y-86050002D01*
X157492498Y-86159658D01*
X157547336Y-86267283D01*
X157545286Y-86268327D01*
X157564236Y-86321431D01*
X157548414Y-86389485D01*
X157538073Y-86403099D01*
X157538644Y-86403514D01*
X157532904Y-86411414D01*
X157482498Y-86510341D01*
X157465131Y-86619997D01*
X150230500Y-86619997D01*
X150230500Y-82009767D01*
X150250185Y-81942728D01*
X150266819Y-81922086D01*
X150664738Y-81524167D01*
X151111170Y-81077736D01*
X151111170Y-81077734D01*
X151111172Y-81077733D01*
X151139509Y-81009318D01*
X151145500Y-80994855D01*
X151145500Y-80905146D01*
X151145500Y-79943673D01*
X151165185Y-79876634D01*
X151217989Y-79830879D01*
X151287147Y-79820935D01*
X151288898Y-79821200D01*
X151379998Y-79835629D01*
X151380000Y-79835629D01*
X151380002Y-79835629D01*
X151439491Y-79826206D01*
X151489661Y-79818260D01*
X151489669Y-79818255D01*
X151492170Y-79817444D01*
X151495402Y-79817351D01*
X151499300Y-79816734D01*
X151499379Y-79817237D01*
X151562011Y-79815442D01*
X151621848Y-79851516D01*
X151652682Y-79914214D01*
X151654500Y-79935371D01*
X151654500Y-80725142D01*
X151654499Y-80725156D01*
X151654499Y-80824857D01*
X151672212Y-80867617D01*
X151672214Y-80867620D01*
X151688829Y-80907735D01*
X151769700Y-80988606D01*
X151769706Y-80988611D01*
X155845598Y-85064504D01*
X155845600Y-85064506D01*
X155909699Y-85091055D01*
X155928479Y-85098834D01*
X156018188Y-85098834D01*
X157392451Y-85098834D01*
X157459490Y-85118519D01*
X157480132Y-85135153D01*
X157505403Y-85160424D01*
X157505406Y-85160426D01*
X157505409Y-85160429D01*
X157580489Y-85198684D01*
X157604337Y-85210835D01*
X157713994Y-85228203D01*
X157713996Y-85228203D01*
X157713998Y-85228203D01*
X157823654Y-85210835D01*
X157823655Y-85210834D01*
X157823657Y-85210834D01*
X157922583Y-85160429D01*
X158001091Y-85081921D01*
X158051496Y-84982995D01*
X158051496Y-84982993D01*
X158051497Y-84982992D01*
X158068865Y-84873336D01*
X158068865Y-84873331D01*
X158051497Y-84763675D01*
X158014033Y-84690147D01*
X158001137Y-84621478D01*
X158027414Y-84556738D01*
X158036830Y-84546178D01*
X158047095Y-84535914D01*
X158097500Y-84436988D01*
X158097500Y-84436986D01*
X158097501Y-84436985D01*
X158114869Y-84327329D01*
X158114869Y-84327324D01*
X158097500Y-84217667D01*
X158094486Y-84208390D01*
X158095960Y-84207910D01*
X158085069Y-84149909D01*
X158111346Y-84085169D01*
X158168453Y-84044913D01*
X158208450Y-84038285D01*
X158497918Y-84038285D01*
X158497926Y-84038286D01*
X158512360Y-84038286D01*
X158602069Y-84038286D01*
X158602070Y-84038286D01*
X158672957Y-84008923D01*
X158684951Y-84003955D01*
X158748385Y-83940521D01*
X158748385Y-83940520D01*
X158765813Y-83923092D01*
X158765818Y-83923085D01*
X159031170Y-83657736D01*
X159065500Y-83574855D01*
X159065500Y-83485146D01*
X159065500Y-83256379D01*
X159859500Y-83256379D01*
X159859500Y-83443620D01*
X159896025Y-83627243D01*
X159896027Y-83627251D01*
X159967676Y-83800228D01*
X159967681Y-83800237D01*
X160071697Y-83955907D01*
X160071700Y-83955911D01*
X160204088Y-84088299D01*
X160204092Y-84088302D01*
X160359762Y-84192318D01*
X160359771Y-84192323D01*
X160377289Y-84199579D01*
X160532749Y-84263973D01*
X160716379Y-84300499D01*
X160716383Y-84300500D01*
X160716384Y-84300500D01*
X160903617Y-84300500D01*
X160903618Y-84300499D01*
X161087251Y-84263973D01*
X161260231Y-84192322D01*
X161415908Y-84088302D01*
X161548302Y-83955908D01*
X161652322Y-83800231D01*
X161723973Y-83627251D01*
X161741329Y-83539997D01*
X163415131Y-83539997D01*
X163415131Y-83540002D01*
X163432498Y-83649658D01*
X163482904Y-83748585D01*
X163482909Y-83748592D01*
X163561407Y-83827090D01*
X163561410Y-83827092D01*
X163561413Y-83827095D01*
X163660339Y-83877500D01*
X163660341Y-83877501D01*
X163769998Y-83894869D01*
X163770000Y-83894869D01*
X163770002Y-83894869D01*
X163879656Y-83877501D01*
X163879656Y-83877500D01*
X163879661Y-83877500D01*
X163948709Y-83842318D01*
X164017374Y-83829423D01*
X164061287Y-83842316D01*
X164130339Y-83877500D01*
X164130341Y-83877500D01*
X164130343Y-83877501D01*
X164239998Y-83894869D01*
X164240000Y-83894869D01*
X164240002Y-83894869D01*
X164349658Y-83877501D01*
X164349659Y-83877500D01*
X164349661Y-83877500D01*
X164448587Y-83827095D01*
X164527095Y-83748587D01*
X164577500Y-83649661D01*
X164577500Y-83649659D01*
X164577501Y-83649658D01*
X164594869Y-83540002D01*
X164594869Y-83539997D01*
X164577501Y-83430341D01*
X164564603Y-83405028D01*
X164527095Y-83331413D01*
X164527092Y-83331410D01*
X164527090Y-83331407D01*
X164448592Y-83252909D01*
X164448588Y-83252906D01*
X164448587Y-83252905D01*
X164384007Y-83220000D01*
X164349658Y-83202498D01*
X164240002Y-83185131D01*
X164239998Y-83185131D01*
X164130341Y-83202498D01*
X164061294Y-83237680D01*
X163992625Y-83250576D01*
X163948706Y-83237680D01*
X163879658Y-83202498D01*
X163770002Y-83185131D01*
X163769998Y-83185131D01*
X163660341Y-83202498D01*
X163561414Y-83252904D01*
X163561407Y-83252909D01*
X163482909Y-83331407D01*
X163482904Y-83331414D01*
X163432498Y-83430341D01*
X163415131Y-83539997D01*
X161741329Y-83539997D01*
X161760500Y-83443616D01*
X161760500Y-83256384D01*
X161723973Y-83072749D01*
X161652322Y-82899769D01*
X161652321Y-82899768D01*
X161652318Y-82899762D01*
X161548302Y-82744092D01*
X161548299Y-82744088D01*
X161415911Y-82611700D01*
X161415907Y-82611697D01*
X161260237Y-82507681D01*
X161260228Y-82507676D01*
X161087251Y-82436027D01*
X161087243Y-82436025D01*
X160903620Y-82399500D01*
X160903616Y-82399500D01*
X160716384Y-82399500D01*
X160716379Y-82399500D01*
X160532756Y-82436025D01*
X160532748Y-82436027D01*
X160359771Y-82507676D01*
X160359762Y-82507681D01*
X160204092Y-82611697D01*
X160204088Y-82611700D01*
X160071700Y-82744088D01*
X160071697Y-82744092D01*
X159967681Y-82899762D01*
X159967676Y-82899771D01*
X159896027Y-83072748D01*
X159896025Y-83072756D01*
X159859500Y-83256379D01*
X159065500Y-83256379D01*
X159065500Y-82794766D01*
X159085185Y-82727727D01*
X159101815Y-82707089D01*
X159518779Y-82290124D01*
X159580100Y-82256641D01*
X159587061Y-82255334D01*
X159589998Y-82254868D01*
X159590000Y-82254869D01*
X159642146Y-82246609D01*
X159699658Y-82237501D01*
X159699659Y-82237500D01*
X159699661Y-82237500D01*
X159798587Y-82187095D01*
X159877095Y-82108587D01*
X159927500Y-82009661D01*
X159927500Y-82009659D01*
X159927501Y-82009658D01*
X159944869Y-81900002D01*
X159944869Y-81899997D01*
X159927501Y-81790341D01*
X159894275Y-81725131D01*
X159877095Y-81691413D01*
X159877092Y-81691410D01*
X159877090Y-81691407D01*
X159798592Y-81612909D01*
X159798588Y-81612906D01*
X159798587Y-81612905D01*
X159763189Y-81594869D01*
X159699658Y-81562498D01*
X159590002Y-81545131D01*
X159589998Y-81545131D01*
X159480341Y-81562498D01*
X159381414Y-81612904D01*
X159381407Y-81612909D01*
X159302909Y-81691407D01*
X159302904Y-81691414D01*
X159252498Y-81790341D01*
X159234665Y-81902937D01*
X159204735Y-81966072D01*
X159199873Y-81971220D01*
X158712265Y-82458829D01*
X158648830Y-82522263D01*
X158648830Y-82522265D01*
X158614499Y-82605144D01*
X158614499Y-82709288D01*
X158614500Y-82709297D01*
X158614500Y-82747086D01*
X158594815Y-82814125D01*
X158542011Y-82859880D01*
X158472853Y-82869824D01*
X158471103Y-82869560D01*
X158409983Y-82859880D01*
X158380000Y-82855131D01*
X158379998Y-82855131D01*
X158379997Y-82855131D01*
X158260700Y-82874026D01*
X158260447Y-82872434D01*
X158201670Y-82874113D01*
X158141838Y-82838031D01*
X158111011Y-82775330D01*
X158110722Y-82734788D01*
X158129453Y-82616529D01*
X158129453Y-82616526D01*
X158112085Y-82506870D01*
X158091005Y-82465498D01*
X158061679Y-82407942D01*
X158061676Y-82407939D01*
X158055940Y-82400043D01*
X158058828Y-82397944D01*
X158033939Y-82352363D01*
X158038923Y-82282671D01*
X158044613Y-82269725D01*
X158065698Y-82228344D01*
X158071825Y-82189661D01*
X158083067Y-82118685D01*
X158083067Y-82118680D01*
X158065699Y-82009024D01*
X158043814Y-81966072D01*
X158015293Y-81910096D01*
X158015290Y-81910093D01*
X158015288Y-81910090D01*
X157936790Y-81831592D01*
X157936786Y-81831589D01*
X157936785Y-81831588D01*
X157860873Y-81792909D01*
X157837856Y-81781181D01*
X157728200Y-81763814D01*
X157728196Y-81763814D01*
X157618539Y-81781181D01*
X157519612Y-81831587D01*
X157519605Y-81831592D01*
X157441107Y-81910090D01*
X157441102Y-81910097D01*
X157390696Y-82009024D01*
X157373329Y-82118680D01*
X157373329Y-82118685D01*
X157390696Y-82228341D01*
X157441102Y-82327268D01*
X157446842Y-82335169D01*
X157443953Y-82337267D01*
X157468842Y-82382848D01*
X157463858Y-82452540D01*
X157458162Y-82465498D01*
X157437082Y-82506870D01*
X157419715Y-82616526D01*
X157419715Y-82616531D01*
X157437082Y-82726187D01*
X157445855Y-82743405D01*
X157487489Y-82825116D01*
X157563126Y-82900753D01*
X157596610Y-82962074D01*
X157591626Y-83031766D01*
X157585930Y-83044725D01*
X157552499Y-83110341D01*
X157535131Y-83219997D01*
X157535131Y-83220002D01*
X157552498Y-83329656D01*
X157552499Y-83329659D01*
X157552500Y-83329661D01*
X157590902Y-83405030D01*
X157603798Y-83473698D01*
X157577521Y-83538438D01*
X157568099Y-83549004D01*
X157512907Y-83604195D01*
X157512905Y-83604199D01*
X157462499Y-83703126D01*
X157445132Y-83812782D01*
X157445132Y-83812787D01*
X157462499Y-83922442D01*
X157491370Y-83979105D01*
X157504265Y-84047774D01*
X157477988Y-84112514D01*
X157474967Y-84115901D01*
X157472905Y-84118739D01*
X157451226Y-84161285D01*
X157428436Y-84192657D01*
X157425668Y-84195425D01*
X157421503Y-84199591D01*
X157421502Y-84199591D01*
X157421502Y-84199592D01*
X157259578Y-84361516D01*
X157198257Y-84395000D01*
X157171899Y-84397834D01*
X156221655Y-84397834D01*
X156154616Y-84378149D01*
X156133974Y-84361515D01*
X152391819Y-80619360D01*
X152358334Y-80558037D01*
X152355500Y-80531679D01*
X152355500Y-80229914D01*
X152627634Y-80229914D01*
X152627634Y-80229919D01*
X152645001Y-80339575D01*
X152695407Y-80438502D01*
X152695412Y-80438509D01*
X152773910Y-80517007D01*
X152773913Y-80517009D01*
X152773916Y-80517012D01*
X152854433Y-80558037D01*
X152872844Y-80567418D01*
X152982501Y-80584786D01*
X152982503Y-80584786D01*
X152982505Y-80584786D01*
X153092161Y-80567418D01*
X153092162Y-80567417D01*
X153092164Y-80567417D01*
X153191090Y-80517012D01*
X153269598Y-80438504D01*
X153320003Y-80339578D01*
X153320003Y-80339576D01*
X153320004Y-80339575D01*
X153337372Y-80229919D01*
X153337372Y-80229917D01*
X153336951Y-80227260D01*
X153337372Y-80224002D01*
X153337372Y-80220158D01*
X153337869Y-80220158D01*
X153345902Y-80157968D01*
X153390895Y-80104513D01*
X153440024Y-80085384D01*
X153484960Y-80078267D01*
X153545671Y-80068652D01*
X153545672Y-80068651D01*
X153545674Y-80068651D01*
X153644600Y-80018246D01*
X153723108Y-79939738D01*
X153771465Y-79844831D01*
X154899965Y-79844831D01*
X154899965Y-79844836D01*
X154917332Y-79954492D01*
X154967738Y-80053419D01*
X154967743Y-80053426D01*
X155046241Y-80131924D01*
X155046244Y-80131926D01*
X155046247Y-80131929D01*
X155123739Y-80171413D01*
X155145175Y-80182335D01*
X155254832Y-80199703D01*
X155254834Y-80199703D01*
X155254836Y-80199703D01*
X155364490Y-80182335D01*
X155364490Y-80182334D01*
X155364495Y-80182334D01*
X155441242Y-80143229D01*
X155509908Y-80130334D01*
X155553829Y-80143230D01*
X155561411Y-80147093D01*
X155561413Y-80147095D01*
X155660339Y-80197500D01*
X155660341Y-80197500D01*
X155660343Y-80197501D01*
X155769998Y-80214869D01*
X155770000Y-80214869D01*
X155770002Y-80214869D01*
X155879658Y-80197501D01*
X155879659Y-80197500D01*
X155879661Y-80197500D01*
X155978587Y-80147095D01*
X156057095Y-80068587D01*
X156072130Y-80039078D01*
X156120099Y-79988285D01*
X156187920Y-79971488D01*
X156254055Y-79994023D01*
X156293097Y-80039078D01*
X156327599Y-80106792D01*
X156327601Y-80106794D01*
X156327603Y-80106797D01*
X156406101Y-80185295D01*
X156406104Y-80185297D01*
X156406107Y-80185300D01*
X156505033Y-80235705D01*
X156505034Y-80235705D01*
X156505036Y-80235706D01*
X156505034Y-80235706D01*
X156526659Y-80239131D01*
X156589794Y-80269060D01*
X156626725Y-80328372D01*
X156629734Y-80342203D01*
X156632499Y-80359658D01*
X156632499Y-80359659D01*
X156632500Y-80359661D01*
X156650761Y-80395500D01*
X156682904Y-80458585D01*
X156682909Y-80458592D01*
X156761407Y-80537090D01*
X156761410Y-80537092D01*
X156761413Y-80537095D01*
X156860339Y-80587500D01*
X156860341Y-80587501D01*
X156969998Y-80604869D01*
X156970000Y-80604869D01*
X156970002Y-80604869D01*
X157079658Y-80587501D01*
X157079659Y-80587500D01*
X157079661Y-80587500D01*
X157178587Y-80537095D01*
X157257095Y-80458587D01*
X157307500Y-80359661D01*
X157307500Y-80359659D01*
X157307501Y-80359658D01*
X157324869Y-80250002D01*
X157324869Y-80249997D01*
X157307501Y-80140341D01*
X157297267Y-80120256D01*
X157257095Y-80041413D01*
X157257092Y-80041410D01*
X157257090Y-80041407D01*
X157178592Y-79962909D01*
X157178588Y-79962906D01*
X157178587Y-79962905D01*
X157079661Y-79912500D01*
X157079660Y-79912499D01*
X157079657Y-79912498D01*
X157079658Y-79912498D01*
X157058034Y-79909074D01*
X156994899Y-79879145D01*
X156957967Y-79819834D01*
X156954959Y-79806007D01*
X156952194Y-79788544D01*
X156932553Y-79749997D01*
X165035131Y-79749997D01*
X165035131Y-79750002D01*
X165052498Y-79859658D01*
X165102904Y-79958585D01*
X165102909Y-79958592D01*
X165181407Y-80037090D01*
X165181410Y-80037092D01*
X165181413Y-80037095D01*
X165276186Y-80085384D01*
X165280341Y-80087501D01*
X165389998Y-80104869D01*
X165390000Y-80104869D01*
X165390002Y-80104869D01*
X165499658Y-80087501D01*
X165499659Y-80087500D01*
X165499661Y-80087500D01*
X165598587Y-80037095D01*
X165677095Y-79958587D01*
X165727500Y-79859661D01*
X165727500Y-79859659D01*
X165727501Y-79859658D01*
X165744869Y-79750002D01*
X165744869Y-79749997D01*
X165727501Y-79640341D01*
X165719773Y-79625174D01*
X165677095Y-79541413D01*
X165677092Y-79541410D01*
X165677090Y-79541407D01*
X165598592Y-79462909D01*
X165598588Y-79462906D01*
X165598587Y-79462905D01*
X165562465Y-79444500D01*
X165499658Y-79412498D01*
X165390002Y-79395131D01*
X165389998Y-79395131D01*
X165280341Y-79412498D01*
X165181414Y-79462904D01*
X165181407Y-79462909D01*
X165102909Y-79541407D01*
X165102904Y-79541414D01*
X165052498Y-79640341D01*
X165035131Y-79749997D01*
X156932553Y-79749997D01*
X156901789Y-79689618D01*
X156901786Y-79689615D01*
X156901784Y-79689612D01*
X156823286Y-79611114D01*
X156823282Y-79611111D01*
X156823281Y-79611110D01*
X156819437Y-79609151D01*
X156724352Y-79560703D01*
X156614696Y-79543336D01*
X156614692Y-79543336D01*
X156505035Y-79560703D01*
X156406108Y-79611109D01*
X156406101Y-79611114D01*
X156327603Y-79689612D01*
X156327600Y-79689617D01*
X156327599Y-79689618D01*
X156312565Y-79719125D01*
X156264590Y-79769921D01*
X156196769Y-79786716D01*
X156130634Y-79764178D01*
X156091595Y-79719124D01*
X156057095Y-79651413D01*
X156057092Y-79651410D01*
X156057090Y-79651407D01*
X155978592Y-79572909D01*
X155978588Y-79572906D01*
X155978587Y-79572905D01*
X155974743Y-79570946D01*
X155879658Y-79522498D01*
X155770002Y-79505131D01*
X155769998Y-79505131D01*
X155660342Y-79522498D01*
X155583592Y-79561604D01*
X155514923Y-79574499D01*
X155471005Y-79561603D01*
X155364492Y-79507332D01*
X155254836Y-79489965D01*
X155254832Y-79489965D01*
X155145175Y-79507332D01*
X155046248Y-79557738D01*
X155046241Y-79557743D01*
X154967743Y-79636241D01*
X154967738Y-79636248D01*
X154917332Y-79735175D01*
X154899965Y-79844831D01*
X153771465Y-79844831D01*
X153773513Y-79840812D01*
X153773513Y-79840810D01*
X153773514Y-79840809D01*
X153790882Y-79731153D01*
X153790882Y-79731148D01*
X153773514Y-79621492D01*
X153748757Y-79572904D01*
X153723108Y-79522564D01*
X153723105Y-79522561D01*
X153723103Y-79522558D01*
X153644605Y-79444060D01*
X153644601Y-79444057D01*
X153644600Y-79444056D01*
X153590677Y-79416581D01*
X153545671Y-79393649D01*
X153436015Y-79376282D01*
X153436011Y-79376282D01*
X153326354Y-79393649D01*
X153227427Y-79444055D01*
X153227420Y-79444060D01*
X153148922Y-79522558D01*
X153148917Y-79522565D01*
X153098511Y-79621492D01*
X153081144Y-79731148D01*
X153081144Y-79731151D01*
X153081566Y-79733813D01*
X153081144Y-79737078D01*
X153081144Y-79740910D01*
X153080649Y-79740910D01*
X153072610Y-79803107D01*
X153027613Y-79856558D01*
X152978490Y-79875683D01*
X152872844Y-79892415D01*
X152773917Y-79942821D01*
X152773910Y-79942826D01*
X152695412Y-80021324D01*
X152695407Y-80021331D01*
X152645001Y-80120258D01*
X152627634Y-80229914D01*
X152355500Y-80229914D01*
X152355500Y-79355743D01*
X152355501Y-79355734D01*
X152355501Y-79251593D01*
X152355501Y-79251592D01*
X152335390Y-79203041D01*
X152321170Y-79168710D01*
X152257736Y-79105276D01*
X152250671Y-79098211D01*
X152250664Y-79098205D01*
X151402456Y-78249997D01*
X156055131Y-78249997D01*
X156055131Y-78250002D01*
X156072498Y-78359658D01*
X156122904Y-78458585D01*
X156122909Y-78458592D01*
X156201407Y-78537090D01*
X156201410Y-78537092D01*
X156201413Y-78537095D01*
X156257244Y-78565542D01*
X156300341Y-78587501D01*
X156409998Y-78604869D01*
X156410000Y-78604869D01*
X156410002Y-78604869D01*
X156519658Y-78587501D01*
X156519659Y-78587500D01*
X156519661Y-78587500D01*
X156618587Y-78537095D01*
X156697095Y-78458587D01*
X156747500Y-78359661D01*
X156747500Y-78359659D01*
X156747501Y-78359658D01*
X156764869Y-78250002D01*
X156764869Y-78249997D01*
X156747501Y-78140341D01*
X156719387Y-78085164D01*
X156697095Y-78041413D01*
X156697092Y-78041410D01*
X156697090Y-78041407D01*
X156618592Y-77962909D01*
X156618588Y-77962906D01*
X156618587Y-77962905D01*
X156577735Y-77942090D01*
X156519658Y-77912498D01*
X156410002Y-77895131D01*
X156409998Y-77895131D01*
X156300341Y-77912498D01*
X156201414Y-77962904D01*
X156201407Y-77962909D01*
X156122909Y-78041407D01*
X156122904Y-78041414D01*
X156072498Y-78140341D01*
X156055131Y-78249997D01*
X151402456Y-78249997D01*
X151382207Y-78229748D01*
X151382205Y-78229745D01*
X151301331Y-78148871D01*
X151268160Y-78135132D01*
X151268159Y-78135131D01*
X151218451Y-78114541D01*
X151128741Y-78114541D01*
X151114307Y-78114541D01*
X151114299Y-78114542D01*
X149899255Y-78114542D01*
X149899247Y-78114541D01*
X149884813Y-78114541D01*
X149795103Y-78114541D01*
X149795102Y-78114541D01*
X149745395Y-78135131D01*
X149745394Y-78135131D01*
X149712224Y-78148869D01*
X149712222Y-78148871D01*
X149678190Y-78182904D01*
X149648788Y-78212306D01*
X149648787Y-78212307D01*
X149611097Y-78249997D01*
X149576150Y-78284944D01*
X149514826Y-78318428D01*
X149469071Y-78319735D01*
X149440002Y-78315131D01*
X149439998Y-78315131D01*
X149330341Y-78332498D01*
X149231414Y-78382904D01*
X149231407Y-78382909D01*
X149152909Y-78461407D01*
X149152904Y-78461414D01*
X149102498Y-78560341D01*
X149085131Y-78669997D01*
X149085131Y-78670002D01*
X149102498Y-78779658D01*
X149152904Y-78878585D01*
X149152909Y-78878592D01*
X149231407Y-78957090D01*
X149231410Y-78957092D01*
X149231413Y-78957095D01*
X149330339Y-79007500D01*
X149330341Y-79007501D01*
X149439998Y-79024869D01*
X149440000Y-79024869D01*
X149440002Y-79024869D01*
X149549658Y-79007501D01*
X149549659Y-79007500D01*
X149549661Y-79007500D01*
X149648587Y-78957095D01*
X149727095Y-78878587D01*
X149777500Y-78779661D01*
X149782160Y-78750236D01*
X149812087Y-78687103D01*
X149816952Y-78681952D01*
X149837107Y-78661797D01*
X149898430Y-78628312D01*
X149968122Y-78633296D01*
X150024055Y-78675168D01*
X150047261Y-78730080D01*
X150062247Y-78824700D01*
X150112653Y-78923627D01*
X150112658Y-78923634D01*
X150191156Y-79002132D01*
X150191159Y-79002134D01*
X150191162Y-79002137D01*
X150259028Y-79036716D01*
X150290090Y-79052543D01*
X150403727Y-79070541D01*
X150466861Y-79100470D01*
X150478181Y-79118650D01*
X150478297Y-79110570D01*
X150516907Y-79052338D01*
X150540464Y-79036719D01*
X150608336Y-79002137D01*
X150610134Y-79000339D01*
X150633613Y-78976861D01*
X150694936Y-78943376D01*
X150721294Y-78940542D01*
X151050275Y-78940542D01*
X151117314Y-78960227D01*
X151137956Y-78976861D01*
X151175405Y-79014310D01*
X151208890Y-79075633D01*
X151203906Y-79145325D01*
X151175405Y-79189672D01*
X151092905Y-79272171D01*
X151075138Y-79307041D01*
X151052335Y-79338425D01*
X151008987Y-79381773D01*
X150947664Y-79415258D01*
X150877972Y-79410274D01*
X150833624Y-79381772D01*
X150789935Y-79338082D01*
X150789929Y-79338078D01*
X150729015Y-79307041D01*
X150691005Y-79287674D01*
X150691004Y-79287673D01*
X150691001Y-79287672D01*
X150691002Y-79287672D01*
X150577365Y-79269674D01*
X150514230Y-79239745D01*
X150502910Y-79221565D01*
X150502795Y-79229644D01*
X150464186Y-79287877D01*
X150440625Y-79303498D01*
X150372758Y-79338078D01*
X150372751Y-79338083D01*
X150294253Y-79416581D01*
X150294248Y-79416588D01*
X150243842Y-79515515D01*
X150226475Y-79625171D01*
X150226475Y-79625176D01*
X150243842Y-79734832D01*
X150294248Y-79833759D01*
X150294253Y-79833766D01*
X150372751Y-79912264D01*
X150372754Y-79912266D01*
X150372757Y-79912269D01*
X150455625Y-79954492D01*
X150471685Y-79962675D01*
X150589898Y-79981398D01*
X150653033Y-80011327D01*
X150689964Y-80070639D01*
X150694500Y-80103871D01*
X150694500Y-80805232D01*
X150674815Y-80872271D01*
X150658181Y-80892913D01*
X149813829Y-81737264D01*
X149803774Y-81761537D01*
X149803774Y-81761539D01*
X149802832Y-81763814D01*
X149779499Y-81820143D01*
X149779499Y-81924288D01*
X149779500Y-81924297D01*
X149779500Y-82783739D01*
X149759815Y-82850778D01*
X149707011Y-82896533D01*
X149637853Y-82906477D01*
X149599206Y-82894224D01*
X149584994Y-82886982D01*
X149475338Y-82869615D01*
X149475332Y-82869615D01*
X149358138Y-82888176D01*
X149288845Y-82879221D01*
X149235393Y-82834225D01*
X149228700Y-82822758D01*
X149228512Y-82822499D01*
X149228511Y-82822497D01*
X149228508Y-82822494D01*
X149228506Y-82822491D01*
X149150008Y-82743993D01*
X149150004Y-82743990D01*
X149150003Y-82743989D01*
X149118087Y-82727727D01*
X149051074Y-82693582D01*
X148941418Y-82676215D01*
X148941414Y-82676215D01*
X148831757Y-82693582D01*
X148732830Y-82743988D01*
X148732823Y-82743993D01*
X148654325Y-82822491D01*
X148654320Y-82822498D01*
X148603915Y-82921425D01*
X148586551Y-83031052D01*
X148556621Y-83094186D01*
X148551759Y-83099334D01*
X146892265Y-84758829D01*
X146828830Y-84822263D01*
X146828830Y-84822265D01*
X146794499Y-84905144D01*
X146794499Y-85009288D01*
X146794500Y-85009297D01*
X146794500Y-85625233D01*
X146774815Y-85692272D01*
X146758181Y-85712914D01*
X146482914Y-85988181D01*
X146421591Y-86021666D01*
X146395233Y-86024500D01*
X145341924Y-86024500D01*
X145274885Y-86004815D01*
X145229130Y-85952011D01*
X145219186Y-85882853D01*
X145222149Y-85868406D01*
X145229382Y-85841413D01*
X145250500Y-85762601D01*
X145250500Y-85637399D01*
X145218095Y-85516464D01*
X145155495Y-85408036D01*
X145066964Y-85319505D01*
X144958536Y-85256905D01*
X144958537Y-85256905D01*
X144895454Y-85240002D01*
X144837601Y-85224500D01*
X144712399Y-85224500D01*
X144654546Y-85240002D01*
X144591463Y-85256905D01*
X144483037Y-85319504D01*
X144483034Y-85319506D01*
X144394506Y-85408034D01*
X144394504Y-85408037D01*
X144331905Y-85516463D01*
X144331905Y-85516464D01*
X144299500Y-85637399D01*
X144299500Y-85762601D01*
X144320618Y-85841413D01*
X144327851Y-85868406D01*
X144326188Y-85938256D01*
X144287026Y-85996119D01*
X144222797Y-86023623D01*
X144208076Y-86024500D01*
X143429297Y-86024500D01*
X143429289Y-86024499D01*
X143414855Y-86024499D01*
X143325146Y-86024499D01*
X143325145Y-86024499D01*
X143325141Y-86024500D01*
X143288932Y-86039499D01*
X143288931Y-86039500D01*
X143242263Y-86058830D01*
X143242262Y-86058831D01*
X143178829Y-86122265D01*
X141391220Y-87909873D01*
X141329897Y-87943358D01*
X141322937Y-87944665D01*
X141210341Y-87962498D01*
X141111414Y-88012904D01*
X141111407Y-88012909D01*
X141032909Y-88091407D01*
X141032904Y-88091414D01*
X140982498Y-88190341D01*
X140965131Y-88299997D01*
X140090500Y-88299997D01*
X140090500Y-85239997D01*
X143235131Y-85239997D01*
X143235131Y-85240002D01*
X143252498Y-85349658D01*
X143302904Y-85448585D01*
X143302909Y-85448592D01*
X143381407Y-85527090D01*
X143381410Y-85527092D01*
X143381413Y-85527095D01*
X143416238Y-85544839D01*
X143480341Y-85577501D01*
X143589998Y-85594869D01*
X143590000Y-85594869D01*
X143590002Y-85594869D01*
X143699658Y-85577501D01*
X143699659Y-85577500D01*
X143699661Y-85577500D01*
X143798587Y-85527095D01*
X143877095Y-85448587D01*
X143927500Y-85349661D01*
X143927500Y-85349659D01*
X143927501Y-85349658D01*
X143944869Y-85240002D01*
X143944869Y-85239997D01*
X143927501Y-85130341D01*
X143914929Y-85105667D01*
X143877095Y-85031413D01*
X143877092Y-85031410D01*
X143877090Y-85031407D01*
X143798592Y-84952909D01*
X143798588Y-84952906D01*
X143798587Y-84952905D01*
X143794743Y-84950946D01*
X143699658Y-84902498D01*
X143590002Y-84885131D01*
X143589998Y-84885131D01*
X143480341Y-84902498D01*
X143381414Y-84952904D01*
X143381407Y-84952909D01*
X143302909Y-85031407D01*
X143302904Y-85031414D01*
X143252498Y-85130341D01*
X143235131Y-85239997D01*
X140090500Y-85239997D01*
X140090500Y-84069997D01*
X141390131Y-84069997D01*
X141390131Y-84070002D01*
X141407498Y-84179658D01*
X141457904Y-84278585D01*
X141457909Y-84278592D01*
X141536407Y-84357090D01*
X141536410Y-84357092D01*
X141536413Y-84357095D01*
X141635339Y-84407500D01*
X141635341Y-84407501D01*
X141744998Y-84424869D01*
X141745000Y-84424869D01*
X141745002Y-84424869D01*
X141854658Y-84407501D01*
X141854659Y-84407500D01*
X141854661Y-84407500D01*
X141953587Y-84357095D01*
X142032095Y-84278587D01*
X142082500Y-84179661D01*
X142082500Y-84179659D01*
X142082501Y-84179658D01*
X142099869Y-84070002D01*
X142099869Y-84069997D01*
X142082501Y-83960341D01*
X142063514Y-83923077D01*
X142032095Y-83861413D01*
X142032092Y-83861410D01*
X142032090Y-83861407D01*
X141953592Y-83782909D01*
X141953588Y-83782906D01*
X141953587Y-83782905D01*
X141886230Y-83748585D01*
X141854658Y-83732498D01*
X141745002Y-83715131D01*
X141744998Y-83715131D01*
X141635341Y-83732498D01*
X141536414Y-83782904D01*
X141536407Y-83782909D01*
X141457909Y-83861407D01*
X141457904Y-83861414D01*
X141407498Y-83960341D01*
X141390131Y-84069997D01*
X140090500Y-84069997D01*
X140090500Y-83649997D01*
X144715131Y-83649997D01*
X144715131Y-83650002D01*
X144732498Y-83759658D01*
X144782904Y-83858585D01*
X144782909Y-83858592D01*
X144861407Y-83937090D01*
X144861410Y-83937092D01*
X144861413Y-83937095D01*
X144943863Y-83979105D01*
X144960341Y-83987501D01*
X145069998Y-84004869D01*
X145070000Y-84004869D01*
X145070002Y-84004869D01*
X145179658Y-83987501D01*
X145179659Y-83987500D01*
X145179661Y-83987500D01*
X145278587Y-83937095D01*
X145357095Y-83858587D01*
X145407500Y-83759661D01*
X145407500Y-83759659D01*
X145407501Y-83759658D01*
X145424869Y-83650002D01*
X145424869Y-83649997D01*
X145407501Y-83540341D01*
X145379378Y-83485146D01*
X145357095Y-83441413D01*
X145357092Y-83441410D01*
X145357090Y-83441407D01*
X145278592Y-83362909D01*
X145278588Y-83362906D01*
X145278587Y-83362905D01*
X145270112Y-83358587D01*
X145179658Y-83312498D01*
X145070002Y-83295131D01*
X145069998Y-83295131D01*
X144960341Y-83312498D01*
X144861414Y-83362904D01*
X144861407Y-83362909D01*
X144782909Y-83441407D01*
X144782904Y-83441414D01*
X144732498Y-83540341D01*
X144715131Y-83649997D01*
X140090500Y-83649997D01*
X140090500Y-83181029D01*
X140099036Y-83151957D01*
X140096393Y-83145944D01*
X140333381Y-83145944D01*
X140333477Y-83146094D01*
X140336973Y-83161631D01*
X140352498Y-83259658D01*
X140402904Y-83358585D01*
X140402909Y-83358592D01*
X140481407Y-83437090D01*
X140481410Y-83437092D01*
X140481413Y-83437095D01*
X140575719Y-83485146D01*
X140580341Y-83487501D01*
X140689998Y-83504869D01*
X140690000Y-83504869D01*
X140690002Y-83504869D01*
X140799658Y-83487501D01*
X140799659Y-83487500D01*
X140799661Y-83487500D01*
X140898587Y-83437095D01*
X140977095Y-83358587D01*
X141027500Y-83259661D01*
X141027500Y-83259659D01*
X141027501Y-83259658D01*
X141044869Y-83150002D01*
X141044869Y-83149997D01*
X141027501Y-83040341D01*
X141015046Y-83015897D01*
X140977095Y-82941413D01*
X140977092Y-82941410D01*
X140977090Y-82941407D01*
X140898592Y-82862909D01*
X140898588Y-82862906D01*
X140898587Y-82862905D01*
X140842299Y-82834225D01*
X140799658Y-82812498D01*
X140690002Y-82795131D01*
X140689998Y-82795131D01*
X140580341Y-82812498D01*
X140481414Y-82862904D01*
X140481407Y-82862909D01*
X140402909Y-82941407D01*
X140402904Y-82941414D01*
X140352498Y-83040341D01*
X140336973Y-83138368D01*
X140333381Y-83145944D01*
X140096393Y-83145944D01*
X140091523Y-83134863D01*
X140090500Y-83118970D01*
X140090500Y-82169997D01*
X141390131Y-82169997D01*
X141390131Y-82170002D01*
X141407498Y-82279658D01*
X141457904Y-82378585D01*
X141457909Y-82378592D01*
X141536407Y-82457090D01*
X141536410Y-82457092D01*
X141536413Y-82457095D01*
X141634099Y-82506868D01*
X141635341Y-82507501D01*
X141744998Y-82524869D01*
X141745000Y-82524869D01*
X141745002Y-82524869D01*
X141854658Y-82507501D01*
X141854659Y-82507500D01*
X141854661Y-82507500D01*
X141953587Y-82457095D01*
X142032095Y-82378587D01*
X142082500Y-82279661D01*
X142082500Y-82279659D01*
X142082501Y-82279658D01*
X142099869Y-82170002D01*
X142099869Y-82169997D01*
X142085614Y-82079997D01*
X144745131Y-82079997D01*
X144745131Y-82080002D01*
X144762498Y-82189658D01*
X144812904Y-82288585D01*
X144812909Y-82288592D01*
X144891407Y-82367090D01*
X144891410Y-82367092D01*
X144891413Y-82367095D01*
X144971580Y-82407942D01*
X144990341Y-82417501D01*
X145099998Y-82434869D01*
X145100000Y-82434869D01*
X145100002Y-82434869D01*
X145209658Y-82417501D01*
X145209659Y-82417500D01*
X145209661Y-82417500D01*
X145308587Y-82367095D01*
X145387095Y-82288587D01*
X145437500Y-82189661D01*
X145437500Y-82189659D01*
X145437501Y-82189658D01*
X145454869Y-82080002D01*
X145454869Y-82079997D01*
X145437501Y-81970341D01*
X145435326Y-81966072D01*
X145387095Y-81871413D01*
X145387092Y-81871410D01*
X145387090Y-81871407D01*
X145308592Y-81792909D01*
X145308588Y-81792906D01*
X145308587Y-81792905D01*
X145285577Y-81781181D01*
X145209658Y-81742498D01*
X145100002Y-81725131D01*
X145099998Y-81725131D01*
X144990341Y-81742498D01*
X144891414Y-81792904D01*
X144891407Y-81792909D01*
X144812909Y-81871407D01*
X144812904Y-81871414D01*
X144762498Y-81970341D01*
X144745131Y-82079997D01*
X142085614Y-82079997D01*
X142082501Y-82060341D01*
X142056353Y-82009022D01*
X142032095Y-81961413D01*
X142032092Y-81961410D01*
X142032090Y-81961407D01*
X141953592Y-81882909D01*
X141953588Y-81882906D01*
X141953587Y-81882905D01*
X141931021Y-81871407D01*
X141854658Y-81832498D01*
X141745002Y-81815131D01*
X141744998Y-81815131D01*
X141635341Y-81832498D01*
X141536414Y-81882904D01*
X141536407Y-81882909D01*
X141457909Y-81961407D01*
X141457904Y-81961414D01*
X141407498Y-82060341D01*
X141390131Y-82169997D01*
X140090500Y-82169997D01*
X140090500Y-80379997D01*
X143225131Y-80379997D01*
X143225131Y-80380002D01*
X143242498Y-80489658D01*
X143292904Y-80588585D01*
X143292909Y-80588592D01*
X143371407Y-80667090D01*
X143371410Y-80667092D01*
X143371413Y-80667095D01*
X143470339Y-80717500D01*
X143470341Y-80717501D01*
X143579998Y-80734869D01*
X143580000Y-80734869D01*
X143580002Y-80734869D01*
X143689658Y-80717501D01*
X143689659Y-80717500D01*
X143689661Y-80717500D01*
X143788587Y-80667095D01*
X143867095Y-80588587D01*
X143917500Y-80489661D01*
X143917500Y-80489659D01*
X143917501Y-80489658D01*
X143934869Y-80380002D01*
X143934869Y-80379997D01*
X143917501Y-80270341D01*
X143896904Y-80229917D01*
X143867095Y-80171413D01*
X143867092Y-80171410D01*
X143867090Y-80171407D01*
X143788592Y-80092909D01*
X143788588Y-80092906D01*
X143788587Y-80092905D01*
X143773826Y-80085384D01*
X143689658Y-80042498D01*
X143580002Y-80025131D01*
X143579998Y-80025131D01*
X143470341Y-80042498D01*
X143371414Y-80092904D01*
X143371407Y-80092909D01*
X143292909Y-80171407D01*
X143292904Y-80171414D01*
X143242498Y-80270341D01*
X143225131Y-80379997D01*
X140090500Y-80379997D01*
X140090500Y-79857399D01*
X144299500Y-79857399D01*
X144299500Y-79982601D01*
X144331905Y-80103536D01*
X144394505Y-80211964D01*
X144483036Y-80300495D01*
X144591464Y-80363095D01*
X144712399Y-80395500D01*
X144712401Y-80395500D01*
X144837599Y-80395500D01*
X144837601Y-80395500D01*
X144958536Y-80363095D01*
X145066964Y-80300495D01*
X145155495Y-80211964D01*
X145218095Y-80103536D01*
X145250500Y-79982601D01*
X145250500Y-79857399D01*
X145218095Y-79736464D01*
X145155495Y-79628036D01*
X145066964Y-79539505D01*
X144958536Y-79476905D01*
X144958537Y-79476905D01*
X144906284Y-79462904D01*
X144837601Y-79444500D01*
X144712399Y-79444500D01*
X144643716Y-79462904D01*
X144591463Y-79476905D01*
X144483037Y-79539504D01*
X144483034Y-79539506D01*
X144394506Y-79628034D01*
X144394504Y-79628037D01*
X144331905Y-79736463D01*
X144328279Y-79749997D01*
X144299500Y-79857399D01*
X140090500Y-79857399D01*
X140090500Y-79109997D01*
X148045131Y-79109997D01*
X148045131Y-79110002D01*
X148062498Y-79219658D01*
X148112904Y-79318585D01*
X148112909Y-79318592D01*
X148191407Y-79397090D01*
X148191410Y-79397092D01*
X148191413Y-79397095D01*
X148283578Y-79444055D01*
X148290341Y-79447501D01*
X148399998Y-79464869D01*
X148400000Y-79464869D01*
X148400002Y-79464869D01*
X148509658Y-79447501D01*
X148509659Y-79447500D01*
X148509661Y-79447500D01*
X148608587Y-79397095D01*
X148687095Y-79318587D01*
X148737500Y-79219661D01*
X148737500Y-79219659D01*
X148737501Y-79219658D01*
X148754869Y-79110002D01*
X148754869Y-79109997D01*
X148737501Y-79000341D01*
X148715466Y-78957095D01*
X148687095Y-78901413D01*
X148687092Y-78901410D01*
X148687090Y-78901407D01*
X148678363Y-78892680D01*
X148644878Y-78831357D01*
X148649862Y-78761665D01*
X148678362Y-78717319D01*
X148697095Y-78698587D01*
X148747500Y-78599661D01*
X148747500Y-78599659D01*
X148747501Y-78599658D01*
X148764869Y-78490002D01*
X148764869Y-78489997D01*
X148747501Y-78380341D01*
X148743297Y-78372090D01*
X148697095Y-78281413D01*
X148697092Y-78281410D01*
X148697090Y-78281407D01*
X148618592Y-78202909D01*
X148618588Y-78202906D01*
X148618587Y-78202905D01*
X148602401Y-78194658D01*
X148519658Y-78152498D01*
X148410002Y-78135131D01*
X148409998Y-78135131D01*
X148300341Y-78152498D01*
X148201414Y-78202904D01*
X148201407Y-78202909D01*
X148122909Y-78281407D01*
X148122904Y-78281414D01*
X148072498Y-78380341D01*
X148055131Y-78489997D01*
X148055131Y-78490002D01*
X148072498Y-78599658D01*
X148122904Y-78698585D01*
X148122909Y-78698592D01*
X148131636Y-78707319D01*
X148165121Y-78768642D01*
X148160137Y-78838334D01*
X148131636Y-78882681D01*
X148112909Y-78901407D01*
X148112904Y-78901414D01*
X148062498Y-79000341D01*
X148045131Y-79109997D01*
X140090500Y-79109997D01*
X140090500Y-78469997D01*
X146685131Y-78469997D01*
X146685131Y-78470002D01*
X146702498Y-78579658D01*
X146752904Y-78678585D01*
X146752909Y-78678592D01*
X146831407Y-78757090D01*
X146831410Y-78757092D01*
X146831413Y-78757095D01*
X146875696Y-78779658D01*
X146930341Y-78807501D01*
X147039998Y-78824869D01*
X147040000Y-78824869D01*
X147040002Y-78824869D01*
X147149658Y-78807501D01*
X147149659Y-78807500D01*
X147149661Y-78807500D01*
X147248587Y-78757095D01*
X147327095Y-78678587D01*
X147377500Y-78579661D01*
X147384895Y-78532968D01*
X147414823Y-78469837D01*
X147474134Y-78432905D01*
X147487955Y-78429897D01*
X147534661Y-78422500D01*
X147633587Y-78372095D01*
X147712095Y-78293587D01*
X147762500Y-78194661D01*
X147762500Y-78194659D01*
X147762501Y-78194658D01*
X147779869Y-78085002D01*
X147779869Y-78084997D01*
X147762501Y-77975341D01*
X147729356Y-77910290D01*
X147712095Y-77876413D01*
X147712092Y-77876410D01*
X147712090Y-77876407D01*
X147633592Y-77797909D01*
X147633588Y-77797906D01*
X147633587Y-77797905D01*
X147568336Y-77764658D01*
X147534658Y-77747498D01*
X147425002Y-77730131D01*
X147424998Y-77730131D01*
X147315341Y-77747498D01*
X147216414Y-77797904D01*
X147216407Y-77797909D01*
X147137909Y-77876407D01*
X147137904Y-77876414D01*
X147087499Y-77975341D01*
X147080104Y-78022030D01*
X147050174Y-78085164D01*
X146990863Y-78122095D01*
X146977030Y-78125104D01*
X146930341Y-78132499D01*
X146831414Y-78182904D01*
X146831407Y-78182909D01*
X146752909Y-78261407D01*
X146752904Y-78261414D01*
X146702498Y-78360341D01*
X146685131Y-78469997D01*
X140090500Y-78469997D01*
X140090500Y-77654997D01*
X154390131Y-77654997D01*
X154390131Y-77655002D01*
X154407498Y-77764658D01*
X154457904Y-77863585D01*
X154457909Y-77863592D01*
X154536407Y-77942090D01*
X154536410Y-77942092D01*
X154536413Y-77942095D01*
X154635339Y-77992500D01*
X154635341Y-77992501D01*
X154744998Y-78009869D01*
X154745000Y-78009869D01*
X154745002Y-78009869D01*
X154854658Y-77992501D01*
X154854659Y-77992500D01*
X154854661Y-77992500D01*
X154953587Y-77942095D01*
X154962585Y-77933097D01*
X155023907Y-77899610D01*
X155093599Y-77904592D01*
X155106551Y-77910284D01*
X155140339Y-77927500D01*
X155140341Y-77927500D01*
X155140343Y-77927501D01*
X155249998Y-77944869D01*
X155250000Y-77944869D01*
X155250002Y-77944869D01*
X155359658Y-77927501D01*
X155359659Y-77927500D01*
X155359661Y-77927500D01*
X155458587Y-77877095D01*
X155459335Y-77876346D01*
X155460467Y-77875728D01*
X155466486Y-77871356D01*
X155467050Y-77872133D01*
X155520654Y-77842860D01*
X155590346Y-77847839D01*
X155603297Y-77853531D01*
X155650339Y-77877500D01*
X155650341Y-77877500D01*
X155650343Y-77877501D01*
X155759998Y-77894869D01*
X155760000Y-77894869D01*
X155760002Y-77894869D01*
X155869658Y-77877501D01*
X155869659Y-77877500D01*
X155869661Y-77877500D01*
X155968587Y-77827095D01*
X156047095Y-77748587D01*
X156097500Y-77649661D01*
X156097500Y-77649659D01*
X156097501Y-77649658D01*
X156114869Y-77540002D01*
X156114869Y-77539997D01*
X156100614Y-77449997D01*
X163995131Y-77449997D01*
X163995131Y-77450002D01*
X164012498Y-77559658D01*
X164062904Y-77658585D01*
X164062909Y-77658592D01*
X164141407Y-77737090D01*
X164141410Y-77737092D01*
X164141413Y-77737095D01*
X164195509Y-77764658D01*
X164240341Y-77787501D01*
X164349998Y-77804869D01*
X164350000Y-77804869D01*
X164350002Y-77804869D01*
X164459658Y-77787501D01*
X164459659Y-77787500D01*
X164459661Y-77787500D01*
X164558587Y-77737095D01*
X164637095Y-77658587D01*
X164687500Y-77559661D01*
X164687500Y-77559659D01*
X164687501Y-77559658D01*
X164704869Y-77450002D01*
X164704869Y-77449997D01*
X164687501Y-77340341D01*
X164687500Y-77340339D01*
X164637095Y-77241413D01*
X164637092Y-77241410D01*
X164637090Y-77241407D01*
X164558592Y-77162909D01*
X164558588Y-77162906D01*
X164558587Y-77162905D01*
X164550884Y-77158980D01*
X164459658Y-77112498D01*
X164350002Y-77095131D01*
X164349998Y-77095131D01*
X164240341Y-77112498D01*
X164141414Y-77162904D01*
X164141407Y-77162909D01*
X164062909Y-77241407D01*
X164062904Y-77241414D01*
X164012498Y-77340341D01*
X163995131Y-77449997D01*
X156100614Y-77449997D01*
X156097501Y-77430341D01*
X156097500Y-77430339D01*
X156047095Y-77331413D01*
X156047092Y-77331410D01*
X156047090Y-77331407D01*
X155968592Y-77252909D01*
X155968588Y-77252906D01*
X155968587Y-77252905D01*
X155946021Y-77241407D01*
X155869658Y-77202498D01*
X155783867Y-77188910D01*
X155720732Y-77158980D01*
X155683802Y-77099668D01*
X155680793Y-77085834D01*
X155662501Y-76970342D01*
X155662500Y-76970340D01*
X155662500Y-76970339D01*
X155612095Y-76871413D01*
X155612092Y-76871410D01*
X155612090Y-76871407D01*
X155533592Y-76792909D01*
X155533588Y-76792906D01*
X155533587Y-76792905D01*
X155498189Y-76774869D01*
X155434658Y-76742498D01*
X155325002Y-76725131D01*
X155324998Y-76725131D01*
X155215341Y-76742498D01*
X155116414Y-76792904D01*
X155116407Y-76792909D01*
X155037909Y-76871407D01*
X155037904Y-76871414D01*
X154987498Y-76970341D01*
X154970131Y-77079997D01*
X154970131Y-77080002D01*
X154984987Y-77173799D01*
X154976032Y-77243093D01*
X154931036Y-77296544D01*
X154864285Y-77317184D01*
X154843117Y-77315670D01*
X154745004Y-77300131D01*
X154744998Y-77300131D01*
X154635341Y-77317498D01*
X154536414Y-77367904D01*
X154536407Y-77367909D01*
X154457909Y-77446407D01*
X154457904Y-77446414D01*
X154407498Y-77545341D01*
X154390131Y-77654997D01*
X140090500Y-77654997D01*
X140090500Y-76754000D01*
X140110185Y-76686961D01*
X140162989Y-76641206D01*
X140214500Y-76630000D01*
X147168638Y-76630000D01*
X147202694Y-76640000D01*
X147230000Y-76640000D01*
X153070000Y-76640000D01*
X153070000Y-73634500D01*
X153089685Y-73567461D01*
X153142489Y-73521706D01*
X153194000Y-73510500D01*
X153337013Y-73510500D01*
X153404052Y-73530185D01*
G37*
%TD.AperFunction*%
%TD*%
%TA.AperFunction,Conductor*%
%TO.N,+5V*%
G36*
X176527459Y-72847841D02*
G01*
X176594439Y-72867709D01*
X176640049Y-72920638D01*
X176649803Y-72989824D01*
X176620604Y-73053300D01*
X176614796Y-73059520D01*
X176582909Y-73091407D01*
X176582904Y-73091414D01*
X176532498Y-73190341D01*
X176515131Y-73299997D01*
X176515131Y-73300002D01*
X176532498Y-73409658D01*
X176582904Y-73508585D01*
X176582909Y-73508592D01*
X176661407Y-73587090D01*
X176661410Y-73587092D01*
X176661413Y-73587095D01*
X176715923Y-73614869D01*
X176760341Y-73637501D01*
X176869998Y-73654869D01*
X176870000Y-73654869D01*
X176870002Y-73654869D01*
X176979658Y-73637501D01*
X176979659Y-73637500D01*
X176979661Y-73637500D01*
X177078587Y-73587095D01*
X177157095Y-73508587D01*
X177207500Y-73409661D01*
X177207500Y-73409659D01*
X177207501Y-73409658D01*
X177224869Y-73300002D01*
X177224869Y-73299997D01*
X177207501Y-73190341D01*
X177187119Y-73150339D01*
X177157095Y-73091413D01*
X177157092Y-73091410D01*
X177157090Y-73091407D01*
X177127091Y-73061408D01*
X177093606Y-73000085D01*
X177098590Y-72930393D01*
X177140462Y-72874460D01*
X177205926Y-72850043D01*
X177215063Y-72849728D01*
X177567973Y-72850697D01*
X177634955Y-72870565D01*
X177654570Y-72889886D01*
X177656164Y-72888293D01*
X177664800Y-72896929D01*
X177693071Y-72925200D01*
X177730009Y-72940500D01*
X177769991Y-72940500D01*
X183851783Y-72940500D01*
X183918822Y-72960185D01*
X183964577Y-73012989D01*
X183974521Y-73082147D01*
X183965368Y-73111015D01*
X183965514Y-73111063D01*
X183962499Y-73120340D01*
X183945131Y-73229997D01*
X183945131Y-73230002D01*
X183962498Y-73339658D01*
X184012904Y-73438585D01*
X184012909Y-73438592D01*
X184091407Y-73517090D01*
X184091410Y-73517092D01*
X184091413Y-73517095D01*
X184150292Y-73547095D01*
X184190341Y-73567501D01*
X184299998Y-73584869D01*
X184300000Y-73584869D01*
X184300002Y-73584869D01*
X184409658Y-73567501D01*
X184409659Y-73567500D01*
X184409661Y-73567500D01*
X184508587Y-73517095D01*
X184587095Y-73438587D01*
X184637500Y-73339661D01*
X184637500Y-73339659D01*
X184637501Y-73339658D01*
X184654869Y-73230002D01*
X184654869Y-73229997D01*
X184637500Y-73120340D01*
X184634486Y-73111063D01*
X184635822Y-73110628D01*
X184624837Y-73052120D01*
X184651116Y-72987381D01*
X184708224Y-72947126D01*
X184748217Y-72940500D01*
X185553763Y-72940500D01*
X185620802Y-72960185D01*
X185666557Y-73012989D01*
X185676501Y-73082147D01*
X185672987Y-73097258D01*
X185655131Y-73209997D01*
X185655131Y-73210002D01*
X185672498Y-73319658D01*
X185722904Y-73418585D01*
X185722909Y-73418592D01*
X185801407Y-73497090D01*
X185801410Y-73497092D01*
X185801413Y-73497095D01*
X185863220Y-73528587D01*
X185900341Y-73547501D01*
X186009998Y-73564869D01*
X186010000Y-73564869D01*
X186010002Y-73564869D01*
X186119658Y-73547501D01*
X186119659Y-73547500D01*
X186119661Y-73547500D01*
X186218587Y-73497095D01*
X186297095Y-73418587D01*
X186347500Y-73319661D01*
X186347500Y-73319659D01*
X186347501Y-73319658D01*
X186364869Y-73210002D01*
X186364869Y-73209997D01*
X186345974Y-73090700D01*
X186347950Y-73090387D01*
X186346311Y-73032975D01*
X186382393Y-72973143D01*
X186445094Y-72942316D01*
X186466237Y-72940500D01*
X187227013Y-72940500D01*
X187294052Y-72960185D01*
X187339807Y-73012989D01*
X187349751Y-73082147D01*
X187344943Y-73102823D01*
X187342498Y-73110346D01*
X187325131Y-73219997D01*
X187325131Y-73220002D01*
X187342498Y-73329658D01*
X187392904Y-73428585D01*
X187392909Y-73428592D01*
X187471407Y-73507090D01*
X187471410Y-73507092D01*
X187471413Y-73507095D01*
X187513594Y-73528587D01*
X187570341Y-73557501D01*
X187679998Y-73574869D01*
X187680000Y-73574869D01*
X187680002Y-73574869D01*
X187789658Y-73557501D01*
X187789659Y-73557500D01*
X187789661Y-73557500D01*
X187888587Y-73507095D01*
X187967095Y-73428587D01*
X188017500Y-73329661D01*
X188017500Y-73329659D01*
X188017501Y-73329658D01*
X188034869Y-73220002D01*
X188034869Y-73219997D01*
X188017501Y-73110346D01*
X188017500Y-73110339D01*
X188017496Y-73110332D01*
X188015057Y-73102823D01*
X188013060Y-73032981D01*
X188049138Y-72973147D01*
X188111838Y-72942317D01*
X188132987Y-72940500D01*
X188921046Y-72940500D01*
X188988085Y-72960185D01*
X189033840Y-73012989D01*
X189043784Y-73082147D01*
X189043519Y-73083897D01*
X189025131Y-73199996D01*
X189025131Y-73200002D01*
X189042498Y-73309658D01*
X189092904Y-73408585D01*
X189092909Y-73408592D01*
X189171407Y-73487090D01*
X189171410Y-73487092D01*
X189171413Y-73487095D01*
X189230282Y-73517090D01*
X189270341Y-73537501D01*
X189379998Y-73554869D01*
X189380000Y-73554869D01*
X189380002Y-73554869D01*
X189489658Y-73537501D01*
X189489659Y-73537500D01*
X189489661Y-73537500D01*
X189588587Y-73487095D01*
X189667095Y-73408587D01*
X189717500Y-73309661D01*
X189717500Y-73309659D01*
X189717501Y-73309658D01*
X189734869Y-73200002D01*
X189734869Y-73199996D01*
X189716481Y-73083897D01*
X189725436Y-73014604D01*
X189770432Y-72961152D01*
X189837184Y-72940513D01*
X189838954Y-72940500D01*
X189919989Y-72940500D01*
X189919991Y-72940500D01*
X189956929Y-72925200D01*
X189960863Y-72921265D01*
X190022181Y-72887781D01*
X190048869Y-72884947D01*
X191842398Y-72889869D01*
X191909383Y-72909738D01*
X191925287Y-72921952D01*
X192536870Y-73475733D01*
X192564123Y-73511352D01*
X192572905Y-73528587D01*
X192651413Y-73607095D01*
X192706531Y-73635178D01*
X192733457Y-73653740D01*
X193877878Y-74689999D01*
X194446026Y-75204450D01*
X194473280Y-75240071D01*
X194492905Y-75278587D01*
X194571413Y-75357095D01*
X194655479Y-75399928D01*
X194682410Y-75418493D01*
X195028731Y-75732082D01*
X195065212Y-75791670D01*
X195069500Y-75823998D01*
X195069500Y-78249992D01*
X195084799Y-78286928D01*
X195121707Y-78323836D01*
X195118514Y-78327028D01*
X195147799Y-78361994D01*
X195149717Y-78371291D01*
X195158303Y-78380000D01*
X196076004Y-78388809D01*
X196142850Y-78409136D01*
X196188096Y-78462377D01*
X196198806Y-78513997D01*
X196191180Y-79305888D01*
X196170851Y-79372735D01*
X196117609Y-79417979D01*
X196067364Y-79428694D01*
X195156746Y-79429999D01*
X195156745Y-79430000D01*
X195149949Y-81034983D01*
X195129981Y-81101939D01*
X195107720Y-81125411D01*
X195108313Y-81126004D01*
X195022909Y-81211407D01*
X195022904Y-81211414D01*
X194972498Y-81310341D01*
X194955131Y-81419997D01*
X194955131Y-81420002D01*
X194972498Y-81529658D01*
X195023463Y-81629682D01*
X195036359Y-81698351D01*
X195010082Y-81763091D01*
X195003977Y-81769937D01*
X195002904Y-81771414D01*
X194952498Y-81870341D01*
X194935131Y-81979997D01*
X194935131Y-81980002D01*
X194952498Y-82089658D01*
X194991142Y-82165500D01*
X195002905Y-82188587D01*
X195081413Y-82267095D01*
X195081416Y-82267096D01*
X195089310Y-82272832D01*
X195087719Y-82275020D01*
X195127680Y-82312750D01*
X195144597Y-82375759D01*
X195140000Y-83554816D01*
X195138675Y-84967949D01*
X195118928Y-85034970D01*
X195102357Y-85055513D01*
X195074799Y-85083070D01*
X195074799Y-85083071D01*
X195059500Y-85120007D01*
X195059500Y-85120009D01*
X195059500Y-88839991D01*
X195074800Y-88876929D01*
X195098592Y-88900721D01*
X195132076Y-88962045D01*
X195134909Y-88988517D01*
X195134750Y-89158138D01*
X195121235Y-89214316D01*
X195082498Y-89290341D01*
X195065131Y-89399997D01*
X195065131Y-89400002D01*
X195082498Y-89509658D01*
X195120782Y-89584795D01*
X195134297Y-89641205D01*
X195130677Y-93505748D01*
X195110930Y-93572769D01*
X195058083Y-93618475D01*
X194988915Y-93628353D01*
X194925387Y-93599269D01*
X194918996Y-93593313D01*
X194898592Y-93572909D01*
X194898588Y-93572906D01*
X194898587Y-93572905D01*
X194867558Y-93557095D01*
X194799658Y-93522498D01*
X194690002Y-93505131D01*
X194689998Y-93505131D01*
X194580341Y-93522498D01*
X194481414Y-93572904D01*
X194481407Y-93572909D01*
X194402909Y-93651407D01*
X194402904Y-93651414D01*
X194352498Y-93750341D01*
X194335131Y-93859997D01*
X194335131Y-93860003D01*
X194353384Y-93975253D01*
X194344429Y-94044546D01*
X194299433Y-94097998D01*
X194232681Y-94118637D01*
X194230870Y-94118650D01*
X193014767Y-94118246D01*
X192947734Y-94098539D01*
X192901997Y-94045720D01*
X192890809Y-93993711D01*
X192900000Y-91880000D01*
X192899998Y-91879999D01*
X192899999Y-91879999D01*
X189326856Y-91803795D01*
X189260252Y-91782685D01*
X189215633Y-91728918D01*
X189205500Y-91679823D01*
X189205500Y-90845477D01*
X189225185Y-90778438D01*
X189241819Y-90757796D01*
X189579618Y-90419997D01*
X191935131Y-90419997D01*
X191935131Y-90420002D01*
X191952498Y-90529658D01*
X192002904Y-90628585D01*
X192002909Y-90628592D01*
X192081407Y-90707090D01*
X192081410Y-90707092D01*
X192081413Y-90707095D01*
X192147954Y-90740999D01*
X192180341Y-90757501D01*
X192289998Y-90774869D01*
X192290000Y-90774869D01*
X192290002Y-90774869D01*
X192399658Y-90757501D01*
X192399659Y-90757500D01*
X192399661Y-90757500D01*
X192498587Y-90707095D01*
X192577095Y-90628587D01*
X192627500Y-90529661D01*
X192627500Y-90529659D01*
X192627501Y-90529658D01*
X192644869Y-90420002D01*
X192644869Y-90419997D01*
X192627501Y-90310341D01*
X192608220Y-90272500D01*
X192577095Y-90211413D01*
X192577092Y-90211410D01*
X192577090Y-90211407D01*
X192498592Y-90132909D01*
X192498588Y-90132906D01*
X192498587Y-90132905D01*
X192472594Y-90119661D01*
X192399658Y-90082498D01*
X192290002Y-90065131D01*
X192289998Y-90065131D01*
X192180341Y-90082498D01*
X192081414Y-90132904D01*
X192081407Y-90132909D01*
X192002909Y-90211407D01*
X192002904Y-90211414D01*
X191952498Y-90310341D01*
X191935131Y-90419997D01*
X189579618Y-90419997D01*
X190147797Y-89851819D01*
X190209120Y-89818334D01*
X190235478Y-89815500D01*
X192356395Y-89815500D01*
X192403848Y-89824939D01*
X192405200Y-89825499D01*
X192405202Y-89825499D01*
X192514798Y-89825499D01*
X192514800Y-89825499D01*
X192565429Y-89804528D01*
X192616055Y-89783559D01*
X192616056Y-89783557D01*
X192616058Y-89783557D01*
X192623296Y-89776318D01*
X192684619Y-89742834D01*
X192710977Y-89740000D01*
X192959999Y-89740000D01*
X192960000Y-89740000D01*
X192968337Y-89478745D01*
X192990150Y-89412370D01*
X193004589Y-89395025D01*
X193093557Y-89306059D01*
X193119716Y-89242905D01*
X193135500Y-89204800D01*
X193135500Y-88995477D01*
X193155185Y-88928438D01*
X193171819Y-88907796D01*
X193416710Y-88662905D01*
X193689900Y-88389715D01*
X193743605Y-88360390D01*
X193743516Y-88360174D01*
X193745528Y-88359340D01*
X193751221Y-88356232D01*
X193753393Y-88355780D01*
X193754798Y-88355500D01*
X193754800Y-88355500D01*
X193856058Y-88313557D01*
X193933557Y-88236058D01*
X193933556Y-88236058D01*
X194018557Y-88151059D01*
X194030841Y-88121400D01*
X194060500Y-88049800D01*
X194060500Y-85430200D01*
X194055690Y-85418587D01*
X194050555Y-85406190D01*
X194050545Y-85406169D01*
X194050533Y-85406138D01*
X194018558Y-85328942D01*
X193826819Y-85137203D01*
X193793334Y-85075880D01*
X193790500Y-85049522D01*
X193790500Y-81311114D01*
X193791213Y-81034983D01*
X193800000Y-77630000D01*
X193799999Y-77629999D01*
X190690001Y-74690000D01*
X190689998Y-74689999D01*
X189915184Y-74681409D01*
X189860268Y-74667904D01*
X189849660Y-74662499D01*
X189849658Y-74662498D01*
X189740002Y-74645131D01*
X189739998Y-74645131D01*
X189630344Y-74662498D01*
X189630331Y-74662502D01*
X189627243Y-74664076D01*
X189569586Y-74677577D01*
X188387414Y-74664471D01*
X188369394Y-74662953D01*
X188320000Y-74655131D01*
X188279606Y-74661528D01*
X188258836Y-74663046D01*
X186673732Y-74645473D01*
X186655709Y-74643954D01*
X186600002Y-74635131D01*
X186599998Y-74635131D01*
X186554116Y-74642398D01*
X186533343Y-74643917D01*
X183925056Y-74615000D01*
X177070831Y-74603986D01*
X177003823Y-74584194D01*
X176983353Y-74567671D01*
X176928587Y-74512905D01*
X176924743Y-74510946D01*
X176829658Y-74462498D01*
X176720002Y-74445131D01*
X176719998Y-74445131D01*
X176610341Y-74462498D01*
X176511414Y-74512904D01*
X176511407Y-74512909D01*
X176457777Y-74566540D01*
X176396454Y-74600025D01*
X176369897Y-74602859D01*
X174709189Y-74600191D01*
X174642181Y-74580399D01*
X174596511Y-74527521D01*
X174585477Y-74480896D01*
X174584119Y-74445131D01*
X174560000Y-73810000D01*
X174559999Y-73810000D01*
X174559999Y-73809999D01*
X172621891Y-73838154D01*
X172554573Y-73819445D01*
X172508056Y-73767311D01*
X172496096Y-73712970D01*
X172496668Y-73653743D01*
X172498780Y-73434980D01*
X172512289Y-73379887D01*
X172517500Y-73369661D01*
X172525366Y-73320000D01*
X172534869Y-73260002D01*
X172534869Y-73259997D01*
X172517501Y-73150343D01*
X172517500Y-73150341D01*
X172517500Y-73150339D01*
X172515628Y-73146666D01*
X172502118Y-73089170D01*
X172502368Y-73063296D01*
X172522702Y-72996452D01*
X172575947Y-72951211D01*
X172626362Y-72940500D01*
X175181375Y-72940500D01*
X175181421Y-72940500D01*
X175201152Y-72940546D01*
X175201158Y-72940543D01*
X175201255Y-72940525D01*
X175201380Y-72940500D01*
X175201386Y-72940500D01*
X175209734Y-72937041D01*
X175219811Y-72932868D01*
X175219825Y-72932901D01*
X175220081Y-72932756D01*
X175238126Y-72925332D01*
X175238128Y-72925330D01*
X175238321Y-72925201D01*
X175238324Y-72925200D01*
X175252402Y-72911121D01*
X175266462Y-72897127D01*
X175266462Y-72897126D01*
X175275236Y-72888394D01*
X175276635Y-72889800D01*
X175318270Y-72854981D01*
X175368133Y-72844660D01*
X176527459Y-72847841D01*
G37*
%TD.AperFunction*%
%TD*%
%TA.AperFunction,Conductor*%
%TO.N,+3.3V*%
G36*
X174356578Y-73988157D02*
G01*
X174403095Y-74040291D01*
X174414972Y-74088729D01*
X174428731Y-74451031D01*
X174430089Y-74486803D01*
X174434156Y-74516702D01*
X174434156Y-74516707D01*
X174445188Y-74563325D01*
X174445192Y-74563334D01*
X174478826Y-74629159D01*
X174478832Y-74629167D01*
X174524492Y-74682034D01*
X174529467Y-74687524D01*
X174529469Y-74687526D01*
X174598133Y-74729530D01*
X174598135Y-74729531D01*
X174615220Y-74734577D01*
X174665141Y-74749322D01*
X174665144Y-74749322D01*
X174665146Y-74749323D01*
X174708931Y-74755690D01*
X174708939Y-74755691D01*
X176252798Y-74758171D01*
X176319806Y-74777963D01*
X176365476Y-74830841D01*
X176375072Y-74862771D01*
X176382499Y-74909658D01*
X176382499Y-74909659D01*
X176382500Y-74909661D01*
X176423435Y-74990000D01*
X176432904Y-75008585D01*
X176432909Y-75008592D01*
X176511407Y-75087090D01*
X176511410Y-75087092D01*
X176511413Y-75087095D01*
X176555696Y-75109658D01*
X176610341Y-75137501D01*
X176719998Y-75154869D01*
X176720000Y-75154869D01*
X176720002Y-75154869D01*
X176829658Y-75137501D01*
X176829659Y-75137500D01*
X176829661Y-75137500D01*
X176928587Y-75087095D01*
X177007095Y-75008587D01*
X177057500Y-74909661D01*
X177057500Y-74909659D01*
X177057501Y-74909658D01*
X177064689Y-74864275D01*
X177094618Y-74801141D01*
X177153929Y-74764209D01*
X177187356Y-74759673D01*
X183923632Y-74770497D01*
X183924748Y-74770504D01*
X184847634Y-74780736D01*
X184914450Y-74801162D01*
X184959616Y-74854470D01*
X184968793Y-74923735D01*
X184968732Y-74924125D01*
X184964826Y-74948789D01*
X184958299Y-74990002D01*
X184955131Y-75010002D01*
X184972498Y-75119658D01*
X185022904Y-75218585D01*
X185022909Y-75218592D01*
X185101407Y-75297090D01*
X185101410Y-75297092D01*
X185101413Y-75297095D01*
X185161087Y-75327500D01*
X185200341Y-75347501D01*
X185309998Y-75364869D01*
X185310000Y-75364869D01*
X185310002Y-75364869D01*
X185419658Y-75347501D01*
X185419659Y-75347500D01*
X185419661Y-75347500D01*
X185518587Y-75297095D01*
X185597095Y-75218587D01*
X185647500Y-75119661D01*
X185647500Y-75119659D01*
X185647501Y-75119658D01*
X185664869Y-75010002D01*
X185664869Y-75009999D01*
X185652899Y-74934428D01*
X185661853Y-74865134D01*
X185706849Y-74811682D01*
X185773600Y-74791042D01*
X185776718Y-74791037D01*
X186132210Y-74794978D01*
X186199027Y-74815404D01*
X186244194Y-74868712D01*
X186253370Y-74937977D01*
X186253308Y-74938367D01*
X186245131Y-74989996D01*
X186245131Y-74990002D01*
X186262498Y-75099658D01*
X186312904Y-75198585D01*
X186312909Y-75198592D01*
X186391407Y-75277090D01*
X186391410Y-75277092D01*
X186391413Y-75277095D01*
X186490339Y-75327500D01*
X186490341Y-75327501D01*
X186599998Y-75344869D01*
X186600000Y-75344869D01*
X186600002Y-75344869D01*
X186709658Y-75327501D01*
X186709659Y-75327500D01*
X186709661Y-75327500D01*
X186808587Y-75277095D01*
X186887095Y-75198587D01*
X186937500Y-75099661D01*
X186937500Y-75099659D01*
X186937501Y-75099658D01*
X186954869Y-74990002D01*
X186954869Y-74989998D01*
X186948342Y-74948789D01*
X186957296Y-74879496D01*
X187002293Y-74826044D01*
X187069044Y-74805404D01*
X187072155Y-74805399D01*
X188257112Y-74818536D01*
X188270171Y-74818132D01*
X188290941Y-74816614D01*
X188303929Y-74815114D01*
X188303950Y-74815110D01*
X188305653Y-74814914D01*
X188339281Y-74815621D01*
X188345072Y-74816539D01*
X188356341Y-74817904D01*
X188374361Y-74819422D01*
X188385690Y-74819961D01*
X189268287Y-74829745D01*
X189335104Y-74850171D01*
X189380270Y-74903479D01*
X189389447Y-74972743D01*
X189389386Y-74973133D01*
X189385131Y-75000001D01*
X189385131Y-75000002D01*
X189402498Y-75109658D01*
X189452904Y-75208585D01*
X189452909Y-75208592D01*
X189531407Y-75287090D01*
X189531410Y-75287092D01*
X189531413Y-75287095D01*
X189610713Y-75327500D01*
X189630341Y-75337501D01*
X189739998Y-75354869D01*
X189740000Y-75354869D01*
X189740002Y-75354869D01*
X189849658Y-75337501D01*
X189849659Y-75337500D01*
X189849661Y-75337500D01*
X189948587Y-75287095D01*
X190027095Y-75208587D01*
X190077500Y-75109661D01*
X190077500Y-75109659D01*
X190077501Y-75109658D01*
X190085046Y-75062018D01*
X190094869Y-75000000D01*
X190092278Y-74983644D01*
X190101231Y-74914354D01*
X190146226Y-74860901D01*
X190212977Y-74840259D01*
X190216111Y-74840254D01*
X190578874Y-74844275D01*
X190645690Y-74864701D01*
X190662682Y-74878158D01*
X192421506Y-76540841D01*
X192456700Y-76601199D01*
X192453675Y-76671003D01*
X192413391Y-76728091D01*
X192392620Y-76741432D01*
X192335757Y-76770406D01*
X192301411Y-76787906D01*
X192301407Y-76787909D01*
X192222909Y-76866407D01*
X192222904Y-76866414D01*
X192172499Y-76965341D01*
X192154308Y-77080189D01*
X192124378Y-77143323D01*
X192065066Y-77180254D01*
X191995204Y-77179256D01*
X191944154Y-77148471D01*
X191878592Y-77082909D01*
X191878588Y-77082906D01*
X191878587Y-77082905D01*
X191863224Y-77075077D01*
X191779658Y-77032498D01*
X191670002Y-77015131D01*
X191669998Y-77015131D01*
X191560341Y-77032498D01*
X191461414Y-77082904D01*
X191461407Y-77082909D01*
X191382909Y-77161407D01*
X191382904Y-77161414D01*
X191332498Y-77260341D01*
X191315131Y-77369997D01*
X191315131Y-77370002D01*
X191332498Y-77479658D01*
X191382906Y-77578589D01*
X191386080Y-77582958D01*
X191409557Y-77648766D01*
X191396245Y-77712132D01*
X191372496Y-77758742D01*
X191355129Y-77868397D01*
X191355129Y-77868402D01*
X191372496Y-77978058D01*
X191422902Y-78076985D01*
X191422907Y-78076992D01*
X191501405Y-78155490D01*
X191501411Y-78155495D01*
X191582295Y-78196707D01*
X191633090Y-78244680D01*
X191650000Y-78307191D01*
X191650000Y-78612955D01*
X191630315Y-78679994D01*
X191613681Y-78700636D01*
X191612909Y-78701407D01*
X191612904Y-78701414D01*
X191562498Y-78800341D01*
X191545131Y-78909997D01*
X191545131Y-78910002D01*
X191562498Y-79019658D01*
X191612904Y-79118585D01*
X191612909Y-79118592D01*
X191691407Y-79197090D01*
X191691410Y-79197092D01*
X191691413Y-79197095D01*
X191785175Y-79244869D01*
X191790341Y-79247501D01*
X191899998Y-79264869D01*
X191900000Y-79264869D01*
X191900002Y-79264869D01*
X192009656Y-79247501D01*
X192009656Y-79247500D01*
X192009661Y-79247500D01*
X192104820Y-79199014D01*
X192161112Y-79185500D01*
X192624523Y-79185500D01*
X192691562Y-79205185D01*
X192712204Y-79221819D01*
X193020333Y-79529948D01*
X193053818Y-79591271D01*
X193048834Y-79660963D01*
X193006962Y-79716896D01*
X192988947Y-79728114D01*
X192980339Y-79732499D01*
X192980339Y-79732500D01*
X192881413Y-79782905D01*
X192881412Y-79782906D01*
X192881407Y-79782909D01*
X192802909Y-79861407D01*
X192802904Y-79861414D01*
X192752498Y-79960341D01*
X192735131Y-80069997D01*
X192735131Y-80070002D01*
X192752498Y-80179658D01*
X192802904Y-80278585D01*
X192802909Y-80278592D01*
X192881407Y-80357090D01*
X192881410Y-80357092D01*
X192881413Y-80357095D01*
X192965623Y-80400002D01*
X192980341Y-80407501D01*
X193089998Y-80424869D01*
X193089999Y-80424869D01*
X193089999Y-80424868D01*
X193090000Y-80424869D01*
X193096097Y-80423903D01*
X193165389Y-80432854D01*
X193218844Y-80477847D01*
X193239487Y-80544598D01*
X193239500Y-80546375D01*
X193239500Y-81048533D01*
X193219815Y-81115572D01*
X193167011Y-81161327D01*
X193097853Y-81171271D01*
X193059206Y-81159018D01*
X193007158Y-81132498D01*
X192897502Y-81115131D01*
X192897498Y-81115131D01*
X192787841Y-81132498D01*
X192688914Y-81182904D01*
X192688907Y-81182909D01*
X192610409Y-81261407D01*
X192610404Y-81261414D01*
X192559998Y-81360341D01*
X192542631Y-81469997D01*
X192542631Y-81470002D01*
X192559998Y-81579658D01*
X192610404Y-81678585D01*
X192610409Y-81678592D01*
X192688907Y-81757090D01*
X192688910Y-81757092D01*
X192688913Y-81757095D01*
X192762052Y-81794361D01*
X192787841Y-81807501D01*
X192897498Y-81824869D01*
X192897500Y-81824869D01*
X192897502Y-81824869D01*
X192952330Y-81816184D01*
X193007161Y-81807500D01*
X193059206Y-81780981D01*
X193127874Y-81768085D01*
X193192614Y-81794361D01*
X193232872Y-81851467D01*
X193239500Y-81891466D01*
X193239500Y-85269800D01*
X193263998Y-85328942D01*
X193263997Y-85328942D01*
X193281441Y-85371055D01*
X193281444Y-85371059D01*
X193473181Y-85562796D01*
X193506666Y-85624119D01*
X193509500Y-85650477D01*
X193509500Y-87743040D01*
X193489815Y-87810079D01*
X193454395Y-87846139D01*
X193453942Y-87846441D01*
X192703942Y-88596443D01*
X192626444Y-88673940D01*
X192584500Y-88775199D01*
X192584500Y-88984522D01*
X192564815Y-89051561D01*
X192548185Y-89072198D01*
X192392202Y-89228182D01*
X192330881Y-89261666D01*
X192304523Y-89264500D01*
X190015197Y-89264500D01*
X189965921Y-89284912D01*
X189965920Y-89284912D01*
X189913943Y-89306440D01*
X189551188Y-89669195D01*
X189489865Y-89702680D01*
X189420173Y-89697696D01*
X189369798Y-89662722D01*
X189365577Y-89657851D01*
X189360599Y-89652376D01*
X189291876Y-89610486D01*
X189291870Y-89610483D01*
X189224834Y-89590799D01*
X189224824Y-89590797D01*
X189181025Y-89584500D01*
X189181022Y-89584500D01*
X188832199Y-89584500D01*
X188832193Y-89584500D01*
X188800259Y-89587815D01*
X188750402Y-89598280D01*
X188682247Y-89631464D01*
X188682238Y-89631470D01*
X188628798Y-89676424D01*
X188623229Y-89681339D01*
X188623224Y-89681346D01*
X188580333Y-89749450D01*
X188580332Y-89749452D01*
X188565858Y-89796202D01*
X188559669Y-89816193D01*
X188559665Y-89816206D01*
X188552729Y-89859903D01*
X188552364Y-89884869D01*
X188549460Y-90083294D01*
X188549065Y-90110250D01*
X188528401Y-90176994D01*
X188488460Y-90210591D01*
X188535154Y-90241550D01*
X188556474Y-90278073D01*
X188557636Y-90281190D01*
X188557637Y-90281192D01*
X188573195Y-90322905D01*
X188582060Y-90346672D01*
X188584803Y-90353524D01*
X188634561Y-90416797D01*
X188638561Y-90419792D01*
X188680432Y-90475727D01*
X188685415Y-90545418D01*
X188678810Y-90566512D01*
X188654500Y-90625199D01*
X188654500Y-92574802D01*
X188662229Y-92593461D01*
X188669697Y-92662930D01*
X188638421Y-92725409D01*
X188578332Y-92761061D01*
X188546818Y-92764909D01*
X187283588Y-92756256D01*
X187216685Y-92736113D01*
X187171292Y-92682997D01*
X187161964Y-92651657D01*
X187147501Y-92560341D01*
X187121851Y-92510000D01*
X187097095Y-92461413D01*
X187097092Y-92461410D01*
X187097090Y-92461407D01*
X187018592Y-92382909D01*
X187018588Y-92382906D01*
X187018587Y-92382905D01*
X187014613Y-92380880D01*
X186919658Y-92332498D01*
X186810002Y-92315131D01*
X186809998Y-92315131D01*
X186700341Y-92332498D01*
X186601414Y-92382904D01*
X186601407Y-92382909D01*
X186522909Y-92461407D01*
X186522904Y-92461414D01*
X186472498Y-92560341D01*
X186459064Y-92645165D01*
X186429135Y-92708300D01*
X186369823Y-92745231D01*
X186335742Y-92749764D01*
X182123356Y-92720913D01*
X182056453Y-92700770D01*
X182011060Y-92647654D01*
X182002320Y-92597040D01*
X182000001Y-92594551D01*
X182000000Y-92594551D01*
X181960361Y-92594899D01*
X179394119Y-92617464D01*
X179326909Y-92598370D01*
X179302387Y-92578086D01*
X177689794Y-90850657D01*
X179025131Y-90850657D01*
X179025131Y-90850662D01*
X179042498Y-90960318D01*
X179092904Y-91059245D01*
X179092909Y-91059252D01*
X179171407Y-91137750D01*
X179171410Y-91137752D01*
X179171413Y-91137755D01*
X179196111Y-91150339D01*
X179270341Y-91188161D01*
X179379998Y-91205529D01*
X179380000Y-91205529D01*
X179380002Y-91205529D01*
X179489658Y-91188161D01*
X179489659Y-91188160D01*
X179489661Y-91188160D01*
X179588587Y-91137755D01*
X179667095Y-91059247D01*
X179717500Y-90960321D01*
X179717501Y-90960317D01*
X179720518Y-90951035D01*
X179723738Y-90952081D01*
X179746226Y-90904592D01*
X179805522Y-90867636D01*
X179875385Y-90868603D01*
X179933634Y-90907188D01*
X179937701Y-90912382D01*
X180016577Y-90991258D01*
X180016580Y-90991260D01*
X180016583Y-90991263D01*
X180075758Y-91021414D01*
X180115511Y-91041669D01*
X180234809Y-91060564D01*
X180234460Y-91062762D01*
X180288814Y-91078722D01*
X180334569Y-91131526D01*
X180344513Y-91200684D01*
X180344248Y-91202435D01*
X180335131Y-91259997D01*
X180335131Y-91260002D01*
X180352498Y-91369658D01*
X180402904Y-91468585D01*
X180402909Y-91468592D01*
X180481407Y-91547090D01*
X180481410Y-91547092D01*
X180481413Y-91547095D01*
X180526367Y-91570000D01*
X180580341Y-91597501D01*
X180689998Y-91614869D01*
X180690000Y-91614869D01*
X180690002Y-91614869D01*
X180799658Y-91597501D01*
X180799659Y-91597500D01*
X180799661Y-91597500D01*
X180898587Y-91547095D01*
X180977095Y-91468587D01*
X181027500Y-91369661D01*
X181027500Y-91369659D01*
X181027501Y-91369658D01*
X181041702Y-91279997D01*
X181335131Y-91279997D01*
X181335131Y-91280002D01*
X181352498Y-91389658D01*
X181402904Y-91488585D01*
X181402909Y-91488592D01*
X181481407Y-91567090D01*
X181481410Y-91567092D01*
X181481413Y-91567095D01*
X181575175Y-91614869D01*
X181580341Y-91617501D01*
X181689998Y-91634869D01*
X181690000Y-91634869D01*
X181690002Y-91634869D01*
X181799658Y-91617501D01*
X181799659Y-91617500D01*
X181799661Y-91617500D01*
X181898587Y-91567095D01*
X181977095Y-91488587D01*
X182027500Y-91389661D01*
X182027500Y-91389659D01*
X182027501Y-91389658D01*
X182044869Y-91280002D01*
X182044869Y-91279997D01*
X182036950Y-91229997D01*
X182345131Y-91229997D01*
X182345131Y-91230002D01*
X182362498Y-91339658D01*
X182412904Y-91438585D01*
X182412909Y-91438592D01*
X182491407Y-91517090D01*
X182491410Y-91517092D01*
X182491413Y-91517095D01*
X182550282Y-91547090D01*
X182590341Y-91567501D01*
X182699998Y-91584869D01*
X182700000Y-91584869D01*
X182700002Y-91584869D01*
X182809658Y-91567501D01*
X182809659Y-91567500D01*
X182809661Y-91567500D01*
X182908587Y-91517095D01*
X182987095Y-91438587D01*
X183037500Y-91339661D01*
X183037500Y-91339659D01*
X183037501Y-91339658D01*
X183053415Y-91239182D01*
X183335562Y-91239182D01*
X183335562Y-91239187D01*
X183352929Y-91348843D01*
X183403335Y-91447770D01*
X183403340Y-91447777D01*
X183481838Y-91526275D01*
X183481841Y-91526277D01*
X183481844Y-91526280D01*
X183562745Y-91567501D01*
X183580772Y-91576686D01*
X183690429Y-91594054D01*
X183690431Y-91594054D01*
X183690433Y-91594054D01*
X183800087Y-91576686D01*
X183800087Y-91576685D01*
X183800092Y-91576685D01*
X183863497Y-91544378D01*
X183932163Y-91531483D01*
X183976084Y-91544379D01*
X183981411Y-91547093D01*
X183981413Y-91547095D01*
X184080339Y-91597500D01*
X184080341Y-91597500D01*
X184080343Y-91597501D01*
X184189998Y-91614869D01*
X184190000Y-91614869D01*
X184190002Y-91614869D01*
X184299658Y-91597501D01*
X184299659Y-91597500D01*
X184299661Y-91597500D01*
X184398587Y-91547095D01*
X184477095Y-91468587D01*
X184527500Y-91369661D01*
X184527500Y-91369659D01*
X184527501Y-91369658D01*
X184533783Y-91329997D01*
X185265131Y-91329997D01*
X185265131Y-91330002D01*
X185282498Y-91439658D01*
X185332904Y-91538585D01*
X185332909Y-91538592D01*
X185411407Y-91617090D01*
X185411410Y-91617092D01*
X185411413Y-91617095D01*
X185446297Y-91634869D01*
X185510341Y-91667501D01*
X185619998Y-91684869D01*
X185620000Y-91684869D01*
X185620002Y-91684869D01*
X185729658Y-91667501D01*
X185729659Y-91667500D01*
X185729661Y-91667500D01*
X185828587Y-91617095D01*
X185907095Y-91538587D01*
X185957500Y-91439661D01*
X185957500Y-91439659D01*
X185957501Y-91439658D01*
X185974869Y-91330002D01*
X185974869Y-91329997D01*
X185957501Y-91220341D01*
X185949954Y-91205529D01*
X185907095Y-91121413D01*
X185907092Y-91121410D01*
X185907090Y-91121407D01*
X185828592Y-91042909D01*
X185828588Y-91042906D01*
X185828587Y-91042905D01*
X185804421Y-91030592D01*
X185729658Y-90992498D01*
X185620002Y-90975131D01*
X185619998Y-90975131D01*
X185510341Y-90992498D01*
X185411414Y-91042904D01*
X185411407Y-91042909D01*
X185332909Y-91121407D01*
X185332904Y-91121414D01*
X185282498Y-91220341D01*
X185265131Y-91329997D01*
X184533783Y-91329997D01*
X184544869Y-91260002D01*
X184544869Y-91259997D01*
X184527501Y-91150341D01*
X184512762Y-91121414D01*
X184477095Y-91051413D01*
X184477092Y-91051410D01*
X184477090Y-91051407D01*
X184398592Y-90972909D01*
X184398588Y-90972906D01*
X184398587Y-90972905D01*
X184390112Y-90968587D01*
X184299658Y-90922498D01*
X184190002Y-90905131D01*
X184189998Y-90905131D01*
X184080342Y-90922498D01*
X184016934Y-90954806D01*
X183948265Y-90967701D01*
X183904347Y-90954805D01*
X183800089Y-90901683D01*
X183690433Y-90884316D01*
X183690429Y-90884316D01*
X183580772Y-90901683D01*
X183481845Y-90952089D01*
X183481838Y-90952094D01*
X183403340Y-91030592D01*
X183403335Y-91030599D01*
X183352929Y-91129526D01*
X183335562Y-91239182D01*
X183053415Y-91239182D01*
X183054869Y-91230002D01*
X183054869Y-91229997D01*
X183037501Y-91120341D01*
X183034713Y-91114869D01*
X182987095Y-91021413D01*
X182987092Y-91021410D01*
X182987090Y-91021407D01*
X182908592Y-90942909D01*
X182908588Y-90942906D01*
X182908587Y-90942905D01*
X182904743Y-90940946D01*
X182809658Y-90892498D01*
X182700002Y-90875131D01*
X182699998Y-90875131D01*
X182590341Y-90892498D01*
X182491414Y-90942904D01*
X182491407Y-90942909D01*
X182412909Y-91021407D01*
X182412904Y-91021414D01*
X182362498Y-91120341D01*
X182345131Y-91229997D01*
X182036950Y-91229997D01*
X182027501Y-91170341D01*
X182027500Y-91170339D01*
X181977095Y-91071413D01*
X181977092Y-91071410D01*
X181977090Y-91071407D01*
X181898592Y-90992909D01*
X181898588Y-90992906D01*
X181898587Y-90992905D01*
X181894743Y-90990946D01*
X181799658Y-90942498D01*
X181690002Y-90925131D01*
X181689998Y-90925131D01*
X181580341Y-90942498D01*
X181481414Y-90992904D01*
X181481407Y-90992909D01*
X181402909Y-91071407D01*
X181402904Y-91071414D01*
X181352498Y-91170341D01*
X181335131Y-91279997D01*
X181041702Y-91279997D01*
X181044869Y-91260002D01*
X181044869Y-91259997D01*
X181027501Y-91150341D01*
X181012762Y-91121414D01*
X180977095Y-91051413D01*
X180977092Y-91051410D01*
X180977090Y-91051407D01*
X180898592Y-90972909D01*
X180898588Y-90972906D01*
X180898587Y-90972905D01*
X180890112Y-90968587D01*
X180799658Y-90922498D01*
X180680361Y-90903604D01*
X180680709Y-90901405D01*
X180626356Y-90885446D01*
X180580601Y-90832642D01*
X180570657Y-90763484D01*
X180570922Y-90761733D01*
X180571197Y-90759997D01*
X186805131Y-90759997D01*
X186805131Y-90760002D01*
X186822498Y-90869658D01*
X186872904Y-90968585D01*
X186872909Y-90968592D01*
X186951407Y-91047090D01*
X186951410Y-91047092D01*
X186951413Y-91047095D01*
X187013485Y-91078722D01*
X187050341Y-91097501D01*
X187159998Y-91114869D01*
X187160000Y-91114869D01*
X187160002Y-91114869D01*
X187269658Y-91097501D01*
X187269659Y-91097500D01*
X187269661Y-91097500D01*
X187368587Y-91047095D01*
X187447095Y-90968587D01*
X187497500Y-90869661D01*
X187497500Y-90869659D01*
X187497501Y-90869658D01*
X187514869Y-90760002D01*
X187514869Y-90759997D01*
X187497501Y-90650341D01*
X187484691Y-90625200D01*
X187447095Y-90551413D01*
X187447092Y-90551410D01*
X187447090Y-90551407D01*
X187368592Y-90472909D01*
X187368588Y-90472906D01*
X187368587Y-90472905D01*
X187303342Y-90439661D01*
X187269658Y-90422498D01*
X187160002Y-90405131D01*
X187159998Y-90405131D01*
X187050341Y-90422498D01*
X186951414Y-90472904D01*
X186951407Y-90472909D01*
X186872909Y-90551407D01*
X186872904Y-90551414D01*
X186822498Y-90650341D01*
X186805131Y-90759997D01*
X180571197Y-90759997D01*
X180580039Y-90704170D01*
X180580039Y-90704165D01*
X180562671Y-90594509D01*
X180540713Y-90551414D01*
X180512265Y-90495581D01*
X180512262Y-90495578D01*
X180512260Y-90495575D01*
X180433762Y-90417077D01*
X180433758Y-90417074D01*
X180433757Y-90417073D01*
X180429913Y-90415114D01*
X180334828Y-90366666D01*
X180225172Y-90349299D01*
X180225168Y-90349299D01*
X180115511Y-90366666D01*
X180090667Y-90379325D01*
X180021998Y-90392220D01*
X179957258Y-90365942D01*
X179917002Y-90308835D01*
X179914803Y-90257497D01*
X187615131Y-90257497D01*
X187615131Y-90257502D01*
X187632498Y-90367158D01*
X187682904Y-90466085D01*
X187682909Y-90466092D01*
X187761407Y-90544590D01*
X187761410Y-90544592D01*
X187761413Y-90544595D01*
X187798652Y-90563569D01*
X187860341Y-90595001D01*
X187969998Y-90612369D01*
X187970000Y-90612369D01*
X187970002Y-90612369D01*
X188079658Y-90595001D01*
X188079659Y-90595000D01*
X188079661Y-90595000D01*
X188178587Y-90544595D01*
X188257095Y-90466087D01*
X188307500Y-90367161D01*
X188317819Y-90302006D01*
X188347747Y-90238875D01*
X188380050Y-90218760D01*
X188342512Y-90200949D01*
X188313129Y-90155922D01*
X188311930Y-90156534D01*
X188294035Y-90121413D01*
X188257095Y-90048913D01*
X188257092Y-90048910D01*
X188257090Y-90048907D01*
X188178592Y-89970409D01*
X188178588Y-89970406D01*
X188178587Y-89970405D01*
X188174743Y-89968446D01*
X188079658Y-89919998D01*
X187970002Y-89902631D01*
X187969998Y-89902631D01*
X187860341Y-89919998D01*
X187761414Y-89970404D01*
X187761407Y-89970409D01*
X187682909Y-90048907D01*
X187682904Y-90048914D01*
X187632498Y-90147841D01*
X187615131Y-90257497D01*
X179914803Y-90257497D01*
X179914012Y-90239029D01*
X179923886Y-90212553D01*
X179933871Y-90192958D01*
X179941017Y-90147841D01*
X179951240Y-90083299D01*
X179951240Y-90083294D01*
X179933872Y-89973638D01*
X179884888Y-89877501D01*
X179883466Y-89874710D01*
X179883463Y-89874707D01*
X179883461Y-89874704D01*
X179804963Y-89796206D01*
X179804959Y-89796203D01*
X179804958Y-89796202D01*
X179801114Y-89794243D01*
X179706029Y-89745795D01*
X179596373Y-89728428D01*
X179596369Y-89728428D01*
X179486712Y-89745795D01*
X179387785Y-89796201D01*
X179387778Y-89796206D01*
X179309280Y-89874704D01*
X179309275Y-89874711D01*
X179258869Y-89973638D01*
X179241502Y-90083294D01*
X179241502Y-90083299D01*
X179258869Y-90192955D01*
X179309275Y-90291882D01*
X179309280Y-90291889D01*
X179323654Y-90306263D01*
X179357139Y-90367586D01*
X179352155Y-90437278D01*
X179310283Y-90493211D01*
X179274302Y-90511872D01*
X179270340Y-90513159D01*
X179171414Y-90563564D01*
X179171407Y-90563569D01*
X179092909Y-90642067D01*
X179092904Y-90642074D01*
X179042498Y-90741001D01*
X179025131Y-90850657D01*
X177689794Y-90850657D01*
X177315005Y-90449179D01*
X176431171Y-89529997D01*
X184315131Y-89529997D01*
X184315131Y-89530002D01*
X184332498Y-89639658D01*
X184376997Y-89726992D01*
X184382904Y-89738586D01*
X184382909Y-89738592D01*
X184461407Y-89817090D01*
X184461410Y-89817092D01*
X184461413Y-89817095D01*
X184545429Y-89859903D01*
X184560341Y-89867501D01*
X184669998Y-89884869D01*
X184670000Y-89884869D01*
X184670002Y-89884869D01*
X184779658Y-89867501D01*
X184779659Y-89867500D01*
X184779661Y-89867500D01*
X184878587Y-89817095D01*
X184957095Y-89738587D01*
X184974516Y-89704395D01*
X185022489Y-89653601D01*
X185090309Y-89636805D01*
X185156444Y-89659342D01*
X185195483Y-89704395D01*
X185198675Y-89710658D01*
X185212904Y-89738586D01*
X185212909Y-89738592D01*
X185291407Y-89817090D01*
X185291410Y-89817092D01*
X185291413Y-89817095D01*
X185375429Y-89859903D01*
X185390341Y-89867501D01*
X185499998Y-89884869D01*
X185500000Y-89884869D01*
X185500002Y-89884869D01*
X185609658Y-89867501D01*
X185609659Y-89867500D01*
X185609661Y-89867500D01*
X185708587Y-89817095D01*
X185787095Y-89738587D01*
X185826968Y-89660330D01*
X185874941Y-89609536D01*
X185942762Y-89592740D01*
X186008897Y-89615277D01*
X186047936Y-89660329D01*
X186091483Y-89745797D01*
X186092906Y-89748588D01*
X186092909Y-89748592D01*
X186171407Y-89827090D01*
X186171410Y-89827092D01*
X186171413Y-89827095D01*
X186235803Y-89859903D01*
X186270341Y-89877501D01*
X186379998Y-89894869D01*
X186380000Y-89894869D01*
X186380002Y-89894869D01*
X186489658Y-89877501D01*
X186489659Y-89877500D01*
X186489661Y-89877500D01*
X186588587Y-89827095D01*
X186667095Y-89748587D01*
X186717500Y-89649661D01*
X186717500Y-89649659D01*
X186717501Y-89649658D01*
X186734869Y-89540002D01*
X186734869Y-89539997D01*
X186717501Y-89430341D01*
X186702376Y-89400657D01*
X186667095Y-89331413D01*
X186667092Y-89331410D01*
X186667090Y-89331407D01*
X186588592Y-89252909D01*
X186588588Y-89252906D01*
X186588587Y-89252905D01*
X186562594Y-89239661D01*
X186489658Y-89202498D01*
X186380002Y-89185131D01*
X186379998Y-89185131D01*
X186270341Y-89202498D01*
X186171414Y-89252904D01*
X186171407Y-89252909D01*
X186092909Y-89331407D01*
X186092904Y-89331414D01*
X186053031Y-89409669D01*
X186005057Y-89460464D01*
X185937236Y-89477259D01*
X185871101Y-89454721D01*
X185832062Y-89409667D01*
X185830397Y-89406399D01*
X185787095Y-89321413D01*
X185787092Y-89321410D01*
X185787090Y-89321407D01*
X185708592Y-89242909D01*
X185708588Y-89242906D01*
X185708587Y-89242905D01*
X185702220Y-89239661D01*
X185609658Y-89192498D01*
X185500002Y-89175131D01*
X185499998Y-89175131D01*
X185390341Y-89192498D01*
X185291414Y-89242904D01*
X185291407Y-89242909D01*
X185212909Y-89321407D01*
X185212906Y-89321411D01*
X185212905Y-89321413D01*
X185195483Y-89355604D01*
X185147510Y-89406399D01*
X185079689Y-89423194D01*
X185013555Y-89400657D01*
X184974516Y-89355604D01*
X184957095Y-89321413D01*
X184957093Y-89321411D01*
X184957090Y-89321407D01*
X184878592Y-89242909D01*
X184878588Y-89242906D01*
X184878587Y-89242905D01*
X184872220Y-89239661D01*
X184779658Y-89192498D01*
X184670002Y-89175131D01*
X184669998Y-89175131D01*
X184560341Y-89192498D01*
X184461414Y-89242904D01*
X184461407Y-89242909D01*
X184382909Y-89321407D01*
X184382904Y-89321414D01*
X184332498Y-89420341D01*
X184315131Y-89529997D01*
X176431171Y-89529997D01*
X175383087Y-88439997D01*
X178845131Y-88439997D01*
X178845131Y-88440002D01*
X178862498Y-88549658D01*
X178912904Y-88648585D01*
X178912909Y-88648592D01*
X178991407Y-88727090D01*
X178991410Y-88727092D01*
X178991413Y-88727095D01*
X179085690Y-88775131D01*
X179090341Y-88777501D01*
X179199998Y-88794869D01*
X179200000Y-88794869D01*
X179200002Y-88794869D01*
X179309658Y-88777501D01*
X179309659Y-88777500D01*
X179309661Y-88777500D01*
X179408587Y-88727095D01*
X179487095Y-88648587D01*
X179537500Y-88549661D01*
X179537500Y-88549659D01*
X179537501Y-88549658D01*
X179544355Y-88506383D01*
X179574284Y-88443248D01*
X179633595Y-88406316D01*
X179647430Y-88403306D01*
X179652523Y-88402500D01*
X179751449Y-88352095D01*
X179829957Y-88273587D01*
X179880362Y-88174661D01*
X179880362Y-88174659D01*
X179880363Y-88174658D01*
X179885853Y-88139997D01*
X180835131Y-88139997D01*
X180835131Y-88140002D01*
X180852498Y-88249658D01*
X180902904Y-88348585D01*
X180902909Y-88348592D01*
X180981407Y-88427090D01*
X180981410Y-88427092D01*
X180981413Y-88427095D01*
X181023590Y-88448585D01*
X181080341Y-88477501D01*
X181189998Y-88494869D01*
X181190000Y-88494869D01*
X181190002Y-88494869D01*
X181299658Y-88477501D01*
X181299659Y-88477500D01*
X181299661Y-88477500D01*
X181398587Y-88427095D01*
X181477095Y-88348587D01*
X181527500Y-88249661D01*
X181527500Y-88249659D01*
X181527501Y-88249658D01*
X181529031Y-88239997D01*
X187805131Y-88239997D01*
X187805131Y-88240002D01*
X187822498Y-88349658D01*
X187872904Y-88448585D01*
X187872909Y-88448592D01*
X187951407Y-88527090D01*
X187951410Y-88527092D01*
X187951413Y-88527095D01*
X187995696Y-88549658D01*
X188050341Y-88577501D01*
X188159998Y-88594869D01*
X188160000Y-88594869D01*
X188160002Y-88594869D01*
X188269658Y-88577501D01*
X188269659Y-88577500D01*
X188269661Y-88577500D01*
X188368587Y-88527095D01*
X188447095Y-88448587D01*
X188497500Y-88349661D01*
X188497500Y-88349659D01*
X188497501Y-88349658D01*
X188514869Y-88240002D01*
X188514869Y-88239997D01*
X188497501Y-88130343D01*
X188497500Y-88130341D01*
X188497500Y-88130339D01*
X188451922Y-88040887D01*
X188439027Y-87972222D01*
X188455595Y-87928776D01*
X188452664Y-87927283D01*
X188456376Y-87919997D01*
X188875131Y-87919997D01*
X188875131Y-87920002D01*
X188892498Y-88029658D01*
X188942904Y-88128585D01*
X188942909Y-88128592D01*
X189021407Y-88207090D01*
X189021410Y-88207092D01*
X189021413Y-88207095D01*
X189085993Y-88240000D01*
X189120341Y-88257501D01*
X189229998Y-88274869D01*
X189230000Y-88274869D01*
X189230002Y-88274869D01*
X189339658Y-88257501D01*
X189339659Y-88257500D01*
X189339661Y-88257500D01*
X189438587Y-88207095D01*
X189517095Y-88128587D01*
X189567500Y-88029661D01*
X189567500Y-88029659D01*
X189567501Y-88029658D01*
X189584869Y-87920002D01*
X189584869Y-87919997D01*
X189567501Y-87810341D01*
X189563505Y-87802498D01*
X189517095Y-87711413D01*
X189517092Y-87711410D01*
X189517090Y-87711407D01*
X189438592Y-87632909D01*
X189438588Y-87632906D01*
X189438587Y-87632905D01*
X189392962Y-87609658D01*
X189339658Y-87582498D01*
X189230002Y-87565131D01*
X189229998Y-87565131D01*
X189120341Y-87582498D01*
X189021414Y-87632904D01*
X189021407Y-87632909D01*
X188942909Y-87711407D01*
X188942904Y-87711414D01*
X188892498Y-87810341D01*
X188875131Y-87919997D01*
X188456376Y-87919997D01*
X188460788Y-87911339D01*
X188507500Y-87819661D01*
X188507500Y-87819659D01*
X188507501Y-87819658D01*
X188524869Y-87710002D01*
X188524869Y-87709997D01*
X188507501Y-87600341D01*
X188503685Y-87592851D01*
X188457095Y-87501413D01*
X188457092Y-87501410D01*
X188457090Y-87501407D01*
X188455680Y-87499997D01*
X191465131Y-87499997D01*
X191465131Y-87500002D01*
X191482498Y-87609658D01*
X191532904Y-87708585D01*
X191532909Y-87708592D01*
X191611407Y-87787090D01*
X191611410Y-87787092D01*
X191611413Y-87787095D01*
X191710339Y-87837500D01*
X191796336Y-87851120D01*
X191859467Y-87881048D01*
X191896399Y-87940360D01*
X191899409Y-87992989D01*
X191895131Y-88020001D01*
X191895131Y-88020002D01*
X191912498Y-88129658D01*
X191962904Y-88228585D01*
X191962909Y-88228592D01*
X192041407Y-88307090D01*
X192041410Y-88307092D01*
X192041413Y-88307095D01*
X192122842Y-88348585D01*
X192140341Y-88357501D01*
X192249998Y-88374869D01*
X192250000Y-88374869D01*
X192250002Y-88374869D01*
X192359658Y-88357501D01*
X192359659Y-88357500D01*
X192359661Y-88357500D01*
X192458587Y-88307095D01*
X192537095Y-88228587D01*
X192587500Y-88129661D01*
X192587500Y-88129659D01*
X192587501Y-88129658D01*
X192604869Y-88020002D01*
X192604869Y-88020001D01*
X192604869Y-88020000D01*
X192598633Y-87980630D01*
X192607587Y-87911339D01*
X192652582Y-87857887D01*
X192701708Y-87838759D01*
X192709661Y-87837500D01*
X192808587Y-87787095D01*
X192887095Y-87708587D01*
X192937500Y-87609661D01*
X192937500Y-87609659D01*
X192937501Y-87609658D01*
X192954869Y-87500002D01*
X192954869Y-87499997D01*
X192937501Y-87390341D01*
X192911677Y-87339658D01*
X192887095Y-87291413D01*
X192887092Y-87291410D01*
X192887090Y-87291407D01*
X192808592Y-87212909D01*
X192808588Y-87212906D01*
X192808587Y-87212905D01*
X192788162Y-87202498D01*
X192709658Y-87162498D01*
X192600002Y-87145131D01*
X192599998Y-87145131D01*
X192490341Y-87162498D01*
X192391414Y-87212904D01*
X192391407Y-87212909D01*
X192312906Y-87291410D01*
X192310319Y-87294972D01*
X192306063Y-87298253D01*
X192306004Y-87298313D01*
X192305996Y-87298305D01*
X192254990Y-87337638D01*
X192185377Y-87343619D01*
X192123581Y-87311014D01*
X192109681Y-87294972D01*
X192107093Y-87291410D01*
X192028592Y-87212909D01*
X192028588Y-87212906D01*
X192028587Y-87212905D01*
X192008162Y-87202498D01*
X191929658Y-87162498D01*
X191820002Y-87145131D01*
X191819998Y-87145131D01*
X191710341Y-87162498D01*
X191611414Y-87212904D01*
X191611407Y-87212909D01*
X191532909Y-87291407D01*
X191532904Y-87291414D01*
X191482498Y-87390341D01*
X191465131Y-87499997D01*
X188455680Y-87499997D01*
X188378592Y-87422909D01*
X188378588Y-87422906D01*
X188378587Y-87422905D01*
X188374743Y-87420946D01*
X188279658Y-87372498D01*
X188170002Y-87355131D01*
X188169998Y-87355131D01*
X188060341Y-87372498D01*
X187961414Y-87422904D01*
X187961407Y-87422909D01*
X187882909Y-87501407D01*
X187882904Y-87501414D01*
X187832498Y-87600341D01*
X187815131Y-87709997D01*
X187815131Y-87710002D01*
X187832498Y-87819656D01*
X187832499Y-87819659D01*
X187832500Y-87819661D01*
X187878076Y-87909110D01*
X187890972Y-87977778D01*
X187874425Y-88021234D01*
X187877336Y-88022717D01*
X187822498Y-88130341D01*
X187805131Y-88239997D01*
X181529031Y-88239997D01*
X181544869Y-88140002D01*
X181544869Y-88139997D01*
X181527501Y-88030341D01*
X181522233Y-88020002D01*
X181477095Y-87931413D01*
X181477092Y-87931410D01*
X181477090Y-87931407D01*
X181398592Y-87852909D01*
X181398588Y-87852906D01*
X181398587Y-87852905D01*
X181330536Y-87818231D01*
X181279742Y-87770258D01*
X181271316Y-87736235D01*
X181219800Y-87777148D01*
X181192564Y-87784724D01*
X181080341Y-87802498D01*
X180981414Y-87852904D01*
X180981407Y-87852909D01*
X180902909Y-87931407D01*
X180902904Y-87931414D01*
X180852498Y-88030341D01*
X180835131Y-88139997D01*
X179885853Y-88139997D01*
X179897731Y-88065002D01*
X179897731Y-88064997D01*
X179880363Y-87955341D01*
X179868168Y-87931407D01*
X179829957Y-87856413D01*
X179829954Y-87856410D01*
X179824218Y-87848514D01*
X179827039Y-87846464D01*
X179802010Y-87800627D01*
X179806994Y-87730935D01*
X179812682Y-87717994D01*
X179847500Y-87649661D01*
X179850154Y-87632909D01*
X179864869Y-87540002D01*
X179864869Y-87539997D01*
X179847501Y-87430341D01*
X179827119Y-87390339D01*
X179797095Y-87331413D01*
X179797092Y-87331410D01*
X179797090Y-87331407D01*
X179718592Y-87252909D01*
X179718588Y-87252906D01*
X179718587Y-87252905D01*
X179673637Y-87230002D01*
X179673627Y-87229997D01*
X181015131Y-87229997D01*
X181015131Y-87230002D01*
X181032498Y-87339658D01*
X181082904Y-87438585D01*
X181082909Y-87438592D01*
X181161407Y-87517090D01*
X181161410Y-87517092D01*
X181161413Y-87517095D01*
X181229461Y-87551767D01*
X181280256Y-87599740D01*
X181288681Y-87633763D01*
X181340199Y-87592851D01*
X181367436Y-87585275D01*
X181369999Y-87584868D01*
X181370000Y-87584869D01*
X181392825Y-87581253D01*
X181479657Y-87567501D01*
X181479658Y-87567500D01*
X181479661Y-87567500D01*
X181578587Y-87517095D01*
X181657095Y-87438587D01*
X181707500Y-87339661D01*
X181707500Y-87339659D01*
X181707501Y-87339658D01*
X181724869Y-87230002D01*
X181724869Y-87220241D01*
X181726488Y-87220241D01*
X181734020Y-87161949D01*
X181779016Y-87108497D01*
X181828140Y-87089371D01*
X181870353Y-87082685D01*
X181934658Y-87072501D01*
X181934659Y-87072500D01*
X181934661Y-87072500D01*
X182033587Y-87022095D01*
X182112095Y-86943587D01*
X182162500Y-86844661D01*
X182162500Y-86844659D01*
X182162501Y-86844658D01*
X182177187Y-86751934D01*
X182207116Y-86688800D01*
X182266427Y-86651868D01*
X182336290Y-86652866D01*
X182394523Y-86691476D01*
X182410145Y-86715038D01*
X182412499Y-86719659D01*
X182412500Y-86719661D01*
X182454994Y-86803061D01*
X182462904Y-86818585D01*
X182462909Y-86818592D01*
X182541407Y-86897090D01*
X182541410Y-86897092D01*
X182541413Y-86897095D01*
X182576297Y-86914869D01*
X182640341Y-86947501D01*
X182749998Y-86964869D01*
X182750000Y-86964869D01*
X182750002Y-86964869D01*
X182859658Y-86947501D01*
X182859659Y-86947500D01*
X182859661Y-86947500D01*
X182958587Y-86897095D01*
X183037095Y-86818587D01*
X183087500Y-86719661D01*
X183087500Y-86719659D01*
X183087501Y-86719658D01*
X183104869Y-86610002D01*
X183104869Y-86609997D01*
X183096950Y-86559997D01*
X183515131Y-86559997D01*
X183515131Y-86560002D01*
X183532498Y-86669658D01*
X183582904Y-86768585D01*
X183582909Y-86768592D01*
X183661407Y-86847090D01*
X183661410Y-86847092D01*
X183661413Y-86847095D01*
X183717413Y-86875628D01*
X183760341Y-86897501D01*
X183869998Y-86914869D01*
X183870000Y-86914869D01*
X183870002Y-86914869D01*
X183979658Y-86897501D01*
X183979659Y-86897500D01*
X183979661Y-86897500D01*
X184078587Y-86847095D01*
X184157095Y-86768587D01*
X184207500Y-86669661D01*
X184207500Y-86669659D01*
X184207501Y-86669658D01*
X184224869Y-86560002D01*
X184224869Y-86559997D01*
X184207501Y-86450341D01*
X184187991Y-86412051D01*
X184157095Y-86351413D01*
X184157092Y-86351410D01*
X184157090Y-86351407D01*
X184078592Y-86272909D01*
X184078588Y-86272906D01*
X184078587Y-86272905D01*
X184074743Y-86270946D01*
X184014002Y-86239997D01*
X185415131Y-86239997D01*
X185415131Y-86240002D01*
X185432498Y-86349658D01*
X185482904Y-86448585D01*
X185482909Y-86448592D01*
X185561407Y-86527090D01*
X185561410Y-86527092D01*
X185561413Y-86527095D01*
X185625993Y-86560000D01*
X185660341Y-86577501D01*
X185769998Y-86594869D01*
X185770000Y-86594869D01*
X185770002Y-86594869D01*
X185879658Y-86577501D01*
X185879659Y-86577500D01*
X185879661Y-86577500D01*
X185978587Y-86527095D01*
X186057095Y-86448587D01*
X186107500Y-86349661D01*
X186107500Y-86349659D01*
X186107501Y-86349658D01*
X186118534Y-86279997D01*
X187775131Y-86279997D01*
X187775131Y-86280002D01*
X187792498Y-86389658D01*
X187842904Y-86488585D01*
X187842909Y-86488592D01*
X187921407Y-86567090D01*
X187921410Y-86567092D01*
X187921413Y-86567095D01*
X188005623Y-86610002D01*
X188020341Y-86617501D01*
X188129998Y-86634869D01*
X188130000Y-86634869D01*
X188130002Y-86634869D01*
X188239658Y-86617501D01*
X188239659Y-86617500D01*
X188239661Y-86617500D01*
X188338587Y-86567095D01*
X188417095Y-86488587D01*
X188467500Y-86389661D01*
X188467500Y-86389659D01*
X188467501Y-86389658D01*
X188484869Y-86280002D01*
X188484869Y-86279997D01*
X188467501Y-86170341D01*
X188456416Y-86148585D01*
X188417095Y-86071413D01*
X188417092Y-86071410D01*
X188417090Y-86071407D01*
X188338592Y-85992909D01*
X188338588Y-85992906D01*
X188338587Y-85992905D01*
X188334743Y-85990946D01*
X188239658Y-85942498D01*
X188130002Y-85925131D01*
X188129998Y-85925131D01*
X188020341Y-85942498D01*
X187921414Y-85992904D01*
X187921407Y-85992909D01*
X187842909Y-86071407D01*
X187842904Y-86071414D01*
X187792498Y-86170341D01*
X187775131Y-86279997D01*
X186118534Y-86279997D01*
X186124869Y-86240002D01*
X186124869Y-86239997D01*
X186107501Y-86130341D01*
X186077473Y-86071407D01*
X186057095Y-86031413D01*
X186057092Y-86031410D01*
X186057090Y-86031407D01*
X185978592Y-85952909D01*
X185978588Y-85952906D01*
X185978587Y-85952905D01*
X185953263Y-85940002D01*
X185879658Y-85902498D01*
X185770002Y-85885131D01*
X185769998Y-85885131D01*
X185660341Y-85902498D01*
X185561414Y-85952904D01*
X185561407Y-85952909D01*
X185482909Y-86031407D01*
X185482904Y-86031414D01*
X185432498Y-86130341D01*
X185415131Y-86239997D01*
X184014002Y-86239997D01*
X183979658Y-86222498D01*
X183870002Y-86205131D01*
X183869998Y-86205131D01*
X183760341Y-86222498D01*
X183661414Y-86272904D01*
X183661407Y-86272909D01*
X183582909Y-86351407D01*
X183582904Y-86351414D01*
X183532498Y-86450341D01*
X183515131Y-86559997D01*
X183096950Y-86559997D01*
X183087501Y-86500341D01*
X183062024Y-86450339D01*
X183037095Y-86401413D01*
X183037092Y-86401410D01*
X183037090Y-86401407D01*
X182958592Y-86322909D01*
X182958588Y-86322906D01*
X182958587Y-86322905D01*
X182954743Y-86320946D01*
X182859658Y-86272498D01*
X182750002Y-86255131D01*
X182749998Y-86255131D01*
X182640340Y-86272499D01*
X182640339Y-86272499D01*
X182634089Y-86275684D01*
X182565419Y-86288577D01*
X182500680Y-86262298D01*
X182460425Y-86205190D01*
X182457436Y-86135384D01*
X182467310Y-86108912D01*
X182497500Y-86049661D01*
X182506489Y-85992909D01*
X182514869Y-85940002D01*
X182514869Y-85939997D01*
X182497501Y-85830341D01*
X182452402Y-85741829D01*
X182447095Y-85731413D01*
X182447092Y-85731410D01*
X182447090Y-85731407D01*
X182368592Y-85652909D01*
X182368588Y-85652906D01*
X182368587Y-85652905D01*
X182312091Y-85624119D01*
X182269658Y-85602498D01*
X182160002Y-85585131D01*
X182159998Y-85585131D01*
X182050341Y-85602498D01*
X181951414Y-85652904D01*
X181951407Y-85652909D01*
X181872909Y-85731407D01*
X181872904Y-85731414D01*
X181822498Y-85830341D01*
X181805131Y-85939997D01*
X181805131Y-85940002D01*
X181822498Y-86049658D01*
X181872904Y-86148585D01*
X181872909Y-86148592D01*
X181894155Y-86169838D01*
X181927640Y-86231161D01*
X181922656Y-86300853D01*
X181880784Y-86356786D01*
X181825872Y-86379992D01*
X181715341Y-86397498D01*
X181616414Y-86447904D01*
X181616407Y-86447909D01*
X181537909Y-86526407D01*
X181537904Y-86526414D01*
X181487498Y-86625341D01*
X181470131Y-86734997D01*
X181470131Y-86744759D01*
X181468514Y-86744759D01*
X181460974Y-86803061D01*
X181415973Y-86856509D01*
X181366858Y-86875628D01*
X181260341Y-86892498D01*
X181161414Y-86942904D01*
X181161407Y-86942909D01*
X181082909Y-87021407D01*
X181082904Y-87021414D01*
X181032498Y-87120341D01*
X181015131Y-87229997D01*
X179673627Y-87229997D01*
X179619658Y-87202498D01*
X179510002Y-87185131D01*
X179509998Y-87185131D01*
X179400341Y-87202498D01*
X179301414Y-87252904D01*
X179301407Y-87252909D01*
X179222909Y-87331407D01*
X179222904Y-87331414D01*
X179172498Y-87430341D01*
X179155131Y-87539997D01*
X179155131Y-87540002D01*
X179172498Y-87649658D01*
X179222904Y-87748585D01*
X179228644Y-87756486D01*
X179225822Y-87758535D01*
X179250851Y-87804372D01*
X179245867Y-87874064D01*
X179240170Y-87887024D01*
X179205360Y-87955341D01*
X179198506Y-87998619D01*
X179168576Y-88061754D01*
X179109264Y-88098684D01*
X179095436Y-88101692D01*
X179090341Y-88102499D01*
X179090339Y-88102499D01*
X179090339Y-88102500D01*
X178991413Y-88152905D01*
X178991412Y-88152906D01*
X178991407Y-88152909D01*
X178912909Y-88231407D01*
X178912904Y-88231414D01*
X178862498Y-88330341D01*
X178845131Y-88439997D01*
X175383087Y-88439997D01*
X173710002Y-86700000D01*
X173710001Y-86699999D01*
X173710000Y-86699998D01*
X173261179Y-86344254D01*
X173220870Y-86287186D01*
X173217812Y-86217383D01*
X173250522Y-86159398D01*
X173322139Y-86087782D01*
X173431632Y-85923914D01*
X173507051Y-85741835D01*
X173524740Y-85652909D01*
X173545500Y-85548543D01*
X173545500Y-85351456D01*
X173511394Y-85179997D01*
X182395131Y-85179997D01*
X182395131Y-85180002D01*
X182412498Y-85289658D01*
X182462904Y-85388585D01*
X182462909Y-85388592D01*
X182541407Y-85467090D01*
X182541410Y-85467092D01*
X182541413Y-85467095D01*
X182600282Y-85497090D01*
X182640341Y-85517501D01*
X182749998Y-85534869D01*
X182750000Y-85534869D01*
X182750002Y-85534869D01*
X182859658Y-85517501D01*
X182859659Y-85517500D01*
X182859661Y-85517500D01*
X182958587Y-85467095D01*
X183037095Y-85388587D01*
X183087500Y-85289661D01*
X183087500Y-85289659D01*
X183087501Y-85289658D01*
X183104869Y-85180002D01*
X183104869Y-85179997D01*
X183485131Y-85179997D01*
X183485131Y-85180002D01*
X183502498Y-85289658D01*
X183552904Y-85388585D01*
X183552909Y-85388592D01*
X183631407Y-85467090D01*
X183631410Y-85467092D01*
X183631413Y-85467095D01*
X183690282Y-85497090D01*
X183730341Y-85517501D01*
X183839998Y-85534869D01*
X183840000Y-85534869D01*
X183840002Y-85534869D01*
X183949658Y-85517501D01*
X183949659Y-85517500D01*
X183949661Y-85517500D01*
X184048587Y-85467095D01*
X184127095Y-85388587D01*
X184166924Y-85310415D01*
X184214895Y-85259623D01*
X184282716Y-85242827D01*
X184348851Y-85265363D01*
X184385931Y-85312055D01*
X184388070Y-85310966D01*
X184392499Y-85319660D01*
X184392500Y-85319661D01*
X184422523Y-85378585D01*
X184442904Y-85418585D01*
X184442909Y-85418592D01*
X184521407Y-85497090D01*
X184521410Y-85497092D01*
X184521413Y-85497095D01*
X184575923Y-85524869D01*
X184620341Y-85547501D01*
X184729998Y-85564869D01*
X184730000Y-85564869D01*
X184730002Y-85564869D01*
X184839658Y-85547501D01*
X184839659Y-85547500D01*
X184839661Y-85547500D01*
X184938587Y-85497095D01*
X185017095Y-85418587D01*
X185067500Y-85319661D01*
X185080694Y-85236354D01*
X185099033Y-85197671D01*
X185092026Y-85182327D01*
X185300965Y-85182327D01*
X185325640Y-85236356D01*
X185332498Y-85279658D01*
X185382904Y-85378585D01*
X185382909Y-85378592D01*
X185461407Y-85457090D01*
X185461410Y-85457092D01*
X185461413Y-85457095D01*
X185539908Y-85497090D01*
X185560341Y-85507501D01*
X185669998Y-85524869D01*
X185670000Y-85524869D01*
X185670002Y-85524869D01*
X185779658Y-85507501D01*
X185779659Y-85507500D01*
X185779661Y-85507500D01*
X185878587Y-85457095D01*
X185957095Y-85378587D01*
X186007500Y-85279661D01*
X186007500Y-85279659D01*
X186007501Y-85279658D01*
X186024869Y-85170002D01*
X186024869Y-85169997D01*
X186007501Y-85060341D01*
X185996882Y-85039500D01*
X185957095Y-84961413D01*
X185957092Y-84961410D01*
X185957090Y-84961407D01*
X185878592Y-84882909D01*
X185878588Y-84882906D01*
X185878587Y-84882905D01*
X185858162Y-84872498D01*
X185779658Y-84832498D01*
X185670002Y-84815131D01*
X185669998Y-84815131D01*
X185560341Y-84832498D01*
X185461414Y-84882904D01*
X185461407Y-84882909D01*
X185382909Y-84961407D01*
X185382904Y-84961414D01*
X185332498Y-85060341D01*
X185319305Y-85143642D01*
X185300965Y-85182327D01*
X185092026Y-85182327D01*
X185074359Y-85143641D01*
X185067501Y-85100342D01*
X185067500Y-85100340D01*
X185067500Y-85100339D01*
X185017095Y-85001413D01*
X185017092Y-85001410D01*
X185017090Y-85001407D01*
X184938592Y-84922909D01*
X184938588Y-84922906D01*
X184938587Y-84922905D01*
X184934743Y-84920946D01*
X184839658Y-84872498D01*
X184730002Y-84855131D01*
X184729998Y-84855131D01*
X184620341Y-84872498D01*
X184521414Y-84922904D01*
X184521407Y-84922909D01*
X184442909Y-85001407D01*
X184442906Y-85001412D01*
X184442905Y-85001413D01*
X184403077Y-85079581D01*
X184355102Y-85130377D01*
X184287281Y-85147172D01*
X184221146Y-85124635D01*
X184184068Y-85077944D01*
X184181930Y-85079034D01*
X184177500Y-85070339D01*
X184127095Y-84971413D01*
X184127092Y-84971410D01*
X184127090Y-84971407D01*
X184048592Y-84892909D01*
X184048588Y-84892906D01*
X184048587Y-84892905D01*
X184008536Y-84872498D01*
X183949658Y-84842498D01*
X183840002Y-84825131D01*
X183839998Y-84825131D01*
X183730341Y-84842498D01*
X183631414Y-84892904D01*
X183631407Y-84892909D01*
X183552909Y-84971407D01*
X183552904Y-84971414D01*
X183502498Y-85070341D01*
X183485131Y-85179997D01*
X183104869Y-85179997D01*
X183087501Y-85070341D01*
X183052381Y-85001414D01*
X183037095Y-84971413D01*
X183037092Y-84971410D01*
X183037090Y-84971407D01*
X182958592Y-84892909D01*
X182958588Y-84892906D01*
X182958587Y-84892905D01*
X182918536Y-84872498D01*
X182859658Y-84842498D01*
X182750002Y-84825131D01*
X182749998Y-84825131D01*
X182640341Y-84842498D01*
X182541414Y-84892904D01*
X182541407Y-84892909D01*
X182462909Y-84971407D01*
X182462904Y-84971414D01*
X182412498Y-85070341D01*
X182395131Y-85179997D01*
X173511394Y-85179997D01*
X173507052Y-85158170D01*
X173507051Y-85158169D01*
X173507051Y-85158165D01*
X173502498Y-85147172D01*
X173431635Y-84976092D01*
X173431628Y-84976079D01*
X173322139Y-84812218D01*
X173322136Y-84812214D01*
X173182785Y-84672863D01*
X173182781Y-84672860D01*
X173018920Y-84563371D01*
X173018907Y-84563364D01*
X172836839Y-84487950D01*
X172836829Y-84487947D01*
X172696315Y-84459997D01*
X177435131Y-84459997D01*
X177435131Y-84460002D01*
X177452498Y-84569658D01*
X177502904Y-84668585D01*
X177502909Y-84668592D01*
X177581407Y-84747090D01*
X177581410Y-84747092D01*
X177581413Y-84747095D01*
X177655549Y-84784869D01*
X177680341Y-84797501D01*
X177789998Y-84814869D01*
X177790000Y-84814869D01*
X177790002Y-84814869D01*
X177899658Y-84797501D01*
X177899659Y-84797500D01*
X177899661Y-84797500D01*
X177998587Y-84747095D01*
X178077095Y-84668587D01*
X178127500Y-84569661D01*
X178127500Y-84569659D01*
X178127501Y-84569658D01*
X178144869Y-84460002D01*
X178144869Y-84459997D01*
X178140117Y-84429997D01*
X178875131Y-84429997D01*
X178875131Y-84430002D01*
X178892498Y-84539658D01*
X178942904Y-84638585D01*
X178942909Y-84638592D01*
X179021407Y-84717090D01*
X179021410Y-84717092D01*
X179021413Y-84717095D01*
X179080282Y-84747090D01*
X179120341Y-84767501D01*
X179229998Y-84784869D01*
X179230000Y-84784869D01*
X179230002Y-84784869D01*
X179339658Y-84767501D01*
X179339659Y-84767500D01*
X179339661Y-84767500D01*
X179438587Y-84717095D01*
X179517095Y-84638587D01*
X179567500Y-84539661D01*
X179567500Y-84539659D01*
X179567501Y-84539658D01*
X179584869Y-84430002D01*
X179584869Y-84429997D01*
X179567501Y-84320341D01*
X179532381Y-84251414D01*
X179517095Y-84221413D01*
X179517092Y-84221410D01*
X179517090Y-84221407D01*
X179438592Y-84142909D01*
X179438588Y-84142906D01*
X179438587Y-84142905D01*
X179398536Y-84122498D01*
X179339658Y-84092498D01*
X179230002Y-84075131D01*
X179229998Y-84075131D01*
X179120341Y-84092498D01*
X179021414Y-84142904D01*
X179021407Y-84142909D01*
X178942909Y-84221407D01*
X178942904Y-84221414D01*
X178892498Y-84320341D01*
X178875131Y-84429997D01*
X178140117Y-84429997D01*
X178127501Y-84350341D01*
X178112214Y-84320339D01*
X178077095Y-84251413D01*
X178077092Y-84251410D01*
X178077090Y-84251407D01*
X177998592Y-84172909D01*
X177998588Y-84172906D01*
X177998587Y-84172905D01*
X177994743Y-84170946D01*
X177899658Y-84122498D01*
X177790002Y-84105131D01*
X177789998Y-84105131D01*
X177680341Y-84122498D01*
X177581414Y-84172904D01*
X177581407Y-84172909D01*
X177502909Y-84251407D01*
X177502904Y-84251414D01*
X177452498Y-84350341D01*
X177435131Y-84459997D01*
X172696315Y-84459997D01*
X172643543Y-84449500D01*
X172643541Y-84449500D01*
X172621802Y-84449500D01*
X172554763Y-84429815D01*
X172509008Y-84377011D01*
X172497802Y-84325590D01*
X172497620Y-84074590D01*
X172517256Y-84007536D01*
X172570027Y-83961743D01*
X172621620Y-83950500D01*
X172643543Y-83950500D01*
X172773582Y-83924632D01*
X172836835Y-83912051D01*
X173018914Y-83836632D01*
X173182782Y-83727139D01*
X173322139Y-83587782D01*
X173431632Y-83423914D01*
X173437395Y-83410002D01*
X173462752Y-83348784D01*
X173479854Y-83307496D01*
X175226343Y-83307496D01*
X175226343Y-83307501D01*
X175243710Y-83417157D01*
X175294116Y-83516084D01*
X175294121Y-83516091D01*
X175372619Y-83594589D01*
X175372622Y-83594591D01*
X175372625Y-83594594D01*
X175431143Y-83624410D01*
X175471553Y-83645000D01*
X175581210Y-83662368D01*
X175581212Y-83662368D01*
X175581214Y-83662368D01*
X175690870Y-83645000D01*
X175690871Y-83644999D01*
X175690873Y-83644999D01*
X175789799Y-83594594D01*
X175868307Y-83516086D01*
X175918712Y-83417160D01*
X175923238Y-83388577D01*
X175953167Y-83325443D01*
X175957994Y-83320330D01*
X176105824Y-83172501D01*
X176167147Y-83139018D01*
X176193504Y-83136184D01*
X180684115Y-83136184D01*
X180684116Y-83136184D01*
X180785374Y-83094241D01*
X180862873Y-83016742D01*
X180862872Y-83016742D01*
X180921441Y-82958173D01*
X181677797Y-82201819D01*
X181739120Y-82168334D01*
X181765478Y-82165500D01*
X182052525Y-82165500D01*
X182119564Y-82185185D01*
X182165319Y-82237989D01*
X182175263Y-82307147D01*
X182175006Y-82308849D01*
X182174473Y-82312218D01*
X182174032Y-82315002D01*
X182191399Y-82424658D01*
X182241805Y-82523585D01*
X182241810Y-82523592D01*
X182320308Y-82602090D01*
X182320311Y-82602092D01*
X182320314Y-82602095D01*
X182419240Y-82652500D01*
X182419242Y-82652501D01*
X182528899Y-82669869D01*
X182528901Y-82669869D01*
X182528903Y-82669869D01*
X182633963Y-82653229D01*
X182703256Y-82662184D01*
X182756708Y-82707180D01*
X182773964Y-82762988D01*
X182775834Y-82762692D01*
X182794728Y-82881989D01*
X182845134Y-82980916D01*
X182850874Y-82988817D01*
X182849290Y-82989967D01*
X182876889Y-83040511D01*
X182871905Y-83110203D01*
X182866208Y-83123163D01*
X182847498Y-83159882D01*
X182830131Y-83269538D01*
X182830131Y-83269543D01*
X182847498Y-83379199D01*
X182897904Y-83478126D01*
X182897909Y-83478133D01*
X182976407Y-83556631D01*
X182976410Y-83556633D01*
X182976413Y-83556636D01*
X183075339Y-83607041D01*
X183075341Y-83607042D01*
X183184998Y-83624410D01*
X183185000Y-83624410D01*
X183185002Y-83624410D01*
X183294658Y-83607042D01*
X183294659Y-83607041D01*
X183294661Y-83607041D01*
X183393587Y-83556636D01*
X183472095Y-83478128D01*
X183522500Y-83379202D01*
X183522500Y-83379200D01*
X183522501Y-83379199D01*
X183539869Y-83269543D01*
X183539869Y-83269538D01*
X183522501Y-83159882D01*
X183497259Y-83110341D01*
X183472095Y-83060954D01*
X183472092Y-83060951D01*
X183466356Y-83053055D01*
X183467939Y-83051904D01*
X183440340Y-83001360D01*
X183445324Y-82931668D01*
X183451010Y-82918732D01*
X183469730Y-82881992D01*
X183471629Y-82870002D01*
X183471630Y-82869997D01*
X184755131Y-82869997D01*
X184755131Y-82870002D01*
X184772498Y-82979658D01*
X184822904Y-83078585D01*
X184822909Y-83078592D01*
X184901407Y-83157090D01*
X184901410Y-83157092D01*
X184901413Y-83157095D01*
X185000339Y-83207500D01*
X185000341Y-83207501D01*
X185109998Y-83224869D01*
X185110000Y-83224869D01*
X185110002Y-83224869D01*
X185140762Y-83219997D01*
X187230131Y-83219997D01*
X187230131Y-83220002D01*
X187247498Y-83329658D01*
X187297904Y-83428585D01*
X187297909Y-83428592D01*
X187376407Y-83507090D01*
X187376410Y-83507092D01*
X187376413Y-83507095D01*
X187473643Y-83556636D01*
X187475341Y-83557501D01*
X187584998Y-83574869D01*
X187585000Y-83574869D01*
X187585002Y-83574869D01*
X187694658Y-83557501D01*
X187694659Y-83557500D01*
X187694661Y-83557500D01*
X187793587Y-83507095D01*
X187819819Y-83480862D01*
X187881140Y-83447378D01*
X187950832Y-83452362D01*
X187995180Y-83480862D01*
X188021413Y-83507095D01*
X188118643Y-83556636D01*
X188120341Y-83557501D01*
X188229998Y-83574869D01*
X188230000Y-83574869D01*
X188230002Y-83574869D01*
X188256589Y-83570658D01*
X189731121Y-83570658D01*
X189731121Y-83570663D01*
X189748488Y-83680319D01*
X189798894Y-83779246D01*
X189798899Y-83779253D01*
X189877397Y-83857751D01*
X189877400Y-83857753D01*
X189877403Y-83857756D01*
X189976329Y-83908161D01*
X189976331Y-83908162D01*
X190085988Y-83925530D01*
X190085990Y-83925530D01*
X190085992Y-83925530D01*
X190195648Y-83908162D01*
X190195649Y-83908161D01*
X190195651Y-83908161D01*
X190294577Y-83857756D01*
X190373085Y-83779248D01*
X190423490Y-83680322D01*
X190423490Y-83680320D01*
X190423491Y-83680319D01*
X190440859Y-83570663D01*
X190440859Y-83570658D01*
X190423491Y-83461002D01*
X190404590Y-83423907D01*
X190397503Y-83409997D01*
X191582131Y-83409997D01*
X191582131Y-83410002D01*
X191599498Y-83519658D01*
X191649904Y-83618585D01*
X191649909Y-83618592D01*
X191728407Y-83697090D01*
X191728410Y-83697092D01*
X191728413Y-83697095D01*
X191787378Y-83727139D01*
X191827341Y-83747501D01*
X191936998Y-83764869D01*
X191937000Y-83764869D01*
X191937002Y-83764869D01*
X192046658Y-83747501D01*
X192046659Y-83747500D01*
X192046661Y-83747500D01*
X192145587Y-83697095D01*
X192224095Y-83618587D01*
X192274500Y-83519661D01*
X192274500Y-83519659D01*
X192274501Y-83519658D01*
X192291869Y-83410002D01*
X192291869Y-83409997D01*
X192274501Y-83300341D01*
X192236046Y-83224869D01*
X192224095Y-83201413D01*
X192224092Y-83201410D01*
X192224090Y-83201407D01*
X192145592Y-83122909D01*
X192145588Y-83122906D01*
X192145587Y-83122905D01*
X192098486Y-83098906D01*
X192046658Y-83072498D01*
X191937002Y-83055131D01*
X191936998Y-83055131D01*
X191827341Y-83072498D01*
X191728414Y-83122904D01*
X191728407Y-83122909D01*
X191649909Y-83201407D01*
X191649904Y-83201414D01*
X191599498Y-83300341D01*
X191582131Y-83409997D01*
X190397503Y-83409997D01*
X190373085Y-83362074D01*
X190373082Y-83362071D01*
X190373080Y-83362068D01*
X190294582Y-83283570D01*
X190294578Y-83283567D01*
X190294577Y-83283566D01*
X190267051Y-83269541D01*
X190195648Y-83233159D01*
X190085992Y-83215792D01*
X190085988Y-83215792D01*
X189976331Y-83233159D01*
X189877404Y-83283565D01*
X189877397Y-83283570D01*
X189798899Y-83362068D01*
X189798894Y-83362075D01*
X189748488Y-83461002D01*
X189731121Y-83570658D01*
X188256589Y-83570658D01*
X188339658Y-83557501D01*
X188339659Y-83557500D01*
X188339661Y-83557500D01*
X188438587Y-83507095D01*
X188517095Y-83428587D01*
X188567500Y-83329661D01*
X188567500Y-83329659D01*
X188567501Y-83329658D01*
X188584869Y-83220002D01*
X188584869Y-83219997D01*
X188567501Y-83110341D01*
X188559297Y-83094240D01*
X188517095Y-83011413D01*
X188517092Y-83011410D01*
X188517090Y-83011407D01*
X188438592Y-82932909D01*
X188438588Y-82932906D01*
X188438587Y-82932905D01*
X188410718Y-82918705D01*
X188339658Y-82882498D01*
X188230002Y-82865131D01*
X188229998Y-82865131D01*
X188120341Y-82882498D01*
X188021414Y-82932904D01*
X188021407Y-82932909D01*
X187995181Y-82959136D01*
X187933858Y-82992621D01*
X187864166Y-82987637D01*
X187819819Y-82959136D01*
X187793592Y-82932909D01*
X187793588Y-82932906D01*
X187793587Y-82932905D01*
X187765718Y-82918705D01*
X187694658Y-82882498D01*
X187585002Y-82865131D01*
X187584998Y-82865131D01*
X187475341Y-82882498D01*
X187376414Y-82932904D01*
X187376407Y-82932909D01*
X187297909Y-83011407D01*
X187297904Y-83011414D01*
X187247498Y-83110341D01*
X187230131Y-83219997D01*
X185140762Y-83219997D01*
X185219658Y-83207501D01*
X185219659Y-83207500D01*
X185219661Y-83207500D01*
X185318587Y-83157095D01*
X185397095Y-83078587D01*
X185447500Y-82979661D01*
X185447500Y-82979659D01*
X185447501Y-82979658D01*
X185464869Y-82870002D01*
X185464869Y-82869997D01*
X185447501Y-82760341D01*
X185420414Y-82707180D01*
X185397095Y-82661413D01*
X185397092Y-82661410D01*
X185397090Y-82661407D01*
X185318592Y-82582909D01*
X185318588Y-82582906D01*
X185318587Y-82582905D01*
X185284426Y-82565499D01*
X185219658Y-82532498D01*
X185110002Y-82515131D01*
X185109998Y-82515131D01*
X185000341Y-82532498D01*
X184901414Y-82582904D01*
X184901407Y-82582909D01*
X184822909Y-82661407D01*
X184822904Y-82661414D01*
X184772498Y-82760341D01*
X184755131Y-82869997D01*
X183471630Y-82869997D01*
X183487099Y-82772333D01*
X183487099Y-82772328D01*
X183469731Y-82662674D01*
X183469730Y-82662672D01*
X183469730Y-82662670D01*
X183432184Y-82588982D01*
X183419289Y-82520315D01*
X183445566Y-82455575D01*
X183454980Y-82445018D01*
X183756188Y-82143810D01*
X183817509Y-82110327D01*
X183863265Y-82109020D01*
X183979668Y-82127457D01*
X183979670Y-82127457D01*
X183979672Y-82127457D01*
X184089328Y-82110089D01*
X184089329Y-82110088D01*
X184089331Y-82110088D01*
X184188257Y-82059683D01*
X184266765Y-81981175D01*
X184317170Y-81882249D01*
X184317170Y-81882247D01*
X184317171Y-81882246D01*
X184334539Y-81772590D01*
X184334539Y-81772585D01*
X184317171Y-81662929D01*
X184274744Y-81579661D01*
X184266765Y-81564001D01*
X184266762Y-81563998D01*
X184266760Y-81563995D01*
X184188262Y-81485497D01*
X184188258Y-81485494D01*
X184188257Y-81485493D01*
X184141643Y-81461742D01*
X184089328Y-81435086D01*
X183979672Y-81417719D01*
X183979670Y-81417719D01*
X183950179Y-81422390D01*
X183893631Y-81431346D01*
X183824338Y-81422390D01*
X183786553Y-81396553D01*
X183547674Y-81157674D01*
X183514189Y-81096351D01*
X183519173Y-81026659D01*
X183524863Y-81013714D01*
X183557500Y-80949661D01*
X183560154Y-80932909D01*
X183574869Y-80840002D01*
X183574869Y-80839997D01*
X187705131Y-80839997D01*
X187705131Y-80840002D01*
X187722498Y-80949658D01*
X187755128Y-81013697D01*
X187772877Y-81048533D01*
X187772904Y-81048585D01*
X187772909Y-81048592D01*
X187851407Y-81127090D01*
X187851410Y-81127092D01*
X187851413Y-81127095D01*
X187911428Y-81157674D01*
X187950341Y-81177501D01*
X188059998Y-81194869D01*
X188060000Y-81194869D01*
X188060002Y-81194869D01*
X188169658Y-81177501D01*
X188169659Y-81177500D01*
X188169661Y-81177500D01*
X188268587Y-81127095D01*
X188347095Y-81048587D01*
X188397500Y-80949661D01*
X188397500Y-80949659D01*
X188397501Y-80949658D01*
X188414869Y-80840002D01*
X188414869Y-80839997D01*
X188397501Y-80730341D01*
X188375466Y-80687095D01*
X188347095Y-80631413D01*
X188347092Y-80631410D01*
X188347090Y-80631407D01*
X188268592Y-80552909D01*
X188268588Y-80552906D01*
X188268587Y-80552905D01*
X188255771Y-80546375D01*
X188169658Y-80502498D01*
X188060002Y-80485131D01*
X188059998Y-80485131D01*
X187950341Y-80502498D01*
X187851414Y-80552904D01*
X187851407Y-80552909D01*
X187772909Y-80631407D01*
X187772904Y-80631414D01*
X187722498Y-80730341D01*
X187705131Y-80839997D01*
X183574869Y-80839997D01*
X183557501Y-80730341D01*
X183535466Y-80687095D01*
X183507095Y-80631413D01*
X183507092Y-80631410D01*
X183507090Y-80631407D01*
X183428592Y-80552909D01*
X183428588Y-80552906D01*
X183428587Y-80552905D01*
X183415771Y-80546375D01*
X183329658Y-80502498D01*
X183220002Y-80485131D01*
X183219998Y-80485131D01*
X183110341Y-80502498D01*
X183011414Y-80552904D01*
X183011407Y-80552909D01*
X182932909Y-80631407D01*
X182932904Y-80631414D01*
X182882499Y-80730341D01*
X182867270Y-80826490D01*
X182837340Y-80889624D01*
X182778029Y-80926555D01*
X182708166Y-80925557D01*
X182688503Y-80917576D01*
X182619658Y-80882498D01*
X182510002Y-80865131D01*
X182509998Y-80865131D01*
X182400341Y-80882498D01*
X182301414Y-80932904D01*
X182301407Y-80932909D01*
X182222909Y-81011407D01*
X182222904Y-81011414D01*
X182172498Y-81110341D01*
X182155131Y-81219997D01*
X182155131Y-81220002D01*
X182172498Y-81329658D01*
X182225768Y-81434206D01*
X182238664Y-81502875D01*
X182212387Y-81567615D01*
X182155281Y-81607872D01*
X182115283Y-81614500D01*
X181545199Y-81614500D01*
X181511401Y-81628500D01*
X181477603Y-81642500D01*
X181477601Y-81642501D01*
X181443941Y-81656442D01*
X180551520Y-82548865D01*
X180490197Y-82582350D01*
X180463839Y-82585184D01*
X176018181Y-82585184D01*
X175951142Y-82565499D01*
X175920500Y-82530137D01*
X175902985Y-82593137D01*
X175879504Y-82617391D01*
X175880605Y-82618492D01*
X175871970Y-82627126D01*
X175871969Y-82627127D01*
X175633964Y-82865131D01*
X175568415Y-82930680D01*
X175507092Y-82964164D01*
X175500134Y-82965471D01*
X175471553Y-82969998D01*
X175372626Y-83020403D01*
X175372619Y-83020408D01*
X175294121Y-83098906D01*
X175294116Y-83098913D01*
X175243710Y-83197840D01*
X175226343Y-83307496D01*
X173479854Y-83307496D01*
X173507051Y-83241835D01*
X173533207Y-83110341D01*
X173545500Y-83048543D01*
X173545500Y-82851456D01*
X173507052Y-82658170D01*
X173507051Y-82658169D01*
X173507051Y-82658165D01*
X173507049Y-82658160D01*
X173431635Y-82476092D01*
X173431628Y-82476079D01*
X173322139Y-82312218D01*
X173322136Y-82312214D01*
X173182785Y-82172863D01*
X173182781Y-82172860D01*
X173018920Y-82063371D01*
X173018907Y-82063364D01*
X172986636Y-82049997D01*
X175425131Y-82049997D01*
X175425131Y-82050002D01*
X175442498Y-82159658D01*
X175492904Y-82258585D01*
X175492909Y-82258592D01*
X175571407Y-82337090D01*
X175571410Y-82337092D01*
X175571413Y-82337095D01*
X175598113Y-82350699D01*
X175670341Y-82387501D01*
X175779998Y-82404869D01*
X175789759Y-82404869D01*
X175789759Y-82406616D01*
X175847595Y-82414083D01*
X175897211Y-82455839D01*
X175895443Y-82443537D01*
X175924468Y-82379981D01*
X175961887Y-82350699D01*
X175988587Y-82337095D01*
X176067095Y-82258587D01*
X176117500Y-82159661D01*
X176117500Y-82159659D01*
X176117501Y-82159658D01*
X176134869Y-82050002D01*
X176134869Y-82049997D01*
X176117501Y-81940341D01*
X176081833Y-81870339D01*
X176067095Y-81841413D01*
X176067092Y-81841410D01*
X176067090Y-81841407D01*
X175988592Y-81762909D01*
X175988588Y-81762906D01*
X175988587Y-81762905D01*
X175977174Y-81757090D01*
X175889658Y-81712498D01*
X175780002Y-81695131D01*
X175779998Y-81695131D01*
X175670341Y-81712498D01*
X175571414Y-81762904D01*
X175571407Y-81762909D01*
X175492909Y-81841407D01*
X175492904Y-81841414D01*
X175442498Y-81940341D01*
X175425131Y-82049997D01*
X172986636Y-82049997D01*
X172836839Y-81987950D01*
X172836829Y-81987947D01*
X172643543Y-81949500D01*
X172643541Y-81949500D01*
X172619988Y-81949500D01*
X172552949Y-81929815D01*
X172507194Y-81877011D01*
X172495988Y-81825590D01*
X172495987Y-81824869D01*
X172495806Y-81574588D01*
X172515442Y-81507535D01*
X172568213Y-81461742D01*
X172619804Y-81450499D01*
X173176518Y-81450499D01*
X173270304Y-81435646D01*
X173383342Y-81378050D01*
X173473050Y-81288342D01*
X173530646Y-81175304D01*
X173530646Y-81175302D01*
X173530647Y-81175301D01*
X173543151Y-81096351D01*
X173545500Y-81081519D01*
X173545499Y-80549997D01*
X175075131Y-80549997D01*
X175075131Y-80550002D01*
X175092498Y-80659658D01*
X175142904Y-80758585D01*
X175142909Y-80758592D01*
X175221407Y-80837090D01*
X175221410Y-80837092D01*
X175221413Y-80837095D01*
X175310522Y-80882498D01*
X175320341Y-80887501D01*
X175429998Y-80904869D01*
X175430000Y-80904869D01*
X175430002Y-80904869D01*
X175539658Y-80887501D01*
X175539659Y-80887500D01*
X175539661Y-80887500D01*
X175638587Y-80837095D01*
X175717095Y-80758587D01*
X175767500Y-80659661D01*
X175767500Y-80659659D01*
X175767501Y-80659658D01*
X175784869Y-80550002D01*
X175784869Y-80549997D01*
X175767501Y-80440341D01*
X175740425Y-80387201D01*
X175717095Y-80341413D01*
X175717092Y-80341410D01*
X175717090Y-80341407D01*
X175638592Y-80262909D01*
X175638588Y-80262906D01*
X175638587Y-80262905D01*
X175634743Y-80260946D01*
X175539658Y-80212498D01*
X175430002Y-80195131D01*
X175429998Y-80195131D01*
X175320341Y-80212498D01*
X175221414Y-80262904D01*
X175221407Y-80262909D01*
X175142909Y-80341407D01*
X175142904Y-80341414D01*
X175092498Y-80440341D01*
X175075131Y-80549997D01*
X173545499Y-80549997D01*
X173545499Y-80169997D01*
X173985131Y-80169997D01*
X173985131Y-80170002D01*
X174002498Y-80279658D01*
X174052904Y-80378585D01*
X174052909Y-80378592D01*
X174131407Y-80457090D01*
X174131410Y-80457092D01*
X174131413Y-80457095D01*
X174193216Y-80488585D01*
X174230341Y-80507501D01*
X174339998Y-80524869D01*
X174340000Y-80524869D01*
X174340002Y-80524869D01*
X174449658Y-80507501D01*
X174449659Y-80507500D01*
X174449661Y-80507500D01*
X174548587Y-80457095D01*
X174627095Y-80378587D01*
X174677500Y-80279661D01*
X174677500Y-80279659D01*
X174677501Y-80279658D01*
X174694869Y-80170002D01*
X174694869Y-80169997D01*
X174677501Y-80060341D01*
X174640387Y-79987500D01*
X174627095Y-79961413D01*
X174627092Y-79961410D01*
X174627090Y-79961407D01*
X174548592Y-79882909D01*
X174548588Y-79882906D01*
X174548587Y-79882905D01*
X174544743Y-79880946D01*
X174449658Y-79832498D01*
X174340002Y-79815131D01*
X174339998Y-79815131D01*
X174230341Y-79832498D01*
X174131414Y-79882904D01*
X174131407Y-79882909D01*
X174052909Y-79961407D01*
X174052904Y-79961414D01*
X174002498Y-80060341D01*
X173985131Y-80169997D01*
X173545499Y-80169997D01*
X173545499Y-79818482D01*
X173530646Y-79724696D01*
X173492585Y-79649997D01*
X177542631Y-79649997D01*
X177542631Y-79650002D01*
X177559998Y-79759658D01*
X177610404Y-79858585D01*
X177610409Y-79858592D01*
X177688907Y-79937090D01*
X177688910Y-79937092D01*
X177688913Y-79937095D01*
X177688915Y-79937096D01*
X177696805Y-79942828D01*
X177695908Y-79944062D01*
X177738880Y-79984638D01*
X177755682Y-80052457D01*
X177733151Y-80118594D01*
X177719477Y-80134840D01*
X177662906Y-80191410D01*
X177662904Y-80191414D01*
X177612498Y-80290341D01*
X177595131Y-80399997D01*
X177595131Y-80400002D01*
X177612498Y-80509658D01*
X177662904Y-80608585D01*
X177662909Y-80608592D01*
X177741407Y-80687090D01*
X177741410Y-80687092D01*
X177741413Y-80687095D01*
X177826285Y-80730339D01*
X177840341Y-80737501D01*
X177949998Y-80754869D01*
X177950000Y-80754869D01*
X177950002Y-80754869D01*
X178059658Y-80737501D01*
X178059659Y-80737500D01*
X178059661Y-80737500D01*
X178158587Y-80687095D01*
X178237095Y-80608587D01*
X178287500Y-80509661D01*
X178287500Y-80509659D01*
X178287501Y-80509658D01*
X178304869Y-80400002D01*
X178304869Y-80399997D01*
X178287501Y-80290341D01*
X178282232Y-80280000D01*
X178282230Y-80279997D01*
X190165131Y-80279997D01*
X190165131Y-80280002D01*
X190182498Y-80389658D01*
X190232904Y-80488585D01*
X190232909Y-80488592D01*
X190311407Y-80567090D01*
X190311410Y-80567092D01*
X190311413Y-80567095D01*
X190392842Y-80608585D01*
X190410341Y-80617501D01*
X190519998Y-80634869D01*
X190520000Y-80634869D01*
X190520002Y-80634869D01*
X190629658Y-80617501D01*
X190629659Y-80617500D01*
X190629661Y-80617500D01*
X190728587Y-80567095D01*
X190807095Y-80488587D01*
X190826757Y-80449997D01*
X191485131Y-80449997D01*
X191485131Y-80450002D01*
X191502498Y-80559658D01*
X191552904Y-80658585D01*
X191552909Y-80658592D01*
X191631407Y-80737090D01*
X191631410Y-80737092D01*
X191631413Y-80737095D01*
X191666297Y-80754869D01*
X191730341Y-80787501D01*
X191839998Y-80804869D01*
X191840000Y-80804869D01*
X191840002Y-80804869D01*
X191949658Y-80787501D01*
X191949659Y-80787500D01*
X191949661Y-80787500D01*
X192048587Y-80737095D01*
X192127095Y-80658587D01*
X192177500Y-80559661D01*
X192177500Y-80559659D01*
X192177501Y-80559658D01*
X192194869Y-80450002D01*
X192194869Y-80449997D01*
X192177501Y-80340341D01*
X192146583Y-80279661D01*
X192127095Y-80241413D01*
X192127092Y-80241410D01*
X192127090Y-80241407D01*
X192048592Y-80162909D01*
X192048588Y-80162906D01*
X192048587Y-80162905D01*
X191993506Y-80134840D01*
X191949658Y-80112498D01*
X191840002Y-80095131D01*
X191839998Y-80095131D01*
X191730341Y-80112498D01*
X191631414Y-80162904D01*
X191631407Y-80162909D01*
X191552909Y-80241407D01*
X191552904Y-80241414D01*
X191502498Y-80340341D01*
X191485131Y-80449997D01*
X190826757Y-80449997D01*
X190857500Y-80389661D01*
X190857500Y-80389659D01*
X190857501Y-80389658D01*
X190874869Y-80280002D01*
X190874869Y-80279997D01*
X190857501Y-80170341D01*
X190839412Y-80134840D01*
X190807095Y-80071413D01*
X190807092Y-80071410D01*
X190807090Y-80071407D01*
X190728592Y-79992909D01*
X190728588Y-79992906D01*
X190728587Y-79992905D01*
X190712362Y-79984638D01*
X190629658Y-79942498D01*
X190520002Y-79925131D01*
X190519998Y-79925131D01*
X190410341Y-79942498D01*
X190311414Y-79992904D01*
X190311407Y-79992909D01*
X190232909Y-80071407D01*
X190232904Y-80071414D01*
X190182498Y-80170341D01*
X190165131Y-80279997D01*
X178282230Y-80279997D01*
X178237095Y-80191413D01*
X178237092Y-80191410D01*
X178237090Y-80191407D01*
X178158592Y-80112909D01*
X178158588Y-80112906D01*
X178158587Y-80112905D01*
X178158585Y-80112904D01*
X178150695Y-80107172D01*
X178151590Y-80105939D01*
X178108616Y-80065356D01*
X178091818Y-79997536D01*
X178114352Y-79931400D01*
X178128017Y-79915164D01*
X178184595Y-79858587D01*
X178235000Y-79759661D01*
X178235000Y-79759659D01*
X178235001Y-79759658D01*
X178252369Y-79650002D01*
X178252369Y-79649997D01*
X178235001Y-79540341D01*
X178234653Y-79539658D01*
X178184595Y-79441413D01*
X178184592Y-79441410D01*
X178184590Y-79441407D01*
X178173180Y-79429997D01*
X181095131Y-79429997D01*
X181095131Y-79430002D01*
X181112498Y-79539658D01*
X181162904Y-79638585D01*
X181162909Y-79638592D01*
X181241407Y-79717090D01*
X181241410Y-79717092D01*
X181241413Y-79717095D01*
X181311485Y-79752798D01*
X181340341Y-79767501D01*
X181449998Y-79784869D01*
X181450000Y-79784869D01*
X181450002Y-79784869D01*
X181559658Y-79767501D01*
X181559659Y-79767500D01*
X181559661Y-79767500D01*
X181658587Y-79717095D01*
X181737095Y-79638587D01*
X181787500Y-79539661D01*
X181787500Y-79539659D01*
X181787501Y-79539658D01*
X181804869Y-79430002D01*
X181804869Y-79429997D01*
X181787501Y-79320341D01*
X181745117Y-79237158D01*
X181737095Y-79221413D01*
X181737092Y-79221410D01*
X181737090Y-79221407D01*
X181658592Y-79142909D01*
X181658588Y-79142906D01*
X181658587Y-79142905D01*
X181610856Y-79118585D01*
X181559658Y-79092498D01*
X181450002Y-79075131D01*
X181449998Y-79075131D01*
X181340341Y-79092498D01*
X181241414Y-79142904D01*
X181241407Y-79142909D01*
X181162909Y-79221407D01*
X181162904Y-79221414D01*
X181112498Y-79320341D01*
X181095131Y-79429997D01*
X178173180Y-79429997D01*
X178106092Y-79362909D01*
X178106088Y-79362906D01*
X178106087Y-79362905D01*
X178102243Y-79360946D01*
X178007158Y-79312498D01*
X177897502Y-79295131D01*
X177897498Y-79295131D01*
X177787841Y-79312498D01*
X177688914Y-79362904D01*
X177688907Y-79362909D01*
X177610409Y-79441407D01*
X177610404Y-79441414D01*
X177559998Y-79540341D01*
X177542631Y-79649997D01*
X173492585Y-79649997D01*
X173473050Y-79611658D01*
X173473046Y-79611654D01*
X173473045Y-79611652D01*
X173383347Y-79521954D01*
X173383344Y-79521952D01*
X173383342Y-79521950D01*
X173305660Y-79482369D01*
X173270301Y-79464352D01*
X173176524Y-79449500D01*
X172618174Y-79449500D01*
X172551135Y-79429815D01*
X172505380Y-79377011D01*
X172494174Y-79325589D01*
X172494170Y-79320341D01*
X172494097Y-79218901D01*
X172494029Y-79127497D01*
X175375131Y-79127497D01*
X175375131Y-79127502D01*
X175392498Y-79237158D01*
X175442904Y-79336085D01*
X175442909Y-79336092D01*
X175521407Y-79414590D01*
X175521410Y-79414592D01*
X175521413Y-79414595D01*
X175619067Y-79464352D01*
X175620341Y-79465001D01*
X175729998Y-79482369D01*
X175730000Y-79482369D01*
X175730002Y-79482369D01*
X175839658Y-79465001D01*
X175839659Y-79465000D01*
X175839661Y-79465000D01*
X175938587Y-79414595D01*
X176017095Y-79336087D01*
X176067500Y-79237161D01*
X176067500Y-79237159D01*
X176067501Y-79237158D01*
X176084869Y-79127502D01*
X176084869Y-79127497D01*
X176067501Y-79017841D01*
X176018716Y-78922095D01*
X176017095Y-78918913D01*
X176017092Y-78918910D01*
X176017090Y-78918907D01*
X175938592Y-78840409D01*
X175938588Y-78840406D01*
X175938587Y-78840405D01*
X175932081Y-78837090D01*
X175839658Y-78789998D01*
X175730002Y-78772631D01*
X175729998Y-78772631D01*
X175620341Y-78789998D01*
X175521414Y-78840404D01*
X175521407Y-78840409D01*
X175442909Y-78918907D01*
X175442904Y-78918914D01*
X175392498Y-79017841D01*
X175375131Y-79127497D01*
X172494029Y-79127497D01*
X172493601Y-78549997D01*
X173985131Y-78549997D01*
X173985131Y-78550002D01*
X174002498Y-78659658D01*
X174052904Y-78758585D01*
X174052909Y-78758592D01*
X174131407Y-78837090D01*
X174131410Y-78837092D01*
X174131413Y-78837095D01*
X174230339Y-78887500D01*
X174230341Y-78887501D01*
X174339998Y-78904869D01*
X174340000Y-78904869D01*
X174340002Y-78904869D01*
X174449658Y-78887501D01*
X174449659Y-78887500D01*
X174449661Y-78887500D01*
X174548587Y-78837095D01*
X174627095Y-78758587D01*
X174677500Y-78659661D01*
X174677500Y-78659659D01*
X174677501Y-78659658D01*
X174681407Y-78634997D01*
X181905131Y-78634997D01*
X181905131Y-78635002D01*
X181922498Y-78744658D01*
X181972904Y-78843585D01*
X181972909Y-78843592D01*
X182051407Y-78922090D01*
X182051410Y-78922092D01*
X182051413Y-78922095D01*
X182150339Y-78972500D01*
X182150341Y-78972501D01*
X182259998Y-78989869D01*
X182260000Y-78989869D01*
X182260002Y-78989869D01*
X182369658Y-78972501D01*
X182369659Y-78972500D01*
X182369661Y-78972500D01*
X182468587Y-78922095D01*
X182500685Y-78889997D01*
X187295131Y-78889997D01*
X187295131Y-78890002D01*
X187312498Y-78999658D01*
X187362904Y-79098585D01*
X187362909Y-79098592D01*
X187441407Y-79177090D01*
X187441410Y-79177092D01*
X187441413Y-79177095D01*
X187529189Y-79221819D01*
X187540341Y-79227501D01*
X187649998Y-79244869D01*
X187650000Y-79244869D01*
X187650002Y-79244869D01*
X187759658Y-79227501D01*
X187759659Y-79227500D01*
X187759661Y-79227500D01*
X187858587Y-79177095D01*
X187937095Y-79098587D01*
X187987500Y-78999661D01*
X187987500Y-78999659D01*
X187987501Y-78999658D01*
X188004869Y-78890002D01*
X188004869Y-78889997D01*
X187987501Y-78780341D01*
X187947282Y-78701407D01*
X187937095Y-78681413D01*
X187937092Y-78681410D01*
X187937090Y-78681407D01*
X187858592Y-78602909D01*
X187858588Y-78602906D01*
X187858587Y-78602905D01*
X187854743Y-78600946D01*
X187759658Y-78552498D01*
X187650002Y-78535131D01*
X187649998Y-78535131D01*
X187540341Y-78552498D01*
X187441414Y-78602904D01*
X187441407Y-78602909D01*
X187362909Y-78681407D01*
X187362904Y-78681414D01*
X187312498Y-78780341D01*
X187295131Y-78889997D01*
X182500685Y-78889997D01*
X182547095Y-78843587D01*
X182597500Y-78744661D01*
X182597500Y-78744659D01*
X182597501Y-78744658D01*
X182614869Y-78635002D01*
X182614869Y-78634997D01*
X182597501Y-78525341D01*
X182597500Y-78525339D01*
X182547095Y-78426413D01*
X182547092Y-78426410D01*
X182547090Y-78426407D01*
X182468592Y-78347909D01*
X182468588Y-78347906D01*
X182468587Y-78347905D01*
X182428540Y-78327500D01*
X182369658Y-78297498D01*
X182260002Y-78280131D01*
X182259998Y-78280131D01*
X182150341Y-78297498D01*
X182051414Y-78347904D01*
X182051407Y-78347909D01*
X181972909Y-78426407D01*
X181972904Y-78426414D01*
X181922498Y-78525341D01*
X181905131Y-78634997D01*
X174681407Y-78634997D01*
X174694869Y-78550002D01*
X174694869Y-78549997D01*
X174677501Y-78440341D01*
X174639046Y-78364869D01*
X174627095Y-78341413D01*
X174627092Y-78341410D01*
X174627090Y-78341407D01*
X174548592Y-78262909D01*
X174548588Y-78262906D01*
X174548587Y-78262905D01*
X174544743Y-78260946D01*
X174449658Y-78212498D01*
X174340002Y-78195131D01*
X174339998Y-78195131D01*
X174230341Y-78212498D01*
X174131414Y-78262904D01*
X174131407Y-78262909D01*
X174052909Y-78341407D01*
X174052904Y-78341414D01*
X174002498Y-78440341D01*
X173985131Y-78549997D01*
X172493601Y-78549997D01*
X172492303Y-76799997D01*
X173475131Y-76799997D01*
X173475131Y-76800002D01*
X173492498Y-76909658D01*
X173542904Y-77008585D01*
X173542909Y-77008592D01*
X173621407Y-77087090D01*
X173621410Y-77087092D01*
X173621413Y-77087095D01*
X173720339Y-77137500D01*
X173720341Y-77137501D01*
X173829998Y-77154869D01*
X173830000Y-77154869D01*
X173830002Y-77154869D01*
X173939658Y-77137501D01*
X173939659Y-77137500D01*
X173939661Y-77137500D01*
X174038587Y-77087095D01*
X174117095Y-77008587D01*
X174167500Y-76909661D01*
X174167500Y-76909659D01*
X174167501Y-76909658D01*
X174184869Y-76800002D01*
X174184869Y-76799997D01*
X174167501Y-76690341D01*
X174157648Y-76671003D01*
X174117095Y-76591413D01*
X174117092Y-76591410D01*
X174117090Y-76591407D01*
X174038592Y-76512909D01*
X174038588Y-76512906D01*
X174038587Y-76512905D01*
X174013263Y-76500002D01*
X174013253Y-76499997D01*
X184655129Y-76499997D01*
X184655129Y-76500002D01*
X184672496Y-76609658D01*
X184722902Y-76708585D01*
X184722907Y-76708592D01*
X184801405Y-76787090D01*
X184801408Y-76787092D01*
X184801411Y-76787095D01*
X184900337Y-76837500D01*
X184900338Y-76837500D01*
X184900340Y-76837501D01*
X184900339Y-76837501D01*
X184929503Y-76842120D01*
X184992638Y-76872049D01*
X185029570Y-76931360D01*
X185028572Y-77001222D01*
X184989963Y-77059455D01*
X184966402Y-77075077D01*
X184931414Y-77092904D01*
X184931407Y-77092909D01*
X184852909Y-77171407D01*
X184852904Y-77171414D01*
X184802498Y-77270341D01*
X184785131Y-77379997D01*
X184785131Y-77380002D01*
X184802498Y-77489658D01*
X184852904Y-77588585D01*
X184852909Y-77588592D01*
X184931407Y-77667090D01*
X184931410Y-77667092D01*
X184931413Y-77667095D01*
X185019278Y-77711864D01*
X185030341Y-77717501D01*
X185139998Y-77734869D01*
X185140000Y-77734869D01*
X185140002Y-77734869D01*
X185259300Y-77715974D01*
X185259564Y-77717640D01*
X185318063Y-77715959D01*
X185377902Y-77752030D01*
X185408740Y-77814725D01*
X185404492Y-77874207D01*
X185402498Y-77880341D01*
X185385131Y-77989997D01*
X185385131Y-77990002D01*
X185402498Y-78099658D01*
X185452904Y-78198585D01*
X185452909Y-78198592D01*
X185531407Y-78277090D01*
X185531410Y-78277092D01*
X185531413Y-78277095D01*
X185630339Y-78327500D01*
X185630341Y-78327501D01*
X185739998Y-78344869D01*
X185740000Y-78344869D01*
X185740002Y-78344869D01*
X185849658Y-78327501D01*
X185849659Y-78327500D01*
X185849661Y-78327500D01*
X185948587Y-78277095D01*
X186027095Y-78198587D01*
X186077253Y-78100144D01*
X186125227Y-78049348D01*
X186193048Y-78032553D01*
X186259183Y-78055090D01*
X186298223Y-78100145D01*
X186322904Y-78148585D01*
X186322909Y-78148592D01*
X186401407Y-78227090D01*
X186401410Y-78227092D01*
X186401413Y-78227095D01*
X186499534Y-78277090D01*
X186500341Y-78277501D01*
X186609998Y-78294869D01*
X186610000Y-78294869D01*
X186610002Y-78294869D01*
X186719658Y-78277501D01*
X186719659Y-78277500D01*
X186719661Y-78277500D01*
X186818587Y-78227095D01*
X186897095Y-78148587D01*
X186947500Y-78049661D01*
X186947500Y-78049659D01*
X186947501Y-78049658D01*
X186964869Y-77940002D01*
X186964869Y-77939997D01*
X186948177Y-77834609D01*
X186957132Y-77765315D01*
X187002128Y-77711864D01*
X187014343Y-77704733D01*
X187068587Y-77677095D01*
X187147095Y-77598587D01*
X187197500Y-77499661D01*
X187197500Y-77499659D01*
X187197501Y-77499658D01*
X187214869Y-77390002D01*
X187214869Y-77389997D01*
X187197501Y-77280341D01*
X187192405Y-77270339D01*
X187147095Y-77181413D01*
X187147092Y-77181410D01*
X187147090Y-77181407D01*
X187068592Y-77102909D01*
X187068588Y-77102906D01*
X187068587Y-77102905D01*
X187037548Y-77087090D01*
X186969658Y-77052498D01*
X186860002Y-77035131D01*
X186859998Y-77035131D01*
X186750341Y-77052498D01*
X186651414Y-77102904D01*
X186651407Y-77102909D01*
X186572909Y-77181407D01*
X186572904Y-77181414D01*
X186522498Y-77280341D01*
X186505131Y-77389997D01*
X186505131Y-77390003D01*
X186521822Y-77495391D01*
X186512867Y-77564684D01*
X186467870Y-77618136D01*
X186455645Y-77625272D01*
X186401414Y-77652904D01*
X186401407Y-77652909D01*
X186322909Y-77731407D01*
X186322904Y-77731414D01*
X186272745Y-77829856D01*
X186224771Y-77880651D01*
X186156950Y-77897446D01*
X186090815Y-77874908D01*
X186051777Y-77829856D01*
X186027095Y-77781413D01*
X186027090Y-77781407D01*
X185948592Y-77702909D01*
X185948588Y-77702906D01*
X185948587Y-77702905D01*
X185897922Y-77677090D01*
X185849658Y-77652498D01*
X185740002Y-77635131D01*
X185739998Y-77635131D01*
X185620700Y-77654026D01*
X185620436Y-77652361D01*
X185561918Y-77654035D01*
X185502085Y-77617955D01*
X185471256Y-77555255D01*
X185475510Y-77495783D01*
X185477496Y-77489667D01*
X185477500Y-77489661D01*
X185488484Y-77420315D01*
X185494869Y-77380002D01*
X185494869Y-77379997D01*
X185477501Y-77270341D01*
X185461324Y-77238592D01*
X185427095Y-77171413D01*
X185427092Y-77171410D01*
X185427090Y-77171407D01*
X185348592Y-77092909D01*
X185348588Y-77092906D01*
X185348587Y-77092905D01*
X185249661Y-77042500D01*
X185249659Y-77042499D01*
X185249658Y-77042499D01*
X185220491Y-77037879D01*
X185203865Y-77029997D01*
X189165131Y-77029997D01*
X189165131Y-77030002D01*
X189182498Y-77139658D01*
X189232904Y-77238585D01*
X189232909Y-77238592D01*
X189270658Y-77276341D01*
X189304143Y-77337664D01*
X189299159Y-77407356D01*
X189293463Y-77420315D01*
X189242498Y-77520342D01*
X189225131Y-77629997D01*
X189225131Y-77630002D01*
X189242498Y-77739658D01*
X189292904Y-77838585D01*
X189292909Y-77838592D01*
X189371407Y-77917090D01*
X189371410Y-77917092D01*
X189371413Y-77917095D01*
X189416367Y-77940000D01*
X189470341Y-77967501D01*
X189584514Y-77985584D01*
X189647648Y-78015513D01*
X189684580Y-78074824D01*
X189687589Y-78088659D01*
X189692498Y-78119658D01*
X189742904Y-78218585D01*
X189742909Y-78218592D01*
X189821407Y-78297090D01*
X189821410Y-78297092D01*
X189821413Y-78297095D01*
X189915175Y-78344869D01*
X189920341Y-78347501D01*
X190029998Y-78364869D01*
X190030000Y-78364869D01*
X190030002Y-78364869D01*
X190139658Y-78347501D01*
X190139659Y-78347500D01*
X190139661Y-78347500D01*
X190238587Y-78297095D01*
X190317095Y-78218587D01*
X190367500Y-78119661D01*
X190367500Y-78119659D01*
X190367501Y-78119658D01*
X190384869Y-78010002D01*
X190384869Y-78009997D01*
X190367501Y-77900341D01*
X190366026Y-77897446D01*
X190317095Y-77801413D01*
X190317092Y-77801410D01*
X190317090Y-77801407D01*
X190238592Y-77722909D01*
X190238589Y-77722907D01*
X190238587Y-77722905D01*
X190139661Y-77672500D01*
X190139660Y-77672499D01*
X190137339Y-77671317D01*
X190086543Y-77623342D01*
X190069748Y-77555521D01*
X190092285Y-77489386D01*
X190147001Y-77445935D01*
X190174241Y-77438358D01*
X190179661Y-77437500D01*
X190278587Y-77387095D01*
X190357095Y-77308587D01*
X190407500Y-77209661D01*
X190407500Y-77209659D01*
X190407501Y-77209658D01*
X190424869Y-77100002D01*
X190424869Y-77099997D01*
X190407501Y-76990341D01*
X190371833Y-76920339D01*
X190357095Y-76891413D01*
X190357092Y-76891410D01*
X190357090Y-76891407D01*
X190278592Y-76812909D01*
X190278588Y-76812906D01*
X190278587Y-76812905D01*
X190179661Y-76762500D01*
X190179660Y-76762499D01*
X190179657Y-76762498D01*
X190179659Y-76762498D01*
X190070573Y-76745221D01*
X190050780Y-76735838D01*
X190009427Y-76754724D01*
X189960340Y-76762499D01*
X189900062Y-76793211D01*
X189831393Y-76806106D01*
X189766653Y-76779828D01*
X189756089Y-76770406D01*
X189728592Y-76742909D01*
X189728588Y-76742906D01*
X189728587Y-76742905D01*
X189699513Y-76728091D01*
X189629658Y-76692498D01*
X189520002Y-76675131D01*
X189519998Y-76675131D01*
X189410341Y-76692498D01*
X189311414Y-76742904D01*
X189311407Y-76742909D01*
X189232909Y-76821407D01*
X189232904Y-76821414D01*
X189182498Y-76920341D01*
X189165131Y-77029997D01*
X185203865Y-77029997D01*
X185157357Y-77007949D01*
X185120427Y-76948637D01*
X185121425Y-76878774D01*
X185160036Y-76820542D01*
X185183587Y-76804927D01*
X185218585Y-76787095D01*
X185297093Y-76708587D01*
X185347498Y-76609661D01*
X185347498Y-76609659D01*
X185347499Y-76609658D01*
X185364867Y-76500002D01*
X185364867Y-76499997D01*
X185347499Y-76390341D01*
X185333866Y-76363585D01*
X185297093Y-76291413D01*
X185297090Y-76291410D01*
X185297088Y-76291407D01*
X185218590Y-76212909D01*
X185218586Y-76212906D01*
X185218585Y-76212905D01*
X185214741Y-76210946D01*
X185119656Y-76162498D01*
X185072294Y-76154997D01*
X186355131Y-76154997D01*
X186355131Y-76155002D01*
X186372498Y-76264658D01*
X186422904Y-76363585D01*
X186422909Y-76363592D01*
X186501407Y-76442090D01*
X186501410Y-76442092D01*
X186501413Y-76442095D01*
X186600339Y-76492500D01*
X186600341Y-76492501D01*
X186709998Y-76509869D01*
X186710000Y-76509869D01*
X186710002Y-76509869D01*
X186819658Y-76492501D01*
X186819659Y-76492500D01*
X186819661Y-76492500D01*
X186918587Y-76442095D01*
X186997095Y-76363587D01*
X187047500Y-76264661D01*
X187047500Y-76264659D01*
X187047501Y-76264658D01*
X187064869Y-76155002D01*
X187064869Y-76154997D01*
X188555131Y-76154997D01*
X188555131Y-76155002D01*
X188572498Y-76264658D01*
X188622904Y-76363585D01*
X188622909Y-76363592D01*
X188701407Y-76442090D01*
X188701410Y-76442092D01*
X188701413Y-76442095D01*
X188800339Y-76492500D01*
X188800341Y-76492501D01*
X188909998Y-76509869D01*
X188910000Y-76509869D01*
X188910002Y-76509869D01*
X189019658Y-76492501D01*
X189019659Y-76492500D01*
X189019661Y-76492500D01*
X189118587Y-76442095D01*
X189197095Y-76363587D01*
X189247500Y-76264661D01*
X189247500Y-76264659D01*
X189247501Y-76264658D01*
X189264869Y-76155002D01*
X189264869Y-76154997D01*
X189655131Y-76154997D01*
X189655131Y-76155002D01*
X189672498Y-76264658D01*
X189722904Y-76363585D01*
X189722909Y-76363592D01*
X189801407Y-76442090D01*
X189801410Y-76442092D01*
X189801413Y-76442095D01*
X189900339Y-76492500D01*
X189900341Y-76492501D01*
X189997328Y-76507862D01*
X190009426Y-76509778D01*
X190029218Y-76519160D01*
X190070574Y-76500275D01*
X190119658Y-76492501D01*
X190119659Y-76492500D01*
X190119661Y-76492500D01*
X190218587Y-76442095D01*
X190297095Y-76363587D01*
X190347500Y-76264661D01*
X190347500Y-76264659D01*
X190347501Y-76264658D01*
X190364869Y-76155002D01*
X190364869Y-76154997D01*
X190347501Y-76045341D01*
X190347500Y-76045339D01*
X190297095Y-75946413D01*
X190297092Y-75946410D01*
X190297090Y-75946407D01*
X190218592Y-75867909D01*
X190218588Y-75867906D01*
X190218587Y-75867905D01*
X190214743Y-75865946D01*
X190119658Y-75817498D01*
X190010002Y-75800131D01*
X190009998Y-75800131D01*
X189900341Y-75817498D01*
X189801414Y-75867904D01*
X189801407Y-75867909D01*
X189722909Y-75946407D01*
X189722904Y-75946414D01*
X189672498Y-76045341D01*
X189655131Y-76154997D01*
X189264869Y-76154997D01*
X189247501Y-76045341D01*
X189247500Y-76045339D01*
X189197095Y-75946413D01*
X189197092Y-75946410D01*
X189197090Y-75946407D01*
X189118592Y-75867909D01*
X189118588Y-75867906D01*
X189118587Y-75867905D01*
X189114743Y-75865946D01*
X189019658Y-75817498D01*
X188910002Y-75800131D01*
X188909998Y-75800131D01*
X188800341Y-75817498D01*
X188701414Y-75867904D01*
X188701407Y-75867909D01*
X188622909Y-75946407D01*
X188622904Y-75946414D01*
X188572498Y-76045341D01*
X188555131Y-76154997D01*
X187064869Y-76154997D01*
X187047501Y-76045341D01*
X187047500Y-76045339D01*
X186997095Y-75946413D01*
X186997092Y-75946410D01*
X186997090Y-75946407D01*
X186918592Y-75867909D01*
X186918588Y-75867906D01*
X186918587Y-75867905D01*
X186914743Y-75865946D01*
X186819658Y-75817498D01*
X186710002Y-75800131D01*
X186709998Y-75800131D01*
X186600341Y-75817498D01*
X186501414Y-75867904D01*
X186501407Y-75867909D01*
X186422909Y-75946407D01*
X186422904Y-75946414D01*
X186372498Y-76045341D01*
X186355131Y-76154997D01*
X185072294Y-76154997D01*
X185010000Y-76145131D01*
X185009996Y-76145131D01*
X184900339Y-76162498D01*
X184801412Y-76212904D01*
X184801405Y-76212909D01*
X184722907Y-76291407D01*
X184722902Y-76291414D01*
X184672496Y-76390341D01*
X184655129Y-76499997D01*
X174013253Y-76499997D01*
X173939658Y-76462498D01*
X173830002Y-76445131D01*
X173829998Y-76445131D01*
X173720341Y-76462498D01*
X173621414Y-76512904D01*
X173621407Y-76512909D01*
X173542909Y-76591407D01*
X173542904Y-76591414D01*
X173492498Y-76690341D01*
X173475131Y-76799997D01*
X172492303Y-76799997D01*
X172491532Y-75759997D01*
X182375131Y-75759997D01*
X182375131Y-75760002D01*
X182392498Y-75869658D01*
X182442904Y-75968585D01*
X182442909Y-75968592D01*
X182521407Y-76047090D01*
X182521410Y-76047092D01*
X182521413Y-76047095D01*
X182620339Y-76097500D01*
X182620341Y-76097501D01*
X182729998Y-76114869D01*
X182730000Y-76114869D01*
X182730002Y-76114869D01*
X182839658Y-76097501D01*
X182839659Y-76097500D01*
X182839661Y-76097500D01*
X182938587Y-76047095D01*
X183017095Y-75968587D01*
X183067500Y-75869661D01*
X183067500Y-75869659D01*
X183067501Y-75869658D01*
X183084869Y-75760002D01*
X183084869Y-75759997D01*
X183067501Y-75650341D01*
X183067500Y-75650339D01*
X183017095Y-75551413D01*
X183017092Y-75551410D01*
X183017090Y-75551407D01*
X182938592Y-75472909D01*
X182938588Y-75472906D01*
X182938587Y-75472905D01*
X182934743Y-75470946D01*
X182839658Y-75422498D01*
X182730002Y-75405131D01*
X182729998Y-75405131D01*
X182620341Y-75422498D01*
X182521414Y-75472904D01*
X182521407Y-75472909D01*
X182442909Y-75551407D01*
X182442904Y-75551414D01*
X182392498Y-75650341D01*
X182375131Y-75759997D01*
X172491532Y-75759997D01*
X172490314Y-74117366D01*
X172509949Y-74050316D01*
X172562719Y-74004522D01*
X172619723Y-73993789D01*
X172619722Y-73993702D01*
X172620226Y-73993694D01*
X172621372Y-73993479D01*
X172624133Y-73993635D01*
X172624150Y-73993638D01*
X174289261Y-73969448D01*
X174356578Y-73988157D01*
G37*
%TD.AperFunction*%
%TD*%
M02*
