%TF.GenerationSoftware,KiCad,Pcbnew,8.0.5*%
%TF.CreationDate,2025-02-13T02:53:00+01:00*%
%TF.ProjectId,cansatperso,63616e73-6174-4706-9572-736f2e6b6963,rev?*%
%TF.SameCoordinates,Original*%
%TF.FileFunction,Legend,Top*%
%TF.FilePolarity,Positive*%
%FSLAX46Y46*%
G04 Gerber Fmt 4.6, Leading zero omitted, Abs format (unit mm)*
G04 Created by KiCad (PCBNEW 8.0.5) date 2025-02-13 02:53:00*
%MOMM*%
%LPD*%
G01*
G04 APERTURE LIST*
%ADD10C,0.100000*%
%ADD11C,0.200000*%
%ADD12C,0.254000*%
%ADD13C,0.150000*%
%ADD14C,0.120000*%
%ADD15C,0.152400*%
%ADD16C,0.250000*%
G04 APERTURE END LIST*
D10*
X164578972Y-91640200D02*
X164531353Y-91616390D01*
X164531353Y-91616390D02*
X164436115Y-91616390D01*
X164436115Y-91616390D02*
X164388496Y-91640200D01*
X164388496Y-91640200D02*
X164364687Y-91687819D01*
X164364687Y-91687819D02*
X164364687Y-91711628D01*
X164364687Y-91711628D02*
X164388496Y-91759247D01*
X164388496Y-91759247D02*
X164436115Y-91783057D01*
X164436115Y-91783057D02*
X164507544Y-91783057D01*
X164507544Y-91783057D02*
X164555163Y-91806866D01*
X164555163Y-91806866D02*
X164578972Y-91854485D01*
X164578972Y-91854485D02*
X164578972Y-91878295D01*
X164578972Y-91878295D02*
X164555163Y-91925914D01*
X164555163Y-91925914D02*
X164507544Y-91949723D01*
X164507544Y-91949723D02*
X164436115Y-91949723D01*
X164436115Y-91949723D02*
X164388496Y-91925914D01*
X164198020Y-91949723D02*
X164102782Y-91616390D01*
X164102782Y-91616390D02*
X164007544Y-91854485D01*
X164007544Y-91854485D02*
X163912306Y-91616390D01*
X163912306Y-91616390D02*
X163817068Y-91949723D01*
X163555162Y-91616390D02*
X163602781Y-91640200D01*
X163602781Y-91640200D02*
X163626591Y-91664009D01*
X163626591Y-91664009D02*
X163650400Y-91711628D01*
X163650400Y-91711628D02*
X163650400Y-91854485D01*
X163650400Y-91854485D02*
X163626591Y-91902104D01*
X163626591Y-91902104D02*
X163602781Y-91925914D01*
X163602781Y-91925914D02*
X163555162Y-91949723D01*
X163555162Y-91949723D02*
X163483734Y-91949723D01*
X163483734Y-91949723D02*
X163436115Y-91925914D01*
X163436115Y-91925914D02*
X163412305Y-91902104D01*
X163412305Y-91902104D02*
X163388496Y-91854485D01*
X163388496Y-91854485D02*
X163388496Y-91711628D01*
X163388496Y-91711628D02*
X163412305Y-91664009D01*
X163412305Y-91664009D02*
X163436115Y-91640200D01*
X163436115Y-91640200D02*
X163483734Y-91616390D01*
X163483734Y-91616390D02*
X163555162Y-91616390D01*
X163008972Y-91620200D02*
X162961353Y-91596390D01*
X162961353Y-91596390D02*
X162866115Y-91596390D01*
X162866115Y-91596390D02*
X162818496Y-91620200D01*
X162818496Y-91620200D02*
X162794687Y-91667819D01*
X162794687Y-91667819D02*
X162794687Y-91691628D01*
X162794687Y-91691628D02*
X162818496Y-91739247D01*
X162818496Y-91739247D02*
X162866115Y-91763057D01*
X162866115Y-91763057D02*
X162937544Y-91763057D01*
X162937544Y-91763057D02*
X162985163Y-91786866D01*
X162985163Y-91786866D02*
X163008972Y-91834485D01*
X163008972Y-91834485D02*
X163008972Y-91858295D01*
X163008972Y-91858295D02*
X162985163Y-91905914D01*
X162985163Y-91905914D02*
X162937544Y-91929723D01*
X162937544Y-91929723D02*
X162866115Y-91929723D01*
X162866115Y-91929723D02*
X162818496Y-91905914D01*
X162628020Y-91929723D02*
X162532782Y-91596390D01*
X162532782Y-91596390D02*
X162437544Y-91834485D01*
X162437544Y-91834485D02*
X162342306Y-91596390D01*
X162342306Y-91596390D02*
X162247068Y-91929723D01*
X161842305Y-91620200D02*
X161889924Y-91596390D01*
X161889924Y-91596390D02*
X161985162Y-91596390D01*
X161985162Y-91596390D02*
X162032781Y-91620200D01*
X162032781Y-91620200D02*
X162056591Y-91644009D01*
X162056591Y-91644009D02*
X162080400Y-91691628D01*
X162080400Y-91691628D02*
X162080400Y-91834485D01*
X162080400Y-91834485D02*
X162056591Y-91882104D01*
X162056591Y-91882104D02*
X162032781Y-91905914D01*
X162032781Y-91905914D02*
X161985162Y-91929723D01*
X161985162Y-91929723D02*
X161889924Y-91929723D01*
X161889924Y-91929723D02*
X161842305Y-91905914D01*
X161556591Y-91596390D02*
X161604210Y-91620200D01*
X161604210Y-91620200D02*
X161628020Y-91667819D01*
X161628020Y-91667819D02*
X161628020Y-92096390D01*
X161366115Y-91596390D02*
X161366115Y-92096390D01*
X161318496Y-91786866D02*
X161175639Y-91596390D01*
X161175639Y-91929723D02*
X161366115Y-91739247D01*
X194903061Y-88804910D02*
X194855442Y-88781100D01*
X194855442Y-88781100D02*
X194784013Y-88781100D01*
X194784013Y-88781100D02*
X194712585Y-88804910D01*
X194712585Y-88804910D02*
X194664966Y-88852529D01*
X194664966Y-88852529D02*
X194641156Y-88900148D01*
X194641156Y-88900148D02*
X194617347Y-88995386D01*
X194617347Y-88995386D02*
X194617347Y-89066814D01*
X194617347Y-89066814D02*
X194641156Y-89162052D01*
X194641156Y-89162052D02*
X194664966Y-89209671D01*
X194664966Y-89209671D02*
X194712585Y-89257291D01*
X194712585Y-89257291D02*
X194784013Y-89281100D01*
X194784013Y-89281100D02*
X194831632Y-89281100D01*
X194831632Y-89281100D02*
X194903061Y-89257291D01*
X194903061Y-89257291D02*
X194926870Y-89233481D01*
X194926870Y-89233481D02*
X194926870Y-89066814D01*
X194926870Y-89066814D02*
X194831632Y-89066814D01*
X194699800Y-83508972D02*
X194723609Y-83461353D01*
X194723609Y-83461353D02*
X194723609Y-83366115D01*
X194723609Y-83366115D02*
X194699800Y-83318496D01*
X194699800Y-83318496D02*
X194652180Y-83294687D01*
X194652180Y-83294687D02*
X194628371Y-83294687D01*
X194628371Y-83294687D02*
X194580752Y-83318496D01*
X194580752Y-83318496D02*
X194556942Y-83366115D01*
X194556942Y-83366115D02*
X194556942Y-83437544D01*
X194556942Y-83437544D02*
X194533133Y-83485163D01*
X194533133Y-83485163D02*
X194485514Y-83508972D01*
X194485514Y-83508972D02*
X194461704Y-83508972D01*
X194461704Y-83508972D02*
X194414085Y-83485163D01*
X194414085Y-83485163D02*
X194390276Y-83437544D01*
X194390276Y-83437544D02*
X194390276Y-83366115D01*
X194390276Y-83366115D02*
X194414085Y-83318496D01*
X194699800Y-82866115D02*
X194723609Y-82913734D01*
X194723609Y-82913734D02*
X194723609Y-83008972D01*
X194723609Y-83008972D02*
X194699800Y-83056591D01*
X194699800Y-83056591D02*
X194675990Y-83080401D01*
X194675990Y-83080401D02*
X194628371Y-83104210D01*
X194628371Y-83104210D02*
X194485514Y-83104210D01*
X194485514Y-83104210D02*
X194437895Y-83080401D01*
X194437895Y-83080401D02*
X194414085Y-83056591D01*
X194414085Y-83056591D02*
X194390276Y-83008972D01*
X194390276Y-83008972D02*
X194390276Y-82913734D01*
X194390276Y-82913734D02*
X194414085Y-82866115D01*
X194723609Y-82580401D02*
X194699800Y-82628020D01*
X194699800Y-82628020D02*
X194652180Y-82651830D01*
X194652180Y-82651830D02*
X194223609Y-82651830D01*
X174259122Y-90923609D02*
X174259122Y-90423609D01*
X174259122Y-90899800D02*
X174211503Y-90923609D01*
X174211503Y-90923609D02*
X174116265Y-90923609D01*
X174116265Y-90923609D02*
X174068646Y-90899800D01*
X174068646Y-90899800D02*
X174044836Y-90875990D01*
X174044836Y-90875990D02*
X174021027Y-90828371D01*
X174021027Y-90828371D02*
X174021027Y-90685514D01*
X174021027Y-90685514D02*
X174044836Y-90637895D01*
X174044836Y-90637895D02*
X174068646Y-90614085D01*
X174068646Y-90614085D02*
X174116265Y-90590276D01*
X174116265Y-90590276D02*
X174211503Y-90590276D01*
X174211503Y-90590276D02*
X174259122Y-90614085D01*
X174497217Y-90923609D02*
X174497217Y-90590276D01*
X174497217Y-90423609D02*
X174473408Y-90447419D01*
X174473408Y-90447419D02*
X174497217Y-90471228D01*
X174497217Y-90471228D02*
X174521027Y-90447419D01*
X174521027Y-90447419D02*
X174497217Y-90423609D01*
X174497217Y-90423609D02*
X174497217Y-90471228D01*
X174806741Y-90923609D02*
X174759122Y-90899800D01*
X174759122Y-90899800D02*
X174735312Y-90875990D01*
X174735312Y-90875990D02*
X174711503Y-90828371D01*
X174711503Y-90828371D02*
X174711503Y-90685514D01*
X174711503Y-90685514D02*
X174735312Y-90637895D01*
X174735312Y-90637895D02*
X174759122Y-90614085D01*
X174759122Y-90614085D02*
X174806741Y-90590276D01*
X174806741Y-90590276D02*
X174878169Y-90590276D01*
X174878169Y-90590276D02*
X174925788Y-90614085D01*
X174925788Y-90614085D02*
X174949598Y-90637895D01*
X174949598Y-90637895D02*
X174973407Y-90685514D01*
X174973407Y-90685514D02*
X174973407Y-90828371D01*
X174973407Y-90828371D02*
X174949598Y-90875990D01*
X174949598Y-90875990D02*
X174925788Y-90899800D01*
X174925788Y-90899800D02*
X174878169Y-90923609D01*
X174878169Y-90923609D02*
X174806741Y-90923609D01*
X191481027Y-89229800D02*
X191552455Y-89253609D01*
X191552455Y-89253609D02*
X191671503Y-89253609D01*
X191671503Y-89253609D02*
X191719122Y-89229800D01*
X191719122Y-89229800D02*
X191742931Y-89205990D01*
X191742931Y-89205990D02*
X191766741Y-89158371D01*
X191766741Y-89158371D02*
X191766741Y-89110752D01*
X191766741Y-89110752D02*
X191742931Y-89063133D01*
X191742931Y-89063133D02*
X191719122Y-89039323D01*
X191719122Y-89039323D02*
X191671503Y-89015514D01*
X191671503Y-89015514D02*
X191576265Y-88991704D01*
X191576265Y-88991704D02*
X191528646Y-88967895D01*
X191528646Y-88967895D02*
X191504836Y-88944085D01*
X191504836Y-88944085D02*
X191481027Y-88896466D01*
X191481027Y-88896466D02*
X191481027Y-88848847D01*
X191481027Y-88848847D02*
X191504836Y-88801228D01*
X191504836Y-88801228D02*
X191528646Y-88777419D01*
X191528646Y-88777419D02*
X191576265Y-88753609D01*
X191576265Y-88753609D02*
X191695312Y-88753609D01*
X191695312Y-88753609D02*
X191766741Y-88777419D01*
X174289122Y-89789800D02*
X174241503Y-89813609D01*
X174241503Y-89813609D02*
X174146265Y-89813609D01*
X174146265Y-89813609D02*
X174098646Y-89789800D01*
X174098646Y-89789800D02*
X174074836Y-89765990D01*
X174074836Y-89765990D02*
X174051027Y-89718371D01*
X174051027Y-89718371D02*
X174051027Y-89575514D01*
X174051027Y-89575514D02*
X174074836Y-89527895D01*
X174074836Y-89527895D02*
X174098646Y-89504085D01*
X174098646Y-89504085D02*
X174146265Y-89480276D01*
X174146265Y-89480276D02*
X174241503Y-89480276D01*
X174241503Y-89480276D02*
X174289122Y-89504085D01*
X174574836Y-89813609D02*
X174527217Y-89789800D01*
X174527217Y-89789800D02*
X174503407Y-89742180D01*
X174503407Y-89742180D02*
X174503407Y-89313609D01*
X174765312Y-89813609D02*
X174765312Y-89313609D01*
X174812931Y-89623133D02*
X174955788Y-89813609D01*
X174955788Y-89480276D02*
X174765312Y-89670752D01*
X174044836Y-91583609D02*
X174044836Y-91250276D01*
X174044836Y-91345514D02*
X174068646Y-91297895D01*
X174068646Y-91297895D02*
X174092455Y-91274085D01*
X174092455Y-91274085D02*
X174140074Y-91250276D01*
X174140074Y-91250276D02*
X174187693Y-91250276D01*
X174330551Y-91559800D02*
X174378170Y-91583609D01*
X174378170Y-91583609D02*
X174473408Y-91583609D01*
X174473408Y-91583609D02*
X174521027Y-91559800D01*
X174521027Y-91559800D02*
X174544836Y-91512180D01*
X174544836Y-91512180D02*
X174544836Y-91488371D01*
X174544836Y-91488371D02*
X174521027Y-91440752D01*
X174521027Y-91440752D02*
X174473408Y-91416942D01*
X174473408Y-91416942D02*
X174401979Y-91416942D01*
X174401979Y-91416942D02*
X174354360Y-91393133D01*
X174354360Y-91393133D02*
X174330551Y-91345514D01*
X174330551Y-91345514D02*
X174330551Y-91321704D01*
X174330551Y-91321704D02*
X174354360Y-91274085D01*
X174354360Y-91274085D02*
X174401979Y-91250276D01*
X174401979Y-91250276D02*
X174473408Y-91250276D01*
X174473408Y-91250276D02*
X174521027Y-91274085D01*
X174687694Y-91250276D02*
X174878170Y-91250276D01*
X174759122Y-91083609D02*
X174759122Y-91512180D01*
X174759122Y-91512180D02*
X174782932Y-91559800D01*
X174782932Y-91559800D02*
X174830551Y-91583609D01*
X174830551Y-91583609D02*
X174878170Y-91583609D01*
X192692931Y-88733609D02*
X192454836Y-88733609D01*
X192454836Y-88733609D02*
X192431027Y-88971704D01*
X192431027Y-88971704D02*
X192454836Y-88947895D01*
X192454836Y-88947895D02*
X192502455Y-88924085D01*
X192502455Y-88924085D02*
X192621503Y-88924085D01*
X192621503Y-88924085D02*
X192669122Y-88947895D01*
X192669122Y-88947895D02*
X192692931Y-88971704D01*
X192692931Y-88971704D02*
X192716741Y-89019323D01*
X192716741Y-89019323D02*
X192716741Y-89138371D01*
X192716741Y-89138371D02*
X192692931Y-89185990D01*
X192692931Y-89185990D02*
X192669122Y-89209800D01*
X192669122Y-89209800D02*
X192621503Y-89233609D01*
X192621503Y-89233609D02*
X192502455Y-89233609D01*
X192502455Y-89233609D02*
X192454836Y-89209800D01*
X192454836Y-89209800D02*
X192431027Y-89185990D01*
X192883407Y-88900276D02*
X193002455Y-89233609D01*
X193002455Y-89233609D02*
X193121502Y-88900276D01*
D11*
X153070326Y-73852780D02*
X153070326Y-74519447D01*
X153070326Y-74424209D02*
X153022707Y-74471828D01*
X153022707Y-74471828D02*
X152927469Y-74519447D01*
X152927469Y-74519447D02*
X152784612Y-74519447D01*
X152784612Y-74519447D02*
X152689374Y-74471828D01*
X152689374Y-74471828D02*
X152641755Y-74376590D01*
X152641755Y-74376590D02*
X152641755Y-73852780D01*
X152641755Y-74376590D02*
X152594136Y-74471828D01*
X152594136Y-74471828D02*
X152498898Y-74519447D01*
X152498898Y-74519447D02*
X152356041Y-74519447D01*
X152356041Y-74519447D02*
X152260802Y-74471828D01*
X152260802Y-74471828D02*
X152213183Y-74376590D01*
X152213183Y-74376590D02*
X152213183Y-73852780D01*
X151308422Y-73852780D02*
X151308422Y-74376590D01*
X151308422Y-74376590D02*
X151356041Y-74471828D01*
X151356041Y-74471828D02*
X151451279Y-74519447D01*
X151451279Y-74519447D02*
X151641755Y-74519447D01*
X151641755Y-74519447D02*
X151736993Y-74471828D01*
X151308422Y-73900400D02*
X151403660Y-73852780D01*
X151403660Y-73852780D02*
X151641755Y-73852780D01*
X151641755Y-73852780D02*
X151736993Y-73900400D01*
X151736993Y-73900400D02*
X151784612Y-73995638D01*
X151784612Y-73995638D02*
X151784612Y-74090876D01*
X151784612Y-74090876D02*
X151736993Y-74186114D01*
X151736993Y-74186114D02*
X151641755Y-74233733D01*
X151641755Y-74233733D02*
X151403660Y-74233733D01*
X151403660Y-74233733D02*
X151308422Y-74281352D01*
X150975088Y-74519447D02*
X150594136Y-74519447D01*
X150832231Y-74852780D02*
X150832231Y-73995638D01*
X150832231Y-73995638D02*
X150784612Y-73900400D01*
X150784612Y-73900400D02*
X150689374Y-73852780D01*
X150689374Y-73852780D02*
X150594136Y-73852780D01*
X150260802Y-73852780D02*
X150260802Y-74852780D01*
X149832231Y-73852780D02*
X149832231Y-74376590D01*
X149832231Y-74376590D02*
X149879850Y-74471828D01*
X149879850Y-74471828D02*
X149975088Y-74519447D01*
X149975088Y-74519447D02*
X150117945Y-74519447D01*
X150117945Y-74519447D02*
X150213183Y-74471828D01*
X150213183Y-74471828D02*
X150260802Y-74424209D01*
X149356040Y-73852780D02*
X149356040Y-74519447D01*
X149356040Y-74852780D02*
X149403659Y-74805161D01*
X149403659Y-74805161D02*
X149356040Y-74757542D01*
X149356040Y-74757542D02*
X149308421Y-74805161D01*
X149308421Y-74805161D02*
X149356040Y-74852780D01*
X149356040Y-74852780D02*
X149356040Y-74757542D01*
X148498898Y-73900400D02*
X148594136Y-73852780D01*
X148594136Y-73852780D02*
X148784612Y-73852780D01*
X148784612Y-73852780D02*
X148879850Y-73900400D01*
X148879850Y-73900400D02*
X148927469Y-73995638D01*
X148927469Y-73995638D02*
X148927469Y-74376590D01*
X148927469Y-74376590D02*
X148879850Y-74471828D01*
X148879850Y-74471828D02*
X148784612Y-74519447D01*
X148784612Y-74519447D02*
X148594136Y-74519447D01*
X148594136Y-74519447D02*
X148498898Y-74471828D01*
X148498898Y-74471828D02*
X148451279Y-74376590D01*
X148451279Y-74376590D02*
X148451279Y-74281352D01*
X148451279Y-74281352D02*
X148927469Y-74186114D01*
X147594136Y-74519447D02*
X147594136Y-73852780D01*
X148022707Y-74519447D02*
X148022707Y-73995638D01*
X148022707Y-73995638D02*
X147975088Y-73900400D01*
X147975088Y-73900400D02*
X147879850Y-73852780D01*
X147879850Y-73852780D02*
X147736993Y-73852780D01*
X147736993Y-73852780D02*
X147641755Y-73900400D01*
X147641755Y-73900400D02*
X147594136Y-73948019D01*
X147117945Y-73948019D02*
X147070326Y-73900400D01*
X147070326Y-73900400D02*
X147117945Y-73852780D01*
X147117945Y-73852780D02*
X147165564Y-73900400D01*
X147165564Y-73900400D02*
X147117945Y-73948019D01*
X147117945Y-73948019D02*
X147117945Y-73852780D01*
X146641755Y-74519447D02*
X146641755Y-73519447D01*
X146641755Y-74471828D02*
X146546517Y-74519447D01*
X146546517Y-74519447D02*
X146356041Y-74519447D01*
X146356041Y-74519447D02*
X146260803Y-74471828D01*
X146260803Y-74471828D02*
X146213184Y-74424209D01*
X146213184Y-74424209D02*
X146165565Y-74328971D01*
X146165565Y-74328971D02*
X146165565Y-74043257D01*
X146165565Y-74043257D02*
X146213184Y-73948019D01*
X146213184Y-73948019D02*
X146260803Y-73900400D01*
X146260803Y-73900400D02*
X146356041Y-73852780D01*
X146356041Y-73852780D02*
X146546517Y-73852780D01*
X146546517Y-73852780D02*
X146641755Y-73900400D01*
D10*
X160628972Y-91610200D02*
X160581353Y-91586390D01*
X160581353Y-91586390D02*
X160486115Y-91586390D01*
X160486115Y-91586390D02*
X160438496Y-91610200D01*
X160438496Y-91610200D02*
X160414687Y-91657819D01*
X160414687Y-91657819D02*
X160414687Y-91681628D01*
X160414687Y-91681628D02*
X160438496Y-91729247D01*
X160438496Y-91729247D02*
X160486115Y-91753057D01*
X160486115Y-91753057D02*
X160557544Y-91753057D01*
X160557544Y-91753057D02*
X160605163Y-91776866D01*
X160605163Y-91776866D02*
X160628972Y-91824485D01*
X160628972Y-91824485D02*
X160628972Y-91848295D01*
X160628972Y-91848295D02*
X160605163Y-91895914D01*
X160605163Y-91895914D02*
X160557544Y-91919723D01*
X160557544Y-91919723D02*
X160486115Y-91919723D01*
X160486115Y-91919723D02*
X160438496Y-91895914D01*
X160248020Y-91919723D02*
X160152782Y-91586390D01*
X160152782Y-91586390D02*
X160057544Y-91824485D01*
X160057544Y-91824485D02*
X159962306Y-91586390D01*
X159962306Y-91586390D02*
X159867068Y-91919723D01*
X159462305Y-91586390D02*
X159462305Y-92086390D01*
X159462305Y-91610200D02*
X159509924Y-91586390D01*
X159509924Y-91586390D02*
X159605162Y-91586390D01*
X159605162Y-91586390D02*
X159652781Y-91610200D01*
X159652781Y-91610200D02*
X159676591Y-91634009D01*
X159676591Y-91634009D02*
X159700400Y-91681628D01*
X159700400Y-91681628D02*
X159700400Y-91824485D01*
X159700400Y-91824485D02*
X159676591Y-91872104D01*
X159676591Y-91872104D02*
X159652781Y-91895914D01*
X159652781Y-91895914D02*
X159605162Y-91919723D01*
X159605162Y-91919723D02*
X159509924Y-91919723D01*
X159509924Y-91919723D02*
X159462305Y-91895914D01*
X159224210Y-91586390D02*
X159224210Y-91919723D01*
X159224210Y-92086390D02*
X159248019Y-92062580D01*
X159248019Y-92062580D02*
X159224210Y-92038771D01*
X159224210Y-92038771D02*
X159200400Y-92062580D01*
X159200400Y-92062580D02*
X159224210Y-92086390D01*
X159224210Y-92086390D02*
X159224210Y-92038771D01*
X158914686Y-91586390D02*
X158962305Y-91610200D01*
X158962305Y-91610200D02*
X158986115Y-91634009D01*
X158986115Y-91634009D02*
X159009924Y-91681628D01*
X159009924Y-91681628D02*
X159009924Y-91824485D01*
X159009924Y-91824485D02*
X158986115Y-91872104D01*
X158986115Y-91872104D02*
X158962305Y-91895914D01*
X158962305Y-91895914D02*
X158914686Y-91919723D01*
X158914686Y-91919723D02*
X158843258Y-91919723D01*
X158843258Y-91919723D02*
X158795639Y-91895914D01*
X158795639Y-91895914D02*
X158771829Y-91872104D01*
X158771829Y-91872104D02*
X158748020Y-91824485D01*
X158748020Y-91824485D02*
X158748020Y-91681628D01*
X158748020Y-91681628D02*
X158771829Y-91634009D01*
X158771829Y-91634009D02*
X158795639Y-91610200D01*
X158795639Y-91610200D02*
X158843258Y-91586390D01*
X158843258Y-91586390D02*
X158914686Y-91586390D01*
X194799800Y-84848972D02*
X194823609Y-84801353D01*
X194823609Y-84801353D02*
X194823609Y-84706115D01*
X194823609Y-84706115D02*
X194799800Y-84658496D01*
X194799800Y-84658496D02*
X194752180Y-84634687D01*
X194752180Y-84634687D02*
X194728371Y-84634687D01*
X194728371Y-84634687D02*
X194680752Y-84658496D01*
X194680752Y-84658496D02*
X194656942Y-84706115D01*
X194656942Y-84706115D02*
X194656942Y-84777544D01*
X194656942Y-84777544D02*
X194633133Y-84825163D01*
X194633133Y-84825163D02*
X194585514Y-84848972D01*
X194585514Y-84848972D02*
X194561704Y-84848972D01*
X194561704Y-84848972D02*
X194514085Y-84825163D01*
X194514085Y-84825163D02*
X194490276Y-84777544D01*
X194490276Y-84777544D02*
X194490276Y-84706115D01*
X194490276Y-84706115D02*
X194514085Y-84658496D01*
X194823609Y-84206115D02*
X194323609Y-84206115D01*
X194799800Y-84206115D02*
X194823609Y-84253734D01*
X194823609Y-84253734D02*
X194823609Y-84348972D01*
X194823609Y-84348972D02*
X194799800Y-84396591D01*
X194799800Y-84396591D02*
X194775990Y-84420401D01*
X194775990Y-84420401D02*
X194728371Y-84444210D01*
X194728371Y-84444210D02*
X194585514Y-84444210D01*
X194585514Y-84444210D02*
X194537895Y-84420401D01*
X194537895Y-84420401D02*
X194514085Y-84396591D01*
X194514085Y-84396591D02*
X194490276Y-84348972D01*
X194490276Y-84348972D02*
X194490276Y-84253734D01*
X194490276Y-84253734D02*
X194514085Y-84206115D01*
X194823609Y-83753734D02*
X194561704Y-83753734D01*
X194561704Y-83753734D02*
X194514085Y-83777544D01*
X194514085Y-83777544D02*
X194490276Y-83825163D01*
X194490276Y-83825163D02*
X194490276Y-83920401D01*
X194490276Y-83920401D02*
X194514085Y-83968020D01*
X194799800Y-83753734D02*
X194823609Y-83801353D01*
X194823609Y-83801353D02*
X194823609Y-83920401D01*
X194823609Y-83920401D02*
X194799800Y-83968020D01*
X194799800Y-83968020D02*
X194752180Y-83991829D01*
X194752180Y-83991829D02*
X194704561Y-83991829D01*
X194704561Y-83991829D02*
X194656942Y-83968020D01*
X194656942Y-83968020D02*
X194633133Y-83920401D01*
X194633133Y-83920401D02*
X194633133Y-83801353D01*
X194633133Y-83801353D02*
X194609323Y-83753734D01*
X155455163Y-89639723D02*
X155455163Y-89306390D01*
X155455163Y-89592104D02*
X155431353Y-89615914D01*
X155431353Y-89615914D02*
X155383734Y-89639723D01*
X155383734Y-89639723D02*
X155312306Y-89639723D01*
X155312306Y-89639723D02*
X155264687Y-89615914D01*
X155264687Y-89615914D02*
X155240877Y-89568295D01*
X155240877Y-89568295D02*
X155240877Y-89306390D01*
X155002782Y-89306390D02*
X155002782Y-89639723D01*
X155002782Y-89544485D02*
X154978972Y-89592104D01*
X154978972Y-89592104D02*
X154955163Y-89615914D01*
X154955163Y-89615914D02*
X154907544Y-89639723D01*
X154907544Y-89639723D02*
X154859925Y-89639723D01*
X154717067Y-89330200D02*
X154669448Y-89306390D01*
X154669448Y-89306390D02*
X154574210Y-89306390D01*
X154574210Y-89306390D02*
X154526591Y-89330200D01*
X154526591Y-89330200D02*
X154502782Y-89377819D01*
X154502782Y-89377819D02*
X154502782Y-89401628D01*
X154502782Y-89401628D02*
X154526591Y-89449247D01*
X154526591Y-89449247D02*
X154574210Y-89473057D01*
X154574210Y-89473057D02*
X154645639Y-89473057D01*
X154645639Y-89473057D02*
X154693258Y-89496866D01*
X154693258Y-89496866D02*
X154717067Y-89544485D01*
X154717067Y-89544485D02*
X154717067Y-89568295D01*
X154717067Y-89568295D02*
X154693258Y-89615914D01*
X154693258Y-89615914D02*
X154645639Y-89639723D01*
X154645639Y-89639723D02*
X154574210Y-89639723D01*
X154574210Y-89639723D02*
X154526591Y-89615914D01*
X154359924Y-89639723D02*
X154169448Y-89639723D01*
X154288496Y-89806390D02*
X154288496Y-89377819D01*
X154288496Y-89377819D02*
X154264686Y-89330200D01*
X154264686Y-89330200D02*
X154217067Y-89306390D01*
X154217067Y-89306390D02*
X154169448Y-89306390D01*
X189394836Y-92863609D02*
X189394836Y-92363609D01*
X189394836Y-92363609D02*
X189513884Y-92363609D01*
X189513884Y-92363609D02*
X189585312Y-92387419D01*
X189585312Y-92387419D02*
X189632931Y-92435038D01*
X189632931Y-92435038D02*
X189656741Y-92482657D01*
X189656741Y-92482657D02*
X189680550Y-92577895D01*
X189680550Y-92577895D02*
X189680550Y-92649323D01*
X189680550Y-92649323D02*
X189656741Y-92744561D01*
X189656741Y-92744561D02*
X189632931Y-92792180D01*
X189632931Y-92792180D02*
X189585312Y-92839800D01*
X189585312Y-92839800D02*
X189513884Y-92863609D01*
X189513884Y-92863609D02*
X189394836Y-92863609D01*
X189894836Y-92673133D02*
X190275789Y-92673133D01*
X190085312Y-92863609D02*
X190085312Y-92482657D01*
X181253609Y-93645163D02*
X180920276Y-93645163D01*
X181015514Y-93645163D02*
X180967895Y-93621353D01*
X180967895Y-93621353D02*
X180944085Y-93597544D01*
X180944085Y-93597544D02*
X180920276Y-93549925D01*
X180920276Y-93549925D02*
X180920276Y-93502306D01*
X181253609Y-93383258D02*
X180920276Y-93121353D01*
X180920276Y-93383258D02*
X181253609Y-93121353D01*
X180753609Y-92978496D02*
X180753609Y-92668972D01*
X180753609Y-92668972D02*
X180944085Y-92835639D01*
X180944085Y-92835639D02*
X180944085Y-92764210D01*
X180944085Y-92764210D02*
X180967895Y-92716591D01*
X180967895Y-92716591D02*
X180991704Y-92692782D01*
X180991704Y-92692782D02*
X181039323Y-92668972D01*
X181039323Y-92668972D02*
X181158371Y-92668972D01*
X181158371Y-92668972D02*
X181205990Y-92692782D01*
X181205990Y-92692782D02*
X181229800Y-92716591D01*
X181229800Y-92716591D02*
X181253609Y-92764210D01*
X181253609Y-92764210D02*
X181253609Y-92907067D01*
X181253609Y-92907067D02*
X181229800Y-92954686D01*
X181229800Y-92954686D02*
X181205990Y-92978496D01*
X176609122Y-91433609D02*
X176609122Y-91171704D01*
X176609122Y-91171704D02*
X176585312Y-91124085D01*
X176585312Y-91124085D02*
X176537693Y-91100276D01*
X176537693Y-91100276D02*
X176442455Y-91100276D01*
X176442455Y-91100276D02*
X176394836Y-91124085D01*
X176609122Y-91409800D02*
X176561503Y-91433609D01*
X176561503Y-91433609D02*
X176442455Y-91433609D01*
X176442455Y-91433609D02*
X176394836Y-91409800D01*
X176394836Y-91409800D02*
X176371027Y-91362180D01*
X176371027Y-91362180D02*
X176371027Y-91314561D01*
X176371027Y-91314561D02*
X176394836Y-91266942D01*
X176394836Y-91266942D02*
X176442455Y-91243133D01*
X176442455Y-91243133D02*
X176561503Y-91243133D01*
X176561503Y-91243133D02*
X176609122Y-91219323D01*
X177061503Y-91433609D02*
X177061503Y-90933609D01*
X177061503Y-91409800D02*
X177013884Y-91433609D01*
X177013884Y-91433609D02*
X176918646Y-91433609D01*
X176918646Y-91433609D02*
X176871027Y-91409800D01*
X176871027Y-91409800D02*
X176847217Y-91385990D01*
X176847217Y-91385990D02*
X176823408Y-91338371D01*
X176823408Y-91338371D02*
X176823408Y-91195514D01*
X176823408Y-91195514D02*
X176847217Y-91147895D01*
X176847217Y-91147895D02*
X176871027Y-91124085D01*
X176871027Y-91124085D02*
X176918646Y-91100276D01*
X176918646Y-91100276D02*
X177013884Y-91100276D01*
X177013884Y-91100276D02*
X177061503Y-91124085D01*
X177513884Y-91409800D02*
X177466265Y-91433609D01*
X177466265Y-91433609D02*
X177371027Y-91433609D01*
X177371027Y-91433609D02*
X177323408Y-91409800D01*
X177323408Y-91409800D02*
X177299598Y-91385990D01*
X177299598Y-91385990D02*
X177275789Y-91338371D01*
X177275789Y-91338371D02*
X177275789Y-91195514D01*
X177275789Y-91195514D02*
X177299598Y-91147895D01*
X177299598Y-91147895D02*
X177323408Y-91124085D01*
X177323408Y-91124085D02*
X177371027Y-91100276D01*
X177371027Y-91100276D02*
X177466265Y-91100276D01*
X177466265Y-91100276D02*
X177513884Y-91124085D01*
X172511027Y-88499800D02*
X172558646Y-88523609D01*
X172558646Y-88523609D02*
X172653884Y-88523609D01*
X172653884Y-88523609D02*
X172701503Y-88499800D01*
X172701503Y-88499800D02*
X172725312Y-88452180D01*
X172725312Y-88452180D02*
X172725312Y-88428371D01*
X172725312Y-88428371D02*
X172701503Y-88380752D01*
X172701503Y-88380752D02*
X172653884Y-88356942D01*
X172653884Y-88356942D02*
X172582455Y-88356942D01*
X172582455Y-88356942D02*
X172534836Y-88333133D01*
X172534836Y-88333133D02*
X172511027Y-88285514D01*
X172511027Y-88285514D02*
X172511027Y-88261704D01*
X172511027Y-88261704D02*
X172534836Y-88214085D01*
X172534836Y-88214085D02*
X172582455Y-88190276D01*
X172582455Y-88190276D02*
X172653884Y-88190276D01*
X172653884Y-88190276D02*
X172701503Y-88214085D01*
X172891979Y-88190276D02*
X172987217Y-88523609D01*
X172987217Y-88523609D02*
X173082455Y-88285514D01*
X173082455Y-88285514D02*
X173177693Y-88523609D01*
X173177693Y-88523609D02*
X173272931Y-88190276D01*
X173534837Y-88523609D02*
X173487218Y-88499800D01*
X173487218Y-88499800D02*
X173463408Y-88475990D01*
X173463408Y-88475990D02*
X173439599Y-88428371D01*
X173439599Y-88428371D02*
X173439599Y-88285514D01*
X173439599Y-88285514D02*
X173463408Y-88237895D01*
X173463408Y-88237895D02*
X173487218Y-88214085D01*
X173487218Y-88214085D02*
X173534837Y-88190276D01*
X173534837Y-88190276D02*
X173606265Y-88190276D01*
X173606265Y-88190276D02*
X173653884Y-88214085D01*
X173653884Y-88214085D02*
X173677694Y-88237895D01*
X173677694Y-88237895D02*
X173701503Y-88285514D01*
X173701503Y-88285514D02*
X173701503Y-88428371D01*
X173701503Y-88428371D02*
X173677694Y-88475990D01*
X173677694Y-88475990D02*
X173653884Y-88499800D01*
X173653884Y-88499800D02*
X173606265Y-88523609D01*
X173606265Y-88523609D02*
X173534837Y-88523609D01*
X188904836Y-92343609D02*
X188904836Y-91843609D01*
X188904836Y-91843609D02*
X189023884Y-91843609D01*
X189023884Y-91843609D02*
X189095312Y-91867419D01*
X189095312Y-91867419D02*
X189142931Y-91915038D01*
X189142931Y-91915038D02*
X189166741Y-91962657D01*
X189166741Y-91962657D02*
X189190550Y-92057895D01*
X189190550Y-92057895D02*
X189190550Y-92129323D01*
X189190550Y-92129323D02*
X189166741Y-92224561D01*
X189166741Y-92224561D02*
X189142931Y-92272180D01*
X189142931Y-92272180D02*
X189095312Y-92319800D01*
X189095312Y-92319800D02*
X189023884Y-92343609D01*
X189023884Y-92343609D02*
X188904836Y-92343609D01*
X189404836Y-92153133D02*
X189785789Y-92153133D01*
D12*
X186272667Y-78004318D02*
X186272667Y-78911461D01*
X186272667Y-78911461D02*
X186212190Y-79092889D01*
X186212190Y-79092889D02*
X186091238Y-79213842D01*
X186091238Y-79213842D02*
X185909809Y-79274318D01*
X185909809Y-79274318D02*
X185788857Y-79274318D01*
X186816952Y-78125270D02*
X186877428Y-78064794D01*
X186877428Y-78064794D02*
X186998381Y-78004318D01*
X186998381Y-78004318D02*
X187300762Y-78004318D01*
X187300762Y-78004318D02*
X187421714Y-78064794D01*
X187421714Y-78064794D02*
X187482190Y-78125270D01*
X187482190Y-78125270D02*
X187542667Y-78246222D01*
X187542667Y-78246222D02*
X187542667Y-78367175D01*
X187542667Y-78367175D02*
X187482190Y-78548603D01*
X187482190Y-78548603D02*
X186756476Y-79274318D01*
X186756476Y-79274318D02*
X187542667Y-79274318D01*
D13*
X183098095Y-81662319D02*
X183098095Y-82471842D01*
X183098095Y-82471842D02*
X183145714Y-82567080D01*
X183145714Y-82567080D02*
X183193333Y-82614700D01*
X183193333Y-82614700D02*
X183288571Y-82662319D01*
X183288571Y-82662319D02*
X183479047Y-82662319D01*
X183479047Y-82662319D02*
X183574285Y-82614700D01*
X183574285Y-82614700D02*
X183621904Y-82567080D01*
X183621904Y-82567080D02*
X183669523Y-82471842D01*
X183669523Y-82471842D02*
X183669523Y-81662319D01*
X184669523Y-82662319D02*
X184098095Y-82662319D01*
X184383809Y-82662319D02*
X184383809Y-81662319D01*
X184383809Y-81662319D02*
X184288571Y-81805176D01*
X184288571Y-81805176D02*
X184193333Y-81900414D01*
X184193333Y-81900414D02*
X184098095Y-81948033D01*
D14*
%TO.C,U4*%
X142882500Y-81560000D02*
X142082500Y-81560000D01*
X142882500Y-81560000D02*
X143682500Y-81560000D01*
X142882500Y-84680000D02*
X142082500Y-84680000D01*
X142882500Y-84680000D02*
X143682500Y-84680000D01*
X144422500Y-84960000D02*
X143942500Y-84960000D01*
X144182500Y-84630000D01*
X144422500Y-84960000D01*
G36*
X144422500Y-84960000D02*
G01*
X143942500Y-84960000D01*
X144182500Y-84630000D01*
X144422500Y-84960000D01*
G37*
D10*
%TO.C,D1*%
X162950000Y-77675000D02*
G75*
G02*
X162850000Y-77675000I-50000J0D01*
G01*
X162850000Y-77675000D02*
G75*
G02*
X162950000Y-77675000I50000J0D01*
G01*
D14*
%TO.C,R26*%
X177467621Y-79300000D02*
X177132379Y-79300000D01*
X177467621Y-80060000D02*
X177132379Y-80060000D01*
%TO.C,R8*%
X184162379Y-73720000D02*
X184497621Y-73720000D01*
X184162379Y-74480000D02*
X184497621Y-74480000D01*
%TO.C,R15*%
X143180000Y-79663641D02*
X143180000Y-79356359D01*
X143940000Y-79663641D02*
X143940000Y-79356359D01*
%TO.C,R14*%
X178110000Y-73862379D02*
X178110000Y-74197621D01*
X178870000Y-73862379D02*
X178870000Y-74197621D01*
%TO.C,C4*%
X158010000Y-76872164D02*
X158010000Y-77087836D01*
X158730000Y-76872164D02*
X158730000Y-77087836D01*
%TO.C,SW1*%
D10*
X177910000Y-93360000D02*
X179270000Y-93360000D01*
X179270000Y-90840000D01*
X177910000Y-90840000D01*
X177910000Y-93360000D01*
D14*
%TO.C,U2*%
X190670000Y-90400000D02*
X191720000Y-90400000D01*
X190670000Y-91550000D02*
X190670000Y-90400000D01*
X194720000Y-93520000D02*
X191840000Y-93520000D01*
X194840000Y-90400000D02*
X194840000Y-89410000D01*
X195890000Y-90400000D02*
X194840000Y-90400000D01*
X195890000Y-91550000D02*
X195890000Y-90400000D01*
%TO.C,C7*%
X184660000Y-93105835D02*
X184660000Y-92874165D01*
X185380000Y-93105835D02*
X185380000Y-92874165D01*
%TO.C,R18*%
X163106359Y-73590000D02*
X163413641Y-73590000D01*
X163106359Y-74350000D02*
X163413641Y-74350000D01*
D10*
%TO.C,Y1*%
X176110000Y-84090000D02*
X176110000Y-84090000D01*
X176110000Y-84190000D02*
X176110000Y-84190000D01*
X176110000Y-84090000D02*
G75*
G02*
X176110000Y-84190000I0J-50000D01*
G01*
X176110000Y-84190000D02*
G75*
G02*
X176110000Y-84090000I0J50000D01*
G01*
D14*
%TO.C,C2*%
X178224165Y-89400000D02*
X178455835Y-89400000D01*
X178224165Y-90120000D02*
X178455835Y-90120000D01*
%TO.C,C16*%
X158967836Y-83300000D02*
X158752164Y-83300000D01*
X158967836Y-84020000D02*
X158752164Y-84020000D01*
%TO.C,C6*%
X179744165Y-81680000D02*
X179975835Y-81680000D01*
X179744165Y-82400000D02*
X179975835Y-82400000D01*
%TO.C,SW4*%
D10*
X160575000Y-84475000D02*
X163095000Y-84475000D01*
X163095000Y-85835000D01*
X160575000Y-85835000D01*
X160575000Y-84475000D01*
D14*
%TO.C,C12*%
X176235835Y-89470000D02*
X176004165Y-89470000D01*
X176235835Y-90190000D02*
X176004165Y-90190000D01*
%TO.C,TP1*%
X165990000Y-74530000D02*
G75*
G02*
X164590000Y-74530000I-700000J0D01*
G01*
X164590000Y-74530000D02*
G75*
G02*
X165990000Y-74530000I700000J0D01*
G01*
%TO.C,R6*%
X163390000Y-76883641D02*
X163390000Y-76576359D01*
X164150000Y-76883641D02*
X164150000Y-76576359D01*
%TO.C,R25*%
X179402379Y-79310000D02*
X179737621Y-79310000D01*
X179402379Y-80070000D02*
X179737621Y-80070000D01*
%TO.C,R13*%
X174360000Y-76457621D02*
X174360000Y-76122379D01*
X175120000Y-76457621D02*
X175120000Y-76122379D01*
D15*
%TO.C,U2*%
X159712999Y-78447001D02*
X162066999Y-78447001D01*
X162066999Y-76093001D02*
X159712999Y-76093001D01*
D14*
%TO.C,C21*%
X156070000Y-89297836D02*
X156070000Y-89082164D01*
X156790000Y-89297836D02*
X156790000Y-89082164D01*
%TO.C,C10*%
X182314165Y-92780000D02*
X182545835Y-92780000D01*
X182314165Y-93500000D02*
X182545835Y-93500000D01*
%TO.C,R5*%
X161146359Y-73570000D02*
X161453641Y-73570000D01*
X161146359Y-74330000D02*
X161453641Y-74330000D01*
%TO.C,C15*%
X158977836Y-82350000D02*
X158762164Y-82350000D01*
X158977836Y-83070000D02*
X158762164Y-83070000D01*
%TO.C,C1*%
X191021165Y-87772000D02*
X191252835Y-87772000D01*
X191021165Y-88492000D02*
X191252835Y-88492000D01*
%TO.C,L1*%
X148059622Y-85220000D02*
X147260378Y-85220000D01*
X148059622Y-86340000D02*
X147260378Y-86340000D01*
%TO.C,R2*%
X189512379Y-81750000D02*
X189847621Y-81750000D01*
X189512379Y-82510000D02*
X189847621Y-82510000D01*
%TO.C,R12*%
X156723641Y-78860000D02*
X156416359Y-78860000D01*
X156723641Y-79620000D02*
X156416359Y-79620000D01*
%TO.C,C16*%
X187015835Y-73650000D02*
X186784165Y-73650000D01*
X187015835Y-74370000D02*
X186784165Y-74370000D01*
%TO.C,R23*%
X180027621Y-80560000D02*
X179692379Y-80560000D01*
X180027621Y-81320000D02*
X179692379Y-81320000D01*
%TO.C,C8*%
X183680000Y-93095835D02*
X183680000Y-92864165D01*
X184400000Y-93095835D02*
X184400000Y-92864165D01*
%TO.C,C6*%
X158010000Y-87822164D02*
X158010000Y-88037836D01*
X158730000Y-87822164D02*
X158730000Y-88037836D01*
%TO.C,R5*%
X193720000Y-79022379D02*
X193720000Y-79357621D01*
X194480000Y-79022379D02*
X194480000Y-79357621D01*
%TO.C,C22*%
X174940000Y-92925835D02*
X174940000Y-92694165D01*
X175660000Y-92925835D02*
X175660000Y-92694165D01*
%TO.C,R14*%
X143210000Y-85886359D02*
X143210000Y-86193641D01*
X143970000Y-85886359D02*
X143970000Y-86193641D01*
D10*
%TO.C,FL1*%
X149663000Y-75350000D02*
X149663000Y-75350000D01*
X149763000Y-75350000D02*
X149763000Y-75350000D01*
X149663000Y-75350000D02*
G75*
G02*
X149763000Y-75350000I50000J0D01*
G01*
X149763000Y-75350000D02*
G75*
G02*
X149663000Y-75350000I-50000J0D01*
G01*
D14*
%TO.C,R9*%
X192484621Y-82142000D02*
X192149379Y-82142000D01*
X192484621Y-82902000D02*
X192149379Y-82902000D01*
%TO.C,C15*%
X193790000Y-77005835D02*
X193790000Y-76774165D01*
X194510000Y-77005835D02*
X194510000Y-76774165D01*
%TO.C,C17*%
X159940000Y-81312164D02*
X159940000Y-81527836D01*
X160660000Y-81312164D02*
X160660000Y-81527836D01*
%TO.C,R28*%
X173840000Y-93017621D02*
X173840000Y-92682379D01*
X174600000Y-93017621D02*
X174600000Y-92682379D01*
%TO.C,C31*%
X175350000Y-75155835D02*
X175350000Y-74924165D01*
X176070000Y-75155835D02*
X176070000Y-74924165D01*
%TO.C,C23*%
X177180000Y-74165835D02*
X177180000Y-73934165D01*
X177900000Y-74165835D02*
X177900000Y-73934165D01*
%TO.C,R4*%
X158673641Y-73590000D02*
X158366359Y-73590000D01*
X158673641Y-74350000D02*
X158366359Y-74350000D01*
%TO.C,J1*%
X168910000Y-77890000D02*
X168910000Y-88010000D01*
X168910000Y-88010000D02*
X174880000Y-88010000D01*
X169670000Y-82950000D02*
X169670000Y-79710000D01*
X169670000Y-87250000D02*
X169670000Y-82950000D01*
X172620000Y-77900000D02*
X172620000Y-78650000D01*
X172620000Y-78650000D02*
X171280000Y-78650000D01*
X172620000Y-87250000D02*
X169670000Y-87250000D01*
X172620000Y-88000000D02*
X172620000Y-87250000D01*
X174120000Y-77900000D02*
X174120000Y-79700000D01*
X174120000Y-79700000D02*
X174870000Y-79700000D01*
X174120000Y-81200000D02*
X174120000Y-84700000D01*
X174120000Y-84700000D02*
X174870000Y-84700000D01*
X174120000Y-86200000D02*
X174120000Y-88000000D01*
X174120000Y-88000000D02*
X174870000Y-88000000D01*
X174870000Y-77900000D02*
X174120000Y-77900000D01*
X174870000Y-79700000D02*
X174870000Y-77900000D01*
X174870000Y-81200000D02*
X174120000Y-81200000D01*
X174870000Y-84700000D02*
X174870000Y-81200000D01*
X174870000Y-86200000D02*
X174120000Y-86200000D01*
X174870000Y-88000000D02*
X174870000Y-86200000D01*
X174880000Y-77890000D02*
X168910000Y-77890000D01*
X174880000Y-88010000D02*
X174880000Y-77890000D01*
X175170000Y-77600000D02*
X173920000Y-77600000D01*
X175170000Y-78850000D02*
X175170000Y-77600000D01*
%TO.C,U1*%
X150047500Y-80440000D02*
X150047500Y-80915000D01*
X150047500Y-87660000D02*
X150047500Y-87185000D01*
X150522500Y-80440000D02*
X150047500Y-80440000D01*
X150522500Y-87660000D02*
X150047500Y-87660000D01*
X156792500Y-80440000D02*
X157267500Y-80440000D01*
X156792500Y-87660000D02*
X156967500Y-87660000D01*
X157267500Y-80440000D02*
X157267500Y-80915000D01*
X157267500Y-87185000D02*
X157267500Y-87420000D01*
X157507500Y-87990000D02*
X157027500Y-87990000D01*
X157267500Y-87660000D01*
X157507500Y-87990000D01*
G36*
X157507500Y-87990000D02*
G01*
X157027500Y-87990000D01*
X157267500Y-87660000D01*
X157507500Y-87990000D01*
G37*
%TO.C,R11*%
X156766359Y-77870000D02*
X157073641Y-77870000D01*
X156766359Y-78630000D02*
X157073641Y-78630000D01*
%TO.C,TP2*%
X165950000Y-76550000D02*
G75*
G02*
X164550000Y-76550000I-700000J0D01*
G01*
X164550000Y-76550000D02*
G75*
G02*
X165950000Y-76550000I700000J0D01*
G01*
%TO.C,C11*%
X186474165Y-92900000D02*
X186705835Y-92900000D01*
X186474165Y-93620000D02*
X186705835Y-93620000D01*
D11*
%TO.C,J2*%
X181560000Y-74830000D02*
X181560000Y-76429000D01*
X181560000Y-74830000D02*
X192960000Y-74830000D01*
X183160000Y-80330000D02*
X191238000Y-80330000D01*
X192960000Y-74830000D02*
X192960000Y-76928000D01*
X191187000Y-74466000D02*
G75*
G02*
X191105000Y-74466000I-41000J0D01*
G01*
X191105000Y-74466000D02*
G75*
G02*
X191187000Y-74466000I41000J0D01*
G01*
D10*
%TO.C,IC1*%
X151710000Y-77233000D02*
X151710000Y-77233000D01*
X151710000Y-77333000D02*
X151710000Y-77333000D01*
X151710000Y-77233000D02*
G75*
G02*
X151710000Y-77333000I0J-50000D01*
G01*
X151710000Y-77333000D02*
G75*
G02*
X151710000Y-77233000I0J50000D01*
G01*
D14*
%TO.C,C1*%
X148060000Y-83862164D02*
X148060000Y-84077836D01*
X148780000Y-83862164D02*
X148780000Y-84077836D01*
D10*
%TO.C,U3*%
X176530000Y-76910000D02*
X176530000Y-76910000D01*
X176630000Y-76910000D02*
X176630000Y-76910000D01*
X176530000Y-76910000D02*
G75*
G02*
X176630000Y-76910000I50000J0D01*
G01*
X176630000Y-76910000D02*
G75*
G02*
X176530000Y-76910000I-50000J0D01*
G01*
D14*
%TO.C,R27*%
X175290000Y-78362379D02*
X175290000Y-78697621D01*
X176050000Y-78362379D02*
X176050000Y-78697621D01*
D10*
%TO.C,BT1*%
X162320000Y-83679999D02*
G75*
G02*
X164652624Y-79484698I1270000J2039999D01*
G01*
X165747497Y-80586338D02*
G75*
G02*
X165639999Y-82890000I-2157497J-1053662D01*
G01*
D14*
%TO.C,R24*%
X180430000Y-77812379D02*
X180430000Y-78147621D01*
X181190000Y-77812379D02*
X181190000Y-78147621D01*
%TO.C,R3*%
X161023641Y-78720000D02*
X160716359Y-78720000D01*
X161023641Y-79480000D02*
X160716359Y-79480000D01*
%TO.C,C8*%
X165517836Y-77890000D02*
X165302164Y-77890000D01*
X165517836Y-78610000D02*
X165302164Y-78610000D01*
%TO.C,R6*%
X193580000Y-81282379D02*
X193580000Y-81617621D01*
X194340000Y-81282379D02*
X194340000Y-81617621D01*
%TO.C,C4*%
X188440000Y-86685835D02*
X188440000Y-86454165D01*
X189160000Y-86685835D02*
X189160000Y-86454165D01*
%TO.C,C23*%
X150212164Y-79030000D02*
X150427836Y-79030000D01*
X150212164Y-79750000D02*
X150427836Y-79750000D01*
%TO.C,R16*%
X158686359Y-84250000D02*
X158993641Y-84250000D01*
X158686359Y-85010000D02*
X158993641Y-85010000D01*
D11*
%TO.C,ANT1*%
X144530000Y-74460000D02*
X142530000Y-74460000D01*
X144530000Y-76060000D02*
X142530000Y-76060000D01*
D10*
X146030000Y-75260000D02*
X146030000Y-75260000D01*
X146130000Y-75260000D02*
X146130000Y-75260000D01*
X146130000Y-75260000D02*
X146130000Y-75260000D01*
X146030000Y-75260000D02*
G75*
G02*
X146130000Y-75260000I50000J0D01*
G01*
X146030000Y-75260000D02*
G75*
G02*
X146130000Y-75260000I50000J0D01*
G01*
X146130000Y-75260000D02*
G75*
G02*
X146030000Y-75260000I-50000J0D01*
G01*
D14*
%TO.C,C18*%
X158070000Y-86167836D02*
X158070000Y-85952164D01*
X158790000Y-86167836D02*
X158790000Y-85952164D01*
%TO.C,C17*%
X193455835Y-87760000D02*
X193224165Y-87760000D01*
X193455835Y-88480000D02*
X193224165Y-88480000D01*
%TO.C,C9*%
X182324165Y-91730000D02*
X182555835Y-91730000D01*
X182324165Y-92450000D02*
X182555835Y-92450000D01*
%TO.C,U1*%
X180250000Y-83902500D02*
X180250000Y-83667500D01*
X180250000Y-90647500D02*
X180250000Y-90172500D01*
X180725000Y-83427500D02*
X180550000Y-83427500D01*
X180725000Y-90647500D02*
X180250000Y-90647500D01*
X186995000Y-83427500D02*
X187470000Y-83427500D01*
X186995000Y-90647500D02*
X187470000Y-90647500D01*
X187470000Y-83427500D02*
X187470000Y-83902500D01*
X187470000Y-90647500D02*
X187470000Y-90172500D01*
X180250000Y-83427500D02*
X180010000Y-83097500D01*
X180490000Y-83097500D01*
X180250000Y-83427500D01*
G36*
X180250000Y-83427500D02*
G01*
X180010000Y-83097500D01*
X180490000Y-83097500D01*
X180250000Y-83427500D01*
G37*
%TO.C,C30*%
X177115835Y-81660000D02*
X176884165Y-81660000D01*
X177115835Y-82380000D02*
X176884165Y-82380000D01*
%TO.C,C3*%
X176890000Y-92945835D02*
X176890000Y-92714165D01*
X177610000Y-92945835D02*
X177610000Y-92714165D01*
%TO.C,C13*%
X178465835Y-82720000D02*
X178234165Y-82720000D01*
X178465835Y-83440000D02*
X178234165Y-83440000D01*
%TO.C,C9*%
X164000000Y-85227836D02*
X164000000Y-85012164D01*
X164720000Y-85227836D02*
X164720000Y-85012164D01*
D16*
%TO.C,IC3*%
X157485000Y-73775000D02*
G75*
G02*
X157235000Y-73775000I-125000J0D01*
G01*
X157235000Y-73775000D02*
G75*
G02*
X157485000Y-73775000I125000J0D01*
G01*
D14*
%TO.C,R12*%
X175890000Y-93005121D02*
X175890000Y-92669879D01*
X176650000Y-93005121D02*
X176650000Y-92669879D01*
%TO.C,R17*%
X162536359Y-74870000D02*
X162843641Y-74870000D01*
X162536359Y-75630000D02*
X162843641Y-75630000D01*
%TO.C,R20*%
X187860000Y-92907621D02*
X187860000Y-92572379D01*
X188620000Y-92907621D02*
X188620000Y-92572379D01*
%TO.C,C5*%
X186735835Y-91890000D02*
X186504165Y-91890000D01*
X186735835Y-92610000D02*
X186504165Y-92610000D01*
%TO.C,C14*%
X192445835Y-81110000D02*
X192214165Y-81110000D01*
X192445835Y-81830000D02*
X192214165Y-81830000D01*
%TO.C,J3*%
X142440000Y-89185000D02*
X143770000Y-89185000D01*
X142440000Y-90515000D02*
X142440000Y-89185000D01*
X145040000Y-89185000D02*
X152720000Y-89185000D01*
X145040000Y-91845000D02*
X145040000Y-89185000D01*
X145040000Y-91845000D02*
X152720000Y-91845000D01*
X152720000Y-91845000D02*
X152720000Y-89185000D01*
%TO.C,R10*%
X190197621Y-80770000D02*
X189862379Y-80770000D01*
X190197621Y-81530000D02*
X189862379Y-81530000D01*
%TO.C,C3*%
X159677836Y-74590000D02*
X159462164Y-74590000D01*
X159677836Y-75310000D02*
X159462164Y-75310000D01*
%TO.C,SW5*%
D10*
X159435000Y-78915000D02*
X158075000Y-78915000D01*
X158075000Y-81435000D01*
X159435000Y-81435000D01*
X159435000Y-78915000D01*
%TO.C,IC1*%
X189837000Y-84580000D02*
X189837000Y-84580000D01*
X189937000Y-84580000D02*
X189937000Y-84580000D01*
X189837000Y-84580000D02*
G75*
G02*
X189937000Y-84580000I50000J0D01*
G01*
X189937000Y-84580000D02*
G75*
G02*
X189837000Y-84580000I-50000J0D01*
G01*
D14*
%TO.C,R7*%
X189012379Y-73650000D02*
X189347621Y-73650000D01*
X189012379Y-74410000D02*
X189347621Y-74410000D01*
%TO.C,C26*%
X157020000Y-89317836D02*
X157020000Y-89102164D01*
X157740000Y-89317836D02*
X157740000Y-89102164D01*
D10*
%TO.C,Y1*%
X147898812Y-82289666D02*
X147898812Y-82289666D01*
X147969522Y-82360377D02*
X147969522Y-82360377D01*
X147898812Y-82289666D02*
G75*
G02*
X147969522Y-82360376I35355J-35355D01*
G01*
X147969522Y-82360377D02*
G75*
G02*
X147898811Y-82289665I-35355J35356D01*
G01*
D14*
%TO.C,C5*%
X155117836Y-77940000D02*
X154902164Y-77940000D01*
X155117836Y-78660000D02*
X154902164Y-78660000D01*
%TD*%
M02*
