%TF.GenerationSoftware,KiCad,Pcbnew,8.0.5*%
%TF.CreationDate,2025-02-13T02:53:00+01:00*%
%TF.ProjectId,cansatperso,63616e73-6174-4706-9572-736f2e6b6963,rev?*%
%TF.SameCoordinates,Original*%
%TF.FileFunction,Other,ECO2*%
%FSLAX46Y46*%
G04 Gerber Fmt 4.6, Leading zero omitted, Abs format (unit mm)*
G04 Created by KiCad (PCBNEW 8.0.5) date 2025-02-13 02:53:00*
%MOMM*%
%LPD*%
G01*
G04 APERTURE LIST*
%ADD10C,0.100000*%
G04 APERTURE END LIST*
D10*
X171600000Y-72840000D02*
X171600000Y-77410000D01*
X171600000Y-77410000D02*
X166380000Y-77410000D01*
X177750000Y-94210000D02*
X189900000Y-94210000D01*
X189900000Y-94220000D02*
X189900000Y-96980000D01*
X192440000Y-70090000D02*
X189900000Y-70090000D01*
X189900000Y-72840000D02*
X177750000Y-72840000D01*
X166390000Y-88200000D02*
X171600000Y-88200000D01*
X195160000Y-85150000D02*
X196310000Y-85150000D01*
X139990000Y-73410000D02*
X139990000Y-92410000D01*
X166380000Y-77410000D02*
X166380000Y-73410000D01*
X175180000Y-96970000D02*
X177750000Y-96970000D01*
X196310000Y-85150000D02*
X196310000Y-78230000D01*
X175190000Y-72840000D02*
X171600000Y-72840000D01*
X195170000Y-72840000D02*
X192440000Y-72840000D01*
X171600000Y-88200000D02*
X171600000Y-94200000D01*
X192450000Y-96980000D02*
X192450000Y-94220000D01*
X195170000Y-78230000D02*
X195170000Y-72840000D01*
X166390000Y-88300000D02*
X166390000Y-88200000D01*
X139990000Y-92410000D02*
X166390000Y-92410000D01*
X189900000Y-96980000D02*
X192450000Y-96980000D01*
X196800000Y-88820000D02*
X195160000Y-88820000D01*
X166380000Y-73410000D02*
X139990000Y-73410000D01*
X175180000Y-94200000D02*
X175180000Y-96970000D01*
X192450000Y-94220000D02*
X196800000Y-94220000D01*
X177750000Y-96970000D02*
X177750000Y-94210000D01*
X195160000Y-88820000D02*
X195160000Y-85150000D01*
X196310000Y-78230000D02*
X195170000Y-78230000D01*
X177750000Y-70000000D02*
X175190000Y-70000000D01*
X171600000Y-94200000D02*
X175180000Y-94200000D01*
X196800000Y-94220000D02*
X196800000Y-88820000D01*
X192440000Y-72840000D02*
X192440000Y-70090000D01*
X189900000Y-70090000D02*
X189900000Y-72840000D01*
X177750000Y-72840000D02*
X177750000Y-70000000D01*
X166390000Y-92410000D02*
X166390000Y-88300000D01*
X175190000Y-70000000D02*
X175190000Y-72840000D01*
M02*
