%TF.GenerationSoftware,KiCad,Pcbnew,8.0.5*%
%TF.CreationDate,2025-02-13T02:53:00+01:00*%
%TF.ProjectId,cansatperso,63616e73-6174-4706-9572-736f2e6b6963,rev?*%
%TF.SameCoordinates,Original*%
%TF.FileFunction,Paste,Bot*%
%TF.FilePolarity,Positive*%
%FSLAX46Y46*%
G04 Gerber Fmt 4.6, Leading zero omitted, Abs format (unit mm)*
G04 Created by KiCad (PCBNEW 8.0.5) date 2025-02-13 02:53:00*
%MOMM*%
%LPD*%
G01*
G04 APERTURE LIST*
G04 Aperture macros list*
%AMRoundRect*
0 Rectangle with rounded corners*
0 $1 Rounding radius*
0 $2 $3 $4 $5 $6 $7 $8 $9 X,Y pos of 4 corners*
0 Add a 4 corners polygon primitive as box body*
4,1,4,$2,$3,$4,$5,$6,$7,$8,$9,$2,$3,0*
0 Add four circle primitives for the rounded corners*
1,1,$1+$1,$2,$3*
1,1,$1+$1,$4,$5*
1,1,$1+$1,$6,$7*
1,1,$1+$1,$8,$9*
0 Add four rect primitives between the rounded corners*
20,1,$1+$1,$2,$3,$4,$5,0*
20,1,$1+$1,$4,$5,$6,$7,0*
20,1,$1+$1,$6,$7,$8,$9,0*
20,1,$1+$1,$8,$9,$2,$3,0*%
G04 Aperture macros list end*
%ADD10RoundRect,0.155000X0.155000X-0.212500X0.155000X0.212500X-0.155000X0.212500X-0.155000X-0.212500X0*%
%ADD11RoundRect,0.135000X0.135000X0.185000X-0.135000X0.185000X-0.135000X-0.185000X0.135000X-0.185000X0*%
%ADD12RoundRect,0.155000X0.212500X0.155000X-0.212500X0.155000X-0.212500X-0.155000X0.212500X-0.155000X0*%
%ADD13RoundRect,0.160000X-0.160000X0.197500X-0.160000X-0.197500X0.160000X-0.197500X0.160000X0.197500X0*%
%ADD14RoundRect,0.155000X-0.155000X0.212500X-0.155000X-0.212500X0.155000X-0.212500X0.155000X0.212500X0*%
%ADD15RoundRect,0.140000X-0.140000X-0.170000X0.140000X-0.170000X0.140000X0.170000X-0.140000X0.170000X0*%
%ADD16RoundRect,0.140000X0.140000X0.170000X-0.140000X0.170000X-0.140000X-0.170000X0.140000X-0.170000X0*%
%ADD17RoundRect,0.160000X-0.197500X-0.160000X0.197500X-0.160000X0.197500X0.160000X-0.197500X0.160000X0*%
%ADD18R,0.750000X1.800000*%
%ADD19R,0.600000X1.800000*%
%ADD20R,1.300000X0.900000*%
%ADD21R,2.050000X2.450000*%
%ADD22RoundRect,0.135000X-0.185000X0.135000X-0.185000X-0.135000X0.185000X-0.135000X0.185000X0.135000X0*%
%ADD23R,1.200000X0.800000*%
%ADD24RoundRect,0.250000X-0.412500X-1.100000X0.412500X-1.100000X0.412500X1.100000X-0.412500X1.100000X0*%
%ADD25RoundRect,0.155000X-0.212500X-0.155000X0.212500X-0.155000X0.212500X0.155000X-0.212500X0.155000X0*%
%ADD26RoundRect,0.160000X0.160000X-0.197500X0.160000X0.197500X-0.160000X0.197500X-0.160000X-0.197500X0*%
%ADD27RoundRect,0.140000X-0.170000X0.140000X-0.170000X-0.140000X0.170000X-0.140000X0.170000X0.140000X0*%
%ADD28RoundRect,0.150000X-0.150000X-0.625000X0.150000X-0.625000X0.150000X0.625000X-0.150000X0.625000X0*%
%ADD29RoundRect,0.250000X-0.350000X-0.650000X0.350000X-0.650000X0.350000X0.650000X-0.350000X0.650000X0*%
%ADD30R,0.450000X0.240000*%
%ADD31R,0.470000X0.500000*%
%ADD32R,0.350000X0.500000*%
%ADD33R,0.900000X0.440000*%
%ADD34R,0.300000X0.340000*%
%ADD35R,0.850000X0.300000*%
%ADD36R,1.700000X2.500000*%
%ADD37RoundRect,0.237500X0.237500X-0.287500X0.237500X0.287500X-0.237500X0.287500X-0.237500X-0.287500X0*%
%ADD38RoundRect,0.250000X-1.100000X0.412500X-1.100000X-0.412500X1.100000X-0.412500X1.100000X0.412500X0*%
%ADD39RoundRect,0.135000X-0.135000X-0.185000X0.135000X-0.185000X0.135000X0.185000X-0.135000X0.185000X0*%
%ADD40RoundRect,0.150000X0.425000X-0.150000X0.425000X0.150000X-0.425000X0.150000X-0.425000X-0.150000X0*%
%ADD41RoundRect,0.075000X0.500000X-0.075000X0.500000X0.075000X-0.500000X0.075000X-0.500000X-0.075000X0*%
%ADD42RoundRect,0.140000X0.170000X-0.140000X0.170000X0.140000X-0.170000X0.140000X-0.170000X-0.140000X0*%
%ADD43RoundRect,0.090000X0.090000X-0.139000X0.090000X0.139000X-0.090000X0.139000X-0.090000X-0.139000X0*%
%ADD44R,0.325000X0.300000*%
%ADD45R,0.300000X0.325000*%
%ADD46RoundRect,0.237500X-0.287500X-0.237500X0.287500X-0.237500X0.287500X0.237500X-0.287500X0.237500X0*%
%ADD47RoundRect,0.250000X-0.900000X1.500000X-0.900000X-1.500000X0.900000X-1.500000X0.900000X1.500000X0*%
%ADD48R,0.700000X1.600000*%
%ADD49R,0.700000X1.500000*%
%ADD50R,1.000000X0.800000*%
%ADD51R,0.300000X0.800000*%
%ADD52R,2.480000X1.750000*%
%ADD53RoundRect,0.135000X0.185000X-0.135000X0.185000X0.135000X-0.185000X0.135000X-0.185000X-0.135000X0*%
G04 APERTURE END LIST*
D10*
%TO.C,C19*%
X194630000Y-88437500D03*
X194630000Y-87302500D03*
%TD*%
D11*
%TO.C,R10*%
X162250000Y-88390000D03*
X161230000Y-88390000D03*
%TD*%
D12*
%TO.C,C21*%
X189145000Y-92250000D03*
X188010000Y-92250000D03*
%TD*%
D13*
%TO.C,R16*%
X186500000Y-86352500D03*
X186500000Y-87547500D03*
%TD*%
D14*
%TO.C,C27*%
X187480000Y-85842500D03*
X187480000Y-86977500D03*
%TD*%
D15*
%TO.C,C12*%
X151410000Y-81440000D03*
X152370000Y-81440000D03*
%TD*%
D16*
%TO.C,C10*%
X164870000Y-88460000D03*
X163910000Y-88460000D03*
%TD*%
D17*
%TO.C,R15*%
X185132500Y-88570000D03*
X186327500Y-88570000D03*
%TD*%
D18*
%TO.C,S1*%
X163530000Y-89910000D03*
D19*
X162305000Y-89910000D03*
D18*
X161080000Y-89910000D03*
D20*
X164155000Y-91860000D03*
X160455000Y-91860000D03*
%TD*%
D21*
%TO.C,L2*%
X180060000Y-81670000D03*
X180060000Y-75570000D03*
%TD*%
D22*
%TO.C,R7*%
X165580000Y-90680000D03*
X165580000Y-91700000D03*
%TD*%
%TO.C,R1*%
X140630000Y-88730000D03*
X140630000Y-89750000D03*
%TD*%
D23*
%TO.C,PA1010D1*%
X155960000Y-86700000D03*
X155960000Y-85100000D03*
X155960000Y-82200000D03*
X155960000Y-80600000D03*
X155960000Y-79000000D03*
X165660000Y-79000000D03*
X165660000Y-80600000D03*
X165660000Y-82200000D03*
X165660000Y-85100000D03*
X165660000Y-86700000D03*
%TD*%
D24*
%TO.C,C29*%
X185117500Y-80200000D03*
X188242500Y-80200000D03*
%TD*%
D25*
%TO.C,C28*%
X187722500Y-82380000D03*
X188857500Y-82380000D03*
%TD*%
D26*
%TO.C,R11*%
X184200000Y-93207500D03*
X184200000Y-92012500D03*
%TD*%
D27*
%TO.C,C7*%
X159220000Y-90660000D03*
X159220000Y-91620000D03*
%TD*%
D28*
%TO.C,J1*%
X148410000Y-78360000D03*
X149410000Y-78360000D03*
X150410000Y-78360000D03*
X151410000Y-78360000D03*
X152410000Y-78360000D03*
X153410000Y-78360000D03*
D29*
X147110000Y-74485000D03*
X154710000Y-74485000D03*
%TD*%
D30*
%TO.C,J5*%
X193200000Y-76700000D03*
X190750000Y-76700000D03*
X193200000Y-77100000D03*
X190750000Y-77100000D03*
X193200000Y-77500000D03*
X190750000Y-77500000D03*
X193200000Y-77900000D03*
X190750000Y-77900000D03*
X193200000Y-78300000D03*
X190750000Y-78300000D03*
X193200000Y-78700000D03*
X190750000Y-78700000D03*
D31*
X193170000Y-75950000D03*
X190780000Y-75950000D03*
X190780000Y-79450000D03*
X193170000Y-79450000D03*
%TD*%
D16*
%TO.C,C2*%
X153480000Y-88330000D03*
X152520000Y-88330000D03*
%TD*%
D25*
%TO.C,C25*%
X182932500Y-88530000D03*
X184067500Y-88530000D03*
%TD*%
D32*
%TO.C,D4*%
X151725000Y-79530000D03*
X152375000Y-79530000D03*
D33*
X152050000Y-80220000D03*
D34*
X152050000Y-80610000D03*
%TD*%
D35*
%TO.C,IC5*%
X193400000Y-91320000D03*
X193400000Y-92270000D03*
X193400000Y-93220000D03*
X190500000Y-93220000D03*
X190500000Y-92270000D03*
X190500000Y-91320000D03*
D36*
X191950000Y-92270000D03*
%TD*%
D13*
%TO.C,R22*%
X175510000Y-80332500D03*
X175510000Y-81527500D03*
%TD*%
D11*
%TO.C,R25*%
X149460000Y-82500000D03*
X148440000Y-82500000D03*
%TD*%
%TO.C,R2*%
X147000000Y-88230000D03*
X145980000Y-88230000D03*
%TD*%
D13*
%TO.C,R4*%
X185960000Y-92470000D03*
X185960000Y-93665000D03*
%TD*%
D37*
%TO.C,D1*%
X173470000Y-75475000D03*
X173470000Y-73725000D03*
%TD*%
D15*
%TO.C,C14*%
X154520000Y-83130000D03*
X155480000Y-83130000D03*
%TD*%
D38*
%TO.C,C24*%
X182080000Y-89967500D03*
X182080000Y-93092500D03*
%TD*%
D39*
%TO.C,R20*%
X153260000Y-81190000D03*
X154280000Y-81190000D03*
%TD*%
%TO.C,R19*%
X153240000Y-82150000D03*
X154260000Y-82150000D03*
%TD*%
D13*
%TO.C,R3*%
X172180000Y-73982500D03*
X172180000Y-75177500D03*
%TD*%
D11*
%TO.C,R8*%
X157700000Y-88470000D03*
X156680000Y-88470000D03*
%TD*%
D15*
%TO.C,C13*%
X149550000Y-81450000D03*
X150510000Y-81450000D03*
%TD*%
D22*
%TO.C,R13*%
X159630000Y-88340000D03*
X159630000Y-89360000D03*
%TD*%
D40*
%TO.C,J4*%
X145850000Y-86010000D03*
X145850000Y-85210000D03*
D41*
X145850000Y-84060000D03*
X145850000Y-83060000D03*
X145850000Y-82560000D03*
X145850000Y-81560000D03*
D40*
X145850000Y-80410000D03*
X145850000Y-79610000D03*
X145850000Y-79610000D03*
X145850000Y-80410000D03*
D41*
X145850000Y-81060000D03*
X145850000Y-82060000D03*
X145850000Y-83560000D03*
X145850000Y-84560000D03*
D40*
X145850000Y-85210000D03*
X145850000Y-86010000D03*
%TD*%
D11*
%TO.C,R23*%
X153670000Y-87340000D03*
X152650000Y-87340000D03*
%TD*%
D42*
%TO.C,C24*%
X148240000Y-87560000D03*
X148240000Y-86600000D03*
%TD*%
%TO.C,C22*%
X149200000Y-87570000D03*
X149200000Y-86610000D03*
%TD*%
D14*
%TO.C,C20*%
X194580000Y-90132500D03*
X194580000Y-91267500D03*
%TD*%
D43*
%TO.C,D2*%
X140660000Y-91592500D03*
X140660000Y-90727500D03*
%TD*%
D18*
%TO.C,S2*%
X156975000Y-89895000D03*
D19*
X155750000Y-89895000D03*
D18*
X154525000Y-89895000D03*
D20*
X157600000Y-91845000D03*
X153900000Y-91845000D03*
%TD*%
D13*
%TO.C,R19*%
X187970000Y-89062500D03*
X187970000Y-90257500D03*
%TD*%
%TO.C,R21*%
X175510000Y-82650000D03*
X175510000Y-83845000D03*
%TD*%
D35*
%TO.C,IC2*%
X193310000Y-87570000D03*
X193310000Y-88520000D03*
X193310000Y-89470000D03*
X190410000Y-89470000D03*
X190410000Y-88520000D03*
X190410000Y-87570000D03*
D36*
X191860000Y-88520000D03*
%TD*%
D14*
%TO.C,C26*%
X186530000Y-84152500D03*
X186530000Y-85287500D03*
%TD*%
D11*
%TO.C,R22*%
X151380000Y-87510000D03*
X150360000Y-87510000D03*
%TD*%
D12*
%TO.C,C18*%
X189147500Y-91280000D03*
X188012500Y-91280000D03*
%TD*%
D15*
%TO.C,C19*%
X154540000Y-84100000D03*
X155500000Y-84100000D03*
%TD*%
D44*
%TO.C,U5*%
X152800000Y-84480000D03*
X152800000Y-84980000D03*
D45*
X152550000Y-85505000D03*
X152050000Y-85505000D03*
X151550000Y-85505000D03*
D44*
X151300000Y-84980000D03*
X151300000Y-84480000D03*
D45*
X151550000Y-83955000D03*
X152050000Y-83955000D03*
X152550000Y-83955000D03*
%TD*%
D46*
%TO.C,D5*%
X184550000Y-90470000D03*
X186300000Y-90470000D03*
%TD*%
D13*
%TO.C,R17*%
X188890000Y-85822500D03*
X188890000Y-87017500D03*
%TD*%
D47*
%TO.C,D2*%
X177930000Y-86510000D03*
X177930000Y-91910000D03*
%TD*%
D30*
%TO.C,J4*%
X174860000Y-91970000D03*
X174860000Y-91570000D03*
X174860000Y-91170000D03*
X174860000Y-90770000D03*
X174860000Y-90370000D03*
X172410000Y-91970000D03*
X172410000Y-91570000D03*
X172410000Y-91170000D03*
X172410000Y-90770000D03*
X172410000Y-90370000D03*
D31*
X174830000Y-92720000D03*
X174830000Y-89620000D03*
X172440000Y-92720000D03*
X172440000Y-89620000D03*
%TD*%
D48*
%TO.C,SW1*%
X161845000Y-76812500D03*
D49*
X160345000Y-76812500D03*
X157345000Y-76812500D03*
D50*
X155945000Y-74097500D03*
X155945000Y-76027500D03*
X163245000Y-74097500D03*
X163245000Y-76027500D03*
%TD*%
D26*
%TO.C,R1*%
X194580000Y-93537500D03*
X194580000Y-92342500D03*
%TD*%
D46*
%TO.C,D4*%
X187275000Y-93480000D03*
X189025000Y-93480000D03*
%TD*%
D32*
%TO.C,D5*%
X149185000Y-79520000D03*
X149835000Y-79520000D03*
D33*
X149510000Y-80210000D03*
D34*
X149510000Y-80600000D03*
%TD*%
D26*
%TO.C,R18*%
X189150000Y-90267500D03*
X189150000Y-89072500D03*
%TD*%
D51*
%TO.C,IC3*%
X183090000Y-84410000D03*
X183590000Y-84410000D03*
X184090000Y-84410000D03*
X184590000Y-84410000D03*
X184590000Y-87410000D03*
X184090000Y-87410000D03*
X183590000Y-87410000D03*
X183090000Y-87410000D03*
D52*
X183840000Y-85910000D03*
%TD*%
D53*
%TO.C,R9*%
X158670000Y-89750000D03*
X158670000Y-88730000D03*
%TD*%
D43*
%TO.C,D3*%
X141610000Y-91562500D03*
X141610000Y-90697500D03*
%TD*%
D53*
%TO.C,R24*%
X148920000Y-85540000D03*
X148920000Y-84520000D03*
%TD*%
D16*
%TO.C,C25*%
X153960000Y-80230000D03*
X153000000Y-80230000D03*
%TD*%
D27*
%TO.C,C11*%
X165820000Y-88520000D03*
X165820000Y-89480000D03*
%TD*%
M02*
