%TF.GenerationSoftware,KiCad,Pcbnew,8.0.5*%
%TF.CreationDate,2024-10-20T03:46:06+02:00*%
%TF.ProjectId,cansatperso,63616e73-6174-4706-9572-736f2e6b6963,rev?*%
%TF.SameCoordinates,Original*%
%TF.FileFunction,Soldermask,Bot*%
%TF.FilePolarity,Negative*%
%FSLAX46Y46*%
G04 Gerber Fmt 4.6, Leading zero omitted, Abs format (unit mm)*
G04 Created by KiCad (PCBNEW 8.0.5) date 2024-10-20 03:46:06*
%MOMM*%
%LPD*%
G01*
G04 APERTURE LIST*
G04 Aperture macros list*
%AMRoundRect*
0 Rectangle with rounded corners*
0 $1 Rounding radius*
0 $2 $3 $4 $5 $6 $7 $8 $9 X,Y pos of 4 corners*
0 Add a 4 corners polygon primitive as box body*
4,1,4,$2,$3,$4,$5,$6,$7,$8,$9,$2,$3,0*
0 Add four circle primitives for the rounded corners*
1,1,$1+$1,$2,$3*
1,1,$1+$1,$4,$5*
1,1,$1+$1,$6,$7*
1,1,$1+$1,$8,$9*
0 Add four rect primitives between the rounded corners*
20,1,$1+$1,$2,$3,$4,$5,0*
20,1,$1+$1,$4,$5,$6,$7,0*
20,1,$1+$1,$6,$7,$8,$9,0*
20,1,$1+$1,$8,$9,$2,$3,0*%
%AMOutline5P*
0 Free polygon, 5 corners , with rotation*
0 The origin of the aperture is its center*
0 number of corners: always 5*
0 $1 to $10 corner X, Y*
0 $11 Rotation angle, in degrees counterclockwise*
0 create outline with 5 corners*
4,1,5,$1,$2,$3,$4,$5,$6,$7,$8,$9,$10,$1,$2,$11*%
%AMOutline6P*
0 Free polygon, 6 corners , with rotation*
0 The origin of the aperture is its center*
0 number of corners: always 6*
0 $1 to $12 corner X, Y*
0 $13 Rotation angle, in degrees counterclockwise*
0 create outline with 6 corners*
4,1,6,$1,$2,$3,$4,$5,$6,$7,$8,$9,$10,$11,$12,$1,$2,$13*%
%AMOutline7P*
0 Free polygon, 7 corners , with rotation*
0 The origin of the aperture is its center*
0 number of corners: always 7*
0 $1 to $14 corner X, Y*
0 $15 Rotation angle, in degrees counterclockwise*
0 create outline with 7 corners*
4,1,7,$1,$2,$3,$4,$5,$6,$7,$8,$9,$10,$11,$12,$13,$14,$1,$2,$15*%
%AMOutline8P*
0 Free polygon, 8 corners , with rotation*
0 The origin of the aperture is its center*
0 number of corners: always 8*
0 $1 to $16 corner X, Y*
0 $17 Rotation angle, in degrees counterclockwise*
0 create outline with 8 corners*
4,1,8,$1,$2,$3,$4,$5,$6,$7,$8,$9,$10,$11,$12,$13,$14,$15,$16,$1,$2,$17*%
%AMFreePoly0*
4,1,8,1.000000,0.600000,1.000000,-1.000000,0.000000,-1.000000,-1.000000,-1.000000,-1.000000,0.600000,-0.600000,1.000000,0.600000,1.000000,1.000000,0.600000,1.000000,0.600000,$1*%
G04 Aperture macros list end*
%ADD10R,1.000000X1.000000*%
%ADD11Outline6P,-0.600000X0.360000X-0.360000X0.600000X0.360000X0.600000X0.600000X0.360000X0.600000X-0.600000X-0.600000X-0.600000X270.000000*%
%ADD12FreePoly0,90.000000*%
%ADD13RoundRect,0.155000X-0.155000X0.212500X-0.155000X-0.212500X0.155000X-0.212500X0.155000X0.212500X0*%
%ADD14RoundRect,0.155000X0.212500X0.155000X-0.212500X0.155000X-0.212500X-0.155000X0.212500X-0.155000X0*%
%ADD15RoundRect,0.160000X-0.160000X0.197500X-0.160000X-0.197500X0.160000X-0.197500X0.160000X0.197500X0*%
%ADD16RoundRect,0.150000X0.625000X-0.150000X0.625000X0.150000X-0.625000X0.150000X-0.625000X-0.150000X0*%
%ADD17RoundRect,0.250000X0.650000X-0.350000X0.650000X0.350000X-0.650000X0.350000X-0.650000X-0.350000X0*%
%ADD18RoundRect,0.160000X-0.197500X-0.160000X0.197500X-0.160000X0.197500X0.160000X-0.197500X0.160000X0*%
%ADD19R,2.050000X2.450000*%
%ADD20RoundRect,0.250000X-0.412500X-1.100000X0.412500X-1.100000X0.412500X1.100000X-0.412500X1.100000X0*%
%ADD21RoundRect,0.155000X-0.212500X-0.155000X0.212500X-0.155000X0.212500X0.155000X-0.212500X0.155000X0*%
%ADD22RoundRect,0.160000X0.160000X-0.197500X0.160000X0.197500X-0.160000X0.197500X-0.160000X-0.197500X0*%
%ADD23RoundRect,0.250000X0.350000X0.650000X-0.350000X0.650000X-0.350000X-0.650000X0.350000X-0.650000X0*%
%ADD24RoundRect,0.150000X0.150000X0.625000X-0.150000X0.625000X-0.150000X-0.625000X0.150000X-0.625000X0*%
%ADD25R,0.850000X0.300000*%
%ADD26R,1.700000X2.500000*%
%ADD27RoundRect,0.237500X0.237500X-0.287500X0.237500X0.287500X-0.237500X0.287500X-0.237500X-0.287500X0*%
%ADD28RoundRect,0.250000X-1.100000X0.412500X-1.100000X-0.412500X1.100000X-0.412500X1.100000X0.412500X0*%
%ADD29RoundRect,0.237500X-0.287500X-0.237500X0.287500X-0.237500X0.287500X0.237500X-0.287500X0.237500X0*%
%ADD30RoundRect,0.250000X-0.900000X1.500000X-0.900000X-1.500000X0.900000X-1.500000X0.900000X1.500000X0*%
%ADD31RoundRect,0.250000X0.450000X-0.350000X0.450000X0.350000X-0.450000X0.350000X-0.450000X-0.350000X0*%
%ADD32R,0.300000X0.800000*%
%ADD33R,2.480000X1.750000*%
G04 APERTURE END LIST*
D10*
%TO.C,*%
X174500000Y-93530000D03*
%TD*%
D11*
%TO.C,REF\u002A\u002A2*%
X195660000Y-87340000D03*
%TD*%
D12*
%TO.C,*%
X172680000Y-80400000D03*
%TD*%
D11*
%TO.C,REF\u002A\u002A1*%
X195660000Y-89740000D03*
%TD*%
%TO.C,REF\u002A\u002A*%
X195660000Y-92190000D03*
%TD*%
D12*
%TO.C,REF\u002A\u002A*%
X172675000Y-86705000D03*
%TD*%
D13*
%TO.C,C19*%
X194630000Y-87302500D03*
X194630000Y-88437500D03*
%TD*%
D14*
%TO.C,C21*%
X189145000Y-92250000D03*
X188010000Y-92250000D03*
%TD*%
D15*
%TO.C,R16*%
X186500000Y-86352500D03*
X186500000Y-87547500D03*
%TD*%
D13*
%TO.C,C27*%
X187480000Y-85842500D03*
X187480000Y-86977500D03*
%TD*%
D10*
%TO.C,*%
X173070000Y-90900000D03*
%TD*%
D16*
%TO.C,J3*%
X191005000Y-83910000D03*
X191005000Y-82910000D03*
X191005000Y-81910000D03*
X191005000Y-80910000D03*
D17*
X193530000Y-85210000D03*
X193530000Y-79610000D03*
%TD*%
D18*
%TO.C,R15*%
X185132500Y-88570000D03*
X186327500Y-88570000D03*
%TD*%
D19*
%TO.C,L2*%
X180060000Y-81670000D03*
X180060000Y-75570000D03*
%TD*%
D20*
%TO.C,C29*%
X185117500Y-80200000D03*
X188242500Y-80200000D03*
%TD*%
D10*
%TO.C,*%
X173070000Y-76130000D03*
%TD*%
D21*
%TO.C,C28*%
X187722500Y-82380000D03*
X188857500Y-82380000D03*
%TD*%
D10*
%TO.C,*%
X173070000Y-77580000D03*
%TD*%
D22*
%TO.C,R11*%
X184200000Y-93207500D03*
X184200000Y-92012500D03*
%TD*%
D23*
%TO.C,J4*%
X185440000Y-74530000D03*
D24*
X189740000Y-77055000D03*
X188740000Y-77055000D03*
X187740000Y-77055000D03*
X186740000Y-77055000D03*
D23*
X191040000Y-74530000D03*
%TD*%
D10*
%TO.C,*%
X173080000Y-74720000D03*
%TD*%
%TO.C,*%
X173070000Y-73460000D03*
%TD*%
%TO.C,*%
X195700000Y-83100000D03*
%TD*%
D21*
%TO.C,C25*%
X182932500Y-88530000D03*
X184067500Y-88530000D03*
%TD*%
D25*
%TO.C,IC5*%
X193400000Y-91320000D03*
X193400000Y-92270000D03*
X193400000Y-93220000D03*
X190500000Y-93220000D03*
X190500000Y-92270000D03*
X190500000Y-91320000D03*
D26*
X191950000Y-92270000D03*
%TD*%
D15*
%TO.C,R22*%
X174430000Y-81312500D03*
X174430000Y-82507500D03*
%TD*%
%TO.C,R4*%
X185960000Y-92470000D03*
X185960000Y-93665000D03*
%TD*%
D27*
%TO.C,D1*%
X174550000Y-75605000D03*
X174550000Y-73855000D03*
%TD*%
D28*
%TO.C,C24*%
X182080000Y-89967500D03*
X182080000Y-93092500D03*
%TD*%
D22*
%TO.C,R3*%
X174390000Y-78767500D03*
X174390000Y-77572500D03*
%TD*%
D10*
%TO.C,*%
X195700000Y-84500000D03*
%TD*%
%TO.C,7*%
X195700000Y-80300000D03*
%TD*%
%TO.C,*%
X195700000Y-78890000D03*
%TD*%
%TO.C,*%
X195700000Y-81690000D03*
%TD*%
D13*
%TO.C,C20*%
X194580000Y-90132500D03*
X194580000Y-91267500D03*
%TD*%
D15*
%TO.C,R19*%
X187970000Y-89062500D03*
X187970000Y-90257500D03*
%TD*%
%TO.C,R21*%
X174480000Y-83952500D03*
X174480000Y-85147500D03*
%TD*%
D25*
%TO.C,IC2*%
X193310000Y-87570000D03*
X193310000Y-88520000D03*
X193310000Y-89470000D03*
X190410000Y-89470000D03*
X190410000Y-88520000D03*
X190410000Y-87570000D03*
D26*
X191860000Y-88520000D03*
%TD*%
D13*
%TO.C,C26*%
X186530000Y-84152500D03*
X186530000Y-85287500D03*
%TD*%
D21*
%TO.C,C18*%
X188012500Y-91280000D03*
X189147500Y-91280000D03*
%TD*%
D10*
%TO.C,*%
X173090000Y-89490000D03*
%TD*%
D29*
%TO.C,D5*%
X184550000Y-90470000D03*
X186300000Y-90470000D03*
%TD*%
D15*
%TO.C,R17*%
X188890000Y-85822500D03*
X188890000Y-87017500D03*
%TD*%
D30*
%TO.C,D2*%
X177930000Y-86510000D03*
X177930000Y-91910000D03*
%TD*%
D15*
%TO.C,R1*%
X194580000Y-92342500D03*
X194580000Y-93537500D03*
%TD*%
D29*
%TO.C,D4*%
X187275000Y-93480000D03*
X189025000Y-93480000D03*
%TD*%
D31*
%TO.C,R23*%
X174650000Y-88680000D03*
X174650000Y-86680000D03*
%TD*%
D22*
%TO.C,R18*%
X189150000Y-90267500D03*
X189150000Y-89072500D03*
%TD*%
D10*
%TO.C,*%
X173070000Y-92300000D03*
%TD*%
D32*
%TO.C,IC3*%
X183090000Y-84410000D03*
X183590000Y-84410000D03*
X184090000Y-84410000D03*
X184590000Y-84410000D03*
X184590000Y-87410000D03*
X184090000Y-87410000D03*
X183590000Y-87410000D03*
X183090000Y-87410000D03*
D33*
X183840000Y-85910000D03*
%TD*%
D10*
%TO.C,3*%
X173080000Y-93590000D03*
%TD*%
M02*
