M48
; DRILL file {KiCad 8.0.5} date 2024-10-20T03:46:03+0200
; FORMAT={-:-/ absolute / inch / decimal}
; #@! TF.CreationDate,2024-10-20T03:46:03+02:00
; #@! TF.GenerationSoftware,Kicad,Pcbnew,8.0.5
; #@! TF.FileFunction,Plated,1,6,PTH
FMAT,2
INCH
; #@! TA.AperFunction,Plated,PTH,ViaDrill
T1C0.0118
; #@! TA.AperFunction,Plated,PTH,ComponentDrill
T2C0.0236
; #@! TA.AperFunction,Plated,PTH,ComponentDrill
T3C0.0394
%
G90
G05
T1
X6.8138Y-2.8921
X6.8138Y-2.9972
X6.8138Y-3.0543
X6.8138Y-3.5787
X6.8138Y-3.6339
X6.8142Y-2.9417
X6.8142Y-3.6846
X6.8146Y-3.5232
X6.8559Y-3.0213
X6.8638Y-3.0925
X6.8638Y-3.1563
X6.8657Y-3.5449
X6.8693Y-3.3523
X6.8701Y-3.6823
X6.876Y-3.4126
X6.8807Y-3.2795
X6.8965Y-2.9091
X6.8965Y-2.9264
X6.9028Y-3.6453
X6.9028Y-3.6925
X6.9051Y-3.6681
X6.9083Y-2.9931
X6.9083Y-3.2067
X6.9311Y-3.1394
X6.9346Y-3.2469
X6.9433Y-3.6661
X6.9819Y-2.9283
X6.9874Y-3.6469
X6.9882Y-2.8858
X6.9921Y-3.6917
X7.0Y-3.1402
X7.0236Y-3.5756
X7.0256Y-3.3087
X7.0417Y-3.6488
X7.0445Y-3.6933
X7.0508Y-3.3091
X7.0543Y-3.4831
X7.0551Y-2.8858
X7.0622Y-3.5768
X7.0626Y-3.1409
X7.0686Y-3.4681
X7.0744Y-3.5472
X7.0866Y-3.672
X7.0874Y-3.6244
X7.0941Y-3.5492
X7.0955Y-3.571
X7.115Y-3.1052
X7.122Y-2.8858
X7.126Y-3.6917
X7.1406Y-3.4343
X7.1437Y-3.1272
X7.1449Y-3.5909
X7.1469Y-3.2508
X7.1473Y-2.9091
X7.148Y-2.9287
X7.1591Y-3.4142
X7.1677Y-3.5913
X7.1717Y-3.3835
X7.1789Y-3.2565
X7.189Y-2.8858
X7.1909Y-3.5921
X7.1929Y-3.6917
X7.1941Y-2.9827
X7.1949Y-3.3535
X7.1949Y-3.4098
X7.2028Y-3.2126
X7.2067Y-2.9563
X7.2099Y-3.2588
X7.212Y-3.2783
X7.2138Y-3.5917
X7.2169Y-3.2404
X7.2283Y-3.1398
X7.2311Y-3.0587
X7.2315Y-3.0976
X7.2378Y-3.3535
X7.239Y-3.4079
X7.2457Y-3.683
X7.2516Y-3.5929
X7.2559Y-2.8858
X7.2642Y-2.9941
X7.2705Y-3.5248
X7.2728Y-3.3547
X7.2843Y-3.6387
X7.2878Y-3.2626
X7.2878Y-3.6114
X7.3031Y-3.5248
X7.3079Y-3.5957
X7.3098Y-3.3531
X7.3134Y-3.0693
X7.3138Y-3.3953
X7.3228Y-2.8858
X7.3299Y-3.6087
X7.3378Y-3.5252
X7.3547Y-3.6484
X7.3622Y-3.5996
X7.363Y-2.9874
X7.3685Y-3.5732
X7.3852Y-3.2764
X7.3898Y-2.8858
X7.3937Y-2.9535
X7.4004Y-3.5534
X7.402Y-3.1244
X7.4039Y-3.1827
X7.4051Y-3.4311
X7.4063Y-3.3657
X7.4063Y-3.4539
X7.4075Y-3.3902
X7.4087Y-3.474
X7.4106Y-3.2764
X7.4118Y-3.078
X7.4142Y-2.9531
X7.4323Y-3.0654
X7.4331Y-3.4567
X7.4468Y-3.5937
X7.4472Y-3.6925
X7.4496Y-2.9858
X7.4567Y-2.8858
X7.465Y-3.6693
X7.4665Y-3.115
X7.4667Y-3.6898
X7.4681Y-3.1654
X7.4697Y-3.2701
X7.4701Y-3.0677
X7.4705Y-3.2169
X7.4709Y-3.2476
X7.4748Y-3.2955
X7.4783Y-3.328
X7.4823Y-3.5232
X7.4831Y-3.3492
X7.4933Y-2.9925
X7.4976Y-3.5051
X7.5012Y-3.2898
X7.5094Y-3.6953
X7.5142Y-3.5646
X7.515Y-3.1126
X7.5236Y-2.8858
X7.5327Y-3.0559
X7.552Y-3.4449
X7.5566Y-3.2839
X7.5614Y-3.6957
X7.5689Y-3.4654
X7.5705Y-3.5933
X7.5756Y-3.615
X7.5815Y-3.0248
X7.5827Y-3.4449
X7.5894Y-3.0661
X7.6043Y-3.2524
X7.6071Y-3.5415
X7.6134Y-3.3087
X7.614Y-3.208
X7.6177Y-3.6933
X7.6299Y-3.4134
X7.6306Y-3.4304
X7.6311Y-3.3177
X7.6488Y-3.4976
X7.6488Y-3.5161
X7.6606Y-3.5932
X7.665Y-3.6953
X7.6677Y-3.0193
X7.6677Y-3.1531
X7.6677Y-3.3539
X7.6677Y-3.6217
X7.7051Y-3.1071
X7.7051Y-3.1622
X7.7051Y-3.2173
X7.7051Y-3.2724
X7.7051Y-3.3276
T2
X7.7031Y-3.4386
X7.7031Y-3.5331
X7.7031Y-3.6295
T3
X6.7982Y-3.4136
X6.7984Y-3.1654
M30
