M48
; DRILL file {KiCad 8.0.5} date 2025-02-14T01:05:13+0100
; FORMAT={-:-/ absolute / inch / decimal}
; #@! TF.CreationDate,2025-02-14T01:05:13+01:00
; #@! TF.GenerationSoftware,Kicad,Pcbnew,8.0.5
; #@! TF.FileFunction,Plated,1,6,PTH
FMAT,2
INCH
; #@! TA.AperFunction,Plated,PTH,ViaDrill
T1C0.0118
; #@! TA.AperFunction,Plated,PTH,ComponentDrill
T2C0.0197
; #@! TA.AperFunction,Plated,PTH,ComponentDrill
T3C0.0236
; #@! TA.AperFunction,Plated,PTH,ComponentDrill
T4C0.0374
; #@! TA.AperFunction,Plated,PTH,ComponentDrill
T5C0.0394
; #@! TA.AperFunction,Plated,PTH,ComponentDrill
T6C0.0472
%
G90
G05
T1
X5.5295Y-3.0299
X5.535Y-3.1358
X5.539Y-3.2736
X5.5394Y-3.1957
X5.5472Y-3.3906
X5.548Y-3.3524
X5.5496Y-3.0299
X5.5583Y-3.1606
X5.5638Y-3.4764
X5.565Y-3.5087
X5.5697Y-3.0299
X5.5805Y-3.235
X5.5805Y-3.3098
X5.587Y-3.3543
X5.5878Y-3.3898
X5.5898Y-3.0299
X5.5909Y-3.1957
X5.6067Y-3.1583
X5.6067Y-3.4681
X5.6071Y-3.5713
X5.6098Y-3.0299
X5.6114Y-3.1122
X5.6299Y-3.0299
X5.6382Y-3.1969
X5.6398Y-3.0685
X5.65Y-3.0299
X5.6516Y-3.4543
X5.6528Y-3.1646
X5.6531Y-3.3559
X5.6575Y-3.6217
X5.6598Y-3.5008
X5.6701Y-3.0299
X5.6705Y-3.2083
X5.6902Y-3.0299
X5.6941Y-3.3461
X5.6953Y-3.1736
X5.7102Y-3.0299
X5.7114Y-3.2933
X5.7118Y-3.6213
X5.7126Y-3.2315
X5.7197Y-3.5165
X5.7303Y-3.0299
X5.7504Y-3.0299
X5.7705Y-3.0299
X5.7752Y-3.4213
X5.789Y-3.0894
X5.7906Y-3.0299
X5.798Y-3.4461
X5.8041Y-3.0742
X5.8106Y-3.0299
X5.8114Y-3.2965
X5.8114Y-3.5213
X5.8134Y-3.6177
X5.8165Y-3.2469
X5.8201Y-3.3724
X5.8307Y-3.0299
X5.8417Y-3.4886
X5.8425Y-3.1146
X5.8429Y-3.0902
X5.8508Y-3.0299
X5.8622Y-3.1787
X5.8638Y-3.2689
X5.8642Y-3.2252
X5.8709Y-3.0299
X5.8835Y-3.0972
X5.8835Y-3.4768
X5.8849Y-3.2766
X5.8849Y-3.2962
X5.8866Y-3.3776
X5.8866Y-3.3992
X5.8909Y-3.0299
X5.9059Y-3.1819
X5.911Y-3.0299
X5.9118Y-3.4724
X5.9212Y-3.099
X5.9284Y-3.1348
X5.9311Y-3.0299
X5.9362Y-3.4783
X5.9488Y-3.2094
X5.9508Y-3.2445
X5.9512Y-3.0299
X5.9598Y-3.1292
X5.9604Y-3.4785
X5.9713Y-3.0299
X5.9732Y-3.2598
X5.9811Y-3.6197
X6.0098Y-3.5429
X6.0126Y-3.5024
X6.0165Y-3.6193
X6.0229Y-3.1587
X6.0264Y-3.0283
X6.0268Y-3.522
X6.0338Y-3.5037
X6.0343Y-2.9071
X6.0343Y-2.9256
X6.0343Y-2.9449
X6.0343Y-2.9634
X6.0343Y-2.9866
X6.0343Y-3.0067
X6.0408Y-3.139
X6.0496Y-3.311
X6.0504Y-3.5594
X6.0539Y-2.9248
X6.0539Y-2.9437
X6.0547Y-2.9051
X6.0553Y-3.5081
X6.0878Y-3.3724
X6.0923Y-3.0573
X6.0988Y-3.4087
X6.1014Y-3.2122
X6.1016Y-3.5421
X6.1106Y-3.4764
X6.1122Y-3.0547
X6.1124Y-3.1435
X6.1152Y-3.0346
X6.1169Y-3.5882
X6.1301Y-3.4888
X6.1311Y-2.9815
X6.1323Y-3.0528
X6.1327Y-3.1441
X6.1492Y-3.2669
X6.1496Y-3.2878
X6.1496Y-3.3098
X6.1579Y-3.0807
X6.1626Y-2.9913
X6.1659Y-3.1456
X6.1744Y-3.4579
X6.178Y-3.1835
X6.1799Y-3.1594
X6.187Y-3.4386
X6.2092Y-3.3415
X6.2098Y-3.233
X6.211Y-3.32
X6.2116Y-3.2526
X6.2126Y-3.2997
X6.2134Y-3.4102
X6.2138Y-3.3878
X6.2161Y-3.2764
X6.2169Y-3.5386
X6.2177Y-3.5126
X6.2205Y-2.9886
X6.2256Y-3.0638
X6.2354Y-3.276
X6.2382Y-3.1378
X6.2385Y-2.9887
X6.2398Y-3.5697
X6.2425Y-3.6213
X6.2579Y-3.1189
X6.2587Y-3.0429
X6.2591Y-3.315
X6.2598Y-3.0634
X6.2603Y-2.9887
X6.2614Y-3.1929
X6.2648Y-3.5147
X6.278Y-3.3984
X6.2795Y-3.2736
X6.2827Y-3.4516
X6.2831Y-3.2244
X6.2945Y-3.2504
X6.3016Y-2.9098
X6.3022Y-3.4488
X6.3024Y-2.9264
X6.3102Y-3.1528
X6.3283Y-3.3996
X6.3409Y-2.9909
X6.3433Y-3.4264
X6.3457Y-3.3319
X6.3461Y-3.215
X6.348Y-3.152
X6.361Y-3.6193
X6.3618Y-3.5921
X6.3783Y-3.0795
X6.3795Y-3.3567
X6.3795Y-3.4425
X6.3827Y-3.2504
X6.3835Y-3.211
X6.3858Y-2.987
X6.3862Y-3.0087
X6.387Y-3.1697
X6.3882Y-3.1217
X6.3906Y-3.6189
X6.4012Y-3.3295
X6.4098Y-3.3972
X6.4169Y-3.487
X6.4205Y-3.6177
X6.422Y-2.9448
X6.4256Y-3.1681
X6.426Y-3.2094
X6.4276Y-3.2492
X6.4295Y-3.1217
X6.4476Y-3.289
X6.4543Y-2.9445
X6.4583Y-2.9776
X6.4661Y-3.289
X6.4705Y-3.0492
X6.4787Y-2.9087
X6.4815Y-3.5472
X6.5Y-3.5098
X6.5071Y-3.4512
X6.5098Y-3.1984
X6.5114Y-3.1398
X6.522Y-3.4134
X6.5276Y-3.4512
X6.5307Y-3.1984
X6.5331Y-3.5476
X6.535Y-2.9063
X6.5362Y-2.9709
X6.5383Y-3.5912
X6.6925Y-3.2453
X6.6925Y-3.3083
X6.6925Y-3.4311
X6.6929Y-3.3728
X6.6957Y-3.1835
X6.7713Y-3.6319
X6.7724Y-3.6783
X6.7732Y-3.511
X6.7787Y-2.8843
X6.8189Y-3.5165
X6.8189Y-3.5673
X6.8189Y-3.6713
X6.8195Y-3.6205
X6.8437Y-3.0236
X6.8535Y-3.5496
X6.8563Y-3.5091
X6.8618Y-3.6937
X6.8638Y-3.0925
X6.8638Y-3.1563
X6.8752Y-3.1142
X6.8768Y-3.0547
X6.8783Y-3.6626
X6.8906Y-2.926
X6.8917Y-2.9087
X6.9031Y-3.6933
X6.9067Y-3.1713
X6.9083Y-3.6051
X6.9126Y-3.2798
X6.9185Y-3.1153
X6.9205Y-3.2303
X6.9354Y-3.5563
X6.9453Y-3.1622
X6.948Y-3.632
X6.9575Y-2.9449
X6.9634Y-2.8858
X6.9996Y-3.3252
X7.0038Y-3.1358
X7.0059Y-3.1654
X7.0185Y-3.6421
X7.0185Y-3.6638
X7.0429Y-3.6638
X7.0551Y-3.4819
X7.0563Y-3.324
X7.0606Y-2.9071
X7.0622Y-3.5768
X7.0673Y-3.4465
X7.0686Y-3.4671
X7.0707Y-3.5466
X7.0866Y-3.672
X7.0955Y-3.571
X7.0992Y-3.2803
X7.1039Y-2.9091
X7.1063Y-3.148
X7.1138Y-3.5929
X7.126Y-3.6917
X7.1306Y-3.2753
X7.1335Y-3.4701
X7.1406Y-3.4343
X7.1425Y-3.202
X7.1437Y-3.1272
X7.1473Y-2.9091
X7.148Y-2.9287
X7.1531Y-3.5937
X7.1585Y-3.4148
X7.1717Y-3.3835
X7.1756Y-3.0959
X7.1854Y-3.1976
X7.1862Y-3.2407
X7.1929Y-3.5917
X7.1929Y-3.6917
X7.1941Y-2.9827
X7.1949Y-3.3535
X7.1949Y-3.4098
X7.202Y-3.224
X7.2067Y-2.9563
X7.2099Y-3.2588
X7.212Y-3.2783
X7.2134Y-3.1827
X7.2319Y-3.5921
X7.2378Y-3.3535
X7.239Y-3.4079
X7.2433Y-3.2194
X7.2449Y-3.6929
X7.2516Y-3.5929
X7.2559Y-2.8831
X7.2705Y-3.5248
X7.2728Y-3.3547
X7.2839Y-3.0118
X7.2839Y-3.6921
X7.2843Y-3.6387
X7.2878Y-3.2626
X7.2878Y-3.6114
X7.289Y-3.0465
X7.2957Y-2.9531
X7.3031Y-3.5248
X7.3079Y-3.5957
X7.3098Y-3.3531
X7.3126Y-3.0705
X7.3138Y-3.3953
X7.3232Y-2.8823
X7.3299Y-3.6087
X7.3378Y-3.5252
X7.3465Y-2.9524
X7.3469Y-3.0685
X7.3508Y-2.9982
X7.3547Y-3.6484
X7.3567Y-3.0469
X7.3685Y-3.5732
X7.3852Y-3.2764
X7.3878Y-3.1059
X7.389Y-2.8827
X7.3937Y-2.9535
X7.4004Y-3.5534
X7.4039Y-3.1827
X7.4067Y-3.3969
X7.4071Y-3.6925
X7.4079Y-3.474
X7.4083Y-3.4531
X7.4106Y-3.2764
X7.4142Y-2.9531
X7.4374Y-2.9982
X7.4472Y-3.6925
X7.45Y-3.4614
X7.4559Y-2.8819
X7.4587Y-3.6071
X7.4614Y-3.0327
X7.4638Y-3.0563
X7.465Y-3.6693
X7.4667Y-3.6898
X7.4701Y-2.9528
X7.4783Y-3.328
X7.4807Y-2.9982
X7.4815Y-3.0713
X7.4831Y-3.0354
X7.4831Y-3.3492
X7.4835Y-3.502
X7.4837Y-3.2902
X7.5008Y-3.1606
X7.5016Y-3.502
X7.5461Y-3.0461
X7.5476Y-3.0657
X7.552Y-3.4449
X7.5526Y-3.0135
X7.5528Y-3.1673
X7.5551Y-3.1067
X7.5566Y-3.2839
X7.5689Y-3.4654
X7.5705Y-3.5598
X7.5787Y-3.2986
X7.5791Y-3.0344
X7.5795Y-3.0646
X7.5827Y-3.4449
X7.5929Y-2.8866
X7.5944Y-3.2075
X7.5951Y-3.2489
X7.5957Y-3.2986
X7.602Y-3.1524
X7.6091Y-3.6953
X7.6098Y-3.5402
X7.6118Y-3.4087
X7.6126Y-3.4299
X7.6146Y-3.5055
X7.6299Y-3.6953
X7.6374Y-3.5055
X7.665Y-2.8874
X7.665Y-3.6953
X7.6685Y-2.9555
X7.6886Y-3.2276
X7.6894Y-3.2055
X7.6937Y-3.5197
X7.6969Y-3.5929
X7.7051Y-3.1071
X7.7051Y-3.1622
X7.7051Y-3.2724
X7.7051Y-3.3276
X7.713Y-3.2161
X7.7256Y-3.5713
X7.726Y-3.5953
X7.7264Y-3.5169
X7.7268Y-3.5437
X7.7323Y-3.6957
T2
X6.5059Y-3.0138
X6.5075Y-2.9343
T4
X6.7882Y-3.1673
X6.7882Y-3.2657
X6.7882Y-3.3642
T5
X5.6602Y-3.5636
X5.7602Y-3.5636
X5.8602Y-3.5636
X5.9602Y-3.5636
T6
X6.9465Y-3.7598
X6.9469Y-2.813
X7.5252Y-2.8138
X7.5264Y-3.7634
T3
G00X5.5392Y-3.0902
M15
G01X5.5707Y-3.0902
M16
G05
G00X5.5392Y-3.4303
M15
G01X5.5707Y-3.4303
M16
G05
G00X5.6978Y-3.0902
M15
G01X5.7411Y-3.0902
M16
G05
G00X5.6978Y-3.4303
M15
G01X5.7411Y-3.4303
M16
G05
M30
