%TF.GenerationSoftware,KiCad,Pcbnew,8.0.5*%
%TF.CreationDate,2025-02-14T01:05:17+01:00*%
%TF.ProjectId,cansatperso,63616e73-6174-4706-9572-736f2e6b6963,rev?*%
%TF.SameCoordinates,Original*%
%TF.FileFunction,Profile,NP*%
%FSLAX46Y46*%
G04 Gerber Fmt 4.6, Leading zero omitted, Abs format (unit mm)*
G04 Created by KiCad (PCBNEW 8.0.5) date 2025-02-14 01:05:17*
%MOMM*%
%LPD*%
G01*
G04 APERTURE LIST*
%TA.AperFunction,Profile*%
%ADD10C,0.050000*%
%TD*%
G04 APERTURE END LIST*
D10*
X177750001Y-70000107D02*
X177750000Y-72840000D01*
X189900000Y-72840000D01*
X189900000Y-70090000D01*
X192440000Y-70090000D01*
X192440000Y-72840000D01*
X195170000Y-72840000D01*
X195170000Y-78230000D01*
X196310000Y-78230000D01*
X196310000Y-85140000D01*
X195160000Y-85140000D01*
X195160000Y-88820000D01*
X196790955Y-88820000D01*
X196791176Y-94220000D01*
X192450000Y-94218560D01*
X192450000Y-96960000D01*
X189900000Y-96960000D01*
X189900000Y-94217956D01*
X177747920Y-94214113D01*
X177750000Y-96960000D01*
X175180000Y-96980000D01*
X175180000Y-94205157D01*
X171610000Y-94200000D01*
X171600000Y-88180000D01*
X166390000Y-88180498D01*
X166390000Y-92410000D01*
X139990000Y-92410000D01*
X139990000Y-73410000D01*
X166390000Y-73410000D01*
X166390000Y-77410000D01*
X171600000Y-77410000D01*
X171600000Y-72840000D01*
X175181395Y-72840000D01*
X175188008Y-69996225D01*
X177750001Y-70000107D01*
X167640000Y-77940000D02*
G75*
G02*
X167140000Y-77940000I-250000J0D01*
G01*
X167140000Y-77940000D02*
G75*
G02*
X167640000Y-77940000I250000J0D01*
G01*
X167840000Y-87190000D02*
X166940000Y-87190000D01*
X166940000Y-78480000D01*
X167840000Y-78480000D01*
X167840000Y-87190000D01*
X167672843Y-87700000D02*
G75*
G02*
X167107157Y-87700000I-282843J0D01*
G01*
X167107157Y-87700000D02*
G75*
G02*
X167672843Y-87700000I282843J0D01*
G01*
M02*
