%TF.GenerationSoftware,KiCad,Pcbnew,8.0.5*%
%TF.CreationDate,2024-10-22T15:36:18+02:00*%
%TF.ProjectId,cansatperso,63616e73-6174-4706-9572-736f2e6b6963,rev?*%
%TF.SameCoordinates,Original*%
%TF.FileFunction,Paste,Top*%
%TF.FilePolarity,Positive*%
%FSLAX46Y46*%
G04 Gerber Fmt 4.6, Leading zero omitted, Abs format (unit mm)*
G04 Created by KiCad (PCBNEW 8.0.5) date 2024-10-22 15:36:18*
%MOMM*%
%LPD*%
G01*
G04 APERTURE LIST*
G04 Aperture macros list*
%AMRoundRect*
0 Rectangle with rounded corners*
0 $1 Rounding radius*
0 $2 $3 $4 $5 $6 $7 $8 $9 X,Y pos of 4 corners*
0 Add a 4 corners polygon primitive as box body*
4,1,4,$2,$3,$4,$5,$6,$7,$8,$9,$2,$3,0*
0 Add four circle primitives for the rounded corners*
1,1,$1+$1,$2,$3*
1,1,$1+$1,$4,$5*
1,1,$1+$1,$6,$7*
1,1,$1+$1,$8,$9*
0 Add four rect primitives between the rounded corners*
20,1,$1+$1,$2,$3,$4,$5,0*
20,1,$1+$1,$4,$5,$6,$7,0*
20,1,$1+$1,$6,$7,$8,$9,0*
20,1,$1+$1,$8,$9,$2,$3,0*%
G04 Aperture macros list end*
%ADD10RoundRect,0.160000X-0.197500X-0.160000X0.197500X-0.160000X0.197500X0.160000X-0.197500X0.160000X0*%
%ADD11R,0.550000X1.500000*%
%ADD12RoundRect,0.155000X0.155000X-0.212500X0.155000X0.212500X-0.155000X0.212500X-0.155000X-0.212500X0*%
%ADD13R,1.200000X1.400000*%
%ADD14RoundRect,0.155000X-0.212500X-0.155000X0.212500X-0.155000X0.212500X0.155000X-0.212500X0.155000X0*%
%ADD15RoundRect,0.155000X0.212500X0.155000X-0.212500X0.155000X-0.212500X-0.155000X0.212500X-0.155000X0*%
%ADD16RoundRect,0.160000X0.197500X0.160000X-0.197500X0.160000X-0.197500X-0.160000X0.197500X-0.160000X0*%
%ADD17RoundRect,0.237500X0.237500X-0.287500X0.237500X0.287500X-0.237500X0.287500X-0.237500X-0.287500X0*%
%ADD18R,0.650000X1.525000*%
%ADD19RoundRect,0.160000X-0.160000X0.197500X-0.160000X-0.197500X0.160000X-0.197500X0.160000X0.197500X0*%
%ADD20RoundRect,0.160000X0.160000X-0.197500X0.160000X0.197500X-0.160000X0.197500X-0.160000X-0.197500X0*%
%ADD21R,0.600000X1.250000*%
%ADD22R,1.200000X3.790000*%
%ADD23R,1.450000X1.400000*%
%ADD24R,1.000000X0.600000*%
%ADD25R,0.950000X0.850000*%
%ADD26RoundRect,0.150000X0.150000X-0.512500X0.150000X0.512500X-0.150000X0.512500X-0.150000X-0.512500X0*%
%ADD27RoundRect,0.250000X-0.315000X-0.315000X0.315000X-0.315000X0.315000X0.315000X-0.315000X0.315000X0*%
%ADD28RoundRect,0.062500X-0.375000X-0.062500X0.375000X-0.062500X0.375000X0.062500X-0.375000X0.062500X0*%
%ADD29RoundRect,0.062500X-0.062500X-0.375000X0.062500X-0.375000X0.062500X0.375000X-0.062500X0.375000X0*%
%ADD30R,0.575000X0.350000*%
%ADD31R,0.350000X0.575000*%
G04 APERTURE END LIST*
D10*
%TO.C,R8*%
X183732500Y-74100000D03*
X184927500Y-74100000D03*
%TD*%
D11*
%TO.C,SW1*%
X175770000Y-91295000D03*
X179020000Y-91295000D03*
%TD*%
D12*
%TO.C,C32*%
X180720000Y-80007500D03*
X180720000Y-78872500D03*
%TD*%
%TO.C,C7*%
X185020000Y-93557500D03*
X185020000Y-92422500D03*
%TD*%
D13*
%TO.C,Y1*%
X176110000Y-85390000D03*
X176110000Y-87590000D03*
X177810000Y-87590000D03*
X177810000Y-85390000D03*
%TD*%
D14*
%TO.C,C2*%
X177652500Y-89920000D03*
X178787500Y-89920000D03*
%TD*%
D15*
%TO.C,C6*%
X182035000Y-81870000D03*
X180900000Y-81870000D03*
%TD*%
%TO.C,C12*%
X176507500Y-89920000D03*
X175372500Y-89920000D03*
%TD*%
D14*
%TO.C,C10*%
X181862500Y-93140000D03*
X182997500Y-93140000D03*
%TD*%
D16*
%TO.C,R2*%
X186237500Y-81030000D03*
X185042500Y-81030000D03*
%TD*%
D14*
%TO.C,C1*%
X190569500Y-88132000D03*
X191704500Y-88132000D03*
%TD*%
D15*
%TO.C,C16*%
X187467500Y-74010000D03*
X186332500Y-74010000D03*
%TD*%
D17*
%TO.C,D3*%
X189300000Y-90355000D03*
X189300000Y-88605000D03*
%TD*%
D12*
%TO.C,C8*%
X184040000Y-93547500D03*
X184040000Y-92412500D03*
%TD*%
D18*
%TO.C,IC4*%
X175470000Y-81450000D03*
X176740000Y-81450000D03*
X178010000Y-81450000D03*
X179280000Y-81450000D03*
X179280000Y-76026000D03*
X178010000Y-76026000D03*
X176740000Y-76026000D03*
X175470000Y-76026000D03*
%TD*%
D19*
%TO.C,R5*%
X194100000Y-78592500D03*
X194100000Y-79787500D03*
%TD*%
D20*
%TO.C,R24*%
X180690000Y-77697500D03*
X180690000Y-76502500D03*
%TD*%
D16*
%TO.C,R9*%
X192914500Y-82522000D03*
X191719500Y-82522000D03*
%TD*%
D12*
%TO.C,C15*%
X194150000Y-77457500D03*
X194150000Y-76322500D03*
%TD*%
D19*
%TO.C,R25*%
X180670000Y-74212500D03*
X180670000Y-75407500D03*
%TD*%
D15*
%TO.C,C31*%
X177327500Y-74500000D03*
X176192500Y-74500000D03*
%TD*%
D10*
%TO.C,R26*%
X178412500Y-74210000D03*
X179607500Y-74210000D03*
%TD*%
D14*
%TO.C,C11*%
X186022500Y-93260000D03*
X187157500Y-93260000D03*
%TD*%
D21*
%TO.C,J2*%
X191110000Y-76155000D03*
X190010000Y-76155000D03*
X188910000Y-76155000D03*
X187810000Y-76155000D03*
X186710000Y-76155000D03*
X185610000Y-76155000D03*
X184510000Y-76155000D03*
X183410000Y-76155000D03*
D22*
X182260000Y-78635000D03*
D23*
X192735000Y-77880000D03*
D24*
X192960000Y-79130000D03*
D25*
X192035000Y-80105000D03*
%TD*%
D26*
%TO.C,U2*%
X191320000Y-92230000D03*
X192270000Y-92230000D03*
X193220000Y-92230000D03*
X193220000Y-89955000D03*
X192270000Y-89955000D03*
X191320000Y-89955000D03*
%TD*%
D11*
%TO.C,SW2*%
X187200000Y-81795000D03*
X190450000Y-81795000D03*
%TD*%
D19*
%TO.C,R6*%
X193960000Y-80852500D03*
X193960000Y-82047500D03*
%TD*%
D12*
%TO.C,C4*%
X188800000Y-87137500D03*
X188800000Y-86002500D03*
%TD*%
D15*
%TO.C,C17*%
X193907500Y-88120000D03*
X192772500Y-88120000D03*
%TD*%
D14*
%TO.C,C9*%
X181872500Y-92090000D03*
X183007500Y-92090000D03*
%TD*%
D27*
%TO.C,U1*%
X181760000Y-84937500D03*
X181760000Y-86337500D03*
X181760000Y-87737500D03*
X181760000Y-89137500D03*
X183160000Y-84937500D03*
X183160000Y-86337500D03*
X183160000Y-87737500D03*
X183160000Y-89137500D03*
X184560000Y-84937500D03*
X184560000Y-86337500D03*
X184560000Y-87737500D03*
X184560000Y-89137500D03*
X185960000Y-84937500D03*
X185960000Y-86337500D03*
X185960000Y-87737500D03*
X185960000Y-89137500D03*
D28*
X180422500Y-84287500D03*
X180422500Y-84787500D03*
X180422500Y-85287500D03*
X180422500Y-85787500D03*
X180422500Y-86287500D03*
X180422500Y-86787500D03*
X180422500Y-87287500D03*
X180422500Y-87787500D03*
X180422500Y-88287500D03*
X180422500Y-88787500D03*
X180422500Y-89287500D03*
X180422500Y-89787500D03*
D29*
X181110000Y-90475000D03*
X181610000Y-90475000D03*
X182110000Y-90475000D03*
X182610000Y-90475000D03*
X183110000Y-90475000D03*
X183610000Y-90475000D03*
X184110000Y-90475000D03*
X184610000Y-90475000D03*
X185110000Y-90475000D03*
X185610000Y-90475000D03*
X186110000Y-90475000D03*
X186610000Y-90475000D03*
D28*
X187297500Y-89787500D03*
X187297500Y-89287500D03*
X187297500Y-88787500D03*
X187297500Y-88287500D03*
X187297500Y-87787500D03*
X187297500Y-87287500D03*
X187297500Y-86787500D03*
X187297500Y-86287500D03*
X187297500Y-85787500D03*
X187297500Y-85287500D03*
X187297500Y-84787500D03*
X187297500Y-84287500D03*
D29*
X186610000Y-83600000D03*
X186110000Y-83600000D03*
X185610000Y-83600000D03*
X185110000Y-83600000D03*
X184610000Y-83600000D03*
X184110000Y-83600000D03*
X183610000Y-83600000D03*
X183110000Y-83600000D03*
X182610000Y-83600000D03*
X182110000Y-83600000D03*
X181610000Y-83600000D03*
X181110000Y-83600000D03*
%TD*%
D15*
%TO.C,C30*%
X176647500Y-83080000D03*
X175512500Y-83080000D03*
%TD*%
%TO.C,C13*%
X178917500Y-83080000D03*
X177782500Y-83080000D03*
%TD*%
D20*
%TO.C,R20*%
X188270000Y-93055000D03*
X188270000Y-91860000D03*
%TD*%
D15*
%TO.C,C5*%
X187187500Y-92250000D03*
X186052500Y-92250000D03*
%TD*%
%TO.C,C14*%
X192897500Y-81470000D03*
X191762500Y-81470000D03*
%TD*%
D19*
%TO.C,R10*%
X188897000Y-83564500D03*
X188897000Y-84759500D03*
%TD*%
D14*
%TO.C,C3*%
X185072500Y-82000000D03*
X186207500Y-82000000D03*
%TD*%
D30*
%TO.C,IC1*%
X190774000Y-84580000D03*
X190774000Y-85080000D03*
X190774000Y-85580000D03*
X190774000Y-86080000D03*
D31*
X191437000Y-86242000D03*
X191937000Y-86242000D03*
X192437000Y-86242000D03*
D30*
X193100000Y-86080000D03*
X193100000Y-85580000D03*
X193100000Y-85080000D03*
X193100000Y-84580000D03*
D31*
X192437000Y-84418000D03*
X191937000Y-84418000D03*
X191437000Y-84418000D03*
%TD*%
D10*
%TO.C,R7*%
X188582500Y-74030000D03*
X189777500Y-74030000D03*
%TD*%
M02*
