%TF.GenerationSoftware,KiCad,Pcbnew,8.0.5*%
%TF.CreationDate,2025-02-13T07:49:46+01:00*%
%TF.ProjectId,flexpcb,666c6578-7063-4622-9e6b-696361645f70,rev?*%
%TF.SameCoordinates,Original*%
%TF.FileFunction,Paste,Bot*%
%TF.FilePolarity,Positive*%
%FSLAX46Y46*%
G04 Gerber Fmt 4.6, Leading zero omitted, Abs format (unit mm)*
G04 Created by KiCad (PCBNEW 8.0.5) date 2025-02-13 07:49:46*
%MOMM*%
%LPD*%
G01*
G04 APERTURE LIST*
G04 Aperture macros list*
%AMRoundRect*
0 Rectangle with rounded corners*
0 $1 Rounding radius*
0 $2 $3 $4 $5 $6 $7 $8 $9 X,Y pos of 4 corners*
0 Add a 4 corners polygon primitive as box body*
4,1,4,$2,$3,$4,$5,$6,$7,$8,$9,$2,$3,0*
0 Add four circle primitives for the rounded corners*
1,1,$1+$1,$2,$3*
1,1,$1+$1,$4,$5*
1,1,$1+$1,$6,$7*
1,1,$1+$1,$8,$9*
0 Add four rect primitives between the rounded corners*
20,1,$1+$1,$2,$3,$4,$5,0*
20,1,$1+$1,$4,$5,$6,$7,0*
20,1,$1+$1,$6,$7,$8,$9,0*
20,1,$1+$1,$8,$9,$2,$3,0*%
G04 Aperture macros list end*
%ADD10RoundRect,0.135000X-0.185000X0.135000X-0.185000X-0.135000X0.185000X-0.135000X0.185000X0.135000X0*%
%ADD11RoundRect,0.140000X0.170000X-0.140000X0.170000X0.140000X-0.170000X0.140000X-0.170000X-0.140000X0*%
%ADD12RoundRect,0.155000X-0.155000X0.212500X-0.155000X-0.212500X0.155000X-0.212500X0.155000X0.212500X0*%
%ADD13RoundRect,0.135000X-0.135000X-0.185000X0.135000X-0.185000X0.135000X0.185000X-0.135000X0.185000X0*%
%ADD14R,1.200000X0.800000*%
%ADD15RoundRect,0.150000X0.150000X0.625000X-0.150000X0.625000X-0.150000X-0.625000X0.150000X-0.625000X0*%
%ADD16RoundRect,0.250000X0.350000X0.650000X-0.350000X0.650000X-0.350000X-0.650000X0.350000X-0.650000X0*%
%ADD17RoundRect,0.250000X0.337500X0.475000X-0.337500X0.475000X-0.337500X-0.475000X0.337500X-0.475000X0*%
%ADD18RoundRect,0.135000X0.185000X-0.135000X0.185000X0.135000X-0.185000X0.135000X-0.185000X-0.135000X0*%
%ADD19RoundRect,0.140000X-0.140000X-0.170000X0.140000X-0.170000X0.140000X0.170000X-0.140000X0.170000X0*%
%ADD20RoundRect,0.150000X-0.625000X0.150000X-0.625000X-0.150000X0.625000X-0.150000X0.625000X0.150000X0*%
%ADD21RoundRect,0.250000X-0.650000X0.350000X-0.650000X-0.350000X0.650000X-0.350000X0.650000X0.350000X0*%
%ADD22RoundRect,0.218750X-0.218750X-0.256250X0.218750X-0.256250X0.218750X0.256250X-0.218750X0.256250X0*%
%ADD23R,1.500000X2.000000*%
%ADD24R,0.900000X0.900000*%
%ADD25RoundRect,0.218750X0.218750X0.256250X-0.218750X0.256250X-0.218750X-0.256250X0.218750X-0.256250X0*%
%ADD26RoundRect,0.140000X0.140000X0.170000X-0.140000X0.170000X-0.140000X-0.170000X0.140000X-0.170000X0*%
%ADD27RoundRect,0.135000X0.135000X0.185000X-0.135000X0.185000X-0.135000X-0.185000X0.135000X-0.185000X0*%
%ADD28R,1.000000X2.000000*%
%ADD29R,2.000000X1.000000*%
%ADD30RoundRect,0.140000X-0.170000X0.140000X-0.170000X-0.140000X0.170000X-0.140000X0.170000X0.140000X0*%
G04 APERTURE END LIST*
D10*
%TO.C,R8*%
X156578200Y-104518200D03*
X156578200Y-105538200D03*
%TD*%
D11*
%TO.C,C4*%
X146458200Y-98088200D03*
X146458200Y-97128200D03*
%TD*%
D12*
%TO.C,C5*%
X144218200Y-102530700D03*
X144218200Y-103665700D03*
%TD*%
D13*
%TO.C,R5*%
X87240000Y-86250000D03*
X88260000Y-86250000D03*
%TD*%
D14*
%TO.C,PA1010D1*%
X155268200Y-99978200D03*
X155268200Y-101578200D03*
X155268200Y-104478200D03*
X155268200Y-106078200D03*
X155268200Y-107678200D03*
X145568200Y-107678200D03*
X145568200Y-106078200D03*
X145568200Y-104478200D03*
X145568200Y-101578200D03*
X145568200Y-99978200D03*
%TD*%
D15*
%TO.C,U2*%
X119910000Y-83730000D03*
X118910000Y-83730000D03*
D16*
X121210000Y-81205000D03*
X117610000Y-81205000D03*
%TD*%
D17*
%TO.C,C1*%
X83347500Y-66480000D03*
X81272500Y-66480000D03*
%TD*%
D18*
%TO.C,R2*%
X106880000Y-74110000D03*
X106880000Y-73090000D03*
%TD*%
D19*
%TO.C,C7*%
X76140000Y-116440000D03*
X77100000Y-116440000D03*
%TD*%
D20*
%TO.C,U1*%
X101270000Y-110870000D03*
X101270000Y-111870000D03*
X101270000Y-112870000D03*
X101270000Y-113870000D03*
X101270000Y-114870000D03*
X101270000Y-115870000D03*
D21*
X98745000Y-109570000D03*
X98745000Y-117170000D03*
%TD*%
D10*
%TO.C,R7*%
X157598200Y-104528200D03*
X157598200Y-105548200D03*
%TD*%
D22*
%TO.C,D2*%
X86795000Y-87840000D03*
X88370000Y-87840000D03*
%TD*%
D23*
%TO.C,SW2*%
X88060000Y-120770000D03*
X88060000Y-106470000D03*
X83060000Y-120770000D03*
X83060000Y-106470000D03*
%TD*%
D24*
%TO.C,LED1*%
X93810000Y-114300000D03*
X95510000Y-114300000D03*
X95510000Y-112600000D03*
X93810000Y-112600000D03*
%TD*%
D25*
%TO.C,D1*%
X85057500Y-87900000D03*
X83482500Y-87900000D03*
%TD*%
D11*
%TO.C,C3*%
X145488200Y-98078200D03*
X145488200Y-97118200D03*
%TD*%
D18*
%TO.C,R1*%
X105880000Y-73310000D03*
X105880000Y-72290000D03*
%TD*%
D24*
%TO.C,LED2*%
X75800000Y-112720000D03*
X75800000Y-114420000D03*
X77500000Y-114420000D03*
X77500000Y-112720000D03*
%TD*%
D26*
%TO.C,C2*%
X99110000Y-86340000D03*
X98150000Y-86340000D03*
%TD*%
D27*
%TO.C,R6*%
X103470000Y-86400000D03*
X102450000Y-86400000D03*
%TD*%
D28*
%TO.C,Tarvos1*%
X79320000Y-68530000D03*
X81310000Y-68510000D03*
X83300000Y-68510000D03*
X85300000Y-68500000D03*
X87290000Y-68500000D03*
X89280000Y-68510000D03*
X93270000Y-68520000D03*
X95270000Y-68520000D03*
X97260000Y-68520000D03*
X99230000Y-68510000D03*
X101250000Y-68530000D03*
X103230000Y-68530000D03*
X103230000Y-84440000D03*
X101240000Y-84460000D03*
X99250000Y-84470000D03*
X97250000Y-84460000D03*
X95260000Y-84450000D03*
X93280000Y-84460000D03*
X89280000Y-84460000D03*
X87290000Y-84450000D03*
X85290000Y-84450000D03*
X83300000Y-84430000D03*
X81300000Y-84440000D03*
D29*
X104200000Y-73490000D03*
X104200000Y-75520000D03*
X104200000Y-77500000D03*
X104220000Y-79460000D03*
%TD*%
D27*
%TO.C,R4*%
X85180000Y-86330000D03*
X84160000Y-86330000D03*
%TD*%
D18*
%TO.C,R3*%
X105310000Y-69180000D03*
X105310000Y-68160000D03*
%TD*%
D30*
%TO.C,C6*%
X95510000Y-116320000D03*
X95510000Y-117280000D03*
%TD*%
M02*
