M48
; DRILL file {KiCad 8.0.5} date 2025-02-13T07:49:34+0100
; FORMAT={-:-/ absolute / inch / decimal}
; #@! TF.CreationDate,2025-02-13T07:49:34+01:00
; #@! TF.GenerationSoftware,Kicad,Pcbnew,8.0.5
; #@! TF.FileFunction,Plated,1,2,PTH
FMAT,2
INCH
; #@! TA.AperFunction,Plated,PTH,ViaDrill
T1C0.0118
; #@! TA.AperFunction,Plated,PTH,ComponentDrill
T2C0.0197
; #@! TA.AperFunction,Plated,PTH,ComponentDrill
T3C0.0472
%
G90
G05
T1
X2.9461Y-4.5531
X2.963Y-4.3661
X3.0937Y-2.7898
X3.1425Y-2.7898
X3.1476Y-4.1976
X3.161Y-4.7579
X3.1724Y-4.6114
X3.1898Y-2.7886
X3.2138Y-4.3303
X3.2366Y-2.789
X3.2701Y-4.1917
X3.2701Y-4.7547
X3.2783Y-2.7878
X3.3213Y-2.7878
X3.3472Y-4.6465
X3.3697Y-3.2591
X3.3705Y-3.2173
X3.3709Y-3.1764
X3.3717Y-2.8232
X3.3717Y-2.8858
X3.3728Y-2.8555
X3.3728Y-3.1327
X3.3736Y-3.0445
X3.3744Y-3.089
X3.3748Y-2.9283
X3.376Y-3.0075
X3.3764Y-4.1839
X3.3765Y-2.9658
X3.4071Y-2.7929
X3.4472Y-3.0744
X3.4663Y-4.5585
X3.4669Y-4.1917
X3.4669Y-4.7524
X3.5339Y-4.3642
X3.5528Y-4.6067
X3.5744Y-4.1882
X3.5858Y-4.7484
X3.6575Y-3.2358
X3.6729Y-3.1405
X3.6842Y-2.9081
X3.6949Y-4.5591
X3.7236Y-4.5591
X3.7839Y-4.2882
X3.7913Y-3.4047
X3.8083Y-4.6067
X3.8476Y-3.1658
X3.8603Y-2.8968
X3.8876Y-4.3138
X3.8876Y-4.613
X3.9008Y-4.4992
X3.9094Y-4.3913
X3.9114Y-4.539
X3.9681Y-3.4087
X3.987Y-4.5224
X3.9898Y-2.8394
X3.9898Y-3.2303
X4.1197Y-3.4094
X4.1451Y-4.385
X4.165Y-4.552
X4.1677Y-3.1421
X4.1685Y-2.9224
X4.1697Y-3.1055
X4.1819Y-4.3752
X4.2094Y-2.9425
X4.226Y-3.1
X4.2276Y-3.1469
X4.2382Y-2.9449
X4.2394Y-3.0283
X4.2707Y-3.0908
X4.2728Y-2.9451
X4.6004Y-3.2681
X4.6016Y-3.3787
X4.6303Y-3.197
X4.6504Y-3.3748
X4.6815Y-3.2988
X4.6819Y-3.3563
X4.7209Y-3.298
X4.7217Y-3.3555
X4.761Y-3.3776
X4.772Y-3.197
X4.7988Y-3.2626
X4.8091Y-3.376
X5.3907Y-4.46
X5.3949Y-4.4813
X5.3985Y-4.4386
X5.4024Y-4.4165
X5.4177Y-4.5091
X5.4358Y-4.4945
X5.4528Y-4.4319
X5.4626Y-4.4063
X5.4756Y-4.4661
X5.5154Y-4.5295
X5.6748Y-4.2685
X5.6764Y-3.9496
X5.6776Y-4.1331
X5.6783Y-3.8421
X5.8185Y-3.8311
X5.8476Y-3.8287
X5.928Y-3.8626
X5.9591Y-3.826
X6.0535Y-3.9114
X6.0598Y-3.9972
X6.1626Y-4.0705
X6.1626Y-4.1992
X6.1685Y-4.0295
X6.1689Y-3.9508
X6.2031Y-3.8535
X6.2035Y-4.0713
X6.2091Y-4.2618
X7.522Y-2.974
X7.526Y-2.9205
X7.5299Y-3.1157
X7.5406Y-2.9937
X7.5476Y-2.9429
X7.5906Y-2.9787
X7.6134Y-2.9787
X7.6539Y-2.9433
X7.6657Y-3.0512
X7.689Y-2.9193
X7.6921Y-3.1205
T2
X4.1697Y-3.3075
X4.2091Y-3.3075
T3
X3.0594Y-4.3031
X3.061Y-4.6638
X3.1295Y-3.4413
X3.678Y-4.6539
X3.6787Y-4.2925
X4.1047Y-4.313
X4.1091Y-4.613
X4.1866Y-2.5992
X4.4965Y-3.263
X4.9004Y-3.265
X5.9201Y-4.348
X6.1768Y-3.7547
M30
