%TF.GenerationSoftware,KiCad,Pcbnew,8.0.5*%
%TF.CreationDate,2025-02-13T07:49:46+01:00*%
%TF.ProjectId,flexpcb,666c6578-7063-4622-9e6b-696361645f70,rev?*%
%TF.SameCoordinates,Original*%
%TF.FileFunction,Legend,Bot*%
%TF.FilePolarity,Positive*%
%FSLAX46Y46*%
G04 Gerber Fmt 4.6, Leading zero omitted, Abs format (unit mm)*
G04 Created by KiCad (PCBNEW 8.0.5) date 2025-02-13 07:49:46*
%MOMM*%
%LPD*%
G01*
G04 APERTURE LIST*
%ADD10C,0.120000*%
%ADD11C,0.100000*%
%ADD12C,0.150000*%
G04 APERTURE END LIST*
D10*
%TO.C,R8*%
X156198200Y-105181841D02*
X156198200Y-104874559D01*
X156958200Y-105181841D02*
X156958200Y-104874559D01*
%TO.C,C4*%
X146098200Y-97500364D02*
X146098200Y-97716036D01*
X146818200Y-97500364D02*
X146818200Y-97716036D01*
%TO.C,C5*%
X143858200Y-103214035D02*
X143858200Y-102982365D01*
X144578200Y-103214035D02*
X144578200Y-102982365D01*
%TO.C,R5*%
X87903641Y-85870000D02*
X87596359Y-85870000D01*
X87903641Y-86630000D02*
X87596359Y-86630000D01*
%TO.C,PA1010D1*%
D11*
X154418200Y-108828200D02*
X146418200Y-108828200D01*
X146418200Y-98828200D01*
X154418200Y-98828200D01*
X154418200Y-108828200D01*
D12*
X151418200Y-103328200D02*
G75*
G02*
X149418200Y-103328200I-1000000J0D01*
G01*
X149418200Y-103328200D02*
G75*
G02*
X151418200Y-103328200I1000000J0D01*
G01*
D10*
%TO.C,U2*%
X117300000Y-83515000D02*
X117300000Y-82365000D01*
X118350000Y-83515000D02*
X117300000Y-83515000D01*
X118470000Y-80395000D02*
X120350000Y-80395000D01*
X120470000Y-83515000D02*
X121520000Y-83515000D01*
X120470000Y-84505000D02*
X120470000Y-83515000D01*
X121520000Y-83515000D02*
X121520000Y-82365000D01*
%TO.C,C1*%
X82048748Y-65745000D02*
X82571252Y-65745000D01*
X82048748Y-67215000D02*
X82571252Y-67215000D01*
%TO.C,R2*%
X106500000Y-73446359D02*
X106500000Y-73753641D01*
X107260000Y-73446359D02*
X107260000Y-73753641D01*
%TO.C,C7*%
X76727836Y-116080000D02*
X76512164Y-116080000D01*
X76727836Y-116800000D02*
X76512164Y-116800000D01*
%TO.C,U1*%
X97935000Y-116310000D02*
X97935000Y-110430000D01*
X101055000Y-109260000D02*
X99905000Y-109260000D01*
X101055000Y-110310000D02*
X101055000Y-109260000D01*
X101055000Y-116430000D02*
X101055000Y-117480000D01*
X101055000Y-117480000D02*
X99905000Y-117480000D01*
X102045000Y-110310000D02*
X101055000Y-110310000D01*
%TO.C,R7*%
X157218200Y-105191841D02*
X157218200Y-104884559D01*
X157978200Y-105191841D02*
X157978200Y-104884559D01*
%TO.C,D2*%
X86097500Y-87105000D02*
X86097500Y-88575000D01*
X86097500Y-88575000D02*
X88382500Y-88575000D01*
X88382500Y-87105000D02*
X86097500Y-87105000D01*
%TO.C,SW2*%
X79410000Y-109020000D02*
X79410000Y-118220000D01*
X79410000Y-118220000D02*
X80960000Y-119820000D01*
X80960000Y-107420000D02*
X79410000Y-109020000D01*
X80960000Y-107420000D02*
X82110000Y-107420000D01*
X80960000Y-119820000D02*
X82110000Y-119820000D01*
X84010000Y-107420000D02*
X87110000Y-107420000D01*
X84010000Y-119820000D02*
X87110000Y-119820000D01*
X90160000Y-107420000D02*
X89010000Y-107420000D01*
X90160000Y-107420000D02*
X91710000Y-109020000D01*
X90160000Y-119820000D02*
X89010000Y-119820000D01*
X91710000Y-109020000D02*
X91710000Y-118220000D01*
X91710000Y-118220000D02*
X90160000Y-119820000D01*
D11*
%TO.C,LED1*%
X93810000Y-115250000D02*
X93810000Y-115250000D01*
X93810000Y-115350000D02*
X93810000Y-115350000D01*
X93810000Y-115250000D02*
G75*
G02*
X93810000Y-115350000I0J-50000D01*
G01*
X93810000Y-115350000D02*
G75*
G02*
X93810000Y-115250000I0J50000D01*
G01*
D10*
%TO.C,D1*%
X83470000Y-88635000D02*
X85755000Y-88635000D01*
X85755000Y-87165000D02*
X83470000Y-87165000D01*
X85755000Y-88635000D02*
X85755000Y-87165000D01*
%TO.C,C3*%
X145128200Y-97490364D02*
X145128200Y-97706036D01*
X145848200Y-97490364D02*
X145848200Y-97706036D01*
%TO.C,R1*%
X105500000Y-72646359D02*
X105500000Y-72953641D01*
X106260000Y-72646359D02*
X106260000Y-72953641D01*
D11*
%TO.C,LED2*%
X74750000Y-112720000D02*
X74750000Y-112720000D01*
X74850000Y-112720000D02*
X74850000Y-112720000D01*
X74750000Y-112720000D02*
G75*
G02*
X74850000Y-112720000I50000J0D01*
G01*
X74850000Y-112720000D02*
G75*
G02*
X74750000Y-112720000I-50000J0D01*
G01*
D10*
%TO.C,C2*%
X98522164Y-85980000D02*
X98737836Y-85980000D01*
X98522164Y-86700000D02*
X98737836Y-86700000D01*
%TO.C,R6*%
X102806359Y-86020000D02*
X103113641Y-86020000D01*
X102806359Y-86780000D02*
X103113641Y-86780000D01*
%TO.C,Tarvos1*%
D11*
X77830000Y-84970000D02*
X104720000Y-84970000D01*
X104720000Y-68010000D01*
X77830000Y-68010000D01*
X77830000Y-84970000D01*
D10*
%TO.C,R4*%
X84516359Y-85950000D02*
X84823641Y-85950000D01*
X84516359Y-86710000D02*
X84823641Y-86710000D01*
%TO.C,R3*%
X104930000Y-68516359D02*
X104930000Y-68823641D01*
X105690000Y-68516359D02*
X105690000Y-68823641D01*
%TO.C,C6*%
X95150000Y-116907836D02*
X95150000Y-116692164D01*
X95870000Y-116907836D02*
X95870000Y-116692164D01*
%TD*%
M02*
