%TF.GenerationSoftware,KiCad,Pcbnew,8.0.0*%
%TF.CreationDate,2024-03-15T11:34:24+01:00*%
%TF.ProjectId,projet s6,70726f6a-6574-4207-9336-2e6b69636164,rev?*%
%TF.SameCoordinates,Original*%
%TF.FileFunction,Soldermask,Top*%
%TF.FilePolarity,Negative*%
%FSLAX46Y46*%
G04 Gerber Fmt 4.6, Leading zero omitted, Abs format (unit mm)*
G04 Created by KiCad (PCBNEW 8.0.0) date 2024-03-15 11:34:24*
%MOMM*%
%LPD*%
G01*
G04 APERTURE LIST*
G04 Aperture macros list*
%AMRoundRect*
0 Rectangle with rounded corners*
0 $1 Rounding radius*
0 $2 $3 $4 $5 $6 $7 $8 $9 X,Y pos of 4 corners*
0 Add a 4 corners polygon primitive as box body*
4,1,4,$2,$3,$4,$5,$6,$7,$8,$9,$2,$3,0*
0 Add four circle primitives for the rounded corners*
1,1,$1+$1,$2,$3*
1,1,$1+$1,$4,$5*
1,1,$1+$1,$6,$7*
1,1,$1+$1,$8,$9*
0 Add four rect primitives between the rounded corners*
20,1,$1+$1,$2,$3,$4,$5,0*
20,1,$1+$1,$4,$5,$6,$7,0*
20,1,$1+$1,$6,$7,$8,$9,0*
20,1,$1+$1,$8,$9,$2,$3,0*%
%AMRotRect*
0 Rectangle, with rotation*
0 The origin of the aperture is its center*
0 $1 length*
0 $2 width*
0 $3 Rotation angle, in degrees counterclockwise*
0 Add horizontal line*
21,1,$1,$2,0,0,$3*%
%AMOutline4P*
0 Free polygon, 4 corners , with rotation*
0 The origin of the aperture is its center*
0 number of corners: always 4*
0 $1 to $8 corner X, Y*
0 $9 Rotation angle, in degrees counterclockwise*
0 create outline with 4 corners*
4,1,4,$1,$2,$3,$4,$5,$6,$7,$8,$1,$2,$9*%
%AMOutline5P*
0 Free polygon, 5 corners , with rotation*
0 The origin of the aperture is its center*
0 number of corners: always 5*
0 $1 to $10 corner X, Y*
0 $11 Rotation angle, in degrees counterclockwise*
0 create outline with 5 corners*
4,1,5,$1,$2,$3,$4,$5,$6,$7,$8,$9,$10,$1,$2,$11*%
%AMOutline6P*
0 Free polygon, 6 corners , with rotation*
0 The origin of the aperture is its center*
0 number of corners: always 6*
0 $1 to $12 corner X, Y*
0 $13 Rotation angle, in degrees counterclockwise*
0 create outline with 6 corners*
4,1,6,$1,$2,$3,$4,$5,$6,$7,$8,$9,$10,$11,$12,$1,$2,$13*%
%AMOutline7P*
0 Free polygon, 7 corners , with rotation*
0 The origin of the aperture is its center*
0 number of corners: always 7*
0 $1 to $14 corner X, Y*
0 $15 Rotation angle, in degrees counterclockwise*
0 create outline with 7 corners*
4,1,7,$1,$2,$3,$4,$5,$6,$7,$8,$9,$10,$11,$12,$13,$14,$1,$2,$15*%
%AMOutline8P*
0 Free polygon, 8 corners , with rotation*
0 The origin of the aperture is its center*
0 number of corners: always 8*
0 $1 to $16 corner X, Y*
0 $17 Rotation angle, in degrees counterclockwise*
0 create outline with 8 corners*
4,1,8,$1,$2,$3,$4,$5,$6,$7,$8,$9,$10,$11,$12,$13,$14,$15,$16,$1,$2,$17*%
G04 Aperture macros list end*
%ADD10Outline5P,-0.207500X0.150000X0.057500X0.150000X0.207500X0.000000X0.207500X-0.150000X-0.207500X-0.150000X180.000000*%
%ADD11Outline5P,-0.207500X0.150000X0.207500X0.150000X0.207500X0.000000X0.057500X-0.150000X-0.207500X-0.150000X180.000000*%
%ADD12RotRect,0.500000X0.500000X225.000000*%
%ADD13Outline5P,-0.207500X0.150000X0.207500X0.150000X0.207500X-0.150000X-0.057500X-0.150000X-0.207500X0.000000X180.000000*%
%ADD14Outline5P,-0.207500X0.000000X-0.057500X0.150000X0.207500X0.150000X0.207500X-0.150000X-0.207500X-0.150000X180.000000*%
%ADD15RoundRect,0.155000X-0.155000X0.212500X-0.155000X-0.212500X0.155000X-0.212500X0.155000X0.212500X0*%
%ADD16R,1.700000X1.700000*%
%ADD17O,1.700000X1.700000*%
%ADD18RoundRect,0.160000X0.197500X0.160000X-0.197500X0.160000X-0.197500X-0.160000X0.197500X-0.160000X0*%
%ADD19RoundRect,0.160000X0.160000X-0.197500X0.160000X0.197500X-0.160000X0.197500X-0.160000X-0.197500X0*%
%ADD20RoundRect,0.062500X-0.375000X-0.062500X0.375000X-0.062500X0.375000X0.062500X-0.375000X0.062500X0*%
%ADD21RoundRect,0.062500X-0.062500X-0.375000X0.062500X-0.375000X0.062500X0.375000X-0.062500X0.375000X0*%
%ADD22R,3.450000X3.450000*%
%ADD23C,1.000000*%
%ADD24RoundRect,0.155000X0.212500X0.155000X-0.212500X0.155000X-0.212500X-0.155000X0.212500X-0.155000X0*%
%ADD25RoundRect,0.150000X0.150000X-0.512500X0.150000X0.512500X-0.150000X0.512500X-0.150000X-0.512500X0*%
%ADD26R,0.325000X0.250000*%
%ADD27R,0.250000X0.325000*%
%ADD28RoundRect,0.100000X0.100000X-0.217500X0.100000X0.217500X-0.100000X0.217500X-0.100000X-0.217500X0*%
%ADD29RoundRect,0.155000X-0.212500X-0.155000X0.212500X-0.155000X0.212500X0.155000X-0.212500X0.155000X0*%
%ADD30RoundRect,0.160000X-0.197500X-0.160000X0.197500X-0.160000X0.197500X0.160000X-0.197500X0.160000X0*%
%ADD31RoundRect,0.155000X0.155000X-0.212500X0.155000X0.212500X-0.155000X0.212500X-0.155000X-0.212500X0*%
%ADD32R,0.250000X0.799999*%
%ADD33R,1.420000X0.610000*%
%ADD34RoundRect,0.160000X-0.160000X0.197500X-0.160000X-0.197500X0.160000X-0.197500X0.160000X0.197500X0*%
%ADD35Outline5P,-0.650000X0.750000X0.650000X0.750000X0.650000X-0.750000X0.000000X-0.750000X-0.650000X-0.100000X90.000000*%
%ADD36R,1.100000X3.600000*%
%ADD37RoundRect,0.237500X-0.237500X0.300000X-0.237500X-0.300000X0.237500X-0.300000X0.237500X0.300000X0*%
%ADD38R,0.500000X0.350000*%
%ADD39R,0.340000X0.330000*%
%ADD40Outline4P,-0.450000X-0.220000X0.450000X-0.220000X0.450000X0.220000X-0.450000X0.220000X90.000000*%
%ADD41R,1.500000X0.550000*%
%ADD42R,1.650000X1.050000*%
%ADD43C,1.600000*%
%ADD44C,0.650000*%
G04 APERTURE END LIST*
D10*
%TO.C,U3*%
X194222500Y-79860000D03*
D11*
X194222500Y-80570000D03*
D12*
X193830000Y-80215000D03*
D13*
X193437500Y-80570000D03*
D14*
X193437500Y-79860000D03*
%TD*%
D15*
%TO.C,C14*%
X193240000Y-81332500D03*
X193240000Y-82467500D03*
%TD*%
D16*
%TO.C,J2*%
X196450000Y-66600000D03*
D17*
X198990000Y-66600000D03*
X201530000Y-66600000D03*
X204070000Y-66600000D03*
%TD*%
D18*
%TO.C,R9*%
X197377500Y-80040000D03*
X196182500Y-80040000D03*
%TD*%
D19*
%TO.C,R1*%
X177220000Y-78607500D03*
X177220000Y-77412500D03*
%TD*%
D20*
%TO.C,U1*%
X195512500Y-72180000D03*
X195512500Y-72680000D03*
X195512500Y-73180000D03*
X195512500Y-73680000D03*
X195512500Y-74180000D03*
X195512500Y-74680000D03*
X195512500Y-75180000D03*
X195512500Y-75680000D03*
D21*
X196200000Y-76367500D03*
X196700000Y-76367500D03*
X197200000Y-76367500D03*
X197700000Y-76367500D03*
X198200000Y-76367500D03*
X198700000Y-76367500D03*
X199200000Y-76367500D03*
X199700000Y-76367500D03*
D20*
X200387500Y-75680000D03*
X200387500Y-75180000D03*
X200387500Y-74680000D03*
X200387500Y-74180000D03*
X200387500Y-73680000D03*
X200387500Y-73180000D03*
X200387500Y-72680000D03*
X200387500Y-72180000D03*
D21*
X199700000Y-71492500D03*
X199200000Y-71492500D03*
X198700000Y-71492500D03*
X198200000Y-71492500D03*
X197700000Y-71492500D03*
X197200000Y-71492500D03*
X196700000Y-71492500D03*
X196200000Y-71492500D03*
D22*
X197950000Y-73930000D03*
%TD*%
D23*
%TO.C,TP5*%
X174910000Y-82900000D03*
%TD*%
%TO.C,TP9*%
X206550000Y-74140000D03*
%TD*%
D24*
%TO.C,C3*%
X202737500Y-75660000D03*
X201602500Y-75660000D03*
%TD*%
D18*
%TO.C,R4*%
X178127500Y-73490000D03*
X176932500Y-73490000D03*
%TD*%
%TO.C,R7*%
X194267500Y-76970000D03*
X193072500Y-76970000D03*
%TD*%
D15*
%TO.C,C15*%
X195120000Y-80062500D03*
X195120000Y-81197500D03*
%TD*%
D25*
%TO.C,U4*%
X180800000Y-75707500D03*
X181750000Y-75707500D03*
X182700000Y-75707500D03*
X182700000Y-73432500D03*
X181750000Y-73432500D03*
X180800000Y-73432500D03*
%TD*%
D23*
%TO.C,TP11*%
X206570000Y-72030000D03*
%TD*%
D26*
%TO.C,IC1*%
X199257000Y-80630000D03*
X199257000Y-81130000D03*
X199257000Y-81630000D03*
X199257000Y-82130000D03*
D27*
X199770000Y-82643000D03*
X200270000Y-82643000D03*
X200770000Y-82643000D03*
X201270000Y-82643000D03*
D26*
X201783000Y-82130000D03*
X201783000Y-81630000D03*
X201783000Y-81130000D03*
X201783000Y-80630000D03*
D27*
X201270000Y-80117000D03*
X200770000Y-80117000D03*
X200270000Y-80117000D03*
X199770000Y-80117000D03*
%TD*%
D23*
%TO.C,TP7*%
X206570000Y-76240000D03*
%TD*%
D18*
%TO.C,R8*%
X201727500Y-78370000D03*
X200532500Y-78370000D03*
%TD*%
D28*
%TO.C,D1*%
X175020000Y-72727500D03*
X175020000Y-71912500D03*
%TD*%
D29*
%TO.C,C1*%
X174802500Y-77560000D03*
X175937500Y-77560000D03*
%TD*%
D30*
%TO.C,R6*%
X193062500Y-76030000D03*
X194257500Y-76030000D03*
%TD*%
D23*
%TO.C,TP8*%
X194790000Y-82820000D03*
%TD*%
D29*
%TO.C,C16*%
X192212500Y-68780000D03*
X193347500Y-68780000D03*
%TD*%
%TO.C,C9*%
X182732500Y-71290000D03*
X183867500Y-71290000D03*
%TD*%
D31*
%TO.C,C10*%
X180670000Y-71757500D03*
X180670000Y-70622500D03*
%TD*%
D24*
%TO.C,C12*%
X197417500Y-81930000D03*
X196282500Y-81930000D03*
%TD*%
D18*
%TO.C,R5*%
X178137500Y-76440000D03*
X176942500Y-76440000D03*
%TD*%
D32*
%TO.C,U2*%
X175620000Y-74179998D03*
X175120001Y-74179998D03*
X174620002Y-74179998D03*
X174620002Y-76080000D03*
X175120001Y-76080000D03*
X175620000Y-76080000D03*
D33*
X175120001Y-75129999D03*
%TD*%
D19*
%TO.C,R13*%
X186740000Y-68387500D03*
X186740000Y-67192500D03*
%TD*%
D34*
%TO.C,R10*%
X185750000Y-67185000D03*
X185750000Y-68380000D03*
%TD*%
D18*
%TO.C,R2*%
X175987500Y-78500000D03*
X174792500Y-78500000D03*
%TD*%
D23*
%TO.C,TP1*%
X177040000Y-82950000D03*
%TD*%
D19*
%TO.C,R3*%
X175890000Y-72927500D03*
X175890000Y-71732500D03*
%TD*%
D35*
%TO.C,BT1*%
X174705000Y-66039012D03*
D36*
X178495000Y-67189012D03*
%TD*%
D30*
%TO.C,R11*%
X189952500Y-69280000D03*
X191147500Y-69280000D03*
%TD*%
D23*
%TO.C,TP10*%
X206610000Y-69910000D03*
%TD*%
D37*
%TO.C,C13*%
X205100000Y-80897500D03*
X205100000Y-82622500D03*
%TD*%
D24*
%TO.C,C4*%
X202737500Y-76610000D03*
X201602500Y-76610000D03*
%TD*%
D34*
%TO.C,R14*%
X186160000Y-76792500D03*
X186160000Y-77987500D03*
%TD*%
D18*
%TO.C,R12*%
X191137500Y-68280000D03*
X189942500Y-68280000D03*
%TD*%
D29*
%TO.C,C2*%
X193122500Y-74170000D03*
X194257500Y-74170000D03*
%TD*%
%TO.C,C17*%
X187102500Y-70040000D03*
X188237500Y-70040000D03*
%TD*%
D24*
%TO.C,C6*%
X196137500Y-70290000D03*
X195002500Y-70290000D03*
%TD*%
D38*
%TO.C,Q1*%
X185180000Y-76925000D03*
X185180000Y-77575000D03*
D39*
X184100000Y-77250000D03*
D40*
X184490000Y-77250000D03*
%TD*%
D29*
%TO.C,C5*%
X192462500Y-75100000D03*
X193597500Y-75100000D03*
%TD*%
%TO.C,C7*%
X190952500Y-73460000D03*
X192087500Y-73460000D03*
%TD*%
D41*
%TO.C,SW5*%
X193420000Y-69835000D03*
X193420000Y-73085000D03*
%TD*%
D29*
%TO.C,C8*%
X182742500Y-70360000D03*
X183877500Y-70360000D03*
%TD*%
D15*
%TO.C,C11*%
X203770000Y-81962500D03*
X203770000Y-83097500D03*
%TD*%
D42*
%TO.C,SW1*%
X187335000Y-65935000D03*
X191185000Y-65935000D03*
%TD*%
D43*
%TO.C,PA1010D1*%
X186490000Y-73850000D03*
%TD*%
D23*
%TO.C,SW6*%
X188615000Y-82417500D03*
X185615000Y-82417500D03*
%TD*%
D42*
%TO.C,SW2*%
X180450000Y-65940000D03*
X184300000Y-65940000D03*
%TD*%
D44*
%TO.C,J1*%
X178345000Y-78045000D03*
X178345000Y-72265000D03*
%TD*%
M02*
