M48
; DRILL file {KiCad 8.0.0} date 2024-03-15T11:34:27+0100
; FORMAT={-:-/ absolute / inch / decimal}
; #@! TF.CreationDate,2024-03-15T11:34:27+01:00
; #@! TF.GenerationSoftware,Kicad,Pcbnew,8.0.0
; #@! TF.FileFunction,Plated,1,2,PTH
FMAT,2
INCH
; #@! TA.AperFunction,Plated,PTH,ViaDrill
T1C0.0079
; #@! TA.AperFunction,Plated,PTH,ComponentDrill
T2C0.0197
; #@! TA.AperFunction,Plated,PTH,ComponentDrill
T3C0.0256
; #@! TA.AperFunction,Plated,PTH,ComponentDrill
T4C0.0394
%
G90
G05
T1
X6.8469Y-3.2917
X6.8492Y-2.6409
X6.8492Y-2.7
X6.8492Y-2.8181
X6.8492Y-2.8772
X6.8559Y-2.7228
X6.8559Y-2.7543
X6.8559Y-2.7858
X6.8728Y-2.8878
X6.8744Y-3.1252
X6.8744Y-3.1567
X6.8744Y-3.1882
X6.8752Y-3.0307
X6.8768Y-2.9579
X6.8835Y-2.7228
X6.8835Y-2.7543
X6.8835Y-2.7858
X6.8898Y-2.6575
X6.8945Y-3.0256
X6.902Y-3.1252
X6.902Y-3.1567
X6.902Y-3.1882
X6.9059Y-3.2917
X6.911Y-2.7228
X6.911Y-2.7543
X6.911Y-2.7858
X6.9134Y-2.9575
X6.9146Y-3.0256
X6.9252Y-2.5752
X6.9291Y-2.5984
X6.9583Y-2.9827
X6.9598Y-2.924
X6.9642Y-2.8102
X6.965Y-3.2917
X6.9685Y-2.6378
X6.9685Y-2.7165
X6.9685Y-3.189
X6.9803Y-2.8437
X6.9843Y-2.5752
X7.0094Y-2.7287
X7.0094Y-2.7602
X7.0094Y-2.7917
X7.0094Y-3.1252
X7.0094Y-3.1567
X7.0094Y-3.1882
X7.0146Y-2.9256
X7.0197Y-2.9803
X7.024Y-3.2917
X7.0291Y-3.0087
X7.0366Y-2.8898
X7.037Y-2.7287
X7.037Y-2.7602
X7.037Y-2.7917
X7.037Y-3.1252
X7.037Y-3.1567
X7.037Y-3.1882
X7.05Y-3.0535
X7.0512Y-3.0846
X7.0539Y-2.8646
X7.0543Y-2.8339
X7.0646Y-2.7287
X7.0646Y-2.7602
X7.0646Y-2.7917
X7.0646Y-3.1252
X7.0646Y-3.1567
X7.0646Y-3.1882
X7.0748Y-3.0535
X7.0772Y-3.0839
X7.0791Y-2.8346
X7.0791Y-2.8646
X7.0815Y-2.9685
X7.0831Y-3.2917
X7.0866Y-2.652
X7.1071Y-3.0264
X7.1134Y-2.9421
X7.126Y-3.1496
X7.1327Y-2.6929
X7.1339Y-2.7346
X7.1339Y-3.0252
X7.1362Y-2.8366
X7.137Y-2.9256
X7.1398Y-2.7736
X7.1421Y-3.2917
X7.1543Y-2.8736
X7.1591Y-2.9843
X7.1614Y-2.5752
X7.1654Y-3.189
X7.1661Y-3.0244
X7.1669Y-2.774
X7.1736Y-2.9252
X7.1803Y-2.6339
X7.1807Y-2.598
X7.1874Y-2.9417
X7.2012Y-3.2917
X7.2024Y-3.0949
X7.2051Y-2.9413
X7.2114Y-2.6858
X7.2205Y-2.5752
X7.2268Y-3.1528
X7.2602Y-3.2917
X7.261Y-3.0902
X7.2724Y-2.8669
X7.2744Y-2.9429
X7.2756Y-2.652
X7.2791Y-2.7587
X7.2795Y-2.5752
X7.2839Y-2.9945
X7.2862Y-2.6984
X7.3142Y-2.8244
X7.3177Y-2.6012
X7.3193Y-3.2917
X7.3283Y-2.9965
X7.337Y-3.1524
X7.3386Y-2.5752
X7.3402Y-2.7398
X7.3516Y-2.7256
X7.3622Y-3.0315
X7.3622Y-3.0709
X7.3783Y-3.2917
X7.3803Y-2.6524
X7.3815Y-2.9764
X7.3976Y-2.5752
X7.4016Y-3.0315
X7.4016Y-3.0709
X7.4031Y-2.8843
X7.4063Y-3.1953
X7.4087Y-2.6917
X7.4091Y-2.7276
X7.4177Y-2.7937
X7.4248Y-2.9531
X7.435Y-2.6902
X7.4374Y-3.2917
X7.4409Y-3.0315
X7.4409Y-3.0709
X7.4508Y-2.5961
X7.4516Y-2.8185
X7.452Y-2.6323
X7.4563Y-3.1528
X7.4567Y-2.5752
X7.4732Y-2.8795
X7.4752Y-2.9193
X7.4756Y-2.7925
X7.4803Y-3.1102
X7.4965Y-3.2917
X7.5157Y-2.5752
X7.524Y-2.8075
X7.5303Y-3.1457
X7.5386Y-2.6878
X7.5417Y-2.9843
X7.5445Y-2.6543
X7.5555Y-3.2917
X7.5705Y-3.0197
X7.5709Y-2.6807
X7.5728Y-3.0
X7.5748Y-2.5752
X7.5843Y-2.7386
X7.5984Y-3.1094
X7.6043Y-2.8287
X7.6146Y-3.2917
X7.6189Y-2.6669
X7.6201Y-2.6075
X7.6335Y-2.737
X7.6339Y-2.5752
X7.6528Y-2.8126
X7.6531Y-3.0823
X7.6604Y-2.9557
X7.6661Y-2.7177
X7.6661Y-2.7335
X7.6697Y-2.9173
X7.6701Y-2.9319
X7.6705Y-3.1319
X7.6819Y-2.7177
X7.6819Y-2.7335
X7.6929Y-2.5752
X7.7039Y-2.9996
X7.7165Y-3.0709
X7.7323Y-2.8768
X7.7327Y-2.85
X7.7327Y-2.9386
X7.7327Y-2.9681
X7.7327Y-3.2917
X7.7331Y-2.9165
X7.752Y-2.5752
X7.7555Y-2.7717
X7.7622Y-2.85
X7.7622Y-2.9169
X7.7622Y-2.9386
X7.7622Y-2.9681
X7.7626Y-2.8764
X7.772Y-3.0504
X7.7913Y-2.9165
X7.7917Y-2.85
X7.7917Y-2.9386
X7.7917Y-2.9681
X7.7917Y-3.2917
X7.7921Y-2.8764
X7.8Y-2.7713
X7.8039Y-2.6846
X7.811Y-2.5752
X7.8126Y-3.1492
X7.8209Y-2.9169
X7.8213Y-2.85
X7.8213Y-2.9386
X7.8213Y-2.9681
X7.8217Y-2.8764
X7.8256Y-2.6846
X7.8307Y-3.0957
X7.8378Y-3.124
X7.8472Y-2.6839
X7.8508Y-2.85
X7.8508Y-2.9169
X7.8508Y-2.9386
X7.8508Y-2.9681
X7.8508Y-3.2917
X7.8512Y-2.8768
X7.8701Y-2.5752
X7.8795Y-2.8228
X7.8827Y-2.6791
X7.886Y-3.1183
X7.9035Y-3.126
X7.9043Y-3.0209
X7.9098Y-3.2917
X7.9248Y-2.8819
X7.9248Y-2.9012
X7.9276Y-2.9217
X7.9287Y-2.9409
X7.9291Y-2.5752
X7.9598Y-2.9969
X7.9626Y-2.9335
X7.9634Y-2.9535
X7.9689Y-3.2917
X7.9705Y-3.1244
X7.974Y-3.1917
X7.9819Y-3.2323
X7.9839Y-2.9535
X7.9846Y-2.9335
X7.9882Y-2.5752
X8.0051Y-3.1736
X8.0094Y-3.202
X8.0102Y-2.9799
X8.011Y-3.0102
X8.0252Y-2.8941
X8.0339Y-2.726
X8.0346Y-3.015
X8.0472Y-2.5752
X8.0614Y-2.8929
X8.072Y-3.1157
X8.087Y-3.2917
X8.1063Y-2.5752
X8.1248Y-2.6039
X8.1299Y-3.1555
X8.1311Y-3.0732
X8.1461Y-3.2917
X8.1654Y-2.5752
X8.1654Y-2.6343
X8.1654Y-2.6933
X8.1654Y-2.7524
X8.1654Y-2.8114
X8.1654Y-2.8705
X8.1654Y-2.9295
X8.1654Y-2.9886
X8.1654Y-3.0476
X8.1654Y-3.1067
X8.1654Y-3.1657
X8.1654Y-3.2248
X8.1654Y-3.2839
T2
X6.8862Y-3.2638
X6.9701Y-3.2657
X7.6689Y-3.2606
X8.1319Y-2.9189
X8.1327Y-2.8358
X8.1327Y-3.0016
X8.1343Y-2.7524
T3
X7.1004Y-2.5931
X7.2598Y-2.5931
X7.3715Y-2.5929
X7.5309Y-2.5929
T4
X7.7343Y-2.622
X7.8343Y-2.622
X7.9343Y-2.622
X8.0343Y-2.622
M30
