%TF.GenerationSoftware,KiCad,Pcbnew,8.0.0*%
%TF.CreationDate,2024-03-15T11:34:24+01:00*%
%TF.ProjectId,projet s6,70726f6a-6574-4207-9336-2e6b69636164,rev?*%
%TF.SameCoordinates,Original*%
%TF.FileFunction,Copper,L1,Top*%
%TF.FilePolarity,Positive*%
%FSLAX46Y46*%
G04 Gerber Fmt 4.6, Leading zero omitted, Abs format (unit mm)*
G04 Created by KiCad (PCBNEW 8.0.0) date 2024-03-15 11:34:24*
%MOMM*%
%LPD*%
G01*
G04 APERTURE LIST*
G04 Aperture macros list*
%AMRoundRect*
0 Rectangle with rounded corners*
0 $1 Rounding radius*
0 $2 $3 $4 $5 $6 $7 $8 $9 X,Y pos of 4 corners*
0 Add a 4 corners polygon primitive as box body*
4,1,4,$2,$3,$4,$5,$6,$7,$8,$9,$2,$3,0*
0 Add four circle primitives for the rounded corners*
1,1,$1+$1,$2,$3*
1,1,$1+$1,$4,$5*
1,1,$1+$1,$6,$7*
1,1,$1+$1,$8,$9*
0 Add four rect primitives between the rounded corners*
20,1,$1+$1,$2,$3,$4,$5,0*
20,1,$1+$1,$4,$5,$6,$7,0*
20,1,$1+$1,$6,$7,$8,$9,0*
20,1,$1+$1,$8,$9,$2,$3,0*%
%AMRotRect*
0 Rectangle, with rotation*
0 The origin of the aperture is its center*
0 $1 length*
0 $2 width*
0 $3 Rotation angle, in degrees counterclockwise*
0 Add horizontal line*
21,1,$1,$2,0,0,$3*%
%AMOutline4P*
0 Free polygon, 4 corners , with rotation*
0 The origin of the aperture is its center*
0 number of corners: always 4*
0 $1 to $8 corner X, Y*
0 $9 Rotation angle, in degrees counterclockwise*
0 create outline with 4 corners*
4,1,4,$1,$2,$3,$4,$5,$6,$7,$8,$1,$2,$9*%
%AMOutline5P*
0 Free polygon, 5 corners , with rotation*
0 The origin of the aperture is its center*
0 number of corners: always 5*
0 $1 to $10 corner X, Y*
0 $11 Rotation angle, in degrees counterclockwise*
0 create outline with 5 corners*
4,1,5,$1,$2,$3,$4,$5,$6,$7,$8,$9,$10,$1,$2,$11*%
%AMOutline6P*
0 Free polygon, 6 corners , with rotation*
0 The origin of the aperture is its center*
0 number of corners: always 6*
0 $1 to $12 corner X, Y*
0 $13 Rotation angle, in degrees counterclockwise*
0 create outline with 6 corners*
4,1,6,$1,$2,$3,$4,$5,$6,$7,$8,$9,$10,$11,$12,$1,$2,$13*%
%AMOutline7P*
0 Free polygon, 7 corners , with rotation*
0 The origin of the aperture is its center*
0 number of corners: always 7*
0 $1 to $14 corner X, Y*
0 $15 Rotation angle, in degrees counterclockwise*
0 create outline with 7 corners*
4,1,7,$1,$2,$3,$4,$5,$6,$7,$8,$9,$10,$11,$12,$13,$14,$1,$2,$15*%
%AMOutline8P*
0 Free polygon, 8 corners , with rotation*
0 The origin of the aperture is its center*
0 number of corners: always 8*
0 $1 to $16 corner X, Y*
0 $17 Rotation angle, in degrees counterclockwise*
0 create outline with 8 corners*
4,1,8,$1,$2,$3,$4,$5,$6,$7,$8,$9,$10,$11,$12,$13,$14,$15,$16,$1,$2,$17*%
G04 Aperture macros list end*
%ADD10C,0.300000*%
%TA.AperFunction,NonConductor*%
%ADD11C,0.300000*%
%TD*%
%TA.AperFunction,SMDPad,CuDef*%
%ADD12Outline5P,-0.207500X0.150000X0.057500X0.150000X0.207500X0.000000X0.207500X-0.150000X-0.207500X-0.150000X180.000000*%
%TD*%
%TA.AperFunction,SMDPad,CuDef*%
%ADD13Outline5P,-0.207500X0.150000X0.207500X0.150000X0.207500X0.000000X0.057500X-0.150000X-0.207500X-0.150000X180.000000*%
%TD*%
%TA.AperFunction,SMDPad,CuDef*%
%ADD14RotRect,0.500000X0.500000X225.000000*%
%TD*%
%TA.AperFunction,SMDPad,CuDef*%
%ADD15Outline5P,-0.207500X0.150000X0.207500X0.150000X0.207500X-0.150000X-0.057500X-0.150000X-0.207500X0.000000X180.000000*%
%TD*%
%TA.AperFunction,SMDPad,CuDef*%
%ADD16Outline5P,-0.207500X0.000000X-0.057500X0.150000X0.207500X0.150000X0.207500X-0.150000X-0.207500X-0.150000X180.000000*%
%TD*%
%TA.AperFunction,SMDPad,CuDef*%
%ADD17RoundRect,0.155000X-0.155000X0.212500X-0.155000X-0.212500X0.155000X-0.212500X0.155000X0.212500X0*%
%TD*%
%TA.AperFunction,ComponentPad*%
%ADD18R,1.700000X1.700000*%
%TD*%
%TA.AperFunction,ComponentPad*%
%ADD19O,1.700000X1.700000*%
%TD*%
%TA.AperFunction,SMDPad,CuDef*%
%ADD20RoundRect,0.160000X0.197500X0.160000X-0.197500X0.160000X-0.197500X-0.160000X0.197500X-0.160000X0*%
%TD*%
%TA.AperFunction,SMDPad,CuDef*%
%ADD21RoundRect,0.160000X0.160000X-0.197500X0.160000X0.197500X-0.160000X0.197500X-0.160000X-0.197500X0*%
%TD*%
%TA.AperFunction,SMDPad,CuDef*%
%ADD22RoundRect,0.062500X-0.375000X-0.062500X0.375000X-0.062500X0.375000X0.062500X-0.375000X0.062500X0*%
%TD*%
%TA.AperFunction,SMDPad,CuDef*%
%ADD23RoundRect,0.062500X-0.062500X-0.375000X0.062500X-0.375000X0.062500X0.375000X-0.062500X0.375000X0*%
%TD*%
%TA.AperFunction,HeatsinkPad*%
%ADD24R,3.450000X3.450000*%
%TD*%
%TA.AperFunction,ComponentPad*%
%ADD25C,1.000000*%
%TD*%
%TA.AperFunction,SMDPad,CuDef*%
%ADD26RoundRect,0.155000X0.212500X0.155000X-0.212500X0.155000X-0.212500X-0.155000X0.212500X-0.155000X0*%
%TD*%
%TA.AperFunction,SMDPad,CuDef*%
%ADD27RoundRect,0.150000X0.150000X-0.512500X0.150000X0.512500X-0.150000X0.512500X-0.150000X-0.512500X0*%
%TD*%
%TA.AperFunction,SMDPad,CuDef*%
%ADD28R,0.325000X0.250000*%
%TD*%
%TA.AperFunction,SMDPad,CuDef*%
%ADD29R,0.250000X0.325000*%
%TD*%
%TA.AperFunction,SMDPad,CuDef*%
%ADD30RoundRect,0.100000X0.100000X-0.217500X0.100000X0.217500X-0.100000X0.217500X-0.100000X-0.217500X0*%
%TD*%
%TA.AperFunction,SMDPad,CuDef*%
%ADD31RoundRect,0.155000X-0.212500X-0.155000X0.212500X-0.155000X0.212500X0.155000X-0.212500X0.155000X0*%
%TD*%
%TA.AperFunction,SMDPad,CuDef*%
%ADD32RoundRect,0.160000X-0.197500X-0.160000X0.197500X-0.160000X0.197500X0.160000X-0.197500X0.160000X0*%
%TD*%
%TA.AperFunction,SMDPad,CuDef*%
%ADD33RoundRect,0.155000X0.155000X-0.212500X0.155000X0.212500X-0.155000X0.212500X-0.155000X-0.212500X0*%
%TD*%
%TA.AperFunction,SMDPad,CuDef*%
%ADD34R,0.250000X0.799999*%
%TD*%
%TA.AperFunction,SMDPad,CuDef*%
%ADD35R,1.420000X0.610000*%
%TD*%
%TA.AperFunction,SMDPad,CuDef*%
%ADD36RoundRect,0.160000X-0.160000X0.197500X-0.160000X-0.197500X0.160000X-0.197500X0.160000X0.197500X0*%
%TD*%
%TA.AperFunction,SMDPad,CuDef*%
%ADD37Outline5P,-0.650000X0.750000X0.650000X0.750000X0.650000X-0.750000X0.000000X-0.750000X-0.650000X-0.100000X90.000000*%
%TD*%
%TA.AperFunction,SMDPad,CuDef*%
%ADD38R,1.100000X3.600000*%
%TD*%
%TA.AperFunction,SMDPad,CuDef*%
%ADD39RoundRect,0.237500X-0.237500X0.300000X-0.237500X-0.300000X0.237500X-0.300000X0.237500X0.300000X0*%
%TD*%
%TA.AperFunction,SMDPad,CuDef*%
%ADD40R,0.500000X0.350000*%
%TD*%
%TA.AperFunction,SMDPad,CuDef*%
%ADD41R,0.340000X0.330000*%
%TD*%
%TA.AperFunction,SMDPad,CuDef*%
%ADD42Outline4P,-0.450000X-0.220000X0.450000X-0.220000X0.450000X0.220000X-0.450000X0.220000X90.000000*%
%TD*%
%TA.AperFunction,SMDPad,CuDef*%
%ADD43R,1.500000X0.550000*%
%TD*%
%TA.AperFunction,ComponentPad*%
%ADD44R,1.650000X1.050000*%
%TD*%
%TA.AperFunction,WasherPad*%
%ADD45C,1.000000*%
%TD*%
%TA.AperFunction,ViaPad*%
%ADD46C,0.300000*%
%TD*%
%TA.AperFunction,Conductor*%
%ADD47C,0.150000*%
%TD*%
%TA.AperFunction,Conductor*%
%ADD48C,0.200000*%
%TD*%
G04 APERTURE END LIST*
D10*
D11*
X178754510Y-82689400D02*
X179897368Y-82689400D01*
X179325939Y-83260828D02*
X179325939Y-82117971D01*
X180611653Y-82689400D02*
X181754511Y-82689400D01*
D12*
%TO.P,U3,1,VOUT*%
%TO.N,+3.3V*%
X194222500Y-79860000D03*
D13*
%TO.P,U3,2,GND*%
%TO.N,GND*%
X194222500Y-80570000D03*
D14*
X193830000Y-80215000D03*
D15*
%TO.P,U3,3,EN*%
%TO.N,Net-(SW6-B)*%
X193437500Y-80570000D03*
D16*
%TO.P,U3,4,VIN*%
X193437500Y-79860000D03*
%TD*%
D17*
%TO.P,C14,1*%
%TO.N,Net-(SW6-B)*%
X193240000Y-81332500D03*
%TO.P,C14,2*%
%TO.N,GND*%
X193240000Y-82467500D03*
%TD*%
D18*
%TO.P,J2,1,Pin_1*%
%TO.N,GND*%
X196450000Y-66600000D03*
D19*
%TO.P,J2,2,Pin_2*%
%TO.N,+3.3V*%
X198990000Y-66600000D03*
%TO.P,J2,3,Pin_3*%
%TO.N,OLED_SCL*%
X201530000Y-66600000D03*
%TO.P,J2,4,Pin_4*%
%TO.N,OLED_SDA*%
X204070000Y-66600000D03*
%TD*%
D20*
%TO.P,R9,1*%
%TO.N,COMPASSCL*%
X197377500Y-80040000D03*
%TO.P,R9,2*%
%TO.N,+3.3V*%
X196182500Y-80040000D03*
%TD*%
D21*
%TO.P,R1,1*%
%TO.N,GND*%
X177220000Y-78607500D03*
%TO.P,R1,2*%
%TO.N,Net-(U2-PROG)*%
X177220000Y-77412500D03*
%TD*%
D22*
%TO.P,U1,1,VDD*%
%TO.N,+3.3V*%
X195512500Y-72180000D03*
%TO.P,U1,2,PC14*%
%TO.N,B1*%
X195512500Y-72680000D03*
%TO.P,U1,3,PC15*%
%TO.N,B2*%
X195512500Y-73180000D03*
%TO.P,U1,4,NRST*%
%TO.N,Net-(U1-NRST)*%
X195512500Y-73680000D03*
%TO.P,U1,5,VDDA*%
%TO.N,+3.3V*%
X195512500Y-74180000D03*
%TO.P,U1,6,PA0*%
%TO.N,unconnected-(U1-PA0-Pad6)*%
X195512500Y-74680000D03*
%TO.P,U1,7,PA1*%
%TO.N,ALIMGPS*%
X195512500Y-75180000D03*
%TO.P,U1,8,PA2*%
%TO.N,GPSRX*%
X195512500Y-75680000D03*
D23*
%TO.P,U1,9,PA3*%
%TO.N,GPSTX*%
X196200000Y-76367500D03*
%TO.P,U1,10,PA4*%
%TO.N,unconnected-(U1-PA4-Pad10)*%
X196700000Y-76367500D03*
%TO.P,U1,11,PA5*%
%TO.N,unconnected-(U1-PA5-Pad11)*%
X197200000Y-76367500D03*
%TO.P,U1,12,PA6*%
%TO.N,unconnected-(U1-PA6-Pad12)*%
X197700000Y-76367500D03*
%TO.P,U1,13,PA7*%
%TO.N,OLED_SCL*%
X198200000Y-76367500D03*
%TO.P,U1,14,PB0*%
%TO.N,unconnected-(U1-PB0-Pad14)*%
X198700000Y-76367500D03*
%TO.P,U1,15,PB1*%
%TO.N,unconnected-(U1-PB1-Pad15)*%
X199200000Y-76367500D03*
%TO.P,U1,16,VSS*%
%TO.N,GND*%
X199700000Y-76367500D03*
D22*
%TO.P,U1,17,VDD*%
%TO.N,+3.3V*%
X200387500Y-75680000D03*
%TO.P,U1,18,PA8*%
%TO.N,unconnected-(U1-PA8-Pad18)*%
X200387500Y-75180000D03*
%TO.P,U1,19,PA9*%
%TO.N,COMPASSCL*%
X200387500Y-74680000D03*
%TO.P,U1,20,PA10*%
%TO.N,COMPASSDA*%
X200387500Y-74180000D03*
%TO.P,U1,21,PA11*%
%TO.N,D-*%
X200387500Y-73680000D03*
%TO.P,U1,22,PA12*%
%TO.N,D+*%
X200387500Y-73180000D03*
%TO.P,U1,23,PA13*%
%TO.N,SWDIO*%
X200387500Y-72680000D03*
%TO.P,U1,24,PA14*%
%TO.N,SWCLK*%
X200387500Y-72180000D03*
D23*
%TO.P,U1,25,PA15*%
%TO.N,unconnected-(U1-PA15-Pad25)*%
X199700000Y-71492500D03*
%TO.P,U1,26,PB3*%
%TO.N,SWO*%
X199200000Y-71492500D03*
%TO.P,U1,27,PB4*%
%TO.N,OLED_SDA*%
X198700000Y-71492500D03*
%TO.P,U1,28,PB5*%
%TO.N,unconnected-(U1-PB5-Pad28)*%
X198200000Y-71492500D03*
%TO.P,U1,29,PB6*%
%TO.N,unconnected-(U1-PB6-Pad29)*%
X197700000Y-71492500D03*
%TO.P,U1,30,PB7*%
%TO.N,unconnected-(U1-PB7-Pad30)*%
X197200000Y-71492500D03*
%TO.P,U1,31,PH3*%
%TO.N,GND*%
X196700000Y-71492500D03*
%TO.P,U1,32,VSS*%
X196200000Y-71492500D03*
D24*
%TO.P,U1,33,VSS*%
X197950000Y-73930000D03*
%TD*%
D25*
%TO.P,TP5,1,1*%
%TO.N,BAT+*%
X174910000Y-82900000D03*
%TD*%
%TO.P,TP9,1,1*%
%TO.N,SWDIO*%
X206550000Y-74140000D03*
%TD*%
D26*
%TO.P,C3,1*%
%TO.N,GND*%
X202737500Y-75660000D03*
%TO.P,C3,2*%
%TO.N,+3.3V*%
X201602500Y-75660000D03*
%TD*%
D20*
%TO.P,R4,1*%
%TO.N,Net-(J1-CC2)*%
X178127500Y-73490000D03*
%TO.P,R4,2*%
%TO.N,GND*%
X176932500Y-73490000D03*
%TD*%
%TO.P,R7,1*%
%TO.N,GPSTX*%
X194267500Y-76970000D03*
%TO.P,R7,2*%
%TO.N,Net-(PA1010D1-TX)*%
X193072500Y-76970000D03*
%TD*%
D17*
%TO.P,C15,1*%
%TO.N,+3.3V*%
X195120000Y-80062500D03*
%TO.P,C15,2*%
%TO.N,GND*%
X195120000Y-81197500D03*
%TD*%
D27*
%TO.P,U4,1,I/O1*%
%TO.N,Net-(J1-D+-PadA6)*%
X180800000Y-75707500D03*
%TO.P,U4,2,GND*%
%TO.N,GND*%
X181750000Y-75707500D03*
%TO.P,U4,3,I/O2*%
%TO.N,D+*%
X182700000Y-75707500D03*
%TO.P,U4,4,I/O2*%
%TO.N,D-*%
X182700000Y-73432500D03*
%TO.P,U4,5,VBUS*%
%TO.N,vusb*%
X181750000Y-73432500D03*
%TO.P,U4,6,I/O1*%
%TO.N,Net-(J1-D--PadA7)*%
X180800000Y-73432500D03*
%TD*%
D25*
%TO.P,TP11,1,1*%
%TO.N,SWCLK*%
X206570000Y-72030000D03*
%TD*%
D28*
%TO.P,IC1,1,SCL*%
%TO.N,COMPASSCL*%
X199257000Y-80630000D03*
%TO.P,IC1,2,VDD*%
%TO.N,+3.3V*%
X199257000Y-81130000D03*
%TO.P,IC1,3,NC_1*%
%TO.N,unconnected-(IC1-NC_1-Pad3)*%
X199257000Y-81630000D03*
%TO.P,IC1,4,S1*%
%TO.N,+3.3V*%
X199257000Y-82130000D03*
D29*
%TO.P,IC1,5,NC_2*%
%TO.N,unconnected-(IC1-NC_2-Pad5)*%
X199770000Y-82643000D03*
%TO.P,IC1,6,NC_3*%
%TO.N,unconnected-(IC1-NC_3-Pad6)*%
X200270000Y-82643000D03*
%TO.P,IC1,7,NC_4*%
%TO.N,unconnected-(IC1-NC_4-Pad7)*%
X200770000Y-82643000D03*
%TO.P,IC1,8,STEP*%
%TO.N,Net-(IC1-STEP)*%
X201270000Y-82643000D03*
D28*
%TO.P,IC1,9,GND_1*%
%TO.N,GND*%
X201783000Y-82130000D03*
%TO.P,IC1,10,C1*%
%TO.N,Net-(IC1-C1)*%
X201783000Y-81630000D03*
%TO.P,IC1,11,GND_2*%
%TO.N,GND*%
X201783000Y-81130000D03*
%TO.P,IC1,12,SETC*%
%TO.N,Net-(IC1-SETC)*%
X201783000Y-80630000D03*
D29*
%TO.P,IC1,13,VDDIO*%
%TO.N,+3.3V*%
X201270000Y-80117000D03*
%TO.P,IC1,14,NC_5*%
%TO.N,unconnected-(IC1-NC_5-Pad14)*%
X200770000Y-80117000D03*
%TO.P,IC1,15,DRDY*%
%TO.N,unconnected-(IC1-DRDY-Pad15)*%
X200270000Y-80117000D03*
%TO.P,IC1,16,SDA*%
%TO.N,COMPASSDA*%
X199770000Y-80117000D03*
%TD*%
D25*
%TO.P,TP7,1,1*%
%TO.N,+3.3V*%
X206570000Y-76240000D03*
%TD*%
D20*
%TO.P,R8,1*%
%TO.N,+3.3V*%
X201727500Y-78370000D03*
%TO.P,R8,2*%
%TO.N,COMPASSDA*%
X200532500Y-78370000D03*
%TD*%
D30*
%TO.P,D1,1,K*%
%TO.N,Net-(D1-K)*%
X175020000Y-72727500D03*
%TO.P,D1,2,A*%
%TO.N,Net-(D1-A)*%
X175020000Y-71912500D03*
%TD*%
D31*
%TO.P,C1,1*%
%TO.N,vusb*%
X174802500Y-77560000D03*
%TO.P,C1,2*%
%TO.N,Net-(C1-Pad2)*%
X175937500Y-77560000D03*
%TD*%
D32*
%TO.P,R6,1*%
%TO.N,Net-(PA1010D1-RX)*%
X193062500Y-76030000D03*
%TO.P,R6,2*%
%TO.N,GPSRX*%
X194257500Y-76030000D03*
%TD*%
D25*
%TO.P,TP8,1,1*%
%TO.N,GND*%
X194790000Y-82820000D03*
%TD*%
D31*
%TO.P,C16,1*%
%TO.N,B1*%
X192212500Y-68780000D03*
%TO.P,C16,2*%
%TO.N,GND*%
X193347500Y-68780000D03*
%TD*%
%TO.P,C9,1*%
%TO.N,+3.3V*%
X182732500Y-71290000D03*
%TO.P,C9,2*%
%TO.N,GNDGPS*%
X183867500Y-71290000D03*
%TD*%
D33*
%TO.P,C10,1*%
%TO.N,Net-(BT1-+)*%
X180670000Y-71757500D03*
%TO.P,C10,2*%
%TO.N,GNDGPS*%
X180670000Y-70622500D03*
%TD*%
D26*
%TO.P,C12,1*%
%TO.N,+3.3V*%
X197417500Y-81930000D03*
%TO.P,C12,2*%
%TO.N,GND*%
X196282500Y-81930000D03*
%TD*%
D20*
%TO.P,R5,1*%
%TO.N,Net-(J1-CC1)*%
X178137500Y-76440000D03*
%TO.P,R5,2*%
%TO.N,GND*%
X176942500Y-76440000D03*
%TD*%
D34*
%TO.P,U2,1,GND*%
%TO.N,GND*%
X175620000Y-74179998D03*
%TO.P,U2,2,\u002ACHRG*%
%TO.N,Net-(D1-K)*%
X175120001Y-74179998D03*
%TO.P,U2,3,BAT*%
%TO.N,BAT+*%
X174620002Y-74179998D03*
%TO.P,U2,4,VCC*%
%TO.N,vusb*%
X174620002Y-76080000D03*
%TO.P,U2,5,\u002AEN/\u002AACPR*%
%TO.N,GND*%
X175120001Y-76080000D03*
%TO.P,U2,6,PROG*%
%TO.N,Net-(U2-PROG)*%
X175620000Y-76080000D03*
D35*
%TO.P,U2,7,S*%
%TO.N,GND*%
X175120001Y-75129999D03*
%TD*%
D21*
%TO.P,R13,1*%
%TO.N,+3.3V*%
X186740000Y-68387500D03*
%TO.P,R13,2*%
%TO.N,Net-(R10-Pad1)*%
X186740000Y-67192500D03*
%TD*%
D36*
%TO.P,R10,1*%
%TO.N,Net-(R10-Pad1)*%
X185750000Y-67185000D03*
%TO.P,R10,2*%
%TO.N,B2*%
X185750000Y-68380000D03*
%TD*%
D20*
%TO.P,R2,1*%
%TO.N,Net-(C1-Pad2)*%
X175987500Y-78500000D03*
%TO.P,R2,2*%
%TO.N,GND*%
X174792500Y-78500000D03*
%TD*%
D25*
%TO.P,TP1,1,1*%
%TO.N,GND*%
X177040000Y-82950000D03*
%TD*%
D21*
%TO.P,R3,1*%
%TO.N,vusb*%
X175890000Y-72927500D03*
%TO.P,R3,2*%
%TO.N,Net-(D1-A)*%
X175890000Y-71732500D03*
%TD*%
D37*
%TO.P,BT1,1,+*%
%TO.N,Net-(BT1-+)*%
X174705000Y-66039012D03*
D38*
%TO.P,BT1,2,-*%
%TO.N,GNDGPS*%
X178495000Y-67189012D03*
%TD*%
D32*
%TO.P,R11,1*%
%TO.N,Net-(R11-Pad1)*%
X189952500Y-69280000D03*
%TO.P,R11,2*%
%TO.N,B1*%
X191147500Y-69280000D03*
%TD*%
D25*
%TO.P,TP10,1,1*%
%TO.N,SWO*%
X206610000Y-69910000D03*
%TD*%
D39*
%TO.P,C13,1*%
%TO.N,Net-(IC1-C1)*%
X205100000Y-80897500D03*
%TO.P,C13,2*%
%TO.N,GND*%
X205100000Y-82622500D03*
%TD*%
D26*
%TO.P,C4,1*%
%TO.N,GND*%
X202737500Y-76610000D03*
%TO.P,C4,2*%
%TO.N,+3.3V*%
X201602500Y-76610000D03*
%TD*%
D36*
%TO.P,R14,1*%
%TO.N,ALIMGPS*%
X186160000Y-76792500D03*
%TO.P,R14,2*%
%TO.N,GND*%
X186160000Y-77987500D03*
%TD*%
D20*
%TO.P,R12,1*%
%TO.N,+3.3V*%
X191137500Y-68280000D03*
%TO.P,R12,2*%
%TO.N,Net-(R11-Pad1)*%
X189942500Y-68280000D03*
%TD*%
D31*
%TO.P,C2,1*%
%TO.N,GND*%
X193122500Y-74170000D03*
%TO.P,C2,2*%
%TO.N,+3.3V*%
X194257500Y-74170000D03*
%TD*%
%TO.P,C17,1*%
%TO.N,B2*%
X187102500Y-70040000D03*
%TO.P,C17,2*%
%TO.N,GND*%
X188237500Y-70040000D03*
%TD*%
D26*
%TO.P,C6,1*%
%TO.N,GND*%
X196137500Y-70290000D03*
%TO.P,C6,2*%
%TO.N,+3.3V*%
X195002500Y-70290000D03*
%TD*%
D40*
%TO.P,Q1,1,G*%
%TO.N,ALIMGPS*%
X185180000Y-76925000D03*
%TO.P,Q1,2,S*%
%TO.N,GND*%
X185180000Y-77575000D03*
D41*
%TO.P,Q1,3,D*%
%TO.N,GNDGPS*%
X184100000Y-77250000D03*
D42*
X184490000Y-77250000D03*
%TD*%
D31*
%TO.P,C5,1*%
%TO.N,GND*%
X192462500Y-75100000D03*
%TO.P,C5,2*%
%TO.N,+3.3V*%
X193597500Y-75100000D03*
%TD*%
%TO.P,C7,1*%
%TO.N,GND*%
X190952500Y-73460000D03*
%TO.P,C7,2*%
%TO.N,Net-(U1-NRST)*%
X192087500Y-73460000D03*
%TD*%
D43*
%TO.P,SW5,1,1*%
%TO.N,GND*%
X193420000Y-69835000D03*
%TO.P,SW5,2,2*%
%TO.N,Net-(U1-NRST)*%
X193420000Y-73085000D03*
%TD*%
D31*
%TO.P,C8,1*%
%TO.N,+3.3V*%
X182742500Y-70360000D03*
%TO.P,C8,2*%
%TO.N,GNDGPS*%
X183877500Y-70360000D03*
%TD*%
D17*
%TO.P,C11,1*%
%TO.N,Net-(IC1-SETC)*%
X203770000Y-81962500D03*
%TO.P,C11,2*%
%TO.N,Net-(IC1-STEP)*%
X203770000Y-83097500D03*
%TD*%
D44*
%TO.P,SW1,1,1*%
%TO.N,GND*%
X187335000Y-65935000D03*
X191185000Y-65935000D03*
%TD*%
D45*
%TO.P,SW6,*%
%TO.N,*%
X188615000Y-82417500D03*
X185615000Y-82417500D03*
%TD*%
D44*
%TO.P,SW2,1,1*%
%TO.N,GND*%
X180450000Y-65940000D03*
X184300000Y-65940000D03*
%TD*%
D46*
%TO.N,+3.3V*%
X202250000Y-74510000D03*
X185070000Y-68540000D03*
X199320000Y-68170000D03*
X195120000Y-69430000D03*
X191480000Y-68270000D03*
X186730000Y-69230000D03*
X198770000Y-68190000D03*
X194820000Y-74470000D03*
X198220000Y-68190000D03*
X194810000Y-74100000D03*
X202810000Y-74510000D03*
X202270000Y-75020000D03*
X194720000Y-69430000D03*
X182040000Y-70460000D03*
X194720000Y-69030000D03*
X181350000Y-70450000D03*
X195120000Y-69030000D03*
X202790000Y-75020000D03*
X194830000Y-79550000D03*
%TO.N,GNDGPS*%
X181200000Y-76840000D03*
X182020000Y-76820000D03*
%TO.N,Net-(BT1-+)*%
X181260000Y-72050000D03*
%TO.N,Net-(IC1-SETC)*%
X203440000Y-81330000D03*
X203330000Y-80610000D03*
%TO.N,COMPASSCL*%
X198900000Y-78630000D03*
X201390000Y-74700000D03*
%TO.N,COMPASSDA*%
X200305000Y-79205000D03*
X201360000Y-74210000D03*
%TO.N,Net-(J1-CC2)*%
X178730000Y-73400000D03*
%TO.N,Net-(J1-CC1)*%
X178540000Y-76420000D03*
%TO.N,OLED_SCL*%
X204080000Y-76580000D03*
%TO.N,Net-(PA1010D1-TX)*%
X192290000Y-76700000D03*
%TO.N,Net-(PA1010D1-RX)*%
X192350000Y-76200000D03*
%TO.N,ALIMGPS*%
X194575000Y-75075000D03*
X186140000Y-76110000D03*
%TO.N,vusb*%
X174630000Y-76980000D03*
X179070000Y-77560000D03*
X179700000Y-77560000D03*
X179810000Y-72760000D03*
X189390000Y-80080000D03*
X179170000Y-72760000D03*
X181720000Y-72990000D03*
%TO.N,D+*%
X182560000Y-74720000D03*
X201290000Y-73200000D03*
%TO.N,D-*%
X183010000Y-74710000D03*
X201290000Y-73690000D03*
%TO.N,Net-(SW6-B)*%
X186360000Y-80070000D03*
%TO.N,GND*%
X183560000Y-80080000D03*
X198670000Y-73060000D03*
X173970000Y-71580000D03*
X192300000Y-68090000D03*
X191270000Y-79900000D03*
X193000000Y-78980000D03*
X187000000Y-78000000D03*
X177000000Y-69000000D03*
X200750000Y-79400000D03*
X175900000Y-65410000D03*
X184430000Y-78490000D03*
X175000000Y-67500000D03*
X188410000Y-70960000D03*
X199410000Y-74640000D03*
X174840000Y-69160000D03*
X176910000Y-83610000D03*
X197910000Y-83610000D03*
X184410000Y-83610000D03*
X187410000Y-83610000D03*
X189820000Y-73140000D03*
X176740000Y-75760000D03*
X175310000Y-80180000D03*
X198660000Y-74640000D03*
X196410000Y-74640000D03*
X178740000Y-80980000D03*
X198440000Y-79990000D03*
X199420000Y-73070000D03*
X179440000Y-80980000D03*
X174140000Y-69160000D03*
X199410000Y-72390000D03*
X188590000Y-75010000D03*
X182210000Y-74300000D03*
X188180000Y-68370000D03*
X200220000Y-68050000D03*
X175600000Y-75120000D03*
X177400000Y-65410000D03*
X179100000Y-78350000D03*
X184900000Y-65410000D03*
X191910000Y-83610000D03*
X178740000Y-80180000D03*
X205410000Y-83610000D03*
X202540000Y-81070000D03*
X194380000Y-71440000D03*
X175540000Y-69160000D03*
X197900000Y-74080000D03*
X205900000Y-65410000D03*
X175410000Y-83610000D03*
X181170000Y-68400000D03*
X182940000Y-78610000D03*
X196000000Y-78000000D03*
X178040000Y-80980000D03*
X197160000Y-74640000D03*
X196400000Y-73070000D03*
X190000000Y-79000000D03*
X196420000Y-74080000D03*
X207400000Y-74410000D03*
X207400000Y-80410000D03*
X178040000Y-70910000D03*
X207400000Y-78910000D03*
X174140000Y-70760000D03*
X185780000Y-71740000D03*
X178410000Y-83610000D03*
X174610000Y-80180000D03*
X179180000Y-71980000D03*
X196410000Y-83610000D03*
X174570000Y-73350000D03*
X204760000Y-73480000D03*
X178740000Y-69310000D03*
X179440000Y-80180000D03*
X176000000Y-66000000D03*
X207400000Y-75910000D03*
X178040000Y-80180000D03*
X177000000Y-67000000D03*
X197410000Y-77480000D03*
X173970000Y-73080000D03*
X202450000Y-79360000D03*
X206500000Y-80150000D03*
X197160000Y-72390000D03*
X197910000Y-75390000D03*
X185870000Y-66070000D03*
X188850000Y-68330000D03*
X191560000Y-75800000D03*
X189270000Y-71590000D03*
X199410000Y-75390000D03*
X207400000Y-77410000D03*
X197160000Y-75390000D03*
X207400000Y-81910000D03*
X173910000Y-83610000D03*
X196410000Y-75390000D03*
X193900000Y-65410000D03*
X176780000Y-74270000D03*
X204400000Y-65410000D03*
X179440000Y-70910000D03*
X173970000Y-68580000D03*
X175540000Y-69960000D03*
X198660000Y-75390000D03*
X187000000Y-77000000D03*
X197910000Y-74640000D03*
X181900000Y-65410000D03*
X179810000Y-72000000D03*
X175540000Y-70760000D03*
X195680000Y-76190000D03*
X177300000Y-72230000D03*
X179440000Y-70110000D03*
X205030000Y-79140000D03*
X179910000Y-83610000D03*
X207400000Y-71410000D03*
X175310000Y-80980000D03*
X200910000Y-83610000D03*
X195400000Y-65410000D03*
X189000000Y-78000000D03*
X181840000Y-75800000D03*
X181410000Y-83610000D03*
X178170000Y-74310000D03*
X199410000Y-74090000D03*
X202410000Y-83610000D03*
X197170000Y-73060000D03*
X179440000Y-79380000D03*
X181200000Y-69460000D03*
X174840000Y-70760000D03*
X197910000Y-72390000D03*
X173970000Y-67080000D03*
X193520000Y-67740000D03*
X193550000Y-66230000D03*
X184770000Y-74750000D03*
X183400000Y-65410000D03*
X188040000Y-73260000D03*
X187490000Y-75600000D03*
X189000000Y-77000000D03*
X184720000Y-72820000D03*
X197920000Y-73060000D03*
X197160000Y-74090000D03*
X193890000Y-69520000D03*
X198400000Y-65410000D03*
X182390000Y-65990000D03*
X199410000Y-83610000D03*
X191110000Y-71310000D03*
X181000000Y-80000000D03*
X174610000Y-80980000D03*
X175630000Y-76850000D03*
X194390000Y-78290000D03*
X181280000Y-74310000D03*
X178040000Y-70110000D03*
X192400000Y-65410000D03*
X184890000Y-70070000D03*
X189250000Y-65940000D03*
X178740000Y-70910000D03*
X203840000Y-73510000D03*
X196410000Y-72390000D03*
X177000000Y-81000000D03*
X174840000Y-69960000D03*
X203480000Y-76460000D03*
X175120000Y-76850000D03*
X189400000Y-65410000D03*
X206530000Y-78060000D03*
X201400000Y-65410000D03*
X199080000Y-79350000D03*
X189870000Y-74150000D03*
X200770000Y-76730000D03*
X207400000Y-65410000D03*
X207400000Y-72910000D03*
X207400000Y-83410000D03*
X206370000Y-66140000D03*
X175310000Y-79380000D03*
X198120000Y-70390000D03*
X204060000Y-69240000D03*
X185010000Y-76060000D03*
X178040000Y-79380000D03*
X186440000Y-69590000D03*
X180520000Y-76870000D03*
X202180000Y-76120000D03*
X203460000Y-75690000D03*
X174140000Y-69960000D03*
X189280000Y-66860000D03*
X202900000Y-65410000D03*
X199900000Y-65410000D03*
X178040000Y-69310000D03*
X189880000Y-70930000D03*
X193410000Y-83610000D03*
X174610000Y-79380000D03*
X207400000Y-68410000D03*
X193150000Y-71850000D03*
X182910000Y-83610000D03*
X188910000Y-83610000D03*
X188000000Y-77000000D03*
X187900000Y-65410000D03*
X196990000Y-70400000D03*
X188120000Y-81160000D03*
X207400000Y-66910000D03*
X192640000Y-69560000D03*
X178740000Y-70110000D03*
X179760000Y-78330000D03*
X196900000Y-65410000D03*
X198650000Y-74090000D03*
X200140000Y-71700000D03*
X198660000Y-72390000D03*
X182380000Y-66900000D03*
X190410000Y-83610000D03*
X186400000Y-65410000D03*
X185910000Y-83610000D03*
X178740000Y-79380000D03*
X176890000Y-71380000D03*
X178300000Y-75700000D03*
X182000000Y-81000000D03*
X174670000Y-75130000D03*
X207400000Y-69910000D03*
X179440000Y-69310000D03*
X188190000Y-69280000D03*
X206910000Y-83610000D03*
X183170000Y-68220000D03*
X202740000Y-82100000D03*
X190900000Y-65410000D03*
X188000000Y-78000000D03*
%TO.N,Net-(R10-Pad1)*%
X184800000Y-67360000D03*
X180000000Y-67360000D03*
%TO.N,Net-(R11-Pad1)*%
X187460000Y-67370000D03*
X191630000Y-67420000D03*
%TO.N,Net-(J1-D--PadA7)*%
X180680000Y-74730000D03*
%TO.N,Net-(J1-D+-PadA6)*%
X179870000Y-75400000D03*
%TD*%
D47*
%TO.N,Net-(C1-Pad2)*%
X175937500Y-78450000D02*
X175987500Y-78500000D01*
X175767500Y-78240000D02*
X175827500Y-78300000D01*
X175937500Y-77560000D02*
X175937500Y-78450000D01*
D48*
%TO.N,+3.3V*%
X185070000Y-68540000D02*
X185070000Y-69204975D01*
X193910000Y-78630000D02*
X194830000Y-79550000D01*
X186740000Y-69220000D02*
X186730000Y-69230000D01*
X201270000Y-78827500D02*
X201727500Y-78370000D01*
X186740000Y-68387500D02*
X186740000Y-69220000D01*
X201270000Y-80117000D02*
X201270000Y-78827500D01*
X182962500Y-70510000D02*
X183002500Y-70470000D01*
X189520000Y-73654975D02*
X189520000Y-75460000D01*
X189520000Y-75460000D02*
X192690000Y-78630000D01*
X182050000Y-70470000D02*
X182040000Y-70460000D01*
X192690000Y-78630000D02*
X193910000Y-78630000D01*
X185070000Y-69204975D02*
X189520000Y-73654975D01*
D47*
%TO.N,Net-(U1-NRST)*%
X193045000Y-73460000D02*
X193420000Y-73085000D01*
X193747500Y-73012500D02*
X193675000Y-73085000D01*
X193675000Y-73085000D02*
X193420000Y-73085000D01*
X192087500Y-73460000D02*
X193045000Y-73460000D01*
D48*
%TO.N,GNDGPS*%
X183637500Y-71439999D02*
X183637500Y-71290000D01*
X180670000Y-70852500D02*
X180819999Y-70852500D01*
X178690000Y-65690000D02*
X178710000Y-68480000D01*
X178495000Y-67189012D02*
X180670000Y-69364012D01*
X183097499Y-71980000D02*
X183637500Y-71439999D01*
X181947499Y-71980000D02*
X183097499Y-71980000D01*
X178710000Y-68480000D02*
X178690000Y-68283603D01*
X180670000Y-69364012D02*
X180670000Y-70852500D01*
X180819999Y-70852500D02*
X181947499Y-71980000D01*
D47*
X184490000Y-77250000D02*
X184100000Y-77250000D01*
%TO.N,Net-(BT1-+)*%
X176120000Y-69640000D02*
X178007500Y-71527500D01*
X174705000Y-66039012D02*
X176120000Y-67454012D01*
X176120000Y-67454012D02*
X176120000Y-69640000D01*
X180737500Y-71527500D02*
X181260000Y-72050000D01*
X178007500Y-71527500D02*
X180737500Y-71527500D01*
%TO.N,Net-(IC1-SETC)*%
X203440000Y-81330000D02*
X203520000Y-81410000D01*
X203310000Y-80630000D02*
X203330000Y-80610000D01*
X201783000Y-80630000D02*
X203310000Y-80630000D01*
X203520000Y-81410000D02*
X203520000Y-81992500D01*
%TO.N,Net-(IC1-STEP)*%
X203315500Y-82643000D02*
X203770000Y-83097500D01*
X201270000Y-82643000D02*
X203315500Y-82643000D01*
%TO.N,Net-(IC1-C1)*%
X204642500Y-81005000D02*
X204770000Y-80877500D01*
X203185000Y-81005000D02*
X204642500Y-81005000D01*
X201783000Y-81630000D02*
X202560000Y-81630000D01*
X202560000Y-81630000D02*
X203185000Y-81005000D01*
%TO.N,Net-(D1-K)*%
X175120001Y-74179998D02*
X175120001Y-72747501D01*
X175120001Y-72747501D02*
X175110000Y-72737500D01*
%TO.N,Net-(D1-A)*%
X175110000Y-71922500D02*
X175800000Y-71922500D01*
X175800000Y-71922500D02*
X175910000Y-72032500D01*
%TO.N,COMPASSCL*%
X197500000Y-80030000D02*
X197487500Y-80030000D01*
X198087500Y-80630000D02*
X197487500Y-80030000D01*
X199257000Y-80630000D02*
X198087500Y-80630000D01*
X198900000Y-78630000D02*
X197500000Y-80030000D01*
X200387500Y-74680000D02*
X201370000Y-74680000D01*
X201370000Y-74680000D02*
X201390000Y-74700000D01*
%TO.N,COMPASSDA*%
X201330000Y-74180000D02*
X201360000Y-74210000D01*
X200305000Y-79205000D02*
X200305000Y-78597500D01*
X200387500Y-74180000D02*
X201330000Y-74180000D01*
X200305000Y-79205000D02*
X199770000Y-79740000D01*
X200305000Y-78597500D02*
X200532500Y-78370000D01*
X199770000Y-79740000D02*
X199770000Y-80117000D01*
%TO.N,Net-(J1-CC2)*%
X178710000Y-73420000D02*
X177877500Y-73420000D01*
X178730000Y-73400000D02*
X178710000Y-73420000D01*
%TO.N,Net-(J1-CC1)*%
X177877500Y-76440000D02*
X178520000Y-76440000D01*
X178520000Y-76440000D02*
X178540000Y-76420000D01*
%TO.N,OLED_SCL*%
X203460000Y-77200000D02*
X198686680Y-77200000D01*
X198686680Y-77200000D02*
X198200000Y-76713320D01*
X204080000Y-76580000D02*
X203460000Y-77200000D01*
X198200000Y-76713320D02*
X198200000Y-76367500D01*
%TO.N,OLED_SDA*%
X198700000Y-71492500D02*
X198700000Y-71055001D01*
X202345000Y-68325000D02*
X204070000Y-66600000D01*
X198700000Y-71055001D02*
X201430001Y-68325000D01*
X201430001Y-68325000D02*
X202345000Y-68325000D01*
%TO.N,Net-(PA1010D1-TX)*%
X192290000Y-76700000D02*
X192320000Y-76730000D01*
X192320000Y-76730000D02*
X193022500Y-76730000D01*
%TO.N,Net-(PA1010D1-RX)*%
X192520000Y-76030000D02*
X193062500Y-76030000D01*
X193062500Y-75900000D02*
X193042500Y-75880000D01*
X193062500Y-76030000D02*
X193062500Y-75900000D01*
X192350000Y-76200000D02*
X192520000Y-76030000D01*
%TO.N,ALIMGPS*%
X186140000Y-76772500D02*
X186140000Y-76110000D01*
X185312500Y-76792500D02*
X186160000Y-76792500D01*
X186160000Y-76792500D02*
X186140000Y-76772500D01*
X185180000Y-76925000D02*
X185312500Y-76792500D01*
X195512500Y-75180000D02*
X194680000Y-75180000D01*
X194680000Y-75180000D02*
X194575000Y-75075000D01*
%TO.N,Net-(U2-PROG)*%
X176952500Y-77412500D02*
X175620000Y-76080000D01*
X177220000Y-77412500D02*
X176952500Y-77412500D01*
%TO.N,GPSRX*%
X195172500Y-76020000D02*
X195512500Y-75680000D01*
X194267500Y-76020000D02*
X195172500Y-76020000D01*
%TO.N,GPSTX*%
X195560000Y-76970000D02*
X195670000Y-76860000D01*
X194267500Y-76970000D02*
X195560000Y-76970000D01*
X195670000Y-76860000D02*
X195707500Y-76860000D01*
X195707500Y-76860000D02*
X196200000Y-76367500D01*
%TO.N,B2*%
X186330000Y-70040000D02*
X187102500Y-70040000D01*
X185750000Y-69460000D02*
X186330000Y-70040000D01*
X188900000Y-72590000D02*
X187102500Y-70792500D01*
X187102500Y-70792500D02*
X187102500Y-70040000D01*
X185750000Y-68380000D02*
X185750000Y-69460000D01*
X194325000Y-72585000D02*
X191049999Y-72585000D01*
X195512500Y-73180000D02*
X194920000Y-73180000D01*
X191044999Y-72590000D02*
X188900000Y-72590000D01*
X191049999Y-72585000D02*
X191044999Y-72590000D01*
X194920000Y-73180000D02*
X194325000Y-72585000D01*
%TO.N,B1*%
X191692500Y-69482500D02*
X194890000Y-72680000D01*
X191147500Y-69280000D02*
X191692500Y-69280000D01*
X194890000Y-72680000D02*
X195512500Y-72680000D01*
X191692500Y-69280000D02*
X191692500Y-69482500D01*
X191692500Y-69280000D02*
X192192500Y-68780000D01*
D48*
%TO.N,vusb*%
X188550000Y-79240000D02*
X189390000Y-80080000D01*
X179170000Y-77460000D02*
X179170000Y-72760000D01*
X179070000Y-77560000D02*
X179170000Y-77460000D01*
X179170000Y-72760000D02*
X178990000Y-72940000D01*
X174620002Y-76080000D02*
X174620002Y-76970002D01*
X174635000Y-76094998D02*
X174620002Y-76080000D01*
X174620002Y-76970002D02*
X174630000Y-76980000D01*
X174620002Y-76989998D02*
X174620002Y-77167502D01*
X179700000Y-77560000D02*
X181380000Y-79240000D01*
X179170000Y-72760000D02*
X179810000Y-72760000D01*
X178990000Y-72940000D02*
X176142500Y-72940000D01*
X174630000Y-76980000D02*
X174620002Y-76989998D01*
X174620002Y-77167502D02*
X174862500Y-77410000D01*
X176142500Y-72940000D02*
X175910000Y-72707500D01*
X181380000Y-79240000D02*
X188550000Y-79240000D01*
D47*
%TO.N,SWDIO*%
X205090000Y-72680000D02*
X206550000Y-74140000D01*
X200387500Y-72680000D02*
X205090000Y-72680000D01*
%TO.N,SWO*%
X199200000Y-71492500D02*
X199200000Y-71055001D01*
X199200000Y-71055001D02*
X200345001Y-69910000D01*
X200345001Y-69910000D02*
X206610000Y-69910000D01*
%TO.N,SWCLK*%
X206170000Y-72430000D02*
X206570000Y-72030000D01*
X200387500Y-72180000D02*
X200587500Y-72380000D01*
X200587500Y-72380000D02*
X200862608Y-72380000D01*
X200862608Y-72380000D02*
X200912608Y-72430000D01*
X200912608Y-72430000D02*
X206170000Y-72430000D01*
D48*
%TO.N,D+*%
X182700000Y-75707500D02*
X182560000Y-75567500D01*
X182560000Y-75567500D02*
X182560000Y-74720000D01*
X200387500Y-73180000D02*
X201270000Y-73180000D01*
X201270000Y-73180000D02*
X201290000Y-73200000D01*
%TO.N,D-*%
X200387500Y-73680000D02*
X201280000Y-73680000D01*
X183010000Y-74710000D02*
X183010000Y-73742500D01*
X183010000Y-73742500D02*
X182700000Y-73432500D01*
X201280000Y-73680000D02*
X201290000Y-73690000D01*
%TO.N,Net-(SW6-B)*%
X186820000Y-80530000D02*
X186360000Y-80070000D01*
X192730000Y-80530000D02*
X186820000Y-80530000D01*
%TO.N,GND*%
X175120001Y-76080000D02*
X175120000Y-76850000D01*
X193830000Y-80215000D02*
X193867500Y-80215000D01*
X193867500Y-80215000D02*
X194222500Y-80570000D01*
%TO.N,BAT+*%
X174910000Y-82900000D02*
X174160000Y-82150000D01*
X174160000Y-74640000D02*
X174620002Y-74179998D01*
X174160000Y-82150000D02*
X174160000Y-74640000D01*
D47*
%TO.N,Net-(R10-Pad1)*%
X185575000Y-67360000D02*
X185750000Y-67185000D01*
X184800000Y-67360000D02*
X185575000Y-67360000D01*
X186740000Y-67192500D02*
X185757500Y-67192500D01*
X180000000Y-67360000D02*
X184800000Y-67360000D01*
X185757500Y-67192500D02*
X185750000Y-67185000D01*
X185750000Y-67445000D02*
X185899999Y-67445000D01*
%TO.N,Net-(R11-Pad1)*%
X189952500Y-69280000D02*
X189952500Y-68290000D01*
X191630000Y-67420000D02*
X190802500Y-67420000D01*
X191580000Y-67370000D02*
X191630000Y-67420000D01*
X189952500Y-68290000D02*
X189942500Y-68280000D01*
X190802500Y-67420000D02*
X189942500Y-68280000D01*
X187460000Y-67370000D02*
X191580000Y-67370000D01*
X191660000Y-67450000D02*
X191630000Y-67420000D01*
%TO.N,Net-(J1-D--PadA7)*%
X180800000Y-74610000D02*
X180680000Y-74730000D01*
X180800000Y-73432500D02*
X180800000Y-74610000D01*
%TO.N,Net-(J1-D+-PadA6)*%
X180492500Y-75400000D02*
X180800000Y-75707500D01*
X179870000Y-75400000D02*
X180492500Y-75400000D01*
%TD*%
%TA.AperFunction,Conductor*%
%TO.N,+3.3V*%
G36*
X201070000Y-75540000D02*
G01*
X200118949Y-75557776D01*
X200121197Y-75557261D01*
X201070000Y-75535819D01*
X201070000Y-75540000D01*
G37*
%TD.AperFunction*%
%TD*%
%TA.AperFunction,Conductor*%
%TO.N,GNDGPS*%
G36*
X184238618Y-70182155D02*
G01*
X184286446Y-70233088D01*
X184299801Y-70289257D01*
X184290000Y-76679999D01*
X184290000Y-76680000D01*
X184637314Y-76702651D01*
X184702930Y-76726657D01*
X184745152Y-76782326D01*
X184753194Y-76822880D01*
X184776505Y-77646538D01*
X184758725Y-77714107D01*
X184707237Y-77761338D01*
X184656553Y-77773982D01*
X183868374Y-77799407D01*
X183832244Y-77795236D01*
X181068263Y-77053680D01*
X181008614Y-77017295D01*
X180978105Y-76954439D01*
X180976488Y-76938692D01*
X180964884Y-76637002D01*
X180981977Y-76569258D01*
X181032984Y-76521508D01*
X181087085Y-76508251D01*
X183140000Y-76480000D01*
X183140000Y-74990690D01*
X183159685Y-74923651D01*
X183182823Y-74900097D01*
X183181964Y-74899238D01*
X183190598Y-74890603D01*
X183190597Y-74890603D01*
X183190601Y-74890601D01*
X183245966Y-74807740D01*
X183265408Y-74710000D01*
X183265408Y-74709997D01*
X183245966Y-74612261D01*
X183245966Y-74612260D01*
X183231396Y-74590454D01*
X183210520Y-74523778D01*
X183210500Y-74521566D01*
X183210500Y-73702619D01*
X183210499Y-73702616D01*
X183179976Y-73628926D01*
X183179975Y-73628925D01*
X183173191Y-73618772D01*
X183176644Y-73616464D01*
X183154141Y-73575253D01*
X183151321Y-73547019D01*
X183178244Y-71775514D01*
X183198945Y-71708783D01*
X183252439Y-71663836D01*
X183295348Y-71653591D01*
X183540000Y-71640000D01*
X183549184Y-70308313D01*
X183569329Y-70241415D01*
X183622448Y-70196025D01*
X183668223Y-70185271D01*
X184170845Y-70165166D01*
X184238618Y-70182155D01*
G37*
%TD.AperFunction*%
%TD*%
%TA.AperFunction,Conductor*%
%TO.N,Net-(SW6-B)*%
G36*
X193704300Y-79433264D02*
G01*
X193752839Y-79483522D01*
X193766957Y-79543864D01*
X193762540Y-79738200D01*
X193741337Y-79804774D01*
X193726254Y-79823063D01*
X193398383Y-80150935D01*
X193381778Y-80175785D01*
X193381777Y-80175788D01*
X193373977Y-80215000D01*
X193384161Y-80266191D01*
X193383551Y-80266312D01*
X193390000Y-80298728D01*
X193390000Y-80310000D01*
X193627898Y-80522409D01*
X193664795Y-80581741D01*
X193669303Y-80616436D01*
X193661372Y-81258818D01*
X193640861Y-81325609D01*
X193587496Y-81370709D01*
X193549325Y-81380710D01*
X193398429Y-81395313D01*
X193329805Y-81382178D01*
X193311308Y-81370502D01*
X193048700Y-81170296D01*
X192388821Y-80667219D01*
X192347442Y-80610920D01*
X192340000Y-80568608D01*
X192340000Y-80483490D01*
X192359685Y-80416451D01*
X192378909Y-80393293D01*
X192513509Y-80266312D01*
X193366960Y-79461169D01*
X193429231Y-79429485D01*
X193445352Y-79427548D01*
X193636296Y-79417227D01*
X193704300Y-79433264D01*
G37*
%TD.AperFunction*%
%TD*%
%TA.AperFunction,Conductor*%
%TO.N,+3.3V*%
G36*
X194666168Y-73880021D02*
G01*
X195110000Y-74050000D01*
X195822186Y-74050000D01*
X195889225Y-74069685D01*
X195934980Y-74122489D01*
X195946129Y-74177756D01*
X195943644Y-74259756D01*
X195921938Y-74326169D01*
X195867772Y-74370303D01*
X195819701Y-74380000D01*
X195060000Y-74380000D01*
X195059999Y-74380001D01*
X195060620Y-74404850D01*
X195042616Y-74472360D01*
X195024344Y-74495624D01*
X195019982Y-74499985D01*
X194983959Y-74553898D01*
X194983956Y-74553904D01*
X194974500Y-74601445D01*
X194974500Y-74702876D01*
X194954815Y-74769915D01*
X194902011Y-74815670D01*
X194878072Y-74823772D01*
X194760024Y-74850695D01*
X194690286Y-74846410D01*
X194684181Y-74843323D01*
X194684023Y-74843707D01*
X194672739Y-74839033D01*
X194575002Y-74819592D01*
X194574998Y-74819592D01*
X194477261Y-74839033D01*
X194394399Y-74894399D01*
X194339033Y-74977261D01*
X194319656Y-75074673D01*
X194288444Y-75135351D01*
X194078000Y-75359521D01*
X194017765Y-75394925D01*
X193984496Y-75398612D01*
X193365217Y-75383130D01*
X193298690Y-75361776D01*
X193254269Y-75307845D01*
X193244392Y-75254821D01*
X193257039Y-74894399D01*
X193257750Y-74874118D01*
X193279774Y-74807811D01*
X193313637Y-74774800D01*
X193900000Y-74390000D01*
X193915096Y-74012596D01*
X193937444Y-73946398D01*
X193992035Y-73902790D01*
X194042642Y-73893607D01*
X194115092Y-73895738D01*
X194259990Y-73900000D01*
X194259992Y-73899999D01*
X194260000Y-73900000D01*
X194612064Y-73872205D01*
X194666168Y-73880021D01*
G37*
%TD.AperFunction*%
%TD*%
%TA.AperFunction,Conductor*%
%TO.N,+3.3V*%
G36*
X199798786Y-66457276D02*
G01*
X199865366Y-66478462D01*
X199909923Y-66532281D01*
X199920000Y-66581245D01*
X199920000Y-68590402D01*
X199900315Y-68657441D01*
X199873462Y-68687230D01*
X198403965Y-69862828D01*
X198339319Y-69889336D01*
X198326503Y-69890000D01*
X196440166Y-69890000D01*
X196415974Y-69887617D01*
X196375169Y-69879500D01*
X195899834Y-69879500D01*
X195859024Y-69887618D01*
X195834835Y-69890000D01*
X195500000Y-69890000D01*
X195500000Y-70659999D01*
X195924535Y-72042206D01*
X195930000Y-72078613D01*
X195930000Y-72184659D01*
X195910315Y-72251698D01*
X195857511Y-72297453D01*
X195804667Y-72308652D01*
X195095332Y-72301025D01*
X195028508Y-72280621D01*
X194983323Y-72227328D01*
X194976493Y-72207606D01*
X194934412Y-72042206D01*
X194283828Y-69485046D01*
X194280000Y-69454472D01*
X194280000Y-68814000D01*
X194299685Y-68746961D01*
X194352489Y-68701206D01*
X194404000Y-68690000D01*
X194631880Y-68690000D01*
X194645004Y-68682834D01*
X194671362Y-68680000D01*
X197800000Y-68680000D01*
X197800000Y-67100472D01*
X197814124Y-67042998D01*
X198081268Y-66532281D01*
X198104314Y-66488222D01*
X198152828Y-66437945D01*
X198216972Y-66421729D01*
X199798786Y-66457276D01*
G37*
%TD.AperFunction*%
%TD*%
%TA.AperFunction,Conductor*%
%TO.N,GND*%
G36*
X207592539Y-65170185D02*
G01*
X207638294Y-65222989D01*
X207649500Y-65274500D01*
X207649500Y-83825500D01*
X207629815Y-83892539D01*
X207577011Y-83938294D01*
X207525500Y-83949500D01*
X173724500Y-83949500D01*
X173657461Y-83929815D01*
X173611706Y-83877011D01*
X173600500Y-83825500D01*
X173600500Y-66838129D01*
X173620185Y-66771090D01*
X173672989Y-66725335D01*
X173742147Y-66715391D01*
X173805703Y-66744416D01*
X173827599Y-66769234D01*
X173846496Y-66797516D01*
X173846497Y-66797517D01*
X173896275Y-66830777D01*
X173896278Y-66830779D01*
X173896281Y-66830779D01*
X173896282Y-66830780D01*
X173940177Y-66839512D01*
X173940180Y-66839512D01*
X174819827Y-66839513D01*
X174863723Y-66830781D01*
X174900937Y-66805915D01*
X174939286Y-66767565D01*
X175000607Y-66734080D01*
X175070299Y-66739064D01*
X175114648Y-66767565D01*
X175858181Y-67511098D01*
X175891666Y-67572421D01*
X175894500Y-67598779D01*
X175894500Y-69585142D01*
X175894499Y-69585156D01*
X175894499Y-69684853D01*
X175894500Y-69684858D01*
X175918772Y-69743457D01*
X175928829Y-69767735D01*
X175928830Y-69767736D01*
X175992264Y-69831170D01*
X175992265Y-69831170D01*
X176009705Y-69848610D01*
X177809259Y-71648164D01*
X177809262Y-71648168D01*
X177816330Y-71655236D01*
X177879764Y-71718670D01*
X177893380Y-71724309D01*
X177896195Y-71725476D01*
X177896198Y-71725477D01*
X177896200Y-71725478D01*
X177896199Y-71725478D01*
X177948095Y-71746974D01*
X178002499Y-71790814D01*
X178024564Y-71857108D01*
X178007285Y-71924808D01*
X177988326Y-71949215D01*
X177964504Y-71973037D01*
X177901905Y-72081463D01*
X177895311Y-72106073D01*
X177869500Y-72202399D01*
X177869500Y-72327601D01*
X177879477Y-72364835D01*
X177901905Y-72448537D01*
X177901908Y-72448542D01*
X177933638Y-72503501D01*
X177950111Y-72571401D01*
X177927258Y-72637428D01*
X177872337Y-72680618D01*
X177826251Y-72689500D01*
X176452336Y-72689500D01*
X176385297Y-72669815D01*
X176339542Y-72617011D01*
X176338902Y-72615586D01*
X176310599Y-72551486D01*
X176228514Y-72469401D01*
X176169703Y-72443433D01*
X176116327Y-72398346D01*
X176095800Y-72331560D01*
X176114639Y-72264278D01*
X176166863Y-72217862D01*
X176169600Y-72216611D01*
X176228514Y-72190599D01*
X176310599Y-72108514D01*
X176357488Y-72002320D01*
X176360500Y-71976357D01*
X176360499Y-71488644D01*
X176357488Y-71462680D01*
X176310599Y-71356486D01*
X176228514Y-71274401D01*
X176208765Y-71265681D01*
X176122321Y-71227512D01*
X176096357Y-71224500D01*
X175683651Y-71224500D01*
X175683627Y-71224502D01*
X175657685Y-71227510D01*
X175657675Y-71227513D01*
X175551486Y-71274400D01*
X175469402Y-71356484D01*
X175436716Y-71430509D01*
X175391629Y-71483884D01*
X175324843Y-71504411D01*
X175257561Y-71485572D01*
X175254407Y-71483533D01*
X175235928Y-71471187D01*
X175217739Y-71459033D01*
X175217735Y-71459032D01*
X175144677Y-71444500D01*
X175144674Y-71444500D01*
X174895326Y-71444500D01*
X174895323Y-71444500D01*
X174822264Y-71459032D01*
X174822260Y-71459033D01*
X174739399Y-71514399D01*
X174684033Y-71597260D01*
X174684032Y-71597264D01*
X174669500Y-71670321D01*
X174669500Y-72154678D01*
X174684032Y-72227735D01*
X174684035Y-72227742D01*
X174699649Y-72251111D01*
X174720526Y-72317788D01*
X174702040Y-72385168D01*
X174699649Y-72388889D01*
X174684035Y-72412257D01*
X174684032Y-72412264D01*
X174669500Y-72485321D01*
X174669500Y-72969678D01*
X174684032Y-73042735D01*
X174684033Y-73042739D01*
X174684034Y-73042740D01*
X174739399Y-73125601D01*
X174822260Y-73180966D01*
X174832415Y-73187751D01*
X174831074Y-73189757D01*
X174872352Y-73223016D01*
X174894422Y-73289309D01*
X174894501Y-73293743D01*
X174894501Y-73505949D01*
X174874816Y-73572988D01*
X174822012Y-73618743D01*
X174765914Y-73628095D01*
X174765914Y-73629498D01*
X174480180Y-73629498D01*
X174436284Y-73638229D01*
X174436277Y-73638232D01*
X174386498Y-73671493D01*
X174386497Y-73671494D01*
X174353236Y-73721273D01*
X174353233Y-73721280D01*
X174344502Y-73765175D01*
X174344502Y-74049875D01*
X174324817Y-74116914D01*
X174308183Y-74137556D01*
X173947637Y-74498101D01*
X173947636Y-74498102D01*
X173909500Y-74590170D01*
X173909500Y-82199829D01*
X173947636Y-82291897D01*
X174251487Y-82595748D01*
X174284972Y-82657071D01*
X174279988Y-82726763D01*
X174279749Y-82727398D01*
X174273763Y-82743180D01*
X174273762Y-82743185D01*
X174254722Y-82899999D01*
X174254722Y-82900000D01*
X174273762Y-83056818D01*
X174329780Y-83204523D01*
X174419517Y-83334530D01*
X174537760Y-83439283D01*
X174537762Y-83439284D01*
X174677634Y-83512696D01*
X174831014Y-83550500D01*
X174831015Y-83550500D01*
X174988985Y-83550500D01*
X175142365Y-83512696D01*
X175193915Y-83485640D01*
X175282240Y-83439283D01*
X175400483Y-83334530D01*
X175490220Y-83204523D01*
X175546237Y-83056818D01*
X175565278Y-82900000D01*
X175563844Y-82888185D01*
X175546237Y-82743181D01*
X175511822Y-82652438D01*
X175490220Y-82595477D01*
X175400483Y-82465470D01*
X175282240Y-82360717D01*
X175282238Y-82360716D01*
X175282237Y-82360715D01*
X175142365Y-82287303D01*
X174988986Y-82249500D01*
X174988985Y-82249500D01*
X174831015Y-82249500D01*
X174831014Y-82249500D01*
X174724622Y-82275722D01*
X174654820Y-82272652D01*
X174607267Y-82243006D01*
X174446819Y-82082558D01*
X174413334Y-82021235D01*
X174410500Y-81994877D01*
X174410500Y-81812471D01*
X178449010Y-81812471D01*
X178449010Y-83566328D01*
X182060011Y-83566328D01*
X182060011Y-82417500D01*
X184959722Y-82417500D01*
X184978762Y-82574318D01*
X185034780Y-82722023D01*
X185124517Y-82852030D01*
X185242760Y-82956783D01*
X185242762Y-82956784D01*
X185382634Y-83030196D01*
X185536014Y-83068000D01*
X185536015Y-83068000D01*
X185693985Y-83068000D01*
X185847365Y-83030196D01*
X185941272Y-82980909D01*
X185987240Y-82956783D01*
X186105483Y-82852030D01*
X186195220Y-82722023D01*
X186251237Y-82574318D01*
X186270278Y-82417500D01*
X187959722Y-82417500D01*
X187978762Y-82574318D01*
X188034780Y-82722023D01*
X188124517Y-82852030D01*
X188242760Y-82956783D01*
X188242762Y-82956784D01*
X188382634Y-83030196D01*
X188536014Y-83068000D01*
X188536015Y-83068000D01*
X188693985Y-83068000D01*
X188847365Y-83030196D01*
X188941272Y-82980909D01*
X188987240Y-82956783D01*
X189105483Y-82852030D01*
X189195220Y-82722023D01*
X189251237Y-82574318D01*
X189270278Y-82417500D01*
X189259961Y-82332527D01*
X189251237Y-82260681D01*
X189211596Y-82156158D01*
X189195220Y-82112977D01*
X189105483Y-81982970D01*
X188987240Y-81878217D01*
X188987238Y-81878216D01*
X188987237Y-81878215D01*
X188847365Y-81804803D01*
X188693986Y-81767000D01*
X188693985Y-81767000D01*
X188536015Y-81767000D01*
X188536014Y-81767000D01*
X188382634Y-81804803D01*
X188242762Y-81878215D01*
X188124516Y-81982971D01*
X188034781Y-82112975D01*
X188034780Y-82112976D01*
X187978762Y-82260681D01*
X187959722Y-82417499D01*
X187959722Y-82417500D01*
X186270278Y-82417500D01*
X186259961Y-82332527D01*
X186251237Y-82260681D01*
X186211596Y-82156158D01*
X186195220Y-82112977D01*
X186105483Y-81982970D01*
X185987240Y-81878217D01*
X185987238Y-81878216D01*
X185987237Y-81878215D01*
X185847365Y-81804803D01*
X185693986Y-81767000D01*
X185693985Y-81767000D01*
X185536015Y-81767000D01*
X185536014Y-81767000D01*
X185382634Y-81804803D01*
X185242762Y-81878215D01*
X185124516Y-81982971D01*
X185034781Y-82112975D01*
X185034780Y-82112976D01*
X184978762Y-82260681D01*
X184959722Y-82417499D01*
X184959722Y-82417500D01*
X182060011Y-82417500D01*
X182060011Y-81812471D01*
X178449010Y-81812471D01*
X174410500Y-81812471D01*
X174410500Y-78144135D01*
X174430185Y-78077096D01*
X174482989Y-78031341D01*
X174540803Y-78020504D01*
X174540803Y-78020500D01*
X174540826Y-78020500D01*
X174541669Y-78020342D01*
X174544371Y-78020498D01*
X174544384Y-78020500D01*
X174544397Y-78020500D01*
X175060614Y-78020500D01*
X175060616Y-78020500D01*
X175086156Y-78017537D01*
X175190640Y-77971403D01*
X175271403Y-77890640D01*
X175271403Y-77890639D01*
X175279528Y-77882515D01*
X175281662Y-77884649D01*
X175321818Y-77851865D01*
X175391238Y-77843953D01*
X175453916Y-77874829D01*
X175461248Y-77883291D01*
X175546740Y-77968783D01*
X175580225Y-78030106D01*
X175575241Y-78099798D01*
X175546742Y-78144144D01*
X175529401Y-78161484D01*
X175482512Y-78267678D01*
X175479500Y-78293639D01*
X175479500Y-78706348D01*
X175479502Y-78706372D01*
X175482510Y-78732314D01*
X175482513Y-78732324D01*
X175529400Y-78838513D01*
X175529401Y-78838514D01*
X175611486Y-78920599D01*
X175717680Y-78967488D01*
X175743643Y-78970500D01*
X176231356Y-78970499D01*
X176239726Y-78969528D01*
X176257314Y-78967489D01*
X176257315Y-78967488D01*
X176257320Y-78967488D01*
X176363514Y-78920599D01*
X176445599Y-78838514D01*
X176492488Y-78732320D01*
X176495500Y-78706357D01*
X176495499Y-78293644D01*
X176492488Y-78267680D01*
X176445599Y-78161486D01*
X176378259Y-78094146D01*
X176344774Y-78032823D01*
X176349758Y-77963131D01*
X176378259Y-77918784D01*
X176384829Y-77912214D01*
X176406403Y-77890640D01*
X176452537Y-77786156D01*
X176455500Y-77760616D01*
X176455500Y-77533767D01*
X176475185Y-77466728D01*
X176527989Y-77420973D01*
X176597147Y-77411029D01*
X176660703Y-77440054D01*
X176667181Y-77446086D01*
X176713181Y-77492086D01*
X176746666Y-77553409D01*
X176749500Y-77579765D01*
X176749500Y-77656359D01*
X176752510Y-77682314D01*
X176752513Y-77682324D01*
X176799400Y-77788513D01*
X176799401Y-77788514D01*
X176881486Y-77870599D01*
X176987680Y-77917488D01*
X177013643Y-77920500D01*
X177426356Y-77920499D01*
X177441145Y-77918784D01*
X177452314Y-77917489D01*
X177452315Y-77917488D01*
X177452320Y-77917488D01*
X177558514Y-77870599D01*
X177640599Y-77788514D01*
X177687488Y-77682320D01*
X177690500Y-77656357D01*
X177690499Y-77168644D01*
X177689632Y-77161169D01*
X177687489Y-77142685D01*
X177687487Y-77142678D01*
X177684635Y-77136219D01*
X177644139Y-77044504D01*
X177635068Y-76975230D01*
X177664891Y-76912044D01*
X177724140Y-76875013D01*
X177794004Y-76875893D01*
X177807658Y-76880986D01*
X177867680Y-76907488D01*
X177893643Y-76910500D01*
X178381356Y-76910499D01*
X178389726Y-76909528D01*
X178407314Y-76907489D01*
X178407315Y-76907488D01*
X178407320Y-76907488D01*
X178513514Y-76860599D01*
X178595599Y-76778514D01*
X178605267Y-76756616D01*
X178650351Y-76703240D01*
X178676291Y-76690179D01*
X178692568Y-76684256D01*
X178715794Y-76664766D01*
X178779802Y-76636754D01*
X178848794Y-76647793D01*
X178900866Y-76694379D01*
X178919500Y-76759756D01*
X178919500Y-77236186D01*
X178899815Y-77303225D01*
X178875207Y-77331175D01*
X178836252Y-77363862D01*
X178836249Y-77363865D01*
X178783268Y-77455631D01*
X178783266Y-77455637D01*
X178767073Y-77547470D01*
X178736046Y-77610073D01*
X178676099Y-77645963D01*
X178606264Y-77643746D01*
X178582958Y-77633325D01*
X178528536Y-77601905D01*
X178528537Y-77601905D01*
X178488224Y-77591103D01*
X178407601Y-77569500D01*
X178282399Y-77569500D01*
X178201775Y-77591103D01*
X178161463Y-77601905D01*
X178053037Y-77664504D01*
X178053034Y-77664506D01*
X177964506Y-77753034D01*
X177964504Y-77753037D01*
X177901905Y-77861463D01*
X177886894Y-77917486D01*
X177869500Y-77982399D01*
X177869500Y-78107601D01*
X177901905Y-78228536D01*
X177964505Y-78336964D01*
X178053036Y-78425495D01*
X178161464Y-78488095D01*
X178282399Y-78520500D01*
X178282401Y-78520500D01*
X178407599Y-78520500D01*
X178407601Y-78520500D01*
X178528536Y-78488095D01*
X178636964Y-78425495D01*
X178725495Y-78336964D01*
X178788095Y-78228536D01*
X178820500Y-78107601D01*
X178820500Y-77982399D01*
X178820499Y-77982398D01*
X178820426Y-77981838D01*
X178820500Y-77981363D01*
X178820500Y-77974271D01*
X178821606Y-77974271D01*
X178831191Y-77912803D01*
X178877570Y-77860546D01*
X178944838Y-77841660D01*
X178985767Y-77849127D01*
X179017014Y-77860500D01*
X179017017Y-77860500D01*
X179122983Y-77860500D01*
X179122986Y-77860500D01*
X179210372Y-77828695D01*
X179222566Y-77824257D01*
X179222566Y-77824256D01*
X179222568Y-77824256D01*
X179303748Y-77756138D01*
X179303748Y-77756136D01*
X179305294Y-77754840D01*
X179369302Y-77726827D01*
X179438294Y-77737866D01*
X179464706Y-77754840D01*
X179466251Y-77756136D01*
X179466252Y-77756138D01*
X179547432Y-77824256D01*
X179619965Y-77850655D01*
X179665234Y-77879495D01*
X181160565Y-79374825D01*
X181160568Y-79374829D01*
X181238103Y-79452364D01*
X181257521Y-79460407D01*
X181257522Y-79460408D01*
X181257523Y-79460408D01*
X181330172Y-79490501D01*
X181330173Y-79490501D01*
X181444262Y-79490501D01*
X181444270Y-79490500D01*
X188394877Y-79490500D01*
X188461916Y-79510185D01*
X188482558Y-79526819D01*
X189023558Y-80067819D01*
X189057043Y-80129142D01*
X189052059Y-80198834D01*
X189010187Y-80254767D01*
X188944723Y-80279184D01*
X188935877Y-80279500D01*
X186975123Y-80279500D01*
X186908084Y-80259815D01*
X186887442Y-80243181D01*
X186682265Y-80038004D01*
X186648780Y-79976681D01*
X186647838Y-79971900D01*
X186646734Y-79965637D01*
X186610981Y-79903710D01*
X186593750Y-79873865D01*
X186593749Y-79873864D01*
X186593748Y-79873862D01*
X186553392Y-79839999D01*
X186512568Y-79805743D01*
X186512566Y-79805742D01*
X186430533Y-79775886D01*
X186412986Y-79769500D01*
X186307014Y-79769500D01*
X186307011Y-79769500D01*
X186307011Y-79769501D01*
X186207433Y-79805742D01*
X186207431Y-79805743D01*
X186126254Y-79873860D01*
X186126249Y-79873865D01*
X186073268Y-79965631D01*
X186073266Y-79965637D01*
X186055249Y-80067819D01*
X186054864Y-80070000D01*
X186071695Y-80165456D01*
X186073266Y-80174362D01*
X186073268Y-80174368D01*
X186126249Y-80266134D01*
X186126250Y-80266135D01*
X186126252Y-80266138D01*
X186207432Y-80334256D01*
X186279965Y-80360655D01*
X186325234Y-80389495D01*
X186607636Y-80671897D01*
X186678103Y-80742364D01*
X186770172Y-80780500D01*
X192239052Y-80780500D01*
X192306091Y-80800185D01*
X192314231Y-80805889D01*
X192730679Y-81123379D01*
X192772058Y-81179678D01*
X192779500Y-81221990D01*
X192779500Y-81590616D01*
X192782463Y-81616156D01*
X192782463Y-81616158D01*
X192821419Y-81704384D01*
X192828597Y-81720640D01*
X192909360Y-81801403D01*
X193013844Y-81847537D01*
X193039384Y-81850500D01*
X193039386Y-81850500D01*
X193440614Y-81850500D01*
X193440616Y-81850500D01*
X193466156Y-81847537D01*
X193570640Y-81801403D01*
X193651403Y-81720640D01*
X193697537Y-81616156D01*
X193700500Y-81590616D01*
X193700500Y-81536270D01*
X193720185Y-81469231D01*
X193742220Y-81443501D01*
X193746770Y-81439466D01*
X193789510Y-81371258D01*
X193810021Y-81304467D01*
X193816860Y-81260738D01*
X193824791Y-80618356D01*
X193824790Y-80618354D01*
X193824791Y-80618345D01*
X193824227Y-80608726D01*
X193823507Y-80596400D01*
X193818999Y-80561705D01*
X193816357Y-80554302D01*
X193796845Y-80499626D01*
X193796844Y-80499623D01*
X193762536Y-80444454D01*
X193759950Y-80440295D01*
X193737727Y-80413865D01*
X193731463Y-80406416D01*
X193634582Y-80319915D01*
X193597685Y-80260582D01*
X193598723Y-80190721D01*
X193629483Y-80139742D01*
X193762401Y-80006824D01*
X193823721Y-79973343D01*
X193893413Y-79978327D01*
X193943792Y-80013306D01*
X193946368Y-80016279D01*
X194095535Y-80165446D01*
X194095546Y-80165456D01*
X194105783Y-80174818D01*
X194122744Y-80188993D01*
X194173355Y-80217218D01*
X194239649Y-80239283D01*
X194283206Y-80247142D01*
X194380964Y-80250632D01*
X194447258Y-80272696D01*
X194475739Y-80300153D01*
X194569500Y-80425167D01*
X194586635Y-80444448D01*
X194586639Y-80444451D01*
X194586644Y-80444457D01*
X194616341Y-80472747D01*
X194616344Y-80472749D01*
X194616347Y-80472751D01*
X194661661Y-80499623D01*
X194676247Y-80508273D01*
X194742798Y-80529548D01*
X194768082Y-80533799D01*
X194790816Y-80537623D01*
X194790739Y-80538076D01*
X194824353Y-80546853D01*
X194893844Y-80577537D01*
X194919384Y-80580500D01*
X194919386Y-80580500D01*
X195320614Y-80580500D01*
X195320616Y-80580500D01*
X195346156Y-80577537D01*
X195379527Y-80562801D01*
X195432563Y-80552270D01*
X195479265Y-80553382D01*
X195545816Y-80574657D01*
X195549136Y-80576984D01*
X196175634Y-81031577D01*
X196819429Y-81498721D01*
X196869841Y-81535300D01*
X196912541Y-81590604D01*
X196918562Y-81660214D01*
X196910453Y-81685746D01*
X196902463Y-81703841D01*
X196902463Y-81703843D01*
X196899500Y-81729380D01*
X196899500Y-82130619D01*
X196902463Y-82156156D01*
X196902463Y-82156158D01*
X196943678Y-82249500D01*
X196948597Y-82260640D01*
X197029360Y-82341403D01*
X197133844Y-82387537D01*
X197159384Y-82390500D01*
X197159385Y-82390500D01*
X197161255Y-82390717D01*
X197211974Y-82408299D01*
X197230268Y-82419563D01*
X197297218Y-82439547D01*
X197341000Y-82446041D01*
X198846556Y-82452761D01*
X198913504Y-82472745D01*
X198959023Y-82525753D01*
X198970000Y-82576760D01*
X198970000Y-82930000D01*
X199522822Y-82930000D01*
X199573990Y-82945025D01*
X199574998Y-82942594D01*
X199586275Y-82947265D01*
X199586278Y-82947267D01*
X199586281Y-82947267D01*
X199586282Y-82947268D01*
X199630177Y-82956000D01*
X199630180Y-82956000D01*
X199909822Y-82956000D01*
X199953717Y-82947268D01*
X199953717Y-82947267D01*
X199953722Y-82947267D01*
X199953726Y-82947264D01*
X199965002Y-82942594D01*
X199965760Y-82944425D01*
X200017780Y-82928134D01*
X200074539Y-82943701D01*
X200074998Y-82942594D01*
X200083810Y-82946244D01*
X200085161Y-82946615D01*
X200085987Y-82947146D01*
X200086275Y-82947265D01*
X200086278Y-82947267D01*
X200086281Y-82947267D01*
X200086282Y-82947268D01*
X200130177Y-82956000D01*
X200130180Y-82956000D01*
X200409822Y-82956000D01*
X200453717Y-82947268D01*
X200453717Y-82947267D01*
X200453722Y-82947267D01*
X200453726Y-82947264D01*
X200465002Y-82942594D01*
X200465760Y-82944425D01*
X200517780Y-82928134D01*
X200574539Y-82943701D01*
X200574998Y-82942594D01*
X200583810Y-82946244D01*
X200585161Y-82946615D01*
X200585987Y-82947146D01*
X200586275Y-82947265D01*
X200586278Y-82947267D01*
X200586281Y-82947267D01*
X200586282Y-82947268D01*
X200630177Y-82956000D01*
X200630180Y-82956000D01*
X200909822Y-82956000D01*
X200953717Y-82947268D01*
X200953717Y-82947267D01*
X200953722Y-82947267D01*
X200953726Y-82947264D01*
X200965002Y-82942594D01*
X200965760Y-82944425D01*
X201017780Y-82928134D01*
X201074539Y-82943701D01*
X201074998Y-82942594D01*
X201083810Y-82946244D01*
X201085161Y-82946615D01*
X201085987Y-82947146D01*
X201086275Y-82947265D01*
X201086278Y-82947267D01*
X201086281Y-82947267D01*
X201086282Y-82947268D01*
X201130177Y-82956000D01*
X201130180Y-82956000D01*
X201409822Y-82956000D01*
X201453717Y-82947268D01*
X201453717Y-82947267D01*
X201453722Y-82947267D01*
X201453726Y-82947264D01*
X201465002Y-82942594D01*
X201466127Y-82945312D01*
X201514961Y-82930020D01*
X201517178Y-82930000D01*
X202070000Y-82930000D01*
X202095181Y-82904819D01*
X202156504Y-82871334D01*
X202182862Y-82868500D01*
X203170733Y-82868500D01*
X203237772Y-82888185D01*
X203258414Y-82904819D01*
X203273181Y-82919586D01*
X203306666Y-82980909D01*
X203309500Y-83007267D01*
X203309500Y-83355619D01*
X203312463Y-83381156D01*
X203312463Y-83381158D01*
X203338128Y-83439283D01*
X203358597Y-83485640D01*
X203439360Y-83566403D01*
X203543844Y-83612537D01*
X203569384Y-83615500D01*
X203569386Y-83615500D01*
X203970614Y-83615500D01*
X203970616Y-83615500D01*
X203996156Y-83612537D01*
X204100640Y-83566403D01*
X204181403Y-83485640D01*
X204227537Y-83381156D01*
X204230500Y-83355616D01*
X204230500Y-82839384D01*
X204227537Y-82813844D01*
X204181403Y-82709360D01*
X204100640Y-82628597D01*
X204092515Y-82620472D01*
X204094649Y-82618337D01*
X204061865Y-82578182D01*
X204053953Y-82508762D01*
X204084829Y-82446084D01*
X204093291Y-82438751D01*
X204100638Y-82431403D01*
X204100640Y-82431403D01*
X204181403Y-82350640D01*
X204227537Y-82246156D01*
X204230500Y-82220616D01*
X204230500Y-81704384D01*
X204227537Y-81678844D01*
X204181403Y-81574360D01*
X204100640Y-81493597D01*
X204042519Y-81467934D01*
X203989143Y-81422848D01*
X203968616Y-81356062D01*
X203987455Y-81288780D01*
X204039678Y-81242363D01*
X204092606Y-81230500D01*
X204370079Y-81230500D01*
X204437118Y-81250185D01*
X204482873Y-81302989D01*
X204488011Y-81316186D01*
X204488889Y-81318890D01*
X204502673Y-81345941D01*
X204544689Y-81428403D01*
X204544691Y-81428405D01*
X204544693Y-81428408D01*
X204631591Y-81515306D01*
X204631595Y-81515309D01*
X204631597Y-81515311D01*
X204741107Y-81571109D01*
X204741109Y-81571109D01*
X204741111Y-81571110D01*
X204768670Y-81575474D01*
X204831967Y-81585500D01*
X205368032Y-81585499D01*
X205368037Y-81585499D01*
X205368037Y-81585498D01*
X205438366Y-81574360D01*
X205458888Y-81571110D01*
X205458889Y-81571110D01*
X205458890Y-81571109D01*
X205458893Y-81571109D01*
X205568403Y-81515311D01*
X205655311Y-81428403D01*
X205711109Y-81318893D01*
X205725500Y-81228033D01*
X205725499Y-80566968D01*
X205725499Y-80566966D01*
X205725499Y-80566962D01*
X205711110Y-80476111D01*
X205711110Y-80476110D01*
X205711109Y-80476108D01*
X205711109Y-80476107D01*
X205655311Y-80366597D01*
X205655309Y-80366595D01*
X205655306Y-80366591D01*
X205568408Y-80279693D01*
X205568404Y-80279690D01*
X205568403Y-80279689D01*
X205458893Y-80223891D01*
X205458891Y-80223890D01*
X205458888Y-80223889D01*
X205368033Y-80209500D01*
X204831962Y-80209500D01*
X204831962Y-80209501D01*
X204741111Y-80223889D01*
X204741110Y-80223889D01*
X204631595Y-80279690D01*
X204631591Y-80279693D01*
X204544693Y-80366591D01*
X204544690Y-80366595D01*
X204488889Y-80476111D01*
X204474500Y-80566966D01*
X204474500Y-80655500D01*
X204454815Y-80722539D01*
X204402011Y-80768294D01*
X204350500Y-80779500D01*
X203753026Y-80779500D01*
X203685987Y-80759815D01*
X203640232Y-80707011D01*
X203630288Y-80637853D01*
X203630910Y-80633967D01*
X203635136Y-80610000D01*
X203635136Y-80609999D01*
X203627547Y-80566962D01*
X203616734Y-80505637D01*
X203599687Y-80476111D01*
X203563750Y-80413865D01*
X203563749Y-80413864D01*
X203563748Y-80413862D01*
X203536069Y-80390636D01*
X203482568Y-80345743D01*
X203482566Y-80345742D01*
X203400533Y-80315886D01*
X203382986Y-80309500D01*
X203277014Y-80309500D01*
X203277011Y-80309500D01*
X203277011Y-80309501D01*
X203177434Y-80345742D01*
X203177432Y-80345744D01*
X203141980Y-80375490D01*
X203077974Y-80403502D01*
X203062277Y-80404500D01*
X202192661Y-80404500D01*
X202125622Y-80384815D01*
X202079867Y-80332011D01*
X202068685Y-80282931D01*
X202060000Y-79839999D01*
X201642245Y-79832403D01*
X201575575Y-79811502D01*
X201530788Y-79757875D01*
X201520500Y-79708423D01*
X201520500Y-78991157D01*
X201540185Y-78924118D01*
X201592989Y-78878363D01*
X201645550Y-78867161D01*
X203234290Y-78880624D01*
X203234293Y-78880625D01*
X203258680Y-78880831D01*
X203258681Y-78880832D01*
X203277072Y-78880987D01*
X203293659Y-78882245D01*
X203316293Y-78885500D01*
X203316294Y-78885500D01*
X203771994Y-78885500D01*
X203772009Y-78885500D01*
X203773830Y-78885489D01*
X203776733Y-78885455D01*
X203822203Y-78878100D01*
X203822205Y-78878099D01*
X203822207Y-78878099D01*
X203888753Y-78856855D01*
X203888757Y-78856853D01*
X203888757Y-78856852D01*
X203888763Y-78856851D01*
X203928581Y-78837528D01*
X206622571Y-77015692D01*
X206646696Y-76995543D01*
X206681549Y-76959865D01*
X206708029Y-76914633D01*
X206758885Y-76866725D01*
X206785364Y-76856885D01*
X206802365Y-76852696D01*
X206942240Y-76779283D01*
X207060483Y-76674530D01*
X207150220Y-76544523D01*
X207206237Y-76396818D01*
X207225278Y-76240000D01*
X207221778Y-76211170D01*
X207206237Y-76083181D01*
X207171587Y-75991818D01*
X207150220Y-75935477D01*
X207060483Y-75805470D01*
X206942240Y-75700717D01*
X206942238Y-75700716D01*
X206942237Y-75700715D01*
X206802366Y-75627304D01*
X206756064Y-75615891D01*
X206733786Y-75610400D01*
X206673406Y-75575245D01*
X206670533Y-75572102D01*
X206648642Y-75547306D01*
X206643614Y-75541877D01*
X206589924Y-75509829D01*
X206574497Y-75500620D01*
X206574496Y-75500619D01*
X206507287Y-75481559D01*
X206507282Y-75481558D01*
X206507281Y-75481558D01*
X206463414Y-75475665D01*
X206463413Y-75475664D01*
X205794593Y-75481857D01*
X205727374Y-75462794D01*
X205681132Y-75410415D01*
X205669457Y-75356140D01*
X205675461Y-74923881D01*
X205675476Y-74921722D01*
X205675476Y-74918278D01*
X205675461Y-74916118D01*
X205667174Y-74319468D01*
X205667173Y-74319466D01*
X205667144Y-74317317D01*
X205669866Y-74307543D01*
X205663414Y-74287571D01*
X205652572Y-74238735D01*
X205618826Y-74171233D01*
X205573352Y-74118187D01*
X205572972Y-74117765D01*
X205568405Y-74112687D01*
X205568401Y-74112684D01*
X205499898Y-74070427D01*
X205499894Y-74070426D01*
X205432975Y-74050388D01*
X205432958Y-74050385D01*
X205389190Y-74043854D01*
X201873836Y-74025155D01*
X201841373Y-74028405D01*
X201841367Y-74028406D01*
X201790708Y-74038933D01*
X201752112Y-74057709D01*
X201683216Y-74069334D01*
X201618972Y-74041866D01*
X201601647Y-74021397D01*
X201600722Y-74022174D01*
X201593749Y-74013864D01*
X201593748Y-74013862D01*
X201593745Y-74013860D01*
X201593744Y-74013858D01*
X201576621Y-73999490D01*
X201537920Y-73941318D01*
X201536812Y-73871457D01*
X201548939Y-73842505D01*
X201576734Y-73794363D01*
X201595136Y-73690000D01*
X201576734Y-73585637D01*
X201531332Y-73506998D01*
X201514860Y-73439101D01*
X201531332Y-73383001D01*
X201576734Y-73304363D01*
X201595136Y-73200000D01*
X201594663Y-73197320D01*
X201590085Y-73171356D01*
X201576734Y-73095637D01*
X201574347Y-73091502D01*
X201557873Y-73023602D01*
X201580724Y-72957575D01*
X201635645Y-72914383D01*
X201681733Y-72905500D01*
X204945233Y-72905500D01*
X205012272Y-72925185D01*
X205032914Y-72941819D01*
X205901208Y-73810113D01*
X205934693Y-73871436D01*
X205929709Y-73941128D01*
X205929470Y-73941763D01*
X205913762Y-73983181D01*
X205894722Y-74139999D01*
X205894722Y-74140001D01*
X205907560Y-74245740D01*
X205903549Y-74269859D01*
X205909612Y-74279011D01*
X205911863Y-74289561D01*
X205911968Y-74289536D01*
X205913762Y-74296818D01*
X205964272Y-74430000D01*
X205969780Y-74444523D01*
X206059517Y-74574530D01*
X206177760Y-74679283D01*
X206177762Y-74679284D01*
X206317634Y-74752696D01*
X206471014Y-74790500D01*
X206471015Y-74790500D01*
X206628985Y-74790500D01*
X206782365Y-74752696D01*
X206803308Y-74741704D01*
X206922240Y-74679283D01*
X207040483Y-74574530D01*
X207130220Y-74444523D01*
X207186237Y-74296818D01*
X207205278Y-74140000D01*
X207202630Y-74118187D01*
X207186237Y-73983181D01*
X207162465Y-73920500D01*
X207130220Y-73835477D01*
X207040483Y-73705470D01*
X206922240Y-73600717D01*
X206922238Y-73600716D01*
X206922237Y-73600715D01*
X206782365Y-73527303D01*
X206628986Y-73489500D01*
X206628985Y-73489500D01*
X206471015Y-73489500D01*
X206471014Y-73489500D01*
X206336257Y-73522713D01*
X206266455Y-73519643D01*
X206218902Y-73489997D01*
X205596086Y-72867181D01*
X205562601Y-72805858D01*
X205567585Y-72736166D01*
X205609457Y-72680233D01*
X205674921Y-72655816D01*
X205683767Y-72655500D01*
X206110703Y-72655500D01*
X206110711Y-72655501D01*
X206125145Y-72655501D01*
X206214852Y-72655501D01*
X206214855Y-72655501D01*
X206244240Y-72643328D01*
X206313708Y-72635860D01*
X206335664Y-72641948D01*
X206337629Y-72642693D01*
X206337635Y-72642696D01*
X206491015Y-72680500D01*
X206648985Y-72680500D01*
X206802365Y-72642696D01*
X206826831Y-72629855D01*
X206942240Y-72569283D01*
X207060483Y-72464530D01*
X207150220Y-72334523D01*
X207206237Y-72186818D01*
X207225278Y-72030000D01*
X207223858Y-72018301D01*
X207206237Y-71873181D01*
X207174999Y-71790814D01*
X207150220Y-71725477D01*
X207060483Y-71595470D01*
X206942240Y-71490717D01*
X206942238Y-71490716D01*
X206942237Y-71490715D01*
X206802365Y-71417303D01*
X206648986Y-71379500D01*
X206648985Y-71379500D01*
X206491015Y-71379500D01*
X206491014Y-71379500D01*
X206337634Y-71417303D01*
X206197762Y-71490715D01*
X206079516Y-71595471D01*
X205989781Y-71725475D01*
X205989780Y-71725476D01*
X205933762Y-71873181D01*
X205914722Y-72029999D01*
X205914722Y-72030000D01*
X205919039Y-72065554D01*
X205907579Y-72134477D01*
X205860675Y-72186263D01*
X205795943Y-72204500D01*
X201098522Y-72204500D01*
X201031483Y-72184815D01*
X200985728Y-72132011D01*
X200977718Y-72102290D01*
X200976689Y-72102495D01*
X200963142Y-72034390D01*
X200941713Y-72002320D01*
X200916065Y-71963935D01*
X200887843Y-71945078D01*
X200845609Y-71916857D01*
X200783484Y-71904500D01*
X200783480Y-71904500D01*
X200099500Y-71904500D01*
X200032461Y-71884815D01*
X199986706Y-71832011D01*
X199975500Y-71780500D01*
X199975500Y-71096519D01*
X199975499Y-71096515D01*
X199963142Y-71034390D01*
X199916064Y-70963934D01*
X199858204Y-70925272D01*
X199813399Y-70871659D01*
X199804693Y-70802334D01*
X199834849Y-70739307D01*
X199839396Y-70734509D01*
X200402087Y-70171819D01*
X200463410Y-70138334D01*
X200489768Y-70135500D01*
X205914220Y-70135500D01*
X205981259Y-70155185D01*
X206027014Y-70207989D01*
X206029592Y-70214165D01*
X206029778Y-70214519D01*
X206029780Y-70214523D01*
X206119517Y-70344530D01*
X206237760Y-70449283D01*
X206241799Y-70451403D01*
X206377634Y-70522696D01*
X206531014Y-70560500D01*
X206531015Y-70560500D01*
X206688985Y-70560500D01*
X206842365Y-70522696D01*
X206884655Y-70500500D01*
X206982240Y-70449283D01*
X207100483Y-70344530D01*
X207190220Y-70214523D01*
X207246237Y-70066818D01*
X207265278Y-69910000D01*
X207258279Y-69852353D01*
X207246237Y-69753181D01*
X207198988Y-69628597D01*
X207190220Y-69605477D01*
X207100483Y-69475470D01*
X206982240Y-69370717D01*
X206982238Y-69370716D01*
X206982237Y-69370715D01*
X206842365Y-69297303D01*
X206688986Y-69259500D01*
X206688985Y-69259500D01*
X206531015Y-69259500D01*
X206531014Y-69259500D01*
X206377634Y-69297303D01*
X206237762Y-69370715D01*
X206217015Y-69389095D01*
X206122510Y-69472819D01*
X206119516Y-69475471D01*
X206029781Y-69605475D01*
X206026296Y-69612116D01*
X206024919Y-69611393D01*
X205987986Y-69660172D01*
X205922389Y-69684231D01*
X205914220Y-69684500D01*
X200688769Y-69684500D01*
X200621730Y-69664815D01*
X200575975Y-69612011D01*
X200566031Y-69542853D01*
X200595056Y-69479297D01*
X200601088Y-69472819D01*
X201487088Y-68586819D01*
X201548411Y-68553334D01*
X201574769Y-68550500D01*
X202285703Y-68550500D01*
X202285711Y-68550501D01*
X202300145Y-68550501D01*
X202389852Y-68550501D01*
X202389855Y-68550501D01*
X202428484Y-68534500D01*
X202452624Y-68524501D01*
X202459733Y-68521555D01*
X202472736Y-68516170D01*
X202536170Y-68452736D01*
X202536170Y-68452735D01*
X202553608Y-68435297D01*
X202553609Y-68435294D01*
X203473502Y-67515402D01*
X203534821Y-67481920D01*
X203604513Y-67486904D01*
X203619625Y-67493724D01*
X203685273Y-67528814D01*
X203873868Y-67586024D01*
X204070000Y-67605341D01*
X204266132Y-67586024D01*
X204454727Y-67528814D01*
X204463055Y-67524363D01*
X204601472Y-67450377D01*
X204628538Y-67435910D01*
X204780883Y-67310883D01*
X204905910Y-67158538D01*
X204998814Y-66984727D01*
X205056024Y-66796132D01*
X205075341Y-66600000D01*
X205056024Y-66403868D01*
X204998814Y-66215273D01*
X204998811Y-66215269D01*
X204998811Y-66215266D01*
X204905913Y-66041467D01*
X204905909Y-66041460D01*
X204780883Y-65889116D01*
X204628539Y-65764090D01*
X204628532Y-65764086D01*
X204454733Y-65671188D01*
X204454727Y-65671186D01*
X204266132Y-65613976D01*
X204266129Y-65613975D01*
X204070000Y-65594659D01*
X203873870Y-65613975D01*
X203685266Y-65671188D01*
X203511467Y-65764086D01*
X203511460Y-65764090D01*
X203359116Y-65889116D01*
X203234090Y-66041460D01*
X203234086Y-66041467D01*
X203141188Y-66215266D01*
X203083975Y-66403870D01*
X203064659Y-66600000D01*
X203083975Y-66796129D01*
X203141187Y-66984730D01*
X203176270Y-67050364D01*
X203190512Y-67118767D01*
X203165512Y-67184011D01*
X203154593Y-67196499D01*
X202287914Y-68063181D01*
X202226591Y-68096666D01*
X202200233Y-68099500D01*
X201474855Y-68099500D01*
X201385146Y-68099500D01*
X201385144Y-68099500D01*
X201385142Y-68099501D01*
X201302267Y-68133827D01*
X201302265Y-68133829D01*
X198572264Y-70863831D01*
X198572263Y-70863832D01*
X198521648Y-70914446D01*
X198460325Y-70947930D01*
X198390633Y-70942945D01*
X198365076Y-70929865D01*
X198345609Y-70916857D01*
X198283484Y-70904500D01*
X198283480Y-70904500D01*
X198116520Y-70904500D01*
X198116515Y-70904500D01*
X198054390Y-70916857D01*
X198018891Y-70940578D01*
X197952214Y-70961456D01*
X197884834Y-70942972D01*
X197881109Y-70940578D01*
X197845609Y-70916857D01*
X197783484Y-70904500D01*
X197783480Y-70904500D01*
X197616520Y-70904500D01*
X197616515Y-70904500D01*
X197554390Y-70916857D01*
X197518891Y-70940578D01*
X197452214Y-70961456D01*
X197384834Y-70942972D01*
X197381109Y-70940578D01*
X197345609Y-70916857D01*
X197283484Y-70904500D01*
X197283480Y-70904500D01*
X197116520Y-70904500D01*
X197116515Y-70904500D01*
X197054390Y-70916857D01*
X196983935Y-70963935D01*
X196936857Y-71034390D01*
X196924500Y-71096515D01*
X196924500Y-71888484D01*
X196936857Y-71950609D01*
X196954062Y-71976357D01*
X196983935Y-72021065D01*
X197026169Y-72049285D01*
X197054390Y-72068142D01*
X197116515Y-72080499D01*
X197116519Y-72080500D01*
X197116520Y-72080500D01*
X197283481Y-72080500D01*
X197283482Y-72080499D01*
X197345609Y-72068142D01*
X197381110Y-72044421D01*
X197447784Y-72023543D01*
X197515165Y-72042026D01*
X197518850Y-72044394D01*
X197554391Y-72068142D01*
X197596521Y-72076522D01*
X197616515Y-72080499D01*
X197616519Y-72080500D01*
X197616520Y-72080500D01*
X197783481Y-72080500D01*
X197783482Y-72080499D01*
X197845609Y-72068142D01*
X197881110Y-72044421D01*
X197947784Y-72023543D01*
X198015165Y-72042026D01*
X198018850Y-72044394D01*
X198054391Y-72068142D01*
X198096521Y-72076522D01*
X198116515Y-72080499D01*
X198116519Y-72080500D01*
X198116520Y-72080500D01*
X198283481Y-72080500D01*
X198283482Y-72080499D01*
X198345609Y-72068142D01*
X198381110Y-72044421D01*
X198447784Y-72023543D01*
X198515165Y-72042026D01*
X198518850Y-72044394D01*
X198554391Y-72068142D01*
X198596521Y-72076522D01*
X198616515Y-72080499D01*
X198616519Y-72080500D01*
X198616520Y-72080500D01*
X198783481Y-72080500D01*
X198783482Y-72080499D01*
X198845609Y-72068142D01*
X198881110Y-72044421D01*
X198947784Y-72023543D01*
X199015165Y-72042026D01*
X199018850Y-72044394D01*
X199054391Y-72068142D01*
X199096521Y-72076522D01*
X199116515Y-72080499D01*
X199116519Y-72080500D01*
X199116520Y-72080500D01*
X199283481Y-72080500D01*
X199283482Y-72080499D01*
X199345609Y-72068142D01*
X199381110Y-72044421D01*
X199447784Y-72023543D01*
X199515165Y-72042026D01*
X199518850Y-72044394D01*
X199554391Y-72068142D01*
X199596521Y-72076522D01*
X199616515Y-72080499D01*
X199616519Y-72080500D01*
X199675500Y-72080500D01*
X199742539Y-72100185D01*
X199788294Y-72152989D01*
X199799500Y-72204500D01*
X199799500Y-72263484D01*
X199811857Y-72325609D01*
X199835578Y-72361109D01*
X199856456Y-72427786D01*
X199837972Y-72495166D01*
X199835578Y-72498891D01*
X199811857Y-72534390D01*
X199799500Y-72596515D01*
X199799500Y-72763484D01*
X199811857Y-72825609D01*
X199835578Y-72861109D01*
X199856456Y-72927786D01*
X199837972Y-72995166D01*
X199835578Y-72998891D01*
X199811857Y-73034390D01*
X199799500Y-73096515D01*
X199799500Y-73263484D01*
X199811857Y-73325609D01*
X199835578Y-73361109D01*
X199856456Y-73427786D01*
X199837972Y-73495166D01*
X199835578Y-73498891D01*
X199811857Y-73534390D01*
X199799500Y-73596515D01*
X199799500Y-73763484D01*
X199811857Y-73825609D01*
X199835578Y-73861109D01*
X199856456Y-73927786D01*
X199837972Y-73995166D01*
X199835578Y-73998891D01*
X199811857Y-74034390D01*
X199799500Y-74096515D01*
X199799500Y-74263484D01*
X199811857Y-74325609D01*
X199835578Y-74361109D01*
X199856456Y-74427786D01*
X199837972Y-74495166D01*
X199835578Y-74498891D01*
X199811857Y-74534390D01*
X199799500Y-74596515D01*
X199799500Y-74763484D01*
X199811857Y-74825609D01*
X199835578Y-74861109D01*
X199856456Y-74927786D01*
X199837972Y-74995166D01*
X199835578Y-74998891D01*
X199811857Y-75034390D01*
X199799500Y-75096515D01*
X199799500Y-75263484D01*
X199811857Y-75325609D01*
X199835578Y-75361109D01*
X199856456Y-75427786D01*
X199837972Y-75495166D01*
X199835578Y-75498891D01*
X199811857Y-75534390D01*
X199799500Y-75596515D01*
X199799500Y-75763484D01*
X199811857Y-75825609D01*
X199835247Y-75860613D01*
X199858935Y-75896065D01*
X199885575Y-75913865D01*
X199929389Y-75943141D01*
X199929391Y-75943142D01*
X199953373Y-75947912D01*
X199988267Y-75960511D01*
X199990816Y-75961892D01*
X199990818Y-75961894D01*
X201019587Y-76519471D01*
X201069146Y-76568721D01*
X201084500Y-76628488D01*
X201084500Y-76810622D01*
X201087469Y-76836210D01*
X201075641Y-76905072D01*
X201028462Y-76956607D01*
X200964295Y-76974500D01*
X199584620Y-76974500D01*
X199517581Y-76954815D01*
X199471826Y-76902011D01*
X199461882Y-76832853D01*
X199463003Y-76826309D01*
X199472356Y-76779284D01*
X199475500Y-76763480D01*
X199475500Y-75971520D01*
X199472799Y-75957940D01*
X199463142Y-75909390D01*
X199444285Y-75881169D01*
X199416065Y-75838935D01*
X199372014Y-75809501D01*
X199345609Y-75791857D01*
X199283484Y-75779500D01*
X199283480Y-75779500D01*
X199116520Y-75779500D01*
X199116515Y-75779500D01*
X199054390Y-75791857D01*
X199018891Y-75815578D01*
X198952214Y-75836456D01*
X198884834Y-75817972D01*
X198881109Y-75815578D01*
X198845609Y-75791857D01*
X198783484Y-75779500D01*
X198783480Y-75779500D01*
X198616520Y-75779500D01*
X198616515Y-75779500D01*
X198554390Y-75791857D01*
X198518891Y-75815578D01*
X198452214Y-75836456D01*
X198384834Y-75817972D01*
X198381109Y-75815578D01*
X198345609Y-75791857D01*
X198283484Y-75779500D01*
X198283480Y-75779500D01*
X198116520Y-75779500D01*
X198116515Y-75779500D01*
X198054390Y-75791857D01*
X198018891Y-75815578D01*
X197952214Y-75836456D01*
X197884834Y-75817972D01*
X197881109Y-75815578D01*
X197845609Y-75791857D01*
X197783484Y-75779500D01*
X197783480Y-75779500D01*
X197616520Y-75779500D01*
X197616515Y-75779500D01*
X197554390Y-75791857D01*
X197518891Y-75815578D01*
X197452214Y-75836456D01*
X197384834Y-75817972D01*
X197381109Y-75815578D01*
X197345609Y-75791857D01*
X197283484Y-75779500D01*
X197283480Y-75779500D01*
X197116520Y-75779500D01*
X197116515Y-75779500D01*
X197054390Y-75791857D01*
X197018891Y-75815578D01*
X196952214Y-75836456D01*
X196884834Y-75817972D01*
X196881109Y-75815578D01*
X196845609Y-75791857D01*
X196783484Y-75779500D01*
X196783480Y-75779500D01*
X196616520Y-75779500D01*
X196616515Y-75779500D01*
X196554390Y-75791857D01*
X196518891Y-75815578D01*
X196452214Y-75836456D01*
X196384834Y-75817972D01*
X196381109Y-75815578D01*
X196345609Y-75791857D01*
X196283484Y-75779500D01*
X196283480Y-75779500D01*
X196224500Y-75779500D01*
X196157461Y-75759815D01*
X196111706Y-75707011D01*
X196100500Y-75655500D01*
X196100500Y-75596519D01*
X196100499Y-75596515D01*
X196095636Y-75572069D01*
X196088142Y-75534391D01*
X196064421Y-75498889D01*
X196043543Y-75432216D01*
X196062026Y-75364835D01*
X196064394Y-75361149D01*
X196088142Y-75325609D01*
X196100500Y-75263480D01*
X196100500Y-75096520D01*
X196088142Y-75034391D01*
X196064421Y-74998889D01*
X196043543Y-74932216D01*
X196062026Y-74864835D01*
X196064394Y-74861149D01*
X196088142Y-74825609D01*
X196100500Y-74763480D01*
X196100500Y-74596520D01*
X196088142Y-74534391D01*
X196088142Y-74534390D01*
X196071532Y-74509532D01*
X196050653Y-74442855D01*
X196067263Y-74382304D01*
X196066231Y-74381810D01*
X196068964Y-74376104D01*
X196069137Y-74375475D01*
X196069663Y-74374645D01*
X196069741Y-74374481D01*
X196069744Y-74374477D01*
X196078098Y-74348913D01*
X196083864Y-74337056D01*
X196083468Y-74336892D01*
X196088139Y-74325612D01*
X196088142Y-74325609D01*
X196100500Y-74263480D01*
X196100500Y-74219252D01*
X196100557Y-74215495D01*
X196101558Y-74182467D01*
X196100941Y-74175168D01*
X196100500Y-74164722D01*
X196100500Y-74096519D01*
X196100499Y-74096515D01*
X196088142Y-74034392D01*
X196088142Y-74034391D01*
X196064421Y-73998889D01*
X196043543Y-73932216D01*
X196062026Y-73864835D01*
X196064394Y-73861149D01*
X196088142Y-73825609D01*
X196100500Y-73763480D01*
X196100500Y-73596520D01*
X196088142Y-73534391D01*
X196064421Y-73498889D01*
X196043543Y-73432216D01*
X196062026Y-73364835D01*
X196064394Y-73361149D01*
X196088142Y-73325609D01*
X196100500Y-73263480D01*
X196100500Y-73096520D01*
X196088142Y-73034391D01*
X196064421Y-72998889D01*
X196043543Y-72932216D01*
X196062026Y-72864835D01*
X196064394Y-72861149D01*
X196088142Y-72825609D01*
X196100500Y-72763480D01*
X196100500Y-72596520D01*
X196088142Y-72534391D01*
X196064421Y-72498889D01*
X196043543Y-72432216D01*
X196062026Y-72364835D01*
X196064394Y-72361149D01*
X196088142Y-72325609D01*
X196100500Y-72263480D01*
X196100500Y-72096520D01*
X196088142Y-72034391D01*
X196088141Y-72034390D01*
X196088141Y-72034388D01*
X196083469Y-72023109D01*
X196084254Y-72022783D01*
X196073923Y-71998763D01*
X196073783Y-71998801D01*
X196073526Y-71997838D01*
X196073417Y-71997585D01*
X196073183Y-71996556D01*
X196073182Y-71996550D01*
X195660965Y-70654448D01*
X195655500Y-70618041D01*
X195655500Y-70169500D01*
X195675185Y-70102461D01*
X195727989Y-70056706D01*
X195779500Y-70045500D01*
X195834823Y-70045500D01*
X195834835Y-70045500D01*
X195850074Y-70044751D01*
X195874263Y-70042369D01*
X195889362Y-70040130D01*
X195903171Y-70037382D01*
X195927363Y-70035000D01*
X196347639Y-70035000D01*
X196371831Y-70037382D01*
X196383404Y-70039685D01*
X196385651Y-70040132D01*
X196400715Y-70042366D01*
X196400721Y-70042366D01*
X196400730Y-70042368D01*
X196424922Y-70044751D01*
X196440166Y-70045500D01*
X196440177Y-70045500D01*
X198326487Y-70045500D01*
X198326503Y-70045500D01*
X198334549Y-70045292D01*
X198347365Y-70044628D01*
X198398314Y-70033210D01*
X198462960Y-70006702D01*
X198501105Y-69984253D01*
X199970602Y-68808655D01*
X199988961Y-68791346D01*
X200015814Y-68761557D01*
X200049516Y-68701252D01*
X200069201Y-68634213D01*
X200075500Y-68590402D01*
X200075500Y-66600000D01*
X200524659Y-66600000D01*
X200543975Y-66796129D01*
X200554486Y-66830779D01*
X200590242Y-66948651D01*
X200601188Y-66984733D01*
X200694086Y-67158532D01*
X200694090Y-67158539D01*
X200819116Y-67310883D01*
X200971460Y-67435909D01*
X200971467Y-67435913D01*
X201145266Y-67528811D01*
X201145269Y-67528811D01*
X201145273Y-67528814D01*
X201333868Y-67586024D01*
X201530000Y-67605341D01*
X201726132Y-67586024D01*
X201914727Y-67528814D01*
X201923055Y-67524363D01*
X202061472Y-67450377D01*
X202088538Y-67435910D01*
X202240883Y-67310883D01*
X202365910Y-67158538D01*
X202458814Y-66984727D01*
X202516024Y-66796132D01*
X202535341Y-66600000D01*
X202516024Y-66403868D01*
X202458814Y-66215273D01*
X202458811Y-66215269D01*
X202458811Y-66215266D01*
X202365913Y-66041467D01*
X202365909Y-66041460D01*
X202240883Y-65889116D01*
X202088539Y-65764090D01*
X202088532Y-65764086D01*
X201914733Y-65671188D01*
X201914727Y-65671186D01*
X201726132Y-65613976D01*
X201726129Y-65613975D01*
X201530000Y-65594659D01*
X201333870Y-65613975D01*
X201145266Y-65671188D01*
X200971467Y-65764086D01*
X200971460Y-65764090D01*
X200819116Y-65889116D01*
X200694090Y-66041460D01*
X200694086Y-66041467D01*
X200601188Y-66215266D01*
X200543975Y-66403870D01*
X200524659Y-66600000D01*
X200075500Y-66600000D01*
X200075500Y-66581245D01*
X200072308Y-66549899D01*
X200062231Y-66500935D01*
X200029701Y-66433117D01*
X199985144Y-66379298D01*
X199980290Y-66373711D01*
X199980289Y-66373710D01*
X199977046Y-66369977D01*
X199951993Y-66324650D01*
X199918814Y-66215273D01*
X199918811Y-66215269D01*
X199918811Y-66215266D01*
X199825913Y-66041467D01*
X199825909Y-66041460D01*
X199700883Y-65889116D01*
X199548539Y-65764090D01*
X199548532Y-65764086D01*
X199374733Y-65671188D01*
X199374727Y-65671186D01*
X199186132Y-65613976D01*
X199186129Y-65613975D01*
X198990000Y-65594659D01*
X198793870Y-65613975D01*
X198605266Y-65671188D01*
X198431467Y-65764086D01*
X198431460Y-65764090D01*
X198279116Y-65889116D01*
X198154090Y-66041460D01*
X198154086Y-66041467D01*
X198061186Y-66215270D01*
X198028403Y-66323339D01*
X197998982Y-66373437D01*
X197992419Y-66380239D01*
X197992415Y-66380244D01*
X197966529Y-66416143D01*
X197966519Y-66416159D01*
X197676339Y-66970917D01*
X197676336Y-66970924D01*
X197663118Y-67005883D01*
X197663113Y-67005899D01*
X197648993Y-67063360D01*
X197644500Y-67100471D01*
X197644500Y-68400500D01*
X197624815Y-68467539D01*
X197572011Y-68513294D01*
X197520500Y-68524500D01*
X194671362Y-68524500D01*
X194654754Y-68525390D01*
X194654745Y-68525390D01*
X194654739Y-68525391D01*
X194654733Y-68525391D01*
X194654702Y-68525394D01*
X194628383Y-68528224D01*
X194627282Y-68528568D01*
X194626435Y-68528834D01*
X194622737Y-68529399D01*
X194622414Y-68529467D01*
X194622410Y-68529449D01*
X194589381Y-68534500D01*
X194403991Y-68534500D01*
X194370944Y-68538054D01*
X194319433Y-68549260D01*
X194250657Y-68583686D01*
X194197860Y-68629436D01*
X194192376Y-68634422D01*
X194150486Y-68703145D01*
X194150483Y-68703151D01*
X194130799Y-68770187D01*
X194130797Y-68770197D01*
X194124500Y-68813996D01*
X194124500Y-69454480D01*
X194125704Y-69473775D01*
X194125707Y-69473806D01*
X194129534Y-69504375D01*
X194129535Y-69504382D01*
X194133123Y-69523358D01*
X194133131Y-69523396D01*
X194569737Y-71239500D01*
X194709666Y-71789500D01*
X194731899Y-71876886D01*
X194729351Y-71946710D01*
X194689459Y-72004071D01*
X194624887Y-72030760D01*
X194556137Y-72018301D01*
X194524046Y-71995141D01*
X191997836Y-69468931D01*
X191964351Y-69407608D01*
X191969335Y-69337916D01*
X191997836Y-69293569D01*
X192014586Y-69276819D01*
X192075909Y-69243334D01*
X192102267Y-69240500D01*
X192470614Y-69240500D01*
X192470616Y-69240500D01*
X192496156Y-69237537D01*
X192600640Y-69191403D01*
X192681403Y-69110640D01*
X192727537Y-69006156D01*
X192730500Y-68980616D01*
X192730500Y-68579384D01*
X192727537Y-68553844D01*
X192726060Y-68550500D01*
X192710577Y-68515433D01*
X192681403Y-68449360D01*
X192600640Y-68368597D01*
X192496157Y-68322463D01*
X192470619Y-68319500D01*
X192470616Y-68319500D01*
X191954384Y-68319500D01*
X191954380Y-68319500D01*
X191919580Y-68323538D01*
X191919339Y-68321463D01*
X191861756Y-68320309D01*
X191803747Y-68281364D01*
X191776952Y-68223588D01*
X191766734Y-68165638D01*
X191766731Y-68165631D01*
X191713750Y-68073865D01*
X191713745Y-68073859D01*
X191640996Y-68012815D01*
X191607267Y-67967911D01*
X191595600Y-67941489D01*
X191595599Y-67941486D01*
X191586294Y-67932181D01*
X191552809Y-67870858D01*
X191557793Y-67801166D01*
X191599665Y-67745233D01*
X191665129Y-67720816D01*
X191673975Y-67720500D01*
X191682983Y-67720500D01*
X191682986Y-67720500D01*
X191766819Y-67689988D01*
X191782566Y-67684257D01*
X191782568Y-67684256D01*
X191790188Y-67677862D01*
X191863748Y-67616138D01*
X191916734Y-67524363D01*
X191935136Y-67420000D01*
X191934783Y-67418000D01*
X191924556Y-67359999D01*
X191916734Y-67315637D01*
X191913989Y-67310883D01*
X191863750Y-67223865D01*
X191863749Y-67223864D01*
X191863748Y-67223862D01*
X191831138Y-67196499D01*
X191782568Y-67155743D01*
X191782566Y-67155742D01*
X191693410Y-67123294D01*
X191682986Y-67119500D01*
X191577014Y-67119500D01*
X191528869Y-67137022D01*
X191486462Y-67144500D01*
X187703888Y-67144500D01*
X187636849Y-67124815D01*
X187624183Y-67115490D01*
X187612567Y-67105743D01*
X187612566Y-67105742D01*
X187530533Y-67075886D01*
X187512986Y-67069500D01*
X187407014Y-67069500D01*
X187376906Y-67080458D01*
X187307178Y-67084888D01*
X187246123Y-67050916D01*
X187213127Y-66989328D01*
X187210499Y-66963935D01*
X187210499Y-66948651D01*
X187210499Y-66948644D01*
X187207488Y-66922680D01*
X187204176Y-66915180D01*
X187160599Y-66816486D01*
X187078514Y-66734401D01*
X186972321Y-66687512D01*
X186946357Y-66684500D01*
X186533651Y-66684500D01*
X186533627Y-66684502D01*
X186507685Y-66687510D01*
X186507675Y-66687513D01*
X186401486Y-66734400D01*
X186401485Y-66734401D01*
X186336431Y-66799456D01*
X186275108Y-66832941D01*
X186205416Y-66827957D01*
X186161069Y-66799456D01*
X186088514Y-66726901D01*
X185982321Y-66680012D01*
X185956357Y-66677000D01*
X185543651Y-66677000D01*
X185543627Y-66677002D01*
X185517685Y-66680010D01*
X185517675Y-66680013D01*
X185411486Y-66726900D01*
X185329401Y-66808985D01*
X185282512Y-66915178D01*
X185279500Y-66941139D01*
X185279500Y-67010500D01*
X185259815Y-67077539D01*
X185207011Y-67123294D01*
X185155500Y-67134500D01*
X185043888Y-67134500D01*
X184976849Y-67114815D01*
X184964183Y-67105490D01*
X184952567Y-67095743D01*
X184952566Y-67095742D01*
X184870533Y-67065886D01*
X184852986Y-67059500D01*
X184747014Y-67059500D01*
X184747011Y-67059500D01*
X184747011Y-67059501D01*
X184647433Y-67095742D01*
X184647432Y-67095743D01*
X184635817Y-67105490D01*
X184571809Y-67133502D01*
X184556112Y-67134500D01*
X180243888Y-67134500D01*
X180176849Y-67114815D01*
X180164183Y-67105490D01*
X180152567Y-67095743D01*
X180152566Y-67095742D01*
X180070533Y-67065886D01*
X180052986Y-67059500D01*
X179947014Y-67059500D01*
X179947011Y-67059500D01*
X179947011Y-67059501D01*
X179847433Y-67095742D01*
X179847431Y-67095743D01*
X179766254Y-67163860D01*
X179766249Y-67163865D01*
X179713268Y-67255631D01*
X179713266Y-67255637D01*
X179694864Y-67360000D01*
X179705443Y-67419999D01*
X179713266Y-67464362D01*
X179713268Y-67464368D01*
X179766249Y-67556134D01*
X179766250Y-67556135D01*
X179766252Y-67556138D01*
X179792359Y-67578044D01*
X179847431Y-67624256D01*
X179847433Y-67624257D01*
X179874907Y-67634256D01*
X179947014Y-67660500D01*
X179947017Y-67660500D01*
X180052983Y-67660500D01*
X180052986Y-67660500D01*
X180135020Y-67630642D01*
X180152566Y-67624257D01*
X180152566Y-67624256D01*
X180152568Y-67624256D01*
X180164183Y-67614510D01*
X180228191Y-67586498D01*
X180243888Y-67585500D01*
X184376855Y-67585500D01*
X184443894Y-67605185D01*
X184489649Y-67657989D01*
X184499593Y-67727147D01*
X184470568Y-67790703D01*
X184441598Y-67815255D01*
X184136528Y-68002016D01*
X181109243Y-69855284D01*
X181041789Y-69873498D01*
X180975196Y-69852353D01*
X180930606Y-69798561D01*
X180920500Y-69749528D01*
X180920500Y-69314185D01*
X180920499Y-69314182D01*
X180882364Y-69222115D01*
X180811897Y-69151648D01*
X179231819Y-67571570D01*
X179198334Y-67510247D01*
X179195500Y-67483889D01*
X179195500Y-65374189D01*
X179186768Y-65330294D01*
X179186767Y-65330293D01*
X179186767Y-65330290D01*
X179186765Y-65330287D01*
X179183315Y-65321958D01*
X179175843Y-65252489D01*
X179207115Y-65190009D01*
X179267202Y-65154353D01*
X179297874Y-65150500D01*
X207525500Y-65150500D01*
X207592539Y-65170185D01*
G37*
%TD.AperFunction*%
%TA.AperFunction,Conductor*%
G36*
X203141197Y-81470220D02*
G01*
X203197130Y-81512092D01*
X203205252Y-81524406D01*
X203206249Y-81526134D01*
X203206250Y-81526135D01*
X203206252Y-81526138D01*
X203250206Y-81563020D01*
X203288908Y-81621189D01*
X203294500Y-81658008D01*
X203294500Y-82037357D01*
X203300060Y-82050778D01*
X203309500Y-82098233D01*
X203309500Y-82220619D01*
X203312463Y-82246156D01*
X203314912Y-82255157D01*
X203312861Y-82255714D01*
X203320325Y-82312684D01*
X203290506Y-82375871D01*
X203231259Y-82412906D01*
X203197818Y-82417500D01*
X202178862Y-82417500D01*
X202111823Y-82397815D01*
X202091181Y-82381181D01*
X202070000Y-82360000D01*
X201636592Y-82360000D01*
X201569553Y-82340315D01*
X201554945Y-82329326D01*
X201551413Y-82326236D01*
X201513918Y-82267279D01*
X201509078Y-82234994D01*
X201505668Y-82031576D01*
X201524227Y-81964218D01*
X201576257Y-81917585D01*
X201629651Y-81905500D01*
X201960322Y-81905500D01*
X202004217Y-81896768D01*
X202004217Y-81896767D01*
X202004222Y-81896767D01*
X202034707Y-81876397D01*
X202101384Y-81855520D01*
X202103597Y-81855500D01*
X202500703Y-81855500D01*
X202500711Y-81855501D01*
X202515145Y-81855501D01*
X202604854Y-81855501D01*
X202604855Y-81855501D01*
X202665250Y-81830484D01*
X202687736Y-81821170D01*
X202751170Y-81757736D01*
X202751170Y-81757735D01*
X202768608Y-81740297D01*
X202768610Y-81740294D01*
X203010184Y-81498719D01*
X203071505Y-81465236D01*
X203141197Y-81470220D01*
G37*
%TD.AperFunction*%
%TA.AperFunction,Conductor*%
G36*
X202783271Y-80875185D02*
G01*
X202829026Y-80927989D01*
X202838970Y-80997147D01*
X202809945Y-81060703D01*
X202803913Y-81067181D01*
X202502914Y-81368181D01*
X202441591Y-81401666D01*
X202415233Y-81404500D01*
X202103597Y-81404500D01*
X202036558Y-81384815D01*
X202034736Y-81383622D01*
X202004222Y-81363233D01*
X202004220Y-81363232D01*
X202004217Y-81363231D01*
X201960322Y-81354500D01*
X201960320Y-81354500D01*
X201616260Y-81354500D01*
X201549221Y-81334815D01*
X201503466Y-81282011D01*
X201492277Y-81232577D01*
X201492242Y-81230500D01*
X201490447Y-81123379D01*
X201488909Y-81031577D01*
X201507468Y-80964218D01*
X201559498Y-80917584D01*
X201612892Y-80905500D01*
X201960322Y-80905500D01*
X202004217Y-80896768D01*
X202004217Y-80896767D01*
X202004222Y-80896767D01*
X202034707Y-80876397D01*
X202101384Y-80855520D01*
X202103597Y-80855500D01*
X202716232Y-80855500D01*
X202783271Y-80875185D01*
G37*
%TD.AperFunction*%
%TA.AperFunction,Conductor*%
G36*
X199967539Y-78345185D02*
G01*
X200013294Y-78397989D01*
X200024500Y-78449499D01*
X200024500Y-78576347D01*
X200024502Y-78576372D01*
X200027510Y-78602314D01*
X200027513Y-78602324D01*
X200068934Y-78696132D01*
X200079500Y-78746218D01*
X200079500Y-78961350D01*
X200062888Y-79023349D01*
X200018265Y-79100637D01*
X200009600Y-79149781D01*
X199978572Y-79212383D01*
X199975165Y-79215928D01*
X199642265Y-79548829D01*
X199578830Y-79612263D01*
X199578830Y-79612265D01*
X199544499Y-79695144D01*
X199544499Y-79706000D01*
X199524814Y-79773039D01*
X199472010Y-79818794D01*
X199420499Y-79830000D01*
X198980000Y-79830000D01*
X198971768Y-80282757D01*
X198950869Y-80349425D01*
X198897242Y-80394212D01*
X198847789Y-80404500D01*
X198232267Y-80404500D01*
X198165228Y-80384815D01*
X198144586Y-80368181D01*
X197921818Y-80145413D01*
X197888333Y-80084090D01*
X197885499Y-80057732D01*
X197885499Y-80014767D01*
X197905184Y-79947728D01*
X197921818Y-79927086D01*
X198396540Y-79452364D01*
X198883358Y-78965546D01*
X198944679Y-78932063D01*
X198949509Y-78931112D01*
X198952979Y-78930500D01*
X198952986Y-78930500D01*
X199036278Y-78900185D01*
X199052566Y-78894257D01*
X199052568Y-78894256D01*
X199063016Y-78885489D01*
X199133748Y-78826138D01*
X199186734Y-78734363D01*
X199205136Y-78630000D01*
X199186734Y-78525637D01*
X199185638Y-78523738D01*
X199178572Y-78511499D01*
X199162100Y-78443599D01*
X199184953Y-78377572D01*
X199239875Y-78334382D01*
X199285960Y-78325500D01*
X199900500Y-78325500D01*
X199967539Y-78345185D01*
G37*
%TD.AperFunction*%
%TA.AperFunction,Conductor*%
G36*
X184886359Y-69381377D02*
G01*
X184911581Y-69400817D01*
X189233181Y-73722417D01*
X189266666Y-73783740D01*
X189269500Y-73810098D01*
X189269500Y-75509829D01*
X189295281Y-75572069D01*
X189307636Y-75601897D01*
X192477636Y-78771897D01*
X192548103Y-78842364D01*
X192640172Y-78880500D01*
X193754877Y-78880500D01*
X193821916Y-78900185D01*
X193842558Y-78916819D01*
X193861012Y-78935273D01*
X193894497Y-78996596D01*
X193892308Y-79057889D01*
X193870800Y-79131136D01*
X193870797Y-79131146D01*
X193864830Y-79172656D01*
X193835805Y-79236211D01*
X193777027Y-79273986D01*
X193713633Y-79275699D01*
X193671993Y-79265880D01*
X193671991Y-79265879D01*
X193671988Y-79265879D01*
X193627903Y-79261954D01*
X193627899Y-79261954D01*
X193627898Y-79261954D01*
X193436958Y-79272274D01*
X193426803Y-79273157D01*
X193410686Y-79275093D01*
X193410681Y-79275094D01*
X193358714Y-79290893D01*
X193358711Y-79290894D01*
X193326498Y-79307284D01*
X193296443Y-79322577D01*
X193296442Y-79322578D01*
X193260249Y-79348061D01*
X192308757Y-80245697D01*
X192246485Y-80277382D01*
X192223666Y-80279500D01*
X189807736Y-80279500D01*
X189740697Y-80259815D01*
X189694942Y-80207011D01*
X189684998Y-80137853D01*
X189685620Y-80133967D01*
X189695136Y-80080000D01*
X189695136Y-80079999D01*
X189692377Y-80064355D01*
X189676734Y-79975637D01*
X189675717Y-79973876D01*
X189623750Y-79883865D01*
X189623749Y-79883864D01*
X189623748Y-79883862D01*
X189542568Y-79815744D01*
X189542567Y-79815743D01*
X189470035Y-79789344D01*
X189424764Y-79760503D01*
X188691897Y-79027636D01*
X188599829Y-78989500D01*
X188599828Y-78989500D01*
X181535122Y-78989500D01*
X181468083Y-78969815D01*
X181447441Y-78953181D01*
X180022265Y-77528004D01*
X179988780Y-77466681D01*
X179987838Y-77461900D01*
X179986734Y-77455637D01*
X179933748Y-77363862D01*
X179894793Y-77331175D01*
X179852568Y-77295743D01*
X179852566Y-77295742D01*
X179763174Y-77263208D01*
X179752986Y-77259500D01*
X179647014Y-77259500D01*
X179586908Y-77281376D01*
X179517179Y-77285806D01*
X179456124Y-77251834D01*
X179423128Y-77190246D01*
X179420500Y-77164853D01*
X179420500Y-75679701D01*
X179440185Y-75612662D01*
X179492989Y-75566907D01*
X179562147Y-75556963D01*
X179625703Y-75585988D01*
X179633037Y-75593441D01*
X179717431Y-75664256D01*
X179717433Y-75664257D01*
X179758449Y-75679184D01*
X179817014Y-75700500D01*
X179817017Y-75700500D01*
X179922983Y-75700500D01*
X179922986Y-75700500D01*
X180005020Y-75670642D01*
X180022566Y-75664257D01*
X180022566Y-75664256D01*
X180022568Y-75664256D01*
X180034183Y-75654510D01*
X180098191Y-75626498D01*
X180113888Y-75625500D01*
X180225500Y-75625500D01*
X180292539Y-75645185D01*
X180338294Y-75697989D01*
X180349500Y-75749500D01*
X180349500Y-76264856D01*
X180349502Y-76264882D01*
X180352413Y-76289987D01*
X180352415Y-76289991D01*
X180397793Y-76392764D01*
X180397794Y-76392765D01*
X180477235Y-76472206D01*
X180580009Y-76517585D01*
X180605135Y-76520500D01*
X180685466Y-76520499D01*
X180752503Y-76540183D01*
X180798259Y-76592986D01*
X180809373Y-76639733D01*
X180819789Y-76910499D01*
X180821103Y-76944669D01*
X180821418Y-76949142D01*
X180821801Y-76954579D01*
X180823418Y-76970325D01*
X180838213Y-77022342D01*
X180852205Y-77051167D01*
X180868722Y-77085196D01*
X180872110Y-77091773D01*
X180927637Y-77150047D01*
X180987286Y-77186432D01*
X181027969Y-77203869D01*
X183791950Y-77945425D01*
X183791963Y-77945427D01*
X183791965Y-77945428D01*
X183814394Y-77949707D01*
X183814397Y-77949707D01*
X183814411Y-77949710D01*
X183850541Y-77953881D01*
X183873387Y-77954826D01*
X184661566Y-77929401D01*
X184694192Y-77924858D01*
X184744876Y-77912214D01*
X184812353Y-77875928D01*
X184863841Y-77828697D01*
X184869173Y-77823567D01*
X184889202Y-77788514D01*
X184909103Y-77753683D01*
X184909102Y-77753683D01*
X184909106Y-77753678D01*
X184926886Y-77686109D01*
X184931943Y-77642139D01*
X184931306Y-77619641D01*
X184924468Y-77378008D01*
X184942248Y-77310439D01*
X184993736Y-77263208D01*
X185048418Y-77250500D01*
X185444822Y-77250500D01*
X185488717Y-77241768D01*
X185488717Y-77241767D01*
X185488722Y-77241767D01*
X185538504Y-77208504D01*
X185551046Y-77189732D01*
X185604656Y-77144928D01*
X185673981Y-77136219D01*
X185737009Y-77166373D01*
X185741829Y-77170942D01*
X185821486Y-77250599D01*
X185927680Y-77297488D01*
X185953643Y-77300500D01*
X186366356Y-77300499D01*
X186375281Y-77299464D01*
X186392314Y-77297489D01*
X186392315Y-77297488D01*
X186392320Y-77297488D01*
X186498514Y-77250599D01*
X186580599Y-77168514D01*
X186582216Y-77164853D01*
X186592007Y-77142678D01*
X186627488Y-77062320D01*
X186630500Y-77036357D01*
X186630499Y-76548644D01*
X186629349Y-76538724D01*
X186627489Y-76522685D01*
X186627488Y-76522682D01*
X186627488Y-76522680D01*
X186626525Y-76520500D01*
X186580599Y-76416486D01*
X186498514Y-76334401D01*
X186489035Y-76327908D01*
X186490159Y-76326266D01*
X186447809Y-76290493D01*
X186427283Y-76223707D01*
X186429155Y-76200628D01*
X186445136Y-76110000D01*
X186426734Y-76005637D01*
X186425709Y-76003862D01*
X186373750Y-75913865D01*
X186373749Y-75913864D01*
X186373748Y-75913862D01*
X186314865Y-75864453D01*
X186292568Y-75845743D01*
X186292566Y-75845742D01*
X186209686Y-75815578D01*
X186192986Y-75809500D01*
X186087014Y-75809500D01*
X186087011Y-75809500D01*
X186087011Y-75809501D01*
X185987433Y-75845742D01*
X185987431Y-75845743D01*
X185906254Y-75913860D01*
X185906249Y-75913865D01*
X185853268Y-76005631D01*
X185853266Y-76005637D01*
X185834933Y-76109611D01*
X185834864Y-76110000D01*
X185852087Y-76207678D01*
X185855150Y-76225046D01*
X185851130Y-76225754D01*
X185854226Y-76274587D01*
X185820959Y-76334928D01*
X185739400Y-76416487D01*
X185705578Y-76493087D01*
X185660492Y-76546463D01*
X185593705Y-76566990D01*
X185592144Y-76567000D01*
X185267643Y-76567000D01*
X185234753Y-76580624D01*
X185211969Y-76590061D01*
X185164518Y-76599500D01*
X184915180Y-76599500D01*
X184864387Y-76609603D01*
X184794796Y-76603374D01*
X184768909Y-76589444D01*
X184756357Y-76580624D01*
X184756353Y-76580622D01*
X184756351Y-76580621D01*
X184690742Y-76556618D01*
X184690739Y-76556617D01*
X184647431Y-76547480D01*
X184647434Y-76547480D01*
X184561830Y-76541897D01*
X184496214Y-76517891D01*
X184453993Y-76462221D01*
X184445901Y-76417970D01*
X184445902Y-76417319D01*
X184449696Y-73943620D01*
X185539500Y-73943620D01*
X185576025Y-74127243D01*
X185576025Y-74127245D01*
X185576026Y-74127248D01*
X185576027Y-74127251D01*
X185591548Y-74164722D01*
X185647676Y-74300228D01*
X185647681Y-74300237D01*
X185751697Y-74455907D01*
X185751700Y-74455911D01*
X185884088Y-74588299D01*
X185884092Y-74588302D01*
X186039762Y-74692318D01*
X186039771Y-74692323D01*
X186064659Y-74702632D01*
X186212749Y-74763973D01*
X186388597Y-74798951D01*
X186396379Y-74800499D01*
X186396383Y-74800500D01*
X186396384Y-74800500D01*
X186583617Y-74800500D01*
X186583618Y-74800499D01*
X186767251Y-74763973D01*
X186940231Y-74692322D01*
X187095908Y-74588302D01*
X187228302Y-74455908D01*
X187332322Y-74300231D01*
X187403973Y-74127251D01*
X187403973Y-74127248D01*
X187403975Y-74127245D01*
X187403974Y-74127243D01*
X187440500Y-73943616D01*
X187440500Y-73756384D01*
X187403973Y-73572749D01*
X187332322Y-73399769D01*
X187332321Y-73399768D01*
X187332318Y-73399762D01*
X187228302Y-73244092D01*
X187228299Y-73244088D01*
X187095911Y-73111700D01*
X187095907Y-73111697D01*
X186940237Y-73007681D01*
X186940228Y-73007676D01*
X186767251Y-72936027D01*
X186767243Y-72936025D01*
X186583620Y-72899500D01*
X186583616Y-72899500D01*
X186396384Y-72899500D01*
X186396379Y-72899500D01*
X186212756Y-72936025D01*
X186212748Y-72936027D01*
X186039771Y-73007676D01*
X186039762Y-73007681D01*
X185884092Y-73111697D01*
X185884088Y-73111700D01*
X185751700Y-73244088D01*
X185751697Y-73244092D01*
X185647681Y-73399762D01*
X185647676Y-73399771D01*
X185576027Y-73572748D01*
X185576025Y-73572756D01*
X185539500Y-73756379D01*
X185539500Y-73943620D01*
X184449696Y-73943620D01*
X184455301Y-70289495D01*
X184451084Y-70253287D01*
X184437729Y-70197118D01*
X184399802Y-70126642D01*
X184394575Y-70121075D01*
X184371536Y-70086281D01*
X184353529Y-70045500D01*
X184346403Y-70029360D01*
X184265640Y-69948597D01*
X184256161Y-69942104D01*
X184258644Y-69938479D01*
X184222733Y-69908206D01*
X184202139Y-69841440D01*
X184220912Y-69774140D01*
X184254631Y-69738443D01*
X184752407Y-69387182D01*
X184818530Y-69364614D01*
X184886359Y-69381377D01*
G37*
%TD.AperFunction*%
%TA.AperFunction,Conductor*%
G36*
X200977876Y-78839211D02*
G01*
X201014908Y-78898460D01*
X201019500Y-78931894D01*
X201019500Y-79680000D01*
X200999815Y-79747039D01*
X200947011Y-79792794D01*
X200895500Y-79804000D01*
X200630178Y-79804000D01*
X200586282Y-79812731D01*
X200574998Y-79817406D01*
X200574239Y-79815575D01*
X200522209Y-79831865D01*
X200465462Y-79816295D01*
X200465002Y-79817406D01*
X200456159Y-79813743D01*
X200454829Y-79813378D01*
X200454013Y-79812854D01*
X200453717Y-79812731D01*
X200409822Y-79804000D01*
X200409820Y-79804000D01*
X200324267Y-79804000D01*
X200257228Y-79784315D01*
X200211473Y-79731511D01*
X200201529Y-79662353D01*
X200230554Y-79598797D01*
X200236585Y-79592320D01*
X200288357Y-79540547D01*
X200349678Y-79507063D01*
X200354509Y-79506112D01*
X200357979Y-79505500D01*
X200357986Y-79505500D01*
X200424374Y-79481337D01*
X200457566Y-79469257D01*
X200457568Y-79469256D01*
X200538748Y-79401138D01*
X200591734Y-79309363D01*
X200610136Y-79205000D01*
X200591734Y-79100637D01*
X200570641Y-79064103D01*
X200548931Y-79026499D01*
X200532458Y-78958599D01*
X200555310Y-78892572D01*
X200610232Y-78849381D01*
X200656318Y-78840499D01*
X200776348Y-78840499D01*
X200776356Y-78840499D01*
X200784726Y-78839528D01*
X200802314Y-78837489D01*
X200802315Y-78837488D01*
X200802320Y-78837488D01*
X200845415Y-78818459D01*
X200914691Y-78809388D01*
X200977876Y-78839211D01*
G37*
%TD.AperFunction*%
%TA.AperFunction,Conductor*%
G36*
X191717814Y-72830185D02*
G01*
X191763569Y-72882989D01*
X191773513Y-72952147D01*
X191744488Y-73015703D01*
X191708810Y-73042062D01*
X191708839Y-73042104D01*
X191707671Y-73042903D01*
X191700865Y-73047932D01*
X191699360Y-73048597D01*
X191699358Y-73048598D01*
X191618597Y-73129359D01*
X191572463Y-73233841D01*
X191572463Y-73233843D01*
X191569500Y-73259380D01*
X191569500Y-73660619D01*
X191572463Y-73686156D01*
X191572463Y-73686158D01*
X191607353Y-73765175D01*
X191618597Y-73790640D01*
X191699360Y-73871403D01*
X191803844Y-73917537D01*
X191829384Y-73920500D01*
X191829386Y-73920500D01*
X192345614Y-73920500D01*
X192345616Y-73920500D01*
X192371156Y-73917537D01*
X192475640Y-73871403D01*
X192556403Y-73790640D01*
X192570191Y-73759412D01*
X192615277Y-73706037D01*
X192682063Y-73685510D01*
X192683625Y-73685500D01*
X192985703Y-73685500D01*
X192985711Y-73685501D01*
X193000145Y-73685501D01*
X193089854Y-73685501D01*
X193089855Y-73685501D01*
X193162504Y-73655408D01*
X193172736Y-73651170D01*
X193184858Y-73639048D01*
X193246180Y-73605561D01*
X193315872Y-73610544D01*
X193371806Y-73652414D01*
X193391867Y-73693004D01*
X193430378Y-73829274D01*
X193430382Y-73829286D01*
X193440615Y-73855887D01*
X193460666Y-73896458D01*
X193499874Y-73943617D01*
X193506884Y-73952048D01*
X193562818Y-73993920D01*
X193564568Y-73995166D01*
X193568849Y-73998215D01*
X193652595Y-74027199D01*
X193651750Y-74029639D01*
X193702110Y-74056349D01*
X193736337Y-74117261D01*
X193739500Y-74145088D01*
X193739500Y-74242389D01*
X193719815Y-74309428D01*
X193683534Y-74346059D01*
X193228318Y-74644796D01*
X193205094Y-74663451D01*
X193205091Y-74663453D01*
X193171229Y-74696463D01*
X193132202Y-74758794D01*
X193130839Y-74762897D01*
X193126599Y-74773885D01*
X193082463Y-74873844D01*
X193080067Y-74894500D01*
X193079500Y-74899384D01*
X193079500Y-75300616D01*
X193082463Y-75326156D01*
X193108628Y-75385414D01*
X193117699Y-75454692D01*
X193087875Y-75517877D01*
X193028626Y-75554908D01*
X192995194Y-75559500D01*
X192818651Y-75559500D01*
X192818627Y-75559502D01*
X192792685Y-75562510D01*
X192792675Y-75562513D01*
X192686486Y-75609400D01*
X192604402Y-75691484D01*
X192604401Y-75691485D01*
X192604401Y-75691486D01*
X192587136Y-75730587D01*
X192542052Y-75783962D01*
X192486883Y-75800919D01*
X192487122Y-75802118D01*
X192475392Y-75804450D01*
X192475266Y-75804490D01*
X192475194Y-75804490D01*
X192475146Y-75804500D01*
X192475145Y-75804500D01*
X192475144Y-75804500D01*
X192475141Y-75804501D01*
X192392266Y-75838827D01*
X192392266Y-75838828D01*
X192366641Y-75864453D01*
X192305317Y-75897937D01*
X192300501Y-75898885D01*
X192297014Y-75899499D01*
X192197433Y-75935742D01*
X192197431Y-75935743D01*
X192116254Y-76003860D01*
X192116249Y-76003865D01*
X192063268Y-76095631D01*
X192063266Y-76095637D01*
X192052668Y-76155744D01*
X192044864Y-76200000D01*
X192056304Y-76264882D01*
X192063266Y-76304362D01*
X192063267Y-76304366D01*
X192086544Y-76344683D01*
X192103016Y-76412583D01*
X192080163Y-76478610D01*
X192058867Y-76501667D01*
X192056256Y-76503858D01*
X192056249Y-76503865D01*
X192003268Y-76595631D01*
X192003266Y-76595637D01*
X191991077Y-76664767D01*
X191984864Y-76700000D01*
X191996057Y-76763481D01*
X192003266Y-76804362D01*
X192003268Y-76804368D01*
X192056249Y-76896134D01*
X192056250Y-76896135D01*
X192056252Y-76896138D01*
X192084001Y-76919422D01*
X192137431Y-76964256D01*
X192137433Y-76964257D01*
X192169732Y-76976012D01*
X192237014Y-77000500D01*
X192237017Y-77000500D01*
X192342983Y-77000500D01*
X192342986Y-77000500D01*
X192398094Y-76980442D01*
X192467818Y-76976012D01*
X192528874Y-77009982D01*
X192561871Y-77071569D01*
X192564500Y-77096964D01*
X192564500Y-77176347D01*
X192564502Y-77176372D01*
X192567510Y-77202314D01*
X192567513Y-77202324D01*
X192614400Y-77308513D01*
X192614401Y-77308514D01*
X192696486Y-77390599D01*
X192802680Y-77437488D01*
X192828643Y-77440500D01*
X193316356Y-77440499D01*
X193324726Y-77439528D01*
X193342314Y-77437489D01*
X193342315Y-77437488D01*
X193342320Y-77437488D01*
X193448514Y-77390599D01*
X193530599Y-77308514D01*
X193556567Y-77249701D01*
X193601651Y-77196328D01*
X193668437Y-77175800D01*
X193735720Y-77194638D01*
X193782136Y-77246861D01*
X193783404Y-77249637D01*
X193809401Y-77308514D01*
X193891486Y-77390599D01*
X193997680Y-77437488D01*
X194023643Y-77440500D01*
X194511356Y-77440499D01*
X194519726Y-77439528D01*
X194537314Y-77437489D01*
X194537315Y-77437488D01*
X194537320Y-77437488D01*
X194643514Y-77390599D01*
X194725599Y-77308514D01*
X194742863Y-77269412D01*
X194787948Y-77216038D01*
X194854734Y-77195510D01*
X194856297Y-77195500D01*
X195500703Y-77195500D01*
X195500711Y-77195501D01*
X195515145Y-77195501D01*
X195604854Y-77195501D01*
X195604855Y-77195501D01*
X195670006Y-77168514D01*
X195687736Y-77161170D01*
X195751170Y-77097736D01*
X195751170Y-77097734D01*
X195753777Y-77095126D01*
X195794009Y-77068246D01*
X195808315Y-77062321D01*
X195823656Y-77055967D01*
X195829986Y-77053344D01*
X195835236Y-77051170D01*
X195898670Y-76987736D01*
X195898670Y-76987735D01*
X195916108Y-76970297D01*
X195916110Y-76970294D01*
X195917226Y-76969177D01*
X195978547Y-76935694D01*
X196048239Y-76940678D01*
X196052364Y-76942302D01*
X196054390Y-76943141D01*
X196054391Y-76943142D01*
X196054392Y-76943142D01*
X196054394Y-76943143D01*
X196116515Y-76955499D01*
X196116519Y-76955500D01*
X196116520Y-76955500D01*
X196283481Y-76955500D01*
X196283482Y-76955499D01*
X196345609Y-76943142D01*
X196381110Y-76919421D01*
X196447784Y-76898543D01*
X196515165Y-76917026D01*
X196518850Y-76919394D01*
X196554391Y-76943142D01*
X196610995Y-76954401D01*
X196616515Y-76955499D01*
X196616519Y-76955500D01*
X196616520Y-76955500D01*
X196783481Y-76955500D01*
X196783482Y-76955499D01*
X196845609Y-76943142D01*
X196881110Y-76919421D01*
X196947784Y-76898543D01*
X197015165Y-76917026D01*
X197018850Y-76919394D01*
X197054391Y-76943142D01*
X197110995Y-76954401D01*
X197116515Y-76955499D01*
X197116519Y-76955500D01*
X197116520Y-76955500D01*
X197283481Y-76955500D01*
X197283482Y-76955499D01*
X197345609Y-76943142D01*
X197381110Y-76919421D01*
X197447784Y-76898543D01*
X197515165Y-76917026D01*
X197518850Y-76919394D01*
X197554391Y-76943142D01*
X197610995Y-76954401D01*
X197616515Y-76955499D01*
X197616519Y-76955500D01*
X197616520Y-76955500D01*
X197783481Y-76955500D01*
X197783482Y-76955499D01*
X197845609Y-76943142D01*
X197881110Y-76919421D01*
X197947784Y-76898543D01*
X198015165Y-76917026D01*
X198018850Y-76919394D01*
X198054391Y-76943142D01*
X198088060Y-76949839D01*
X198149970Y-76982222D01*
X198151545Y-76983770D01*
X198371983Y-77204209D01*
X198405468Y-77265531D01*
X198400484Y-77335223D01*
X198364763Y-77386239D01*
X196608392Y-78884059D01*
X196544610Y-78912582D01*
X196526981Y-78913705D01*
X194583489Y-78898812D01*
X194516602Y-78878615D01*
X194496758Y-78862497D01*
X194051897Y-78417636D01*
X193959829Y-78379500D01*
X193959828Y-78379500D01*
X192845123Y-78379500D01*
X192778084Y-78359815D01*
X192757442Y-78343181D01*
X189806819Y-75392558D01*
X189773334Y-75331235D01*
X189770500Y-75304877D01*
X189770500Y-73605148D01*
X189770499Y-73605145D01*
X189768664Y-73600715D01*
X189732364Y-73513078D01*
X189661897Y-73442611D01*
X189246467Y-73027181D01*
X189212982Y-72965858D01*
X189217966Y-72896166D01*
X189259838Y-72840233D01*
X189325302Y-72815816D01*
X189334148Y-72815500D01*
X190985702Y-72815500D01*
X190985710Y-72815501D01*
X191000144Y-72815501D01*
X191089853Y-72815501D01*
X191089854Y-72815501D01*
X191089854Y-72815500D01*
X191101832Y-72813118D01*
X191102273Y-72815339D01*
X191126592Y-72810500D01*
X191650775Y-72810500D01*
X191717814Y-72830185D01*
G37*
%TD.AperFunction*%
%TA.AperFunction,Conductor*%
G36*
X177562539Y-73210185D02*
G01*
X177608294Y-73262989D01*
X177619500Y-73314500D01*
X177619500Y-73696348D01*
X177619502Y-73696372D01*
X177622510Y-73722314D01*
X177622513Y-73722324D01*
X177669400Y-73828513D01*
X177669401Y-73828514D01*
X177751486Y-73910599D01*
X177857680Y-73957488D01*
X177883643Y-73960500D01*
X178371356Y-73960499D01*
X178379726Y-73959528D01*
X178397314Y-73957489D01*
X178397315Y-73957488D01*
X178397320Y-73957488D01*
X178503514Y-73910599D01*
X178585599Y-73828514D01*
X178609487Y-73774413D01*
X178654573Y-73721037D01*
X178721359Y-73700510D01*
X178722921Y-73700500D01*
X178793834Y-73700500D01*
X178793834Y-73704307D01*
X178843391Y-73709827D01*
X178897626Y-73753876D01*
X178919437Y-73820254D01*
X178919500Y-73824206D01*
X178919500Y-76080243D01*
X178899815Y-76147282D01*
X178847011Y-76193037D01*
X178777853Y-76202981D01*
X178715796Y-76175234D01*
X178692568Y-76155744D01*
X178650301Y-76140360D01*
X178605765Y-76107569D01*
X178603724Y-76109611D01*
X178513514Y-76019401D01*
X178407321Y-75972512D01*
X178381357Y-75969500D01*
X177893651Y-75969500D01*
X177893627Y-75969502D01*
X177867685Y-75972510D01*
X177867675Y-75972513D01*
X177761486Y-76019400D01*
X177679401Y-76101485D01*
X177632512Y-76207678D01*
X177629500Y-76233639D01*
X177629500Y-76646348D01*
X177629502Y-76646372D01*
X177632510Y-76672314D01*
X177632513Y-76672324D01*
X177675859Y-76770492D01*
X177684931Y-76839770D01*
X177655107Y-76902955D01*
X177595858Y-76939986D01*
X177525994Y-76939106D01*
X177512339Y-76934013D01*
X177481105Y-76920222D01*
X177452320Y-76907512D01*
X177426357Y-76904500D01*
X177013651Y-76904500D01*
X177013627Y-76904502D01*
X176987685Y-76907510D01*
X176987678Y-76907512D01*
X176911892Y-76940975D01*
X176842614Y-76950046D01*
X176779429Y-76920222D01*
X176774126Y-76915221D01*
X175931819Y-76072914D01*
X175898334Y-76011591D01*
X175895500Y-75985233D01*
X175895500Y-75665177D01*
X175886768Y-75621282D01*
X175886767Y-75621281D01*
X175886767Y-75621278D01*
X175853504Y-75571496D01*
X175853503Y-75571495D01*
X175803724Y-75538234D01*
X175803717Y-75538231D01*
X175759822Y-75529500D01*
X175759820Y-75529500D01*
X175480180Y-75529500D01*
X175480178Y-75529500D01*
X175436282Y-75538231D01*
X175436275Y-75538234D01*
X175386496Y-75571495D01*
X175386495Y-75571496D01*
X175353234Y-75621275D01*
X175353231Y-75621282D01*
X175344500Y-75665177D01*
X175344500Y-75665180D01*
X175344500Y-76494820D01*
X175344500Y-76494822D01*
X175344499Y-76494822D01*
X175353231Y-76538717D01*
X175353234Y-76538724D01*
X175382605Y-76582681D01*
X175386496Y-76588504D01*
X175436278Y-76621767D01*
X175436281Y-76621767D01*
X175436282Y-76621768D01*
X175480177Y-76630500D01*
X175480180Y-76630500D01*
X175759817Y-76630500D01*
X175759820Y-76630500D01*
X175771360Y-76628204D01*
X175840950Y-76634430D01*
X175883235Y-76662140D01*
X176108914Y-76887819D01*
X176142399Y-76949142D01*
X176137415Y-77018834D01*
X176095543Y-77074767D01*
X176030079Y-77099184D01*
X176021233Y-77099500D01*
X175679380Y-77099500D01*
X175653843Y-77102463D01*
X175653841Y-77102463D01*
X175549359Y-77148597D01*
X175460472Y-77237485D01*
X175458338Y-77235351D01*
X175418169Y-77268140D01*
X175348748Y-77276043D01*
X175286074Y-77245160D01*
X175278745Y-77236702D01*
X175190640Y-77148597D01*
X175086157Y-77102463D01*
X175060619Y-77099500D01*
X175060616Y-77099500D01*
X175059136Y-77099500D01*
X175058774Y-77099393D01*
X175057047Y-77099294D01*
X175057058Y-77099087D01*
X175057057Y-77099087D01*
X175057060Y-77099053D01*
X175057070Y-77098893D01*
X174992097Y-77079815D01*
X174946342Y-77027011D01*
X174938386Y-76990442D01*
X174937020Y-76990684D01*
X174930695Y-76954815D01*
X174916734Y-76875637D01*
X174887114Y-76824333D01*
X174870502Y-76762334D01*
X174870502Y-76600682D01*
X174885024Y-76551222D01*
X174882094Y-76550009D01*
X174886765Y-76538726D01*
X174886769Y-76538722D01*
X174895502Y-76494820D01*
X174895502Y-75665180D01*
X174895502Y-75665177D01*
X174886770Y-75621282D01*
X174886769Y-75621281D01*
X174886769Y-75621278D01*
X174853506Y-75571496D01*
X174853505Y-75571495D01*
X174803726Y-75538234D01*
X174803719Y-75538231D01*
X174759824Y-75529500D01*
X174759822Y-75529500D01*
X174534500Y-75529500D01*
X174467461Y-75509815D01*
X174421706Y-75457011D01*
X174410500Y-75405500D01*
X174410500Y-74854498D01*
X174430185Y-74787459D01*
X174482989Y-74741704D01*
X174534500Y-74730498D01*
X174759824Y-74730498D01*
X174803719Y-74721766D01*
X174803719Y-74721765D01*
X174803724Y-74721765D01*
X174803728Y-74721762D01*
X174815004Y-74717092D01*
X174815762Y-74718924D01*
X174867773Y-74702632D01*
X174924540Y-74718198D01*
X174924999Y-74717092D01*
X174933795Y-74720735D01*
X174935156Y-74721109D01*
X174935989Y-74721644D01*
X174936276Y-74721763D01*
X174936279Y-74721765D01*
X174936282Y-74721765D01*
X174936283Y-74721766D01*
X174980178Y-74730498D01*
X174980181Y-74730498D01*
X175259823Y-74730498D01*
X175303718Y-74721766D01*
X175303718Y-74721765D01*
X175303723Y-74721765D01*
X175353505Y-74688502D01*
X175386768Y-74638720D01*
X175386769Y-74638715D01*
X175395501Y-74594820D01*
X175395501Y-73765175D01*
X175386769Y-73721280D01*
X175386767Y-73721274D01*
X175366398Y-73690789D01*
X175345521Y-73624112D01*
X175345501Y-73621900D01*
X175345501Y-73478976D01*
X175365186Y-73411937D01*
X175417990Y-73366182D01*
X175487148Y-73356238D01*
X175540865Y-73380769D01*
X175542006Y-73379105D01*
X175551485Y-73385598D01*
X175551486Y-73385599D01*
X175657680Y-73432488D01*
X175683643Y-73435500D01*
X176096356Y-73435499D01*
X176104726Y-73434528D01*
X176122314Y-73432489D01*
X176122315Y-73432488D01*
X176122320Y-73432488D01*
X176228514Y-73385599D01*
X176310599Y-73303514D01*
X176327863Y-73264412D01*
X176372948Y-73211038D01*
X176439734Y-73190510D01*
X176441297Y-73190500D01*
X177495500Y-73190500D01*
X177562539Y-73210185D01*
G37*
%TD.AperFunction*%
%TA.AperFunction,Conductor*%
G36*
X202971832Y-75407381D02*
G01*
X202976602Y-75408330D01*
X202992458Y-75410642D01*
X203017872Y-75413018D01*
X203033886Y-75413685D01*
X203568484Y-75408392D01*
X203635715Y-75427412D01*
X203681991Y-75479760D01*
X203693625Y-75537032D01*
X203678756Y-75933565D01*
X203678756Y-75933586D01*
X203679757Y-75957940D01*
X203679758Y-75957960D01*
X203684388Y-75996477D01*
X203684388Y-75996479D01*
X203707220Y-76060822D01*
X203707221Y-76060825D01*
X203724001Y-76087452D01*
X203743032Y-76149643D01*
X203745197Y-76218099D01*
X203745259Y-76219806D01*
X203745373Y-76222476D01*
X203753794Y-76266037D01*
X203754088Y-76267555D01*
X203777331Y-76333445D01*
X203778460Y-76336417D01*
X203779960Y-76340368D01*
X203782118Y-76343215D01*
X203783386Y-76346556D01*
X203784255Y-76348124D01*
X203784029Y-76348248D01*
X203806923Y-76408533D01*
X203795045Y-76464739D01*
X203796976Y-76465442D01*
X203793266Y-76475633D01*
X203784600Y-76524780D01*
X203753572Y-76587383D01*
X203750166Y-76590927D01*
X203402912Y-76938182D01*
X203341592Y-76971666D01*
X203315233Y-76974500D01*
X202240705Y-76974500D01*
X202173666Y-76954815D01*
X202127911Y-76902011D01*
X202117531Y-76836210D01*
X202120499Y-76810622D01*
X202120500Y-76810613D01*
X202120500Y-76409386D01*
X202120500Y-76409384D01*
X202117537Y-76383844D01*
X202071403Y-76279360D01*
X202014724Y-76222681D01*
X201981239Y-76161358D01*
X201986223Y-76091666D01*
X202014724Y-76047319D01*
X202042643Y-76019400D01*
X202071403Y-75990640D01*
X202117537Y-75886156D01*
X202120500Y-75860616D01*
X202120500Y-75545507D01*
X202140185Y-75478468D01*
X202192989Y-75432713D01*
X202243273Y-75421513D01*
X202415892Y-75419804D01*
X202422676Y-75419420D01*
X202430354Y-75418986D01*
X202453313Y-75416610D01*
X202467638Y-75414449D01*
X202503167Y-75407381D01*
X202527356Y-75405000D01*
X202947648Y-75405000D01*
X202971832Y-75407381D01*
G37*
%TD.AperFunction*%
%TA.AperFunction,Conductor*%
G36*
X195867539Y-75975185D02*
G01*
X195913294Y-76027989D01*
X195924500Y-76079500D01*
X195924500Y-76272732D01*
X195904815Y-76339771D01*
X195888181Y-76360413D01*
X195623722Y-76624871D01*
X195583496Y-76651750D01*
X195542265Y-76668829D01*
X195542262Y-76668831D01*
X195502913Y-76708181D01*
X195441590Y-76741666D01*
X195415232Y-76744500D01*
X194856297Y-76744500D01*
X194789258Y-76724815D01*
X194743503Y-76672011D01*
X194742907Y-76670686D01*
X194725599Y-76631486D01*
X194676794Y-76582681D01*
X194643309Y-76521358D01*
X194648293Y-76451666D01*
X194676794Y-76407319D01*
X194691349Y-76392764D01*
X194715599Y-76368514D01*
X194733528Y-76327908D01*
X194737279Y-76319414D01*
X194782365Y-76266037D01*
X194849151Y-76245510D01*
X194850713Y-76245500D01*
X195113203Y-76245500D01*
X195113211Y-76245501D01*
X195127645Y-76245501D01*
X195217354Y-76245501D01*
X195217355Y-76245501D01*
X195283503Y-76218101D01*
X195300236Y-76211170D01*
X195363670Y-76147736D01*
X195363670Y-76147735D01*
X195381106Y-76130299D01*
X195381107Y-76130296D01*
X195519587Y-75991817D01*
X195580910Y-75958334D01*
X195607267Y-75955500D01*
X195800500Y-75955500D01*
X195867539Y-75975185D01*
G37*
%TD.AperFunction*%
%TA.AperFunction,Conductor*%
G36*
X182268334Y-74104151D02*
G01*
X182312681Y-74132652D01*
X182377235Y-74197206D01*
X182429830Y-74220429D01*
X182483206Y-74265514D01*
X182503734Y-74332301D01*
X182484896Y-74399583D01*
X182432673Y-74445999D01*
X182422156Y-74450384D01*
X182407434Y-74455742D01*
X182407431Y-74455743D01*
X182326254Y-74523860D01*
X182326249Y-74523865D01*
X182273268Y-74615631D01*
X182273266Y-74615637D01*
X182254864Y-74719999D01*
X182254864Y-74720000D01*
X182273265Y-74824360D01*
X182273267Y-74824365D01*
X182279042Y-74834368D01*
X182290664Y-74854498D01*
X182292887Y-74858347D01*
X182309500Y-74920347D01*
X182309500Y-74969566D01*
X182298934Y-75019652D01*
X182252416Y-75125004D01*
X182252415Y-75125008D01*
X182249500Y-75150131D01*
X182249500Y-76214434D01*
X182229815Y-76281473D01*
X182177011Y-76327228D01*
X182127206Y-76338422D01*
X181376205Y-76348756D01*
X181308901Y-76329996D01*
X181262424Y-76277827D01*
X181250499Y-76224772D01*
X181250499Y-75150136D01*
X181249960Y-75145490D01*
X181247586Y-75125012D01*
X181247585Y-75125010D01*
X181247585Y-75125009D01*
X181202206Y-75022235D01*
X181122765Y-74942794D01*
X181098808Y-74932216D01*
X181050358Y-74910823D01*
X180996982Y-74865737D01*
X180976455Y-74798951D01*
X180990025Y-74750484D01*
X180986496Y-74749022D01*
X181019156Y-74670173D01*
X181019157Y-74670170D01*
X181025500Y-74654856D01*
X181025501Y-74654854D01*
X181025501Y-74565145D01*
X181025501Y-74555156D01*
X181025500Y-74555142D01*
X181025500Y-74320951D01*
X181045185Y-74253912D01*
X181097989Y-74208157D01*
X181099415Y-74207516D01*
X181102894Y-74205979D01*
X181122765Y-74197206D01*
X181187319Y-74132652D01*
X181248642Y-74099167D01*
X181318334Y-74104151D01*
X181362681Y-74132652D01*
X181427235Y-74197206D01*
X181530009Y-74242585D01*
X181555135Y-74245500D01*
X181944864Y-74245499D01*
X181944879Y-74245497D01*
X181944882Y-74245497D01*
X181969987Y-74242586D01*
X181969988Y-74242585D01*
X181969991Y-74242585D01*
X182072765Y-74197206D01*
X182137319Y-74132652D01*
X182198642Y-74099167D01*
X182268334Y-74104151D01*
G37*
%TD.AperFunction*%
%TA.AperFunction,Conductor*%
G36*
X180152539Y-71772685D02*
G01*
X180198294Y-71825489D01*
X180209500Y-71877000D01*
X180209500Y-72015619D01*
X180212463Y-72041156D01*
X180212463Y-72041158D01*
X180248113Y-72121897D01*
X180258597Y-72145640D01*
X180339360Y-72226403D01*
X180443844Y-72272537D01*
X180469384Y-72275500D01*
X180469386Y-72275500D01*
X180870614Y-72275500D01*
X180870616Y-72275500D01*
X180896156Y-72272537D01*
X180931371Y-72256987D01*
X181000649Y-72247916D01*
X181061163Y-72275432D01*
X181107432Y-72314256D01*
X181107433Y-72314257D01*
X181148449Y-72329184D01*
X181207014Y-72350500D01*
X181207017Y-72350500D01*
X181312983Y-72350500D01*
X181312986Y-72350500D01*
X181402864Y-72317788D01*
X181412566Y-72314257D01*
X181412568Y-72314256D01*
X181416924Y-72310601D01*
X181493748Y-72246138D01*
X181546734Y-72154363D01*
X181546734Y-72154361D01*
X181546776Y-72154289D01*
X181597343Y-72106073D01*
X181665950Y-72092849D01*
X181730815Y-72118817D01*
X181741845Y-72128607D01*
X181805602Y-72192364D01*
X181829826Y-72202398D01*
X181829828Y-72202399D01*
X181849699Y-72210629D01*
X181897671Y-72230501D01*
X181897672Y-72230501D01*
X182011761Y-72230501D01*
X182011769Y-72230500D01*
X182889912Y-72230500D01*
X182956951Y-72250185D01*
X183002706Y-72302989D01*
X183013897Y-72356383D01*
X183013049Y-72412257D01*
X183011755Y-72497384D01*
X182991054Y-72564117D01*
X182937560Y-72609064D01*
X182887769Y-72619500D01*
X182505143Y-72619500D01*
X182505117Y-72619502D01*
X182480012Y-72622413D01*
X182480008Y-72622415D01*
X182377235Y-72667793D01*
X182377234Y-72667794D01*
X182312681Y-72732348D01*
X182251358Y-72765833D01*
X182181666Y-72760849D01*
X182137319Y-72732348D01*
X182072765Y-72667794D01*
X181969992Y-72622415D01*
X181944865Y-72619500D01*
X181555143Y-72619500D01*
X181555117Y-72619502D01*
X181530012Y-72622413D01*
X181530008Y-72622415D01*
X181427235Y-72667793D01*
X181427234Y-72667794D01*
X181362681Y-72732348D01*
X181301358Y-72765833D01*
X181231666Y-72760849D01*
X181187319Y-72732348D01*
X181122765Y-72667794D01*
X181019992Y-72622415D01*
X180994865Y-72619500D01*
X180605143Y-72619500D01*
X180605117Y-72619502D01*
X180580012Y-72622413D01*
X180580008Y-72622415D01*
X180477235Y-72667793D01*
X180397794Y-72747234D01*
X180352415Y-72850006D01*
X180352415Y-72850008D01*
X180349500Y-72875131D01*
X180349500Y-73989856D01*
X180349502Y-73989882D01*
X180352413Y-74014987D01*
X180352415Y-74014991D01*
X180397793Y-74117764D01*
X180397794Y-74117765D01*
X180477235Y-74197206D01*
X180493757Y-74204501D01*
X180500585Y-74207516D01*
X180553962Y-74252601D01*
X180574490Y-74319387D01*
X180574500Y-74320951D01*
X180574500Y-74368427D01*
X180554815Y-74435466D01*
X180530206Y-74463416D01*
X180446254Y-74533860D01*
X180446249Y-74533865D01*
X180393268Y-74625631D01*
X180393266Y-74625637D01*
X180374864Y-74730000D01*
X180391722Y-74825609D01*
X180393266Y-74834362D01*
X180393268Y-74834368D01*
X180416114Y-74873938D01*
X180432587Y-74941838D01*
X180409735Y-75007865D01*
X180398702Y-75020908D01*
X180397795Y-75022233D01*
X180363198Y-75100587D01*
X180318112Y-75153963D01*
X180251326Y-75174490D01*
X180249764Y-75174500D01*
X180113888Y-75174500D01*
X180046849Y-75154815D01*
X180034183Y-75145490D01*
X180022567Y-75135743D01*
X180022566Y-75135742D01*
X179940533Y-75105886D01*
X179922986Y-75099500D01*
X179817014Y-75099500D01*
X179817011Y-75099500D01*
X179817011Y-75099501D01*
X179717433Y-75135742D01*
X179717431Y-75135743D01*
X179627942Y-75210835D01*
X179626247Y-75208815D01*
X179581313Y-75238707D01*
X179511452Y-75239813D01*
X179452084Y-75202973D01*
X179422057Y-75139885D01*
X179420500Y-75120298D01*
X179420500Y-73134500D01*
X179440185Y-73067461D01*
X179492989Y-73021706D01*
X179544500Y-73010500D01*
X179600380Y-73010500D01*
X179646405Y-73022831D01*
X179647237Y-73020546D01*
X179685278Y-73034391D01*
X179757014Y-73060500D01*
X179757017Y-73060500D01*
X179862983Y-73060500D01*
X179862986Y-73060500D01*
X179945020Y-73030642D01*
X179962566Y-73024257D01*
X179962568Y-73024256D01*
X179972761Y-73015703D01*
X180043748Y-72956138D01*
X180096734Y-72864363D01*
X180115136Y-72760000D01*
X180096734Y-72655637D01*
X180096655Y-72655501D01*
X180043750Y-72563865D01*
X180043749Y-72563864D01*
X180043748Y-72563862D01*
X180008625Y-72534390D01*
X179962568Y-72495743D01*
X179962566Y-72495742D01*
X179876806Y-72464530D01*
X179862986Y-72459500D01*
X179757014Y-72459500D01*
X179757011Y-72459500D01*
X179757011Y-72459501D01*
X179647237Y-72499454D01*
X179646405Y-72497168D01*
X179600380Y-72509500D01*
X179379620Y-72509500D01*
X179333594Y-72497168D01*
X179332763Y-72499454D01*
X179236806Y-72464530D01*
X179222986Y-72459500D01*
X179117014Y-72459500D01*
X179117011Y-72459500D01*
X179117011Y-72459501D01*
X179017433Y-72495742D01*
X179017432Y-72495743D01*
X179006523Y-72504897D01*
X178942514Y-72532908D01*
X178873522Y-72521866D01*
X178821452Y-72475278D01*
X178802836Y-72407934D01*
X178807046Y-72377810D01*
X178810523Y-72364835D01*
X178820500Y-72327601D01*
X178820500Y-72202399D01*
X178788095Y-72081464D01*
X178725495Y-71973036D01*
X178717140Y-71964681D01*
X178683655Y-71903358D01*
X178688639Y-71833666D01*
X178730511Y-71777733D01*
X178795975Y-71753316D01*
X178804821Y-71753000D01*
X180085500Y-71753000D01*
X180152539Y-71772685D01*
G37*
%TD.AperFunction*%
%TA.AperFunction,Conductor*%
G36*
X187242513Y-67589111D02*
G01*
X187278887Y-67610304D01*
X187307432Y-67634256D01*
X187307433Y-67634257D01*
X187338325Y-67645500D01*
X187407014Y-67670500D01*
X187407017Y-67670500D01*
X187512983Y-67670500D01*
X187512986Y-67670500D01*
X187595020Y-67640642D01*
X187612566Y-67634257D01*
X187612566Y-67634256D01*
X187612568Y-67634256D01*
X187624183Y-67624510D01*
X187688191Y-67596498D01*
X187703888Y-67595500D01*
X189576342Y-67595500D01*
X189643381Y-67615185D01*
X189689136Y-67667989D01*
X189699080Y-67737147D01*
X189670055Y-67800703D01*
X189626428Y-67832934D01*
X189566486Y-67859400D01*
X189484401Y-67941485D01*
X189437512Y-68047678D01*
X189434500Y-68073639D01*
X189434500Y-68486348D01*
X189434502Y-68486372D01*
X189437510Y-68512314D01*
X189437513Y-68512324D01*
X189484400Y-68618513D01*
X189563206Y-68697319D01*
X189596691Y-68758642D01*
X189591707Y-68828334D01*
X189563206Y-68872681D01*
X189494401Y-68941485D01*
X189447512Y-69047678D01*
X189444500Y-69073639D01*
X189444500Y-69486348D01*
X189444502Y-69486372D01*
X189447510Y-69512314D01*
X189447513Y-69512324D01*
X189494400Y-69618513D01*
X189494401Y-69618514D01*
X189576486Y-69700599D01*
X189682680Y-69747488D01*
X189708643Y-69750500D01*
X190196356Y-69750499D01*
X190204726Y-69749528D01*
X190222314Y-69747489D01*
X190222315Y-69747488D01*
X190222320Y-69747488D01*
X190328514Y-69700599D01*
X190410599Y-69618514D01*
X190436567Y-69559701D01*
X190481651Y-69506328D01*
X190548437Y-69485800D01*
X190615720Y-69504638D01*
X190662136Y-69556861D01*
X190663404Y-69559637D01*
X190689401Y-69618514D01*
X190771486Y-69700599D01*
X190877680Y-69747488D01*
X190903643Y-69750500D01*
X191391356Y-69750499D01*
X191399726Y-69749528D01*
X191417314Y-69747489D01*
X191417315Y-69747488D01*
X191417320Y-69747488D01*
X191493107Y-69714024D01*
X191562383Y-69704953D01*
X191625569Y-69734776D01*
X191630873Y-69739778D01*
X194038914Y-72147819D01*
X194072399Y-72209142D01*
X194067415Y-72278834D01*
X194025543Y-72334767D01*
X193960079Y-72359184D01*
X193951233Y-72359500D01*
X191109296Y-72359500D01*
X191109288Y-72359499D01*
X191094854Y-72359499D01*
X191005144Y-72359499D01*
X191005143Y-72359499D01*
X190993166Y-72361882D01*
X190992724Y-72359660D01*
X190968406Y-72364500D01*
X189044767Y-72364500D01*
X188977728Y-72344815D01*
X188957086Y-72328181D01*
X187364319Y-70735414D01*
X187330834Y-70674091D01*
X187328000Y-70647733D01*
X187328000Y-70604013D01*
X187347685Y-70536974D01*
X187400489Y-70491219D01*
X187401770Y-70490642D01*
X187490640Y-70451403D01*
X187571403Y-70370640D01*
X187617537Y-70266156D01*
X187620500Y-70240616D01*
X187620500Y-69839384D01*
X187617537Y-69813844D01*
X187571403Y-69709360D01*
X187490640Y-69628597D01*
X187386157Y-69582463D01*
X187360619Y-69579500D01*
X187360616Y-69579500D01*
X187089979Y-69579500D01*
X187022940Y-69559815D01*
X186977185Y-69507011D01*
X186967241Y-69437853D01*
X186982592Y-69393500D01*
X187016731Y-69334368D01*
X187016730Y-69334368D01*
X187016734Y-69334363D01*
X187035136Y-69230000D01*
X187033745Y-69222114D01*
X187021320Y-69151648D01*
X187016734Y-69125637D01*
X187007112Y-69108972D01*
X186990500Y-69046972D01*
X186990500Y-68965259D01*
X187010185Y-68898220D01*
X187062989Y-68852465D01*
X187064382Y-68851838D01*
X187078514Y-68845599D01*
X187160599Y-68763514D01*
X187207488Y-68657320D01*
X187210500Y-68631357D01*
X187210499Y-68143644D01*
X187207488Y-68117680D01*
X187204176Y-68110180D01*
X187160599Y-68011486D01*
X187078514Y-67929401D01*
X187019703Y-67903433D01*
X186966327Y-67858346D01*
X186945800Y-67791560D01*
X186964639Y-67724278D01*
X187016863Y-67677862D01*
X187019600Y-67676611D01*
X187078514Y-67650599D01*
X187111501Y-67617611D01*
X187172821Y-67584127D01*
X187242513Y-67589111D01*
G37*
%TD.AperFunction*%
%TA.AperFunction,Conductor*%
G36*
X177759165Y-65170185D02*
G01*
X177804920Y-65222989D01*
X177814864Y-65292147D01*
X177806685Y-65321958D01*
X177803231Y-65330294D01*
X177794500Y-65374189D01*
X177794500Y-65374192D01*
X177794500Y-69003832D01*
X177794500Y-69003834D01*
X177794499Y-69003834D01*
X177803231Y-69047729D01*
X177803234Y-69047736D01*
X177836495Y-69097515D01*
X177836496Y-69097516D01*
X177886278Y-69130779D01*
X177886281Y-69130779D01*
X177886282Y-69130780D01*
X177930177Y-69139512D01*
X177930180Y-69139512D01*
X179059822Y-69139512D01*
X179103717Y-69130780D01*
X179103717Y-69130779D01*
X179103722Y-69130779D01*
X179153504Y-69097516D01*
X179186767Y-69047734D01*
X179187200Y-69045556D01*
X179195500Y-69003834D01*
X179195500Y-68543135D01*
X179215185Y-68476096D01*
X179267989Y-68430341D01*
X179337147Y-68420397D01*
X179400703Y-68449422D01*
X179407181Y-68455454D01*
X180383181Y-69431454D01*
X180416666Y-69492777D01*
X180419500Y-69519135D01*
X180419500Y-70037413D01*
X180399815Y-70104452D01*
X180347011Y-70150207D01*
X180345589Y-70150846D01*
X180339360Y-70153596D01*
X180258596Y-70234361D01*
X180212463Y-70338841D01*
X180212463Y-70338843D01*
X180209500Y-70364380D01*
X180209500Y-70880619D01*
X180212463Y-70906156D01*
X180212463Y-70906158D01*
X180258597Y-71010640D01*
X180338276Y-71090319D01*
X180371761Y-71151642D01*
X180366777Y-71221334D01*
X180324905Y-71277267D01*
X180259441Y-71301684D01*
X180250595Y-71302000D01*
X178152267Y-71302000D01*
X178085228Y-71282315D01*
X178064586Y-71265681D01*
X176381819Y-69582914D01*
X176348334Y-69521591D01*
X176345500Y-69495233D01*
X176345500Y-67409158D01*
X176345498Y-67409153D01*
X176311172Y-67326278D01*
X176240671Y-67255777D01*
X176240664Y-67255771D01*
X175433553Y-66448660D01*
X175400068Y-66387337D01*
X175405052Y-66317645D01*
X175433550Y-66273300D01*
X175571900Y-66134952D01*
X175596767Y-66097734D01*
X175605500Y-66053832D01*
X175605500Y-65374192D01*
X175605500Y-65374189D01*
X175596768Y-65330294D01*
X175596767Y-65330293D01*
X175596767Y-65330290D01*
X175596765Y-65330287D01*
X175593315Y-65321958D01*
X175585843Y-65252489D01*
X175617115Y-65190009D01*
X175677202Y-65154353D01*
X175707874Y-65150500D01*
X177692126Y-65150500D01*
X177759165Y-65170185D01*
G37*
%TD.AperFunction*%
%TA.AperFunction,Conductor*%
G36*
X186284584Y-68744543D02*
G01*
X186328931Y-68773044D01*
X186401486Y-68845599D01*
X186415583Y-68851823D01*
X186468961Y-68896908D01*
X186489490Y-68963693D01*
X186489500Y-68965259D01*
X186489500Y-69012330D01*
X186472888Y-69074329D01*
X186443266Y-69125636D01*
X186426255Y-69222114D01*
X186424864Y-69230000D01*
X186433119Y-69276819D01*
X186443266Y-69334362D01*
X186443268Y-69334368D01*
X186496249Y-69426134D01*
X186496250Y-69426135D01*
X186496252Y-69426138D01*
X186577432Y-69494256D01*
X186593410Y-69500071D01*
X186649672Y-69541493D01*
X186674611Y-69606761D01*
X186660304Y-69675150D01*
X186638686Y-69704271D01*
X186633597Y-69709360D01*
X186619809Y-69740587D01*
X186574723Y-69793963D01*
X186507937Y-69814490D01*
X186506375Y-69814500D01*
X186474767Y-69814500D01*
X186407728Y-69794815D01*
X186387086Y-69778181D01*
X186011819Y-69402914D01*
X185978334Y-69341591D01*
X185975500Y-69315233D01*
X185975500Y-68968797D01*
X185995185Y-68901758D01*
X186047989Y-68856003D01*
X186049313Y-68855407D01*
X186088514Y-68838099D01*
X186153569Y-68773044D01*
X186214892Y-68739559D01*
X186284584Y-68744543D01*
G37*
%TD.AperFunction*%
%TD*%
%TA.AperFunction,Conductor*%
%TO.N,+3.3V*%
G36*
X203260000Y-78725338D02*
G01*
X202830188Y-78721695D01*
X201572949Y-78711041D01*
X201506079Y-78690789D01*
X201460773Y-78637599D01*
X201450000Y-78587045D01*
X201450000Y-78170000D01*
X201082852Y-78170000D01*
X201015813Y-78150315D01*
X200979750Y-78114890D01*
X200917810Y-78022190D01*
X200831642Y-77964614D01*
X200755657Y-77949500D01*
X200755654Y-77949500D01*
X200309346Y-77949500D01*
X200309343Y-77949500D01*
X200233358Y-77964614D01*
X200233357Y-77964614D01*
X200147189Y-78022190D01*
X200085250Y-78114890D01*
X200031638Y-78159696D01*
X199982148Y-78170000D01*
X199120000Y-78170000D01*
X198679999Y-78460000D01*
X198679337Y-78476552D01*
X198665344Y-78519587D01*
X198668707Y-78520980D01*
X198664032Y-78532264D01*
X198650139Y-78602111D01*
X198617754Y-78664022D01*
X198616203Y-78665600D01*
X197698246Y-79583557D01*
X197636923Y-79617042D01*
X197606745Y-79618796D01*
X197606745Y-79619500D01*
X197154343Y-79619500D01*
X197078358Y-79634614D01*
X197078357Y-79634614D01*
X196992190Y-79692190D01*
X196934614Y-79778357D01*
X196934614Y-79778358D01*
X196919500Y-79854341D01*
X196919500Y-80225658D01*
X196934614Y-80301641D01*
X196934614Y-80301642D01*
X196946021Y-80318713D01*
X196992190Y-80387810D01*
X197040366Y-80420000D01*
X197078357Y-80445385D01*
X197154341Y-80460499D01*
X197154344Y-80460500D01*
X197154346Y-80460500D01*
X197600649Y-80460500D01*
X197600654Y-80460500D01*
X197600658Y-80460499D01*
X197605237Y-80460048D01*
X197673883Y-80473065D01*
X197705075Y-80495770D01*
X197938718Y-80729413D01*
X197988087Y-80778782D01*
X198052591Y-80805500D01*
X198712193Y-80805500D01*
X198773398Y-80821658D01*
X199070000Y-80990000D01*
X199314966Y-80996620D01*
X199381447Y-81018109D01*
X199425759Y-81072130D01*
X199435535Y-81125000D01*
X199434270Y-81160425D01*
X199412206Y-81226719D01*
X199357802Y-81270561D01*
X199310349Y-81280000D01*
X198970000Y-81280000D01*
X198970000Y-81960000D01*
X199329594Y-81960000D01*
X199396633Y-81979685D01*
X199442388Y-82032489D01*
X199453540Y-82080356D01*
X199456228Y-82171784D01*
X199438523Y-82239373D01*
X199387086Y-82286660D01*
X199331728Y-82299427D01*
X197341694Y-82290543D01*
X197274744Y-82270559D01*
X197229225Y-82217551D01*
X197218261Y-82168318D01*
X197210000Y-81590000D01*
X196151110Y-80821659D01*
X195570000Y-80399999D01*
X194790148Y-80381432D01*
X194723597Y-80360157D01*
X194693900Y-80331867D01*
X194671232Y-80301642D01*
X194520000Y-80100000D01*
X194519999Y-80099999D01*
X194288756Y-80091741D01*
X194222462Y-80069676D01*
X194205501Y-80055501D01*
X194056319Y-79906319D01*
X194022834Y-79844996D01*
X194020000Y-79818638D01*
X194020000Y-79174953D01*
X194039685Y-79107914D01*
X194092489Y-79062159D01*
X194144947Y-79050957D01*
X196630000Y-79070000D01*
X198565365Y-77419535D01*
X198629145Y-77391014D01*
X198645508Y-77389887D01*
X202650000Y-77380000D01*
X202650000Y-77379999D01*
X202664296Y-77379964D01*
X202685989Y-77375500D01*
X203260000Y-77375500D01*
X203260000Y-78725338D01*
G37*
%TD.AperFunction*%
%TD*%
%TA.AperFunction,Conductor*%
%TO.N,+3.3V*%
G36*
X205388364Y-74199353D02*
G01*
X205455294Y-74219393D01*
X205500768Y-74272439D01*
X205511689Y-74321628D01*
X205519976Y-74918278D01*
X205519976Y-74921722D01*
X205509999Y-75639999D01*
X205510000Y-75639998D01*
X205510000Y-75640000D01*
X206464854Y-75631158D01*
X206532071Y-75650221D01*
X206578313Y-75702599D01*
X206590000Y-75755153D01*
X206590000Y-76784164D01*
X206570315Y-76851203D01*
X206535462Y-76886881D01*
X203927089Y-78650818D01*
X203841472Y-78708717D01*
X203774912Y-78729966D01*
X203772009Y-78730000D01*
X203316293Y-78730000D01*
X203301618Y-78725691D01*
X203260000Y-78725338D01*
X203260000Y-77375500D01*
X203494907Y-77375500D01*
X203494909Y-77375500D01*
X203559413Y-77348782D01*
X204044398Y-76863795D01*
X204105719Y-76830312D01*
X204107886Y-76829861D01*
X204118549Y-76827740D01*
X204177740Y-76815966D01*
X204260601Y-76760601D01*
X204315966Y-76677740D01*
X204325687Y-76628870D01*
X204335408Y-76580002D01*
X204335408Y-76579997D01*
X204317738Y-76491170D01*
X204315966Y-76482260D01*
X204260601Y-76399399D01*
X204177740Y-76344034D01*
X204177739Y-76344033D01*
X204177738Y-76344033D01*
X204080002Y-76324592D01*
X204080001Y-76324592D01*
X204080000Y-76324592D01*
X204067602Y-76327058D01*
X204048744Y-76330809D01*
X203979152Y-76324580D01*
X203923975Y-76281716D01*
X203900732Y-76215826D01*
X203900619Y-76213188D01*
X203895778Y-76060000D01*
X203895777Y-76059999D01*
X203866008Y-76026448D01*
X203868157Y-76024541D01*
X203838777Y-75977920D01*
X203834147Y-75939400D01*
X203860000Y-75250000D01*
X203859998Y-75250000D01*
X203859999Y-75249999D01*
X203032347Y-75258193D01*
X203006933Y-75255817D01*
X202975169Y-75249500D01*
X202499834Y-75249500D01*
X202499830Y-75249501D01*
X202437306Y-75261936D01*
X202414347Y-75264312D01*
X201840000Y-75270000D01*
X201785754Y-76382042D01*
X201762826Y-76448042D01*
X201707856Y-76491170D01*
X201661901Y-76500000D01*
X201341443Y-76500000D01*
X201282357Y-76485018D01*
X200064914Y-75825182D01*
X200015354Y-75775931D01*
X200000000Y-75716164D01*
X200000000Y-75681229D01*
X200019685Y-75614190D01*
X200072489Y-75568435D01*
X200118950Y-75557776D01*
X201070000Y-75540000D01*
X201070000Y-75062162D01*
X201089685Y-74995123D01*
X201142489Y-74949368D01*
X201192144Y-74938176D01*
X201282471Y-74936828D01*
X201308499Y-74939196D01*
X201390000Y-74955408D01*
X201390001Y-74955408D01*
X201488645Y-74935786D01*
X201510974Y-74933418D01*
X201740000Y-74930000D01*
X201748360Y-74302998D01*
X201768937Y-74236228D01*
X201822346Y-74191181D01*
X201873007Y-74180654D01*
X205388364Y-74199353D01*
G37*
%TD.AperFunction*%
%TD*%
%TA.AperFunction,Conductor*%
%TO.N,+3.3V*%
G36*
X185363002Y-67590567D02*
G01*
X185409448Y-67642764D01*
X185421066Y-67704003D01*
X185408728Y-67889063D01*
X185417851Y-67906736D01*
X185411245Y-67976293D01*
X185399206Y-67999156D01*
X185344614Y-68080857D01*
X185344614Y-68080858D01*
X185329500Y-68156841D01*
X185329500Y-68603153D01*
X185346305Y-68687641D01*
X185340077Y-68757232D01*
X185297213Y-68812409D01*
X185296181Y-68813146D01*
X183717986Y-69926815D01*
X183651861Y-69949384D01*
X183646502Y-69949500D01*
X183639836Y-69949500D01*
X183565308Y-69964324D01*
X183480793Y-70020794D01*
X183424322Y-70105309D01*
X183421245Y-70112741D01*
X183378177Y-70166606D01*
X183260001Y-70249998D01*
X183260000Y-70250000D01*
X183242099Y-71306156D01*
X183221281Y-71372853D01*
X183167710Y-71417706D01*
X183115778Y-71428033D01*
X182782053Y-71421736D01*
X182690000Y-71420000D01*
X182689994Y-71420000D01*
X182689992Y-71420000D01*
X181849645Y-71429442D01*
X181782389Y-71410512D01*
X181763688Y-71396141D01*
X181119935Y-70795883D01*
X181084328Y-70735768D01*
X181080499Y-70705192D01*
X181080499Y-70384836D01*
X181080499Y-70384834D01*
X181065676Y-70310309D01*
X181065675Y-70310307D01*
X181061003Y-70299028D01*
X181062024Y-70298604D01*
X181045013Y-70245443D01*
X181042179Y-70151932D01*
X181059824Y-70084330D01*
X181101377Y-70042425D01*
X184650000Y-67870000D01*
X184659655Y-67729994D01*
X184683905Y-67664470D01*
X184739732Y-67622456D01*
X184787787Y-67618529D01*
X184787787Y-67615408D01*
X184800002Y-67615408D01*
X184897738Y-67595967D01*
X184909022Y-67591293D01*
X184909647Y-67592802D01*
X184962820Y-67576147D01*
X185295713Y-67571766D01*
X185363002Y-67590567D01*
G37*
%TD.AperFunction*%
%TD*%
%TA.AperFunction,Conductor*%
%TO.N,Net-(U1-NRST)*%
G36*
X194185444Y-72830185D02*
G01*
X194194099Y-72836284D01*
X194333619Y-72943831D01*
X194463904Y-73044259D01*
X194475882Y-73054787D01*
X194721759Y-73300664D01*
X194721762Y-73300668D01*
X194728830Y-73307736D01*
X194792264Y-73371170D01*
X194816537Y-73381224D01*
X194816538Y-73381225D01*
X194816539Y-73381225D01*
X194875145Y-73405501D01*
X194875146Y-73405501D01*
X194890297Y-73405501D01*
X194957336Y-73425186D01*
X194966000Y-73431292D01*
X195119998Y-73549999D01*
X195120000Y-73550000D01*
X195760861Y-73550000D01*
X195827900Y-73569685D01*
X195873655Y-73622489D01*
X195884762Y-73669044D01*
X195884842Y-73671044D01*
X195867853Y-73738817D01*
X195816919Y-73786645D01*
X195760941Y-73800000D01*
X195149996Y-73800000D01*
X195077857Y-73832233D01*
X195008619Y-73841609D01*
X194982925Y-73834818D01*
X194721789Y-73734808D01*
X194721785Y-73734806D01*
X194688407Y-73726120D01*
X194688404Y-73726119D01*
X194634294Y-73718302D01*
X194599835Y-73717186D01*
X194599821Y-73717187D01*
X194589304Y-73718017D01*
X194547001Y-73714053D01*
X194541157Y-73712463D01*
X194515619Y-73709500D01*
X194515616Y-73709500D01*
X193999384Y-73709500D01*
X193999380Y-73709500D01*
X193973843Y-73712463D01*
X193973841Y-73712463D01*
X193869361Y-73758596D01*
X193787021Y-73840936D01*
X193725697Y-73874420D01*
X193656006Y-73869436D01*
X193600072Y-73827564D01*
X193580017Y-73786985D01*
X193533250Y-73621500D01*
X193529007Y-73598087D01*
X193525000Y-73549999D01*
X193510000Y-73370000D01*
X193469082Y-73368503D01*
X192800771Y-73344052D01*
X192734496Y-73321930D01*
X192690703Y-73267488D01*
X192681658Y-73229470D01*
X192668783Y-73058878D01*
X192660101Y-72943831D01*
X192674684Y-72875501D01*
X192723895Y-72825902D01*
X192783749Y-72810500D01*
X194118405Y-72810500D01*
X194185444Y-72830185D01*
G37*
%TD.AperFunction*%
%TD*%
M02*
