%TF.GenerationSoftware,KiCad,Pcbnew,8.0.0*%
%TF.CreationDate,2024-03-15T11:34:24+01:00*%
%TF.ProjectId,projet s6,70726f6a-6574-4207-9336-2e6b69636164,rev?*%
%TF.SameCoordinates,Original*%
%TF.FileFunction,Legend,Top*%
%TF.FilePolarity,Positive*%
%FSLAX46Y46*%
G04 Gerber Fmt 4.6, Leading zero omitted, Abs format (unit mm)*
G04 Created by KiCad (PCBNEW 8.0.0) date 2024-03-15 11:34:24*
%MOMM*%
%LPD*%
G01*
G04 APERTURE LIST*
%ADD10C,0.100000*%
%ADD11C,0.120000*%
%ADD12C,0.000000*%
%ADD13C,0.152400*%
%ADD14C,0.050000*%
G04 APERTURE END LIST*
D10*
X202626265Y-70384800D02*
X202769122Y-70432419D01*
X202769122Y-70432419D02*
X203007217Y-70432419D01*
X203007217Y-70432419D02*
X203102455Y-70384800D01*
X203102455Y-70384800D02*
X203150074Y-70337180D01*
X203150074Y-70337180D02*
X203197693Y-70241942D01*
X203197693Y-70241942D02*
X203197693Y-70146704D01*
X203197693Y-70146704D02*
X203150074Y-70051466D01*
X203150074Y-70051466D02*
X203102455Y-70003847D01*
X203102455Y-70003847D02*
X203007217Y-69956228D01*
X203007217Y-69956228D02*
X202816741Y-69908609D01*
X202816741Y-69908609D02*
X202721503Y-69860990D01*
X202721503Y-69860990D02*
X202673884Y-69813371D01*
X202673884Y-69813371D02*
X202626265Y-69718133D01*
X202626265Y-69718133D02*
X202626265Y-69622895D01*
X202626265Y-69622895D02*
X202673884Y-69527657D01*
X202673884Y-69527657D02*
X202721503Y-69480038D01*
X202721503Y-69480038D02*
X202816741Y-69432419D01*
X202816741Y-69432419D02*
X203054836Y-69432419D01*
X203054836Y-69432419D02*
X203197693Y-69480038D01*
X203531027Y-69432419D02*
X203769122Y-70432419D01*
X203769122Y-70432419D02*
X203959598Y-69718133D01*
X203959598Y-69718133D02*
X204150074Y-70432419D01*
X204150074Y-70432419D02*
X204388170Y-69432419D01*
X204959598Y-69432419D02*
X205150074Y-69432419D01*
X205150074Y-69432419D02*
X205245312Y-69480038D01*
X205245312Y-69480038D02*
X205340550Y-69575276D01*
X205340550Y-69575276D02*
X205388169Y-69765752D01*
X205388169Y-69765752D02*
X205388169Y-70099085D01*
X205388169Y-70099085D02*
X205340550Y-70289561D01*
X205340550Y-70289561D02*
X205245312Y-70384800D01*
X205245312Y-70384800D02*
X205150074Y-70432419D01*
X205150074Y-70432419D02*
X204959598Y-70432419D01*
X204959598Y-70432419D02*
X204864360Y-70384800D01*
X204864360Y-70384800D02*
X204769122Y-70289561D01*
X204769122Y-70289561D02*
X204721503Y-70099085D01*
X204721503Y-70099085D02*
X204721503Y-69765752D01*
X204721503Y-69765752D02*
X204769122Y-69575276D01*
X204769122Y-69575276D02*
X204864360Y-69480038D01*
X204864360Y-69480038D02*
X204959598Y-69432419D01*
X196467693Y-82730038D02*
X196372455Y-82682419D01*
X196372455Y-82682419D02*
X196229598Y-82682419D01*
X196229598Y-82682419D02*
X196086741Y-82730038D01*
X196086741Y-82730038D02*
X195991503Y-82825276D01*
X195991503Y-82825276D02*
X195943884Y-82920514D01*
X195943884Y-82920514D02*
X195896265Y-83110990D01*
X195896265Y-83110990D02*
X195896265Y-83253847D01*
X195896265Y-83253847D02*
X195943884Y-83444323D01*
X195943884Y-83444323D02*
X195991503Y-83539561D01*
X195991503Y-83539561D02*
X196086741Y-83634800D01*
X196086741Y-83634800D02*
X196229598Y-83682419D01*
X196229598Y-83682419D02*
X196324836Y-83682419D01*
X196324836Y-83682419D02*
X196467693Y-83634800D01*
X196467693Y-83634800D02*
X196515312Y-83587180D01*
X196515312Y-83587180D02*
X196515312Y-83253847D01*
X196515312Y-83253847D02*
X196324836Y-83253847D01*
X196943884Y-83682419D02*
X196943884Y-82682419D01*
X196943884Y-82682419D02*
X197515312Y-83682419D01*
X197515312Y-83682419D02*
X197515312Y-82682419D01*
X197991503Y-83682419D02*
X197991503Y-82682419D01*
X197991503Y-82682419D02*
X198229598Y-82682419D01*
X198229598Y-82682419D02*
X198372455Y-82730038D01*
X198372455Y-82730038D02*
X198467693Y-82825276D01*
X198467693Y-82825276D02*
X198515312Y-82920514D01*
X198515312Y-82920514D02*
X198562931Y-83110990D01*
X198562931Y-83110990D02*
X198562931Y-83253847D01*
X198562931Y-83253847D02*
X198515312Y-83444323D01*
X198515312Y-83444323D02*
X198467693Y-83539561D01*
X198467693Y-83539561D02*
X198372455Y-83634800D01*
X198372455Y-83634800D02*
X198229598Y-83682419D01*
X198229598Y-83682419D02*
X197991503Y-83682419D01*
X201446265Y-74644800D02*
X201589122Y-74692419D01*
X201589122Y-74692419D02*
X201827217Y-74692419D01*
X201827217Y-74692419D02*
X201922455Y-74644800D01*
X201922455Y-74644800D02*
X201970074Y-74597180D01*
X201970074Y-74597180D02*
X202017693Y-74501942D01*
X202017693Y-74501942D02*
X202017693Y-74406704D01*
X202017693Y-74406704D02*
X201970074Y-74311466D01*
X201970074Y-74311466D02*
X201922455Y-74263847D01*
X201922455Y-74263847D02*
X201827217Y-74216228D01*
X201827217Y-74216228D02*
X201636741Y-74168609D01*
X201636741Y-74168609D02*
X201541503Y-74120990D01*
X201541503Y-74120990D02*
X201493884Y-74073371D01*
X201493884Y-74073371D02*
X201446265Y-73978133D01*
X201446265Y-73978133D02*
X201446265Y-73882895D01*
X201446265Y-73882895D02*
X201493884Y-73787657D01*
X201493884Y-73787657D02*
X201541503Y-73740038D01*
X201541503Y-73740038D02*
X201636741Y-73692419D01*
X201636741Y-73692419D02*
X201874836Y-73692419D01*
X201874836Y-73692419D02*
X202017693Y-73740038D01*
X202351027Y-73692419D02*
X202589122Y-74692419D01*
X202589122Y-74692419D02*
X202779598Y-73978133D01*
X202779598Y-73978133D02*
X202970074Y-74692419D01*
X202970074Y-74692419D02*
X203208170Y-73692419D01*
X203589122Y-74692419D02*
X203589122Y-73692419D01*
X203589122Y-73692419D02*
X203827217Y-73692419D01*
X203827217Y-73692419D02*
X203970074Y-73740038D01*
X203970074Y-73740038D02*
X204065312Y-73835276D01*
X204065312Y-73835276D02*
X204112931Y-73930514D01*
X204112931Y-73930514D02*
X204160550Y-74120990D01*
X204160550Y-74120990D02*
X204160550Y-74263847D01*
X204160550Y-74263847D02*
X204112931Y-74454323D01*
X204112931Y-74454323D02*
X204065312Y-74549561D01*
X204065312Y-74549561D02*
X203970074Y-74644800D01*
X203970074Y-74644800D02*
X203827217Y-74692419D01*
X203827217Y-74692419D02*
X203589122Y-74692419D01*
X204589122Y-74692419D02*
X204589122Y-73692419D01*
X205255788Y-73692419D02*
X205446264Y-73692419D01*
X205446264Y-73692419D02*
X205541502Y-73740038D01*
X205541502Y-73740038D02*
X205636740Y-73835276D01*
X205636740Y-73835276D02*
X205684359Y-74025752D01*
X205684359Y-74025752D02*
X205684359Y-74359085D01*
X205684359Y-74359085D02*
X205636740Y-74549561D01*
X205636740Y-74549561D02*
X205541502Y-74644800D01*
X205541502Y-74644800D02*
X205446264Y-74692419D01*
X205446264Y-74692419D02*
X205255788Y-74692419D01*
X205255788Y-74692419D02*
X205160550Y-74644800D01*
X205160550Y-74644800D02*
X205065312Y-74549561D01*
X205065312Y-74549561D02*
X205017693Y-74359085D01*
X205017693Y-74359085D02*
X205017693Y-74025752D01*
X205017693Y-74025752D02*
X205065312Y-73835276D01*
X205065312Y-73835276D02*
X205160550Y-73740038D01*
X205160550Y-73740038D02*
X205255788Y-73692419D01*
X203888646Y-80002419D02*
X204412455Y-79335752D01*
X203888646Y-79335752D02*
X204412455Y-80002419D01*
X207098646Y-76945752D02*
X207336741Y-77612419D01*
X207574836Y-76945752D02*
X207336741Y-77612419D01*
X207336741Y-77612419D02*
X207241503Y-77850514D01*
X207241503Y-77850514D02*
X207193884Y-77898133D01*
X207193884Y-77898133D02*
X207098646Y-77945752D01*
X201186265Y-72464800D02*
X201329122Y-72512419D01*
X201329122Y-72512419D02*
X201567217Y-72512419D01*
X201567217Y-72512419D02*
X201662455Y-72464800D01*
X201662455Y-72464800D02*
X201710074Y-72417180D01*
X201710074Y-72417180D02*
X201757693Y-72321942D01*
X201757693Y-72321942D02*
X201757693Y-72226704D01*
X201757693Y-72226704D02*
X201710074Y-72131466D01*
X201710074Y-72131466D02*
X201662455Y-72083847D01*
X201662455Y-72083847D02*
X201567217Y-72036228D01*
X201567217Y-72036228D02*
X201376741Y-71988609D01*
X201376741Y-71988609D02*
X201281503Y-71940990D01*
X201281503Y-71940990D02*
X201233884Y-71893371D01*
X201233884Y-71893371D02*
X201186265Y-71798133D01*
X201186265Y-71798133D02*
X201186265Y-71702895D01*
X201186265Y-71702895D02*
X201233884Y-71607657D01*
X201233884Y-71607657D02*
X201281503Y-71560038D01*
X201281503Y-71560038D02*
X201376741Y-71512419D01*
X201376741Y-71512419D02*
X201614836Y-71512419D01*
X201614836Y-71512419D02*
X201757693Y-71560038D01*
X202091027Y-71512419D02*
X202329122Y-72512419D01*
X202329122Y-72512419D02*
X202519598Y-71798133D01*
X202519598Y-71798133D02*
X202710074Y-72512419D01*
X202710074Y-72512419D02*
X202948170Y-71512419D01*
X203900550Y-72417180D02*
X203852931Y-72464800D01*
X203852931Y-72464800D02*
X203710074Y-72512419D01*
X203710074Y-72512419D02*
X203614836Y-72512419D01*
X203614836Y-72512419D02*
X203471979Y-72464800D01*
X203471979Y-72464800D02*
X203376741Y-72369561D01*
X203376741Y-72369561D02*
X203329122Y-72274323D01*
X203329122Y-72274323D02*
X203281503Y-72083847D01*
X203281503Y-72083847D02*
X203281503Y-71940990D01*
X203281503Y-71940990D02*
X203329122Y-71750514D01*
X203329122Y-71750514D02*
X203376741Y-71655276D01*
X203376741Y-71655276D02*
X203471979Y-71560038D01*
X203471979Y-71560038D02*
X203614836Y-71512419D01*
X203614836Y-71512419D02*
X203710074Y-71512419D01*
X203710074Y-71512419D02*
X203852931Y-71560038D01*
X203852931Y-71560038D02*
X203900550Y-71607657D01*
X204805312Y-72512419D02*
X204329122Y-72512419D01*
X204329122Y-72512419D02*
X204329122Y-71512419D01*
X205138646Y-72512419D02*
X205138646Y-71512419D01*
X205710074Y-72512419D02*
X205281503Y-71940990D01*
X205710074Y-71512419D02*
X205138646Y-72083847D01*
X203351027Y-75822419D02*
X203684360Y-76822419D01*
X203684360Y-76822419D02*
X204017693Y-75822419D01*
X204351027Y-76822419D02*
X204351027Y-75822419D01*
X204827217Y-76822419D02*
X204827217Y-75822419D01*
X204827217Y-75822419D02*
X205398645Y-76822419D01*
X205398645Y-76822419D02*
X205398645Y-75822419D01*
D11*
%TO.C,C14*%
X192880000Y-81784165D02*
X192880000Y-82015835D01*
X193600000Y-81784165D02*
X193600000Y-82015835D01*
%TO.C,J2*%
X195120000Y-65270000D02*
X196450000Y-65270000D01*
X195120000Y-66600000D02*
X195120000Y-65270000D01*
X197720000Y-65270000D02*
X205400000Y-65270000D01*
X197720000Y-67930000D02*
X197720000Y-65270000D01*
X197720000Y-67930000D02*
X205400000Y-67930000D01*
X205400000Y-67930000D02*
X205400000Y-65270000D01*
%TO.C,R9*%
X196947621Y-79660000D02*
X196612379Y-79660000D01*
X196947621Y-80420000D02*
X196612379Y-80420000D01*
%TO.C,R1*%
X176840000Y-78177621D02*
X176840000Y-77842379D01*
X177600000Y-78177621D02*
X177600000Y-77842379D01*
%TO.C,U1*%
X195340000Y-71795000D02*
X195340000Y-71560000D01*
X195340000Y-76540000D02*
X195340000Y-76065000D01*
X195815000Y-71320000D02*
X195640000Y-71320000D01*
X195815000Y-76540000D02*
X195340000Y-76540000D01*
X200085000Y-71320000D02*
X200560000Y-71320000D01*
X200085000Y-76540000D02*
X200560000Y-76540000D01*
X200560000Y-71320000D02*
X200560000Y-71795000D01*
X200560000Y-76540000D02*
X200560000Y-76065000D01*
X195340000Y-71320000D02*
X195100000Y-70990000D01*
X195580000Y-70990000D01*
X195340000Y-71320000D01*
G36*
X195340000Y-71320000D02*
G01*
X195100000Y-70990000D01*
X195580000Y-70990000D01*
X195340000Y-71320000D01*
G37*
%TO.C,TP5*%
X175610000Y-82900000D02*
G75*
G02*
X174210000Y-82900000I-700000J0D01*
G01*
X174210000Y-82900000D02*
G75*
G02*
X175610000Y-82900000I700000J0D01*
G01*
%TO.C,TP9*%
X207250000Y-74140000D02*
G75*
G02*
X205850000Y-74140000I-700000J0D01*
G01*
X205850000Y-74140000D02*
G75*
G02*
X207250000Y-74140000I700000J0D01*
G01*
%TO.C,C3*%
X202285835Y-75300000D02*
X202054165Y-75300000D01*
X202285835Y-76020000D02*
X202054165Y-76020000D01*
%TO.C,R4*%
X177697621Y-73110000D02*
X177362379Y-73110000D01*
X177697621Y-73870000D02*
X177362379Y-73870000D01*
%TO.C,R7*%
X193837621Y-76590000D02*
X193502379Y-76590000D01*
X193837621Y-77350000D02*
X193502379Y-77350000D01*
%TO.C,C15*%
X194760000Y-80514165D02*
X194760000Y-80745835D01*
X195480000Y-80514165D02*
X195480000Y-80745835D01*
%TO.C,U4*%
X180190000Y-74570000D02*
X180190000Y-73770000D01*
X180190000Y-74570000D02*
X180190000Y-75370000D01*
X183310000Y-74570000D02*
X183310000Y-73770000D01*
X183310000Y-74570000D02*
X183310000Y-75370000D01*
X180240000Y-75870000D02*
X179910000Y-76110000D01*
X179910000Y-75630000D01*
X180240000Y-75870000D01*
G36*
X180240000Y-75870000D02*
G01*
X179910000Y-76110000D01*
X179910000Y-75630000D01*
X180240000Y-75870000D01*
G37*
%TO.C,TP11*%
X207270000Y-72030000D02*
G75*
G02*
X205870000Y-72030000I-700000J0D01*
G01*
X205870000Y-72030000D02*
G75*
G02*
X207270000Y-72030000I700000J0D01*
G01*
D10*
%TO.C,IC1*%
X198620000Y-80630000D02*
X198620000Y-80630000D01*
X198720000Y-80630000D02*
X198720000Y-80630000D01*
X198620000Y-80630000D02*
G75*
G02*
X198720000Y-80630000I50000J0D01*
G01*
X198720000Y-80630000D02*
G75*
G02*
X198620000Y-80630000I-50000J0D01*
G01*
D11*
%TO.C,TP7*%
X207270000Y-76240000D02*
G75*
G02*
X205870000Y-76240000I-700000J0D01*
G01*
X205870000Y-76240000D02*
G75*
G02*
X207270000Y-76240000I700000J0D01*
G01*
%TO.C,R8*%
X201297621Y-77990000D02*
X200962379Y-77990000D01*
X201297621Y-78750000D02*
X200962379Y-78750000D01*
D10*
%TO.C,D1*%
X175070000Y-73355000D02*
G75*
G02*
X174970000Y-73355000I-50000J0D01*
G01*
X174970000Y-73355000D02*
G75*
G02*
X175070000Y-73355000I50000J0D01*
G01*
D11*
%TO.C,C1*%
X175254165Y-77200000D02*
X175485835Y-77200000D01*
X175254165Y-77920000D02*
X175485835Y-77920000D01*
%TO.C,R6*%
X193492379Y-75650000D02*
X193827621Y-75650000D01*
X193492379Y-76410000D02*
X193827621Y-76410000D01*
%TO.C,TP8*%
X195490000Y-82820000D02*
G75*
G02*
X194090000Y-82820000I-700000J0D01*
G01*
X194090000Y-82820000D02*
G75*
G02*
X195490000Y-82820000I700000J0D01*
G01*
%TO.C,C16*%
X192664165Y-68420000D02*
X192895835Y-68420000D01*
X192664165Y-69140000D02*
X192895835Y-69140000D01*
%TO.C,C9*%
X183184165Y-70930000D02*
X183415835Y-70930000D01*
X183184165Y-71650000D02*
X183415835Y-71650000D01*
%TO.C,C10*%
X180310000Y-71305835D02*
X180310000Y-71074165D01*
X181030000Y-71305835D02*
X181030000Y-71074165D01*
%TO.C,C12*%
X196965835Y-81570000D02*
X196734165Y-81570000D01*
X196965835Y-82290000D02*
X196734165Y-82290000D01*
%TO.C,R5*%
X177707621Y-76060000D02*
X177372379Y-76060000D01*
X177707621Y-76820000D02*
X177372379Y-76820000D01*
D12*
%TO.C,G\u002A\u002A\u002A*%
G36*
X206447512Y-77742563D02*
G01*
X206456005Y-77744541D01*
X206465090Y-77747642D01*
X206474896Y-77751927D01*
X206485554Y-77757455D01*
X206497195Y-77764286D01*
X206509949Y-77772479D01*
X206523947Y-77782096D01*
X206530920Y-77787071D01*
X206539052Y-77792938D01*
X206548471Y-77799742D01*
X206559108Y-77807430D01*
X206570893Y-77815954D01*
X206583758Y-77825264D01*
X206597633Y-77835310D01*
X206612451Y-77846041D01*
X206628143Y-77857408D01*
X206644639Y-77869361D01*
X206661871Y-77881850D01*
X206679771Y-77894824D01*
X206698268Y-77908235D01*
X206717296Y-77922032D01*
X206736784Y-77936166D01*
X206756664Y-77950585D01*
X206776867Y-77965241D01*
X206797325Y-77980084D01*
X206817969Y-77995062D01*
X206838729Y-78010128D01*
X206859538Y-78025230D01*
X206880325Y-78040319D01*
X206901024Y-78055344D01*
X206921564Y-78070256D01*
X206941877Y-78085006D01*
X206961895Y-78099542D01*
X206981548Y-78113815D01*
X207000767Y-78127775D01*
X207019485Y-78141373D01*
X207037631Y-78154558D01*
X207055138Y-78167280D01*
X207071937Y-78179489D01*
X207087958Y-78191136D01*
X207103133Y-78202170D01*
X207117393Y-78212542D01*
X207130670Y-78222201D01*
X207142895Y-78231099D01*
X207153998Y-78239184D01*
X207163911Y-78246407D01*
X207172566Y-78252717D01*
X207179894Y-78258066D01*
X207185825Y-78262403D01*
X207190291Y-78265678D01*
X207193223Y-78267841D01*
X207194552Y-78268842D01*
X207194623Y-78268902D01*
X207194313Y-78269321D01*
X207193149Y-78270379D01*
X207191098Y-78272102D01*
X207188126Y-78274516D01*
X207184202Y-78277647D01*
X207179291Y-78281518D01*
X207173360Y-78286157D01*
X207166376Y-78291588D01*
X207158307Y-78297836D01*
X207149119Y-78304928D01*
X207138779Y-78312888D01*
X207127253Y-78321742D01*
X207114509Y-78331515D01*
X207100513Y-78342233D01*
X207085233Y-78353921D01*
X207068635Y-78366605D01*
X207050686Y-78380309D01*
X207031353Y-78395060D01*
X207010603Y-78410883D01*
X206988402Y-78427803D01*
X206964718Y-78445845D01*
X206939517Y-78465035D01*
X206912767Y-78485399D01*
X206884434Y-78506961D01*
X206854484Y-78529748D01*
X206843869Y-78537823D01*
X206814358Y-78560270D01*
X206786460Y-78581487D01*
X206760132Y-78601506D01*
X206735331Y-78620359D01*
X206712013Y-78638080D01*
X206690135Y-78654701D01*
X206669654Y-78670254D01*
X206650526Y-78684773D01*
X206632708Y-78698290D01*
X206616157Y-78710838D01*
X206600830Y-78722449D01*
X206586682Y-78733156D01*
X206573671Y-78742991D01*
X206561753Y-78751988D01*
X206550886Y-78760179D01*
X206541025Y-78767597D01*
X206532128Y-78774274D01*
X206524150Y-78780243D01*
X206517050Y-78785536D01*
X206510783Y-78790187D01*
X206505306Y-78794228D01*
X206500575Y-78797692D01*
X206496549Y-78800610D01*
X206493182Y-78803017D01*
X206490432Y-78804945D01*
X206488255Y-78806425D01*
X206486609Y-78807492D01*
X206485449Y-78808177D01*
X206484870Y-78808462D01*
X206478154Y-78810997D01*
X206470078Y-78813660D01*
X206461338Y-78816242D01*
X206452628Y-78818532D01*
X206447604Y-78819702D01*
X206441012Y-78820856D01*
X206433531Y-78821695D01*
X206425718Y-78822196D01*
X206418132Y-78822340D01*
X206411331Y-78822107D01*
X206405872Y-78821476D01*
X206404779Y-78821254D01*
X206395839Y-78818365D01*
X206388444Y-78814108D01*
X206382500Y-78808400D01*
X206377911Y-78801157D01*
X206375630Y-78795646D01*
X206374679Y-78792313D01*
X206374078Y-78788567D01*
X206373772Y-78783859D01*
X206373700Y-78777641D01*
X206373701Y-78777416D01*
X206374048Y-78768270D01*
X206375081Y-78759484D01*
X206376915Y-78750348D01*
X206379666Y-78740156D01*
X206379858Y-78739511D01*
X206381040Y-78734978D01*
X206381919Y-78730518D01*
X206382316Y-78727047D01*
X206382322Y-78726865D01*
X206382783Y-78723437D01*
X206384050Y-78718174D01*
X206386095Y-78711150D01*
X206388891Y-78702440D01*
X206392410Y-78692118D01*
X206396624Y-78680259D01*
X206401507Y-78666936D01*
X206407029Y-78652224D01*
X206413164Y-78636197D01*
X206419884Y-78618930D01*
X206427161Y-78600498D01*
X206434968Y-78580973D01*
X206443276Y-78560431D01*
X206452059Y-78538946D01*
X206453420Y-78535637D01*
X206456195Y-78528868D01*
X206458688Y-78522738D01*
X206460795Y-78517510D01*
X206462410Y-78513444D01*
X206463429Y-78510802D01*
X206463750Y-78509854D01*
X206462717Y-78509815D01*
X206459660Y-78509776D01*
X206454634Y-78509737D01*
X206447698Y-78509700D01*
X206438909Y-78509663D01*
X206428325Y-78509627D01*
X206416004Y-78509592D01*
X206402003Y-78509558D01*
X206386380Y-78509524D01*
X206369193Y-78509492D01*
X206350499Y-78509461D01*
X206330355Y-78509432D01*
X206308821Y-78509403D01*
X206285952Y-78509376D01*
X206261808Y-78509351D01*
X206236445Y-78509327D01*
X206209921Y-78509304D01*
X206182294Y-78509283D01*
X206153622Y-78509264D01*
X206123962Y-78509246D01*
X206093372Y-78509230D01*
X206061909Y-78509216D01*
X206029631Y-78509204D01*
X205996597Y-78509194D01*
X205962862Y-78509186D01*
X205928486Y-78509181D01*
X205893526Y-78509177D01*
X205858039Y-78509176D01*
X205854375Y-78509176D01*
X205245000Y-78509176D01*
X205245000Y-78298229D01*
X205245000Y-78087283D01*
X205854375Y-78087283D01*
X205889912Y-78087282D01*
X205924929Y-78087278D01*
X205959368Y-78087272D01*
X205993170Y-78087264D01*
X206026279Y-78087254D01*
X206058637Y-78087241D01*
X206090186Y-78087226D01*
X206120868Y-78087210D01*
X206150627Y-78087191D01*
X206179403Y-78087171D01*
X206207139Y-78087149D01*
X206233779Y-78087125D01*
X206259263Y-78087099D01*
X206283535Y-78087072D01*
X206306537Y-78087043D01*
X206328211Y-78087013D01*
X206348500Y-78086981D01*
X206367345Y-78086948D01*
X206384690Y-78086914D01*
X206400476Y-78086879D01*
X206414645Y-78086842D01*
X206427141Y-78086805D01*
X206437906Y-78086767D01*
X206446881Y-78086727D01*
X206454010Y-78086687D01*
X206459234Y-78086646D01*
X206462496Y-78086605D01*
X206463739Y-78086562D01*
X206463750Y-78086558D01*
X206463454Y-78085487D01*
X206462593Y-78082545D01*
X206461203Y-78077855D01*
X206459320Y-78071541D01*
X206456983Y-78063725D01*
X206454228Y-78054531D01*
X206451091Y-78044083D01*
X206447611Y-78032502D01*
X206443823Y-78019913D01*
X206439766Y-78006439D01*
X206435475Y-77992203D01*
X206430988Y-77977329D01*
X206427838Y-77966896D01*
X206422284Y-77948500D01*
X206417298Y-77931978D01*
X206412850Y-77917206D01*
X206408909Y-77904063D01*
X206405445Y-77892425D01*
X206402427Y-77882172D01*
X206399824Y-77873181D01*
X206397606Y-77865328D01*
X206395741Y-77858493D01*
X206394200Y-77852553D01*
X206392951Y-77847385D01*
X206391964Y-77842867D01*
X206391208Y-77838878D01*
X206390652Y-77835294D01*
X206390266Y-77831993D01*
X206390019Y-77828854D01*
X206389880Y-77825753D01*
X206389819Y-77822569D01*
X206389804Y-77819180D01*
X206389806Y-77815462D01*
X206389806Y-77815397D01*
X206390365Y-77800387D01*
X206392039Y-77787033D01*
X206394816Y-77775356D01*
X206398686Y-77765374D01*
X206403635Y-77757109D01*
X206409654Y-77750581D01*
X206416730Y-77745811D01*
X206424851Y-77742819D01*
X206431774Y-77741741D01*
X206439478Y-77741650D01*
X206447512Y-77742563D01*
G37*
D13*
%TO.C,U2*%
X173943001Y-73952999D02*
X173943001Y-76306999D01*
X176297001Y-76306999D02*
X176297001Y-73952999D01*
D11*
%TO.C,R13*%
X186360000Y-67957621D02*
X186360000Y-67622379D01*
X187120000Y-67957621D02*
X187120000Y-67622379D01*
%TO.C,R10*%
X185370000Y-67614879D02*
X185370000Y-67950121D01*
X186130000Y-67614879D02*
X186130000Y-67950121D01*
%TO.C,R2*%
X175557621Y-78120000D02*
X175222379Y-78120000D01*
X175557621Y-78880000D02*
X175222379Y-78880000D01*
%TO.C,TP1*%
X177740000Y-82950000D02*
G75*
G02*
X176340000Y-82950000I-700000J0D01*
G01*
X176340000Y-82950000D02*
G75*
G02*
X177740000Y-82950000I700000J0D01*
G01*
%TO.C,R3*%
X175510000Y-72497621D02*
X175510000Y-72162379D01*
X176270000Y-72497621D02*
X176270000Y-72162379D01*
D10*
%TO.C,BT1*%
X175541338Y-65681516D02*
G75*
G02*
X177844999Y-65789013I1053662J-2157496D01*
G01*
X178634999Y-69109012D02*
G75*
G02*
X174439698Y-66776388I-2039999J1270000D01*
G01*
D11*
%TO.C,R11*%
X190382379Y-68900000D02*
X190717621Y-68900000D01*
X190382379Y-69660000D02*
X190717621Y-69660000D01*
%TO.C,TP10*%
X207310000Y-69910000D02*
G75*
G02*
X205910000Y-69910000I-700000J0D01*
G01*
X205910000Y-69910000D02*
G75*
G02*
X207310000Y-69910000I700000J0D01*
G01*
%TO.C,C13*%
X204590000Y-81613733D02*
X204590000Y-81906267D01*
X205610000Y-81613733D02*
X205610000Y-81906267D01*
%TO.C,C4*%
X202285835Y-76250000D02*
X202054165Y-76250000D01*
X202285835Y-76970000D02*
X202054165Y-76970000D01*
%TO.C,R14*%
X185780000Y-77222379D02*
X185780000Y-77557621D01*
X186540000Y-77222379D02*
X186540000Y-77557621D01*
D12*
%TO.C,G\u002A\u002A\u002A*%
G36*
X189936068Y-77936069D02*
G01*
X189982693Y-77998040D01*
X189984542Y-78011639D01*
X189947569Y-78055946D01*
X189936068Y-78057252D01*
X189893528Y-78017796D01*
X189887595Y-77981681D01*
X189911094Y-77931508D01*
X189936068Y-77936069D01*
G37*
G36*
X190016130Y-78175049D02*
G01*
X190033015Y-78202672D01*
X189991447Y-78238801D01*
X189908971Y-78251145D01*
X189826499Y-78235758D01*
X189814885Y-78202672D01*
X189883255Y-78161951D01*
X189938929Y-78154198D01*
X190016130Y-78175049D01*
G37*
G36*
X188200882Y-77998632D02*
G01*
X188256676Y-78092256D01*
X188263740Y-78105725D01*
X188310032Y-78203907D01*
X188305255Y-78243595D01*
X188245242Y-78251139D01*
X188240748Y-78251145D01*
X188169016Y-78228829D01*
X188143659Y-78145131D01*
X188142557Y-78105725D01*
X188149230Y-78003537D01*
X188165302Y-77960313D01*
X188165549Y-77960305D01*
X188200882Y-77998632D01*
G37*
G36*
X188699134Y-75276940D02*
G01*
X188417860Y-75496071D01*
X188221309Y-75721930D01*
X188113940Y-75948509D01*
X188094084Y-76092153D01*
X188137070Y-76237724D01*
X188245285Y-76353497D01*
X188387614Y-76408164D01*
X188409160Y-76409160D01*
X188509605Y-76429253D01*
X188520496Y-76484837D01*
X188461422Y-76551435D01*
X188391509Y-76662395D01*
X188357668Y-76824874D01*
X188363948Y-76998885D01*
X188403356Y-77125036D01*
X188506320Y-77261192D01*
X188652545Y-77339761D01*
X188856020Y-77364791D01*
X189130731Y-77340328D01*
X189141682Y-77338644D01*
X189356784Y-77293185D01*
X189567650Y-77228003D01*
X189757457Y-77151197D01*
X189909379Y-77070866D01*
X190006591Y-76995111D01*
X190032268Y-76932028D01*
X190021791Y-76914985D01*
X189969867Y-76921176D01*
X189854108Y-76957624D01*
X189702824Y-77015157D01*
X189373222Y-77112225D01*
X189066466Y-77129787D01*
X188800060Y-77067975D01*
X188653563Y-76968944D01*
X188590848Y-76825250D01*
X188602557Y-76653787D01*
X188629637Y-76560301D01*
X188675188Y-76491838D01*
X188758694Y-76433917D01*
X188899641Y-76372057D01*
X189063549Y-76311194D01*
X189254096Y-76235042D01*
X189434804Y-76150203D01*
X189586861Y-76067177D01*
X189691459Y-75996464D01*
X189729785Y-75948563D01*
X189726547Y-75941114D01*
X189672129Y-75944945D01*
X189559711Y-75981714D01*
X189473439Y-76017324D01*
X189293177Y-76089209D01*
X189181321Y-76116988D01*
X189143237Y-76101081D01*
X189184291Y-76041902D01*
X189233206Y-75998640D01*
X189323390Y-75916339D01*
X189336728Y-75883156D01*
X189279481Y-75898287D01*
X189157908Y-75960931D01*
X189056064Y-76021374D01*
X188796149Y-76139118D01*
X188552058Y-76161959D01*
X188358841Y-76108659D01*
X188270480Y-76051790D01*
X188250570Y-75970595D01*
X188260558Y-75903980D01*
X188332427Y-75742232D01*
X188478608Y-75562697D01*
X188683158Y-75382975D01*
X188818555Y-75287973D01*
X188915835Y-75228463D01*
X189003539Y-75188892D01*
X189104627Y-75165205D01*
X189242058Y-75153346D01*
X189438789Y-75149262D01*
X189606245Y-75148855D01*
X190178435Y-75148855D01*
X190175799Y-76663645D01*
X190174921Y-77085363D01*
X190173541Y-77418667D01*
X190171093Y-77672090D01*
X190167011Y-77854164D01*
X190160729Y-77973424D01*
X190151681Y-78038401D01*
X190139300Y-78057628D01*
X190123022Y-78039638D01*
X190102279Y-77992964D01*
X190089748Y-77960734D01*
X190012730Y-77799200D01*
X189940389Y-77733831D01*
X189869925Y-77764815D01*
X189798533Y-77892342D01*
X189764897Y-77982629D01*
X189706042Y-78126767D01*
X189647371Y-78224230D01*
X189610954Y-78251145D01*
X189553145Y-78223416D01*
X189548282Y-78206043D01*
X189507067Y-78164942D01*
X189439217Y-78145451D01*
X189353973Y-78115021D01*
X189330152Y-78081488D01*
X189371380Y-78037747D01*
X189439217Y-78017525D01*
X189531800Y-77984623D01*
X189537615Y-77941606D01*
X189460220Y-77913576D01*
X189424238Y-77911832D01*
X189341766Y-77896445D01*
X189330152Y-77863359D01*
X189398522Y-77822638D01*
X189454196Y-77814885D01*
X189531397Y-77794035D01*
X189548282Y-77766412D01*
X189505670Y-77734373D01*
X189400891Y-77718357D01*
X189378626Y-77717939D01*
X189208969Y-77717939D01*
X189208969Y-77984542D01*
X189205837Y-78137221D01*
X189189227Y-78216719D01*
X189148316Y-78246764D01*
X189087375Y-78251145D01*
X189003296Y-78242486D01*
X188999986Y-78199150D01*
X189026784Y-78151246D01*
X189060871Y-78065521D01*
X189018974Y-78001351D01*
X188993693Y-77981590D01*
X188894815Y-77926527D01*
X188836155Y-77911832D01*
X188777884Y-77879058D01*
X188772710Y-77857708D01*
X188813312Y-77823953D01*
X188895814Y-77827116D01*
X188986070Y-77828730D01*
X189001082Y-77796412D01*
X188939925Y-77743152D01*
X188832978Y-77726408D01*
X188725847Y-77750350D01*
X188697332Y-77768626D01*
X188632064Y-77863754D01*
X188659894Y-77953385D01*
X188772710Y-78023616D01*
X188884778Y-78080959D01*
X188912739Y-78126717D01*
X188857256Y-78146263D01*
X188767596Y-78136210D01*
X188666071Y-78123859D01*
X188637422Y-78148917D01*
X188644891Y-78178624D01*
X188636664Y-78238656D01*
X188579828Y-78251145D01*
X188523339Y-78235562D01*
X188491644Y-78173688D01*
X188475011Y-78042836D01*
X188472285Y-78000470D01*
X188452036Y-77857005D01*
X188417407Y-77758394D01*
X188379186Y-77716698D01*
X188348164Y-77743976D01*
X188335160Y-77847201D01*
X188333870Y-77984542D01*
X188250467Y-77849994D01*
X188161823Y-77744074D01*
X188089095Y-77731889D01*
X188036412Y-77810947D01*
X188007903Y-77978755D01*
X188006722Y-77997114D01*
X187988243Y-78159224D01*
X187953887Y-78238187D01*
X187921894Y-78251145D01*
X187859030Y-78224152D01*
X187851717Y-78202672D01*
X187810235Y-78166233D01*
X187730534Y-78154198D01*
X187633069Y-78128916D01*
X187609351Y-78081488D01*
X187651489Y-78023009D01*
X187730534Y-78008778D01*
X187821630Y-77992185D01*
X187851717Y-77960305D01*
X187810235Y-77923867D01*
X187730534Y-77911832D01*
X187639438Y-77895239D01*
X187609351Y-77863359D01*
X187650833Y-77826920D01*
X187730534Y-77814885D01*
X187821630Y-77798292D01*
X187851717Y-77766412D01*
X187809105Y-77734373D01*
X187704326Y-77718357D01*
X187682061Y-77717939D01*
X187512404Y-77717939D01*
X187512404Y-77984542D01*
X187509962Y-78136954D01*
X187493960Y-78216284D01*
X187451380Y-78246394D01*
X187369208Y-78251145D01*
X187366984Y-78251145D01*
X187221565Y-78251145D01*
X187221565Y-76700000D01*
X187221565Y-75148855D01*
X188056863Y-75148855D01*
X188892161Y-75148855D01*
X188699134Y-75276940D01*
G37*
D11*
%TO.C,R12*%
X190707621Y-67900000D02*
X190372379Y-67900000D01*
X190707621Y-68660000D02*
X190372379Y-68660000D01*
%TO.C,C2*%
X193574165Y-73810000D02*
X193805835Y-73810000D01*
X193574165Y-74530000D02*
X193805835Y-74530000D01*
%TO.C,C17*%
X187554165Y-69680000D02*
X187785835Y-69680000D01*
X187554165Y-70400000D02*
X187785835Y-70400000D01*
%TO.C,C6*%
X195685835Y-69930000D02*
X195454165Y-69930000D01*
X195685835Y-70650000D02*
X195454165Y-70650000D01*
%TO.C,Q1*%
D14*
X183870000Y-77810000D02*
X185490000Y-77810000D01*
X185490000Y-76690000D01*
X183870000Y-76690000D01*
X183870000Y-77810000D01*
D11*
%TO.C,C5*%
X192914165Y-74740000D02*
X193145835Y-74740000D01*
X192914165Y-75460000D02*
X193145835Y-75460000D01*
%TO.C,C7*%
X191404165Y-73100000D02*
X191635835Y-73100000D01*
X191404165Y-73820000D02*
X191635835Y-73820000D01*
%TO.C,SW5*%
D10*
X194080000Y-70200000D02*
X192720000Y-70200000D01*
X192720000Y-72720000D01*
X194080000Y-72720000D01*
X194080000Y-70200000D01*
D11*
%TO.C,C8*%
X183194165Y-70000000D02*
X183425835Y-70000000D01*
X183194165Y-70720000D02*
X183425835Y-70720000D01*
D12*
%TO.C,G\u002A\u002A\u002A*%
G36*
X205242717Y-78694375D02*
G01*
X205242718Y-78729912D01*
X205242722Y-78764929D01*
X205242728Y-78799368D01*
X205242736Y-78833170D01*
X205242746Y-78866279D01*
X205242759Y-78898637D01*
X205242774Y-78930186D01*
X205242790Y-78960868D01*
X205242809Y-78990627D01*
X205242829Y-79019403D01*
X205242851Y-79047139D01*
X205242875Y-79073779D01*
X205242901Y-79099263D01*
X205242928Y-79123535D01*
X205242957Y-79146537D01*
X205242987Y-79168211D01*
X205243019Y-79188500D01*
X205243052Y-79207345D01*
X205243086Y-79224690D01*
X205243121Y-79240476D01*
X205243158Y-79254645D01*
X205243195Y-79267141D01*
X205243233Y-79277906D01*
X205243273Y-79286881D01*
X205243313Y-79294010D01*
X205243354Y-79299234D01*
X205243395Y-79302496D01*
X205243438Y-79303739D01*
X205243442Y-79303750D01*
X205244513Y-79303454D01*
X205247455Y-79302593D01*
X205252145Y-79301203D01*
X205258459Y-79299320D01*
X205266275Y-79296983D01*
X205275469Y-79294228D01*
X205285917Y-79291091D01*
X205297498Y-79287611D01*
X205310087Y-79283823D01*
X205323561Y-79279766D01*
X205337797Y-79275475D01*
X205352671Y-79270988D01*
X205363104Y-79267838D01*
X205381500Y-79262284D01*
X205398022Y-79257298D01*
X205412794Y-79252850D01*
X205425937Y-79248909D01*
X205437575Y-79245445D01*
X205447828Y-79242427D01*
X205456819Y-79239824D01*
X205464672Y-79237606D01*
X205471507Y-79235741D01*
X205477447Y-79234200D01*
X205482615Y-79232951D01*
X205487133Y-79231964D01*
X205491122Y-79231208D01*
X205494706Y-79230652D01*
X205498007Y-79230266D01*
X205501146Y-79230019D01*
X205504247Y-79229880D01*
X205507431Y-79229819D01*
X205510820Y-79229804D01*
X205514538Y-79229806D01*
X205514603Y-79229806D01*
X205529613Y-79230365D01*
X205542967Y-79232039D01*
X205554644Y-79234816D01*
X205564626Y-79238686D01*
X205572891Y-79243635D01*
X205579419Y-79249654D01*
X205584189Y-79256730D01*
X205587181Y-79264851D01*
X205588259Y-79271774D01*
X205588350Y-79279478D01*
X205587437Y-79287512D01*
X205585459Y-79296005D01*
X205582358Y-79305090D01*
X205578073Y-79314896D01*
X205572545Y-79325554D01*
X205565714Y-79337195D01*
X205557521Y-79349949D01*
X205547904Y-79363947D01*
X205542929Y-79370920D01*
X205537062Y-79379052D01*
X205530258Y-79388471D01*
X205522570Y-79399108D01*
X205514046Y-79410893D01*
X205504736Y-79423758D01*
X205494690Y-79437633D01*
X205483959Y-79452451D01*
X205472592Y-79468143D01*
X205460639Y-79484639D01*
X205448150Y-79501871D01*
X205435176Y-79519771D01*
X205421765Y-79538268D01*
X205407968Y-79557296D01*
X205393834Y-79576784D01*
X205379415Y-79596664D01*
X205364759Y-79616867D01*
X205349916Y-79637325D01*
X205334938Y-79657969D01*
X205319872Y-79678729D01*
X205304770Y-79699538D01*
X205289681Y-79720325D01*
X205274656Y-79741024D01*
X205259744Y-79761564D01*
X205244994Y-79781877D01*
X205230458Y-79801895D01*
X205216185Y-79821548D01*
X205202225Y-79840767D01*
X205188627Y-79859485D01*
X205175442Y-79877631D01*
X205162720Y-79895138D01*
X205150511Y-79911937D01*
X205138864Y-79927958D01*
X205127830Y-79943133D01*
X205117458Y-79957393D01*
X205107799Y-79970670D01*
X205098901Y-79982895D01*
X205090816Y-79993998D01*
X205083593Y-80003911D01*
X205077283Y-80012566D01*
X205071934Y-80019894D01*
X205067597Y-80025825D01*
X205064322Y-80030291D01*
X205062159Y-80033223D01*
X205061158Y-80034552D01*
X205061098Y-80034623D01*
X205060679Y-80034313D01*
X205059621Y-80033149D01*
X205057898Y-80031098D01*
X205055484Y-80028126D01*
X205052353Y-80024202D01*
X205048482Y-80019291D01*
X205043843Y-80013360D01*
X205038412Y-80006376D01*
X205032164Y-79998307D01*
X205025072Y-79989119D01*
X205017112Y-79978779D01*
X205008258Y-79967253D01*
X204998485Y-79954509D01*
X204987767Y-79940513D01*
X204976079Y-79925233D01*
X204963395Y-79908635D01*
X204949691Y-79890686D01*
X204934940Y-79871353D01*
X204919117Y-79850603D01*
X204902197Y-79828402D01*
X204884155Y-79804718D01*
X204864965Y-79779517D01*
X204844601Y-79752767D01*
X204823039Y-79724434D01*
X204800252Y-79694484D01*
X204792177Y-79683869D01*
X204769730Y-79654358D01*
X204748513Y-79626460D01*
X204728494Y-79600132D01*
X204709641Y-79575331D01*
X204691920Y-79552013D01*
X204675299Y-79530135D01*
X204659746Y-79509654D01*
X204645227Y-79490526D01*
X204631710Y-79472708D01*
X204619162Y-79456157D01*
X204607551Y-79440830D01*
X204596844Y-79426682D01*
X204587009Y-79413671D01*
X204578012Y-79401753D01*
X204569821Y-79390886D01*
X204562403Y-79381025D01*
X204555726Y-79372128D01*
X204549757Y-79364150D01*
X204544464Y-79357050D01*
X204539813Y-79350783D01*
X204535772Y-79345306D01*
X204532308Y-79340575D01*
X204529390Y-79336549D01*
X204526983Y-79333182D01*
X204525055Y-79330432D01*
X204523575Y-79328255D01*
X204522508Y-79326609D01*
X204521823Y-79325449D01*
X204521538Y-79324870D01*
X204519003Y-79318154D01*
X204516340Y-79310078D01*
X204513758Y-79301338D01*
X204511468Y-79292628D01*
X204510298Y-79287604D01*
X204509144Y-79281012D01*
X204508305Y-79273531D01*
X204507804Y-79265718D01*
X204507660Y-79258132D01*
X204507893Y-79251331D01*
X204508524Y-79245872D01*
X204508746Y-79244779D01*
X204511635Y-79235839D01*
X204515892Y-79228444D01*
X204521600Y-79222500D01*
X204528843Y-79217911D01*
X204534354Y-79215630D01*
X204537687Y-79214679D01*
X204541433Y-79214078D01*
X204546141Y-79213772D01*
X204552359Y-79213700D01*
X204552584Y-79213701D01*
X204561730Y-79214048D01*
X204570516Y-79215081D01*
X204579652Y-79216915D01*
X204589844Y-79219666D01*
X204590489Y-79219858D01*
X204595022Y-79221040D01*
X204599482Y-79221919D01*
X204602953Y-79222316D01*
X204603135Y-79222322D01*
X204606563Y-79222783D01*
X204611826Y-79224050D01*
X204618850Y-79226095D01*
X204627560Y-79228891D01*
X204637882Y-79232410D01*
X204649741Y-79236624D01*
X204663064Y-79241507D01*
X204677776Y-79247029D01*
X204693803Y-79253164D01*
X204711070Y-79259884D01*
X204729502Y-79267161D01*
X204749027Y-79274968D01*
X204769569Y-79283276D01*
X204791054Y-79292059D01*
X204794363Y-79293420D01*
X204801132Y-79296195D01*
X204807262Y-79298688D01*
X204812490Y-79300795D01*
X204816556Y-79302410D01*
X204819198Y-79303429D01*
X204820146Y-79303750D01*
X204820185Y-79302717D01*
X204820224Y-79299660D01*
X204820263Y-79294634D01*
X204820300Y-79287698D01*
X204820337Y-79278909D01*
X204820373Y-79268325D01*
X204820408Y-79256004D01*
X204820442Y-79242003D01*
X204820476Y-79226380D01*
X204820508Y-79209193D01*
X204820539Y-79190499D01*
X204820568Y-79170355D01*
X204820597Y-79148821D01*
X204820624Y-79125952D01*
X204820649Y-79101808D01*
X204820673Y-79076445D01*
X204820696Y-79049921D01*
X204820717Y-79022294D01*
X204820736Y-78993622D01*
X204820754Y-78963962D01*
X204820770Y-78933372D01*
X204820784Y-78901909D01*
X204820796Y-78869631D01*
X204820806Y-78836597D01*
X204820814Y-78802862D01*
X204820819Y-78768486D01*
X204820823Y-78733526D01*
X204820824Y-78698039D01*
X204820824Y-78694375D01*
X204820824Y-78085000D01*
X205031771Y-78085000D01*
X205242717Y-78085000D01*
X205242717Y-78694375D01*
G37*
D11*
%TO.C,C11*%
X203410000Y-82414165D02*
X203410000Y-82645835D01*
X204130000Y-82414165D02*
X204130000Y-82645835D01*
%TD*%
M02*
