%TF.GenerationSoftware,KiCad,Pcbnew,8.0.5*%
%TF.CreationDate,2024-10-22T08:55:15+02:00*%
%TF.ProjectId,cansatperso,63616e73-6174-4706-9572-736f2e6b6963,rev?*%
%TF.SameCoordinates,Original*%
%TF.FileFunction,Copper,L4,Inr*%
%TF.FilePolarity,Positive*%
%FSLAX46Y46*%
G04 Gerber Fmt 4.6, Leading zero omitted, Abs format (unit mm)*
G04 Created by KiCad (PCBNEW 8.0.5) date 2024-10-22 08:55:15*
%MOMM*%
%LPD*%
G01*
G04 APERTURE LIST*
G04 Aperture macros list*
%AMOutline5P*
0 Free polygon, 5 corners , with rotation*
0 The origin of the aperture is its center*
0 number of corners: always 5*
0 $1 to $10 corner X, Y*
0 $11 Rotation angle, in degrees counterclockwise*
0 create outline with 5 corners*
4,1,5,$1,$2,$3,$4,$5,$6,$7,$8,$9,$10,$1,$2,$11*%
%AMOutline6P*
0 Free polygon, 6 corners , with rotation*
0 The origin of the aperture is its center*
0 number of corners: always 6*
0 $1 to $12 corner X, Y*
0 $13 Rotation angle, in degrees counterclockwise*
0 create outline with 6 corners*
4,1,6,$1,$2,$3,$4,$5,$6,$7,$8,$9,$10,$11,$12,$1,$2,$13*%
%AMOutline7P*
0 Free polygon, 7 corners , with rotation*
0 The origin of the aperture is its center*
0 number of corners: always 7*
0 $1 to $14 corner X, Y*
0 $15 Rotation angle, in degrees counterclockwise*
0 create outline with 7 corners*
4,1,7,$1,$2,$3,$4,$5,$6,$7,$8,$9,$10,$11,$12,$13,$14,$1,$2,$15*%
%AMOutline8P*
0 Free polygon, 8 corners , with rotation*
0 The origin of the aperture is its center*
0 number of corners: always 8*
0 $1 to $16 corner X, Y*
0 $17 Rotation angle, in degrees counterclockwise*
0 create outline with 8 corners*
4,1,8,$1,$2,$3,$4,$5,$6,$7,$8,$9,$10,$11,$12,$13,$14,$15,$16,$1,$2,$17*%
%AMFreePoly0*
4,1,8,1.000000,0.600000,1.000000,-1.000000,0.000000,-1.000000,-1.000000,-1.000000,-1.000000,0.600000,-0.600000,1.000000,0.600000,1.000000,1.000000,0.600000,1.000000,0.600000,$1*%
G04 Aperture macros list end*
%TA.AperFunction,ComponentPad*%
%ADD10Outline6P,-0.600000X0.360000X-0.360000X0.600000X0.360000X0.600000X0.600000X0.360000X0.600000X-0.600000X-0.600000X-0.600000X270.000000*%
%TD*%
%TA.AperFunction,ComponentPad*%
%ADD11FreePoly0,90.000000*%
%TD*%
%TA.AperFunction,ViaPad*%
%ADD12C,0.400000*%
%TD*%
%TA.AperFunction,Conductor*%
%ADD13C,0.250000*%
%TD*%
%TA.AperFunction,Conductor*%
%ADD14C,0.150000*%
%TD*%
G04 APERTURE END LIST*
D10*
%TO.N,TIM3_CHI_PWM4*%
%TO.C,REF\u002A\u002A2*%
X195660000Y-87340000D03*
%TD*%
D11*
%TO.N,GND*%
%TO.C,*%
X172680000Y-80400000D03*
%TD*%
D10*
%TO.N,+5V*%
%TO.C,REF\u002A\u002A1*%
X195660000Y-89740000D03*
%TD*%
%TO.N,GND*%
%TO.C,REF\u002A\u002A*%
X195660000Y-92190000D03*
%TD*%
D11*
%TO.N,BAT+*%
%TO.C,REF\u002A\u002A*%
X172675000Y-86705000D03*
%TD*%
D12*
%TO.N,GND*%
X194680000Y-91940000D03*
%TO.N,+3.3V*%
X180140000Y-83220000D03*
X181090000Y-83220000D03*
%TO.N,GND*%
X176360000Y-93120000D03*
X176050000Y-79740000D03*
X184730000Y-85210000D03*
X176140000Y-82470000D03*
X194760000Y-76690000D03*
X195710000Y-81720000D03*
X192250000Y-88020000D03*
X182160000Y-85940000D03*
X188780000Y-77860000D03*
X188060000Y-80840000D03*
X191100000Y-73300000D03*
X174140000Y-76740000D03*
X182600000Y-73300000D03*
X189650000Y-79120000D03*
X190880000Y-79060000D03*
X175390000Y-93170000D03*
X180900000Y-73300000D03*
X185500000Y-89530000D03*
X183680000Y-78680000D03*
X178400000Y-90820000D03*
X173080000Y-74720000D03*
X186810000Y-92670000D03*
X182750000Y-85180000D03*
X194760000Y-85190000D03*
X186380000Y-89540000D03*
X183870000Y-86560000D03*
X185770000Y-86240000D03*
X177800000Y-79760000D03*
X175330000Y-93790000D03*
X182730000Y-75760000D03*
X179340000Y-84110000D03*
X191820000Y-87500000D03*
X192290000Y-91270000D03*
X177500000Y-73300000D03*
X188800000Y-87800000D03*
X174340000Y-78550000D03*
X183840000Y-85180000D03*
X179390000Y-79780000D03*
X175330000Y-92590000D03*
X183670000Y-77690000D03*
X187970000Y-90257500D03*
X178860000Y-92680000D03*
X187700000Y-73300000D03*
X184670000Y-89530000D03*
X184040000Y-93547500D03*
X182700000Y-93770000D03*
X194580000Y-91267500D03*
X189400000Y-73300000D03*
X174340000Y-80170000D03*
X178930000Y-93810000D03*
X189690000Y-80400000D03*
X182750000Y-86610000D03*
X179200000Y-73300000D03*
X181370000Y-87230000D03*
X192770000Y-77880000D03*
X178130000Y-84070000D03*
X181450000Y-79430000D03*
X192420000Y-91820000D03*
X187000000Y-91430000D03*
X174400000Y-90095000D03*
X183600000Y-79750000D03*
X191330000Y-77620000D03*
X185670000Y-85170000D03*
X181840000Y-86720000D03*
X194760000Y-80090000D03*
X181000000Y-93770000D03*
X177480000Y-92630000D03*
X184300000Y-73300000D03*
X177600000Y-93770000D03*
X186000000Y-73300000D03*
X188010000Y-79360000D03*
X192600000Y-87500000D03*
%TO.N,+3.3V*%
X193380000Y-84040000D03*
X190050000Y-89495521D03*
X189750000Y-81710000D03*
X193800000Y-86700000D03*
X189950000Y-84530000D03*
X187800000Y-75020000D03*
X190420521Y-89010521D03*
X190070000Y-85070000D03*
X193830000Y-84270000D03*
X195710000Y-80320000D03*
X173070000Y-76130000D03*
X186180000Y-91660000D03*
X188320000Y-75010000D03*
X185110000Y-91730000D03*
X192570000Y-76830000D03*
X183050000Y-75090000D03*
X193816587Y-87131306D03*
X181740000Y-82530000D03*
X193150000Y-82610000D03*
X185020000Y-92422500D03*
%TO.N,NRST*%
X173080000Y-93590000D03*
X179380000Y-90850660D03*
%TO.N,USART3_RX*%
X180000000Y-93270000D03*
X182345000Y-82715000D03*
%TO.N,SDDETECT*%
X193396250Y-81483750D03*
X184190000Y-91260000D03*
%TO.N,VIN*%
X175470000Y-81450000D03*
X182950430Y-81600789D03*
X174480000Y-85147500D03*
%TO.N,+5V*%
X177340000Y-74380000D03*
X189147500Y-91280000D03*
X193490000Y-93810000D03*
X181560000Y-74390000D03*
X173070000Y-73460000D03*
X181541494Y-73890340D03*
X175170000Y-73890000D03*
X175170000Y-74330000D03*
X194280000Y-88840000D03*
X194280000Y-89310000D03*
X195710000Y-78920000D03*
%TO.N,ADC1_IN3_VBAT*%
X174770000Y-83300000D03*
X179180000Y-88470000D03*
%TO.N,ADC1_IN2_CURR*%
X180720000Y-78872500D03*
X179541191Y-88089171D03*
%TO.N,I2C3_SDA_ACCEL*%
X185110000Y-82870000D03*
X195710000Y-83120000D03*
X189860000Y-83705000D03*
%TO.N,I2C3_SCL_ACCEL*%
X188090000Y-87150000D03*
X191937000Y-83410000D03*
X195710000Y-84520000D03*
%TO.N,3.3VEN*%
X189655249Y-93721215D03*
X189160000Y-93790000D03*
X189740000Y-77920000D03*
X190530166Y-83559834D03*
X189610000Y-93200000D03*
%TO.N,SPI1_CS_SD*%
X182650000Y-91240000D03*
X190330000Y-76010000D03*
%TO.N,SPI1_MISO_SD*%
X181480000Y-91210000D03*
X184510000Y-76050000D03*
%TO.N,SPI1_SCK_SD*%
X180225170Y-90704168D03*
X187020000Y-75880000D03*
%TO.N,SPI1_MOSI_SD*%
X189220000Y-75840000D03*
X182060000Y-91220000D03*
%TO.N,USART1_RX_GPS*%
X189730000Y-83060000D03*
X183132230Y-82772331D03*
%TO.N,USART1_TX_GPS*%
X183185000Y-83269541D03*
X189760000Y-82490000D03*
%TO.N,LPUART1_RX_RADIO*%
X185760000Y-77960000D03*
X179690000Y-90100000D03*
%TO.N,LPUART1_TX_RADIO*%
X187160000Y-90760000D03*
X188260000Y-78180000D03*
%TO.N,GPIO_EXTI1*%
X173070000Y-77580000D03*
X183230000Y-91230000D03*
%TO.N,SWO*%
X183310000Y-82305000D03*
X173090000Y-89490000D03*
%TO.N,SWDIO*%
X188230000Y-83220000D03*
X173070000Y-92300000D03*
%TO.N,SWCLK{slash}I2C1_SDA*%
X173070000Y-90900000D03*
X187585000Y-83220000D03*
%TO.N,TIM3_CHI_PWM4*%
X188120000Y-87730000D03*
%TO.N,USART3_TX*%
X185620000Y-91330000D03*
X180020000Y-92060000D03*
%TO.N,D+*%
X193220000Y-89955000D03*
X188120000Y-85490000D03*
%TO.N,D-*%
X190860000Y-90540000D03*
X188150000Y-86110000D03*
%TO.N,BAT+*%
X174650000Y-86680000D03*
X175470000Y-76026000D03*
%TO.N,PWEN*%
X188180000Y-88240000D03*
X194690000Y-93860000D03*
%TO.N,USBD+*%
X192060000Y-93870000D03*
%TO.N,USBD-*%
X190740000Y-93860000D03*
%TO.N,ADC2_IN17*%
X180190000Y-90150000D03*
X174500000Y-93530000D03*
%TD*%
D13*
%TO.N,VIN*%
X179866459Y-85147500D02*
X174480000Y-85147500D01*
X181898170Y-81600789D02*
X180600000Y-82898959D01*
X180600000Y-84413959D02*
X179866459Y-85147500D01*
X182950430Y-81600789D02*
X181898170Y-81600789D01*
X180600000Y-82898959D02*
X180600000Y-84413959D01*
X174164815Y-82255185D02*
X174164815Y-84832315D01*
X174970000Y-81450000D02*
X174164815Y-82255185D01*
X175470000Y-81450000D02*
X174970000Y-81450000D01*
X174164815Y-84832315D02*
X174480000Y-85147500D01*
%TO.N,3.3VEN*%
X190550000Y-88280000D02*
X190550000Y-83579668D01*
X189610000Y-93200000D02*
X189655249Y-93245249D01*
X189655249Y-93721215D02*
X189228785Y-93721215D01*
X189610000Y-93200000D02*
X188710000Y-92300000D01*
X190550000Y-83579668D02*
X190530166Y-83559834D01*
X190530166Y-83559834D02*
X190275000Y-83304668D01*
X189625000Y-89205000D02*
X190550000Y-88280000D01*
X189228785Y-93721215D02*
X189160000Y-93790000D01*
X190275000Y-78455000D02*
X189740000Y-77920000D01*
X189625000Y-89945000D02*
X189625000Y-89205000D01*
X189655249Y-93245249D02*
X189655249Y-93721215D01*
X188710000Y-90860000D02*
X189625000Y-89945000D01*
X188710000Y-92300000D02*
X188710000Y-90860000D01*
X190275000Y-83304668D02*
X190275000Y-78455000D01*
D14*
%TO.N,GPIO_EXTI1*%
X173720000Y-77580000D02*
X173864815Y-77724815D01*
X179430000Y-92470000D02*
X181990000Y-92470000D01*
X181990000Y-92470000D02*
X183230000Y-91230000D01*
X173864815Y-77724815D02*
X173864815Y-86904815D01*
X173070000Y-77580000D02*
X173720000Y-77580000D01*
X173864815Y-86904815D02*
X179430000Y-92470000D01*
%TD*%
%TA.AperFunction,Conductor*%
%TO.N,+5V*%
G36*
X177154489Y-72960185D02*
G01*
X177200244Y-73012989D01*
X177210188Y-73082147D01*
X177197936Y-73120790D01*
X177162500Y-73190339D01*
X177162498Y-73190343D01*
X177145131Y-73299997D01*
X177145131Y-73300002D01*
X177162498Y-73409658D01*
X177212904Y-73508585D01*
X177212909Y-73508592D01*
X177291407Y-73587090D01*
X177291410Y-73587092D01*
X177291413Y-73587095D01*
X177390339Y-73637500D01*
X177390341Y-73637501D01*
X177499998Y-73654869D01*
X177500000Y-73654869D01*
X177500002Y-73654869D01*
X177609658Y-73637501D01*
X177609659Y-73637500D01*
X177609661Y-73637500D01*
X177708587Y-73587095D01*
X177787095Y-73508587D01*
X177837500Y-73409661D01*
X177837500Y-73409659D01*
X177837501Y-73409658D01*
X177854869Y-73300002D01*
X177854869Y-73299997D01*
X177837501Y-73190343D01*
X177837500Y-73190341D01*
X177837500Y-73190339D01*
X177802064Y-73120792D01*
X177789169Y-73052125D01*
X177815446Y-72987385D01*
X177872552Y-72947128D01*
X177912550Y-72940500D01*
X178787450Y-72940500D01*
X178854489Y-72960185D01*
X178900244Y-73012989D01*
X178910188Y-73082147D01*
X178897936Y-73120790D01*
X178862500Y-73190339D01*
X178862498Y-73190343D01*
X178845131Y-73299997D01*
X178845131Y-73300002D01*
X178862498Y-73409658D01*
X178912904Y-73508585D01*
X178912909Y-73508592D01*
X178991407Y-73587090D01*
X178991410Y-73587092D01*
X178991413Y-73587095D01*
X179090339Y-73637500D01*
X179090341Y-73637501D01*
X179199998Y-73654869D01*
X179200000Y-73654869D01*
X179200002Y-73654869D01*
X179309658Y-73637501D01*
X179309659Y-73637500D01*
X179309661Y-73637500D01*
X179408587Y-73587095D01*
X179487095Y-73508587D01*
X179537500Y-73409661D01*
X179537500Y-73409659D01*
X179537501Y-73409658D01*
X179554869Y-73300002D01*
X179554869Y-73299997D01*
X179537501Y-73190343D01*
X179537500Y-73190341D01*
X179537500Y-73190339D01*
X179502064Y-73120792D01*
X179489169Y-73052125D01*
X179515446Y-72987385D01*
X179572552Y-72947128D01*
X179612550Y-72940500D01*
X180487450Y-72940500D01*
X180554489Y-72960185D01*
X180600244Y-73012989D01*
X180610188Y-73082147D01*
X180597936Y-73120790D01*
X180562500Y-73190339D01*
X180562498Y-73190343D01*
X180545131Y-73299997D01*
X180545131Y-73300002D01*
X180562498Y-73409658D01*
X180612904Y-73508585D01*
X180612909Y-73508592D01*
X180691407Y-73587090D01*
X180691410Y-73587092D01*
X180691413Y-73587095D01*
X180790339Y-73637500D01*
X180790341Y-73637501D01*
X180899998Y-73654869D01*
X180900000Y-73654869D01*
X180900002Y-73654869D01*
X181009658Y-73637501D01*
X181009659Y-73637500D01*
X181009661Y-73637500D01*
X181108587Y-73587095D01*
X181187095Y-73508587D01*
X181237500Y-73409661D01*
X181237500Y-73409659D01*
X181237501Y-73409658D01*
X181254869Y-73300002D01*
X181254869Y-73299997D01*
X181237501Y-73190343D01*
X181237500Y-73190341D01*
X181237500Y-73190339D01*
X181202064Y-73120792D01*
X181189169Y-73052125D01*
X181215446Y-72987385D01*
X181272552Y-72947128D01*
X181312550Y-72940500D01*
X182187450Y-72940500D01*
X182254489Y-72960185D01*
X182300244Y-73012989D01*
X182310188Y-73082147D01*
X182297936Y-73120790D01*
X182262500Y-73190339D01*
X182262498Y-73190343D01*
X182245131Y-73299997D01*
X182245131Y-73300002D01*
X182262498Y-73409658D01*
X182312904Y-73508585D01*
X182312909Y-73508592D01*
X182391407Y-73587090D01*
X182391410Y-73587092D01*
X182391413Y-73587095D01*
X182490339Y-73637500D01*
X182490341Y-73637501D01*
X182599998Y-73654869D01*
X182600000Y-73654869D01*
X182600002Y-73654869D01*
X182709658Y-73637501D01*
X182709659Y-73637500D01*
X182709661Y-73637500D01*
X182808587Y-73587095D01*
X182887095Y-73508587D01*
X182937500Y-73409661D01*
X182937500Y-73409659D01*
X182937501Y-73409658D01*
X182954869Y-73300002D01*
X182954869Y-73299997D01*
X182937501Y-73190343D01*
X182937500Y-73190341D01*
X182937500Y-73190339D01*
X182902064Y-73120792D01*
X182889169Y-73052125D01*
X182915446Y-72987385D01*
X182972552Y-72947128D01*
X183012550Y-72940500D01*
X183887450Y-72940500D01*
X183954489Y-72960185D01*
X184000244Y-73012989D01*
X184010188Y-73082147D01*
X183997936Y-73120790D01*
X183962500Y-73190339D01*
X183962498Y-73190343D01*
X183945131Y-73299997D01*
X183945131Y-73300002D01*
X183962498Y-73409658D01*
X184012904Y-73508585D01*
X184012909Y-73508592D01*
X184091407Y-73587090D01*
X184091410Y-73587092D01*
X184091413Y-73587095D01*
X184190339Y-73637500D01*
X184190341Y-73637501D01*
X184299998Y-73654869D01*
X184300000Y-73654869D01*
X184300002Y-73654869D01*
X184409658Y-73637501D01*
X184409659Y-73637500D01*
X184409661Y-73637500D01*
X184508587Y-73587095D01*
X184587095Y-73508587D01*
X184637500Y-73409661D01*
X184637500Y-73409659D01*
X184637501Y-73409658D01*
X184654869Y-73300002D01*
X184654869Y-73299997D01*
X184637501Y-73190343D01*
X184637500Y-73190341D01*
X184637500Y-73190339D01*
X184602064Y-73120792D01*
X184589169Y-73052125D01*
X184615446Y-72987385D01*
X184672552Y-72947128D01*
X184712550Y-72940500D01*
X185587450Y-72940500D01*
X185654489Y-72960185D01*
X185700244Y-73012989D01*
X185710188Y-73082147D01*
X185697936Y-73120790D01*
X185662500Y-73190339D01*
X185662498Y-73190343D01*
X185645131Y-73299997D01*
X185645131Y-73300002D01*
X185662498Y-73409658D01*
X185712904Y-73508585D01*
X185712909Y-73508592D01*
X185791407Y-73587090D01*
X185791410Y-73587092D01*
X185791413Y-73587095D01*
X185890339Y-73637500D01*
X185890341Y-73637501D01*
X185999998Y-73654869D01*
X186000000Y-73654869D01*
X186000002Y-73654869D01*
X186109658Y-73637501D01*
X186109659Y-73637500D01*
X186109661Y-73637500D01*
X186208587Y-73587095D01*
X186287095Y-73508587D01*
X186337500Y-73409661D01*
X186337500Y-73409659D01*
X186337501Y-73409658D01*
X186354869Y-73300002D01*
X186354869Y-73299997D01*
X186337501Y-73190343D01*
X186337500Y-73190341D01*
X186337500Y-73190339D01*
X186302064Y-73120792D01*
X186289169Y-73052125D01*
X186315446Y-72987385D01*
X186372552Y-72947128D01*
X186412550Y-72940500D01*
X187287450Y-72940500D01*
X187354489Y-72960185D01*
X187400244Y-73012989D01*
X187410188Y-73082147D01*
X187397936Y-73120790D01*
X187362500Y-73190339D01*
X187362498Y-73190343D01*
X187345131Y-73299997D01*
X187345131Y-73300002D01*
X187362498Y-73409658D01*
X187412904Y-73508585D01*
X187412909Y-73508592D01*
X187491407Y-73587090D01*
X187491410Y-73587092D01*
X187491413Y-73587095D01*
X187590339Y-73637500D01*
X187590341Y-73637501D01*
X187699998Y-73654869D01*
X187700000Y-73654869D01*
X187700002Y-73654869D01*
X187809658Y-73637501D01*
X187809659Y-73637500D01*
X187809661Y-73637500D01*
X187908587Y-73587095D01*
X187987095Y-73508587D01*
X188037500Y-73409661D01*
X188037500Y-73409659D01*
X188037501Y-73409658D01*
X188054869Y-73300002D01*
X188054869Y-73299997D01*
X188037501Y-73190343D01*
X188037500Y-73190341D01*
X188037500Y-73190339D01*
X188002064Y-73120792D01*
X187989169Y-73052125D01*
X188015446Y-72987385D01*
X188072552Y-72947128D01*
X188112550Y-72940500D01*
X188987450Y-72940500D01*
X189054489Y-72960185D01*
X189100244Y-73012989D01*
X189110188Y-73082147D01*
X189097936Y-73120790D01*
X189062500Y-73190339D01*
X189062498Y-73190343D01*
X189045131Y-73299997D01*
X189045131Y-73300002D01*
X189062498Y-73409658D01*
X189112904Y-73508585D01*
X189112909Y-73508592D01*
X189191407Y-73587090D01*
X189191410Y-73587092D01*
X189191413Y-73587095D01*
X189290339Y-73637500D01*
X189290341Y-73637501D01*
X189399998Y-73654869D01*
X189400000Y-73654869D01*
X189400002Y-73654869D01*
X189509658Y-73637501D01*
X189509659Y-73637500D01*
X189509661Y-73637500D01*
X189608587Y-73587095D01*
X189687095Y-73508587D01*
X189737500Y-73409661D01*
X189737500Y-73409659D01*
X189737501Y-73409658D01*
X189754869Y-73300002D01*
X189754869Y-73299997D01*
X189737501Y-73190343D01*
X189737500Y-73190341D01*
X189737500Y-73190339D01*
X189702064Y-73120792D01*
X189689169Y-73052125D01*
X189715446Y-72987385D01*
X189772552Y-72947128D01*
X189812550Y-72940500D01*
X190687450Y-72940500D01*
X190754489Y-72960185D01*
X190800244Y-73012989D01*
X190810188Y-73082147D01*
X190797936Y-73120790D01*
X190762500Y-73190339D01*
X190762498Y-73190343D01*
X190745131Y-73299997D01*
X190745131Y-73300002D01*
X190762498Y-73409658D01*
X190812904Y-73508585D01*
X190812909Y-73508592D01*
X190891407Y-73587090D01*
X190891410Y-73587092D01*
X190891413Y-73587095D01*
X190990339Y-73637500D01*
X190990341Y-73637501D01*
X191099998Y-73654869D01*
X191100000Y-73654869D01*
X191100002Y-73654869D01*
X191209658Y-73637501D01*
X191209659Y-73637500D01*
X191209661Y-73637500D01*
X191308587Y-73587095D01*
X191387095Y-73508587D01*
X191437500Y-73409661D01*
X191437500Y-73409659D01*
X191437501Y-73409658D01*
X191454869Y-73300002D01*
X191454869Y-73299997D01*
X191437501Y-73190343D01*
X191437500Y-73190341D01*
X191437500Y-73190339D01*
X191402064Y-73120792D01*
X191389169Y-73052125D01*
X191415446Y-72987385D01*
X191472552Y-72947128D01*
X191512550Y-72940500D01*
X191897973Y-72940500D01*
X191965012Y-72960185D01*
X191981201Y-72972581D01*
X195028731Y-75732082D01*
X195065212Y-75791670D01*
X195069500Y-75823998D01*
X195069500Y-76251973D01*
X195049815Y-76319012D01*
X194997011Y-76364767D01*
X194927853Y-76374711D01*
X194889208Y-76362459D01*
X194869659Y-76352499D01*
X194760002Y-76335131D01*
X194759998Y-76335131D01*
X194650341Y-76352498D01*
X194551414Y-76402904D01*
X194551407Y-76402909D01*
X194472909Y-76481407D01*
X194472904Y-76481414D01*
X194422498Y-76580341D01*
X194405131Y-76689997D01*
X194405131Y-76690002D01*
X194422498Y-76799658D01*
X194472904Y-76898585D01*
X194472909Y-76898592D01*
X194551407Y-76977090D01*
X194551410Y-76977092D01*
X194551413Y-76977095D01*
X194630793Y-77017541D01*
X194650341Y-77027501D01*
X194759998Y-77044869D01*
X194760000Y-77044869D01*
X194760002Y-77044869D01*
X194869656Y-77027501D01*
X194869656Y-77027500D01*
X194869661Y-77027500D01*
X194889207Y-77017540D01*
X194957874Y-77004645D01*
X195022615Y-77030921D01*
X195062872Y-77088028D01*
X195069500Y-77128026D01*
X195069500Y-78249992D01*
X195084799Y-78286928D01*
X195121707Y-78323836D01*
X195118514Y-78327028D01*
X195147799Y-78361994D01*
X195149717Y-78371291D01*
X195158303Y-78380000D01*
X196076004Y-78388809D01*
X196142850Y-78409136D01*
X196188096Y-78462377D01*
X196198806Y-78513997D01*
X196191180Y-79305888D01*
X196170851Y-79372735D01*
X196117609Y-79417979D01*
X196067364Y-79428694D01*
X195156746Y-79429999D01*
X195156745Y-79430000D01*
X195155617Y-79696378D01*
X195135649Y-79763334D01*
X195082651Y-79808865D01*
X195013451Y-79818515D01*
X194975323Y-79806338D01*
X194968588Y-79802906D01*
X194968587Y-79802905D01*
X194869661Y-79752500D01*
X194869659Y-79752499D01*
X194869656Y-79752498D01*
X194760002Y-79735131D01*
X194759998Y-79735131D01*
X194650341Y-79752498D01*
X194551414Y-79802904D01*
X194551407Y-79802909D01*
X194472909Y-79881407D01*
X194472904Y-79881414D01*
X194422498Y-79980341D01*
X194405131Y-80089997D01*
X194405131Y-80090002D01*
X194422498Y-80199658D01*
X194472904Y-80298585D01*
X194472909Y-80298592D01*
X194551407Y-80377090D01*
X194551410Y-80377092D01*
X194551413Y-80377095D01*
X194574280Y-80388746D01*
X194650341Y-80427501D01*
X194759998Y-80444869D01*
X194760000Y-80444869D01*
X194760002Y-80444869D01*
X194869656Y-80427501D01*
X194869656Y-80427500D01*
X194869661Y-80427500D01*
X194968587Y-80377095D01*
X194968589Y-80377092D01*
X194971978Y-80375366D01*
X195040647Y-80362470D01*
X195105388Y-80388746D01*
X195145645Y-80445853D01*
X195152272Y-80486376D01*
X195148373Y-81407534D01*
X195140000Y-83554820D01*
X195138780Y-84787396D01*
X195119029Y-84854416D01*
X195066180Y-84900118D01*
X194997011Y-84909993D01*
X194958486Y-84897758D01*
X194869658Y-84852498D01*
X194760002Y-84835131D01*
X194759998Y-84835131D01*
X194650341Y-84852498D01*
X194551414Y-84902904D01*
X194551407Y-84902909D01*
X194472909Y-84981407D01*
X194472904Y-84981414D01*
X194422498Y-85080341D01*
X194405131Y-85189997D01*
X194405131Y-85190002D01*
X194422498Y-85299658D01*
X194472904Y-85398585D01*
X194472909Y-85398592D01*
X194551407Y-85477090D01*
X194551410Y-85477092D01*
X194551413Y-85477095D01*
X194611087Y-85507500D01*
X194650341Y-85527501D01*
X194759998Y-85544869D01*
X194760000Y-85544869D01*
X194760002Y-85544869D01*
X194869657Y-85527501D01*
X194869658Y-85527500D01*
X194869661Y-85527500D01*
X194879205Y-85522636D01*
X194947873Y-85509740D01*
X195012614Y-85536016D01*
X195052871Y-85593121D01*
X195059500Y-85633121D01*
X195059500Y-86493051D01*
X195039815Y-86560090D01*
X195004391Y-86596153D01*
X194951495Y-86631496D01*
X194918234Y-86681275D01*
X194918231Y-86681282D01*
X194909500Y-86725177D01*
X194909500Y-86725180D01*
X194909500Y-87954820D01*
X194909500Y-87954822D01*
X194909499Y-87954822D01*
X194918231Y-87998717D01*
X194918234Y-87998724D01*
X194951494Y-88048502D01*
X194951495Y-88048502D01*
X194951496Y-88048504D01*
X195001278Y-88081767D01*
X195001280Y-88081767D01*
X195004390Y-88083845D01*
X195049195Y-88137457D01*
X195059500Y-88186948D01*
X195059500Y-88999992D01*
X195074799Y-89036928D01*
X195098147Y-89060276D01*
X195131632Y-89121599D01*
X195134466Y-89148079D01*
X195134375Y-89239999D01*
X195134375Y-89240000D01*
X195664485Y-89248085D01*
X195731216Y-89268790D01*
X195776160Y-89322286D01*
X195786546Y-89375483D01*
X195762967Y-90232170D01*
X195741445Y-90298642D01*
X195687403Y-90342927D01*
X195652798Y-90351989D01*
X195503123Y-90368731D01*
X195489339Y-90369500D01*
X195140007Y-90369500D01*
X195103071Y-90384799D01*
X195074799Y-90413071D01*
X195059500Y-90450007D01*
X195059500Y-90951955D01*
X195039815Y-91018994D01*
X194987011Y-91064749D01*
X194917853Y-91074693D01*
X194854297Y-91045668D01*
X194847819Y-91039636D01*
X194788592Y-90980409D01*
X194788588Y-90980406D01*
X194788587Y-90980405D01*
X194734615Y-90952905D01*
X194689658Y-90929998D01*
X194580002Y-90912631D01*
X194579998Y-90912631D01*
X194470341Y-90929998D01*
X194371414Y-90980404D01*
X194371407Y-90980409D01*
X194292909Y-91058907D01*
X194292904Y-91058914D01*
X194242498Y-91157841D01*
X194225131Y-91267497D01*
X194225131Y-91267502D01*
X194242498Y-91377158D01*
X194292904Y-91476085D01*
X194292909Y-91476092D01*
X194378313Y-91561496D01*
X194376881Y-91562927D01*
X194411906Y-91608342D01*
X194417889Y-91677955D01*
X194396683Y-91726210D01*
X194392908Y-91731406D01*
X194342498Y-91830341D01*
X194325131Y-91939997D01*
X194325131Y-91940002D01*
X194342498Y-92049658D01*
X194392904Y-92148585D01*
X194392909Y-92148592D01*
X194471407Y-92227090D01*
X194471410Y-92227092D01*
X194471413Y-92227095D01*
X194565690Y-92275131D01*
X194570341Y-92277501D01*
X194679998Y-92294869D01*
X194680000Y-92294869D01*
X194680002Y-92294869D01*
X194766102Y-92281232D01*
X194835395Y-92290187D01*
X194888847Y-92335183D01*
X194909487Y-92401934D01*
X194909500Y-92403705D01*
X194909500Y-92804820D01*
X194909500Y-92804822D01*
X194909499Y-92804822D01*
X194918231Y-92848717D01*
X194918234Y-92848724D01*
X194951494Y-92898502D01*
X194951495Y-92898502D01*
X194951496Y-92898504D01*
X195001278Y-92931767D01*
X195001280Y-92931767D01*
X195004390Y-92933845D01*
X195049195Y-92987457D01*
X195059500Y-93036948D01*
X195059500Y-93452545D01*
X195039815Y-93519584D01*
X194987011Y-93565339D01*
X194917853Y-93575283D01*
X194879206Y-93563030D01*
X194876032Y-93561413D01*
X194848727Y-93547500D01*
X194799658Y-93522498D01*
X194690002Y-93505131D01*
X194689998Y-93505131D01*
X194580341Y-93522498D01*
X194481414Y-93572904D01*
X194481407Y-93572909D01*
X194402909Y-93651407D01*
X194402904Y-93651414D01*
X194352498Y-93750341D01*
X194335131Y-93859997D01*
X194335131Y-93860002D01*
X194352499Y-93969659D01*
X194355514Y-93978937D01*
X194353688Y-93979530D01*
X194364342Y-94036262D01*
X194338065Y-94101002D01*
X194280958Y-94141258D01*
X194240743Y-94147886D01*
X193014470Y-94145735D01*
X192947466Y-94125933D01*
X192901803Y-94073049D01*
X192890690Y-94021202D01*
X192900000Y-91880000D01*
X192899998Y-91879999D01*
X192899999Y-91879999D01*
X192887595Y-91879735D01*
X192820991Y-91858625D01*
X192776373Y-91804857D01*
X192767767Y-91775160D01*
X192757501Y-91710342D01*
X192757500Y-91710340D01*
X192757500Y-91710339D01*
X192707095Y-91611413D01*
X192639842Y-91544160D01*
X192606359Y-91482840D01*
X192611343Y-91413148D01*
X192617032Y-91400205D01*
X192627500Y-91379661D01*
X192627897Y-91377158D01*
X192644869Y-91270002D01*
X192644869Y-91269997D01*
X192627501Y-91160341D01*
X192600371Y-91107095D01*
X192577095Y-91061413D01*
X192577092Y-91061410D01*
X192577090Y-91061407D01*
X192498592Y-90982909D01*
X192498588Y-90982906D01*
X192498587Y-90982905D01*
X192470486Y-90968587D01*
X192399658Y-90932498D01*
X192290002Y-90915131D01*
X192289998Y-90915131D01*
X192180341Y-90932498D01*
X192081414Y-90982904D01*
X192081407Y-90982909D01*
X192002909Y-91061407D01*
X192002904Y-91061414D01*
X191952498Y-91160341D01*
X191935131Y-91269997D01*
X191935131Y-91270002D01*
X191952498Y-91379658D01*
X191974619Y-91423072D01*
X192002905Y-91478587D01*
X192070156Y-91545838D01*
X192103640Y-91607159D01*
X192098656Y-91676851D01*
X192092959Y-91689812D01*
X192082499Y-91710341D01*
X192075398Y-91755172D01*
X192045468Y-91818306D01*
X191986156Y-91855236D01*
X191950281Y-91859744D01*
X189106856Y-91799103D01*
X189040252Y-91777993D01*
X188995633Y-91724226D01*
X188985500Y-91675131D01*
X188985500Y-91025477D01*
X189005185Y-90958438D01*
X189021819Y-90937796D01*
X189419618Y-90539997D01*
X190505131Y-90539997D01*
X190505131Y-90540002D01*
X190522498Y-90649658D01*
X190572904Y-90748585D01*
X190572909Y-90748592D01*
X190651407Y-90827090D01*
X190651410Y-90827092D01*
X190651413Y-90827095D01*
X190734954Y-90869661D01*
X190750341Y-90877501D01*
X190859998Y-90894869D01*
X190860000Y-90894869D01*
X190860002Y-90894869D01*
X190969658Y-90877501D01*
X190969659Y-90877500D01*
X190969661Y-90877500D01*
X191068587Y-90827095D01*
X191147095Y-90748587D01*
X191197500Y-90649661D01*
X191197500Y-90649659D01*
X191197501Y-90649658D01*
X191214869Y-90540002D01*
X191214869Y-90539997D01*
X191197501Y-90430341D01*
X191190741Y-90417073D01*
X191147095Y-90331413D01*
X191147092Y-90331410D01*
X191147090Y-90331407D01*
X191068592Y-90252909D01*
X191068588Y-90252906D01*
X191068587Y-90252905D01*
X190997980Y-90216929D01*
X190969658Y-90202498D01*
X190860002Y-90185131D01*
X190859998Y-90185131D01*
X190750341Y-90202498D01*
X190651414Y-90252904D01*
X190651407Y-90252909D01*
X190572909Y-90331407D01*
X190572904Y-90331414D01*
X190522498Y-90430341D01*
X190505131Y-90539997D01*
X189419618Y-90539997D01*
X189858557Y-90101059D01*
X189883708Y-90040339D01*
X189900500Y-89999800D01*
X189900500Y-89971896D01*
X189920185Y-89904857D01*
X189972989Y-89859102D01*
X190042147Y-89849158D01*
X190043837Y-89849413D01*
X190050000Y-89850390D01*
X190050000Y-89850389D01*
X190050001Y-89850390D01*
X190050002Y-89850390D01*
X190159658Y-89833022D01*
X190159659Y-89833021D01*
X190159661Y-89833021D01*
X190258587Y-89782616D01*
X190258592Y-89782611D01*
X190264885Y-89776319D01*
X190326208Y-89742834D01*
X190352566Y-89740000D01*
X192753998Y-89740000D01*
X192821037Y-89759685D01*
X192866792Y-89812489D01*
X192876736Y-89881647D01*
X192876471Y-89883397D01*
X192865131Y-89954996D01*
X192865131Y-89955002D01*
X192882498Y-90064658D01*
X192932904Y-90163585D01*
X192932909Y-90163592D01*
X193011407Y-90242090D01*
X193011410Y-90242092D01*
X193011413Y-90242095D01*
X193056544Y-90265090D01*
X193110341Y-90292501D01*
X193219998Y-90309869D01*
X193220000Y-90309869D01*
X193220002Y-90309869D01*
X193329658Y-90292501D01*
X193329659Y-90292500D01*
X193329661Y-90292500D01*
X193428587Y-90242095D01*
X193507095Y-90163587D01*
X193557500Y-90064661D01*
X193557500Y-90064659D01*
X193557501Y-90064658D01*
X193574869Y-89955002D01*
X193574869Y-89954996D01*
X193563529Y-89883397D01*
X193572484Y-89814104D01*
X193617480Y-89760652D01*
X193684232Y-89740013D01*
X193686002Y-89740000D01*
X193770000Y-89740000D01*
X193775305Y-87598310D01*
X193795156Y-87531321D01*
X193848073Y-87485697D01*
X193879908Y-87476146D01*
X193926245Y-87468807D01*
X193926246Y-87468806D01*
X193926248Y-87468806D01*
X194025174Y-87418401D01*
X194103682Y-87339893D01*
X194154087Y-87240967D01*
X194154087Y-87240965D01*
X194154088Y-87240964D01*
X194171456Y-87131308D01*
X194171456Y-87131303D01*
X194154088Y-87021649D01*
X194154087Y-87021647D01*
X194154087Y-87021645D01*
X194120469Y-86955666D01*
X194107574Y-86887001D01*
X194120469Y-86843085D01*
X194137500Y-86809661D01*
X194137501Y-86809656D01*
X194154869Y-86700002D01*
X194154869Y-86699997D01*
X194137501Y-86590341D01*
X194137500Y-86590339D01*
X194087095Y-86491413D01*
X194087092Y-86491410D01*
X194087090Y-86491407D01*
X194008592Y-86412909D01*
X194008588Y-86412906D01*
X194008587Y-86412905D01*
X193909661Y-86362500D01*
X193909659Y-86362499D01*
X193909658Y-86362499D01*
X193883281Y-86358321D01*
X193820147Y-86328391D01*
X193783216Y-86269079D01*
X193778681Y-86235552D01*
X193782391Y-84738006D01*
X193802242Y-84671017D01*
X193855159Y-84625393D01*
X193886994Y-84615842D01*
X193939658Y-84607501D01*
X193939659Y-84607500D01*
X193939661Y-84607500D01*
X194038587Y-84557095D01*
X194117095Y-84478587D01*
X194167500Y-84379661D01*
X194167500Y-84379659D01*
X194167501Y-84379658D01*
X194184869Y-84270002D01*
X194184869Y-84269997D01*
X194167501Y-84160341D01*
X194121470Y-84070000D01*
X194117095Y-84061413D01*
X194117092Y-84061410D01*
X194117090Y-84061407D01*
X194038592Y-83982909D01*
X194038588Y-83982906D01*
X194038587Y-83982905D01*
X193939661Y-83932500D01*
X193939659Y-83932499D01*
X193939658Y-83932499D01*
X193889310Y-83924524D01*
X193826176Y-83894594D01*
X193789246Y-83835282D01*
X193784710Y-83801749D01*
X193800000Y-77630000D01*
X192950465Y-76826902D01*
X192915273Y-76766547D01*
X192913183Y-76756221D01*
X192907500Y-76720339D01*
X192857095Y-76621413D01*
X192857092Y-76621410D01*
X192857090Y-76621407D01*
X192778592Y-76542909D01*
X192778588Y-76542906D01*
X192778587Y-76542905D01*
X192744202Y-76525385D01*
X192679658Y-76492498D01*
X192617933Y-76482722D01*
X192554798Y-76452792D01*
X192552148Y-76450358D01*
X190690001Y-74690000D01*
X190689998Y-74689999D01*
X188387414Y-74664471D01*
X188369394Y-74662953D01*
X188320000Y-74655131D01*
X188279606Y-74661528D01*
X188258836Y-74663046D01*
X183925056Y-74615000D01*
X174709189Y-74600191D01*
X174642181Y-74580399D01*
X174596511Y-74527521D01*
X174585477Y-74480896D01*
X174560000Y-73810000D01*
X174559999Y-73810000D01*
X174559999Y-73809999D01*
X172696301Y-73837073D01*
X172628983Y-73818364D01*
X172582466Y-73766230D01*
X172570500Y-73713086D01*
X172570500Y-73064500D01*
X172590185Y-72997461D01*
X172642989Y-72951706D01*
X172694500Y-72940500D01*
X177087450Y-72940500D01*
X177154489Y-72960185D01*
G37*
%TD.AperFunction*%
%TD*%
%TA.AperFunction,Conductor*%
%TO.N,+3.3V*%
G36*
X174356578Y-73988157D02*
G01*
X174403095Y-74040291D01*
X174414972Y-74088729D01*
X174430089Y-74486802D01*
X174434155Y-74516698D01*
X174434158Y-74516714D01*
X174445189Y-74563327D01*
X174445192Y-74563334D01*
X174478826Y-74629159D01*
X174478832Y-74629167D01*
X174524492Y-74682034D01*
X174529467Y-74687524D01*
X174529469Y-74687526D01*
X174582558Y-74720002D01*
X174598135Y-74729531D01*
X174622753Y-74736802D01*
X174665141Y-74749322D01*
X174665144Y-74749322D01*
X174665146Y-74749323D01*
X174708931Y-74755690D01*
X174708939Y-74755691D01*
X183923632Y-74770497D01*
X183924748Y-74770504D01*
X188257112Y-74818536D01*
X188270171Y-74818132D01*
X188290941Y-74816614D01*
X188303929Y-74815114D01*
X188303950Y-74815110D01*
X188305653Y-74814914D01*
X188339281Y-74815621D01*
X188345072Y-74816539D01*
X188356341Y-74817904D01*
X188374361Y-74819422D01*
X188385690Y-74819961D01*
X190578876Y-74844275D01*
X190645690Y-74864701D01*
X190662682Y-74878158D01*
X192411533Y-76531413D01*
X192445325Y-76563358D01*
X192446959Y-76564881D01*
X192449609Y-76567315D01*
X192488187Y-76593303D01*
X192551322Y-76623233D01*
X192584721Y-76633560D01*
X192593601Y-76636306D01*
X192593602Y-76636306D01*
X192593608Y-76636308D01*
X192611606Y-76639158D01*
X192648505Y-76651146D01*
X192668552Y-76661361D01*
X192699937Y-76684164D01*
X192715834Y-76700061D01*
X192738638Y-76731448D01*
X192749073Y-76751928D01*
X192760481Y-76785788D01*
X192760514Y-76785782D01*
X192760566Y-76786040D01*
X192760613Y-76786179D01*
X192760767Y-76787036D01*
X192762864Y-76797395D01*
X192762865Y-76797397D01*
X192780941Y-76844875D01*
X192816132Y-76905228D01*
X192843642Y-76939902D01*
X193605384Y-77660006D01*
X193640578Y-77720364D01*
X193644200Y-77750422D01*
X193636094Y-81021990D01*
X193616243Y-81088981D01*
X193563326Y-81134605D01*
X193494143Y-81144377D01*
X193492696Y-81144156D01*
X193396252Y-81128881D01*
X193396248Y-81128881D01*
X193286591Y-81146248D01*
X193187664Y-81196654D01*
X193187657Y-81196659D01*
X193109159Y-81275157D01*
X193109154Y-81275164D01*
X193058748Y-81374091D01*
X193041381Y-81483747D01*
X193041381Y-81483752D01*
X193058748Y-81593408D01*
X193109154Y-81692335D01*
X193109159Y-81692342D01*
X193187657Y-81770840D01*
X193187660Y-81770842D01*
X193187663Y-81770845D01*
X193263285Y-81809376D01*
X193286591Y-81821251D01*
X193396248Y-81838619D01*
X193396250Y-81838619D01*
X193396252Y-81838619D01*
X193490406Y-81823706D01*
X193559699Y-81832660D01*
X193613151Y-81877656D01*
X193633791Y-81944408D01*
X193633804Y-81946486D01*
X193629210Y-83801368D01*
X193630612Y-83822587D01*
X193635149Y-83856128D01*
X193637053Y-83861414D01*
X193657242Y-83917473D01*
X193694172Y-83976785D01*
X193698233Y-83982973D01*
X193759564Y-84035104D01*
X193822698Y-84065034D01*
X193864982Y-84078109D01*
X193871609Y-84079158D01*
X193908498Y-84091144D01*
X193928553Y-84101362D01*
X193959937Y-84124164D01*
X193975833Y-84140060D01*
X193998637Y-84171446D01*
X194008853Y-84191496D01*
X194020841Y-84228394D01*
X194024358Y-84250600D01*
X194024359Y-84289394D01*
X194020841Y-84311607D01*
X194008852Y-84348505D01*
X193998639Y-84368549D01*
X193975835Y-84399935D01*
X193959936Y-84415834D01*
X193928550Y-84438638D01*
X193908506Y-84448851D01*
X193871617Y-84460838D01*
X193862678Y-84462254D01*
X193862659Y-84462258D01*
X193842319Y-84466898D01*
X193810474Y-84476451D01*
X193810473Y-84476452D01*
X193753618Y-84507621D01*
X193700695Y-84553251D01*
X193695215Y-84558208D01*
X193695214Y-84558210D01*
X193653149Y-84626836D01*
X193653148Y-84626839D01*
X193633301Y-84693816D01*
X193633297Y-84693833D01*
X193626891Y-84737610D01*
X193626891Y-84737621D01*
X193623396Y-86148587D01*
X193623181Y-86235171D01*
X193624582Y-86256380D01*
X193624584Y-86256398D01*
X193629119Y-86289924D01*
X193651214Y-86351274D01*
X193688144Y-86410584D01*
X193692202Y-86416767D01*
X193692204Y-86416770D01*
X193753535Y-86468901D01*
X193816669Y-86498831D01*
X193816674Y-86498832D01*
X193816675Y-86498833D01*
X193852375Y-86509872D01*
X193872033Y-86517849D01*
X193898553Y-86531362D01*
X193929937Y-86554164D01*
X193945834Y-86570061D01*
X193968636Y-86601444D01*
X193972994Y-86609997D01*
X193978852Y-86621492D01*
X193990842Y-86658393D01*
X193994359Y-86680601D01*
X193994358Y-86719396D01*
X193990733Y-86742282D01*
X193982553Y-86769645D01*
X193982981Y-86769816D01*
X193971271Y-86799265D01*
X193971268Y-86799273D01*
X193958372Y-86843192D01*
X193955656Y-86897500D01*
X193954746Y-86915702D01*
X193967641Y-86984367D01*
X193981918Y-87026262D01*
X193995439Y-87052800D01*
X194007427Y-87089695D01*
X194010945Y-87111907D01*
X194010945Y-87150704D01*
X194007427Y-87172915D01*
X193995439Y-87209810D01*
X193993860Y-87212909D01*
X193985226Y-87229855D01*
X193962422Y-87261241D01*
X193946523Y-87277140D01*
X193915135Y-87299945D01*
X193895090Y-87310158D01*
X193858221Y-87322141D01*
X193855606Y-87322555D01*
X193855573Y-87322562D01*
X193835233Y-87327202D01*
X193803388Y-87336755D01*
X193803387Y-87336756D01*
X193746532Y-87367925D01*
X193693609Y-87413555D01*
X193688129Y-87418512D01*
X193688128Y-87418514D01*
X193646063Y-87487140D01*
X193646062Y-87487143D01*
X193626215Y-87554120D01*
X193626211Y-87554137D01*
X193619805Y-87597914D01*
X193619805Y-87597926D01*
X193615056Y-89514815D01*
X193595205Y-89581806D01*
X193562021Y-89616194D01*
X193523874Y-89642816D01*
X193457633Y-89665040D01*
X193396617Y-89651615D01*
X193329661Y-89617500D01*
X193329659Y-89617499D01*
X193329656Y-89617498D01*
X193220002Y-89600131D01*
X193219998Y-89600131D01*
X193110342Y-89617498D01*
X193044592Y-89650999D01*
X192975923Y-89663894D01*
X192923760Y-89646394D01*
X192876358Y-89617500D01*
X192864848Y-89610484D01*
X192864847Y-89610483D01*
X192864846Y-89610483D01*
X192797810Y-89590799D01*
X192797800Y-89590797D01*
X192754001Y-89584500D01*
X192753998Y-89584500D01*
X190352566Y-89584500D01*
X190335958Y-89585390D01*
X190335949Y-89585390D01*
X190335943Y-89585391D01*
X190335937Y-89585391D01*
X190335906Y-89585394D01*
X190309584Y-89588224D01*
X190309582Y-89588225D01*
X190251687Y-89606354D01*
X190251682Y-89606355D01*
X190190356Y-89639843D01*
X190186255Y-89642913D01*
X190168252Y-89654121D01*
X190128502Y-89674374D01*
X190091607Y-89686361D01*
X190045069Y-89693732D01*
X190025247Y-89695258D01*
X190024076Y-89695254D01*
X189957105Y-89675341D01*
X189911530Y-89622381D01*
X189900500Y-89571255D01*
X189900500Y-89370477D01*
X189920185Y-89303438D01*
X189936819Y-89282796D01*
X190340115Y-88879500D01*
X190783558Y-88436058D01*
X190783558Y-88436056D01*
X190783560Y-88436055D01*
X190808903Y-88374869D01*
X190825500Y-88334800D01*
X190825500Y-88225200D01*
X190825500Y-87499997D01*
X191465131Y-87499997D01*
X191465131Y-87500002D01*
X191482498Y-87609658D01*
X191532904Y-87708585D01*
X191532909Y-87708592D01*
X191611407Y-87787090D01*
X191611410Y-87787092D01*
X191611413Y-87787095D01*
X191710339Y-87837500D01*
X191796336Y-87851120D01*
X191859467Y-87881048D01*
X191896399Y-87940360D01*
X191899409Y-87992989D01*
X191895131Y-88020001D01*
X191895131Y-88020002D01*
X191912498Y-88129658D01*
X191962904Y-88228585D01*
X191962909Y-88228592D01*
X192041407Y-88307090D01*
X192041410Y-88307092D01*
X192041413Y-88307095D01*
X192124946Y-88349657D01*
X192140341Y-88357501D01*
X192249998Y-88374869D01*
X192250000Y-88374869D01*
X192250002Y-88374869D01*
X192359658Y-88357501D01*
X192359659Y-88357500D01*
X192359661Y-88357500D01*
X192458587Y-88307095D01*
X192537095Y-88228587D01*
X192587500Y-88129661D01*
X192587500Y-88129659D01*
X192587501Y-88129658D01*
X192604869Y-88020002D01*
X192604869Y-88020001D01*
X192603061Y-88008585D01*
X192598633Y-87980630D01*
X192607587Y-87911339D01*
X192652582Y-87857887D01*
X192701708Y-87838759D01*
X192709661Y-87837500D01*
X192808587Y-87787095D01*
X192887095Y-87708587D01*
X192937500Y-87609661D01*
X192937500Y-87609659D01*
X192937501Y-87609658D01*
X192954869Y-87500002D01*
X192954869Y-87499997D01*
X192937501Y-87390341D01*
X192937500Y-87390339D01*
X192887095Y-87291413D01*
X192887092Y-87291410D01*
X192887090Y-87291407D01*
X192808592Y-87212909D01*
X192808588Y-87212906D01*
X192808587Y-87212905D01*
X192768171Y-87192312D01*
X192709658Y-87162498D01*
X192600002Y-87145131D01*
X192599998Y-87145131D01*
X192490341Y-87162498D01*
X192391414Y-87212904D01*
X192391407Y-87212909D01*
X192312906Y-87291410D01*
X192310319Y-87294972D01*
X192306063Y-87298253D01*
X192306004Y-87298313D01*
X192305996Y-87298305D01*
X192254990Y-87337638D01*
X192185377Y-87343619D01*
X192123581Y-87311014D01*
X192109681Y-87294972D01*
X192107093Y-87291410D01*
X192028592Y-87212909D01*
X192028588Y-87212906D01*
X192028587Y-87212905D01*
X191988171Y-87192312D01*
X191929658Y-87162498D01*
X191820002Y-87145131D01*
X191819998Y-87145131D01*
X191710341Y-87162498D01*
X191611414Y-87212904D01*
X191611407Y-87212909D01*
X191532909Y-87291407D01*
X191532904Y-87291414D01*
X191482498Y-87390341D01*
X191465131Y-87499997D01*
X190825500Y-87499997D01*
X190825500Y-83782020D01*
X190839015Y-83725725D01*
X190849575Y-83705000D01*
X190867666Y-83669495D01*
X190867666Y-83669493D01*
X190867667Y-83669492D01*
X190885035Y-83559836D01*
X190885035Y-83559831D01*
X190867667Y-83450175D01*
X190847195Y-83409997D01*
X191582131Y-83409997D01*
X191582131Y-83410002D01*
X191599498Y-83519658D01*
X191649904Y-83618585D01*
X191649909Y-83618592D01*
X191728407Y-83697090D01*
X191728410Y-83697092D01*
X191728413Y-83697095D01*
X191784603Y-83725725D01*
X191827341Y-83747501D01*
X191936998Y-83764869D01*
X191937000Y-83764869D01*
X191937002Y-83764869D01*
X192046658Y-83747501D01*
X192046659Y-83747500D01*
X192046661Y-83747500D01*
X192145587Y-83697095D01*
X192224095Y-83618587D01*
X192274500Y-83519661D01*
X192274500Y-83519659D01*
X192274501Y-83519658D01*
X192291869Y-83410002D01*
X192291869Y-83409997D01*
X192274501Y-83300341D01*
X192258324Y-83268592D01*
X192224095Y-83201413D01*
X192224092Y-83201410D01*
X192224090Y-83201407D01*
X192145592Y-83122909D01*
X192145588Y-83122906D01*
X192145587Y-83122905D01*
X192106949Y-83103218D01*
X192046658Y-83072498D01*
X191937002Y-83055131D01*
X191936998Y-83055131D01*
X191827341Y-83072498D01*
X191728414Y-83122904D01*
X191728407Y-83122909D01*
X191649909Y-83201407D01*
X191649904Y-83201414D01*
X191599498Y-83300341D01*
X191582131Y-83409997D01*
X190847195Y-83409997D01*
X190847024Y-83409661D01*
X190817261Y-83351247D01*
X190817258Y-83351244D01*
X190817256Y-83351241D01*
X190738758Y-83272743D01*
X190738754Y-83272740D01*
X190738753Y-83272739D01*
X190639827Y-83222334D01*
X190639826Y-83222333D01*
X190639823Y-83222332D01*
X190636173Y-83221146D01*
X190632310Y-83218504D01*
X190631132Y-83217904D01*
X190631209Y-83217751D01*
X190578500Y-83181704D01*
X190551307Y-83117344D01*
X190550500Y-83103218D01*
X190550500Y-79487835D01*
X190570185Y-79420796D01*
X190622989Y-79375041D01*
X190692147Y-79365097D01*
X190730791Y-79377349D01*
X190770339Y-79397500D01*
X190770340Y-79397500D01*
X190770342Y-79397501D01*
X190879998Y-79414869D01*
X190880000Y-79414869D01*
X190880002Y-79414869D01*
X190989658Y-79397501D01*
X190989659Y-79397500D01*
X190989661Y-79397500D01*
X191088587Y-79347095D01*
X191167095Y-79268587D01*
X191217500Y-79169661D01*
X191217500Y-79169659D01*
X191217501Y-79169658D01*
X191234869Y-79060002D01*
X191234869Y-79059997D01*
X191217501Y-78950341D01*
X191190686Y-78897714D01*
X191167095Y-78851413D01*
X191167092Y-78851410D01*
X191167090Y-78851407D01*
X191088592Y-78772909D01*
X191088588Y-78772906D01*
X191088587Y-78772905D01*
X191029206Y-78742649D01*
X190989658Y-78722498D01*
X190880002Y-78705131D01*
X190879998Y-78705131D01*
X190770341Y-78722498D01*
X190730794Y-78742649D01*
X190662125Y-78755545D01*
X190597384Y-78729268D01*
X190557128Y-78672161D01*
X190550500Y-78632164D01*
X190550500Y-78400201D01*
X190550500Y-78400200D01*
X190519405Y-78325131D01*
X190508557Y-78298941D01*
X190116818Y-77907203D01*
X190083334Y-77845881D01*
X190082026Y-77838919D01*
X190081107Y-77833114D01*
X190077500Y-77810339D01*
X190027095Y-77711413D01*
X190027091Y-77711409D01*
X190027090Y-77711407D01*
X189948592Y-77632909D01*
X189948588Y-77632906D01*
X189948587Y-77632905D01*
X189923263Y-77620002D01*
X189923253Y-77619997D01*
X190975131Y-77619997D01*
X190975131Y-77620002D01*
X190992498Y-77729658D01*
X191042904Y-77828585D01*
X191042909Y-77828592D01*
X191121407Y-77907090D01*
X191121410Y-77907092D01*
X191121413Y-77907095D01*
X191146741Y-77920000D01*
X191220341Y-77957501D01*
X191329998Y-77974869D01*
X191330000Y-77974869D01*
X191330002Y-77974869D01*
X191439658Y-77957501D01*
X191439659Y-77957500D01*
X191439661Y-77957500D01*
X191538587Y-77907095D01*
X191565685Y-77879997D01*
X192415131Y-77879997D01*
X192415131Y-77880002D01*
X192432498Y-77989658D01*
X192482904Y-78088585D01*
X192482909Y-78088592D01*
X192561407Y-78167090D01*
X192561410Y-78167092D01*
X192561413Y-78167095D01*
X192631899Y-78203009D01*
X192660341Y-78217501D01*
X192769998Y-78234869D01*
X192770000Y-78234869D01*
X192770002Y-78234869D01*
X192879658Y-78217501D01*
X192879659Y-78217500D01*
X192879661Y-78217500D01*
X192978587Y-78167095D01*
X193057095Y-78088587D01*
X193107500Y-77989661D01*
X193107500Y-77989659D01*
X193107501Y-77989658D01*
X193124869Y-77880002D01*
X193124869Y-77879997D01*
X193107501Y-77770341D01*
X193097352Y-77750422D01*
X193057095Y-77671413D01*
X193057092Y-77671410D01*
X193057090Y-77671407D01*
X192978592Y-77592909D01*
X192978588Y-77592906D01*
X192978587Y-77592905D01*
X192953925Y-77580339D01*
X192879658Y-77542498D01*
X192770002Y-77525131D01*
X192769998Y-77525131D01*
X192660341Y-77542498D01*
X192561414Y-77592904D01*
X192561407Y-77592909D01*
X192482909Y-77671407D01*
X192482904Y-77671414D01*
X192432498Y-77770341D01*
X192415131Y-77879997D01*
X191565685Y-77879997D01*
X191617095Y-77828587D01*
X191667500Y-77729661D01*
X191667500Y-77729659D01*
X191667501Y-77729658D01*
X191684869Y-77620002D01*
X191684869Y-77619997D01*
X191667501Y-77510341D01*
X191652762Y-77481414D01*
X191617095Y-77411413D01*
X191617092Y-77411410D01*
X191617090Y-77411407D01*
X191538592Y-77332909D01*
X191538588Y-77332906D01*
X191538587Y-77332905D01*
X191534743Y-77330946D01*
X191439658Y-77282498D01*
X191330002Y-77265131D01*
X191329998Y-77265131D01*
X191220341Y-77282498D01*
X191121414Y-77332904D01*
X191121407Y-77332909D01*
X191042909Y-77411407D01*
X191042904Y-77411414D01*
X190992498Y-77510341D01*
X190975131Y-77619997D01*
X189923253Y-77619997D01*
X189849658Y-77582498D01*
X189740002Y-77565131D01*
X189739998Y-77565131D01*
X189630341Y-77582498D01*
X189531414Y-77632904D01*
X189531407Y-77632909D01*
X189452909Y-77711407D01*
X189452904Y-77711414D01*
X189402498Y-77810341D01*
X189385131Y-77919997D01*
X189385131Y-77920002D01*
X189402498Y-78029658D01*
X189452904Y-78128585D01*
X189452909Y-78128592D01*
X189531407Y-78207090D01*
X189531409Y-78207091D01*
X189531413Y-78207095D01*
X189630339Y-78257500D01*
X189658920Y-78262026D01*
X189722055Y-78291955D01*
X189727204Y-78296819D01*
X189963181Y-78532796D01*
X189996666Y-78594119D01*
X189999500Y-78620477D01*
X189999500Y-78702354D01*
X189979815Y-78769393D01*
X189927011Y-78815148D01*
X189857853Y-78825092D01*
X189819206Y-78812839D01*
X189759658Y-78782498D01*
X189650002Y-78765131D01*
X189649998Y-78765131D01*
X189540341Y-78782498D01*
X189441414Y-78832904D01*
X189441407Y-78832909D01*
X189362909Y-78911407D01*
X189362904Y-78911414D01*
X189312498Y-79010341D01*
X189295131Y-79119997D01*
X189295131Y-79120002D01*
X189312498Y-79229658D01*
X189362904Y-79328585D01*
X189362909Y-79328592D01*
X189441407Y-79407090D01*
X189441410Y-79407092D01*
X189441413Y-79407095D01*
X189486367Y-79430000D01*
X189540341Y-79457501D01*
X189649998Y-79474869D01*
X189650000Y-79474869D01*
X189650002Y-79474869D01*
X189759656Y-79457501D01*
X189759656Y-79457500D01*
X189759661Y-79457500D01*
X189819208Y-79427159D01*
X189887874Y-79414264D01*
X189952615Y-79440540D01*
X189992872Y-79497647D01*
X189999500Y-79537645D01*
X189999500Y-79961973D01*
X189979815Y-80029012D01*
X189927011Y-80074767D01*
X189857853Y-80084711D01*
X189819208Y-80072459D01*
X189799659Y-80062499D01*
X189690002Y-80045131D01*
X189689998Y-80045131D01*
X189580341Y-80062498D01*
X189481414Y-80112904D01*
X189481407Y-80112909D01*
X189402909Y-80191407D01*
X189402904Y-80191414D01*
X189352498Y-80290341D01*
X189335131Y-80399997D01*
X189335131Y-80400002D01*
X189352498Y-80509658D01*
X189402904Y-80608585D01*
X189402909Y-80608592D01*
X189481407Y-80687090D01*
X189481410Y-80687092D01*
X189481413Y-80687095D01*
X189560793Y-80727541D01*
X189580341Y-80737501D01*
X189689998Y-80754869D01*
X189690000Y-80754869D01*
X189690002Y-80754869D01*
X189799656Y-80737501D01*
X189799656Y-80737500D01*
X189799661Y-80737500D01*
X189819207Y-80727540D01*
X189887874Y-80714645D01*
X189952615Y-80740921D01*
X189992872Y-80798028D01*
X189999500Y-80838026D01*
X189999500Y-82027878D01*
X189979815Y-82094917D01*
X189927011Y-82140672D01*
X189857853Y-82150616D01*
X189856103Y-82150351D01*
X189760004Y-82135131D01*
X189759998Y-82135131D01*
X189650341Y-82152498D01*
X189551414Y-82202904D01*
X189551407Y-82202909D01*
X189472909Y-82281407D01*
X189472904Y-82281414D01*
X189422498Y-82380341D01*
X189405131Y-82489997D01*
X189405131Y-82490002D01*
X189422498Y-82599658D01*
X189473463Y-82699682D01*
X189486359Y-82768351D01*
X189460082Y-82833091D01*
X189450662Y-82843654D01*
X189442910Y-82851405D01*
X189442904Y-82851414D01*
X189392498Y-82950341D01*
X189375131Y-83059997D01*
X189375131Y-83060002D01*
X189392498Y-83169658D01*
X189442904Y-83268585D01*
X189442909Y-83268592D01*
X189521409Y-83347092D01*
X189528835Y-83352487D01*
X189571503Y-83407814D01*
X189577485Y-83477428D01*
X189566439Y-83509102D01*
X189522498Y-83595341D01*
X189505131Y-83704997D01*
X189505131Y-83705002D01*
X189522498Y-83814658D01*
X189572904Y-83913585D01*
X189572909Y-83913592D01*
X189651407Y-83992090D01*
X189651410Y-83992092D01*
X189651413Y-83992095D01*
X189750339Y-84042500D01*
X189750341Y-84042501D01*
X189859998Y-84059869D01*
X189860000Y-84059869D01*
X189860002Y-84059869D01*
X189969658Y-84042501D01*
X189969659Y-84042500D01*
X189969661Y-84042500D01*
X190068587Y-83992095D01*
X190068592Y-83992089D01*
X190076486Y-83986356D01*
X190078590Y-83989252D01*
X190124142Y-83964379D01*
X190193834Y-83969363D01*
X190249767Y-84011235D01*
X190274184Y-84076699D01*
X190274500Y-84085545D01*
X190274500Y-88114522D01*
X190254815Y-88181561D01*
X190238181Y-88202203D01*
X189468942Y-88971443D01*
X189391444Y-89048940D01*
X189349500Y-89150199D01*
X189349500Y-89473504D01*
X189329815Y-89540543D01*
X189277011Y-89586298D01*
X189207853Y-89596242D01*
X189190573Y-89592483D01*
X189184847Y-89590802D01*
X189184824Y-89590797D01*
X189141025Y-89584500D01*
X189141022Y-89584500D01*
X188832199Y-89584500D01*
X188832193Y-89584500D01*
X188800259Y-89587815D01*
X188750402Y-89598280D01*
X188682247Y-89631464D01*
X188682238Y-89631470D01*
X188628798Y-89676424D01*
X188623229Y-89681339D01*
X188623224Y-89681346D01*
X188580333Y-89749450D01*
X188580332Y-89749452D01*
X188571774Y-89777095D01*
X188559669Y-89816193D01*
X188559665Y-89816206D01*
X188552729Y-89859903D01*
X188549065Y-90110251D01*
X188528401Y-90176995D01*
X188510215Y-90192292D01*
X188539844Y-90211937D01*
X188561163Y-90248459D01*
X188582645Y-90306053D01*
X188585398Y-90312929D01*
X188640180Y-90382591D01*
X188637846Y-90384426D01*
X188665102Y-90432941D01*
X188660958Y-90502688D01*
X188631944Y-90548438D01*
X188553942Y-90626442D01*
X188553942Y-90626443D01*
X188476443Y-90703942D01*
X188440656Y-90790339D01*
X188434500Y-90805200D01*
X188434500Y-92354800D01*
X188462092Y-92421413D01*
X188467249Y-92433861D01*
X188467248Y-92433861D01*
X188476441Y-92456055D01*
X188476444Y-92456059D01*
X189233180Y-93212796D01*
X189266665Y-93274119D01*
X189267972Y-93281079D01*
X189269734Y-93292204D01*
X189260779Y-93361498D01*
X189215783Y-93414950D01*
X189166660Y-93434075D01*
X189050341Y-93452499D01*
X188951414Y-93502904D01*
X188951407Y-93502909D01*
X188872909Y-93581407D01*
X188872904Y-93581414D01*
X188822498Y-93680341D01*
X188805131Y-93789997D01*
X188805131Y-93790002D01*
X188822498Y-93899656D01*
X188822499Y-93899659D01*
X188822500Y-93899661D01*
X188852197Y-93957946D01*
X188865093Y-94026612D01*
X188838817Y-94091353D01*
X188781710Y-94131610D01*
X188741494Y-94138238D01*
X184176696Y-94130229D01*
X184109692Y-94110427D01*
X184064029Y-94057542D01*
X184054207Y-93988367D01*
X184083344Y-93924862D01*
X184140464Y-93888294D01*
X184140375Y-93888018D01*
X184141433Y-93887674D01*
X184142188Y-93887191D01*
X184144542Y-93886663D01*
X184149657Y-93885001D01*
X184149658Y-93885000D01*
X184149661Y-93885000D01*
X184248587Y-93834595D01*
X184327095Y-93756087D01*
X184377500Y-93657161D01*
X184377500Y-93657159D01*
X184377501Y-93657158D01*
X184394869Y-93547502D01*
X184394869Y-93547497D01*
X184377501Y-93437841D01*
X184365930Y-93415131D01*
X184327095Y-93338913D01*
X184327092Y-93338910D01*
X184327090Y-93338907D01*
X184248592Y-93260409D01*
X184248588Y-93260406D01*
X184248587Y-93260405D01*
X184244743Y-93258446D01*
X184149658Y-93209998D01*
X184040002Y-93192631D01*
X184039998Y-93192631D01*
X183930341Y-93209998D01*
X183831414Y-93260404D01*
X183831407Y-93260409D01*
X183752909Y-93338907D01*
X183752904Y-93338914D01*
X183702498Y-93437841D01*
X183685131Y-93547497D01*
X183685131Y-93547502D01*
X183702498Y-93657158D01*
X183752904Y-93756085D01*
X183752909Y-93756092D01*
X183831407Y-93834590D01*
X183831410Y-93834592D01*
X183831413Y-93834595D01*
X183930339Y-93885000D01*
X183930340Y-93885000D01*
X183938999Y-93887814D01*
X183996674Y-93927252D01*
X184023871Y-93991611D01*
X184011956Y-94060457D01*
X183964711Y-94111932D01*
X183900462Y-94129744D01*
X183112912Y-94128363D01*
X183045907Y-94108561D01*
X183000244Y-94055677D01*
X182990422Y-93986501D01*
X183002642Y-93948073D01*
X183037500Y-93879661D01*
X183037501Y-93879656D01*
X183054869Y-93770002D01*
X183054869Y-93769997D01*
X183037501Y-93660341D01*
X183035879Y-93657158D01*
X182987095Y-93561413D01*
X182987092Y-93561410D01*
X182987090Y-93561407D01*
X182908592Y-93482909D01*
X182908588Y-93482906D01*
X182908587Y-93482905D01*
X182872885Y-93464714D01*
X182809658Y-93432498D01*
X182700002Y-93415131D01*
X182699998Y-93415131D01*
X182590341Y-93432498D01*
X182491414Y-93482904D01*
X182491407Y-93482909D01*
X182412909Y-93561407D01*
X182412904Y-93561414D01*
X182362498Y-93660341D01*
X182345131Y-93769997D01*
X182345131Y-93770002D01*
X182362498Y-93879656D01*
X182362499Y-93879659D01*
X182362500Y-93879661D01*
X182396616Y-93946618D01*
X182409512Y-94015286D01*
X182383236Y-94080026D01*
X182326129Y-94120283D01*
X182285914Y-94126911D01*
X182115226Y-94126612D01*
X182048221Y-94106810D01*
X182002559Y-94053926D01*
X181991446Y-94001865D01*
X181998796Y-92792534D01*
X182018888Y-92725619D01*
X182071969Y-92680186D01*
X182075289Y-92678752D01*
X182096418Y-92670000D01*
X182096425Y-92669997D01*
X186455131Y-92669997D01*
X186455131Y-92670002D01*
X186472498Y-92779658D01*
X186522904Y-92878585D01*
X186522909Y-92878592D01*
X186601407Y-92957090D01*
X186601410Y-92957092D01*
X186601413Y-92957095D01*
X186679588Y-92996927D01*
X186700341Y-93007501D01*
X186809998Y-93024869D01*
X186810000Y-93024869D01*
X186810002Y-93024869D01*
X186919658Y-93007501D01*
X186919659Y-93007500D01*
X186919661Y-93007500D01*
X187018587Y-92957095D01*
X187097095Y-92878587D01*
X187147500Y-92779661D01*
X187147500Y-92779659D01*
X187147501Y-92779658D01*
X187164869Y-92670002D01*
X187164869Y-92669997D01*
X187147501Y-92560341D01*
X187102190Y-92471413D01*
X187097095Y-92461413D01*
X187097092Y-92461410D01*
X187097090Y-92461407D01*
X187018592Y-92382909D01*
X187018588Y-92382906D01*
X187018587Y-92382905D01*
X187014743Y-92380946D01*
X186919658Y-92332498D01*
X186810002Y-92315131D01*
X186809998Y-92315131D01*
X186700341Y-92332498D01*
X186601414Y-92382904D01*
X186601407Y-92382909D01*
X186522909Y-92461407D01*
X186522904Y-92461414D01*
X186472498Y-92560341D01*
X186455131Y-92669997D01*
X182096425Y-92669997D01*
X182117736Y-92661170D01*
X182181170Y-92597736D01*
X182181170Y-92597735D01*
X182198608Y-92580297D01*
X182198610Y-92580294D01*
X183158779Y-91620124D01*
X183220100Y-91586641D01*
X183227061Y-91585334D01*
X183229998Y-91584868D01*
X183230000Y-91584869D01*
X183291173Y-91575180D01*
X183339658Y-91567501D01*
X183339659Y-91567500D01*
X183339661Y-91567500D01*
X183438587Y-91517095D01*
X183517095Y-91438587D01*
X183567500Y-91339661D01*
X183567500Y-91339659D01*
X183567501Y-91339658D01*
X183580118Y-91259997D01*
X183835131Y-91259997D01*
X183835131Y-91260002D01*
X183852498Y-91369658D01*
X183902904Y-91468585D01*
X183902909Y-91468592D01*
X183981407Y-91547090D01*
X183981410Y-91547092D01*
X183981413Y-91547095D01*
X184067602Y-91591010D01*
X184080341Y-91597501D01*
X184189998Y-91614869D01*
X184190000Y-91614869D01*
X184190002Y-91614869D01*
X184299658Y-91597501D01*
X184299659Y-91597500D01*
X184299661Y-91597500D01*
X184398587Y-91547095D01*
X184477095Y-91468587D01*
X184527500Y-91369661D01*
X184527500Y-91369659D01*
X184527501Y-91369658D01*
X184533783Y-91329997D01*
X185265131Y-91329997D01*
X185265131Y-91330002D01*
X185282498Y-91439658D01*
X185332904Y-91538585D01*
X185332909Y-91538592D01*
X185411407Y-91617090D01*
X185411410Y-91617092D01*
X185411413Y-91617095D01*
X185453590Y-91638585D01*
X185510341Y-91667501D01*
X185619998Y-91684869D01*
X185620000Y-91684869D01*
X185620002Y-91684869D01*
X185729658Y-91667501D01*
X185729659Y-91667500D01*
X185729661Y-91667500D01*
X185828587Y-91617095D01*
X185907095Y-91538587D01*
X185957500Y-91439661D01*
X185957500Y-91439659D01*
X185957501Y-91439658D01*
X185959031Y-91429997D01*
X186645131Y-91429997D01*
X186645131Y-91430002D01*
X186662498Y-91539658D01*
X186712904Y-91638585D01*
X186712909Y-91638592D01*
X186791407Y-91717090D01*
X186791410Y-91717092D01*
X186791413Y-91717095D01*
X186856011Y-91750009D01*
X186890341Y-91767501D01*
X186999998Y-91784869D01*
X187000000Y-91784869D01*
X187000002Y-91784869D01*
X187109658Y-91767501D01*
X187109659Y-91767500D01*
X187109661Y-91767500D01*
X187208587Y-91717095D01*
X187287095Y-91638587D01*
X187337500Y-91539661D01*
X187337500Y-91539659D01*
X187337501Y-91539658D01*
X187354869Y-91430002D01*
X187354869Y-91429997D01*
X187337501Y-91320341D01*
X187306754Y-91259997D01*
X187289671Y-91226470D01*
X187276776Y-91157802D01*
X187303053Y-91093062D01*
X187343861Y-91059693D01*
X187368587Y-91047095D01*
X187447095Y-90968587D01*
X187497500Y-90869661D01*
X187497500Y-90869659D01*
X187497501Y-90869658D01*
X187514869Y-90760002D01*
X187514869Y-90759997D01*
X187497501Y-90650341D01*
X187480870Y-90617700D01*
X187447095Y-90551413D01*
X187447092Y-90551410D01*
X187447090Y-90551407D01*
X187368592Y-90472909D01*
X187368588Y-90472906D01*
X187368587Y-90472905D01*
X187310637Y-90443378D01*
X187269658Y-90422498D01*
X187160002Y-90405131D01*
X187159998Y-90405131D01*
X187050341Y-90422498D01*
X186951414Y-90472904D01*
X186951407Y-90472909D01*
X186872909Y-90551407D01*
X186872904Y-90551414D01*
X186822498Y-90650341D01*
X186805131Y-90759997D01*
X186805131Y-90760002D01*
X186822498Y-90869658D01*
X186870327Y-90963528D01*
X186883223Y-91032197D01*
X186856946Y-91096938D01*
X186816140Y-91130305D01*
X186791415Y-91142903D01*
X186791407Y-91142909D01*
X186712909Y-91221407D01*
X186712904Y-91221414D01*
X186662498Y-91320341D01*
X186645131Y-91429997D01*
X185959031Y-91429997D01*
X185974869Y-91330002D01*
X185974869Y-91329997D01*
X185957501Y-91220341D01*
X185952232Y-91210000D01*
X185907095Y-91121413D01*
X185907092Y-91121410D01*
X185907090Y-91121407D01*
X185828592Y-91042909D01*
X185828588Y-91042906D01*
X185828587Y-91042905D01*
X185824743Y-91040946D01*
X185729658Y-90992498D01*
X185620002Y-90975131D01*
X185619998Y-90975131D01*
X185510341Y-90992498D01*
X185411414Y-91042904D01*
X185411407Y-91042909D01*
X185332909Y-91121407D01*
X185332904Y-91121414D01*
X185282498Y-91220341D01*
X185265131Y-91329997D01*
X184533783Y-91329997D01*
X184544869Y-91260002D01*
X184544869Y-91259997D01*
X184527501Y-91150341D01*
X184512762Y-91121414D01*
X184477095Y-91051413D01*
X184477092Y-91051410D01*
X184477090Y-91051407D01*
X184398592Y-90972909D01*
X184398588Y-90972906D01*
X184398587Y-90972905D01*
X184390112Y-90968587D01*
X184299658Y-90922498D01*
X184190002Y-90905131D01*
X184189998Y-90905131D01*
X184080341Y-90922498D01*
X183981414Y-90972904D01*
X183981407Y-90972909D01*
X183902909Y-91051407D01*
X183902904Y-91051414D01*
X183852498Y-91150341D01*
X183835131Y-91259997D01*
X183580118Y-91259997D01*
X183584869Y-91230002D01*
X183584869Y-91229997D01*
X183567501Y-91120341D01*
X183560749Y-91107090D01*
X183517095Y-91021413D01*
X183517092Y-91021410D01*
X183517090Y-91021407D01*
X183438592Y-90942909D01*
X183438588Y-90942906D01*
X183438587Y-90942905D01*
X183425844Y-90936412D01*
X183339658Y-90892498D01*
X183230002Y-90875131D01*
X183229998Y-90875131D01*
X183120341Y-90892498D01*
X183021414Y-90942904D01*
X183013514Y-90948644D01*
X183012636Y-90947436D01*
X182960657Y-90975814D01*
X182890965Y-90970824D01*
X182861432Y-90954971D01*
X182858590Y-90952907D01*
X182858587Y-90952905D01*
X182799708Y-90922905D01*
X182759658Y-90902498D01*
X182650002Y-90885131D01*
X182649998Y-90885131D01*
X182540341Y-90902498D01*
X182441407Y-90952908D01*
X182438563Y-90954974D01*
X182434529Y-90956412D01*
X182432717Y-90957336D01*
X182432597Y-90957101D01*
X182372753Y-90978445D01*
X182304701Y-90962610D01*
X182278010Y-90942327D01*
X182268592Y-90932909D01*
X182268588Y-90932906D01*
X182268587Y-90932905D01*
X182229040Y-90912755D01*
X182169658Y-90882498D01*
X182060002Y-90865131D01*
X182059998Y-90865131D01*
X181950341Y-90882498D01*
X181851407Y-90932908D01*
X181848563Y-90934974D01*
X181844529Y-90936412D01*
X181842717Y-90937336D01*
X181842597Y-90937101D01*
X181782753Y-90958445D01*
X181714701Y-90942610D01*
X181692774Y-90925947D01*
X181688588Y-90922906D01*
X181688587Y-90922905D01*
X181668676Y-90912760D01*
X181589658Y-90872498D01*
X181480002Y-90855131D01*
X181479998Y-90855131D01*
X181370341Y-90872498D01*
X181271414Y-90922904D01*
X181271407Y-90922909D01*
X181192909Y-91001407D01*
X181192904Y-91001414D01*
X181142498Y-91100341D01*
X181125131Y-91209997D01*
X181125131Y-91210002D01*
X181142498Y-91319658D01*
X181192904Y-91418585D01*
X181192909Y-91418592D01*
X181271407Y-91497090D01*
X181271410Y-91497092D01*
X181271413Y-91497095D01*
X181352842Y-91538585D01*
X181370341Y-91547501D01*
X181479998Y-91564869D01*
X181480000Y-91564869D01*
X181480002Y-91564869D01*
X181589658Y-91547501D01*
X181589659Y-91547500D01*
X181589661Y-91547500D01*
X181688587Y-91497095D01*
X181688587Y-91497094D01*
X181688590Y-91497093D01*
X181691426Y-91495033D01*
X181695453Y-91493595D01*
X181697283Y-91492664D01*
X181697403Y-91492900D01*
X181757233Y-91471555D01*
X181825286Y-91487382D01*
X181847221Y-91504049D01*
X181851410Y-91507092D01*
X181851413Y-91507095D01*
X181913216Y-91538585D01*
X181950341Y-91557501D01*
X182059998Y-91574869D01*
X182060000Y-91574869D01*
X182060002Y-91574869D01*
X182169658Y-91557501D01*
X182169659Y-91557500D01*
X182169661Y-91557500D01*
X182268587Y-91507095D01*
X182268587Y-91507094D01*
X182268590Y-91507093D01*
X182271426Y-91505033D01*
X182275453Y-91503595D01*
X182277283Y-91502664D01*
X182277403Y-91502900D01*
X182337233Y-91481555D01*
X182405286Y-91497382D01*
X182431989Y-91517672D01*
X182440024Y-91525707D01*
X182473509Y-91587030D01*
X182468525Y-91656722D01*
X182440024Y-91701069D01*
X181932914Y-92208181D01*
X181871591Y-92241666D01*
X181845233Y-92244500D01*
X180490832Y-92244500D01*
X180423793Y-92224815D01*
X180378038Y-92172011D01*
X180368094Y-92102853D01*
X180368359Y-92101101D01*
X180369894Y-92091413D01*
X180374869Y-92060000D01*
X180374869Y-92059997D01*
X180357501Y-91950341D01*
X180342683Y-91921259D01*
X180307095Y-91851413D01*
X180307092Y-91851410D01*
X180307090Y-91851407D01*
X180228592Y-91772909D01*
X180228588Y-91772906D01*
X180228587Y-91772905D01*
X180183651Y-91750009D01*
X180129658Y-91722498D01*
X180020002Y-91705131D01*
X180019998Y-91705131D01*
X179910341Y-91722498D01*
X179811414Y-91772904D01*
X179811407Y-91772909D01*
X179732909Y-91851407D01*
X179732904Y-91851414D01*
X179682498Y-91950341D01*
X179665131Y-92059997D01*
X179665131Y-92060002D01*
X179666823Y-92070685D01*
X179657868Y-92139979D01*
X179612872Y-92193431D01*
X179546121Y-92214070D01*
X179478807Y-92195345D01*
X179456669Y-92177764D01*
X178581814Y-91302909D01*
X178548329Y-91241586D01*
X178553313Y-91171894D01*
X178595185Y-91115961D01*
X178603554Y-91110750D01*
X178608580Y-91107098D01*
X178608587Y-91107095D01*
X178687095Y-91028587D01*
X178737500Y-90929661D01*
X178737500Y-90929659D01*
X178737501Y-90929658D01*
X178750014Y-90850657D01*
X179025131Y-90850657D01*
X179025131Y-90850662D01*
X179042498Y-90960318D01*
X179092904Y-91059245D01*
X179092909Y-91059252D01*
X179171407Y-91137750D01*
X179171410Y-91137752D01*
X179171413Y-91137755D01*
X179210758Y-91157802D01*
X179270341Y-91188161D01*
X179379998Y-91205529D01*
X179380000Y-91205529D01*
X179380002Y-91205529D01*
X179489658Y-91188161D01*
X179489659Y-91188160D01*
X179489661Y-91188160D01*
X179588587Y-91137755D01*
X179667095Y-91059247D01*
X179717500Y-90960321D01*
X179717501Y-90960317D01*
X179720518Y-90951035D01*
X179723738Y-90952081D01*
X179746226Y-90904592D01*
X179805522Y-90867636D01*
X179875385Y-90868603D01*
X179933634Y-90907188D01*
X179937701Y-90912382D01*
X180016577Y-90991258D01*
X180016580Y-90991260D01*
X180016583Y-90991263D01*
X180096758Y-91032114D01*
X180115511Y-91041669D01*
X180225168Y-91059037D01*
X180225170Y-91059037D01*
X180225172Y-91059037D01*
X180334828Y-91041669D01*
X180334829Y-91041668D01*
X180334831Y-91041668D01*
X180433757Y-90991263D01*
X180512265Y-90912755D01*
X180562670Y-90813829D01*
X180562670Y-90813827D01*
X180562671Y-90813826D01*
X180580039Y-90704170D01*
X180580039Y-90704165D01*
X180562671Y-90594509D01*
X180540713Y-90551414D01*
X180512265Y-90495581D01*
X180512262Y-90495578D01*
X180512260Y-90495575D01*
X180506429Y-90489744D01*
X180472944Y-90428421D01*
X180477928Y-90358729D01*
X180483615Y-90345790D01*
X180527500Y-90259661D01*
X180527843Y-90257497D01*
X187615131Y-90257497D01*
X187615131Y-90257502D01*
X187632498Y-90367158D01*
X187682904Y-90466085D01*
X187682909Y-90466092D01*
X187761407Y-90544590D01*
X187761410Y-90544592D01*
X187761413Y-90544595D01*
X187798652Y-90563569D01*
X187860341Y-90595001D01*
X187969998Y-90612369D01*
X187970000Y-90612369D01*
X187970002Y-90612369D01*
X188079658Y-90595001D01*
X188079659Y-90595000D01*
X188079661Y-90595000D01*
X188178587Y-90544595D01*
X188257095Y-90466087D01*
X188307500Y-90367161D01*
X188322510Y-90272392D01*
X188352437Y-90209262D01*
X188355720Y-90207217D01*
X188342512Y-90200950D01*
X188313129Y-90155922D01*
X188311930Y-90156534D01*
X188280577Y-90095000D01*
X188257095Y-90048913D01*
X188257092Y-90048910D01*
X188257090Y-90048907D01*
X188178592Y-89970409D01*
X188178588Y-89970406D01*
X188178587Y-89970405D01*
X188121675Y-89941407D01*
X188079658Y-89919998D01*
X187970002Y-89902631D01*
X187969998Y-89902631D01*
X187860341Y-89919998D01*
X187761414Y-89970404D01*
X187761407Y-89970409D01*
X187682909Y-90048907D01*
X187682904Y-90048914D01*
X187632498Y-90147841D01*
X187615131Y-90257497D01*
X180527843Y-90257497D01*
X180535059Y-90211937D01*
X180544869Y-90150002D01*
X180544869Y-90149997D01*
X180527501Y-90040341D01*
X180491867Y-89970405D01*
X180477095Y-89941413D01*
X180477092Y-89941410D01*
X180477090Y-89941407D01*
X180398592Y-89862909D01*
X180398588Y-89862906D01*
X180398587Y-89862905D01*
X180340062Y-89833085D01*
X180299658Y-89812498D01*
X180190002Y-89795131D01*
X180189998Y-89795131D01*
X180080340Y-89812499D01*
X180039936Y-89833085D01*
X179971266Y-89845980D01*
X179906527Y-89819702D01*
X179900310Y-89814157D01*
X179898588Y-89812906D01*
X179898587Y-89812905D01*
X179888774Y-89807905D01*
X179799658Y-89762498D01*
X179690002Y-89745131D01*
X179689998Y-89745131D01*
X179580341Y-89762498D01*
X179481414Y-89812904D01*
X179481407Y-89812909D01*
X179402909Y-89891407D01*
X179402904Y-89891414D01*
X179352498Y-89990341D01*
X179335131Y-90099997D01*
X179335131Y-90100002D01*
X179352498Y-90209658D01*
X179402906Y-90308589D01*
X179403581Y-90309518D01*
X179404051Y-90310836D01*
X179407336Y-90317283D01*
X179406502Y-90317707D01*
X179427058Y-90375325D01*
X179411230Y-90443378D01*
X179361122Y-90492071D01*
X179322659Y-90504872D01*
X179270341Y-90513158D01*
X179171414Y-90563564D01*
X179171407Y-90563569D01*
X179092909Y-90642067D01*
X179092904Y-90642074D01*
X179042498Y-90741001D01*
X179025131Y-90850657D01*
X178750014Y-90850657D01*
X178754869Y-90820002D01*
X178754869Y-90819997D01*
X178737501Y-90710341D01*
X178707695Y-90651844D01*
X178687095Y-90611413D01*
X178687092Y-90611410D01*
X178687090Y-90611407D01*
X178608592Y-90532909D01*
X178608588Y-90532906D01*
X178608587Y-90532905D01*
X178596858Y-90526929D01*
X178509658Y-90482498D01*
X178400002Y-90465131D01*
X178399998Y-90465131D01*
X178290341Y-90482498D01*
X178191414Y-90532904D01*
X178191407Y-90532909D01*
X178112909Y-90611407D01*
X178107172Y-90619305D01*
X178104962Y-90617700D01*
X178067268Y-90657602D01*
X177999445Y-90674390D01*
X177933313Y-90651844D01*
X177917090Y-90638185D01*
X176808902Y-89529997D01*
X184315131Y-89529997D01*
X184315131Y-89530002D01*
X184332498Y-89639658D01*
X184360050Y-89693732D01*
X184382904Y-89738586D01*
X184382909Y-89738592D01*
X184461407Y-89817090D01*
X184461410Y-89817092D01*
X184461413Y-89817095D01*
X184545429Y-89859903D01*
X184560341Y-89867501D01*
X184669998Y-89884869D01*
X184670000Y-89884869D01*
X184670002Y-89884869D01*
X184779658Y-89867501D01*
X184779659Y-89867500D01*
X184779661Y-89867500D01*
X184878587Y-89817095D01*
X184957095Y-89738587D01*
X184974516Y-89704395D01*
X185022489Y-89653601D01*
X185090309Y-89636805D01*
X185156444Y-89659342D01*
X185195483Y-89704395D01*
X185204820Y-89722719D01*
X185212904Y-89738586D01*
X185212909Y-89738592D01*
X185291407Y-89817090D01*
X185291410Y-89817092D01*
X185291413Y-89817095D01*
X185375429Y-89859903D01*
X185390341Y-89867501D01*
X185499998Y-89884869D01*
X185500000Y-89884869D01*
X185500002Y-89884869D01*
X185609658Y-89867501D01*
X185609659Y-89867500D01*
X185609661Y-89867500D01*
X185708587Y-89817095D01*
X185787095Y-89738587D01*
X185826968Y-89660330D01*
X185874941Y-89609536D01*
X185942762Y-89592740D01*
X186008897Y-89615277D01*
X186047936Y-89660329D01*
X186091144Y-89745131D01*
X186092906Y-89748588D01*
X186092909Y-89748592D01*
X186171407Y-89827090D01*
X186171410Y-89827092D01*
X186171413Y-89827095D01*
X186250713Y-89867500D01*
X186270341Y-89877501D01*
X186379998Y-89894869D01*
X186380000Y-89894869D01*
X186380002Y-89894869D01*
X186489658Y-89877501D01*
X186489659Y-89877500D01*
X186489661Y-89877500D01*
X186588587Y-89827095D01*
X186667095Y-89748587D01*
X186717500Y-89649661D01*
X186717500Y-89649659D01*
X186717501Y-89649658D01*
X186734869Y-89540002D01*
X186734869Y-89539997D01*
X186717501Y-89430341D01*
X186679420Y-89355603D01*
X186667095Y-89331413D01*
X186667092Y-89331410D01*
X186667090Y-89331407D01*
X186588592Y-89252909D01*
X186588588Y-89252906D01*
X186588587Y-89252905D01*
X186568959Y-89242904D01*
X186489658Y-89202498D01*
X186380002Y-89185131D01*
X186379998Y-89185131D01*
X186270341Y-89202498D01*
X186171414Y-89252904D01*
X186171407Y-89252909D01*
X186092909Y-89331407D01*
X186092904Y-89331414D01*
X186053031Y-89409669D01*
X186005057Y-89460464D01*
X185937236Y-89477259D01*
X185871101Y-89454721D01*
X185832062Y-89409667D01*
X185830397Y-89406399D01*
X185787095Y-89321413D01*
X185787092Y-89321410D01*
X185787090Y-89321407D01*
X185708592Y-89242909D01*
X185708588Y-89242906D01*
X185708587Y-89242905D01*
X185704743Y-89240946D01*
X185609658Y-89192498D01*
X185500002Y-89175131D01*
X185499998Y-89175131D01*
X185390341Y-89192498D01*
X185291414Y-89242904D01*
X185291407Y-89242909D01*
X185212909Y-89321407D01*
X185212906Y-89321411D01*
X185212905Y-89321413D01*
X185195483Y-89355604D01*
X185147510Y-89406399D01*
X185079689Y-89423194D01*
X185013555Y-89400657D01*
X184974516Y-89355604D01*
X184957095Y-89321413D01*
X184957093Y-89321411D01*
X184957090Y-89321407D01*
X184878592Y-89242909D01*
X184878588Y-89242906D01*
X184878587Y-89242905D01*
X184874743Y-89240946D01*
X184779658Y-89192498D01*
X184670002Y-89175131D01*
X184669998Y-89175131D01*
X184560341Y-89192498D01*
X184461414Y-89242904D01*
X184461407Y-89242909D01*
X184382909Y-89321407D01*
X184382904Y-89321414D01*
X184332498Y-89420341D01*
X184315131Y-89529997D01*
X176808902Y-89529997D01*
X175748902Y-88469997D01*
X178825131Y-88469997D01*
X178825131Y-88470002D01*
X178842498Y-88579658D01*
X178892904Y-88678585D01*
X178892909Y-88678592D01*
X178971407Y-88757090D01*
X178971410Y-88757092D01*
X178971413Y-88757095D01*
X179070339Y-88807500D01*
X179070341Y-88807501D01*
X179179998Y-88824869D01*
X179180000Y-88824869D01*
X179180002Y-88824869D01*
X179289658Y-88807501D01*
X179289659Y-88807500D01*
X179289661Y-88807500D01*
X179388587Y-88757095D01*
X179467095Y-88678587D01*
X179517500Y-88579661D01*
X179524830Y-88533378D01*
X179554758Y-88470247D01*
X179614069Y-88433315D01*
X179627893Y-88430307D01*
X179650852Y-88426671D01*
X179749778Y-88376266D01*
X179828286Y-88297758D01*
X179878691Y-88198832D01*
X179878691Y-88198830D01*
X179878692Y-88198829D01*
X179896060Y-88089173D01*
X179896060Y-88089168D01*
X179878692Y-87979512D01*
X179878691Y-87979510D01*
X179828286Y-87880584D01*
X179828283Y-87880581D01*
X179828281Y-87880578D01*
X179749783Y-87802080D01*
X179749779Y-87802077D01*
X179749778Y-87802076D01*
X179720366Y-87787090D01*
X179650849Y-87751669D01*
X179541193Y-87734302D01*
X179541189Y-87734302D01*
X179431532Y-87751669D01*
X179332605Y-87802075D01*
X179332598Y-87802080D01*
X179254100Y-87880578D01*
X179254095Y-87880585D01*
X179203690Y-87979512D01*
X179196360Y-88025790D01*
X179166430Y-88088924D01*
X179107118Y-88125855D01*
X179093289Y-88128864D01*
X179070340Y-88132499D01*
X178971414Y-88182904D01*
X178971407Y-88182909D01*
X178892909Y-88261407D01*
X178892904Y-88261414D01*
X178842498Y-88360341D01*
X178825131Y-88469997D01*
X175748902Y-88469997D01*
X174520354Y-87241449D01*
X174514101Y-87229997D01*
X181015131Y-87229997D01*
X181015131Y-87230002D01*
X181032498Y-87339658D01*
X181082904Y-87438585D01*
X181082909Y-87438592D01*
X181161407Y-87517090D01*
X181161410Y-87517092D01*
X181161413Y-87517095D01*
X181236044Y-87555121D01*
X181260341Y-87567501D01*
X181369998Y-87584869D01*
X181370000Y-87584869D01*
X181370002Y-87584869D01*
X181479658Y-87567501D01*
X181479659Y-87567500D01*
X181479661Y-87567500D01*
X181578587Y-87517095D01*
X181657095Y-87438587D01*
X181707500Y-87339661D01*
X181707500Y-87339659D01*
X181707501Y-87339658D01*
X181724869Y-87230002D01*
X181724869Y-87229997D01*
X181723011Y-87218267D01*
X181731834Y-87149997D01*
X187735131Y-87149997D01*
X187735131Y-87150002D01*
X187752498Y-87259658D01*
X187802904Y-87358585D01*
X187802909Y-87358592D01*
X187814034Y-87369717D01*
X187847519Y-87431040D01*
X187842535Y-87500732D01*
X187836838Y-87513692D01*
X187782498Y-87620341D01*
X187765131Y-87729997D01*
X187765131Y-87730002D01*
X187782498Y-87839658D01*
X187820989Y-87915200D01*
X187832905Y-87938587D01*
X187832908Y-87938590D01*
X187840278Y-87945960D01*
X187873765Y-88007282D01*
X187868783Y-88076973D01*
X187863085Y-88089938D01*
X187842498Y-88130341D01*
X187825131Y-88239997D01*
X187825131Y-88240002D01*
X187842498Y-88349658D01*
X187892904Y-88448585D01*
X187892909Y-88448592D01*
X187971407Y-88527090D01*
X187971410Y-88527092D01*
X187971413Y-88527095D01*
X188070339Y-88577500D01*
X188070341Y-88577501D01*
X188179998Y-88594869D01*
X188180000Y-88594869D01*
X188180002Y-88594869D01*
X188289658Y-88577501D01*
X188289659Y-88577500D01*
X188289661Y-88577500D01*
X188388587Y-88527095D01*
X188467095Y-88448587D01*
X188517500Y-88349661D01*
X188519854Y-88334803D01*
X188535206Y-88237872D01*
X188565135Y-88174737D01*
X188624446Y-88137805D01*
X188680283Y-88138602D01*
X188680700Y-88135974D01*
X188799998Y-88154869D01*
X188800000Y-88154869D01*
X188800002Y-88154869D01*
X188909658Y-88137501D01*
X188909659Y-88137500D01*
X188909661Y-88137500D01*
X189008587Y-88087095D01*
X189087095Y-88008587D01*
X189137500Y-87909661D01*
X189137500Y-87909659D01*
X189137501Y-87909658D01*
X189154869Y-87800002D01*
X189154869Y-87799997D01*
X189137501Y-87690341D01*
X189101833Y-87620339D01*
X189087095Y-87591413D01*
X189087092Y-87591410D01*
X189087090Y-87591407D01*
X189008592Y-87512909D01*
X189008588Y-87512906D01*
X189008587Y-87512905D01*
X188983263Y-87500002D01*
X188909658Y-87462498D01*
X188800002Y-87445131D01*
X188799998Y-87445131D01*
X188690341Y-87462498D01*
X188591414Y-87512904D01*
X188591407Y-87512909D01*
X188582681Y-87521636D01*
X188521358Y-87555121D01*
X188451666Y-87550137D01*
X188407319Y-87521636D01*
X188395965Y-87510282D01*
X188362480Y-87448959D01*
X188367464Y-87379267D01*
X188373161Y-87366306D01*
X188377092Y-87358589D01*
X188377095Y-87358587D01*
X188427500Y-87259661D01*
X188427501Y-87259656D01*
X188444869Y-87150002D01*
X188444869Y-87149997D01*
X188427501Y-87040341D01*
X188416576Y-87018900D01*
X188377095Y-86941413D01*
X188377092Y-86941410D01*
X188377090Y-86941407D01*
X188298592Y-86862909D01*
X188298588Y-86862906D01*
X188298587Y-86862905D01*
X188233340Y-86829660D01*
X188199658Y-86812498D01*
X188090002Y-86795131D01*
X188089998Y-86795131D01*
X187980341Y-86812498D01*
X187881414Y-86862904D01*
X187881407Y-86862909D01*
X187802909Y-86941407D01*
X187802904Y-86941414D01*
X187752498Y-87040341D01*
X187735131Y-87149997D01*
X181731834Y-87149997D01*
X181731966Y-87148973D01*
X181776962Y-87095522D01*
X181830755Y-87078888D01*
X181830361Y-87076396D01*
X181949658Y-87057501D01*
X181949659Y-87057500D01*
X181949661Y-87057500D01*
X182048587Y-87007095D01*
X182127095Y-86928587D01*
X182177500Y-86829661D01*
X182186817Y-86770833D01*
X182216745Y-86707701D01*
X182276056Y-86670770D01*
X182345919Y-86671766D01*
X182404152Y-86710376D01*
X182419772Y-86733934D01*
X182459803Y-86812498D01*
X182462906Y-86818588D01*
X182462909Y-86818592D01*
X182541407Y-86897090D01*
X182541410Y-86897092D01*
X182541413Y-86897095D01*
X182631319Y-86942904D01*
X182640341Y-86947501D01*
X182749998Y-86964869D01*
X182750000Y-86964869D01*
X182750002Y-86964869D01*
X182859658Y-86947501D01*
X182859659Y-86947500D01*
X182859661Y-86947500D01*
X182958587Y-86897095D01*
X183037095Y-86818587D01*
X183087500Y-86719661D01*
X183087500Y-86719659D01*
X183087501Y-86719658D01*
X183104869Y-86610002D01*
X183104869Y-86609997D01*
X183096950Y-86559997D01*
X183515131Y-86559997D01*
X183515131Y-86560002D01*
X183532498Y-86669658D01*
X183582904Y-86768585D01*
X183582909Y-86768592D01*
X183661407Y-86847090D01*
X183661410Y-86847092D01*
X183661413Y-86847095D01*
X183742842Y-86888585D01*
X183760341Y-86897501D01*
X183869998Y-86914869D01*
X183870000Y-86914869D01*
X183870002Y-86914869D01*
X183979658Y-86897501D01*
X183979659Y-86897500D01*
X183979661Y-86897500D01*
X184078587Y-86847095D01*
X184157095Y-86768587D01*
X184207500Y-86669661D01*
X184207500Y-86669659D01*
X184207501Y-86669658D01*
X184224869Y-86560002D01*
X184224869Y-86559997D01*
X184207501Y-86450341D01*
X184187243Y-86410583D01*
X184157095Y-86351413D01*
X184157092Y-86351410D01*
X184157090Y-86351407D01*
X184078592Y-86272909D01*
X184078588Y-86272906D01*
X184078587Y-86272905D01*
X184074743Y-86270946D01*
X184014002Y-86239997D01*
X185415131Y-86239997D01*
X185415131Y-86240002D01*
X185432498Y-86349658D01*
X185482904Y-86448585D01*
X185482909Y-86448592D01*
X185561407Y-86527090D01*
X185561410Y-86527092D01*
X185561413Y-86527095D01*
X185625993Y-86560000D01*
X185660341Y-86577501D01*
X185769998Y-86594869D01*
X185770000Y-86594869D01*
X185770002Y-86594869D01*
X185879658Y-86577501D01*
X185879659Y-86577500D01*
X185879661Y-86577500D01*
X185978587Y-86527095D01*
X186057095Y-86448587D01*
X186107500Y-86349661D01*
X186107500Y-86349659D01*
X186107501Y-86349658D01*
X186124869Y-86240002D01*
X186124869Y-86239997D01*
X186107501Y-86130341D01*
X186096577Y-86108902D01*
X186057095Y-86031413D01*
X186057092Y-86031410D01*
X186057090Y-86031407D01*
X185978592Y-85952909D01*
X185978588Y-85952906D01*
X185978587Y-85952905D01*
X185953263Y-85940002D01*
X185879658Y-85902498D01*
X185770002Y-85885131D01*
X185769998Y-85885131D01*
X185660341Y-85902498D01*
X185561414Y-85952904D01*
X185561407Y-85952909D01*
X185482909Y-86031407D01*
X185482904Y-86031414D01*
X185432498Y-86130341D01*
X185415131Y-86239997D01*
X184014002Y-86239997D01*
X183979658Y-86222498D01*
X183870002Y-86205131D01*
X183869998Y-86205131D01*
X183760341Y-86222498D01*
X183661414Y-86272904D01*
X183661407Y-86272909D01*
X183582909Y-86351407D01*
X183582904Y-86351414D01*
X183532498Y-86450341D01*
X183515131Y-86559997D01*
X183096950Y-86559997D01*
X183087501Y-86500341D01*
X183072762Y-86471414D01*
X183037095Y-86401413D01*
X183037092Y-86401410D01*
X183037090Y-86401407D01*
X182958592Y-86322909D01*
X182958588Y-86322906D01*
X182958587Y-86322905D01*
X182950112Y-86318587D01*
X182859658Y-86272498D01*
X182750002Y-86255131D01*
X182749998Y-86255131D01*
X182640340Y-86272499D01*
X182640339Y-86272499D01*
X182634089Y-86275684D01*
X182565419Y-86288577D01*
X182500680Y-86262298D01*
X182460425Y-86205190D01*
X182457436Y-86135384D01*
X182467310Y-86108912D01*
X182497500Y-86049661D01*
X182505312Y-86000339D01*
X182514869Y-85940002D01*
X182514869Y-85939997D01*
X182497501Y-85830341D01*
X182470371Y-85777095D01*
X182447095Y-85731413D01*
X182447092Y-85731410D01*
X182447090Y-85731407D01*
X182368592Y-85652909D01*
X182368588Y-85652906D01*
X182368587Y-85652905D01*
X182364743Y-85650946D01*
X182269658Y-85602498D01*
X182160002Y-85585131D01*
X182159998Y-85585131D01*
X182050341Y-85602498D01*
X181951414Y-85652904D01*
X181951407Y-85652909D01*
X181872909Y-85731407D01*
X181872904Y-85731414D01*
X181822498Y-85830341D01*
X181805131Y-85939997D01*
X181805131Y-85940002D01*
X181822498Y-86049658D01*
X181872904Y-86148585D01*
X181872909Y-86148592D01*
X181883257Y-86158940D01*
X181916742Y-86220263D01*
X181911758Y-86289955D01*
X181869886Y-86345888D01*
X181814974Y-86369094D01*
X181730341Y-86382498D01*
X181631414Y-86432904D01*
X181631407Y-86432909D01*
X181552909Y-86511407D01*
X181552904Y-86511414D01*
X181502498Y-86610341D01*
X181485131Y-86719997D01*
X181485131Y-86720002D01*
X181486989Y-86731733D01*
X181478034Y-86801027D01*
X181433038Y-86854478D01*
X181379244Y-86871111D01*
X181379639Y-86873604D01*
X181260341Y-86892498D01*
X181161414Y-86942904D01*
X181161407Y-86942909D01*
X181082909Y-87021407D01*
X181082904Y-87021414D01*
X181032498Y-87120341D01*
X181015131Y-87229997D01*
X174514101Y-87229997D01*
X174486869Y-87180126D01*
X174491853Y-87110434D01*
X174533725Y-87054501D01*
X174599189Y-87030084D01*
X174627433Y-87031295D01*
X174649998Y-87034869D01*
X174650000Y-87034869D01*
X174650002Y-87034869D01*
X174759658Y-87017501D01*
X174759659Y-87017500D01*
X174759661Y-87017500D01*
X174858587Y-86967095D01*
X174937095Y-86888587D01*
X174987500Y-86789661D01*
X174987500Y-86789659D01*
X174987501Y-86789658D01*
X175004869Y-86680002D01*
X175004869Y-86679997D01*
X174987501Y-86570341D01*
X174982232Y-86560000D01*
X174937095Y-86471413D01*
X174937092Y-86471410D01*
X174937090Y-86471407D01*
X174858592Y-86392909D01*
X174858588Y-86392906D01*
X174858587Y-86392905D01*
X174811855Y-86369094D01*
X174759658Y-86342498D01*
X174650002Y-86325131D01*
X174649998Y-86325131D01*
X174540341Y-86342498D01*
X174441414Y-86392904D01*
X174441407Y-86392909D01*
X174362909Y-86471407D01*
X174362906Y-86471411D01*
X174362905Y-86471413D01*
X174324798Y-86546201D01*
X174276826Y-86596996D01*
X174209005Y-86613791D01*
X174142870Y-86591254D01*
X174099418Y-86536539D01*
X174090315Y-86489905D01*
X174090315Y-85544670D01*
X174110000Y-85477631D01*
X174162804Y-85431876D01*
X174231962Y-85421932D01*
X174270610Y-85434185D01*
X174271411Y-85434593D01*
X174271413Y-85434595D01*
X174370339Y-85485000D01*
X174370341Y-85485000D01*
X174370343Y-85485001D01*
X174479998Y-85502369D01*
X174480000Y-85502369D01*
X174480002Y-85502369D01*
X174589656Y-85485001D01*
X174589656Y-85485000D01*
X174589661Y-85485000D01*
X174684820Y-85436514D01*
X174741112Y-85423000D01*
X179921258Y-85423000D01*
X179921259Y-85423000D01*
X180022517Y-85381057D01*
X180100016Y-85303558D01*
X180100015Y-85303558D01*
X180158584Y-85244989D01*
X180223576Y-85179997D01*
X182395131Y-85179997D01*
X182395131Y-85180002D01*
X182412498Y-85289658D01*
X182462904Y-85388585D01*
X182462909Y-85388592D01*
X182541407Y-85467090D01*
X182541410Y-85467092D01*
X182541413Y-85467095D01*
X182600282Y-85497090D01*
X182640341Y-85517501D01*
X182749998Y-85534869D01*
X182750000Y-85534869D01*
X182750002Y-85534869D01*
X182859658Y-85517501D01*
X182859659Y-85517500D01*
X182859661Y-85517500D01*
X182958587Y-85467095D01*
X183037095Y-85388587D01*
X183087500Y-85289661D01*
X183087500Y-85289659D01*
X183087501Y-85289658D01*
X183104869Y-85180002D01*
X183104869Y-85179997D01*
X183485131Y-85179997D01*
X183485131Y-85180002D01*
X183502498Y-85289658D01*
X183552904Y-85388585D01*
X183552909Y-85388592D01*
X183631407Y-85467090D01*
X183631410Y-85467092D01*
X183631413Y-85467095D01*
X183690282Y-85497090D01*
X183730341Y-85517501D01*
X183839998Y-85534869D01*
X183840000Y-85534869D01*
X183840002Y-85534869D01*
X183949658Y-85517501D01*
X183949659Y-85517500D01*
X183949661Y-85517500D01*
X184048587Y-85467095D01*
X184127095Y-85388587D01*
X184166924Y-85310415D01*
X184214895Y-85259623D01*
X184282716Y-85242827D01*
X184348851Y-85265363D01*
X184385931Y-85312055D01*
X184388070Y-85310966D01*
X184442904Y-85418585D01*
X184442909Y-85418592D01*
X184521407Y-85497090D01*
X184521410Y-85497092D01*
X184521413Y-85497095D01*
X184575923Y-85524869D01*
X184620341Y-85547501D01*
X184729998Y-85564869D01*
X184730000Y-85564869D01*
X184730002Y-85564869D01*
X184839658Y-85547501D01*
X184839659Y-85547500D01*
X184839661Y-85547500D01*
X184938587Y-85497095D01*
X185017095Y-85418587D01*
X185067500Y-85319661D01*
X185080694Y-85236354D01*
X185099033Y-85197671D01*
X185092026Y-85182327D01*
X185300965Y-85182327D01*
X185325640Y-85236356D01*
X185332498Y-85279658D01*
X185382904Y-85378585D01*
X185382909Y-85378592D01*
X185461407Y-85457090D01*
X185461410Y-85457092D01*
X185461413Y-85457095D01*
X185525993Y-85490000D01*
X185560341Y-85507501D01*
X185669998Y-85524869D01*
X185670000Y-85524869D01*
X185670002Y-85524869D01*
X185779658Y-85507501D01*
X185779659Y-85507500D01*
X185779661Y-85507500D01*
X185814013Y-85489997D01*
X187765131Y-85489997D01*
X187765131Y-85490002D01*
X187782498Y-85599658D01*
X187832904Y-85698585D01*
X187832908Y-85698591D01*
X187861635Y-85727317D01*
X187895121Y-85788639D01*
X187890137Y-85858331D01*
X187867883Y-85892961D01*
X187868644Y-85893514D01*
X187862904Y-85901414D01*
X187812498Y-86000341D01*
X187795131Y-86109997D01*
X187795131Y-86110002D01*
X187812498Y-86219658D01*
X187862904Y-86318585D01*
X187862909Y-86318592D01*
X187941407Y-86397090D01*
X187941410Y-86397092D01*
X187941413Y-86397095D01*
X188040339Y-86447500D01*
X188040341Y-86447501D01*
X188149998Y-86464869D01*
X188150000Y-86464869D01*
X188150002Y-86464869D01*
X188259658Y-86447501D01*
X188259659Y-86447500D01*
X188259661Y-86447500D01*
X188358587Y-86397095D01*
X188437095Y-86318587D01*
X188487500Y-86219661D01*
X188487500Y-86219659D01*
X188487501Y-86219658D01*
X188504869Y-86110002D01*
X188504869Y-86109997D01*
X188487501Y-86000341D01*
X188454106Y-85934799D01*
X188437095Y-85901413D01*
X188437092Y-85901410D01*
X188437090Y-85901407D01*
X188408363Y-85872680D01*
X188374878Y-85811357D01*
X188379862Y-85741665D01*
X188402118Y-85707039D01*
X188401356Y-85706486D01*
X188407091Y-85698591D01*
X188407095Y-85698587D01*
X188457500Y-85599661D01*
X188457500Y-85599659D01*
X188457501Y-85599658D01*
X188474869Y-85490002D01*
X188474869Y-85489997D01*
X188457501Y-85380341D01*
X188426583Y-85319661D01*
X188407095Y-85281413D01*
X188407092Y-85281410D01*
X188407090Y-85281407D01*
X188328592Y-85202909D01*
X188328588Y-85202906D01*
X188328587Y-85202905D01*
X188300875Y-85188785D01*
X188229658Y-85152498D01*
X188120002Y-85135131D01*
X188119998Y-85135131D01*
X188010341Y-85152498D01*
X187911414Y-85202904D01*
X187911407Y-85202909D01*
X187832909Y-85281407D01*
X187832904Y-85281414D01*
X187782498Y-85380341D01*
X187765131Y-85489997D01*
X185814013Y-85489997D01*
X185878587Y-85457095D01*
X185957095Y-85378587D01*
X186007500Y-85279661D01*
X186007500Y-85279659D01*
X186007501Y-85279658D01*
X186024869Y-85170002D01*
X186024869Y-85169997D01*
X186007501Y-85060341D01*
X185977473Y-85001407D01*
X185957095Y-84961413D01*
X185957092Y-84961410D01*
X185957090Y-84961407D01*
X185878592Y-84882909D01*
X185878588Y-84882906D01*
X185878587Y-84882905D01*
X185830660Y-84858485D01*
X185779658Y-84832498D01*
X185670002Y-84815131D01*
X185669998Y-84815131D01*
X185560341Y-84832498D01*
X185461414Y-84882904D01*
X185461407Y-84882909D01*
X185382909Y-84961407D01*
X185382904Y-84961414D01*
X185332498Y-85060341D01*
X185319305Y-85143642D01*
X185300965Y-85182327D01*
X185092026Y-85182327D01*
X185074359Y-85143641D01*
X185067501Y-85100342D01*
X185067500Y-85100340D01*
X185067500Y-85100339D01*
X185017095Y-85001413D01*
X185017092Y-85001410D01*
X185017090Y-85001407D01*
X184938592Y-84922909D01*
X184938588Y-84922906D01*
X184938587Y-84922905D01*
X184890440Y-84898373D01*
X184839658Y-84872498D01*
X184730002Y-84855131D01*
X184729998Y-84855131D01*
X184620341Y-84872498D01*
X184521414Y-84922904D01*
X184521407Y-84922909D01*
X184442909Y-85001407D01*
X184442906Y-85001412D01*
X184442905Y-85001413D01*
X184403077Y-85079581D01*
X184355102Y-85130377D01*
X184287281Y-85147172D01*
X184221146Y-85124635D01*
X184184068Y-85077944D01*
X184181930Y-85079034D01*
X184177500Y-85070339D01*
X184127095Y-84971413D01*
X184127092Y-84971410D01*
X184127090Y-84971407D01*
X184048592Y-84892909D01*
X184048588Y-84892906D01*
X184048587Y-84892905D01*
X184008536Y-84872498D01*
X183949658Y-84842498D01*
X183840002Y-84825131D01*
X183839998Y-84825131D01*
X183730341Y-84842498D01*
X183631414Y-84892904D01*
X183631407Y-84892909D01*
X183552909Y-84971407D01*
X183552904Y-84971414D01*
X183502498Y-85070341D01*
X183485131Y-85179997D01*
X183104869Y-85179997D01*
X183087501Y-85070341D01*
X183082405Y-85060339D01*
X183037095Y-84971413D01*
X183037092Y-84971410D01*
X183037090Y-84971407D01*
X182958592Y-84892909D01*
X182958588Y-84892906D01*
X182958587Y-84892905D01*
X182918536Y-84872498D01*
X182859658Y-84842498D01*
X182750002Y-84825131D01*
X182749998Y-84825131D01*
X182640341Y-84842498D01*
X182541414Y-84892904D01*
X182541407Y-84892909D01*
X182462909Y-84971407D01*
X182462904Y-84971414D01*
X182412498Y-85070341D01*
X182395131Y-85179997D01*
X180223576Y-85179997D01*
X180833558Y-84570017D01*
X180833558Y-84570015D01*
X180833560Y-84570014D01*
X180854529Y-84519388D01*
X180875500Y-84468759D01*
X180875500Y-84359159D01*
X180875500Y-83064436D01*
X180895185Y-82997397D01*
X180911819Y-82976755D01*
X181975967Y-81912608D01*
X182037290Y-81879123D01*
X182063648Y-81876289D01*
X182689318Y-81876289D01*
X182745609Y-81889803D01*
X182840769Y-81938289D01*
X182840771Y-81938289D01*
X182840773Y-81938290D01*
X182915286Y-81950092D01*
X182978421Y-81980021D01*
X183015352Y-82039333D01*
X183014354Y-82109195D01*
X183006373Y-82128859D01*
X182972498Y-82195341D01*
X182955131Y-82304997D01*
X182955131Y-82305000D01*
X182959563Y-82332981D01*
X182965595Y-82371068D01*
X182956639Y-82440362D01*
X182928081Y-82475874D01*
X182930543Y-82478336D01*
X182844038Y-82564840D01*
X182782714Y-82598324D01*
X182713023Y-82593340D01*
X182657089Y-82551468D01*
X182645872Y-82533453D01*
X182632095Y-82506413D01*
X182632091Y-82506409D01*
X182632090Y-82506407D01*
X182553592Y-82427909D01*
X182553588Y-82427906D01*
X182553587Y-82427905D01*
X182527588Y-82414658D01*
X182454658Y-82377498D01*
X182345002Y-82360131D01*
X182344998Y-82360131D01*
X182235341Y-82377498D01*
X182136414Y-82427904D01*
X182136407Y-82427909D01*
X182057909Y-82506407D01*
X182057904Y-82506414D01*
X182007498Y-82605341D01*
X181990131Y-82714997D01*
X181990131Y-82715002D01*
X182007498Y-82824658D01*
X182057904Y-82923585D01*
X182057909Y-82923592D01*
X182136407Y-83002090D01*
X182136410Y-83002092D01*
X182136413Y-83002095D01*
X182157961Y-83013074D01*
X182235341Y-83052501D01*
X182344998Y-83069869D01*
X182345000Y-83069869D01*
X182345002Y-83069869D01*
X182454658Y-83052501D01*
X182454659Y-83052500D01*
X182454661Y-83052500D01*
X182553587Y-83002095D01*
X182632095Y-82923587D01*
X182632096Y-82923584D01*
X182633190Y-82922491D01*
X182694513Y-82889006D01*
X182764205Y-82893990D01*
X182820139Y-82935861D01*
X182831356Y-82953876D01*
X182845134Y-82980916D01*
X182850874Y-82988817D01*
X182849290Y-82989967D01*
X182876889Y-83040511D01*
X182871905Y-83110203D01*
X182866208Y-83123163D01*
X182847498Y-83159882D01*
X182830131Y-83269538D01*
X182830131Y-83269543D01*
X182847498Y-83379199D01*
X182897904Y-83478126D01*
X182897909Y-83478133D01*
X182976407Y-83556631D01*
X182976410Y-83556633D01*
X182976413Y-83556636D01*
X183071339Y-83605003D01*
X183075341Y-83607042D01*
X183184998Y-83624410D01*
X183185000Y-83624410D01*
X183185002Y-83624410D01*
X183294658Y-83607042D01*
X183294659Y-83607041D01*
X183294661Y-83607041D01*
X183393587Y-83556636D01*
X183472095Y-83478128D01*
X183522500Y-83379202D01*
X183522500Y-83379200D01*
X183522501Y-83379199D01*
X183539869Y-83269543D01*
X183539869Y-83269538D01*
X183522501Y-83159882D01*
X183497259Y-83110341D01*
X183472095Y-83060954D01*
X183472092Y-83060951D01*
X183466356Y-83053055D01*
X183467939Y-83051904D01*
X183440340Y-83001360D01*
X183445324Y-82931668D01*
X183451010Y-82918732D01*
X183469730Y-82881992D01*
X183471629Y-82870002D01*
X183471630Y-82869997D01*
X184755131Y-82869997D01*
X184755131Y-82870002D01*
X184772498Y-82979658D01*
X184822904Y-83078585D01*
X184822909Y-83078592D01*
X184901407Y-83157090D01*
X184901410Y-83157092D01*
X184901413Y-83157095D01*
X185000339Y-83207500D01*
X185000341Y-83207501D01*
X185109998Y-83224869D01*
X185110000Y-83224869D01*
X185110002Y-83224869D01*
X185140762Y-83219997D01*
X187230131Y-83219997D01*
X187230131Y-83220002D01*
X187247498Y-83329658D01*
X187297904Y-83428585D01*
X187297909Y-83428592D01*
X187376407Y-83507090D01*
X187376410Y-83507092D01*
X187376413Y-83507095D01*
X187473643Y-83556636D01*
X187475341Y-83557501D01*
X187584998Y-83574869D01*
X187585000Y-83574869D01*
X187585002Y-83574869D01*
X187694658Y-83557501D01*
X187694659Y-83557500D01*
X187694661Y-83557500D01*
X187793587Y-83507095D01*
X187819819Y-83480862D01*
X187881140Y-83447378D01*
X187950832Y-83452362D01*
X187995180Y-83480862D01*
X188021413Y-83507095D01*
X188118643Y-83556636D01*
X188120341Y-83557501D01*
X188229998Y-83574869D01*
X188230000Y-83574869D01*
X188230002Y-83574869D01*
X188339658Y-83557501D01*
X188339659Y-83557500D01*
X188339661Y-83557500D01*
X188438587Y-83507095D01*
X188517095Y-83428587D01*
X188567500Y-83329661D01*
X188567500Y-83329659D01*
X188567501Y-83329658D01*
X188584869Y-83220002D01*
X188584869Y-83219997D01*
X188567501Y-83110341D01*
X188557854Y-83091407D01*
X188517095Y-83011413D01*
X188517092Y-83011410D01*
X188517090Y-83011407D01*
X188438592Y-82932909D01*
X188438588Y-82932906D01*
X188438587Y-82932905D01*
X188362212Y-82893990D01*
X188339658Y-82882498D01*
X188230002Y-82865131D01*
X188229998Y-82865131D01*
X188120341Y-82882498D01*
X188021414Y-82932904D01*
X188021407Y-82932909D01*
X187995181Y-82959136D01*
X187933858Y-82992621D01*
X187864166Y-82987637D01*
X187819819Y-82959136D01*
X187793592Y-82932909D01*
X187793588Y-82932906D01*
X187793587Y-82932905D01*
X187717212Y-82893990D01*
X187694658Y-82882498D01*
X187585002Y-82865131D01*
X187584998Y-82865131D01*
X187475341Y-82882498D01*
X187376414Y-82932904D01*
X187376407Y-82932909D01*
X187297909Y-83011407D01*
X187297904Y-83011414D01*
X187247498Y-83110341D01*
X187230131Y-83219997D01*
X185140762Y-83219997D01*
X185219658Y-83207501D01*
X185219659Y-83207500D01*
X185219661Y-83207500D01*
X185318587Y-83157095D01*
X185397095Y-83078587D01*
X185447500Y-82979661D01*
X185447500Y-82979659D01*
X185447501Y-82979658D01*
X185464869Y-82870002D01*
X185464869Y-82869997D01*
X185447501Y-82760341D01*
X185405848Y-82678592D01*
X185397095Y-82661413D01*
X185397092Y-82661410D01*
X185397090Y-82661407D01*
X185318592Y-82582909D01*
X185318588Y-82582906D01*
X185318587Y-82582905D01*
X185312214Y-82579658D01*
X185219658Y-82532498D01*
X185110002Y-82515131D01*
X185109998Y-82515131D01*
X185000341Y-82532498D01*
X184901414Y-82582904D01*
X184901407Y-82582909D01*
X184822909Y-82661407D01*
X184822904Y-82661414D01*
X184772498Y-82760341D01*
X184755131Y-82869997D01*
X183471630Y-82869997D01*
X183487099Y-82772333D01*
X183487099Y-82772329D01*
X183476635Y-82706263D01*
X183485589Y-82636970D01*
X183514188Y-82601497D01*
X183511686Y-82598995D01*
X183518584Y-82592096D01*
X183518587Y-82592095D01*
X183597095Y-82513587D01*
X183647500Y-82414661D01*
X183647500Y-82414659D01*
X183647501Y-82414658D01*
X183664869Y-82305002D01*
X183664869Y-82304997D01*
X183647501Y-82195341D01*
X183641164Y-82182904D01*
X183597095Y-82096413D01*
X183597092Y-82096410D01*
X183597090Y-82096407D01*
X183518592Y-82017909D01*
X183518588Y-82017906D01*
X183518587Y-82017905D01*
X183514743Y-82015946D01*
X183419658Y-81967498D01*
X183345142Y-81955696D01*
X183282007Y-81925766D01*
X183245077Y-81866454D01*
X183246075Y-81796592D01*
X183254051Y-81776941D01*
X183287930Y-81710450D01*
X183290800Y-81692335D01*
X183305299Y-81600791D01*
X183305299Y-81600786D01*
X183287931Y-81491130D01*
X183245672Y-81408192D01*
X183237525Y-81392202D01*
X183237522Y-81392199D01*
X183237520Y-81392196D01*
X183159022Y-81313698D01*
X183159018Y-81313695D01*
X183159017Y-81313694D01*
X183155173Y-81311735D01*
X183060088Y-81263287D01*
X182950432Y-81245920D01*
X182950428Y-81245920D01*
X182840773Y-81263287D01*
X182840769Y-81263288D01*
X182840769Y-81263289D01*
X182745609Y-81311774D01*
X182689318Y-81325289D01*
X181952970Y-81325289D01*
X181843370Y-81325289D01*
X181843368Y-81325289D01*
X181843366Y-81325290D01*
X181742114Y-81367228D01*
X181742112Y-81367230D01*
X180443942Y-82665402D01*
X180366444Y-82742899D01*
X180324500Y-82844158D01*
X180324500Y-84248481D01*
X180304815Y-84315520D01*
X180288181Y-84336162D01*
X179788663Y-84835681D01*
X179727340Y-84869166D01*
X179700982Y-84872000D01*
X174741112Y-84872000D01*
X174684820Y-84858485D01*
X174589661Y-84810000D01*
X174589660Y-84809999D01*
X174589657Y-84809998D01*
X174561077Y-84805472D01*
X174497943Y-84775542D01*
X174492795Y-84770680D01*
X174476634Y-84754519D01*
X174443149Y-84693196D01*
X174440315Y-84666838D01*
X174440315Y-84069997D01*
X177775131Y-84069997D01*
X177775131Y-84070002D01*
X177792498Y-84179658D01*
X177842904Y-84278585D01*
X177842909Y-84278592D01*
X177921407Y-84357090D01*
X177921410Y-84357092D01*
X177921413Y-84357095D01*
X177978237Y-84386048D01*
X178020341Y-84407501D01*
X178129998Y-84424869D01*
X178130000Y-84424869D01*
X178130002Y-84424869D01*
X178239658Y-84407501D01*
X178239659Y-84407500D01*
X178239661Y-84407500D01*
X178338587Y-84357095D01*
X178417095Y-84278587D01*
X178467500Y-84179661D01*
X178467500Y-84179659D01*
X178467501Y-84179658D01*
X178478534Y-84109997D01*
X178985131Y-84109997D01*
X178985131Y-84110002D01*
X179002498Y-84219658D01*
X179052904Y-84318585D01*
X179052909Y-84318592D01*
X179131407Y-84397090D01*
X179131410Y-84397092D01*
X179131413Y-84397095D01*
X179212946Y-84438638D01*
X179230341Y-84447501D01*
X179339998Y-84464869D01*
X179340000Y-84464869D01*
X179340002Y-84464869D01*
X179449658Y-84447501D01*
X179449659Y-84447500D01*
X179449661Y-84447500D01*
X179548587Y-84397095D01*
X179627095Y-84318587D01*
X179677500Y-84219661D01*
X179677500Y-84219659D01*
X179677501Y-84219658D01*
X179694869Y-84110002D01*
X179694869Y-84109997D01*
X179677501Y-84000341D01*
X179661717Y-83969363D01*
X179627095Y-83901413D01*
X179627092Y-83901410D01*
X179627090Y-83901407D01*
X179548592Y-83822909D01*
X179548588Y-83822906D01*
X179548587Y-83822905D01*
X179506318Y-83801368D01*
X179449658Y-83772498D01*
X179340002Y-83755131D01*
X179339998Y-83755131D01*
X179230341Y-83772498D01*
X179131414Y-83822904D01*
X179131407Y-83822909D01*
X179052909Y-83901407D01*
X179052904Y-83901414D01*
X179002498Y-84000341D01*
X178985131Y-84109997D01*
X178478534Y-84109997D01*
X178484869Y-84070002D01*
X178484869Y-84069997D01*
X178467501Y-83960341D01*
X178437473Y-83901407D01*
X178417095Y-83861413D01*
X178417092Y-83861410D01*
X178417090Y-83861407D01*
X178338592Y-83782909D01*
X178338588Y-83782906D01*
X178338587Y-83782905D01*
X178318162Y-83772498D01*
X178239658Y-83732498D01*
X178130002Y-83715131D01*
X178129998Y-83715131D01*
X178020341Y-83732498D01*
X177921414Y-83782904D01*
X177921407Y-83782909D01*
X177842909Y-83861407D01*
X177842904Y-83861414D01*
X177792498Y-83960341D01*
X177775131Y-84069997D01*
X174440315Y-84069997D01*
X174440315Y-83727741D01*
X174460000Y-83660702D01*
X174512804Y-83614947D01*
X174581962Y-83605003D01*
X174620603Y-83617254D01*
X174660339Y-83637500D01*
X174660341Y-83637500D01*
X174660343Y-83637501D01*
X174769998Y-83654869D01*
X174770000Y-83654869D01*
X174770002Y-83654869D01*
X174879658Y-83637501D01*
X174879659Y-83637500D01*
X174879661Y-83637500D01*
X174978587Y-83587095D01*
X175057095Y-83508587D01*
X175107500Y-83409661D01*
X175107500Y-83409659D01*
X175107501Y-83409658D01*
X175124869Y-83300002D01*
X175124869Y-83299997D01*
X175107501Y-83190341D01*
X175096964Y-83169661D01*
X175057095Y-83091413D01*
X175057092Y-83091410D01*
X175057090Y-83091407D01*
X174978592Y-83012909D01*
X174978588Y-83012906D01*
X174978587Y-83012905D01*
X174948151Y-82997397D01*
X174879658Y-82962498D01*
X174770002Y-82945131D01*
X174769998Y-82945131D01*
X174660342Y-82962498D01*
X174646871Y-82969362D01*
X174624192Y-82980918D01*
X174620608Y-82982744D01*
X174551939Y-82995639D01*
X174487199Y-82969362D01*
X174446943Y-82912255D01*
X174440315Y-82872258D01*
X174440315Y-82469997D01*
X175785131Y-82469997D01*
X175785131Y-82470002D01*
X175802498Y-82579658D01*
X175852904Y-82678585D01*
X175852909Y-82678592D01*
X175931407Y-82757090D01*
X175931410Y-82757092D01*
X175931413Y-82757095D01*
X175987762Y-82785806D01*
X176030341Y-82807501D01*
X176139998Y-82824869D01*
X176140000Y-82824869D01*
X176140002Y-82824869D01*
X176249658Y-82807501D01*
X176249659Y-82807500D01*
X176249661Y-82807500D01*
X176348587Y-82757095D01*
X176427095Y-82678587D01*
X176477500Y-82579661D01*
X176477500Y-82579659D01*
X176477501Y-82579658D01*
X176494869Y-82470002D01*
X176494869Y-82469997D01*
X176477501Y-82360341D01*
X176463560Y-82332981D01*
X176427095Y-82261413D01*
X176427092Y-82261410D01*
X176427090Y-82261407D01*
X176348592Y-82182909D01*
X176348588Y-82182906D01*
X176348587Y-82182905D01*
X176344743Y-82180946D01*
X176249658Y-82132498D01*
X176140002Y-82115131D01*
X176139998Y-82115131D01*
X176030341Y-82132498D01*
X175931414Y-82182904D01*
X175931407Y-82182909D01*
X175852909Y-82261407D01*
X175852904Y-82261414D01*
X175802498Y-82360341D01*
X175785131Y-82469997D01*
X174440315Y-82469997D01*
X174440315Y-82420662D01*
X174460000Y-82353623D01*
X174476634Y-82332981D01*
X175047797Y-81761819D01*
X175109120Y-81728334D01*
X175135478Y-81725500D01*
X175208888Y-81725500D01*
X175265179Y-81739014D01*
X175360339Y-81787500D01*
X175360341Y-81787500D01*
X175360343Y-81787501D01*
X175469998Y-81804869D01*
X175470000Y-81804869D01*
X175470002Y-81804869D01*
X175579658Y-81787501D01*
X175579659Y-81787500D01*
X175579661Y-81787500D01*
X175678587Y-81737095D01*
X175757095Y-81658587D01*
X175807500Y-81559661D01*
X175807500Y-81559659D01*
X175807501Y-81559658D01*
X175824869Y-81450002D01*
X175824869Y-81449997D01*
X175807501Y-81340341D01*
X175759391Y-81245920D01*
X175757095Y-81241413D01*
X175757092Y-81241410D01*
X175757090Y-81241407D01*
X175678592Y-81162909D01*
X175678588Y-81162906D01*
X175678587Y-81162905D01*
X175611811Y-81128881D01*
X175579658Y-81112498D01*
X175470002Y-81095131D01*
X175469998Y-81095131D01*
X175360343Y-81112498D01*
X175360339Y-81112499D01*
X175360339Y-81112500D01*
X175265179Y-81160985D01*
X175208888Y-81174500D01*
X175024800Y-81174500D01*
X174915200Y-81174500D01*
X174915198Y-81174500D01*
X174915196Y-81174501D01*
X174813944Y-81216439D01*
X174813942Y-81216441D01*
X174301996Y-81728388D01*
X174240673Y-81761873D01*
X174170981Y-81756889D01*
X174115048Y-81715017D01*
X174090631Y-81649553D01*
X174090315Y-81640707D01*
X174090315Y-80839997D01*
X187705131Y-80839997D01*
X187705131Y-80840002D01*
X187722498Y-80949658D01*
X187772904Y-81048585D01*
X187772909Y-81048592D01*
X187851407Y-81127090D01*
X187851410Y-81127092D01*
X187851413Y-81127095D01*
X187944451Y-81174500D01*
X187950341Y-81177501D01*
X188059998Y-81194869D01*
X188060000Y-81194869D01*
X188060002Y-81194869D01*
X188169658Y-81177501D01*
X188169659Y-81177500D01*
X188169661Y-81177500D01*
X188268587Y-81127095D01*
X188347095Y-81048587D01*
X188397500Y-80949661D01*
X188397500Y-80949659D01*
X188397501Y-80949658D01*
X188414869Y-80840002D01*
X188414869Y-80839997D01*
X188397501Y-80730341D01*
X188396074Y-80727541D01*
X188347095Y-80631413D01*
X188347092Y-80631410D01*
X188347090Y-80631407D01*
X188268592Y-80552909D01*
X188268588Y-80552906D01*
X188268587Y-80552905D01*
X188213563Y-80524869D01*
X188169658Y-80502498D01*
X188060002Y-80485131D01*
X188059998Y-80485131D01*
X187950341Y-80502498D01*
X187851414Y-80552904D01*
X187851407Y-80552909D01*
X187772909Y-80631407D01*
X187772904Y-80631414D01*
X187722498Y-80730341D01*
X187705131Y-80839997D01*
X174090315Y-80839997D01*
X174090315Y-80630508D01*
X174110000Y-80563469D01*
X174162804Y-80517714D01*
X174231962Y-80507770D01*
X174233713Y-80508035D01*
X174339998Y-80524869D01*
X174340000Y-80524869D01*
X174340002Y-80524869D01*
X174449658Y-80507501D01*
X174449659Y-80507500D01*
X174449661Y-80507500D01*
X174548587Y-80457095D01*
X174627095Y-80378587D01*
X174677500Y-80279661D01*
X174677500Y-80279659D01*
X174677501Y-80279658D01*
X174694869Y-80170002D01*
X174694869Y-80169997D01*
X174677501Y-80060341D01*
X174640943Y-79988592D01*
X174627095Y-79961413D01*
X174627092Y-79961410D01*
X174627090Y-79961407D01*
X174548592Y-79882909D01*
X174548588Y-79882906D01*
X174548587Y-79882905D01*
X174483336Y-79849658D01*
X174449658Y-79832498D01*
X174340002Y-79815131D01*
X174339996Y-79815131D01*
X174233712Y-79831964D01*
X174164419Y-79823009D01*
X174110967Y-79778012D01*
X174099213Y-79739997D01*
X175695131Y-79739997D01*
X175695131Y-79740002D01*
X175712498Y-79849658D01*
X175762904Y-79948585D01*
X175762909Y-79948592D01*
X175841407Y-80027090D01*
X175841410Y-80027092D01*
X175841413Y-80027095D01*
X175934975Y-80074767D01*
X175940341Y-80077501D01*
X176049998Y-80094869D01*
X176050000Y-80094869D01*
X176050002Y-80094869D01*
X176159658Y-80077501D01*
X176159659Y-80077500D01*
X176159661Y-80077500D01*
X176258587Y-80027095D01*
X176337095Y-79948587D01*
X176387500Y-79849661D01*
X176387500Y-79849659D01*
X176387501Y-79849658D01*
X176401702Y-79759997D01*
X177445131Y-79759997D01*
X177445131Y-79760002D01*
X177462498Y-79869658D01*
X177512904Y-79968585D01*
X177512909Y-79968592D01*
X177591407Y-80047090D01*
X177591410Y-80047092D01*
X177591413Y-80047095D01*
X177685175Y-80094869D01*
X177690341Y-80097501D01*
X177799998Y-80114869D01*
X177800000Y-80114869D01*
X177800002Y-80114869D01*
X177909658Y-80097501D01*
X177909659Y-80097500D01*
X177909661Y-80097500D01*
X178008587Y-80047095D01*
X178087095Y-79968587D01*
X178137500Y-79869661D01*
X178137500Y-79869659D01*
X178137501Y-79869658D01*
X178151702Y-79779997D01*
X179035131Y-79779997D01*
X179035131Y-79780002D01*
X179052498Y-79889658D01*
X179102904Y-79988585D01*
X179102909Y-79988592D01*
X179181407Y-80067090D01*
X179181410Y-80067092D01*
X179181413Y-80067095D01*
X179226367Y-80090000D01*
X179280341Y-80117501D01*
X179389998Y-80134869D01*
X179390000Y-80134869D01*
X179390002Y-80134869D01*
X179499658Y-80117501D01*
X179499659Y-80117500D01*
X179499661Y-80117500D01*
X179598587Y-80067095D01*
X179677095Y-79988587D01*
X179727500Y-79889661D01*
X179727500Y-79889659D01*
X179727501Y-79889658D01*
X179744869Y-79780002D01*
X179744869Y-79779997D01*
X179727501Y-79670341D01*
X179724677Y-79664799D01*
X179677095Y-79571413D01*
X179677092Y-79571410D01*
X179677090Y-79571407D01*
X179598592Y-79492909D01*
X179598588Y-79492906D01*
X179598587Y-79492905D01*
X179563189Y-79474869D01*
X179499658Y-79442498D01*
X179390002Y-79425131D01*
X179389998Y-79425131D01*
X179280341Y-79442498D01*
X179181414Y-79492904D01*
X179181407Y-79492909D01*
X179102909Y-79571407D01*
X179102904Y-79571414D01*
X179052498Y-79670341D01*
X179035131Y-79779997D01*
X178151702Y-79779997D01*
X178154869Y-79760002D01*
X178154869Y-79759997D01*
X178137501Y-79650341D01*
X178131511Y-79638585D01*
X178087095Y-79551413D01*
X178087092Y-79551410D01*
X178087090Y-79551407D01*
X178008592Y-79472909D01*
X178008588Y-79472906D01*
X178008587Y-79472905D01*
X177978353Y-79457500D01*
X177909658Y-79422498D01*
X177800002Y-79405131D01*
X177799998Y-79405131D01*
X177690341Y-79422498D01*
X177591414Y-79472904D01*
X177591407Y-79472909D01*
X177512909Y-79551407D01*
X177512904Y-79551414D01*
X177462498Y-79650341D01*
X177445131Y-79759997D01*
X176401702Y-79759997D01*
X176404869Y-79740002D01*
X176404869Y-79739997D01*
X176387501Y-79630341D01*
X176363988Y-79584194D01*
X176337095Y-79531413D01*
X176337092Y-79531410D01*
X176337090Y-79531407D01*
X176258592Y-79452909D01*
X176258588Y-79452906D01*
X176258587Y-79452905D01*
X176213637Y-79430002D01*
X176159658Y-79402498D01*
X176050002Y-79385131D01*
X176049998Y-79385131D01*
X175940341Y-79402498D01*
X175841414Y-79452904D01*
X175841407Y-79452909D01*
X175762909Y-79531407D01*
X175762904Y-79531414D01*
X175712498Y-79630341D01*
X175695131Y-79739997D01*
X174099213Y-79739997D01*
X174090328Y-79711261D01*
X174090315Y-79709491D01*
X174090315Y-79010508D01*
X174110000Y-78943469D01*
X174162804Y-78897714D01*
X174231962Y-78887770D01*
X174233713Y-78888035D01*
X174339998Y-78904869D01*
X174340000Y-78904869D01*
X174340002Y-78904869D01*
X174449658Y-78887501D01*
X174449659Y-78887500D01*
X174449661Y-78887500D01*
X174479106Y-78872497D01*
X180365131Y-78872497D01*
X180365131Y-78872502D01*
X180382498Y-78982158D01*
X180432904Y-79081085D01*
X180432909Y-79081092D01*
X180511407Y-79159590D01*
X180511410Y-79159592D01*
X180511413Y-79159595D01*
X180548442Y-79178462D01*
X180610341Y-79210001D01*
X180719998Y-79227369D01*
X180720000Y-79227369D01*
X180720002Y-79227369D01*
X180829658Y-79210001D01*
X180829659Y-79210000D01*
X180829661Y-79210000D01*
X180928587Y-79159595D01*
X180928592Y-79159589D01*
X180932788Y-79156542D01*
X180998593Y-79133060D01*
X181066648Y-79148884D01*
X181115344Y-79198988D01*
X181129221Y-79267466D01*
X181116164Y-79313146D01*
X181112499Y-79320338D01*
X181112499Y-79320340D01*
X181095131Y-79429997D01*
X181095131Y-79430002D01*
X181112498Y-79539658D01*
X181162904Y-79638585D01*
X181162909Y-79638592D01*
X181241407Y-79717090D01*
X181241410Y-79717092D01*
X181241413Y-79717095D01*
X181325623Y-79760002D01*
X181340341Y-79767501D01*
X181449998Y-79784869D01*
X181450000Y-79784869D01*
X181450002Y-79784869D01*
X181559658Y-79767501D01*
X181559659Y-79767500D01*
X181559661Y-79767500D01*
X181594013Y-79749997D01*
X183245131Y-79749997D01*
X183245131Y-79750002D01*
X183262498Y-79859658D01*
X183312904Y-79958585D01*
X183312909Y-79958592D01*
X183391407Y-80037090D01*
X183391410Y-80037092D01*
X183391413Y-80037095D01*
X183465349Y-80074767D01*
X183490341Y-80087501D01*
X183599998Y-80104869D01*
X183600000Y-80104869D01*
X183600002Y-80104869D01*
X183709658Y-80087501D01*
X183709659Y-80087500D01*
X183709661Y-80087500D01*
X183808587Y-80037095D01*
X183887095Y-79958587D01*
X183937500Y-79859661D01*
X183937500Y-79859659D01*
X183937501Y-79859658D01*
X183954869Y-79750002D01*
X183954869Y-79749997D01*
X183937501Y-79640341D01*
X183932405Y-79630339D01*
X183887095Y-79541413D01*
X183887092Y-79541410D01*
X183887090Y-79541407D01*
X183808592Y-79462909D01*
X183808588Y-79462906D01*
X183808587Y-79462905D01*
X183744007Y-79430000D01*
X183709658Y-79412498D01*
X183600002Y-79395131D01*
X183599998Y-79395131D01*
X183490341Y-79412498D01*
X183391414Y-79462904D01*
X183391407Y-79462909D01*
X183312909Y-79541407D01*
X183312904Y-79541414D01*
X183262498Y-79640341D01*
X183245131Y-79749997D01*
X181594013Y-79749997D01*
X181658587Y-79717095D01*
X181737095Y-79638587D01*
X181787500Y-79539661D01*
X181787500Y-79539659D01*
X181787501Y-79539658D01*
X181804869Y-79430002D01*
X181804869Y-79429997D01*
X181793782Y-79359997D01*
X187655131Y-79359997D01*
X187655131Y-79360002D01*
X187672498Y-79469658D01*
X187722904Y-79568585D01*
X187722909Y-79568592D01*
X187801407Y-79647090D01*
X187801410Y-79647092D01*
X187801413Y-79647095D01*
X187891647Y-79693071D01*
X187900341Y-79697501D01*
X188009998Y-79714869D01*
X188010000Y-79714869D01*
X188010002Y-79714869D01*
X188119658Y-79697501D01*
X188119659Y-79697500D01*
X188119661Y-79697500D01*
X188218587Y-79647095D01*
X188297095Y-79568587D01*
X188347500Y-79469661D01*
X188347500Y-79469659D01*
X188347501Y-79469658D01*
X188364869Y-79360002D01*
X188364869Y-79359997D01*
X188347501Y-79250341D01*
X188336964Y-79229661D01*
X188297095Y-79151413D01*
X188297092Y-79151410D01*
X188297090Y-79151407D01*
X188218592Y-79072909D01*
X188218588Y-79072906D01*
X188218587Y-79072905D01*
X188193263Y-79060002D01*
X188119658Y-79022498D01*
X188010002Y-79005131D01*
X188009998Y-79005131D01*
X187900341Y-79022498D01*
X187801414Y-79072904D01*
X187801407Y-79072909D01*
X187722909Y-79151407D01*
X187722904Y-79151414D01*
X187672498Y-79250341D01*
X187655131Y-79359997D01*
X181793782Y-79359997D01*
X181787501Y-79320341D01*
X181783835Y-79313146D01*
X181737095Y-79221413D01*
X181737092Y-79221410D01*
X181737090Y-79221407D01*
X181658592Y-79142909D01*
X181658588Y-79142906D01*
X181658587Y-79142905D01*
X181613637Y-79120002D01*
X181559658Y-79092498D01*
X181450002Y-79075131D01*
X181449998Y-79075131D01*
X181340341Y-79092498D01*
X181241411Y-79142905D01*
X181237202Y-79145964D01*
X181171394Y-79169439D01*
X181103341Y-79153610D01*
X181054650Y-79103501D01*
X181040779Y-79035022D01*
X181053838Y-78989347D01*
X181057500Y-78982161D01*
X181059887Y-78967095D01*
X181074869Y-78872502D01*
X181074869Y-78872497D01*
X181057501Y-78762841D01*
X181055336Y-78758592D01*
X181015290Y-78679997D01*
X183325131Y-78679997D01*
X183325131Y-78680002D01*
X183342498Y-78789658D01*
X183392904Y-78888585D01*
X183392909Y-78888592D01*
X183471407Y-78967090D01*
X183471410Y-78967092D01*
X183471413Y-78967095D01*
X183570339Y-79017500D01*
X183570341Y-79017501D01*
X183679998Y-79034869D01*
X183680000Y-79034869D01*
X183680002Y-79034869D01*
X183789658Y-79017501D01*
X183789659Y-79017500D01*
X183789661Y-79017500D01*
X183888587Y-78967095D01*
X183967095Y-78888587D01*
X184017500Y-78789661D01*
X184017500Y-78789659D01*
X184017501Y-78789658D01*
X184034869Y-78680002D01*
X184034869Y-78679997D01*
X184017501Y-78570341D01*
X183990577Y-78517500D01*
X183967095Y-78471413D01*
X183967092Y-78471410D01*
X183967090Y-78471407D01*
X183888592Y-78392909D01*
X183888588Y-78392906D01*
X183888587Y-78392905D01*
X183880112Y-78388587D01*
X183789658Y-78342498D01*
X183680002Y-78325131D01*
X183679998Y-78325131D01*
X183570341Y-78342498D01*
X183471414Y-78392904D01*
X183471407Y-78392909D01*
X183392909Y-78471407D01*
X183392904Y-78471414D01*
X183342498Y-78570341D01*
X183325131Y-78679997D01*
X181015290Y-78679997D01*
X181007095Y-78663913D01*
X181007092Y-78663910D01*
X181007090Y-78663907D01*
X180928592Y-78585409D01*
X180928588Y-78585406D01*
X180928587Y-78585405D01*
X180896616Y-78569115D01*
X180829658Y-78534998D01*
X180720002Y-78517631D01*
X180719998Y-78517631D01*
X180610341Y-78534998D01*
X180511414Y-78585404D01*
X180511407Y-78585409D01*
X180432909Y-78663907D01*
X180432904Y-78663914D01*
X180382498Y-78762841D01*
X180365131Y-78872497D01*
X174479106Y-78872497D01*
X174548587Y-78837095D01*
X174627095Y-78758587D01*
X174677500Y-78659661D01*
X174677500Y-78659659D01*
X174677501Y-78659658D01*
X174694869Y-78550002D01*
X174694869Y-78549997D01*
X174677501Y-78440341D01*
X174653331Y-78392904D01*
X174627095Y-78341413D01*
X174627092Y-78341410D01*
X174627090Y-78341407D01*
X174548592Y-78262909D01*
X174548588Y-78262906D01*
X174548587Y-78262905D01*
X174493563Y-78234869D01*
X174449658Y-78212498D01*
X174340002Y-78195131D01*
X174339996Y-78195131D01*
X174233712Y-78211964D01*
X174164419Y-78203009D01*
X174110967Y-78158012D01*
X174090328Y-78091261D01*
X174090315Y-78089491D01*
X174090315Y-77689997D01*
X183315131Y-77689997D01*
X183315131Y-77690002D01*
X183332498Y-77799658D01*
X183382904Y-77898585D01*
X183382909Y-77898592D01*
X183461407Y-77977090D01*
X183461410Y-77977092D01*
X183461413Y-77977095D01*
X183560339Y-78027500D01*
X183560341Y-78027501D01*
X183669998Y-78044869D01*
X183670000Y-78044869D01*
X183670002Y-78044869D01*
X183779658Y-78027501D01*
X183779659Y-78027500D01*
X183779661Y-78027500D01*
X183878587Y-77977095D01*
X183895685Y-77959997D01*
X185405131Y-77959997D01*
X185405131Y-77960002D01*
X185422498Y-78069658D01*
X185472904Y-78168585D01*
X185472909Y-78168592D01*
X185551407Y-78247090D01*
X185551410Y-78247092D01*
X185551413Y-78247095D01*
X185650339Y-78297500D01*
X185650341Y-78297501D01*
X185759998Y-78314869D01*
X185760000Y-78314869D01*
X185760002Y-78314869D01*
X185869658Y-78297501D01*
X185869659Y-78297500D01*
X185869661Y-78297500D01*
X185968587Y-78247095D01*
X186035685Y-78179997D01*
X187905131Y-78179997D01*
X187905131Y-78180002D01*
X187922498Y-78289658D01*
X187972904Y-78388585D01*
X187972909Y-78388592D01*
X188051407Y-78467090D01*
X188051410Y-78467092D01*
X188051413Y-78467095D01*
X188059890Y-78471414D01*
X188150341Y-78517501D01*
X188259998Y-78534869D01*
X188260000Y-78534869D01*
X188260002Y-78534869D01*
X188369658Y-78517501D01*
X188369659Y-78517500D01*
X188369661Y-78517500D01*
X188468587Y-78467095D01*
X188547095Y-78388587D01*
X188597500Y-78289661D01*
X188597500Y-78289659D01*
X188601930Y-78280966D01*
X188603613Y-78281823D01*
X188636251Y-78234088D01*
X188700609Y-78206888D01*
X188734143Y-78207605D01*
X188780000Y-78214869D01*
X188780000Y-78214868D01*
X188780001Y-78214869D01*
X188780002Y-78214869D01*
X188889658Y-78197501D01*
X188889659Y-78197500D01*
X188889661Y-78197500D01*
X188988587Y-78147095D01*
X189067095Y-78068587D01*
X189117500Y-77969661D01*
X189117500Y-77969659D01*
X189117501Y-77969658D01*
X189134869Y-77860002D01*
X189134869Y-77859997D01*
X189117501Y-77750341D01*
X189106964Y-77729661D01*
X189067095Y-77651413D01*
X189067092Y-77651410D01*
X189067090Y-77651407D01*
X188988592Y-77572909D01*
X188988588Y-77572906D01*
X188988587Y-77572905D01*
X188973330Y-77565131D01*
X188889658Y-77522498D01*
X188780002Y-77505131D01*
X188779998Y-77505131D01*
X188670341Y-77522498D01*
X188571414Y-77572904D01*
X188571407Y-77572909D01*
X188492909Y-77651407D01*
X188492904Y-77651414D01*
X188473244Y-77690000D01*
X188453038Y-77729658D01*
X188438070Y-77759034D01*
X188436389Y-77758177D01*
X188403732Y-77805924D01*
X188339369Y-77833114D01*
X188305853Y-77832393D01*
X188260002Y-77825131D01*
X188259998Y-77825131D01*
X188150341Y-77842498D01*
X188051414Y-77892904D01*
X188051407Y-77892909D01*
X187972909Y-77971407D01*
X187972904Y-77971414D01*
X187922498Y-78070341D01*
X187905131Y-78179997D01*
X186035685Y-78179997D01*
X186047095Y-78168587D01*
X186097500Y-78069661D01*
X186097500Y-78069659D01*
X186097501Y-78069658D01*
X186114869Y-77960002D01*
X186114869Y-77959997D01*
X186097501Y-77850341D01*
X186084656Y-77825131D01*
X186047095Y-77751413D01*
X186047092Y-77751410D01*
X186047090Y-77751407D01*
X185968592Y-77672909D01*
X185968588Y-77672906D01*
X185968587Y-77672905D01*
X185943271Y-77660006D01*
X185869658Y-77622498D01*
X185760002Y-77605131D01*
X185759998Y-77605131D01*
X185650341Y-77622498D01*
X185551414Y-77672904D01*
X185551407Y-77672909D01*
X185472909Y-77751407D01*
X185472904Y-77751414D01*
X185422498Y-77850341D01*
X185405131Y-77959997D01*
X183895685Y-77959997D01*
X183957095Y-77898587D01*
X184007500Y-77799661D01*
X184007500Y-77799659D01*
X184007501Y-77799658D01*
X184024869Y-77690002D01*
X184024869Y-77689997D01*
X184007501Y-77580341D01*
X183979370Y-77525131D01*
X183957095Y-77481413D01*
X183957092Y-77481410D01*
X183957090Y-77481407D01*
X183878592Y-77402909D01*
X183878588Y-77402906D01*
X183878587Y-77402905D01*
X183831221Y-77378771D01*
X183779658Y-77352498D01*
X183670002Y-77335131D01*
X183669998Y-77335131D01*
X183560341Y-77352498D01*
X183461414Y-77402904D01*
X183461407Y-77402909D01*
X183382909Y-77481407D01*
X183382904Y-77481414D01*
X183332498Y-77580341D01*
X183315131Y-77689997D01*
X174090315Y-77689997D01*
X174090315Y-77679961D01*
X174090313Y-77679956D01*
X174055987Y-77597081D01*
X173992550Y-77533644D01*
X173911170Y-77452265D01*
X173911170Y-77452264D01*
X173847736Y-77388830D01*
X173847735Y-77388829D01*
X173823457Y-77378772D01*
X173823457Y-77378771D01*
X173764858Y-77354500D01*
X173764856Y-77354499D01*
X173764855Y-77354499D01*
X173675145Y-77354499D01*
X173660711Y-77354499D01*
X173660703Y-77354500D01*
X173391545Y-77354500D01*
X173324506Y-77334815D01*
X173303864Y-77318181D01*
X173278592Y-77292909D01*
X173278588Y-77292906D01*
X173278587Y-77292905D01*
X173258162Y-77282498D01*
X173179658Y-77242498D01*
X173070002Y-77225131D01*
X173069998Y-77225131D01*
X172960341Y-77242498D01*
X172861414Y-77292904D01*
X172861407Y-77292909D01*
X172782181Y-77372136D01*
X172720858Y-77405621D01*
X172651166Y-77400637D01*
X172595233Y-77358765D01*
X172570816Y-77293301D01*
X172570500Y-77284455D01*
X172570500Y-76739997D01*
X173785131Y-76739997D01*
X173785131Y-76740002D01*
X173802498Y-76849658D01*
X173852904Y-76948585D01*
X173852909Y-76948592D01*
X173931407Y-77027090D01*
X173931410Y-77027092D01*
X173931413Y-77027095D01*
X174030339Y-77077500D01*
X174030341Y-77077501D01*
X174139998Y-77094869D01*
X174140000Y-77094869D01*
X174140002Y-77094869D01*
X174249658Y-77077501D01*
X174249659Y-77077500D01*
X174249661Y-77077500D01*
X174348587Y-77027095D01*
X174427095Y-76948587D01*
X174477500Y-76849661D01*
X174477500Y-76849659D01*
X174477501Y-76849658D01*
X174494869Y-76740002D01*
X174494869Y-76739997D01*
X174477501Y-76630341D01*
X174445387Y-76567313D01*
X174427095Y-76531413D01*
X174427092Y-76531410D01*
X174427090Y-76531407D01*
X174348592Y-76452909D01*
X174348588Y-76452906D01*
X174348587Y-76452905D01*
X174344743Y-76450946D01*
X174249658Y-76402498D01*
X174140002Y-76385131D01*
X174139998Y-76385131D01*
X174030341Y-76402498D01*
X173931414Y-76452904D01*
X173931407Y-76452909D01*
X173852909Y-76531407D01*
X173852904Y-76531414D01*
X173802498Y-76630341D01*
X173785131Y-76739997D01*
X172570500Y-76739997D01*
X172570500Y-76025997D01*
X175115131Y-76025997D01*
X175115131Y-76026002D01*
X175132498Y-76135658D01*
X175182904Y-76234585D01*
X175182909Y-76234592D01*
X175261407Y-76313090D01*
X175261410Y-76313092D01*
X175261413Y-76313095D01*
X175308516Y-76337095D01*
X175360341Y-76363501D01*
X175469998Y-76380869D01*
X175470000Y-76380869D01*
X175470002Y-76380869D01*
X175579658Y-76363501D01*
X175579659Y-76363500D01*
X175579661Y-76363500D01*
X175678587Y-76313095D01*
X175757095Y-76234587D01*
X175807500Y-76135661D01*
X175807500Y-76135659D01*
X175807501Y-76135658D01*
X175824869Y-76026002D01*
X175824869Y-76025997D01*
X175807501Y-75916341D01*
X175788983Y-75879997D01*
X175757095Y-75817413D01*
X175757092Y-75817410D01*
X175757090Y-75817407D01*
X175699680Y-75759997D01*
X182375131Y-75759997D01*
X182375131Y-75760002D01*
X182392498Y-75869658D01*
X182442904Y-75968585D01*
X182442909Y-75968592D01*
X182521407Y-76047090D01*
X182521410Y-76047092D01*
X182521413Y-76047095D01*
X182602842Y-76088585D01*
X182620341Y-76097501D01*
X182729998Y-76114869D01*
X182730000Y-76114869D01*
X182730002Y-76114869D01*
X182839658Y-76097501D01*
X182839659Y-76097500D01*
X182839661Y-76097500D01*
X182932891Y-76049997D01*
X184155131Y-76049997D01*
X184155131Y-76050002D01*
X184172498Y-76159658D01*
X184222904Y-76258585D01*
X184222909Y-76258592D01*
X184301407Y-76337090D01*
X184301410Y-76337092D01*
X184301413Y-76337095D01*
X184355923Y-76364869D01*
X184400341Y-76387501D01*
X184509998Y-76404869D01*
X184510000Y-76404869D01*
X184510002Y-76404869D01*
X184619658Y-76387501D01*
X184619659Y-76387500D01*
X184619661Y-76387500D01*
X184718587Y-76337095D01*
X184797095Y-76258587D01*
X184847500Y-76159661D01*
X184847500Y-76159659D01*
X184847501Y-76159658D01*
X184864869Y-76050002D01*
X184864869Y-76049997D01*
X184847501Y-75940341D01*
X184816754Y-75879997D01*
X186665131Y-75879997D01*
X186665131Y-75880002D01*
X186682498Y-75989658D01*
X186732904Y-76088585D01*
X186732909Y-76088592D01*
X186811407Y-76167090D01*
X186811410Y-76167092D01*
X186811413Y-76167095D01*
X186865923Y-76194869D01*
X186910341Y-76217501D01*
X187019998Y-76234869D01*
X187020000Y-76234869D01*
X187020002Y-76234869D01*
X187129658Y-76217501D01*
X187129659Y-76217500D01*
X187129661Y-76217500D01*
X187228587Y-76167095D01*
X187307095Y-76088587D01*
X187357500Y-75989661D01*
X187357500Y-75989659D01*
X187357501Y-75989658D01*
X187374869Y-75880002D01*
X187374869Y-75879997D01*
X187368534Y-75839997D01*
X188865131Y-75839997D01*
X188865131Y-75840002D01*
X188882498Y-75949658D01*
X188932904Y-76048585D01*
X188932909Y-76048592D01*
X189011407Y-76127090D01*
X189011410Y-76127092D01*
X189011413Y-76127095D01*
X189075322Y-76159658D01*
X189110341Y-76177501D01*
X189219998Y-76194869D01*
X189220000Y-76194869D01*
X189220002Y-76194869D01*
X189329658Y-76177501D01*
X189329659Y-76177500D01*
X189329661Y-76177500D01*
X189428587Y-76127095D01*
X189507095Y-76048587D01*
X189526757Y-76009997D01*
X189975131Y-76009997D01*
X189975131Y-76010002D01*
X189992498Y-76119658D01*
X190042904Y-76218585D01*
X190042909Y-76218592D01*
X190121407Y-76297090D01*
X190121410Y-76297092D01*
X190121413Y-76297095D01*
X190199908Y-76337090D01*
X190220341Y-76347501D01*
X190329998Y-76364869D01*
X190330000Y-76364869D01*
X190330002Y-76364869D01*
X190439658Y-76347501D01*
X190439659Y-76347500D01*
X190439661Y-76347500D01*
X190538587Y-76297095D01*
X190617095Y-76218587D01*
X190667500Y-76119661D01*
X190667500Y-76119659D01*
X190667501Y-76119658D01*
X190684869Y-76010002D01*
X190684869Y-76009997D01*
X190667501Y-75900341D01*
X190636754Y-75839997D01*
X190617095Y-75801413D01*
X190617092Y-75801410D01*
X190617090Y-75801407D01*
X190538592Y-75722909D01*
X190538588Y-75722906D01*
X190538587Y-75722905D01*
X190518162Y-75712498D01*
X190439658Y-75672498D01*
X190330002Y-75655131D01*
X190329998Y-75655131D01*
X190220341Y-75672498D01*
X190121414Y-75722904D01*
X190121407Y-75722909D01*
X190042909Y-75801407D01*
X190042904Y-75801414D01*
X189992498Y-75900341D01*
X189975131Y-76009997D01*
X189526757Y-76009997D01*
X189557500Y-75949661D01*
X189557500Y-75949659D01*
X189557501Y-75949658D01*
X189574869Y-75840002D01*
X189574869Y-75839997D01*
X189557501Y-75730341D01*
X189536181Y-75688498D01*
X189507095Y-75631413D01*
X189507092Y-75631410D01*
X189507090Y-75631407D01*
X189428592Y-75552909D01*
X189428588Y-75552906D01*
X189428587Y-75552905D01*
X189408162Y-75542498D01*
X189329658Y-75502498D01*
X189220002Y-75485131D01*
X189219998Y-75485131D01*
X189110341Y-75502498D01*
X189011414Y-75552904D01*
X189011407Y-75552909D01*
X188932909Y-75631407D01*
X188932904Y-75631414D01*
X188882498Y-75730341D01*
X188865131Y-75839997D01*
X187368534Y-75839997D01*
X187357501Y-75770341D01*
X187352232Y-75760000D01*
X187307095Y-75671413D01*
X187307092Y-75671410D01*
X187307090Y-75671407D01*
X187228592Y-75592909D01*
X187228588Y-75592906D01*
X187228587Y-75592905D01*
X187224743Y-75590946D01*
X187129658Y-75542498D01*
X187020002Y-75525131D01*
X187019998Y-75525131D01*
X186910341Y-75542498D01*
X186811414Y-75592904D01*
X186811407Y-75592909D01*
X186732909Y-75671407D01*
X186732904Y-75671414D01*
X186682498Y-75770341D01*
X186665131Y-75879997D01*
X184816754Y-75879997D01*
X184811486Y-75869658D01*
X184797095Y-75841413D01*
X184797092Y-75841410D01*
X184797090Y-75841407D01*
X184718592Y-75762909D01*
X184718588Y-75762906D01*
X184718587Y-75762905D01*
X184671484Y-75738905D01*
X184619658Y-75712498D01*
X184510002Y-75695131D01*
X184509998Y-75695131D01*
X184400341Y-75712498D01*
X184301414Y-75762904D01*
X184301407Y-75762909D01*
X184222909Y-75841407D01*
X184222904Y-75841414D01*
X184172498Y-75940341D01*
X184155131Y-76049997D01*
X182932891Y-76049997D01*
X182938587Y-76047095D01*
X183017095Y-75968587D01*
X183067500Y-75869661D01*
X183067500Y-75869659D01*
X183067501Y-75869658D01*
X183084869Y-75760002D01*
X183084869Y-75759997D01*
X183067501Y-75650341D01*
X183038236Y-75592905D01*
X183017095Y-75551413D01*
X183017092Y-75551410D01*
X183017090Y-75551407D01*
X182938592Y-75472909D01*
X182938588Y-75472906D01*
X182938587Y-75472905D01*
X182934743Y-75470946D01*
X182839658Y-75422498D01*
X182730002Y-75405131D01*
X182729998Y-75405131D01*
X182620341Y-75422498D01*
X182521414Y-75472904D01*
X182521407Y-75472909D01*
X182442909Y-75551407D01*
X182442904Y-75551414D01*
X182392498Y-75650341D01*
X182375131Y-75759997D01*
X175699680Y-75759997D01*
X175678592Y-75738909D01*
X175678588Y-75738906D01*
X175678587Y-75738905D01*
X175626760Y-75712498D01*
X175579658Y-75688498D01*
X175470002Y-75671131D01*
X175469998Y-75671131D01*
X175360341Y-75688498D01*
X175261414Y-75738904D01*
X175261407Y-75738909D01*
X175182909Y-75817407D01*
X175182904Y-75817414D01*
X175132498Y-75916341D01*
X175115131Y-76025997D01*
X172570500Y-76025997D01*
X172570500Y-75004105D01*
X172590185Y-74937066D01*
X172642989Y-74891311D01*
X172712147Y-74881367D01*
X172775703Y-74910392D01*
X172786779Y-74922462D01*
X172871407Y-75007090D01*
X172871410Y-75007092D01*
X172871413Y-75007095D01*
X172970339Y-75057500D01*
X172970341Y-75057501D01*
X173079998Y-75074869D01*
X173080000Y-75074869D01*
X173080002Y-75074869D01*
X173189658Y-75057501D01*
X173189659Y-75057500D01*
X173189661Y-75057500D01*
X173288587Y-75007095D01*
X173367095Y-74928587D01*
X173417500Y-74829661D01*
X173417500Y-74829659D01*
X173417501Y-74829658D01*
X173434869Y-74720002D01*
X173434869Y-74719997D01*
X173417501Y-74610341D01*
X173393546Y-74563327D01*
X173367095Y-74511413D01*
X173367092Y-74511410D01*
X173367090Y-74511407D01*
X173288592Y-74432909D01*
X173288588Y-74432906D01*
X173288587Y-74432905D01*
X173284743Y-74430946D01*
X173189658Y-74382498D01*
X173080002Y-74365131D01*
X173079998Y-74365131D01*
X172970341Y-74382498D01*
X172871414Y-74432904D01*
X172871407Y-74432909D01*
X172786004Y-74518313D01*
X172784458Y-74516767D01*
X172739489Y-74551445D01*
X172669876Y-74557424D01*
X172608080Y-74524819D01*
X172573723Y-74463981D01*
X172570500Y-74435894D01*
X172570500Y-74116526D01*
X172590185Y-74049487D01*
X172642989Y-74003732D01*
X172694153Y-73994124D01*
X172694132Y-73992621D01*
X172698557Y-73992556D01*
X172698560Y-73992557D01*
X174289261Y-73969448D01*
X174356578Y-73988157D01*
G37*
%TD.AperFunction*%
%TD*%
M02*
