%TF.GenerationSoftware,KiCad,Pcbnew,8.0.5*%
%TF.CreationDate,2024-10-23T07:35:36+02:00*%
%TF.ProjectId,Carte sensors,43617274-6520-4736-956e-736f72732e6b,rev?*%
%TF.SameCoordinates,Original*%
%TF.FileFunction,Profile,NP*%
%FSLAX46Y46*%
G04 Gerber Fmt 4.6, Leading zero omitted, Abs format (unit mm)*
G04 Created by KiCad (PCBNEW 8.0.5) date 2024-10-23 07:35:36*
%MOMM*%
%LPD*%
G01*
G04 APERTURE LIST*
%TA.AperFunction,Profile*%
%ADD10C,0.100000*%
%TD*%
G04 APERTURE END LIST*
D10*
X208680000Y-114890000D02*
G75*
G02*
X207680000Y-114890000I-500000J0D01*
G01*
X207680000Y-114890000D02*
G75*
G02*
X208680000Y-114890000I500000J0D01*
G01*
X167030000Y-116160000D02*
G75*
G02*
X166030000Y-116160000I-500000J0D01*
G01*
X166030000Y-116160000D02*
G75*
G02*
X167030000Y-116160000I500000J0D01*
G01*
X216180000Y-114890000D02*
G75*
G02*
X215180000Y-114890000I-500000J0D01*
G01*
X215180000Y-114890000D02*
G75*
G02*
X216180000Y-114890000I500000J0D01*
G01*
X173580000Y-116130000D02*
G75*
G02*
X172580000Y-116130000I-500000J0D01*
G01*
X172580000Y-116130000D02*
G75*
G02*
X173580000Y-116130000I500000J0D01*
G01*
X204180000Y-114890000D02*
G75*
G02*
X203180000Y-114890000I-500000J0D01*
G01*
X203180000Y-114890000D02*
G75*
G02*
X204180000Y-114890000I500000J0D01*
G01*
X152490000Y-116170000D02*
G75*
G02*
X151490000Y-116170000I-500000J0D01*
G01*
X151490000Y-116170000D02*
G75*
G02*
X152490000Y-116170000I500000J0D01*
G01*
X158990000Y-116160000D02*
G75*
G02*
X157990000Y-116160000I-500000J0D01*
G01*
X157990000Y-116160000D02*
G75*
G02*
X158990000Y-116160000I500000J0D01*
G01*
X214680000Y-114890000D02*
G75*
G02*
X213680000Y-114890000I-500000J0D01*
G01*
X213680000Y-114890000D02*
G75*
G02*
X214680000Y-114890000I500000J0D01*
G01*
X210180000Y-114890000D02*
G75*
G02*
X209180000Y-114890000I-500000J0D01*
G01*
X209180000Y-114890000D02*
G75*
G02*
X210180000Y-114890000I500000J0D01*
G01*
X175350000Y-103260000D02*
G75*
G02*
X174350000Y-103260000I-500000J0D01*
G01*
X174350000Y-103260000D02*
G75*
G02*
X175350000Y-103260000I500000J0D01*
G01*
X175350000Y-108060000D02*
G75*
G02*
X174350000Y-108060000I-500000J0D01*
G01*
X174350000Y-108060000D02*
G75*
G02*
X175350000Y-108060000I500000J0D01*
G01*
X155790000Y-116160000D02*
G75*
G02*
X154790000Y-116160000I-500000J0D01*
G01*
X154790000Y-116160000D02*
G75*
G02*
X155790000Y-116160000I500000J0D01*
G01*
X162150000Y-94010000D02*
X162180000Y-96020000D01*
X174120000Y-95970000D01*
X174120000Y-100540000D01*
X201300000Y-100570000D01*
X201280000Y-94830000D01*
X228210000Y-94840000D01*
X228200000Y-113820000D01*
X216870000Y-113820000D01*
X216560000Y-129650000D01*
X201530000Y-129700000D01*
X201580000Y-115900000D01*
X201230000Y-115900000D01*
X201230000Y-110840000D01*
X174140000Y-110870000D01*
X174200000Y-137340000D01*
X149090000Y-137220000D01*
X149150000Y-127730000D01*
X145920000Y-127710000D01*
X145910000Y-114700000D01*
X146140000Y-96020000D01*
X155050000Y-96060000D01*
X155060000Y-93970000D01*
X162150000Y-94010000D01*
X175350000Y-101660000D02*
G75*
G02*
X174350000Y-101660000I-500000J0D01*
G01*
X174350000Y-101660000D02*
G75*
G02*
X175350000Y-101660000I500000J0D01*
G01*
X211680000Y-114890000D02*
G75*
G02*
X210680000Y-114890000I-500000J0D01*
G01*
X210680000Y-114890000D02*
G75*
G02*
X211680000Y-114890000I500000J0D01*
G01*
X202680000Y-114890000D02*
G75*
G02*
X201680000Y-114890000I-500000J0D01*
G01*
X201680000Y-114890000D02*
G75*
G02*
X202680000Y-114890000I500000J0D01*
G01*
X170230000Y-116160000D02*
G75*
G02*
X169230000Y-116160000I-500000J0D01*
G01*
X169230000Y-116160000D02*
G75*
G02*
X170230000Y-116160000I500000J0D01*
G01*
X154190000Y-116160000D02*
G75*
G02*
X153190000Y-116160000I-500000J0D01*
G01*
X153190000Y-116160000D02*
G75*
G02*
X154190000Y-116160000I500000J0D01*
G01*
X150840000Y-116170000D02*
G75*
G02*
X149840000Y-116170000I-500000J0D01*
G01*
X149840000Y-116170000D02*
G75*
G02*
X150840000Y-116170000I500000J0D01*
G01*
X200670000Y-106560000D02*
G75*
G02*
X199670000Y-106560000I-500000J0D01*
G01*
X199670000Y-106560000D02*
G75*
G02*
X200670000Y-106560000I500000J0D01*
G01*
X200670000Y-108160000D02*
G75*
G02*
X199670000Y-108160000I-500000J0D01*
G01*
X199670000Y-108160000D02*
G75*
G02*
X200670000Y-108160000I500000J0D01*
G01*
X168630000Y-116160000D02*
G75*
G02*
X167630000Y-116160000I-500000J0D01*
G01*
X167630000Y-116160000D02*
G75*
G02*
X168630000Y-116160000I500000J0D01*
G01*
X175350000Y-106460000D02*
G75*
G02*
X174350000Y-106460000I-500000J0D01*
G01*
X174350000Y-106460000D02*
G75*
G02*
X175350000Y-106460000I500000J0D01*
G01*
X162230000Y-116160000D02*
G75*
G02*
X161230000Y-116160000I-500000J0D01*
G01*
X161230000Y-116160000D02*
G75*
G02*
X162230000Y-116160000I500000J0D01*
G01*
X213180000Y-114890000D02*
G75*
G02*
X212180000Y-114890000I-500000J0D01*
G01*
X212180000Y-114890000D02*
G75*
G02*
X213180000Y-114890000I500000J0D01*
G01*
X149010000Y-116170000D02*
G75*
G02*
X148010000Y-116170000I-500000J0D01*
G01*
X148010000Y-116170000D02*
G75*
G02*
X149010000Y-116170000I500000J0D01*
G01*
X205680000Y-114890000D02*
G75*
G02*
X204680000Y-114890000I-500000J0D01*
G01*
X204680000Y-114890000D02*
G75*
G02*
X205680000Y-114890000I500000J0D01*
G01*
X207180000Y-114890000D02*
G75*
G02*
X206180000Y-114890000I-500000J0D01*
G01*
X206180000Y-114890000D02*
G75*
G02*
X207180000Y-114890000I500000J0D01*
G01*
X175350000Y-104860000D02*
G75*
G02*
X174350000Y-104860000I-500000J0D01*
G01*
X174350000Y-104860000D02*
G75*
G02*
X175350000Y-104860000I500000J0D01*
G01*
X171980000Y-116130000D02*
G75*
G02*
X170980000Y-116130000I-500000J0D01*
G01*
X170980000Y-116130000D02*
G75*
G02*
X171980000Y-116130000I500000J0D01*
G01*
X200670000Y-101760000D02*
G75*
G02*
X199670000Y-101760000I-500000J0D01*
G01*
X199670000Y-101760000D02*
G75*
G02*
X200670000Y-101760000I500000J0D01*
G01*
X147450000Y-116160000D02*
G75*
G02*
X146450000Y-116160000I-500000J0D01*
G01*
X146450000Y-116160000D02*
G75*
G02*
X147450000Y-116160000I500000J0D01*
G01*
X163830000Y-116160000D02*
G75*
G02*
X162830000Y-116160000I-500000J0D01*
G01*
X162830000Y-116160000D02*
G75*
G02*
X163830000Y-116160000I500000J0D01*
G01*
X157390000Y-116160000D02*
G75*
G02*
X156390000Y-116160000I-500000J0D01*
G01*
X156390000Y-116160000D02*
G75*
G02*
X157390000Y-116160000I500000J0D01*
G01*
X200670000Y-103360000D02*
G75*
G02*
X199670000Y-103360000I-500000J0D01*
G01*
X199670000Y-103360000D02*
G75*
G02*
X200670000Y-103360000I500000J0D01*
G01*
X165430000Y-116160000D02*
G75*
G02*
X164430000Y-116160000I-500000J0D01*
G01*
X164430000Y-116160000D02*
G75*
G02*
X165430000Y-116160000I500000J0D01*
G01*
X200670000Y-109760000D02*
G75*
G02*
X199670000Y-109760000I-500000J0D01*
G01*
X199670000Y-109760000D02*
G75*
G02*
X200670000Y-109760000I500000J0D01*
G01*
X200670000Y-104960000D02*
G75*
G02*
X199670000Y-104960000I-500000J0D01*
G01*
X199670000Y-104960000D02*
G75*
G02*
X200670000Y-104960000I500000J0D01*
G01*
X160590000Y-116160000D02*
G75*
G02*
X159590000Y-116160000I-500000J0D01*
G01*
X159590000Y-116160000D02*
G75*
G02*
X160590000Y-116160000I500000J0D01*
G01*
X175350000Y-109660000D02*
G75*
G02*
X174350000Y-109660000I-500000J0D01*
G01*
X174350000Y-109660000D02*
G75*
G02*
X175350000Y-109660000I500000J0D01*
G01*
M02*
