M48
; DRILL file {KiCad 8.0.5} date 2024-10-23T07:35:33+0200
; FORMAT={-:-/ absolute / inch / decimal}
; #@! TF.CreationDate,2024-10-23T07:35:33+02:00
; #@! TF.GenerationSoftware,Kicad,Pcbnew,8.0.5
; #@! TF.FileFunction,Plated,1,2,PTH
FMAT,2
INCH
; #@! TA.AperFunction,Plated,PTH,ViaDrill
T1C0.0118
; #@! TA.AperFunction,Plated,PTH,ComponentDrill
T2C0.0197
; #@! TA.AperFunction,Plated,PTH,ComponentDrill
T3C0.0394
; #@! TA.AperFunction,Plated,PTH,ComponentDrill
T4C0.1260
%
G90
G05
T1
X5.7598Y-4.8492
X5.7598Y-4.8886
X5.7606Y-4.9555
X5.7606Y-4.9949
X5.7614Y-4.7465
X5.7614Y-4.7858
X5.7646Y-4.3654
X5.7665Y-4.6421
X5.7665Y-4.6815
X5.7709Y-4.4091
X5.7709Y-4.4878
X5.7906Y-4.3657
X5.7992Y-4.8492
X5.7992Y-4.8886
X5.8Y-4.9555
X5.8Y-4.9949
X5.8008Y-4.7465
X5.8008Y-4.7858
X5.8059Y-4.6421
X5.8059Y-4.6815
X5.8201Y-4.3657
X5.8386Y-4.8492
X5.8386Y-4.8886
X5.8394Y-4.9555
X5.8394Y-4.9949
X5.8402Y-4.7465
X5.8402Y-4.7858
X5.8453Y-4.6421
X5.8453Y-4.6815
X5.8535Y-4.3661
X5.8594Y-4.4882
X5.8661Y-4.4059
X5.8866Y-5.0535
X5.8906Y-4.3677
X5.8941Y-4.4614
X5.9276Y-4.3657
X5.9311Y-4.4917
X5.936Y-4.6781
X5.9364Y-4.9056
X5.9508Y-5.0976
X5.9575Y-4.3657
X5.9724Y-4.4614
X5.9925Y-4.3657
X6.0272Y-4.365
X6.0504Y-4.3106
X6.0508Y-4.0543
X6.0508Y-4.0858
X6.0512Y-3.9917
X6.0512Y-4.0256
X6.0512Y-4.1209
X6.0512Y-4.2598
X6.0512Y-4.2906
X6.0512Y-4.3374
X6.0512Y-4.4618
X6.0516Y-4.2224
X6.052Y-3.9654
X6.0528Y-4.1512
X6.0528Y-4.1894
X6.0531Y-3.9299
X6.063Y-5.1012
X6.0634Y-3.8591
X6.0898Y-4.4894
X6.1079Y-4.4012
X6.1287Y-4.3012
X6.1295Y-3.8339
X6.1295Y-4.4618
X6.1335Y-3.7394
X6.1346Y-4.1457
X6.1433Y-5.085
X6.1457Y-4.0551
X6.1457Y-5.1087
X6.1516Y-3.9134
X6.1606Y-4.3933
X6.1681Y-4.4898
X6.1697Y-3.7811
X6.1862Y-4.176
X6.1933Y-3.9744
X6.2039Y-5.1071
X6.2197Y-4.3067
X6.2232Y-4.9823
X6.2248Y-4.6248
X6.2248Y-4.6693
X6.2283Y-4.8972
X6.2382Y-4.111
X6.2421Y-4.3835
X6.2441Y-3.7244
X6.2472Y-4.8382
X6.2496Y-3.8476
X6.2547Y-4.4941
X6.2652Y-4.7815
X6.2658Y-4.7029
X6.2705Y-3.7594
X6.2717Y-3.7913
X6.2764Y-4.4398
X6.2858Y-4.6453
X6.2874Y-4.6776
X6.2878Y-4.0472
X6.3024Y-4.2327
X6.3035Y-5.1083
X6.3177Y-4.4953
X6.3201Y-4.9077
X6.3202Y-4.9406
X6.324Y-3.7736
X6.3256Y-3.8504
X6.3287Y-4.2984
X6.3291Y-3.9122
X6.3356Y-4.8956
X6.3433Y-4.7559
X6.3606Y-4.0295
X6.3638Y-5.037
X6.3661Y-4.2295
X6.3766Y-4.9766
X6.3874Y-4.9236
X6.3933Y-4.7575
X6.3945Y-4.3756
X6.3945Y-4.7161
X6.3969Y-4.8248
X6.4035Y-3.8622
X6.4035Y-4.4949
X6.4122Y-4.6276
X6.4161Y-4.1291
X6.426Y-3.9083
X6.4299Y-4.7154
X6.4303Y-4.7512
X6.437Y-3.985
X6.4413Y-4.187
X6.4638Y-4.3929
X6.4654Y-4.8622
X6.4669Y-4.9232
X6.4748Y-4.2685
X6.4756Y-4.3047
X6.4795Y-5.076
X6.4827Y-4.4965
X6.4843Y-3.8209
X6.4875Y-4.841
X6.4988Y-4.0209
X6.5016Y-4.8583
X6.5039Y-4.1016
X6.5114Y-4.6209
X6.513Y-4.739
X6.5134Y-4.3165
X6.5134Y-4.3362
X6.5169Y-4.8858
X6.5173Y-4.9197
X6.5181Y-4.6701
X6.5224Y-3.9469
X6.5236Y-4.1461
X6.5276Y-3.9016
X6.5476Y-4.9709
X6.5478Y-4.8362
X6.5524Y-4.3154
X6.5606Y-4.4957
X6.5657Y-4.9283
X6.5768Y-4.9543
X6.5815Y-4.2346
X6.5866Y-4.1059
X6.5953Y-4.7972
X6.5957Y-5.3752
X6.6004Y-3.8331
X6.602Y-4.6291
X6.6161Y-5.1154
X6.6169Y-5.0626
X6.6354Y-4.8776
X6.6354Y-4.9169
X6.6354Y-4.9563
X6.6394Y-4.4909
X6.6398Y-4.013
X6.6437Y-4.1382
X6.6469Y-4.3575
X6.6476Y-4.2642
X6.6531Y-4.7244
X6.6594Y-3.9043
X6.6787Y-3.8335
X6.6886Y-4.0709
X6.7051Y-4.9563
X6.7051Y-5.0425
X6.7087Y-4.7496
X6.7161Y-3.9744
X6.7177Y-4.4921
X6.7201Y-3.9142
X6.7224Y-4.198
X6.7236Y-5.1933
X6.7264Y-5.302
X6.7425Y-4.8972
X6.7571Y-4.4606
X6.7575Y-4.7091
X6.7736Y-4.6358
X6.786Y-5.1343
X6.786Y-5.3547
X6.788Y-4.8264
X6.788Y-5.0469
X6.798Y-4.4913
X6.8091Y-5.1984
X6.8177Y-5.3008
X6.826Y-4.6346
X6.8283Y-4.4406
X6.8287Y-4.3858
X6.8291Y-4.4913
X6.8291Y-4.6783
X6.8311Y-3.8531
X6.8311Y-4.3315
X6.8311Y-4.9843
X6.8319Y-4.9067
X6.8343Y-3.9114
X6.8343Y-3.9673
X6.9752Y-4.1961
X6.9756Y-4.2783
X6.976Y-4.0524
X6.9772Y-4.1276
X6.999Y-4.0142
X6.999Y-4.3134
X7.0516Y-4.1272
X7.0535Y-4.285
X7.0543Y-4.2051
X7.0551Y-4.0535
X7.0555Y-4.3378
X7.0969Y-4.2205
X7.1516Y-4.0654
X7.1516Y-4.1047
X7.1516Y-4.1441
X7.1516Y-4.1835
X7.1516Y-4.2228
X7.1665Y-4.3362
X7.1685Y-4.2886
X7.174Y-3.9945
X7.202Y-4.2039
X7.2091Y-4.1614
X7.2106Y-4.1146
X7.2116Y-4.2829
X7.2173Y-4.0567
X7.2217Y-4.2634
X7.2287Y-3.9874
X7.2433Y-4.2327
X7.2496Y-4.337
X7.2646Y-4.1831
X7.2831Y-4.0394
X7.285Y-4.3083
X7.2854Y-3.987
X7.2862Y-4.2618
X7.3173Y-3.998
X7.3177Y-4.0169
X7.3205Y-4.2358
X7.3339Y-4.3378
X7.3343Y-4.0665
X7.3437Y-4.1823
X7.3535Y-4.1205
X7.4012Y-4.163
X7.411Y-3.987
X7.4118Y-4.0055
X7.4173Y-4.0602
X7.4173Y-4.0933
X7.4213Y-4.3386
X7.4244Y-4.1953
X7.4256Y-4.2268
X7.4268Y-4.2638
X7.4394Y-4.111
X7.4717Y-4.1059
X7.4878Y-4.1307
X7.4878Y-4.1504
X7.4878Y-4.2228
X7.4882Y-4.2516
X7.526Y-4.2205
X7.5362Y-4.3366
X7.5461Y-4.265
X7.5465Y-4.1138
X7.5465Y-4.185
X7.5535Y-4.2177
X7.5587Y-4.0236
X7.5689Y-4.0783
X7.5933Y-4.289
X7.6083Y-3.9839
X7.6106Y-4.3362
X7.6177Y-4.026
X7.6177Y-4.2465
X7.6587Y-3.9846
X7.661Y-4.3378
X7.7157Y-4.0492
X7.7413Y-4.198
X7.7602Y-4.3181
X7.7693Y-4.0354
X7.7693Y-4.2559
X7.7819Y-4.0827
X7.8083Y-3.9807
X7.8102Y-4.1791
X7.9472Y-3.7484
X7.9472Y-3.7799
X7.9472Y-3.8114
X7.9567Y-4.6425
X7.9606Y-4.5886
X7.9626Y-5.0807
X7.9787Y-3.7484
X7.9787Y-3.7799
X7.9787Y-3.8114
X7.998Y-4.7433
X7.998Y-4.9638
X8.0055Y-4.8512
X8.0102Y-3.7484
X8.0102Y-3.7799
X8.0102Y-3.8114
X8.0157Y-5.0181
X8.0417Y-3.7484
X8.0417Y-3.7799
X8.0417Y-3.8114
X8.0488Y-5.0807
X8.0492Y-4.6024
X8.0681Y-4.6331
X8.0732Y-3.7484
X8.0732Y-3.7799
X8.0732Y-3.8114
X8.0862Y-4.7087
X8.0862Y-4.8972
X8.0921Y-4.8587
X8.0925Y-4.9969
X8.0972Y-4.5913
X8.1035Y-4.6681
X8.1043Y-4.9665
X8.1047Y-3.7484
X8.1047Y-3.7799
X8.1047Y-3.8114
X8.1213Y-5.0469
X8.1346Y-5.0827
X8.1362Y-3.7484
X8.1362Y-3.7799
X8.1362Y-3.8114
X8.1506Y-4.8732
X8.1506Y-4.9126
X8.1547Y-4.9772
X8.1677Y-3.7484
X8.1677Y-3.7799
X8.1677Y-3.8114
X8.1827Y-4.5831
X8.1854Y-5.0858
X8.1925Y-4.8008
X8.198Y-4.7217
X8.1992Y-4.8827
X8.2075Y-4.626
X8.2161Y-4.9047
X8.2232Y-4.2311
X8.2232Y-4.2626
X8.2232Y-4.2941
X8.2232Y-4.3256
X8.2232Y-4.3571
X8.2232Y-4.3886
X8.2232Y-4.4201
X8.2232Y-4.4516
X8.2248Y-4.6811
X8.2303Y-5.0563
X8.2327Y-4.5811
X8.2496Y-4.9807
X8.2547Y-4.2311
X8.2547Y-4.2626
X8.2547Y-4.2941
X8.2547Y-4.3256
X8.2547Y-4.3571
X8.2547Y-4.3886
X8.2547Y-4.4201
X8.2547Y-4.4516
X8.2626Y-4.9051
X8.2783Y-5.0579
X8.2862Y-4.2311
X8.2862Y-4.2626
X8.2862Y-4.2941
X8.2862Y-4.3256
X8.2862Y-4.3571
X8.2862Y-4.3886
X8.2862Y-4.4201
X8.2862Y-4.4516
X8.2925Y-5.0323
X8.2949Y-4.9626
X8.3122Y-4.7378
X8.3138Y-4.8272
X8.3177Y-4.2311
X8.3177Y-4.2626
X8.3177Y-4.2941
X8.3177Y-4.3256
X8.3177Y-4.3571
X8.3177Y-4.3886
X8.3177Y-4.4201
X8.3177Y-4.4516
X8.3256Y-5.0335
X8.3283Y-4.6551
X8.3345Y-4.9163
X8.3417Y-4.6756
X8.3492Y-4.2311
X8.3492Y-4.2626
X8.3492Y-4.2941
X8.3492Y-4.3256
X8.3492Y-4.3571
X8.3492Y-4.3886
X8.3492Y-4.4201
X8.3492Y-4.4516
X8.3575Y-5.0846
X8.361Y-4.7524
X8.3618Y-4.9047
X8.3651Y-4.0327
X8.3693Y-5.032
X8.3807Y-4.2311
X8.3807Y-4.2626
X8.3807Y-4.2941
X8.3807Y-4.3256
X8.3807Y-4.3571
X8.3807Y-4.3886
X8.3807Y-4.4201
X8.3807Y-4.4516
X8.3823Y-4.5819
X8.3866Y-4.9165
X8.3913Y-4.6394
X8.4122Y-4.2311
X8.4122Y-4.2626
X8.4122Y-4.2941
X8.4122Y-4.3256
X8.4122Y-4.3571
X8.4122Y-4.3886
X8.4122Y-4.4201
X8.4122Y-4.4516
X8.4209Y-4.5953
X8.4248Y-4.8886
X8.4276Y-4.8598
X8.4421Y-4.7598
X8.4437Y-4.2311
X8.4437Y-4.2626
X8.4437Y-4.2941
X8.4437Y-4.3256
X8.4437Y-4.3571
X8.4437Y-4.3886
X8.4437Y-4.4201
X8.4437Y-4.4516
X8.4594Y-5.0866
X8.4654Y-4.7181
X8.4752Y-4.2311
X8.4752Y-4.2626
X8.4752Y-4.2941
X8.4752Y-4.3256
X8.4752Y-4.3571
X8.4752Y-4.3886
X8.4752Y-4.4201
X8.4752Y-4.4516
X8.4835Y-4.8535
X8.4906Y-4.6602
X8.4909Y-4.5945
X8.5016Y-4.6992
X8.5024Y-5.0815
X8.5067Y-4.2311
X8.5067Y-4.2626
X8.5067Y-4.2941
X8.5067Y-4.3256
X8.5067Y-4.3571
X8.5067Y-4.3886
X8.5067Y-4.4201
X8.5067Y-4.4516
X8.5075Y-4.7606
X8.5083Y-4.8039
X8.5165Y-4.9012
X8.5217Y-4.6272
X8.5382Y-4.2311
X8.5382Y-4.2626
X8.5382Y-4.2941
X8.5382Y-4.3256
X8.5382Y-4.3571
X8.5382Y-4.3886
X8.5382Y-4.4201
X8.5382Y-4.4516
X8.5697Y-4.2311
X8.5697Y-4.2626
X8.5697Y-4.2941
X8.5697Y-4.3256
X8.5697Y-4.3571
X8.5697Y-4.3886
X8.5697Y-4.4201
X8.5697Y-4.4516
X8.5786Y-4.0327
X8.6012Y-4.2311
X8.6012Y-4.2626
X8.6012Y-4.2941
X8.6012Y-4.3256
X8.6012Y-4.3571
X8.6012Y-4.3886
X8.6012Y-4.4201
X8.6012Y-4.4516
X8.6327Y-4.2311
X8.6327Y-4.2626
X8.6327Y-4.2941
X8.6327Y-4.3256
X8.6327Y-4.3571
X8.6327Y-4.3886
X8.6327Y-4.4201
X8.6327Y-4.4516
X8.6642Y-4.2311
X8.6642Y-4.2626
X8.6642Y-4.2941
X8.6642Y-4.3256
X8.6642Y-4.3571
X8.6642Y-4.3886
X8.6642Y-4.4201
X8.6642Y-4.4516
X8.7244Y-3.7618
X8.7244Y-3.7933
X8.7244Y-3.8248
X8.7559Y-3.7618
X8.7559Y-3.7933
X8.7559Y-3.8248
X8.7874Y-3.7618
X8.7874Y-3.7933
X8.7874Y-3.8248
X8.8189Y-3.7618
X8.8189Y-3.7933
X8.8189Y-3.8248
X8.8504Y-3.7618
X8.8504Y-3.7933
X8.8504Y-3.8248
X8.8819Y-3.7618
X8.8819Y-3.7933
X8.8819Y-3.8248
X8.9134Y-3.7618
X8.9134Y-3.7933
X8.9134Y-3.8248
X8.9449Y-3.7618
X8.9449Y-3.7933
X8.9449Y-3.8248
T2
X7.9796Y-4.3383
X7.9828Y-3.96
X8.0073Y-4.2715
X8.0073Y-4.4051
X8.0105Y-3.8931
X8.0105Y-4.0268
X8.0741Y-4.2438
X8.0741Y-4.4328
X8.0773Y-3.8655
X8.0773Y-4.0544
X8.1409Y-4.2715
X8.1409Y-4.4051
X8.1441Y-3.8931
X8.1441Y-4.0268
X8.1686Y-4.3383
X8.1718Y-3.96
X8.7501Y-4.3383
X8.7512Y-3.9697
X8.7778Y-4.2715
X8.7778Y-4.4051
X8.7789Y-3.9029
X8.7789Y-4.0365
X8.8446Y-4.2438
X8.8446Y-4.4328
X8.8457Y-3.8752
X8.8457Y-4.0642
X8.9114Y-4.2715
X8.9114Y-4.4051
X8.9125Y-3.9029
X8.9125Y-4.0365
X8.9391Y-4.3383
X8.9402Y-3.9697
T3
X5.9467Y-5.3201
X5.9488Y-5.1732
X6.0467Y-5.3201
X6.0488Y-5.1732
X6.1467Y-5.3201
X6.1488Y-5.1732
X6.2927Y-5.3201
X6.2933Y-5.1732
X6.3927Y-5.3201
X6.3933Y-5.1732
X6.4927Y-5.3201
X6.4933Y-5.1732
T4
X8.0741Y-4.3383
X8.0773Y-3.96
X8.8446Y-4.3383
X8.8457Y-3.9697
M30
